<svg xmlns="http://www.w3.org/2000/svg" viewBox="0 0 512 512" role="img" aria-label="INTERSTELLAR">
<defs>
  <linearGradient id="bg" x2="1" y2="1"><stop stop-color="#152543"/><stop offset="1" stop-color="#44799b"/></linearGradient>
  <radialGradient id="light"><stop stop-color="#8affd2" stop-opacity=".24"/><stop offset="1" stop-color="#8affd2" stop-opacity="0"/></radialGradient>
</defs>
<rect width="512" height="512" fill="url(#bg)"/>
<circle cx="256" cy="220" r="250" fill="url(#light)"/>
<path d="M27 27h458v458H27z" fill="none" stroke="#8affd2" stroke-opacity=".47" stroke-width="2"/>
<path d="M220 124h72v28h27v39h27v66h-45v36h-90v-36h-45v-66h27v-39h27z" fill="#8affd2"/>
      <path d="M229 181h22v22h-22z M265 181h22v22h-22z M211 239h90v17h-90z" fill="#183451"/>
      <path d="M199 291h29v42h-29z M284 291h29v42h-29z" fill="#ffbb76"/>
      <path d="M96 180h17v17H96z M381 118h17v17h-17z M382 288h17v17h-17z M130 312h17v17h-17z" fill="#e4f9fa"/>
<rect x="0" y="386" width="512" height="126" fill="#152543" opacity=".9"/>
<path d="M28 388h456" stroke="#8affd2" stroke-width="3"/>
<text x="32" y="74" fill="#8affd2" font-family="Arial,Helvetica,sans-serif" font-size="16" font-weight="700" letter-spacing="7">JUKEBOX · ÉLITE</text>
<text x="32" y="433" fill="#fff9ed" font-family="Arial,Helvetica,sans-serif" font-size="27" font-weight="700" letter-spacing="1.4">INTERSTELLAR</text>
<text x="32" y="466" fill="#8affd2" font-family="Arial,Helvetica,sans-serif" font-size="15" letter-spacing="3">ZANE LITTLE MUSIC</text>
</svg>
