# Created by Kenney (www.kenney.nl)

mtllib banners-green.mtl

g banners-green

v -0.390625 0.35 0.390625 1 1 1
v -0.390625 0.2875 0.359375 1 1 1
v -0.359375 0.2875 0.390625 1 1 1
v -0.484375 0.2875 0.453125 1 1 1
v -0.453125 0.35 0.453125 1 1 1
v -0.453125 0.2875 0.484375 1 1 1
v -0.484375 0.2875 0.390625 1 1 1
v -0.453125 0.2875 0.359375 1 1 1
v -0.453125 0.35 0.390625 1 1 1
v -0.390625 0.35 0.453125 1 1 1
v -0.359375 0.2875 0.453125 1 1 1
v -0.390625 0.2875 0.484375 1 1 1
v -0.34375 0 0.4609375 1 1 1
v -0.3828125 0 0.5 1 1 1
v -0.390625 2.4875 0.453125 1 1 1
v -0.453125 2.4875 0.453125 1 1 1
v -0.4609375 0 0.34375 1 1 1
v -0.3828125 0 0.34375 1 1 1
v -0.5 0 0.4609375 1 1 1
v -0.4609375 0 0.5 1 1 1
v -0.34375 0 0.3828125 1 1 1
v -0.5 0 0.3828125 1 1 1
v -0.453125 2.4875 0.390625 1 1 1
v -0.390625 2.4875 0.390625 1 1 1
v 0.453125 0.35 0.390625 1 1 1
v 0.453125 0.2875 0.359375 1 1 1
v 0.484375 0.2875 0.390625 1 1 1
v 0.359375 0.2875 0.453125 1 1 1
v 0.390625 0.35 0.453125 1 1 1
v 0.390625 0.2875 0.484375 1 1 1
v 0.359375 0.2875 0.390625 1 1 1
v 0.390625 0.2875 0.359375 1 1 1
v 0.390625 0.35 0.390625 1 1 1
v 0.453125 0.35 0.453125 1 1 1
v 0.484375 0.2875 0.453125 1 1 1
v 0.453125 0.2875 0.484375 1 1 1
v 0.5 0 0.4609375 1 1 1
v 0.4609375 0 0.5 1 1 1
v 0.453125 2.4875 0.453125 1 1 1
v 0.390625 2.4875 0.453125 1 1 1
v 0.3828125 0 0.34375 1 1 1
v 0.4609375 0 0.34375 1 1 1
v 0.34375 0 0.4609375 1 1 1
v 0.3828125 0 0.5 1 1 1
v 0.5 0 0.3828125 1 1 1
v 0.34375 0 0.3828125 1 1 1
v 0.390625 2.4875 0.390625 1 1 1
v 0.453125 2.4875 0.390625 1 1 1
v 0.453125 0.35 -0.453125 1 1 1
v 0.453125 0.2875 -0.484375 1 1 1
v 0.484375 0.2875 -0.453125 1 1 1
v 0.359375 0.2875 -0.390625 1 1 1
v 0.390625 0.35 -0.390625 1 1 1
v 0.390625 0.2875 -0.359375 1 1 1
v 0.359375 0.2875 -0.453125 1 1 1
v 0.390625 0.2875 -0.484375 1 1 1
v 0.390625 0.35 -0.453125 1 1 1
v 0.453125 0.35 -0.390625 1 1 1
v 0.484375 0.2875 -0.390625 1 1 1
v 0.453125 0.2875 -0.359375 1 1 1
v 0.5 0 -0.3828125 1 1 1
v 0.4609375 0 -0.34375 1 1 1
v 0.453125 2.4875 -0.390625 1 1 1
v 0.390625 2.4875 -0.390625 1 1 1
v 0.3828125 0 -0.5 1 1 1
v 0.4609375 0 -0.5 1 1 1
v 0.34375 0 -0.3828125 1 1 1
v 0.3828125 0 -0.34375 1 1 1
v 0.5 0 -0.4609375 1 1 1
v 0.34375 0 -0.4609375 1 1 1
v 0.390625 2.4875 -0.453125 1 1 1
v 0.453125 2.4875 -0.453125 1 1 1
v -0.390625 0.35 -0.453125 1 1 1
v -0.390625 0.2875 -0.484375 1 1 1
v -0.359375 0.2875 -0.453125 1 1 1
v -0.484375 0.2875 -0.390625 1 1 1
v -0.453125 0.35 -0.390625 1 1 1
v -0.453125 0.2875 -0.359375 1 1 1
v -0.484375 0.2875 -0.453125 1 1 1
v -0.453125 0.2875 -0.484375 1 1 1
v -0.453125 0.35 -0.453125 1 1 1
v -0.390625 0.35 -0.390625 1 1 1
v -0.359375 0.2875 -0.390625 1 1 1
v -0.390625 0.2875 -0.359375 1 1 1
v -0.34375 0 -0.3828125 1 1 1
v -0.3828125 0 -0.34375 1 1 1
v -0.390625 2.4875 -0.390625 1 1 1
v -0.453125 2.4875 -0.390625 1 1 1
v -0.4609375 0 -0.5 1 1 1
v -0.3828125 0 -0.5 1 1 1
v -0.5 0 -0.3828125 1 1 1
v -0.4609375 0 -0.34375 1 1 1
v -0.34375 0 -0.4609375 1 1 1
v -0.5 0 -0.4609375 1 1 1
v -0.453125 2.4875 -0.453125 1 1 1
v -0.390625 2.4875 -0.453125 1 1 1
v -0.390625 2.3625 -0.3632813 1 1 1
v -0.453125 2.3625 -0.3632813 1 1 1
v -0.390625 2.3625 0.3632812 1 1 1
v -0.453125 2.3625 0.3632812 1 1 1
v 0.453125 2.425 -0.3632813 1 1 1
v 0.453125 2.3625 -0.3632813 1 1 1
v 0.453125 2.425 0.3632812 1 1 1
v 0.453125 2.3625 0.3632812 1 1 1
v 0.390625 2.425 -0.3632813 1 1 1
v 0.390625 2.425 0.3632812 1 1 1
v 0.390625 2.3625 -0.3632813 1 1 1
v 0.390625 2.3625 0.3632812 1 1 1
v -0.390625 2.425 -0.3632813 1 1 1
v -0.390625 2.425 0.3632812 1 1 1
v -0.453125 2.425 -0.3632813 1 1 1
v -0.453125 2.425 0.3632812 1 1 1
v 0.3632813 2.425 0.453125 1 1 1
v -0.3632813 2.425 0.453125 1 1 1
v 0.3632813 2.425 0.390625 1 1 1
v -0.3632813 2.425 0.390625 1 1 1
v 0.3632813 2.3625 -0.390625 1 1 1
v 0.3632813 2.3625 -0.4531251 1 1 1
v -0.3632813 2.3625 -0.390625 1 1 1
v -0.3632813 2.3625 -0.4531251 1 1 1
v -0.3632813 2.3625 0.453125 1 1 1
v 0.3632813 2.3625 0.453125 1 1 1
v -0.3632813 2.3625 0.390625 1 1 1
v 0.3632813 2.3625 0.390625 1 1 1
v 0.3632813 2.425 -0.390625 1 1 1
v -0.3632813 2.425 -0.390625 1 1 1
v 0.3632813 2.425 -0.4531251 1 1 1
v -0.3632813 2.425 -0.4531251 1 1 1
v -0.4804688 2.3625 0.390625 1 1 1
v -0.4804688 2.425 0.390625 1 1 1
v -0.4804688 2.3625 0.453125 1 1 1
v -0.4804688 2.425 0.453125 1 1 1
v -0.390625 2.3625 0.4804688 1 1 1
v -0.453125 2.3625 0.4804688 1 1 1
v -0.390625 2.425 0.4804688 1 1 1
v -0.453125 2.425 0.4804688 1 1 1
v -0.3632813 2.425 0.390625 1 1 1
v -0.3632813 2.3625 0.390625 1 1 1
v -0.3632813 2.425 0.453125 1 1 1
v -0.3632813 2.3625 0.453125 1 1 1
v -0.453125 2.3625 0.3632813 1 1 1
v -0.390625 2.3625 0.3632813 1 1 1
v -0.453125 2.425 0.3632813 1 1 1
v -0.390625 2.425 0.3632813 1 1 1
v -0.4804688 2.3625 -0.453125 1 1 1
v -0.4804688 2.425 -0.453125 1 1 1
v -0.4804688 2.3625 -0.390625 1 1 1
v -0.4804688 2.425 -0.390625 1 1 1
v -0.390625 2.3625 -0.3632812 1 1 1
v -0.453125 2.3625 -0.3632812 1 1 1
v -0.390625 2.425 -0.3632812 1 1 1
v -0.453125 2.425 -0.3632812 1 1 1
v -0.3632813 2.425 -0.453125 1 1 1
v -0.3632813 2.3625 -0.453125 1 1 1
v -0.3632813 2.425 -0.390625 1 1 1
v -0.3632813 2.3625 -0.390625 1 1 1
v -0.453125 2.3625 -0.4804687 1 1 1
v -0.390625 2.3625 -0.4804687 1 1 1
v -0.453125 2.425 -0.4804687 1 1 1
v -0.390625 2.425 -0.4804687 1 1 1
v 0.3632812 2.3625 -0.453125 1 1 1
v 0.3632812 2.425 -0.453125 1 1 1
v 0.3632812 2.3625 -0.390625 1 1 1
v 0.3632812 2.425 -0.390625 1 1 1
v 0.453125 2.3625 -0.3632812 1 1 1
v 0.390625 2.3625 -0.3632812 1 1 1
v 0.453125 2.425 -0.3632812 1 1 1
v 0.390625 2.425 -0.3632812 1 1 1
v 0.4804687 2.425 -0.453125 1 1 1
v 0.4804687 2.3625 -0.453125 1 1 1
v 0.4804687 2.425 -0.390625 1 1 1
v 0.4804687 2.3625 -0.390625 1 1 1
v 0.390625 2.3625 -0.4804687 1 1 1
v 0.453125 2.3625 -0.4804687 1 1 1
v 0.390625 2.425 -0.4804687 1 1 1
v 0.453125 2.425 -0.4804687 1 1 1
v 0.3632812 2.3625 0.390625 1 1 1
v 0.3632812 2.425 0.390625 1 1 1
v 0.3632812 2.3625 0.453125 1 1 1
v 0.3632812 2.425 0.453125 1 1 1
v 0.453125 2.3625 0.4804688 1 1 1
v 0.390625 2.3625 0.4804688 1 1 1
v 0.453125 2.425 0.4804688 1 1 1
v 0.390625 2.425 0.4804688 1 1 1
v 0.4804687 2.425 0.390625 1 1 1
v 0.4804687 2.3625 0.390625 1 1 1
v 0.4804687 2.425 0.453125 1 1 1
v 0.4804687 2.3625 0.453125 1 1 1
v 0.390625 2.3625 0.3632813 1 1 1
v 0.453125 2.3625 0.3632813 1 1 1
v 0.390625 2.425 0.3632813 1 1 1
v 0.453125 2.425 0.3632813 1 1 1
v 0.3632812 1.3625 0.390625 1 1 1
v 0.3632812 1.425 0.390625 1 1 1
v 0.3632812 1.3625 0.453125 1 1 1
v 0.3632812 1.425 0.453125 1 1 1
v 0.453125 1.3625 0.4804688 1 1 1
v 0.390625 1.3625 0.4804688 1 1 1
v 0.453125 1.425 0.4804688 1 1 1
v 0.390625 1.425 0.4804688 1 1 1
v 0.4804687 1.425 0.390625 1 1 1
v 0.4804687 1.3625 0.390625 1 1 1
v 0.4804687 1.425 0.453125 1 1 1
v 0.4804687 1.3625 0.453125 1 1 1
v 0.390625 1.3625 0.3632813 1 1 1
v 0.453125 1.3625 0.3632813 1 1 1
v 0.390625 1.425 0.3632813 1 1 1
v 0.453125 1.425 0.3632813 1 1 1
v -0.4804688 1.3625 -0.453125 1 1 1
v -0.4804688 1.425 -0.453125 1 1 1
v -0.4804688 1.3625 -0.390625 1 1 1
v -0.4804688 1.425 -0.390625 1 1 1
v -0.390625 1.3625 -0.3632812 1 1 1
v -0.453125 1.3625 -0.3632812 1 1 1
v -0.390625 1.425 -0.3632812 1 1 1
v -0.453125 1.425 -0.3632812 1 1 1
v -0.3632813 1.425 -0.453125 1 1 1
v -0.3632813 1.3625 -0.453125 1 1 1
v -0.3632813 1.425 -0.390625 1 1 1
v -0.3632813 1.3625 -0.390625 1 1 1
v -0.453125 1.3625 -0.4804687 1 1 1
v -0.390625 1.3625 -0.4804687 1 1 1
v -0.453125 1.425 -0.4804687 1 1 1
v -0.390625 1.425 -0.4804687 1 1 1
v -0.390625 1.3625 -0.3632813 1 1 1
v -0.453125 1.3625 -0.3632813 1 1 1
v -0.390625 1.3625 0.3632812 1 1 1
v -0.453125 1.3625 0.3632812 1 1 1
v 0.453125 1.425 -0.3632813 1 1 1
v 0.453125 1.3625 -0.3632813 1 1 1
v 0.453125 1.425 0.3632812 1 1 1
v 0.453125 1.3625 0.3632812 1 1 1
v 0.390625 1.425 -0.3632813 1 1 1
v 0.390625 1.425 0.3632812 1 1 1
v 0.390625 1.3625 -0.3632813 1 1 1
v 0.390625 1.3625 0.3632812 1 1 1
v -0.390625 1.425 -0.3632813 1 1 1
v -0.390625 1.425 0.3632812 1 1 1
v -0.453125 1.425 -0.3632813 1 1 1
v -0.453125 1.425 0.3632812 1 1 1
v 0.3632813 1.425 0.453125 1 1 1
v -0.3632813 1.425 0.453125 1 1 1
v 0.3632813 1.425 0.390625 1 1 1
v -0.3632813 1.425 0.390625 1 1 1
v 0.3632813 1.3625 -0.390625 1 1 1
v 0.3632813 1.3625 -0.4531251 1 1 1
v -0.3632813 1.3625 -0.390625 1 1 1
v -0.3632813 1.3625 -0.4531251 1 1 1
v -0.3632813 1.3625 0.453125 1 1 1
v 0.3632813 1.3625 0.453125 1 1 1
v -0.3632813 1.3625 0.390625 1 1 1
v 0.3632813 1.3625 0.390625 1 1 1
v 0.3632813 1.425 -0.390625 1 1 1
v -0.3632813 1.425 -0.390625 1 1 1
v 0.3632813 1.425 -0.4531251 1 1 1
v -0.3632813 1.425 -0.4531251 1 1 1
v -0.4804688 1.3625 0.390625 1 1 1
v -0.4804688 1.425 0.390625 1 1 1
v -0.4804688 1.3625 0.453125 1 1 1
v -0.4804688 1.425 0.453125 1 1 1
v -0.390625 1.3625 0.4804688 1 1 1
v -0.453125 1.3625 0.4804688 1 1 1
v -0.390625 1.425 0.4804688 1 1 1
v -0.453125 1.425 0.4804688 1 1 1
v -0.3632813 1.425 0.390625 1 1 1
v -0.3632813 1.3625 0.390625 1 1 1
v -0.3632813 1.425 0.453125 1 1 1
v -0.3632813 1.3625 0.453125 1 1 1
v -0.453125 1.3625 0.3632813 1 1 1
v -0.390625 1.3625 0.3632813 1 1 1
v -0.453125 1.425 0.3632813 1 1 1
v -0.390625 1.425 0.3632813 1 1 1
v 0.3632812 1.3625 -0.453125 1 1 1
v 0.3632812 1.425 -0.453125 1 1 1
v 0.3632812 1.3625 -0.390625 1 1 1
v 0.3632812 1.425 -0.390625 1 1 1
v 0.453125 1.3625 -0.3632812 1 1 1
v 0.390625 1.3625 -0.3632812 1 1 1
v 0.453125 1.425 -0.3632812 1 1 1
v 0.390625 1.425 -0.3632812 1 1 1
v 0.4804687 1.425 -0.453125 1 1 1
v 0.4804687 1.3625 -0.453125 1 1 1
v 0.4804687 1.425 -0.390625 1 1 1
v 0.4804687 1.3625 -0.390625 1 1 1
v 0.390625 1.3625 -0.4804687 1 1 1
v 0.453125 1.3625 -0.4804687 1 1 1
v 0.390625 1.425 -0.4804687 1 1 1
v 0.453125 1.425 -0.4804687 1 1 1
v 0.3632813 1.475 -0.4218749 1 1 1
v 0.3632813 2.3125 -0.4218749 1 1 1
v 0.3132813 1.425 -0.4218749 1 1 1
v 0.3132813 2.3625 -0.4218749 1 1 1
v -0.3132813 1.425 -0.421875 1 1 1
v -0.3132813 2.3625 -0.421875 1 1 1
v -0.3632813 1.475 -0.421875 1 1 1
v -0.3632813 2.3125 -0.421875 1 1 1
v 0.421875 1.475 0.3632813 1 1 1
v 0.421875 2.3125 0.3632813 1 1 1
v 0.421875 1.425 0.3132812 1 1 1
v 0.421875 2.3625 0.3132812 1 1 1
v 0.421875 1.425 -0.3132812 1 1 1
v 0.421875 2.3625 -0.3132812 1 1 1
v 0.421875 1.475 -0.3632813 1 1 1
v 0.421875 2.3125 -0.3632813 1 1 1
v -0.421875 1.475 0.3632813 1 1 1
v -0.421875 2.3125 0.3632813 1 1 1
v -0.421875 1.425 0.3132812 1 1 1
v -0.421875 2.3625 0.3132812 1 1 1
v -0.421875 1.425 -0.3132812 1 1 1
v -0.421875 2.3625 -0.3132812 1 1 1
v -0.421875 1.475 -0.3632813 1 1 1
v -0.421875 2.3125 -0.3632813 1 1 1
v 0.3632813 1.475 0.421875 1 1 1
v 0.3632813 2.3125 0.421875 1 1 1
v 0.3132813 1.425 0.421875 1 1 1
v 0.3132813 2.3625 0.421875 1 1 1
v -0.3132813 1.425 0.4218749 1 1 1
v -0.3132813 2.3625 0.4218749 1 1 1
v -0.3632813 1.475 0.4218749 1 1 1
v -0.3632813 2.3125 0.4218749 1 1 1
v 0.3007813 2.335156 -0.390625 1 1 1
v 0.3007813 2.335156 -0.453125 1 1 1
v 0.2382813 2.335156 -0.390625 1 1 1
v 0.2382813 2.335156 -0.453125 1 1 1
v 0.3007813 2.425 -0.3632812 1 1 1
v 0.2382813 2.425 -0.3632812 1 1 1
v 0.3007813 2.452344 -0.390625 1 1 1
v 0.2382813 2.452344 -0.390625 1 1 1
v 0.3007813 2.3625 -0.4804687 1 1 1
v 0.3007813 2.425 -0.4804687 1 1 1
v 0.2382813 2.3625 -0.4804687 1 1 1
v 0.2382813 2.425 -0.4804687 1 1 1
v 0.3007813 2.452344 -0.453125 1 1 1
v 0.2382813 2.452344 -0.453125 1 1 1
v 0.3007813 2.3625 -0.3632812 1 1 1
v 0.2382813 2.3625 -0.3632812 1 1 1
v 0.3007813 1.335156 0.453125 1 1 1
v 0.3007813 1.335156 0.390625 1 1 1
v 0.2382813 1.335156 0.453125 1 1 1
v 0.2382813 1.335156 0.390625 1 1 1
v 0.3007813 1.425 0.4804687 1 1 1
v 0.2382813 1.425 0.4804687 1 1 1
v 0.3007813 1.452344 0.453125 1 1 1
v 0.2382813 1.452344 0.453125 1 1 1
v 0.3007813 1.3625 0.3632812 1 1 1
v 0.3007813 1.425 0.3632812 1 1 1
v 0.2382813 1.3625 0.3632812 1 1 1
v 0.2382813 1.425 0.3632812 1 1 1
v 0.3007813 1.452344 0.390625 1 1 1
v 0.2382813 1.452344 0.390625 1 1 1
v 0.3007813 1.3625 0.4804687 1 1 1
v 0.2382813 1.3625 0.4804687 1 1 1
v 0.3007813 2.335156 0.453125 1 1 1
v 0.3007813 2.335156 0.390625 1 1 1
v 0.2382813 2.335156 0.453125 1 1 1
v 0.2382813 2.335156 0.390625 1 1 1
v 0.3007813 2.425 0.4804687 1 1 1
v 0.2382813 2.425 0.4804687 1 1 1
v 0.3007813 2.452344 0.453125 1 1 1
v 0.2382813 2.452344 0.453125 1 1 1
v 0.3007813 2.3625 0.3632812 1 1 1
v 0.3007813 2.425 0.3632812 1 1 1
v 0.2382813 2.3625 0.3632812 1 1 1
v 0.2382813 2.425 0.3632812 1 1 1
v 0.3007813 2.452344 0.390625 1 1 1
v 0.2382813 2.452344 0.390625 1 1 1
v 0.3007813 2.3625 0.4804687 1 1 1
v 0.2382813 2.3625 0.4804687 1 1 1
v -0.2382813 1.3625 0.3632812 1 1 1
v -0.2382813 1.425 0.3632812 1 1 1
v -0.3007813 1.3625 0.3632812 1 1 1
v -0.3007813 1.425 0.3632812 1 1 1
v -0.2382813 1.335156 0.390625 1 1 1
v -0.3007813 1.335156 0.390625 1 1 1
v -0.2382813 1.335156 0.453125 1 1 1
v -0.3007813 1.335156 0.453125 1 1 1
v -0.2382813 1.3625 0.4804687 1 1 1
v -0.3007813 1.3625 0.4804687 1 1 1
v -0.2382813 1.452344 0.390625 1 1 1
v -0.2382813 1.452344 0.453125 1 1 1
v -0.3007813 1.452344 0.390625 1 1 1
v -0.3007813 1.452344 0.453125 1 1 1
v -0.2382813 1.425 0.4804687 1 1 1
v -0.3007813 1.425 0.4804687 1 1 1
v -0.2382813 1.3625 -0.4804687 1 1 1
v -0.2382813 1.425 -0.4804687 1 1 1
v -0.3007813 1.3625 -0.4804687 1 1 1
v -0.3007813 1.425 -0.4804687 1 1 1
v -0.2382813 1.335156 -0.453125 1 1 1
v -0.3007813 1.335156 -0.453125 1 1 1
v -0.2382813 1.335156 -0.390625 1 1 1
v -0.3007813 1.335156 -0.390625 1 1 1
v -0.2382813 1.3625 -0.3632812 1 1 1
v -0.3007813 1.3625 -0.3632812 1 1 1
v -0.2382813 1.452344 -0.453125 1 1 1
v -0.2382813 1.452344 -0.390625 1 1 1
v -0.3007813 1.452344 -0.453125 1 1 1
v -0.3007813 1.452344 -0.390625 1 1 1
v -0.2382813 1.425 -0.3632812 1 1 1
v -0.3007813 1.425 -0.3632812 1 1 1
v -0.2382813 2.3625 -0.4804687 1 1 1
v -0.2382813 2.425 -0.4804687 1 1 1
v -0.3007813 2.3625 -0.4804687 1 1 1
v -0.3007813 2.425 -0.4804687 1 1 1
v -0.2382813 2.335156 -0.453125 1 1 1
v -0.3007813 2.335156 -0.453125 1 1 1
v -0.2382813 2.335156 -0.390625 1 1 1
v -0.3007813 2.335156 -0.390625 1 1 1
v -0.2382813 2.3625 -0.3632812 1 1 1
v -0.3007813 2.3625 -0.3632812 1 1 1
v -0.2382813 2.452344 -0.453125 1 1 1
v -0.2382813 2.452344 -0.390625 1 1 1
v -0.3007813 2.452344 -0.453125 1 1 1
v -0.3007813 2.452344 -0.390625 1 1 1
v -0.2382813 2.425 -0.3632812 1 1 1
v -0.3007813 2.425 -0.3632812 1 1 1
v 0.4804688 1.3625 -0.2382812 1 1 1
v 0.4804688 1.425 -0.2382812 1 1 1
v 0.4804688 1.3625 -0.3007813 1 1 1
v 0.4804688 1.425 -0.3007813 1 1 1
v 0.453125 1.335156 -0.2382813 1 1 1
v 0.453125 1.335156 -0.3007813 1 1 1
v 0.390625 1.335156 -0.2382813 1 1 1
v 0.390625 1.335156 -0.3007813 1 1 1
v 0.3632813 1.3625 -0.2382813 1 1 1
v 0.3632813 1.3625 -0.3007813 1 1 1
v 0.453125 1.452344 -0.2382813 1 1 1
v 0.390625 1.452344 -0.2382813 1 1 1
v 0.453125 1.452344 -0.3007813 1 1 1
v 0.390625 1.452344 -0.3007813 1 1 1
v 0.3632813 1.425 -0.2382813 1 1 1
v 0.3632813 1.425 -0.3007813 1 1 1
v 0.4804688 2.3625 -0.2382812 1 1 1
v 0.4804688 2.425 -0.2382812 1 1 1
v 0.4804688 2.3625 -0.3007813 1 1 1
v 0.4804688 2.425 -0.3007813 1 1 1
v 0.453125 2.335156 -0.2382813 1 1 1
v 0.453125 2.335156 -0.3007813 1 1 1
v 0.390625 2.335156 -0.2382813 1 1 1
v 0.390625 2.335156 -0.3007813 1 1 1
v 0.3632813 2.3625 -0.2382813 1 1 1
v 0.3632813 2.3625 -0.3007813 1 1 1
v 0.453125 2.452344 -0.2382813 1 1 1
v 0.390625 2.452344 -0.2382813 1 1 1
v 0.453125 2.452344 -0.3007813 1 1 1
v 0.390625 2.452344 -0.3007813 1 1 1
v 0.3632813 2.425 -0.2382813 1 1 1
v 0.3632813 2.425 -0.3007813 1 1 1
v -0.3632812 2.3625 -0.2382812 1 1 1
v -0.3632812 2.425 -0.2382812 1 1 1
v -0.3632812 2.3625 -0.3007813 1 1 1
v -0.3632812 2.425 -0.3007813 1 1 1
v -0.390625 2.335156 -0.2382813 1 1 1
v -0.390625 2.335156 -0.3007813 1 1 1
v -0.453125 2.335156 -0.2382813 1 1 1
v -0.453125 2.335156 -0.3007813 1 1 1
v -0.4804688 2.3625 -0.2382813 1 1 1
v -0.4804687 2.3625 -0.3007813 1 1 1
v -0.390625 2.452344 -0.2382813 1 1 1
v -0.453125 2.452344 -0.2382813 1 1 1
v -0.390625 2.452344 -0.3007813 1 1 1
v -0.453125 2.452344 -0.3007813 1 1 1
v -0.4804688 2.425 -0.2382813 1 1 1
v -0.4804687 2.425 -0.3007813 1 1 1
v 0.390625 2.335156 0.3007813 1 1 1
v 0.453125 2.335156 0.3007813 1 1 1
v 0.390625 2.335156 0.2382813 1 1 1
v 0.453125 2.335156 0.2382813 1 1 1
v 0.3632812 2.425 0.3007813 1 1 1
v 0.3632812 2.425 0.2382812 1 1 1
v 0.390625 2.452344 0.3007813 1 1 1
v 0.390625 2.452344 0.2382813 1 1 1
v 0.4804687 2.3625 0.3007813 1 1 1
v 0.4804687 2.425 0.3007813 1 1 1
v 0.4804688 2.3625 0.2382813 1 1 1
v 0.4804688 2.425 0.2382813 1 1 1
v 0.453125 2.452344 0.3007813 1 1 1
v 0.453125 2.452344 0.2382813 1 1 1
v 0.3632812 2.3625 0.3007813 1 1 1
v 0.3632812 2.3625 0.2382812 1 1 1
v -0.453125 2.335156 0.3007813 1 1 1
v -0.390625 2.335156 0.3007813 1 1 1
v -0.453125 2.335156 0.2382813 1 1 1
v -0.390625 2.335156 0.2382813 1 1 1
v -0.4804688 2.425 0.3007813 1 1 1
v -0.4804688 2.425 0.2382812 1 1 1
v -0.453125 2.452344 0.3007813 1 1 1
v -0.453125 2.452344 0.2382813 1 1 1
v -0.3632813 2.3625 0.3007813 1 1 1
v -0.3632813 2.425 0.3007813 1 1 1
v -0.3632813 2.3625 0.2382813 1 1 1
v -0.3632813 2.425 0.2382813 1 1 1
v -0.390625 2.452344 0.3007813 1 1 1
v -0.390625 2.452344 0.2382813 1 1 1
v -0.4804688 2.3625 0.3007813 1 1 1
v -0.4804688 2.3625 0.2382812 1 1 1
v 0.390625 1.335156 0.3007813 1 1 1
v 0.453125 1.335156 0.3007813 1 1 1
v 0.390625 1.335156 0.2382813 1 1 1
v 0.453125 1.335156 0.2382813 1 1 1
v 0.3632812 1.425 0.3007813 1 1 1
v 0.3632812 1.425 0.2382812 1 1 1
v 0.390625 1.452344 0.3007813 1 1 1
v 0.390625 1.452344 0.2382813 1 1 1
v 0.4804687 1.3625 0.3007813 1 1 1
v 0.4804687 1.425 0.3007813 1 1 1
v 0.4804688 1.3625 0.2382813 1 1 1
v 0.4804688 1.425 0.2382813 1 1 1
v 0.453125 1.452344 0.3007813 1 1 1
v 0.453125 1.452344 0.2382813 1 1 1
v 0.3632812 1.3625 0.3007813 1 1 1
v 0.3632812 1.3625 0.2382812 1 1 1
v -0.3632812 1.3625 -0.2382812 1 1 1
v -0.3632812 1.425 -0.2382812 1 1 1
v -0.3632812 1.3625 -0.3007813 1 1 1
v -0.3632812 1.425 -0.3007813 1 1 1
v -0.390625 1.335156 -0.2382813 1 1 1
v -0.390625 1.335156 -0.3007813 1 1 1
v -0.453125 1.335156 -0.2382813 1 1 1
v -0.453125 1.335156 -0.3007813 1 1 1
v -0.4804688 1.3625 -0.2382813 1 1 1
v -0.4804687 1.3625 -0.3007813 1 1 1
v -0.390625 1.452344 -0.2382813 1 1 1
v -0.453125 1.452344 -0.2382813 1 1 1
v -0.390625 1.452344 -0.3007813 1 1 1
v -0.453125 1.452344 -0.3007813 1 1 1
v -0.4804688 1.425 -0.2382813 1 1 1
v -0.4804687 1.425 -0.3007813 1 1 1
v -0.453125 1.335156 0.3007813 1 1 1
v -0.390625 1.335156 0.3007813 1 1 1
v -0.453125 1.335156 0.2382813 1 1 1
v -0.390625 1.335156 0.2382813 1 1 1
v -0.4804688 1.425 0.3007813 1 1 1
v -0.4804688 1.425 0.2382812 1 1 1
v -0.453125 1.452344 0.3007813 1 1 1
v -0.453125 1.452344 0.2382813 1 1 1
v -0.3632813 1.3625 0.3007813 1 1 1
v -0.3632813 1.425 0.3007813 1 1 1
v -0.3632813 1.3625 0.2382813 1 1 1
v -0.3632813 1.425 0.2382813 1 1 1
v -0.390625 1.452344 0.3007813 1 1 1
v -0.390625 1.452344 0.2382813 1 1 1
v -0.4804688 1.3625 0.3007813 1 1 1
v -0.4804688 1.3625 0.2382812 1 1 1
v -0.2382813 2.3625 0.3632812 1 1 1
v -0.2382813 2.425 0.3632812 1 1 1
v -0.3007813 2.3625 0.3632812 1 1 1
v -0.3007813 2.425 0.3632812 1 1 1
v -0.2382813 2.335156 0.390625 1 1 1
v -0.3007813 2.335156 0.390625 1 1 1
v -0.2382813 2.335156 0.453125 1 1 1
v -0.3007813 2.335156 0.453125 1 1 1
v -0.2382813 2.3625 0.4804687 1 1 1
v -0.3007813 2.3625 0.4804687 1 1 1
v -0.2382813 2.452344 0.390625 1 1 1
v -0.2382813 2.452344 0.453125 1 1 1
v -0.3007813 2.452344 0.390625 1 1 1
v -0.3007813 2.452344 0.453125 1 1 1
v -0.2382813 2.425 0.4804687 1 1 1
v -0.3007813 2.425 0.4804687 1 1 1
v 0.3007813 1.335156 -0.390625 1 1 1
v 0.3007813 1.335156 -0.453125 1 1 1
v 0.2382813 1.335156 -0.390625 1 1 1
v 0.2382813 1.335156 -0.453125 1 1 1
v 0.3007813 1.425 -0.3632812 1 1 1
v 0.2382813 1.425 -0.3632812 1 1 1
v 0.3007813 1.452344 -0.390625 1 1 1
v 0.2382813 1.452344 -0.390625 1 1 1
v 0.3007813 1.3625 -0.4804687 1 1 1
v 0.3007813 1.425 -0.4804687 1 1 1
v 0.2382813 1.3625 -0.4804687 1 1 1
v 0.2382813 1.425 -0.4804687 1 1 1
v 0.3007813 1.452344 -0.453125 1 1 1
v 0.2382813 1.452344 -0.453125 1 1 1
v 0.3007813 1.3625 -0.3632812 1 1 1
v 0.2382813 1.3625 -0.3632812 1 1 1

vn 0.5997861 0.5296351 -0.5997861
vn 0.315808 0.4243266 -0.8486531
vn 0.8486531 0.4243266 -0.315808
vn -0.8486531 0.4243266 0.315808
vn -0.5997861 0.5296351 0.5997861
vn -0.315808 0.4243266 0.8486531
vn -0.8486531 0.4243266 -0.315808
vn -0.315808 0.4243266 -0.8486531
vn -0.5997861 0.5296351 -0.5997861
vn 0.5997861 0.5296351 0.5997861
vn 0.8486531 0.4243266 0.315808
vn 0.315808 0.4243266 0.8486531
vn 0.9217949 0.06050319 0.3829277
vn 0.3829277 0.06050319 0.9217949
vn 0.9225959 0.0604942 0.380995
vn 0.380995 0.0604942 0.9225959
vn 0.7071068 0 0.7071068
vn -0.7071068 0 0.7071068
vn -0.3829277 0.06050319 -0.9217949
vn 0.3829277 0.06050319 -0.9217949
vn -0.380995 0.0604942 -0.9225959
vn 0.380995 0.0604942 -0.9225959
vn -0.9225959 0.0604942 0.380995
vn -0.380995 0.0604942 0.9225959
vn -0.9217949 0.06050319 0.3829277
vn -0.3829277 0.06050319 0.9217949
vn 0 -1 0
vn -0.9217949 0.06050319 -0.3829277
vn -0.9225959 0.0604942 -0.380995
vn -0.7071068 0 -0.7071068
vn 0.7071068 0 -0.7071068
vn 0.9217949 0.06050319 -0.3829277
vn 0.9225959 0.0604942 -0.380995
vn 0 1 0
vn 0.7071068 -0.7071068 0
vn -0.7071068 -0.7071068 0
vn 0.7071068 0.7071068 0
vn -0.7071068 0.7071068 0
vn 0 0.6810126 0.7322717
vn 0 0.6810126 -0.7322717
vn 0 -0.6810126 0.7322717
vn 0 -0.6810126 -0.7322717
vn -0.9238795 0 -0.3826834
vn -0.9238795 0 0.3826834
vn 0.3826834 0 0.9238795
vn -0.3826834 0 0.9238795
vn 0.9238795 0 -0.3826834
vn 0.9238795 0 0.3826834
vn -0.3826834 0 -0.9238795
vn 0.3826834 0 -0.9238795
vn 1.192093E-07 0 -1
vn -1.192093E-07 0 1
vn 1 0 -7.448917E-13
vn -1 0 7.448917E-13
vn 0 -0.9238795 0.3826834
vn 0 -0.9238795 -0.3826834
vn 0 0.3826834 0.9238795
vn 0 0.9238795 0.3826834
vn 0 -0.3826834 -0.9238795
vn 0 0.3826834 -0.9238795
vn 0 0.9238795 -0.3826834
vn 0 -0.3826834 0.9238795
vn 1 0 0
vn -1 0 0
vn 0.9238796 -0.3826834 1.10135E-07
vn 0.9238796 0.3826834 1.10135E-07
vn 0.3826835 -0.9238795 4.561942E-08
vn -0.3826835 -0.9238795 -4.561942E-08
vn -0.9238796 -0.3826834 -1.10135E-07
vn 0.3826835 0.9238795 4.561942E-08
vn -0.3826835 0.9238795 -4.561942E-08
vn -0.9238796 0.3826834 -1.10135E-07

vt 0.46875 0.1968593
vt 0.46875 0.2018844
vt 0.46875 0.225
vt 0.46875 0.025
vt 0.46875 0.075
vt 0.46875 0.175
vt 0.21875 0.4196666
vt 0.21875 0.3303334
vt 0.21875 0.425
vt 0.21875 0.325
vt 0.21875 0.4016666
vt 0.21875 0.3483333

usemtl colormap

f 3/2/3 2/2/2 1/1/1
f 6/2/6 5/1/5 4/2/4
f 9/1/9 8/2/8 7/2/7
f 12/2/12 11/2/11 10/1/10
f 11/2/15 14/3/14 13/3/13
f 14/3/14 11/2/15 12/2/16
f 15/4/17 5/1/18 10/1/17
f 5/1/18 15/4/17 16/4/18
f 8/2/21 18/3/20 17/3/19
f 18/3/20 8/2/21 2/2/22
f 9/1/9 2/2/2 8/2/8
f 2/2/2 9/1/9 1/1/1
f 19/3/25 6/2/24 4/2/23
f 6/2/24 19/3/25 20/3/26
f 14/3/27 21/3/27 13/3/27
f 21/3/27 14/3/27 18/3/27
f 18/3/27 14/3/27 20/3/27
f 18/3/27 20/3/27 17/3/27
f 17/3/27 20/3/27 19/3/27
f 17/3/27 19/3/27 22/3/27
f 4/2/4 9/1/9 7/2/7
f 9/1/9 4/2/4 5/1/5
f 22/3/28 8/2/21 17/3/19
f 8/2/21 22/3/28 7/2/29
f 10/1/10 6/2/6 12/2/12
f 6/2/6 10/1/10 5/1/5
f 12/2/16 20/3/26 14/3/14
f 20/3/26 12/2/16 6/2/24
f 23/4/30 1/1/31 9/1/30
f 1/1/31 23/4/30 24/4/31
f 15/4/17 1/1/31 24/4/31
f 1/1/31 15/4/17 10/1/17
f 2/2/22 21/3/32 18/3/20
f 21/3/32 2/2/22 3/2/33
f 19/3/25 7/2/29 22/3/28
f 7/2/29 19/3/25 4/2/23
f 3/2/33 13/3/13 21/3/32
f 13/3/13 3/2/33 11/2/15
f 23/4/34 15/4/34 24/4/34
f 15/4/34 23/4/34 16/4/34
f 5/1/18 23/4/30 9/1/30
f 23/4/30 5/1/18 16/4/18
f 10/1/10 3/2/3 1/1/1
f 3/2/3 10/1/10 11/2/11
f 27/2/3 26/2/2 25/1/1
f 30/2/6 29/1/5 28/2/4
f 33/1/9 32/2/8 31/2/7
f 36/2/12 35/2/11 34/1/10
f 35/2/15 38/3/14 37/3/13
f 38/3/14 35/2/15 36/2/16
f 39/4/17 29/1/18 34/1/17
f 29/1/18 39/4/17 40/4/18
f 32/2/21 42/3/20 41/3/19
f 42/3/20 32/2/21 26/2/22
f 33/1/9 26/2/2 32/2/8
f 26/2/2 33/1/9 25/1/1
f 43/3/25 30/2/24 28/2/23
f 30/2/24 43/3/25 44/3/26
f 38/3/27 45/3/27 37/3/27
f 45/3/27 38/3/27 42/3/27
f 42/3/27 38/3/27 44/3/27
f 42/3/27 44/3/27 41/3/27
f 41/3/27 44/3/27 43/3/27
f 41/3/27 43/3/27 46/3/27
f 28/2/4 33/1/9 31/2/7
f 33/1/9 28/2/4 29/1/5
f 46/3/28 32/2/21 41/3/19
f 32/2/21 46/3/28 31/2/29
f 34/1/10 30/2/6 36/2/12
f 30/2/6 34/1/10 29/1/5
f 36/2/16 44/3/26 38/3/14
f 44/3/26 36/2/16 30/2/24
f 47/4/30 25/1/31 33/1/30
f 25/1/31 47/4/30 48/4/31
f 39/4/17 25/1/31 48/4/31
f 25/1/31 39/4/17 34/1/17
f 26/2/22 45/3/32 42/3/20
f 45/3/32 26/2/22 27/2/33
f 43/3/25 31/2/29 46/3/28
f 31/2/29 43/3/25 28/2/23
f 27/2/33 37/3/13 45/3/32
f 37/3/13 27/2/33 35/2/15
f 47/4/34 39/4/34 48/4/34
f 39/4/34 47/4/34 40/4/34
f 29/1/18 47/4/30 33/1/30
f 47/4/30 29/1/18 40/4/18
f 34/1/10 27/2/3 25/1/1
f 27/2/3 34/1/10 35/2/11
f 51/2/3 50/2/2 49/1/1
f 54/2/6 53/1/5 52/2/4
f 57/1/9 56/2/8 55/2/7
f 60/2/12 59/2/11 58/1/10
f 59/2/15 62/3/14 61/3/13
f 62/3/14 59/2/15 60/2/16
f 63/4/17 53/1/18 58/1/17
f 53/1/18 63/4/17 64/4/18
f 56/2/21 66/3/20 65/3/19
f 66/3/20 56/2/21 50/2/22
f 57/1/9 50/2/2 56/2/8
f 50/2/2 57/1/9 49/1/1
f 67/3/25 54/2/24 52/2/23
f 54/2/24 67/3/25 68/3/26
f 62/3/27 69/3/27 61/3/27
f 69/3/27 62/3/27 66/3/27
f 66/3/27 62/3/27 68/3/27
f 66/3/27 68/3/27 65/3/27
f 65/3/27 68/3/27 67/3/27
f 65/3/27 67/3/27 70/3/27
f 52/2/4 57/1/9 55/2/7
f 57/1/9 52/2/4 53/1/5
f 70/3/28 56/2/21 65/3/19
f 56/2/21 70/3/28 55/2/29
f 58/1/10 54/2/6 60/2/12
f 54/2/6 58/1/10 53/1/5
f 60/2/16 68/3/26 62/3/14
f 68/3/26 60/2/16 54/2/24
f 71/4/30 49/1/31 57/1/30
f 49/1/31 71/4/30 72/4/31
f 63/4/17 49/1/31 72/4/31
f 49/1/31 63/4/17 58/1/17
f 50/2/22 69/3/32 66/3/20
f 69/3/32 50/2/22 51/2/33
f 67/3/25 55/2/29 70/3/28
f 55/2/29 67/3/25 52/2/23
f 51/2/33 61/3/13 69/3/32
f 61/3/13 51/2/33 59/2/15
f 71/4/34 63/4/34 72/4/34
f 63/4/34 71/4/34 64/4/34
f 53/1/18 71/4/30 57/1/30
f 71/4/30 53/1/18 64/4/18
f 58/1/10 51/2/3 49/1/1
f 51/2/3 58/1/10 59/2/11
f 75/2/3 74/2/2 73/1/1
f 78/2/6 77/1/5 76/2/4
f 81/1/9 80/2/8 79/2/7
f 84/2/12 83/2/11 82/1/10
f 83/2/15 86/3/14 85/3/13
f 86/3/14 83/2/15 84/2/16
f 87/4/17 77/1/18 82/1/17
f 77/1/18 87/4/17 88/4/18
f 80/2/21 90/3/20 89/3/19
f 90/3/20 80/2/21 74/2/22
f 81/1/9 74/2/2 80/2/8
f 74/2/2 81/1/9 73/1/1
f 91/3/25 78/2/24 76/2/23
f 78/2/24 91/3/25 92/3/26
f 86/3/27 93/3/27 85/3/27
f 93/3/27 86/3/27 90/3/27
f 90/3/27 86/3/27 92/3/27
f 90/3/27 92/3/27 89/3/27
f 89/3/27 92/3/27 91/3/27
f 89/3/27 91/3/27 94/3/27
f 76/2/4 81/1/9 79/2/7
f 81/1/9 76/2/4 77/1/5
f 94/3/28 80/2/21 89/3/19
f 80/2/21 94/3/28 79/2/29
f 82/1/10 78/2/6 84/2/12
f 78/2/6 82/1/10 77/1/5
f 84/2/16 92/3/26 86/3/14
f 92/3/26 84/2/16 78/2/24
f 95/4/30 73/1/31 81/1/30
f 73/1/31 95/4/30 96/4/31
f 87/4/17 73/1/31 96/4/31
f 73/1/31 87/4/17 82/1/17
f 74/2/22 93/3/32 90/3/20
f 93/3/32 74/2/22 75/2/33
f 91/3/25 79/2/29 94/3/28
f 79/2/29 91/3/25 76/2/23
f 75/2/33 85/3/13 93/3/32
f 85/3/13 75/2/33 83/2/15
f 95/4/34 87/4/34 96/4/34
f 87/4/34 95/4/34 88/4/34
f 77/1/18 95/4/30 81/1/30
f 95/4/30 77/1/18 88/4/18
f 82/1/10 75/2/3 73/1/1
f 75/2/3 82/1/10 83/2/11
f 99/5/35 98/5/36 97/5/35
f 98/5/36 99/5/35 100/5/36
f 103/6/37 102/5/35 101/6/37
f 102/5/35 103/6/37 104/5/35
f 105/6/38 103/6/37 101/6/37
f 103/6/37 105/6/38 106/6/38
f 108/5/36 105/6/38 107/5/36
f 105/6/38 108/5/36 106/6/38
f 111/6/38 110/6/37 109/6/37
f 110/6/37 111/6/38 112/6/38
f 98/5/36 112/6/38 111/6/38
f 112/6/38 98/5/36 100/5/36
f 110/6/37 97/5/35 109/6/37
f 97/5/35 110/6/37 99/5/35
f 108/5/36 102/5/35 104/5/35
f 102/5/35 108/5/36 107/5/36
f 115/6/40 114/6/39 113/6/39
f 114/6/39 115/6/40 116/6/40
f 119/5/41 118/5/42 117/5/41
f 118/5/42 119/5/41 120/5/42
f 122/5/41 114/6/39 121/5/41
f 114/6/39 122/5/41 113/6/39
f 116/6/40 124/5/42 123/5/42
f 124/5/42 116/6/40 115/6/40
f 121/5/41 124/5/42 122/5/41
f 124/5/42 121/5/41 123/5/42
f 127/6/40 126/6/39 125/6/39
f 126/6/39 127/6/40 128/6/40
f 128/6/40 118/5/42 120/5/42
f 118/5/42 128/6/40 127/6/40
f 117/5/41 126/6/39 119/5/41
f 126/6/39 117/5/41 125/6/39
f 131/5/44 130/6/43 129/5/43
f 130/6/43 131/5/44 132/6/44
f 135/6/45 134/5/46 133/5/45
f 134/5/46 135/6/45 136/6/46
f 139/6/48 138/5/47 137/6/47
f 138/5/47 139/6/48 140/5/48
f 143/6/49 142/5/50 141/5/49
f 142/5/50 143/6/49 144/6/50
f 144/6/50 138/5/47 142/5/50
f 138/5/47 144/6/50 137/6/47
f 130/6/43 141/5/49 129/5/43
f 141/5/49 130/6/43 143/6/49
f 139/6/48 133/5/45 140/5/48
f 133/5/45 139/6/48 135/6/45
f 136/6/46 131/5/44 134/5/46
f 131/5/44 136/6/46 132/6/44
f 144/6/34 139/6/34 137/6/34
f 139/6/34 144/6/34 135/6/34
f 135/6/34 144/6/34 143/6/34
f 135/6/34 143/6/34 136/6/34
f 136/6/34 143/6/34 132/6/34
f 132/6/34 143/6/34 130/6/34
f 133/5/27 138/5/27 140/5/27
f 138/5/27 133/5/27 142/5/27
f 142/5/27 133/5/27 134/5/27
f 142/5/27 134/5/27 141/5/27
f 141/5/27 134/5/27 131/5/27
f 141/5/27 131/5/27 129/5/27
f 147/5/44 146/6/43 145/5/43
f 146/6/43 147/5/44 148/6/44
f 151/6/45 150/5/46 149/5/45
f 150/5/46 151/6/45 152/6/46
f 155/6/48 154/5/47 153/6/47
f 154/5/47 155/6/48 156/5/48
f 159/6/49 158/5/50 157/5/49
f 158/5/50 159/6/49 160/6/50
f 160/6/50 154/5/47 158/5/50
f 154/5/47 160/6/50 153/6/47
f 146/6/43 157/5/49 145/5/43
f 157/5/49 146/6/43 159/6/49
f 155/6/48 149/5/45 156/5/48
f 149/5/45 155/6/48 151/6/45
f 152/6/46 147/5/44 150/5/46
f 147/5/44 152/6/46 148/6/44
f 160/6/34 155/6/34 153/6/34
f 155/6/34 160/6/34 151/6/34
f 151/6/34 160/6/34 159/6/34
f 151/6/34 159/6/34 152/6/34
f 152/6/34 159/6/34 148/6/34
f 148/6/34 159/6/34 146/6/34
f 149/5/27 154/5/27 156/5/27
f 154/5/27 149/5/27 158/5/27
f 158/5/27 149/5/27 150/5/27
f 158/5/27 150/5/27 157/5/27
f 157/5/27 150/5/27 147/5/27
f 157/5/27 147/5/27 145/5/27
f 163/5/44 162/6/43 161/5/43
f 162/6/43 163/5/44 164/6/44
f 167/6/45 166/5/46 165/5/45
f 166/5/46 167/6/45 168/6/46
f 171/6/48 170/5/47 169/6/47
f 170/5/47 171/6/48 172/5/48
f 175/6/49 174/5/50 173/5/49
f 174/5/50 175/6/49 176/6/50
f 176/6/50 170/5/47 174/5/50
f 170/5/47 176/6/50 169/6/47
f 162/6/43 173/5/49 161/5/43
f 173/5/49 162/6/43 175/6/49
f 171/6/48 165/5/45 172/5/48
f 165/5/45 171/6/48 167/6/45
f 168/6/46 163/5/44 166/5/46
f 163/5/44 168/6/46 164/6/44
f 176/6/34 171/6/34 169/6/34
f 171/6/34 176/6/34 167/6/34
f 167/6/34 176/6/34 175/6/34
f 167/6/34 175/6/34 168/6/34
f 168/6/34 175/6/34 164/6/34
f 164/6/34 175/6/34 162/6/34
f 165/5/27 170/5/27 172/5/27
f 170/5/27 165/5/27 174/5/27
f 174/5/27 165/5/27 166/5/27
f 174/5/27 166/5/27 173/5/27
f 173/5/27 166/5/27 163/5/27
f 173/5/27 163/5/27 161/5/27
f 179/5/44 178/6/43 177/5/43
f 178/6/43 179/5/44 180/6/44
f 183/6/45 182/5/46 181/5/45
f 182/5/46 183/6/45 184/6/46
f 187/6/48 186/5/47 185/6/47
f 186/5/47 187/6/48 188/5/48
f 191/6/49 190/5/50 189/5/49
f 190/5/50 191/6/49 192/6/50
f 192/6/50 186/5/47 190/5/50
f 186/5/47 192/6/50 185/6/47
f 178/6/43 189/5/49 177/5/43
f 189/5/49 178/6/43 191/6/49
f 187/6/48 181/5/45 188/5/48
f 181/5/45 187/6/48 183/6/45
f 184/6/46 179/5/44 182/5/46
f 179/5/44 184/6/46 180/6/44
f 192/6/34 187/6/34 185/6/34
f 187/6/34 192/6/34 183/6/34
f 183/6/34 192/6/34 191/6/34
f 183/6/34 191/6/34 184/6/34
f 184/6/34 191/6/34 180/6/34
f 180/6/34 191/6/34 178/6/34
f 181/5/27 186/5/27 188/5/27
f 186/5/27 181/5/27 190/5/27
f 190/5/27 181/5/27 182/5/27
f 190/5/27 182/5/27 189/5/27
f 189/5/27 182/5/27 179/5/27
f 189/5/27 179/5/27 177/5/27
f 195/5/44 194/6/43 193/5/43
f 194/6/43 195/5/44 196/6/44
f 199/6/45 198/5/46 197/5/45
f 198/5/46 199/6/45 200/6/46
f 203/6/48 202/5/47 201/6/47
f 202/5/47 203/6/48 204/5/48
f 207/6/49 206/5/50 205/5/49
f 206/5/50 207/6/49 208/6/50
f 208/6/50 202/5/47 206/5/50
f 202/5/47 208/6/50 201/6/47
f 194/6/43 205/5/49 193/5/43
f 205/5/49 194/6/43 207/6/49
f 203/6/48 197/5/45 204/5/48
f 197/5/45 203/6/48 199/6/45
f 200/6/46 195/5/44 198/5/46
f 195/5/44 200/6/46 196/6/44
f 208/6/34 203/6/34 201/6/34
f 203/6/34 208/6/34 199/6/34
f 199/6/34 208/6/34 207/6/34
f 199/6/34 207/6/34 200/6/34
f 200/6/34 207/6/34 196/6/34
f 196/6/34 207/6/34 194/6/34
f 197/5/27 202/5/27 204/5/27
f 202/5/27 197/5/27 206/5/27
f 206/5/27 197/5/27 198/5/27
f 206/5/27 198/5/27 205/5/27
f 205/5/27 198/5/27 195/5/27
f 205/5/27 195/5/27 193/5/27
f 211/5/44 210/6/43 209/5/43
f 210/6/43 211/5/44 212/6/44
f 215/6/45 214/5/46 213/5/45
f 214/5/46 215/6/45 216/6/46
f 219/6/48 218/5/47 217/6/47
f 218/5/47 219/6/48 220/5/48
f 223/6/49 222/5/50 221/5/49
f 222/5/50 223/6/49 224/6/50
f 224/6/50 218/5/47 222/5/50
f 218/5/47 224/6/50 217/6/47
f 210/6/43 221/5/49 209/5/43
f 221/5/49 210/6/43 223/6/49
f 219/6/48 213/5/45 220/5/48
f 213/5/45 219/6/48 215/6/45
f 216/6/46 211/5/44 214/5/46
f 211/5/44 216/6/46 212/6/44
f 224/6/34 219/6/34 217/6/34
f 219/6/34 224/6/34 215/6/34
f 215/6/34 224/6/34 223/6/34
f 215/6/34 223/6/34 216/6/34
f 216/6/34 223/6/34 212/6/34
f 212/6/34 223/6/34 210/6/34
f 213/5/27 218/5/27 220/5/27
f 218/5/27 213/5/27 222/5/27
f 222/5/27 213/5/27 214/5/27
f 222/5/27 214/5/27 221/5/27
f 221/5/27 214/5/27 211/5/27
f 221/5/27 211/5/27 209/5/27
f 227/5/35 226/5/36 225/5/35
f 226/5/36 227/5/35 228/5/36
f 231/6/37 230/5/35 229/6/37
f 230/5/35 231/6/37 232/5/35
f 233/6/38 231/6/37 229/6/37
f 231/6/37 233/6/38 234/6/38
f 236/5/36 233/6/38 235/5/36
f 233/6/38 236/5/36 234/6/38
f 239/6/38 238/6/37 237/6/37
f 238/6/37 239/6/38 240/6/38
f 226/5/36 240/6/38 239/6/38
f 240/6/38 226/5/36 228/5/36
f 238/6/37 225/5/35 237/6/37
f 225/5/35 238/6/37 227/5/35
f 236/5/36 230/5/35 232/5/35
f 230/5/35 236/5/36 235/5/36
f 243/6/40 242/6/39 241/6/39
f 242/6/39 243/6/40 244/6/40
f 247/5/41 246/5/42 245/5/41
f 246/5/42 247/5/41 248/5/42
f 250/5/41 242/6/39 249/5/41
f 242/6/39 250/5/41 241/6/39
f 244/6/40 252/5/42 251/5/42
f 252/5/42 244/6/40 243/6/40
f 249/5/41 252/5/42 250/5/41
f 252/5/42 249/5/41 251/5/42
f 255/6/40 254/6/39 253/6/39
f 254/6/39 255/6/40 256/6/40
f 256/6/40 246/5/42 248/5/42
f 246/5/42 256/6/40 255/6/40
f 245/5/41 254/6/39 247/5/41
f 254/6/39 245/5/41 253/6/39
f 259/5/44 258/6/43 257/5/43
f 258/6/43 259/5/44 260/6/44
f 263/6/45 262/5/46 261/5/45
f 262/5/46 263/6/45 264/6/46
f 267/6/48 266/5/47 265/6/47
f 266/5/47 267/6/48 268/5/48
f 271/6/49 270/5/50 269/5/49
f 270/5/50 271/6/49 272/6/50
f 272/6/50 266/5/47 270/5/50
f 266/5/47 272/6/50 265/6/47
f 258/6/43 269/5/49 257/5/43
f 269/5/49 258/6/43 271/6/49
f 267/6/48 261/5/45 268/5/48
f 261/5/45 267/6/48 263/6/45
f 264/6/46 259/5/44 262/5/46
f 259/5/44 264/6/46 260/6/44
f 272/6/34 267/6/34 265/6/34
f 267/6/34 272/6/34 263/6/34
f 263/6/34 272/6/34 271/6/34
f 263/6/34 271/6/34 264/6/34
f 264/6/34 271/6/34 260/6/34
f 260/6/34 271/6/34 258/6/34
f 261/5/27 266/5/27 268/5/27
f 266/5/27 261/5/27 270/5/27
f 270/5/27 261/5/27 262/5/27
f 270/5/27 262/5/27 269/5/27
f 269/5/27 262/5/27 259/5/27
f 269/5/27 259/5/27 257/5/27
f 275/5/44 274/6/43 273/5/43
f 274/6/43 275/5/44 276/6/44
f 279/6/45 278/5/46 277/5/45
f 278/5/46 279/6/45 280/6/46
f 283/6/48 282/5/47 281/6/47
f 282/5/47 283/6/48 284/5/48
f 287/6/49 286/5/50 285/5/49
f 286/5/50 287/6/49 288/6/50
f 288/6/50 282/5/47 286/5/50
f 282/5/47 288/6/50 281/6/47
f 274/6/43 285/5/49 273/5/43
f 285/5/49 274/6/43 287/6/49
f 283/6/48 277/5/45 284/5/48
f 277/5/45 283/6/48 279/6/45
f 280/6/46 275/5/44 278/5/46
f 275/5/44 280/6/46 276/6/44
f 288/6/34 283/6/34 281/6/34
f 283/6/34 288/6/34 279/6/34
f 279/6/34 288/6/34 287/6/34
f 279/6/34 287/6/34 280/6/34
f 280/6/34 287/6/34 276/6/34
f 276/6/34 287/6/34 274/6/34
f 277/5/27 282/5/27 284/5/27
f 282/5/27 277/5/27 286/5/27
f 286/5/27 277/5/27 278/5/27
f 286/5/27 278/5/27 285/5/27
f 285/5/27 278/5/27 275/5/27
f 285/5/27 275/5/27 273/5/27
f 291/9/51 290/8/51 289/7/51
f 290/8/51 291/9/51 292/10/51
f 292/10/51 291/9/51 293/9/51
f 292/10/51 293/9/51 294/10/51
f 294/10/51 293/9/51 295/7/51
f 294/10/51 295/7/51 296/8/51
f 289/7/52 290/8/52 291/9/52
f 292/10/52 291/9/52 290/8/52
f 293/9/52 291/9/52 292/10/52
f 294/10/52 293/9/52 292/10/52
f 295/7/52 293/9/52 294/10/52
f 296/8/52 295/7/52 294/10/52
f 299/9/53 298/8/53 297/7/53
f 298/8/53 299/9/53 300/10/53
f 300/10/53 299/9/53 301/9/53
f 300/10/53 301/9/53 302/10/53
f 302/10/53 301/9/53 303/7/53
f 302/10/53 303/7/53 304/8/53
f 297/7/54 298/8/54 299/9/54
f 300/10/54 299/9/54 298/8/54
f 301/9/54 299/9/54 300/10/54
f 302/10/54 301/9/54 300/10/54
f 303/7/54 301/9/54 302/10/54
f 304/8/54 303/7/54 302/10/54
f 307/9/53 306/8/53 305/7/53
f 306/8/53 307/9/53 308/10/53
f 308/10/53 307/9/53 309/9/53
f 308/10/53 309/9/53 310/10/53
f 310/10/53 309/9/53 311/7/53
f 310/10/53 311/7/53 312/8/53
f 305/7/54 306/8/54 307/9/54
f 308/10/54 307/9/54 306/8/54
f 309/9/54 307/9/54 308/10/54
f 310/10/54 309/9/54 308/10/54
f 311/7/54 309/9/54 310/10/54
f 312/8/54 311/7/54 310/10/54
f 315/9/51 314/8/51 313/7/51
f 314/8/51 315/9/51 316/10/51
f 316/10/51 315/9/51 317/9/51
f 316/10/51 317/9/51 318/10/51
f 318/10/51 317/9/51 319/7/51
f 318/10/51 319/7/51 320/8/51
f 313/7/52 314/8/52 315/9/52
f 316/10/52 315/9/52 314/8/52
f 317/9/52 315/9/52 316/10/52
f 318/10/52 317/9/52 316/10/52
f 319/7/52 317/9/52 318/10/52
f 320/8/52 319/7/52 318/10/52
f 323/10/55 322/10/56 321/10/55
f 322/10/56 323/10/55 324/10/56
f 327/9/58 326/11/57 325/11/57
f 326/11/57 327/9/58 328/9/58
f 331/12/59 330/11/60 329/12/59
f 330/11/60 331/12/59 332/11/60
f 332/11/60 333/9/61 330/11/60
f 333/9/61 332/11/60 334/9/61
f 324/10/56 329/12/59 322/10/56
f 329/12/59 324/10/56 331/12/59
f 335/12/62 323/10/55 321/10/55
f 323/10/55 335/12/62 336/12/62
f 333/9/63 329/12/63 330/11/63
f 329/12/63 333/9/63 322/10/63
f 322/10/63 333/9/63 327/9/63
f 322/10/63 327/9/63 321/10/63
f 321/10/63 327/9/63 335/12/63
f 335/12/63 327/9/63 325/11/63
f 325/11/57 336/12/62 335/12/62
f 336/12/62 325/11/57 326/11/57
f 334/9/61 327/9/58 333/9/61
f 327/9/58 334/9/61 328/9/58
f 324/10/64 332/11/64 331/12/64
f 332/11/64 324/10/64 334/9/64
f 334/9/64 324/10/64 328/9/64
f 328/9/64 324/10/64 323/10/64
f 328/9/64 323/10/64 336/12/64
f 328/9/64 336/12/64 326/11/64
f 339/10/55 338/10/56 337/10/55
f 338/10/56 339/10/55 340/10/56
f 343/9/58 342/11/57 341/11/57
f 342/11/57 343/9/58 344/9/58
f 347/12/59 346/11/60 345/12/59
f 346/11/60 347/12/59 348/11/60
f 348/11/60 349/9/61 346/11/60
f 349/9/61 348/11/60 350/9/61
f 340/10/56 345/12/59 338/10/56
f 345/12/59 340/10/56 347/12/59
f 351/12/62 339/10/55 337/10/55
f 339/10/55 351/12/62 352/12/62
f 349/9/63 345/12/63 346/11/63
f 345/12/63 349/9/63 338/10/63
f 338/10/63 349/9/63 343/9/63
f 338/10/63 343/9/63 337/10/63
f 337/10/63 343/9/63 351/12/63
f 351/12/63 343/9/63 341/11/63
f 341/11/57 352/12/62 351/12/62
f 352/12/62 341/11/57 342/11/57
f 350/9/61 343/9/58 349/9/61
f 343/9/58 350/9/61 344/9/58
f 340/10/64 348/11/64 347/12/64
f 348/11/64 340/10/64 350/9/64
f 350/9/64 340/10/64 344/9/64
f 344/9/64 340/10/64 339/10/64
f 344/9/64 339/10/64 352/12/64
f 344/9/64 352/12/64 342/11/64
f 355/10/55 354/10/56 353/10/55
f 354/10/56 355/10/55 356/10/56
f 359/9/58 358/11/57 357/11/57
f 358/11/57 359/9/58 360/9/58
f 363/12/59 362/11/60 361/12/59
f 362/11/60 363/12/59 364/11/60
f 364/11/60 365/9/61 362/11/60
f 365/9/61 364/11/60 366/9/61
f 356/10/56 361/12/59 354/10/56
f 361/12/59 356/10/56 363/12/59
f 367/12/62 355/10/55 353/10/55
f 355/10/55 367/12/62 368/12/62
f 365/9/63 361/12/63 362/11/63
f 361/12/63 365/9/63 354/10/63
f 354/10/63 365/9/63 359/9/63
f 354/10/63 359/9/63 353/10/63
f 353/10/63 359/9/63 367/12/63
f 367/12/63 359/9/63 357/11/63
f 357/11/57 368/12/62 367/12/62
f 368/12/62 357/11/57 358/11/57
f 366/9/61 359/9/58 365/9/61
f 359/9/58 366/9/61 360/9/58
f 356/10/64 364/11/64 363/12/64
f 364/11/64 356/10/64 366/9/64
f 366/9/64 356/10/64 360/9/64
f 360/9/64 356/10/64 355/10/64
f 360/9/64 355/10/64 368/12/64
f 360/9/64 368/12/64 358/11/64
f 371/12/59 370/11/60 369/12/59
f 370/11/60 371/12/59 372/11/60
f 374/10/56 369/12/59 373/10/56
f 369/12/59 374/10/56 371/12/59
f 377/12/62 376/10/55 375/10/55
f 376/10/55 377/12/62 378/12/62
f 381/9/61 380/9/58 379/9/61
f 380/9/58 381/9/61 382/9/58
f 380/9/58 384/11/57 383/11/57
f 384/11/57 380/9/58 382/9/58
f 379/9/63 369/12/63 370/11/63
f 369/12/63 379/9/63 373/10/63
f 373/10/63 379/9/63 380/9/63
f 373/10/63 380/9/63 375/10/63
f 375/10/63 380/9/63 377/12/63
f 377/12/63 380/9/63 383/11/63
f 374/10/64 372/11/64 371/12/64
f 372/11/64 374/10/64 381/9/64
f 381/9/64 374/10/64 382/9/64
f 382/9/64 374/10/64 376/10/64
f 382/9/64 376/10/64 378/12/64
f 382/9/64 378/12/64 384/11/64
f 372/11/60 379/9/61 370/11/60
f 379/9/61 372/11/60 381/9/61
f 383/11/57 378/12/62 377/12/62
f 378/12/62 383/11/57 384/11/57
f 376/10/55 373/10/56 375/10/55
f 373/10/56 376/10/55 374/10/56
f 387/12/59 386/11/60 385/12/59
f 386/11/60 387/12/59 388/11/60
f 390/10/56 385/12/59 389/10/56
f 385/12/59 390/10/56 387/12/59
f 393/12/62 392/10/55 391/10/55
f 392/10/55 393/12/62 394/12/62
f 397/9/61 396/9/58 395/9/61
f 396/9/58 397/9/61 398/9/58
f 396/9/58 400/11/57 399/11/57
f 400/11/57 396/9/58 398/9/58
f 395/9/63 385/12/63 386/11/63
f 385/12/63 395/9/63 389/10/63
f 389/10/63 395/9/63 396/9/63
f 389/10/63 396/9/63 391/10/63
f 391/10/63 396/9/63 393/12/63
f 393/12/63 396/9/63 399/11/63
f 390/10/64 388/11/64 387/12/64
f 388/11/64 390/10/64 397/9/64
f 397/9/64 390/10/64 398/9/64
f 398/9/64 390/10/64 392/10/64
f 398/9/64 392/10/64 394/12/64
f 398/9/64 394/12/64 400/11/64
f 388/11/60 395/9/61 386/11/60
f 395/9/61 388/11/60 397/9/61
f 399/11/57 394/12/62 393/12/62
f 394/12/62 399/11/57 400/11/57
f 392/10/55 389/10/56 391/10/55
f 389/10/56 392/10/55 390/10/56
f 403/12/59 402/11/60 401/12/59
f 402/11/60 403/12/59 404/11/60
f 406/10/56 401/12/59 405/10/56
f 401/12/59 406/10/56 403/12/59
f 409/12/62 408/10/55 407/10/55
f 408/10/55 409/12/62 410/12/62
f 413/9/61 412/9/58 411/9/61
f 412/9/58 413/9/61 414/9/58
f 412/9/58 416/11/57 415/11/57
f 416/11/57 412/9/58 414/9/58
f 411/9/63 401/12/63 402/11/63
f 401/12/63 411/9/63 405/10/63
f 405/10/63 411/9/63 412/9/63
f 405/10/63 412/9/63 407/10/63
f 407/10/63 412/9/63 409/12/63
f 409/12/63 412/9/63 415/11/63
f 406/10/64 404/11/64 403/12/64
f 404/11/64 406/10/64 413/9/64
f 413/9/64 406/10/64 414/9/64
f 414/9/64 406/10/64 408/10/64
f 414/9/64 408/10/64 410/12/64
f 414/9/64 410/12/64 416/11/64
f 404/11/60 411/9/61 402/11/60
f 411/9/61 404/11/60 413/9/61
f 415/11/57 410/12/62 409/12/62
f 410/12/62 415/11/57 416/11/57
f 408/10/55 405/10/56 407/10/55
f 405/10/56 408/10/55 406/10/56
f 419/12/65 418/11/66 417/12/65
f 418/11/66 419/12/65 420/11/66
f 422/10/67 417/12/65 421/10/67
f 417/12/65 422/10/67 419/12/65
f 425/12/69 424/10/68 423/10/68
f 424/10/68 425/12/69 426/12/69
f 429/9/70 428/9/71 427/9/70
f 428/9/71 429/9/70 430/9/71
f 428/9/71 432/11/72 431/11/72
f 432/11/72 428/9/71 430/9/71
f 427/9/52 417/12/52 418/11/52
f 417/12/52 427/9/52 421/10/52
f 421/10/52 427/9/52 428/9/52
f 421/10/52 428/9/52 423/10/52
f 423/10/52 428/9/52 425/12/52
f 425/12/52 428/9/52 431/11/52
f 422/10/51 420/11/51 419/12/51
f 420/11/51 422/10/51 429/9/51
f 429/9/51 422/10/51 430/9/51
f 430/9/51 422/10/51 424/10/51
f 430/9/51 424/10/51 426/12/51
f 430/9/51 426/12/51 432/11/51
f 420/11/66 427/9/70 418/11/66
f 427/9/70 420/11/66 429/9/70
f 431/11/72 426/12/69 425/12/69
f 426/12/69 431/11/72 432/11/72
f 424/10/68 421/10/67 423/10/68
f 421/10/67 424/10/68 422/10/67
f 435/12/65 434/11/66 433/12/65
f 434/11/66 435/12/65 436/11/66
f 438/10/67 433/12/65 437/10/67
f 433/12/65 438/10/67 435/12/65
f 441/12/69 440/10/68 439/10/68
f 440/10/68 441/12/69 442/12/69
f 445/9/70 444/9/71 443/9/70
f 444/9/71 445/9/70 446/9/71
f 444/9/71 448/11/72 447/11/72
f 448/11/72 444/9/71 446/9/71
f 443/9/52 433/12/52 434/11/52
f 433/12/52 443/9/52 437/10/52
f 437/10/52 443/9/52 444/9/52
f 437/10/52 444/9/52 439/10/52
f 439/10/52 444/9/52 441/12/52
f 441/12/52 444/9/52 447/11/52
f 438/10/51 436/11/51 435/12/51
f 436/11/51 438/10/51 445/9/51
f 445/9/51 438/10/51 446/9/51
f 446/9/51 438/10/51 440/10/51
f 446/9/51 440/10/51 442/12/51
f 446/9/51 442/12/51 448/11/51
f 436/11/66 443/9/70 434/11/66
f 443/9/70 436/11/66 445/9/70
f 447/11/72 442/12/69 441/12/69
f 442/12/69 447/11/72 448/11/72
f 440/10/68 437/10/67 439/10/68
f 437/10/67 440/10/68 438/10/67
f 451/12/65 450/11/66 449/12/65
f 450/11/66 451/12/65 452/11/66
f 454/10/67 449/12/65 453/10/67
f 449/12/65 454/10/67 451/12/65
f 457/12/69 456/10/68 455/10/68
f 456/10/68 457/12/69 458/12/69
f 461/9/70 460/9/71 459/9/70
f 460/9/71 461/9/70 462/9/71
f 460/9/71 464/11/72 463/11/72
f 464/11/72 460/9/71 462/9/71
f 459/9/52 449/12/52 450/11/52
f 449/12/52 459/9/52 453/10/52
f 453/10/52 459/9/52 460/9/52
f 453/10/52 460/9/52 455/10/52
f 455/10/52 460/9/52 457/12/52
f 457/12/52 460/9/52 463/11/52
f 454/10/51 452/11/51 451/12/51
f 452/11/51 454/10/51 461/9/51
f 461/9/51 454/10/51 462/9/51
f 462/9/51 454/10/51 456/10/51
f 462/9/51 456/10/51 458/12/51
f 462/9/51 458/12/51 464/11/51
f 452/11/66 459/9/70 450/11/66
f 459/9/70 452/11/66 461/9/70
f 463/11/72 458/12/69 457/12/69
f 458/12/69 463/11/72 464/11/72
f 456/10/68 453/10/67 455/10/68
f 453/10/67 456/10/68 454/10/67
f 467/10/68 466/10/67 465/10/68
f 466/10/67 467/10/68 468/10/67
f 471/9/71 470/11/72 469/11/72
f 470/11/72 471/9/71 472/9/71
f 475/12/65 474/11/66 473/12/65
f 474/11/66 475/12/65 476/11/66
f 476/11/66 477/9/70 474/11/66
f 477/9/70 476/11/66 478/9/70
f 468/10/67 473/12/65 466/10/67
f 473/12/65 468/10/67 475/12/65
f 479/12/69 467/10/68 465/10/68
f 467/10/68 479/12/69 480/12/69
f 477/9/52 473/12/52 474/11/52
f 473/12/52 477/9/52 466/10/52
f 466/10/52 477/9/52 471/9/52
f 466/10/52 471/9/52 465/10/52
f 465/10/52 471/9/52 479/12/52
f 479/12/52 471/9/52 469/11/52
f 469/11/72 480/12/69 479/12/69
f 480/12/69 469/11/72 470/11/72
f 478/9/70 471/9/71 477/9/70
f 471/9/71 478/9/70 472/9/71
f 468/10/51 476/11/51 475/12/51
f 476/11/51 468/10/51 478/9/51
f 478/9/51 468/10/51 472/9/51
f 472/9/51 468/10/51 467/10/51
f 472/9/51 467/10/51 480/12/51
f 472/9/51 480/12/51 470/11/51
f 483/10/68 482/10/67 481/10/68
f 482/10/67 483/10/68 484/10/67
f 487/9/71 486/11/72 485/11/72
f 486/11/72 487/9/71 488/9/71
f 491/12/65 490/11/66 489/12/65
f 490/11/66 491/12/65 492/11/66
f 492/11/66 493/9/70 490/11/66
f 493/9/70 492/11/66 494/9/70
f 484/10/67 489/12/65 482/10/67
f 489/12/65 484/10/67 491/12/65
f 495/12/69 483/10/68 481/10/68
f 483/10/68 495/12/69 496/12/69
f 493/9/52 489/12/52 490/11/52
f 489/12/52 493/9/52 482/10/52
f 482/10/52 493/9/52 487/9/52
f 482/10/52 487/9/52 481/10/52
f 481/10/52 487/9/52 495/12/52
f 495/12/52 487/9/52 485/11/52
f 485/11/72 496/12/69 495/12/69
f 496/12/69 485/11/72 486/11/72
f 494/9/70 487/9/71 493/9/70
f 487/9/71 494/9/70 488/9/71
f 484/10/51 492/11/51 491/12/51
f 492/11/51 484/10/51 494/9/51
f 494/9/51 484/10/51 488/9/51
f 488/9/51 484/10/51 483/10/51
f 488/9/51 483/10/51 496/12/51
f 488/9/51 496/12/51 486/11/51
f 499/10/68 498/10/67 497/10/68
f 498/10/67 499/10/68 500/10/67
f 503/9/71 502/11/72 501/11/72
f 502/11/72 503/9/71 504/9/71
f 507/12/65 506/11/66 505/12/65
f 506/11/66 507/12/65 508/11/66
f 508/11/66 509/9/70 506/11/66
f 509/9/70 508/11/66 510/9/70
f 500/10/67 505/12/65 498/10/67
f 505/12/65 500/10/67 507/12/65
f 511/12/69 499/10/68 497/10/68
f 499/10/68 511/12/69 512/12/69
f 509/9/52 505/12/52 506/11/52
f 505/12/52 509/9/52 498/10/52
f 498/10/52 509/9/52 503/9/52
f 498/10/52 503/9/52 497/10/52
f 497/10/52 503/9/52 511/12/52
f 511/12/52 503/9/52 501/11/52
f 501/11/72 512/12/69 511/12/69
f 512/12/69 501/11/72 502/11/72
f 510/9/70 503/9/71 509/9/70
f 503/9/71 510/9/70 504/9/71
f 500/10/51 508/11/51 507/12/51
f 508/11/51 500/10/51 510/9/51
f 510/9/51 500/10/51 504/9/51
f 504/9/51 500/10/51 499/10/51
f 504/9/51 499/10/51 512/12/51
f 504/9/51 512/12/51 502/11/51
f 515/12/65 514/11/66 513/12/65
f 514/11/66 515/12/65 516/11/66
f 518/10/67 513/12/65 517/10/67
f 513/12/65 518/10/67 515/12/65
f 521/12/69 520/10/68 519/10/68
f 520/10/68 521/12/69 522/12/69
f 525/9/70 524/9/71 523/9/70
f 524/9/71 525/9/70 526/9/71
f 524/9/71 528/11/72 527/11/72
f 528/11/72 524/9/71 526/9/71
f 523/9/52 513/12/52 514/11/52
f 513/12/52 523/9/52 517/10/52
f 517/10/52 523/9/52 524/9/52
f 517/10/52 524/9/52 519/10/52
f 519/10/52 524/9/52 521/12/52
f 521/12/52 524/9/52 527/11/52
f 518/10/51 516/11/51 515/12/51
f 516/11/51 518/10/51 525/9/51
f 525/9/51 518/10/51 526/9/51
f 526/9/51 518/10/51 520/10/51
f 526/9/51 520/10/51 522/12/51
f 526/9/51 522/12/51 528/11/51
f 516/11/66 523/9/70 514/11/66
f 523/9/70 516/11/66 525/9/70
f 527/11/72 522/12/69 521/12/69
f 522/12/69 527/11/72 528/11/72
f 520/10/68 517/10/67 519/10/68
f 517/10/67 520/10/68 518/10/67
f 531/10/68 530/10/67 529/10/68
f 530/10/67 531/10/68 532/10/67
f 535/9/71 534/11/72 533/11/72
f 534/11/72 535/9/71 536/9/71
f 539/12/65 538/11/66 537/12/65
f 538/11/66 539/12/65 540/11/66
f 540/11/66 541/9/70 538/11/66
f 541/9/70 540/11/66 542/9/70
f 532/10/67 537/12/65 530/10/67
f 537/12/65 532/10/67 539/12/65
f 543/12/69 531/10/68 529/10/68
f 531/10/68 543/12/69 544/12/69
f 541/9/52 537/12/52 538/11/52
f 537/12/52 541/9/52 530/10/52
f 530/10/52 541/9/52 535/9/52
f 530/10/52 535/9/52 529/10/52
f 529/10/52 535/9/52 543/12/52
f 543/12/52 535/9/52 533/11/52
f 533/11/72 544/12/69 543/12/69
f 544/12/69 533/11/72 534/11/72
f 542/9/70 535/9/71 541/9/70
f 535/9/71 542/9/70 536/9/71
f 532/10/51 540/11/51 539/12/51
f 540/11/51 532/10/51 542/9/51
f 542/9/51 532/10/51 536/9/51
f 536/9/51 532/10/51 531/10/51
f 536/9/51 531/10/51 544/12/51
f 536/9/51 544/12/51 534/11/51
f 547/12/59 546/11/60 545/12/59
f 546/11/60 547/12/59 548/11/60
f 550/10/56 545/12/59 549/10/56
f 545/12/59 550/10/56 547/12/59
f 553/12/62 552/10/55 551/10/55
f 552/10/55 553/12/62 554/12/62
f 557/9/61 556/9/58 555/9/61
f 556/9/58 557/9/61 558/9/58
f 556/9/58 560/11/57 559/11/57
f 560/11/57 556/9/58 558/9/58
f 555/9/63 545/12/63 546/11/63
f 545/12/63 555/9/63 549/10/63
f 549/10/63 555/9/63 556/9/63
f 549/10/63 556/9/63 551/10/63
f 551/10/63 556/9/63 553/12/63
f 553/12/63 556/9/63 559/11/63
f 550/10/64 548/11/64 547/12/64
f 548/11/64 550/10/64 557/9/64
f 557/9/64 550/10/64 558/9/64
f 558/9/64 550/10/64 552/10/64
f 558/9/64 552/10/64 554/12/64
f 558/9/64 554/12/64 560/11/64
f 548/11/60 555/9/61 546/11/60
f 555/9/61 548/11/60 557/9/61
f 559/11/57 554/12/62 553/12/62
f 554/12/62 559/11/57 560/11/57
f 552/10/55 549/10/56 551/10/55
f 549/10/56 552/10/55 550/10/56
f 563/10/55 562/10/56 561/10/55
f 562/10/56 563/10/55 564/10/56
f 567/9/58 566/11/57 565/11/57
f 566/11/57 567/9/58 568/9/58
f 571/12/59 570/11/60 569/12/59
f 570/11/60 571/12/59 572/11/60
f 572/11/60 573/9/61 570/11/60
f 573/9/61 572/11/60 574/9/61
f 564/10/56 569/12/59 562/10/56
f 569/12/59 564/10/56 571/12/59
f 575/12/62 563/10/55 561/10/55
f 563/10/55 575/12/62 576/12/62
f 573/9/63 569/12/63 570/11/63
f 569/12/63 573/9/63 562/10/63
f 562/10/63 573/9/63 567/9/63
f 562/10/63 567/9/63 561/10/63
f 561/10/63 567/9/63 575/12/63
f 575/12/63 567/9/63 565/11/63
f 565/11/57 576/12/62 575/12/62
f 576/12/62 565/11/57 566/11/57
f 574/9/61 567/9/58 573/9/61
f 567/9/58 574/9/61 568/9/58
f 564/10/64 572/11/64 571/12/64
f 572/11/64 564/10/64 574/9/64
f 574/9/64 564/10/64 568/9/64
f 568/9/64 564/10/64 563/10/64
f 568/9/64 563/10/64 576/12/64
f 568/9/64 576/12/64 566/11/64

g banners-green




usemtl colormap

f 3/2/3 2/2/2 1/1/1
f 6/2/6 5/1/5 4/2/4
f 9/1/9 8/2/8 7/2/7
f 12/2/12 11/2/11 10/1/10
f 11/2/15 14/3/14 13/3/13
f 14/3/14 11/2/15 12/2/16
f 15/4/17 5/1/18 10/1/17
f 5/1/18 15/4/17 16/4/18
f 8/2/21 18/3/20 17/3/19
f 18/3/20 8/2/21 2/2/22
f 9/1/9 2/2/2 8/2/8
f 2/2/2 9/1/9 1/1/1
f 19/3/25 6/2/24 4/2/23
f 6/2/24 19/3/25 20/3/26
f 14/3/27 21/3/27 13/3/27
f 21/3/27 14/3/27 18/3/27
f 18/3/27 14/3/27 20/3/27
f 18/3/27 20/3/27 17/3/27
f 17/3/27 20/3/27 19/3/27
f 17/3/27 19/3/27 22/3/27
f 4/2/4 9/1/9 7/2/7
f 9/1/9 4/2/4 5/1/5
f 22/3/28 8/2/21 17/3/19
f 8/2/21 22/3/28 7/2/29
f 10/1/10 6/2/6 12/2/12
f 6/2/6 10/1/10 5/1/5
f 12/2/16 20/3/26 14/3/14
f 20/3/26 12/2/16 6/2/24
f 23/4/30 1/1/31 9/1/30
f 1/1/31 23/4/30 24/4/31
f 15/4/17 1/1/31 24/4/31
f 1/1/31 15/4/17 10/1/17
f 2/2/22 21/3/32 18/3/20
f 21/3/32 2/2/22 3/2/33
f 19/3/25 7/2/29 22/3/28
f 7/2/29 19/3/25 4/2/23
f 3/2/33 13/3/13 21/3/32
f 13/3/13 3/2/33 11/2/15
f 23/4/34 15/4/34 24/4/34
f 15/4/34 23/4/34 16/4/34
f 5/1/18 23/4/30 9/1/30
f 23/4/30 5/1/18 16/4/18
f 10/1/10 3/2/3 1/1/1
f 3/2/3 10/1/10 11/2/11
f 27/2/3 26/2/2 25/1/1
f 30/2/6 29/1/5 28/2/4
f 33/1/9 32/2/8 31/2/7
f 36/2/12 35/2/11 34/1/10
f 35/2/15 38/3/14 37/3/13
f 38/3/14 35/2/15 36/2/16
f 39/4/17 29/1/18 34/1/17
f 29/1/18 39/4/17 40/4/18
f 32/2/21 42/3/20 41/3/19
f 42/3/20 32/2/21 26/2/22
f 33/1/9 26/2/2 32/2/8
f 26/2/2 33/1/9 25/1/1
f 43/3/25 30/2/24 28/2/23
f 30/2/24 43/3/25 44/3/26
f 38/3/27 45/3/27 37/3/27
f 45/3/27 38/3/27 42/3/27
f 42/3/27 38/3/27 44/3/27
f 42/3/27 44/3/27 41/3/27
f 41/3/27 44/3/27 43/3/27
f 41/3/27 43/3/27 46/3/27
f 28/2/4 33/1/9 31/2/7
f 33/1/9 28/2/4 29/1/5
f 46/3/28 32/2/21 41/3/19
f 32/2/21 46/3/28 31/2/29
f 34/1/10 30/2/6 36/2/12
f 30/2/6 34/1/10 29/1/5
f 36/2/16 44/3/26 38/3/14
f 44/3/26 36/2/16 30/2/24
f 47/4/30 25/1/31 33/1/30
f 25/1/31 47/4/30 48/4/31
f 39/4/17 25/1/31 48/4/31
f 25/1/31 39/4/17 34/1/17
f 26/2/22 45/3/32 42/3/20
f 45/3/32 26/2/22 27/2/33
f 43/3/25 31/2/29 46/3/28
f 31/2/29 43/3/25 28/2/23
f 27/2/33 37/3/13 45/3/32
f 37/3/13 27/2/33 35/2/15
f 47/4/34 39/4/34 48/4/34
f 39/4/34 47/4/34 40/4/34
f 29/1/18 47/4/30 33/1/30
f 47/4/30 29/1/18 40/4/18
f 34/1/10 27/2/3 25/1/1
f 27/2/3 34/1/10 35/2/11
f 51/2/3 50/2/2 49/1/1
f 54/2/6 53/1/5 52/2/4
f 57/1/9 56/2/8 55/2/7
f 60/2/12 59/2/11 58/1/10
f 59/2/15 62/3/14 61/3/13
f 62/3/14 59/2/15 60/2/16
f 63/4/17 53/1/18 58/1/17
f 53/1/18 63/4/17 64/4/18
f 56/2/21 66/3/20 65/3/19
f 66/3/20 56/2/21 50/2/22
f 57/1/9 50/2/2 56/2/8
f 50/2/2 57/1/9 49/1/1
f 67/3/25 54/2/24 52/2/23
f 54/2/24 67/3/25 68/3/26
f 62/3/27 69/3/27 61/3/27
f 69/3/27 62/3/27 66/3/27
f 66/3/27 62/3/27 68/3/27
f 66/3/27 68/3/27 65/3/27
f 65/3/27 68/3/27 67/3/27
f 65/3/27 67/3/27 70/3/27
f 52/2/4 57/1/9 55/2/7
f 57/1/9 52/2/4 53/1/5
f 70/3/28 56/2/21 65/3/19
f 56/2/21 70/3/28 55/2/29
f 58/1/10 54/2/6 60/2/12
f 54/2/6 58/1/10 53/1/5
f 60/2/16 68/3/26 62/3/14
f 68/3/26 60/2/16 54/2/24
f 71/4/30 49/1/31 57/1/30
f 49/1/31 71/4/30 72/4/31
f 63/4/17 49/1/31 72/4/31
f 49/1/31 63/4/17 58/1/17
f 50/2/22 69/3/32 66/3/20
f 69/3/32 50/2/22 51/2/33
f 67/3/25 55/2/29 70/3/28
f 55/2/29 67/3/25 52/2/23
f 51/2/33 61/3/13 69/3/32
f 61/3/13 51/2/33 59/2/15
f 71/4/34 63/4/34 72/4/34
f 63/4/34 71/4/34 64/4/34
f 53/1/18 71/4/30 57/1/30
f 71/4/30 53/1/18 64/4/18
f 58/1/10 51/2/3 49/1/1
f 51/2/3 58/1/10 59/2/11
f 75/2/3 74/2/2 73/1/1
f 78/2/6 77/1/5 76/2/4
f 81/1/9 80/2/8 79/2/7
f 84/2/12 83/2/11 82/1/10
f 83/2/15 86/3/14 85/3/13
f 86/3/14 83/2/15 84/2/16
f 87/4/17 77/1/18 82/1/17
f 77/1/18 87/4/17 88/4/18
f 80/2/21 90/3/20 89/3/19
f 90/3/20 80/2/21 74/2/22
f 81/1/9 74/2/2 80/2/8
f 74/2/2 81/1/9 73/1/1
f 91/3/25 78/2/24 76/2/23
f 78/2/24 91/3/25 92/3/26
f 86/3/27 93/3/27 85/3/27
f 93/3/27 86/3/27 90/3/27
f 90/3/27 86/3/27 92/3/27
f 90/3/27 92/3/27 89/3/27
f 89/3/27 92/3/27 91/3/27
f 89/3/27 91/3/27 94/3/27
f 76/2/4 81/1/9 79/2/7
f 81/1/9 76/2/4 77/1/5
f 94/3/28 80/2/21 89/3/19
f 80/2/21 94/3/28 79/2/29
f 82/1/10 78/2/6 84/2/12
f 78/2/6 82/1/10 77/1/5
f 84/2/16 92/3/26 86/3/14
f 92/3/26 84/2/16 78/2/24
f 95/4/30 73/1/31 81/1/30
f 73/1/31 95/4/30 96/4/31
f 87/4/17 73/1/31 96/4/31
f 73/1/31 87/4/17 82/1/17
f 74/2/22 93/3/32 90/3/20
f 93/3/32 74/2/22 75/2/33
f 91/3/25 79/2/29 94/3/28
f 79/2/29 91/3/25 76/2/23
f 75/2/33 85/3/13 93/3/32
f 85/3/13 75/2/33 83/2/15
f 95/4/34 87/4/34 96/4/34
f 87/4/34 95/4/34 88/4/34
f 77/1/18 95/4/30 81/1/30
f 95/4/30 77/1/18 88/4/18
f 82/1/10 75/2/3 73/1/1
f 75/2/3 82/1/10 83/2/11
f 99/5/35 98/5/36 97/5/35
f 98/5/36 99/5/35 100/5/36
f 103/6/37 102/5/35 101/6/37
f 102/5/35 103/6/37 104/5/35
f 105/6/38 103/6/37 101/6/37
f 103/6/37 105/6/38 106/6/38
f 108/5/36 105/6/38 107/5/36
f 105/6/38 108/5/36 106/6/38
f 111/6/38 110/6/37 109/6/37
f 110/6/37 111/6/38 112/6/38
f 98/5/36 112/6/38 111/6/38
f 112/6/38 98/5/36 100/5/36
f 110/6/37 97/5/35 109/6/37
f 97/5/35 110/6/37 99/5/35
f 108/5/36 102/5/35 104/5/35
f 102/5/35 108/5/36 107/5/36
f 115/6/40 114/6/39 113/6/39
f 114/6/39 115/6/40 116/6/40
f 119/5/41 118/5/42 117/5/41
f 118/5/42 119/5/41 120/5/42
f 122/5/41 114/6/39 121/5/41
f 114/6/39 122/5/41 113/6/39
f 116/6/40 124/5/42 123/5/42
f 124/5/42 116/6/40 115/6/40
f 121/5/41 124/5/42 122/5/41
f 124/5/42 121/5/41 123/5/42
f 127/6/40 126/6/39 125/6/39
f 126/6/39 127/6/40 128/6/40
f 128/6/40 118/5/42 120/5/42
f 118/5/42 128/6/40 127/6/40
f 117/5/41 126/6/39 119/5/41
f 126/6/39 117/5/41 125/6/39
f 131/5/44 130/6/43 129/5/43
f 130/6/43 131/5/44 132/6/44
f 135/6/45 134/5/46 133/5/45
f 134/5/46 135/6/45 136/6/46
f 139/6/48 138/5/47 137/6/47
f 138/5/47 139/6/48 140/5/48
f 143/6/49 142/5/50 141/5/49
f 142/5/50 143/6/49 144/6/50
f 144/6/50 138/5/47 142/5/50
f 138/5/47 144/6/50 137/6/47
f 130/6/43 141/5/49 129/5/43
f 141/5/49 130/6/43 143/6/49
f 139/6/48 133/5/45 140/5/48
f 133/5/45 139/6/48 135/6/45
f 136/6/46 131/5/44 134/5/46
f 131/5/44 136/6/46 132/6/44
f 144/6/34 139/6/34 137/6/34
f 139/6/34 144/6/34 135/6/34
f 135/6/34 144/6/34 143/6/34
f 135/6/34 143/6/34 136/6/34
f 136/6/34 143/6/34 132/6/34
f 132/6/34 143/6/34 130/6/34
f 133/5/27 138/5/27 140/5/27
f 138/5/27 133/5/27 142/5/27
f 142/5/27 133/5/27 134/5/27
f 142/5/27 134/5/27 141/5/27
f 141/5/27 134/5/27 131/5/27
f 141/5/27 131/5/27 129/5/27
f 147/5/44 146/6/43 145/5/43
f 146/6/43 147/5/44 148/6/44
f 151/6/45 150/5/46 149/5/45
f 150/5/46 151/6/45 152/6/46
f 155/6/48 154/5/47 153/6/47
f 154/5/47 155/6/48 156/5/48
f 159/6/49 158/5/50 157/5/49
f 158/5/50 159/6/49 160/6/50
f 160/6/50 154/5/47 158/5/50
f 154/5/47 160/6/50 153/6/47
f 146/6/43 157/5/49 145/5/43
f 157/5/49 146/6/43 159/6/49
f 155/6/48 149/5/45 156/5/48
f 149/5/45 155/6/48 151/6/45
f 152/6/46 147/5/44 150/5/46
f 147/5/44 152/6/46 148/6/44
f 160/6/34 155/6/34 153/6/34
f 155/6/34 160/6/34 151/6/34
f 151/6/34 160/6/34 159/6/34
f 151/6/34 159/6/34 152/6/34
f 152/6/34 159/6/34 148/6/34
f 148/6/34 159/6/34 146/6/34
f 149/5/27 154/5/27 156/5/27
f 154/5/27 149/5/27 158/5/27
f 158/5/27 149/5/27 150/5/27
f 158/5/27 150/5/27 157/5/27
f 157/5/27 150/5/27 147/5/27
f 157/5/27 147/5/27 145/5/27
f 163/5/44 162/6/43 161/5/43
f 162/6/43 163/5/44 164/6/44
f 167/6/45 166/5/46 165/5/45
f 166/5/46 167/6/45 168/6/46
f 171/6/48 170/5/47 169/6/47
f 170/5/47 171/6/48 172/5/48
f 175/6/49 174/5/50 173/5/49
f 174/5/50 175/6/49 176/6/50
f 176/6/50 170/5/47 174/5/50
f 170/5/47 176/6/50 169/6/47
f 162/6/43 173/5/49 161/5/43
f 173/5/49 162/6/43 175/6/49
f 171/6/48 165/5/45 172/5/48
f 165/5/45 171/6/48 167/6/45
f 168/6/46 163/5/44 166/5/46
f 163/5/44 168/6/46 164/6/44
f 176/6/34 171/6/34 169/6/34
f 171/6/34 176/6/34 167/6/34
f 167/6/34 176/6/34 175/6/34
f 167/6/34 175/6/34 168/6/34
f 168/6/34 175/6/34 164/6/34
f 164/6/34 175/6/34 162/6/34
f 165/5/27 170/5/27 172/5/27
f 170/5/27 165/5/27 174/5/27
f 174/5/27 165/5/27 166/5/27
f 174/5/27 166/5/27 173/5/27
f 173/5/27 166/5/27 163/5/27
f 173/5/27 163/5/27 161/5/27
f 179/5/44 178/6/43 177/5/43
f 178/6/43 179/5/44 180/6/44
f 183/6/45 182/5/46 181/5/45
f 182/5/46 183/6/45 184/6/46
f 187/6/48 186/5/47 185/6/47
f 186/5/47 187/6/48 188/5/48
f 191/6/49 190/5/50 189/5/49
f 190/5/50 191/6/49 192/6/50
f 192/6/50 186/5/47 190/5/50
f 186/5/47 192/6/50 185/6/47
f 178/6/43 189/5/49 177/5/43
f 189/5/49 178/6/43 191/6/49
f 187/6/48 181/5/45 188/5/48
f 181/5/45 187/6/48 183/6/45
f 184/6/46 179/5/44 182/5/46
f 179/5/44 184/6/46 180/6/44
f 192/6/34 187/6/34 185/6/34
f 187/6/34 192/6/34 183/6/34
f 183/6/34 192/6/34 191/6/34
f 183/6/34 191/6/34 184/6/34
f 184/6/34 191/6/34 180/6/34
f 180/6/34 191/6/34 178/6/34
f 181/5/27 186/5/27 188/5/27
f 186/5/27 181/5/27 190/5/27
f 190/5/27 181/5/27 182/5/27
f 190/5/27 182/5/27 189/5/27
f 189/5/27 182/5/27 179/5/27
f 189/5/27 179/5/27 177/5/27
f 195/5/44 194/6/43 193/5/43
f 194/6/43 195/5/44 196/6/44
f 199/6/45 198/5/46 197/5/45
f 198/5/46 199/6/45 200/6/46
f 203/6/48 202/5/47 201/6/47
f 202/5/47 203/6/48 204/5/48
f 207/6/49 206/5/50 205/5/49
f 206/5/50 207/6/49 208/6/50
f 208/6/50 202/5/47 206/5/50
f 202/5/47 208/6/50 201/6/47
f 194/6/43 205/5/49 193/5/43
f 205/5/49 194/6/43 207/6/49
f 203/6/48 197/5/45 204/5/48
f 197/5/45 203/6/48 199/6/45
f 200/6/46 195/5/44 198/5/46
f 195/5/44 200/6/46 196/6/44
f 208/6/34 203/6/34 201/6/34
f 203/6/34 208/6/34 199/6/34
f 199/6/34 208/6/34 207/6/34
f 199/6/34 207/6/34 200/6/34
f 200/6/34 207/6/34 196/6/34
f 196/6/34 207/6/34 194/6/34
f 197/5/27 202/5/27 204/5/27
f 202/5/27 197/5/27 206/5/27
f 206/5/27 197/5/27 198/5/27
f 206/5/27 198/5/27 205/5/27
f 205/5/27 198/5/27 195/5/27
f 205/5/27 195/5/27 193/5/27
f 211/5/44 210/6/43 209/5/43
f 210/6/43 211/5/44 212/6/44
f 215/6/45 214/5/46 213/5/45
f 214/5/46 215/6/45 216/6/46
f 219/6/48 218/5/47 217/6/47
f 218/5/47 219/6/48 220/5/48
f 223/6/49 222/5/50 221/5/49
f 222/5/50 223/6/49 224/6/50
f 224/6/50 218/5/47 222/5/50
f 218/5/47 224/6/50 217/6/47
f 210/6/43 221/5/49 209/5/43
f 221/5/49 210/6/43 223/6/49
f 219/6/48 213/5/45 220/5/48
f 213/5/45 219/6/48 215/6/45
f 216/6/46 211/5/44 214/5/46
f 211/5/44 216/6/46 212/6/44
f 224/6/34 219/6/34 217/6/34
f 219/6/34 224/6/34 215/6/34
f 215/6/34 224/6/34 223/6/34
f 215/6/34 223/6/34 216/6/34
f 216/6/34 223/6/34 212/6/34
f 212/6/34 223/6/34 210/6/34
f 213/5/27 218/5/27 220/5/27
f 218/5/27 213/5/27 222/5/27
f 222/5/27 213/5/27 214/5/27
f 222/5/27 214/5/27 221/5/27
f 221/5/27 214/5/27 211/5/27
f 221/5/27 211/5/27 209/5/27
f 227/5/35 226/5/36 225/5/35
f 226/5/36 227/5/35 228/5/36
f 231/6/37 230/5/35 229/6/37
f 230/5/35 231/6/37 232/5/35
f 233/6/38 231/6/37 229/6/37
f 231/6/37 233/6/38 234/6/38
f 236/5/36 233/6/38 235/5/36
f 233/6/38 236/5/36 234/6/38
f 239/6/38 238/6/37 237/6/37
f 238/6/37 239/6/38 240/6/38
f 226/5/36 240/6/38 239/6/38
f 240/6/38 226/5/36 228/5/36
f 238/6/37 225/5/35 237/6/37
f 225/5/35 238/6/37 227/5/35
f 236/5/36 230/5/35 232/5/35
f 230/5/35 236/5/36 235/5/36
f 243/6/40 242/6/39 241/6/39
f 242/6/39 243/6/40 244/6/40
f 247/5/41 246/5/42 245/5/41
f 246/5/42 247/5/41 248/5/42
f 250/5/41 242/6/39 249/5/41
f 242/6/39 250/5/41 241/6/39
f 244/6/40 252/5/42 251/5/42
f 252/5/42 244/6/40 243/6/40
f 249/5/41 252/5/42 250/5/41
f 252/5/42 249/5/41 251/5/42
f 255/6/40 254/6/39 253/6/39
f 254/6/39 255/6/40 256/6/40
f 256/6/40 246/5/42 248/5/42
f 246/5/42 256/6/40 255/6/40
f 245/5/41 254/6/39 247/5/41
f 254/6/39 245/5/41 253/6/39
f 259/5/44 258/6/43 257/5/43
f 258/6/43 259/5/44 260/6/44
f 263/6/45 262/5/46 261/5/45
f 262/5/46 263/6/45 264/6/46
f 267/6/48 266/5/47 265/6/47
f 266/5/47 267/6/48 268/5/48
f 271/6/49 270/5/50 269/5/49
f 270/5/50 271/6/49 272/6/50
f 272/6/50 266/5/47 270/5/50
f 266/5/47 272/6/50 265/6/47
f 258/6/43 269/5/49 257/5/43
f 269/5/49 258/6/43 271/6/49
f 267/6/48 261/5/45 268/5/48
f 261/5/45 267/6/48 263/6/45
f 264/6/46 259/5/44 262/5/46
f 259/5/44 264/6/46 260/6/44
f 272/6/34 267/6/34 265/6/34
f 267/6/34 272/6/34 263/6/34
f 263/6/34 272/6/34 271/6/34
f 263/6/34 271/6/34 264/6/34
f 264/6/34 271/6/34 260/6/34
f 260/6/34 271/6/34 258/6/34
f 261/5/27 266/5/27 268/5/27
f 266/5/27 261/5/27 270/5/27
f 270/5/27 261/5/27 262/5/27
f 270/5/27 262/5/27 269/5/27
f 269/5/27 262/5/27 259/5/27
f 269/5/27 259/5/27 257/5/27
f 275/5/44 274/6/43 273/5/43
f 274/6/43 275/5/44 276/6/44
f 279/6/45 278/5/46 277/5/45
f 278/5/46 279/6/45 280/6/46
f 283/6/48 282/5/47 281/6/47
f 282/5/47 283/6/48 284/5/48
f 287/6/49 286/5/50 285/5/49
f 286/5/50 287/6/49 288/6/50
f 288/6/50 282/5/47 286/5/50
f 282/5/47 288/6/50 281/6/47
f 274/6/43 285/5/49 273/5/43
f 285/5/49 274/6/43 287/6/49
f 283/6/48 277/5/45 284/5/48
f 277/5/45 283/6/48 279/6/45
f 280/6/46 275/5/44 278/5/46
f 275/5/44 280/6/46 276/6/44
f 288/6/34 283/6/34 281/6/34
f 283/6/34 288/6/34 279/6/34
f 279/6/34 288/6/34 287/6/34
f 279/6/34 287/6/34 280/6/34
f 280/6/34 287/6/34 276/6/34
f 276/6/34 287/6/34 274/6/34
f 277/5/27 282/5/27 284/5/27
f 282/5/27 277/5/27 286/5/27
f 286/5/27 277/5/27 278/5/27
f 286/5/27 278/5/27 285/5/27
f 285/5/27 278/5/27 275/5/27
f 285/5/27 275/5/27 273/5/27
f 291/9/51 290/8/51 289/7/51
f 290/8/51 291/9/51 292/10/51
f 292/10/51 291/9/51 293/9/51
f 292/10/51 293/9/51 294/10/51
f 294/10/51 293/9/51 295/7/51
f 294/10/51 295/7/51 296/8/51
f 289/7/52 290/8/52 291/9/52
f 292/10/52 291/9/52 290/8/52
f 293/9/52 291/9/52 292/10/52
f 294/10/52 293/9/52 292/10/52
f 295/7/52 293/9/52 294/10/52
f 296/8/52 295/7/52 294/10/52
f 299/9/53 298/8/53 297/7/53
f 298/8/53 299/9/53 300/10/53
f 300/10/53 299/9/53 301/9/53
f 300/10/53 301/9/53 302/10/53
f 302/10/53 301/9/53 303/7/53
f 302/10/53 303/7/53 304/8/53
f 297/7/54 298/8/54 299/9/54
f 300/10/54 299/9/54 298/8/54
f 301/9/54 299/9/54 300/10/54
f 302/10/54 301/9/54 300/10/54
f 303/7/54 301/9/54 302/10/54
f 304/8/54 303/7/54 302/10/54
f 307/9/53 306/8/53 305/7/53
f 306/8/53 307/9/53 308/10/53
f 308/10/53 307/9/53 309/9/53
f 308/10/53 309/9/53 310/10/53
f 310/10/53 309/9/53 311/7/53
f 310/10/53 311/7/53 312/8/53
f 305/7/54 306/8/54 307/9/54
f 308/10/54 307/9/54 306/8/54
f 309/9/54 307/9/54 308/10/54
f 310/10/54 309/9/54 308/10/54
f 311/7/54 309/9/54 310/10/54
f 312/8/54 311/7/54 310/10/54
f 315/9/51 314/8/51 313/7/51
f 314/8/51 315/9/51 316/10/51
f 316/10/51 315/9/51 317/9/51
f 316/10/51 317/9/51 318/10/51
f 318/10/51 317/9/51 319/7/51
f 318/10/51 319/7/51 320/8/51
f 313/7/52 314/8/52 315/9/52
f 316/10/52 315/9/52 314/8/52
f 317/9/52 315/9/52 316/10/52
f 318/10/52 317/9/52 316/10/52
f 319/7/52 317/9/52 318/10/52
f 320/8/52 319/7/52 318/10/52
f 323/10/55 322/10/56 321/10/55
f 322/10/56 323/10/55 324/10/56
f 327/9/58 326/11/57 325/11/57
f 326/11/57 327/9/58 328/9/58
f 331/12/59 330/11/60 329/12/59
f 330/11/60 331/12/59 332/11/60
f 332/11/60 333/9/61 330/11/60
f 333/9/61 332/11/60 334/9/61
f 324/10/56 329/12/59 322/10/56
f 329/12/59 324/10/56 331/12/59
f 335/12/62 323/10/55 321/10/55
f 323/10/55 335/12/62 336/12/62
f 333/9/63 329/12/63 330/11/63
f 329/12/63 333/9/63 322/10/63
f 322/10/63 333/9/63 327/9/63
f 322/10/63 327/9/63 321/10/63
f 321/10/63 327/9/63 335/12/63
f 335/12/63 327/9/63 325/11/63
f 325/11/57 336/12/62 335/12/62
f 336/12/62 325/11/57 326/11/57
f 334/9/61 327/9/58 333/9/61
f 327/9/58 334/9/61 328/9/58
f 324/10/64 332/11/64 331/12/64
f 332/11/64 324/10/64 334/9/64
f 334/9/64 324/10/64 328/9/64
f 328/9/64 324/10/64 323/10/64
f 328/9/64 323/10/64 336/12/64
f 328/9/64 336/12/64 326/11/64
f 339/10/55 338/10/56 337/10/55
f 338/10/56 339/10/55 340/10/56
f 343/9/58 342/11/57 341/11/57
f 342/11/57 343/9/58 344/9/58
f 347/12/59 346/11/60 345/12/59
f 346/11/60 347/12/59 348/11/60
f 348/11/60 349/9/61 346/11/60
f 349/9/61 348/11/60 350/9/61
f 340/10/56 345/12/59 338/10/56
f 345/12/59 340/10/56 347/12/59
f 351/12/62 339/10/55 337/10/55
f 339/10/55 351/12/62 352/12/62
f 349/9/63 345/12/63 346/11/63
f 345/12/63 349/9/63 338/10/63
f 338/10/63 349/9/63 343/9/63
f 338/10/63 343/9/63 337/10/63
f 337/10/63 343/9/63 351/12/63
f 351/12/63 343/9/63 341/11/63
f 341/11/57 352/12/62 351/12/62
f 352/12/62 341/11/57 342/11/57
f 350/9/61 343/9/58 349/9/61
f 343/9/58 350/9/61 344/9/58
f 340/10/64 348/11/64 347/12/64
f 348/11/64 340/10/64 350/9/64
f 350/9/64 340/10/64 344/9/64
f 344/9/64 340/10/64 339/10/64
f 344/9/64 339/10/64 352/12/64
f 344/9/64 352/12/64 342/11/64
f 355/10/55 354/10/56 353/10/55
f 354/10/56 355/10/55 356/10/56
f 359/9/58 358/11/57 357/11/57
f 358/11/57 359/9/58 360/9/58
f 363/12/59 362/11/60 361/12/59
f 362/11/60 363/12/59 364/11/60
f 364/11/60 365/9/61 362/11/60
f 365/9/61 364/11/60 366/9/61
f 356/10/56 361/12/59 354/10/56
f 361/12/59 356/10/56 363/12/59
f 367/12/62 355/10/55 353/10/55
f 355/10/55 367/12/62 368/12/62
f 365/9/63 361/12/63 362/11/63
f 361/12/63 365/9/63 354/10/63
f 354/10/63 365/9/63 359/9/63
f 354/10/63 359/9/63 353/10/63
f 353/10/63 359/9/63 367/12/63
f 367/12/63 359/9/63 357/11/63
f 357/11/57 368/12/62 367/12/62
f 368/12/62 357/11/57 358/11/57
f 366/9/61 359/9/58 365/9/61
f 359/9/58 366/9/61 360/9/58
f 356/10/64 364/11/64 363/12/64
f 364/11/64 356/10/64 366/9/64
f 366/9/64 356/10/64 360/9/64
f 360/9/64 356/10/64 355/10/64
f 360/9/64 355/10/64 368/12/64
f 360/9/64 368/12/64 358/11/64
f 371/12/59 370/11/60 369/12/59
f 370/11/60 371/12/59 372/11/60
f 374/10/56 369/12/59 373/10/56
f 369/12/59 374/10/56 371/12/59
f 377/12/62 376/10/55 375/10/55
f 376/10/55 377/12/62 378/12/62
f 381/9/61 380/9/58 379/9/61
f 380/9/58 381/9/61 382/9/58
f 380/9/58 384/11/57 383/11/57
f 384/11/57 380/9/58 382/9/58
f 379/9/63 369/12/63 370/11/63
f 369/12/63 379/9/63 373/10/63
f 373/10/63 379/9/63 380/9/63
f 373/10/63 380/9/63 375/10/63
f 375/10/63 380/9/63 377/12/63
f 377/12/63 380/9/63 383/11/63
f 374/10/64 372/11/64 371/12/64
f 372/11/64 374/10/64 381/9/64
f 381/9/64 374/10/64 382/9/64
f 382/9/64 374/10/64 376/10/64
f 382/9/64 376/10/64 378/12/64
f 382/9/64 378/12/64 384/11/64
f 372/11/60 379/9/61 370/11/60
f 379/9/61 372/11/60 381/9/61
f 383/11/57 378/12/62 377/12/62
f 378/12/62 383/11/57 384/11/57
f 376/10/55 373/10/56 375/10/55
f 373/10/56 376/10/55 374/10/56
f 387/12/59 386/11/60 385/12/59
f 386/11/60 387/12/59 388/11/60
f 390/10/56 385/12/59 389/10/56
f 385/12/59 390/10/56 387/12/59
f 393/12/62 392/10/55 391/10/55
f 392/10/55 393/12/62 394/12/62
f 397/9/61 396/9/58 395/9/61
f 396/9/58 397/9/61 398/9/58
f 396/9/58 400/11/57 399/11/57
f 400/11/57 396/9/58 398/9/58
f 395/9/63 385/12/63 386/11/63
f 385/12/63 395/9/63 389/10/63
f 389/10/63 395/9/63 396/9/63
f 389/10/63 396/9/63 391/10/63
f 391/10/63 396/9/63 393/12/63
f 393/12/63 396/9/63 399/11/63
f 390/10/64 388/11/64 387/12/64
f 388/11/64 390/10/64 397/9/64
f 397/9/64 390/10/64 398/9/64
f 398/9/64 390/10/64 392/10/64
f 398/9/64 392/10/64 394/12/64
f 398/9/64 394/12/64 400/11/64
f 388/11/60 395/9/61 386/11/60
f 395/9/61 388/11/60 397/9/61
f 399/11/57 394/12/62 393/12/62
f 394/12/62 399/11/57 400/11/57
f 392/10/55 389/10/56 391/10/55
f 389/10/56 392/10/55 390/10/56
f 403/12/59 402/11/60 401/12/59
f 402/11/60 403/12/59 404/11/60
f 406/10/56 401/12/59 405/10/56
f 401/12/59 406/10/56 403/12/59
f 409/12/62 408/10/55 407/10/55
f 408/10/55 409/12/62 410/12/62
f 413/9/61 412/9/58 411/9/61
f 412/9/58 413/9/61 414/9/58
f 412/9/58 416/11/57 415/11/57
f 416/11/57 412/9/58 414/9/58
f 411/9/63 401/12/63 402/11/63
f 401/12/63 411/9/63 405/10/63
f 405/10/63 411/9/63 412/9/63
f 405/10/63 412/9/63 407/10/63
f 407/10/63 412/9/63 409/12/63
f 409/12/63 412/9/63 415/11/63
f 406/10/64 404/11/64 403/12/64
f 404/11/64 406/10/64 413/9/64
f 413/9/64 406/10/64 414/9/64
f 414/9/64 406/10/64 408/10/64
f 414/9/64 408/10/64 410/12/64
f 414/9/64 410/12/64 416/11/64
f 404/11/60 411/9/61 402/11/60
f 411/9/61 404/11/60 413/9/61
f 415/11/57 410/12/62 409/12/62
f 410/12/62 415/11/57 416/11/57
f 408/10/55 405/10/56 407/10/55
f 405/10/56 408/10/55 406/10/56
f 419/12/65 418/11/66 417/12/65
f 418/11/66 419/12/65 420/11/66
f 422/10/67 417/12/65 421/10/67
f 417/12/65 422/10/67 419/12/65
f 425/12/69 424/10/68 423/10/68
f 424/10/68 425/12/69 426/12/69
f 429/9/70 428/9/71 427/9/70
f 428/9/71 429/9/70 430/9/71
f 428/9/71 432/11/72 431/11/72
f 432/11/72 428/9/71 430/9/71
f 427/9/52 417/12/52 418/11/52
f 417/12/52 427/9/52 421/10/52
f 421/10/52 427/9/52 428/9/52
f 421/10/52 428/9/52 423/10/52
f 423/10/52 428/9/52 425/12/52
f 425/12/52 428/9/52 431/11/52
f 422/10/51 420/11/51 419/12/51
f 420/11/51 422/10/51 429/9/51
f 429/9/51 422/10/51 430/9/51
f 430/9/51 422/10/51 424/10/51
f 430/9/51 424/10/51 426/12/51
f 430/9/51 426/12/51 432/11/51
f 420/11/66 427/9/70 418/11/66
f 427/9/70 420/11/66 429/9/70
f 431/11/72 426/12/69 425/12/69
f 426/12/69 431/11/72 432/11/72
f 424/10/68 421/10/67 423/10/68
f 421/10/67 424/10/68 422/10/67
f 435/12/65 434/11/66 433/12/65
f 434/11/66 435/12/65 436/11/66
f 438/10/67 433/12/65 437/10/67
f 433/12/65 438/10/67 435/12/65
f 441/12/69 440/10/68 439/10/68
f 440/10/68 441/12/69 442/12/69
f 445/9/70 444/9/71 443/9/70
f 444/9/71 445/9/70 446/9/71
f 444/9/71 448/11/72 447/11/72
f 448/11/72 444/9/71 446/9/71
f 443/9/52 433/12/52 434/11/52
f 433/12/52 443/9/52 437/10/52
f 437/10/52 443/9/52 444/9/52
f 437/10/52 444/9/52 439/10/52
f 439/10/52 444/9/52 441/12/52
f 441/12/52 444/9/52 447/11/52
f 438/10/51 436/11/51 435/12/51
f 436/11/51 438/10/51 445/9/51
f 445/9/51 438/10/51 446/9/51
f 446/9/51 438/10/51 440/10/51
f 446/9/51 440/10/51 442/12/51
f 446/9/51 442/12/51 448/11/51
f 436/11/66 443/9/70 434/11/66
f 443/9/70 436/11/66 445/9/70
f 447/11/72 442/12/69 441/12/69
f 442/12/69 447/11/72 448/11/72
f 440/10/68 437/10/67 439/10/68
f 437/10/67 440/10/68 438/10/67
f 451/12/65 450/11/66 449/12/65
f 450/11/66 451/12/65 452/11/66
f 454/10/67 449/12/65 453/10/67
f 449/12/65 454/10/67 451/12/65
f 457/12/69 456/10/68 455/10/68
f 456/10/68 457/12/69 458/12/69
f 461/9/70 460/9/71 459/9/70
f 460/9/71 461/9/70 462/9/71
f 460/9/71 464/11/72 463/11/72
f 464/11/72 460/9/71 462/9/71
f 459/9/52 449/12/52 450/11/52
f 449/12/52 459/9/52 453/10/52
f 453/10/52 459/9/52 460/9/52
f 453/10/52 460/9/52 455/10/52
f 455/10/52 460/9/52 457/12/52
f 457/12/52 460/9/52 463/11/52
f 454/10/51 452/11/51 451/12/51
f 452/11/51 454/10/51 461/9/51
f 461/9/51 454/10/51 462/9/51
f 462/9/51 454/10/51 456/10/51
f 462/9/51 456/10/51 458/12/51
f 462/9/51 458/12/51 464/11/51
f 452/11/66 459/9/70 450/11/66
f 459/9/70 452/11/66 461/9/70
f 463/11/72 458/12/69 457/12/69
f 458/12/69 463/11/72 464/11/72
f 456/10/68 453/10/67 455/10/68
f 453/10/67 456/10/68 454/10/67
f 467/10/68 466/10/67 465/10/68
f 466/10/67 467/10/68 468/10/67
f 471/9/71 470/11/72 469/11/72
f 470/11/72 471/9/71 472/9/71
f 475/12/65 474/11/66 473/12/65
f 474/11/66 475/12/65 476/11/66
f 476/11/66 477/9/70 474/11/66
f 477/9/70 476/11/66 478/9/70
f 468/10/67 473/12/65 466/10/67
f 473/12/65 468/10/67 475/12/65
f 479/12/69 467/10/68 465/10/68
f 467/10/68 479/12/69 480/12/69
f 477/9/52 473/12/52 474/11/52
f 473/12/52 477/9/52 466/10/52
f 466/10/52 477/9/52 471/9/52
f 466/10/52 471/9/52 465/10/52
f 465/10/52 471/9/52 479/12/52
f 479/12/52 471/9/52 469/11/52
f 469/11/72 480/12/69 479/12/69
f 480/12/69 469/11/72 470/11/72
f 478/9/70 471/9/71 477/9/70
f 471/9/71 478/9/70 472/9/71
f 468/10/51 476/11/51 475/12/51
f 476/11/51 468/10/51 478/9/51
f 478/9/51 468/10/51 472/9/51
f 472/9/51 468/10/51 467/10/51
f 472/9/51 467/10/51 480/12/51
f 472/9/51 480/12/51 470/11/51
f 483/10/68 482/10/67 481/10/68
f 482/10/67 483/10/68 484/10/67
f 487/9/71 486/11/72 485/11/72
f 486/11/72 487/9/71 488/9/71
f 491/12/65 490/11/66 489/12/65
f 490/11/66 491/12/65 492/11/66
f 492/11/66 493/9/70 490/11/66
f 493/9/70 492/11/66 494/9/70
f 484/10/67 489/12/65 482/10/67
f 489/12/65 484/10/67 491/12/65
f 495/12/69 483/10/68 481/10/68
f 483/10/68 495/12/69 496/12/69
f 493/9/52 489/12/52 490/11/52
f 489/12/52 493/9/52 482/10/52
f 482/10/52 493/9/52 487/9/52
f 482/10/52 487/9/52 481/10/52
f 481/10/52 487/9/52 495/12/52
f 495/12/52 487/9/52 485/11/52
f 485/11/72 496/12/69 495/12/69
f 496/12/69 485/11/72 486/11/72
f 494/9/70 487/9/71 493/9/70
f 487/9/71 494/9/70 488/9/71
f 484/10/51 492/11/51 491/12/51
f 492/11/51 484/10/51 494/9/51
f 494/9/51 484/10/51 488/9/51
f 488/9/51 484/10/51 483/10/51
f 488/9/51 483/10/51 496/12/51
f 488/9/51 496/12/51 486/11/51
f 499/10/68 498/10/67 497/10/68
f 498/10/67 499/10/68 500/10/67
f 503/9/71 502/11/72 501/11/72
f 502/11/72 503/9/71 504/9/71
f 507/12/65 506/11/66 505/12/65
f 506/11/66 507/12/65 508/11/66
f 508/11/66 509/9/70 506/11/66
f 509/9/70 508/11/66 510/9/70
f 500/10/67 505/12/65 498/10/67
f 505/12/65 500/10/67 507/12/65
f 511/12/69 499/10/68 497/10/68
f 499/10/68 511/12/69 512/12/69
f 509/9/52 505/12/52 506/11/52
f 505/12/52 509/9/52 498/10/52
f 498/10/52 509/9/52 503/9/52
f 498/10/52 503/9/52 497/10/52
f 497/10/52 503/9/52 511/12/52
f 511/12/52 503/9/52 501/11/52
f 501/11/72 512/12/69 511/12/69
f 512/12/69 501/11/72 502/11/72
f 510/9/70 503/9/71 509/9/70
f 503/9/71 510/9/70 504/9/71
f 500/10/51 508/11/51 507/12/51
f 508/11/51 500/10/51 510/9/51
f 510/9/51 500/10/51 504/9/51
f 504/9/51 500/10/51 499/10/51
f 504/9/51 499/10/51 512/12/51
f 504/9/51 512/12/51 502/11/51
f 515/12/65 514/11/66 513/12/65
f 514/11/66 515/12/65 516/11/66
f 518/10/67 513/12/65 517/10/67
f 513/12/65 518/10/67 515/12/65
f 521/12/69 520/10/68 519/10/68
f 520/10/68 521/12/69 522/12/69
f 525/9/70 524/9/71 523/9/70
f 524/9/71 525/9/70 526/9/71
f 524/9/71 528/11/72 527/11/72
f 528/11/72 524/9/71 526/9/71
f 523/9/52 513/12/52 514/11/52
f 513/12/52 523/9/52 517/10/52
f 517/10/52 523/9/52 524/9/52
f 517/10/52 524/9/52 519/10/52
f 519/10/52 524/9/52 521/12/52
f 521/12/52 524/9/52 527/11/52
f 518/10/51 516/11/51 515/12/51
f 516/11/51 518/10/51 525/9/51
f 525/9/51 518/10/51 526/9/51
f 526/9/51 518/10/51 520/10/51
f 526/9/51 520/10/51 522/12/51
f 526/9/51 522/12/51 528/11/51
f 516/11/66 523/9/70 514/11/66
f 523/9/70 516/11/66 525/9/70
f 527/11/72 522/12/69 521/12/69
f 522/12/69 527/11/72 528/11/72
f 520/10/68 517/10/67 519/10/68
f 517/10/67 520/10/68 518/10/67
f 531/10/68 530/10/67 529/10/68
f 530/10/67 531/10/68 532/10/67
f 535/9/71 534/11/72 533/11/72
f 534/11/72 535/9/71 536/9/71
f 539/12/65 538/11/66 537/12/65
f 538/11/66 539/12/65 540/11/66
f 540/11/66 541/9/70 538/11/66
f 541/9/70 540/11/66 542/9/70
f 532/10/67 537/12/65 530/10/67
f 537/12/65 532/10/67 539/12/65
f 543/12/69 531/10/68 529/10/68
f 531/10/68 543/12/69 544/12/69
f 541/9/52 537/12/52 538/11/52
f 537/12/52 541/9/52 530/10/52
f 530/10/52 541/9/52 535/9/52
f 530/10/52 535/9/52 529/10/52
f 529/10/52 535/9/52 543/12/52
f 543/12/52 535/9/52 533/11/52
f 533/11/72 544/12/69 543/12/69
f 544/12/69 533/11/72 534/11/72
f 542/9/70 535/9/71 541/9/70
f 535/9/71 542/9/70 536/9/71
f 532/10/51 540/11/51 539/12/51
f 540/11/51 532/10/51 542/9/51
f 542/9/51 532/10/51 536/9/51
f 536/9/51 532/10/51 531/10/51
f 536/9/51 531/10/51 544/12/51
f 536/9/51 544/12/51 534/11/51
f 547/12/59 546/11/60 545/12/59
f 546/11/60 547/12/59 548/11/60
f 550/10/56 545/12/59 549/10/56
f 545/12/59 550/10/56 547/12/59
f 553/12/62 552/10/55 551/10/55
f 552/10/55 553/12/62 554/12/62
f 557/9/61 556/9/58 555/9/61
f 556/9/58 557/9/61 558/9/58
f 556/9/58 560/11/57 559/11/57
f 560/11/57 556/9/58 558/9/58
f 555/9/63 545/12/63 546/11/63
f 545/12/63 555/9/63 549/10/63
f 549/10/63 555/9/63 556/9/63
f 549/10/63 556/9/63 551/10/63
f 551/10/63 556/9/63 553/12/63
f 553/12/63 556/9/63 559/11/63
f 550/10/64 548/11/64 547/12/64
f 548/11/64 550/10/64 557/9/64
f 557/9/64 550/10/64 558/9/64
f 558/9/64 550/10/64 552/10/64
f 558/9/64 552/10/64 554/12/64
f 558/9/64 554/12/64 560/11/64
f 548/11/60 555/9/61 546/11/60
f 555/9/61 548/11/60 557/9/61
f 559/11/57 554/12/62 553/12/62
f 554/12/62 559/11/57 560/11/57
f 552/10/55 549/10/56 551/10/55
f 549/10/56 552/10/55 550/10/56
f 563/10/55 562/10/56 561/10/55
f 562/10/56 563/10/55 564/10/56
f 567/9/58 566/11/57 565/11/57
f 566/11/57 567/9/58 568/9/58
f 571/12/59 570/11/60 569/12/59
f 570/11/60 571/12/59 572/11/60
f 572/11/60 573/9/61 570/11/60
f 573/9/61 572/11/60 574/9/61
f 564/10/56 569/12/59 562/10/56
f 569/12/59 564/10/56 571/12/59
f 575/12/62 563/10/55 561/10/55
f 563/10/55 575/12/62 576/12/62
f 573/9/63 569/12/63 570/11/63
f 569/12/63 573/9/63 562/10/63
f 562/10/63 573/9/63 567/9/63
f 562/10/63 567/9/63 561/10/63
f 561/10/63 567/9/63 575/12/63
f 575/12/63 567/9/63 565/11/63
f 565/11/57 576/12/62 575/12/62
f 576/12/62 565/11/57 566/11/57
f 574/9/61 567/9/58 573/9/61
f 567/9/58 574/9/61 568/9/58
f 564/10/64 572/11/64 571/12/64
f 572/11/64 564/10/64 574/9/64
f 574/9/64 564/10/64 568/9/64
f 568/9/64 564/10/64 563/10/64
f 568/9/64 563/10/64 576/12/64
f 568/9/64 576/12/64 566/11/64

