# Created by Kenney (www.kenney.nl)

mtllib barrels.mtl

g barrels

v 0 0 3.219725E-13 1 1 1
v -0.03661165 0 -0.08838835 1 1 1
v -0.03661165 0 0.08838835 1 1 1
v -0.125 0 -0.125 1 1 1
v -0.125 0 0.125 1 1 1
v -0.2133884 0 -0.08838835 1 1 1
v -0.2133884 0 0.08838835 1 1 1
v -0.25 0 1.609862E-13 1 1 1
v 0 0.1 3.219725E-13 1 1 1
v -0.03661165 0.1 0.08838835 1 1 1
v -0.125 0.1 0.125 1 1 1
v -0.2133884 0.1 0.08838835 1 1 1
v -0.25 0.1 1.609862E-13 1 1 1
v -0.2133884 0.1 -0.08838835 1 1 1
v -0.125 0.1 -0.125 1 1 1
v -0.03661165 0.1 -0.08838835 1 1 1
v 0 0.3 3.219725E-13 1 1 1
v 0 0.2 3.219725E-13 1 1 1
v -0.03661165 0.3 0.08838835 1 1 1
v -0.03661165 0.2 0.08838835 1 1 1
v -0.125 0.2 0.125 1 1 1
v -0.125 0.3 0.125 1 1 1
v -0.2133884 0.2 0.08838835 1 1 1
v -0.2133884 0.3 0.08838835 1 1 1
v -0.25 0.2 1.609862E-13 1 1 1
v -0.25 0.3 1.609862E-13 1 1 1
v -0.2133884 0.2 -0.08838835 1 1 1
v -0.2133884 0.3 -0.08838835 1 1 1
v -0.125 0.2 -0.125 1 1 1
v -0.125 0.3 -0.125 1 1 1
v -0.03661165 0.2 -0.08838835 1 1 1
v -0.03661165 0.3 -0.08838835 1 1 1
v -0.05593506 0.3 2.860574E-13 1 1 1
v -0.07616371 0.3 -0.04883629 1 1 1
v -0.07616371 0.3 0.04883629 1 1 1
v -0.125 0.3 -0.06906494 1 1 1
v -0.125 0.3 0.06906494 1 1 1
v -0.1738363 0.3 0.04883629 1 1 1
v -0.1738363 0.3 -0.04883629 1 1 1
v -0.1940649 0.3 1.969013E-13 1 1 1
v 0.25 0.3 4.829587E-13 1 1 1
v 0.25 0.2 4.829587E-13 1 1 1
v 0.2133884 0.3 0.08838835 1 1 1
v 0.2133884 0.2 0.08838835 1 1 1
v 0.125 0.2 0.125 1 1 1
v 0.125 0.3 0.125 1 1 1
v 0.03661165 0.2 0.08838835 1 1 1
v 0.03661165 0.3 0.08838835 1 1 1
v 0.03661165 0.2 -0.08838835 1 1 1
v 0.03661165 0.3 -0.08838835 1 1 1
v 0.125 0.2 -0.125 1 1 1
v 0.125 0.3 -0.125 1 1 1
v 0.2133884 0.2 -0.08838835 1 1 1
v 0.2133884 0.3 -0.08838835 1 1 1
v 0.1940649 0.3 4.470436E-13 1 1 1
v 0.1738363 0.3 -0.04883629 1 1 1
v 0.1738363 0.3 0.04883629 1 1 1
v 0.125 0.3 -0.06906494 1 1 1
v 0.125 0.3 0.06906494 1 1 1
v 0.07616371 0.3 0.04883629 1 1 1
v 0.07616371 0.3 -0.04883629 1 1 1
v 0.05593506 0.3 3.578876E-13 1 1 1
v 0.25 0 4.829587E-13 1 1 1
v 0.2133884 0 -0.08838835 1 1 1
v 0.2133884 0 0.08838835 1 1 1
v 0.125 0 -0.125 1 1 1
v 0.125 0 0.125 1 1 1
v 0.03661165 0 -0.08838835 1 1 1
v 0.03661165 0 0.08838835 1 1 1
v 0.25 0.1 4.829587E-13 1 1 1
v 0.2133884 0.1 0.08838835 1 1 1
v 0.125 0.1 0.125 1 1 1
v 0.03661165 0.1 0.08838835 1 1 1
v 0.03661165 0.1 -0.08838835 1 1 1
v 0.125 0.1 -0.125 1 1 1
v 0.2133884 0.1 -0.08838835 1 1 1
v 0.5 0.3 6.43945E-13 1 1 1
v 0.5 0.2 6.43945E-13 1 1 1
v 0.4633884 0.3 0.08838835 1 1 1
v 0.4633884 0.2 0.08838835 1 1 1
v 0.375 0.2 0.125 1 1 1
v 0.375 0.3 0.125 1 1 1
v 0.2866116 0.2 0.08838835 1 1 1
v 0.2866116 0.3 0.08838835 1 1 1
v 0.2866116 0.2 -0.08838835 1 1 1
v 0.2866116 0.3 -0.08838835 1 1 1
v 0.375 0.2 -0.125 1 1 1
v 0.375 0.3 -0.125 1 1 1
v 0.4633884 0.2 -0.08838835 1 1 1
v 0.4633884 0.3 -0.08838835 1 1 1
v 0.4440649 0.3 6.080299E-13 1 1 1
v 0.4238363 0.3 -0.04883629 1 1 1
v 0.4238363 0.3 0.04883629 1 1 1
v 0.375 0.3 -0.06906494 1 1 1
v 0.375 0.3 0.06906494 1 1 1
v 0.3261637 0.3 0.04883629 1 1 1
v 0.3261637 0.3 -0.04883629 1 1 1
v 0.3059351 0.3 5.188738E-13 1 1 1
v 0.5 0 6.43945E-13 1 1 1
v 0.4633884 0 -0.08838835 1 1 1
v 0.4633884 0 0.08838835 1 1 1
v 0.375 0 -0.125 1 1 1
v 0.375 0 0.125 1 1 1
v 0.2866116 0 -0.08838835 1 1 1
v 0.2866116 0 0.08838835 1 1 1
v 0.5 0.1 6.43945E-13 1 1 1
v 0.4633884 0.1 0.08838835 1 1 1
v 0.375 0.1 0.125 1 1 1
v 0.2866116 0.1 0.08838835 1 1 1
v 0.2866116 0.1 -0.08838835 1 1 1
v 0.375 0.1 -0.125 1 1 1
v 0.4633884 0.1 -0.08838835 1 1 1
v -0.2866116 0.3 0.08838835 1 1 1
v -0.2866116 0.2 0.08838835 1 1 1
v -0.375 0.2 0.125 1 1 1
v -0.375 0.3 0.125 1 1 1
v -0.4633884 0.2 0.08838835 1 1 1
v -0.4633884 0.3 0.08838835 1 1 1
v -0.5 0.2 0 1 1 1
v -0.5 0.3 0 1 1 1
v -0.4633884 0.2 -0.08838835 1 1 1
v -0.4633884 0.3 -0.08838835 1 1 1
v -0.375 0.2 -0.125 1 1 1
v -0.375 0.3 -0.125 1 1 1
v -0.2866116 0.2 -0.08838835 1 1 1
v -0.2866116 0.3 -0.08838835 1 1 1
v -0.3059351 0.3 1.250712E-13 1 1 1
v -0.3261637 0.3 -0.04883629 1 1 1
v -0.3261637 0.3 0.04883629 1 1 1
v -0.375 0.3 -0.06906494 1 1 1
v -0.375 0.3 0.06906494 1 1 1
v -0.4238363 0.3 0.04883629 1 1 1
v -0.4238363 0.3 -0.04883629 1 1 1
v -0.4440649 0.3 3.591509E-14 1 1 1
v -0.2866116 0 -0.08838835 1 1 1
v -0.2866116 0 0.08838835 1 1 1
v -0.375 0 -0.125 1 1 1
v -0.375 0 0.125 1 1 1
v -0.4633884 0 -0.08838835 1 1 1
v -0.4633884 0 0.08838835 1 1 1
v -0.5 0 0 1 1 1
v -0.2866116 0.1 0.08838835 1 1 1
v -0.375 0.1 0.125 1 1 1
v -0.4633884 0.1 0.08838835 1 1 1
v -0.5 0.1 0 1 1 1
v -0.4633884 0.1 -0.08838835 1 1 1
v -0.375 0.1 -0.125 1 1 1
v -0.2866116 0.1 -0.08838835 1 1 1
v -0.05593506 0.25 2.860574E-13 1 1 1
v -0.07616371 0.25 0.04883629 1 1 1
v -0.07616371 0.25 -0.04883629 1 1 1
v -0.125 0.25 -0.06906494 1 1 1
v -0.125 0.25 0.06906494 1 1 1
v -0.1738363 0.25 -0.04883629 1 1 1
v -0.1738363 0.25 0.04883629 1 1 1
v -0.1940649 0.25 1.969013E-13 1 1 1
v 0.1940649 0.25 4.470436E-13 1 1 1
v 0.1738363 0.25 0.04883629 1 1 1
v 0.1738363 0.25 -0.04883629 1 1 1
v 0.125 0.25 -0.06906494 1 1 1
v 0.125 0.25 0.06906494 1 1 1
v 0.07616371 0.25 -0.04883629 1 1 1
v 0.07616371 0.25 0.04883629 1 1 1
v 0.05593506 0.25 3.578876E-13 1 1 1
v 0.4440649 0.25 6.080299E-13 1 1 1
v 0.4238363 0.25 0.04883629 1 1 1
v 0.4238363 0.25 -0.04883629 1 1 1
v 0.375 0.25 -0.06906494 1 1 1
v 0.375 0.25 0.06906494 1 1 1
v 0.3261637 0.25 -0.04883629 1 1 1
v 0.3261637 0.25 0.04883629 1 1 1
v 0.3059351 0.25 5.188738E-13 1 1 1
v -0.3059351 0.25 1.250712E-13 1 1 1
v -0.3261637 0.25 0.04883629 1 1 1
v -0.3261637 0.25 -0.04883629 1 1 1
v -0.375 0.25 -0.06906494 1 1 1
v -0.375 0.25 0.06906494 1 1 1
v -0.4238363 0.25 -0.04883629 1 1 1
v -0.4238363 0.25 0.04883629 1 1 1
v -0.4440649 0.25 3.591509E-14 1 1 1

vn 0 -1 0
vn 1 0 0
vn 0.7071068 0 0.7071068
vn 0 0 1
vn -0.7071068 0 0.7071068
vn -1 0 0
vn -0.7071068 0 -0.7071068
vn 0 0 -1
vn 0.7071068 0 -0.7071068
vn 0 1 0

vt 0.59375 0.275
vt 0.59375 0.475
vt 0.34375 0.125
vt 0.34375 0.225
vt 0.59375 0.225
vt 0.59375 0.025

usemtl colormap

f 3/1/1 2/1/1 1/1/1
f 2/1/1 3/1/1 4/1/1
f 4/1/1 3/1/1 5/1/1
f 4/1/1 5/1/1 6/1/1
f 6/1/1 5/1/1 7/1/1
f 6/1/1 7/1/1 8/1/1
f 10/2/3 1/1/2 9/2/2
f 1/1/2 10/2/3 3/1/3
f 10/2/3 5/1/4 3/1/3
f 5/1/4 10/2/3 11/2/4
f 11/2/4 7/1/5 5/1/4
f 7/1/5 11/2/4 12/2/5
f 7/1/5 13/2/6 8/1/6
f 13/2/6 7/1/5 12/2/5
f 8/1/6 14/2/7 6/1/7
f 14/2/7 8/1/6 13/2/6
f 14/2/7 4/1/8 6/1/7
f 4/1/8 14/2/7 15/2/8
f 15/2/8 2/1/9 4/1/8
f 2/1/9 15/2/8 16/2/9
f 9/2/2 2/1/9 16/2/9
f 2/1/9 9/2/2 1/1/2
f 19/2/3 18/1/2 17/2/2
f 18/1/2 19/2/3 20/1/3
f 19/2/3 21/1/4 20/1/3
f 21/1/4 19/2/3 22/2/4
f 22/2/4 23/1/5 21/1/4
f 23/1/5 22/2/4 24/2/5
f 23/1/5 26/2/6 25/1/6
f 26/2/6 23/1/5 24/2/5
f 25/1/6 28/2/7 27/1/7
f 28/2/7 25/1/6 26/2/6
f 28/2/7 29/1/8 27/1/7
f 29/1/8 28/2/7 30/2/8
f 30/2/8 31/1/9 29/1/8
f 31/1/9 30/2/8 32/2/9
f 17/2/2 31/1/9 32/2/9
f 31/1/9 17/2/2 18/1/2
f 32/2/10 19/2/10 17/2/10
f 19/2/10 32/2/10 33/2/10
f 33/2/10 32/2/10 34/2/10
f 35/2/10 19/2/10 33/2/10
f 34/2/10 32/2/10 30/2/10
f 34/2/10 30/2/10 36/2/10
f 19/2/10 35/2/10 22/2/10
f 22/2/10 35/2/10 37/2/10
f 22/2/10 37/2/10 38/2/10
f 36/2/10 30/2/10 28/2/10
f 22/2/10 38/2/10 24/2/10
f 36/2/10 28/2/10 39/2/10
f 24/2/10 38/2/10 40/2/10
f 39/2/10 28/2/10 40/2/10
f 24/2/10 40/2/10 28/2/10
f 24/2/10 28/2/10 26/2/10
f 43/2/3 42/1/2 41/2/2
f 42/1/2 43/2/3 44/1/3
f 43/2/3 45/1/4 44/1/3
f 45/1/4 43/2/3 46/2/4
f 46/2/4 47/1/5 45/1/4
f 47/1/5 46/2/4 48/2/5
f 47/1/5 17/2/6 18/1/6
f 17/2/6 47/1/5 48/2/5
f 18/1/6 50/2/7 49/1/7
f 50/2/7 18/1/6 17/2/6
f 50/2/7 51/1/8 49/1/7
f 51/1/8 50/2/7 52/2/8
f 52/2/8 53/1/9 51/1/8
f 53/1/9 52/2/8 54/2/9
f 41/2/2 53/1/9 54/2/9
f 53/1/9 41/2/2 42/1/2
f 54/2/10 43/2/10 41/2/10
f 43/2/10 54/2/10 55/2/10
f 55/2/10 54/2/10 56/2/10
f 57/2/10 43/2/10 55/2/10
f 56/2/10 54/2/10 52/2/10
f 56/2/10 52/2/10 58/2/10
f 43/2/10 57/2/10 46/2/10
f 46/2/10 57/2/10 59/2/10
f 46/2/10 59/2/10 60/2/10
f 58/2/10 52/2/10 50/2/10
f 46/2/10 60/2/10 48/2/10
f 58/2/10 50/2/10 61/2/10
f 48/2/10 60/2/10 62/2/10
f 61/2/10 50/2/10 62/2/10
f 48/2/10 62/2/10 50/2/10
f 48/2/10 50/2/10 17/2/10
f 65/1/1 64/1/1 63/1/1
f 64/1/1 65/1/1 66/1/1
f 66/1/1 65/1/1 67/1/1
f 66/1/1 67/1/1 68/1/1
f 68/1/1 67/1/1 69/1/1
f 68/1/1 69/1/1 1/1/1
f 71/2/3 63/1/2 70/2/2
f 63/1/2 71/2/3 65/1/3
f 71/2/3 67/1/4 65/1/3
f 67/1/4 71/2/3 72/2/4
f 72/2/4 69/1/5 67/1/4
f 69/1/5 72/2/4 73/2/5
f 69/1/5 9/2/6 1/1/6
f 9/2/6 69/1/5 73/2/5
f 1/1/6 74/2/7 68/1/7
f 74/2/7 1/1/6 9/2/6
f 74/2/7 66/1/8 68/1/7
f 66/1/8 74/2/7 75/2/8
f 75/2/8 64/1/9 66/1/8
f 64/1/9 75/2/8 76/2/9
f 70/2/2 64/1/9 76/2/9
f 64/1/9 70/2/2 63/1/2
f 79/2/3 78/1/2 77/2/2
f 78/1/2 79/2/3 80/1/3
f 79/2/3 81/1/4 80/1/3
f 81/1/4 79/2/3 82/2/4
f 82/2/4 83/1/5 81/1/4
f 83/1/5 82/2/4 84/2/5
f 83/1/5 41/2/6 42/1/6
f 41/2/6 83/1/5 84/2/5
f 42/1/6 86/2/7 85/1/7
f 86/2/7 42/1/6 41/2/6
f 86/2/7 87/1/8 85/1/7
f 87/1/8 86/2/7 88/2/8
f 88/2/8 89/1/9 87/1/8
f 89/1/9 88/2/8 90/2/9
f 77/2/2 89/1/9 90/2/9
f 89/1/9 77/2/2 78/1/2
f 90/2/10 79/2/10 77/2/10
f 79/2/10 90/2/10 91/2/10
f 91/2/10 90/2/10 92/2/10
f 93/2/10 79/2/10 91/2/10
f 92/2/10 90/2/10 88/2/10
f 92/2/10 88/2/10 94/2/10
f 79/2/10 93/2/10 82/2/10
f 82/2/10 93/2/10 95/2/10
f 82/2/10 95/2/10 96/2/10
f 94/2/10 88/2/10 86/2/10
f 82/2/10 96/2/10 84/2/10
f 94/2/10 86/2/10 97/2/10
f 84/2/10 96/2/10 98/2/10
f 97/2/10 86/2/10 98/2/10
f 84/2/10 98/2/10 86/2/10
f 84/2/10 86/2/10 41/2/10
f 101/1/1 100/1/1 99/1/1
f 100/1/1 101/1/1 102/1/1
f 102/1/1 101/1/1 103/1/1
f 102/1/1 103/1/1 104/1/1
f 104/1/1 103/1/1 105/1/1
f 104/1/1 105/1/1 63/1/1
f 107/2/3 99/1/2 106/2/2
f 99/1/2 107/2/3 101/1/3
f 107/2/3 103/1/4 101/1/3
f 103/1/4 107/2/3 108/2/4
f 108/2/4 105/1/5 103/1/4
f 105/1/5 108/2/4 109/2/5
f 105/1/5 70/2/6 63/1/6
f 70/2/6 105/1/5 109/2/5
f 63/1/6 110/2/7 104/1/7
f 110/2/7 63/1/6 70/2/6
f 110/2/7 102/1/8 104/1/7
f 102/1/8 110/2/7 111/2/8
f 111/2/8 100/1/9 102/1/8
f 100/1/9 111/2/8 112/2/9
f 106/2/2 100/1/9 112/2/9
f 100/1/9 106/2/2 99/1/2
f 113/2/3 25/1/2 26/2/2
f 25/1/2 113/2/3 114/1/3
f 113/2/3 115/1/4 114/1/3
f 115/1/4 113/2/3 116/2/4
f 116/2/4 117/1/5 115/1/4
f 117/1/5 116/2/4 118/2/5
f 117/1/5 120/2/6 119/1/6
f 120/2/6 117/1/5 118/2/5
f 119/1/6 122/2/7 121/1/7
f 122/2/7 119/1/6 120/2/6
f 122/2/7 123/1/8 121/1/7
f 123/1/8 122/2/7 124/2/8
f 124/2/8 125/1/9 123/1/8
f 125/1/9 124/2/8 126/2/9
f 26/2/2 125/1/9 126/2/9
f 125/1/9 26/2/2 25/1/2
f 126/2/10 113/2/10 26/2/10
f 113/2/10 126/2/10 127/2/10
f 127/2/10 126/2/10 128/2/10
f 129/2/10 113/2/10 127/2/10
f 128/2/10 126/2/10 124/2/10
f 128/2/10 124/2/10 130/2/10
f 113/2/10 129/2/10 116/2/10
f 116/2/10 129/2/10 131/2/10
f 116/2/10 131/2/10 132/2/10
f 130/2/10 124/2/10 122/2/10
f 116/2/10 132/2/10 118/2/10
f 130/2/10 122/2/10 133/2/10
f 118/2/10 132/2/10 134/2/10
f 133/2/10 122/2/10 134/2/10
f 118/2/10 134/2/10 122/2/10
f 118/2/10 122/2/10 120/2/10
f 136/1/1 135/1/1 8/1/1
f 135/1/1 136/1/1 137/1/1
f 137/1/1 136/1/1 138/1/1
f 137/1/1 138/1/1 139/1/1
f 139/1/1 138/1/1 140/1/1
f 139/1/1 140/1/1 141/1/1
f 142/2/3 8/1/2 13/2/2
f 8/1/2 142/2/3 136/1/3
f 142/2/3 138/1/4 136/1/3
f 138/1/4 142/2/3 143/2/4
f 143/2/4 140/1/5 138/1/4
f 140/1/5 143/2/4 144/2/5
f 140/1/5 145/2/6 141/1/6
f 145/2/6 140/1/5 144/2/5
f 141/1/6 146/2/7 139/1/7
f 146/2/7 141/1/6 145/2/6
f 146/2/7 137/1/8 139/1/7
f 137/1/8 146/2/7 147/2/8
f 147/2/8 135/1/9 137/1/8
f 135/1/9 147/2/8 148/2/9
f 13/2/2 135/1/9 148/2/9
f 135/1/9 13/2/2 8/1/2
f 151/3/10 150/3/10 149/3/10
f 150/3/10 151/3/10 152/3/10
f 150/3/10 152/3/10 153/3/10
f 153/3/10 152/3/10 154/3/10
f 153/3/10 154/3/10 155/3/10
f 155/3/10 154/3/10 156/3/10
f 38/4/9 156/3/2 40/4/2
f 156/3/2 38/4/9 155/3/9
f 38/4/9 153/3/8 155/3/9
f 153/3/8 38/4/9 37/4/8
f 37/4/8 150/3/7 153/3/8
f 150/3/7 37/4/8 35/4/7
f 150/3/7 33/4/6 149/3/6
f 33/4/6 150/3/7 35/4/7
f 149/3/6 34/4/5 151/3/5
f 34/4/5 149/3/6 33/4/6
f 34/4/5 152/3/4 151/3/5
f 152/3/4 34/4/5 36/4/4
f 36/4/4 154/3/3 152/3/4
f 154/3/3 36/4/4 39/4/3
f 40/4/2 154/3/3 39/4/3
f 154/3/3 40/4/2 156/3/2
f 159/3/10 158/3/10 157/3/10
f 158/3/10 159/3/10 160/3/10
f 158/3/10 160/3/10 161/3/10
f 161/3/10 160/3/10 162/3/10
f 161/3/10 162/3/10 163/3/10
f 163/3/10 162/3/10 164/3/10
f 60/4/9 164/3/2 62/4/2
f 164/3/2 60/4/9 163/3/9
f 60/4/9 161/3/8 163/3/9
f 161/3/8 60/4/9 59/4/8
f 59/4/8 158/3/7 161/3/8
f 158/3/7 59/4/8 57/4/7
f 158/3/7 55/4/6 157/3/6
f 55/4/6 158/3/7 57/4/7
f 157/3/6 56/4/5 159/3/5
f 56/4/5 157/3/6 55/4/6
f 56/4/5 160/3/4 159/3/5
f 160/3/4 56/4/5 58/4/4
f 58/4/4 162/3/3 160/3/4
f 162/3/3 58/4/4 61/4/3
f 62/4/2 162/3/3 61/4/3
f 162/3/3 62/4/2 164/3/2
f 167/3/10 166/3/10 165/3/10
f 166/3/10 167/3/10 168/3/10
f 166/3/10 168/3/10 169/3/10
f 169/3/10 168/3/10 170/3/10
f 169/3/10 170/3/10 171/3/10
f 171/3/10 170/3/10 172/3/10
f 96/4/9 172/3/2 98/4/2
f 172/3/2 96/4/9 171/3/9
f 96/4/9 169/3/8 171/3/9
f 169/3/8 96/4/9 95/4/8
f 95/4/8 166/3/7 169/3/8
f 166/3/7 95/4/8 93/4/7
f 166/3/7 91/4/6 165/3/6
f 91/4/6 166/3/7 93/4/7
f 165/3/6 92/4/5 167/3/5
f 92/4/5 165/3/6 91/4/6
f 92/4/5 168/3/4 167/3/5
f 168/3/4 92/4/5 94/4/4
f 94/4/4 170/3/3 168/3/4
f 170/3/3 94/4/4 97/4/3
f 98/4/2 170/3/3 97/4/3
f 170/3/3 98/4/2 172/3/2
f 175/3/10 174/3/10 173/3/10
f 174/3/10 175/3/10 176/3/10
f 174/3/10 176/3/10 177/3/10
f 177/3/10 176/3/10 178/3/10
f 177/3/10 178/3/10 179/3/10
f 179/3/10 178/3/10 180/3/10
f 132/4/9 180/3/2 134/4/2
f 180/3/2 132/4/9 179/3/9
f 132/4/9 177/3/8 179/3/9
f 177/3/8 132/4/9 131/4/8
f 131/4/8 174/3/7 177/3/8
f 174/3/7 131/4/8 129/4/7
f 174/3/7 127/4/6 173/3/6
f 127/4/6 174/3/7 129/4/7
f 173/3/6 128/4/5 175/3/5
f 128/4/5 173/3/6 127/4/6
f 128/4/5 176/3/4 175/3/5
f 176/3/4 128/4/5 130/4/4
f 130/4/4 178/3/3 176/3/4
f 178/3/3 130/4/4 133/4/3
f 134/4/2 178/3/3 133/4/3
f 178/3/3 134/4/2 180/3/2
f 16/6/9 29/5/8 31/5/9
f 18/5/2 16/6/9 31/5/9
f 29/5/8 16/6/9 15/6/8
f 16/6/9 18/5/2 9/6/2
f 15/6/8 27/5/7 29/5/8
f 27/5/7 15/6/8 14/6/7
f 13/6/6 27/5/7 14/6/7
f 27/5/7 13/6/6 25/5/6
f 20/5/3 9/6/2 18/5/2
f 9/6/2 20/5/3 10/6/3
f 20/5/3 11/6/4 10/6/3
f 11/6/4 20/5/3 21/5/4
f 12/6/5 25/5/6 13/6/6
f 21/5/4 12/6/5 11/6/4
f 25/5/6 12/6/5 23/5/5
f 12/6/5 21/5/4 23/5/5
f 76/6/9 51/5/8 53/5/9
f 42/5/2 76/6/9 53/5/9
f 51/5/8 76/6/9 75/6/8
f 76/6/9 42/5/2 70/6/2
f 75/6/8 49/5/7 51/5/8
f 49/5/7 75/6/8 74/6/7
f 9/6/6 49/5/7 74/6/7
f 49/5/7 9/6/6 18/5/6
f 44/5/3 70/6/2 42/5/2
f 70/6/2 44/5/3 71/6/3
f 44/5/3 72/6/4 71/6/3
f 72/6/4 44/5/3 45/5/4
f 73/6/5 18/5/6 9/6/6
f 45/5/4 73/6/5 72/6/4
f 18/5/6 73/6/5 47/5/5
f 73/6/5 45/5/4 47/5/5
f 112/6/9 87/5/8 89/5/9
f 78/5/2 112/6/9 89/5/9
f 87/5/8 112/6/9 111/6/8
f 112/6/9 78/5/2 106/6/2
f 111/6/8 85/5/7 87/5/8
f 85/5/7 111/6/8 110/6/7
f 70/6/6 85/5/7 110/6/7
f 85/5/7 70/6/6 42/5/6
f 80/5/3 106/6/2 78/5/2
f 106/6/2 80/5/3 107/6/3
f 80/5/3 108/6/4 107/6/3
f 108/6/4 80/5/3 81/5/4
f 109/6/5 42/5/6 70/6/6
f 81/5/4 109/6/5 108/6/4
f 42/5/6 109/6/5 83/5/5
f 109/6/5 81/5/4 83/5/5
f 148/6/9 123/5/8 125/5/9
f 25/5/2 148/6/9 125/5/9
f 123/5/8 148/6/9 147/6/8
f 148/6/9 25/5/2 13/6/2
f 147/6/8 121/5/7 123/5/8
f 121/5/7 147/6/8 146/6/7
f 145/6/6 121/5/7 146/6/7
f 121/5/7 145/6/6 119/5/6
f 114/5/3 13/6/2 25/5/2
f 13/6/2 114/5/3 142/6/3
f 114/5/3 143/6/4 142/6/3
f 143/6/4 114/5/3 115/5/4
f 144/6/5 119/5/6 145/6/6
f 115/5/4 144/6/5 143/6/4
f 119/5/6 144/6/5 117/5/5
f 144/6/5 115/5/4 117/5/5

g barrels




usemtl colormap

f 3/1/1 2/1/1 1/1/1
f 2/1/1 3/1/1 4/1/1
f 4/1/1 3/1/1 5/1/1
f 4/1/1 5/1/1 6/1/1
f 6/1/1 5/1/1 7/1/1
f 6/1/1 7/1/1 8/1/1
f 10/2/3 1/1/2 9/2/2
f 1/1/2 10/2/3 3/1/3
f 10/2/3 5/1/4 3/1/3
f 5/1/4 10/2/3 11/2/4
f 11/2/4 7/1/5 5/1/4
f 7/1/5 11/2/4 12/2/5
f 7/1/5 13/2/6 8/1/6
f 13/2/6 7/1/5 12/2/5
f 8/1/6 14/2/7 6/1/7
f 14/2/7 8/1/6 13/2/6
f 14/2/7 4/1/8 6/1/7
f 4/1/8 14/2/7 15/2/8
f 15/2/8 2/1/9 4/1/8
f 2/1/9 15/2/8 16/2/9
f 9/2/2 2/1/9 16/2/9
f 2/1/9 9/2/2 1/1/2
f 19/2/3 18/1/2 17/2/2
f 18/1/2 19/2/3 20/1/3
f 19/2/3 21/1/4 20/1/3
f 21/1/4 19/2/3 22/2/4
f 22/2/4 23/1/5 21/1/4
f 23/1/5 22/2/4 24/2/5
f 23/1/5 26/2/6 25/1/6
f 26/2/6 23/1/5 24/2/5
f 25/1/6 28/2/7 27/1/7
f 28/2/7 25/1/6 26/2/6
f 28/2/7 29/1/8 27/1/7
f 29/1/8 28/2/7 30/2/8
f 30/2/8 31/1/9 29/1/8
f 31/1/9 30/2/8 32/2/9
f 17/2/2 31/1/9 32/2/9
f 31/1/9 17/2/2 18/1/2
f 32/2/10 19/2/10 17/2/10
f 19/2/10 32/2/10 33/2/10
f 33/2/10 32/2/10 34/2/10
f 35/2/10 19/2/10 33/2/10
f 34/2/10 32/2/10 30/2/10
f 34/2/10 30/2/10 36/2/10
f 19/2/10 35/2/10 22/2/10
f 22/2/10 35/2/10 37/2/10
f 22/2/10 37/2/10 38/2/10
f 36/2/10 30/2/10 28/2/10
f 22/2/10 38/2/10 24/2/10
f 36/2/10 28/2/10 39/2/10
f 24/2/10 38/2/10 40/2/10
f 39/2/10 28/2/10 40/2/10
f 24/2/10 40/2/10 28/2/10
f 24/2/10 28/2/10 26/2/10
f 43/2/3 42/1/2 41/2/2
f 42/1/2 43/2/3 44/1/3
f 43/2/3 45/1/4 44/1/3
f 45/1/4 43/2/3 46/2/4
f 46/2/4 47/1/5 45/1/4
f 47/1/5 46/2/4 48/2/5
f 47/1/5 17/2/6 18/1/6
f 17/2/6 47/1/5 48/2/5
f 18/1/6 50/2/7 49/1/7
f 50/2/7 18/1/6 17/2/6
f 50/2/7 51/1/8 49/1/7
f 51/1/8 50/2/7 52/2/8
f 52/2/8 53/1/9 51/1/8
f 53/1/9 52/2/8 54/2/9
f 41/2/2 53/1/9 54/2/9
f 53/1/9 41/2/2 42/1/2
f 54/2/10 43/2/10 41/2/10
f 43/2/10 54/2/10 55/2/10
f 55/2/10 54/2/10 56/2/10
f 57/2/10 43/2/10 55/2/10
f 56/2/10 54/2/10 52/2/10
f 56/2/10 52/2/10 58/2/10
f 43/2/10 57/2/10 46/2/10
f 46/2/10 57/2/10 59/2/10
f 46/2/10 59/2/10 60/2/10
f 58/2/10 52/2/10 50/2/10
f 46/2/10 60/2/10 48/2/10
f 58/2/10 50/2/10 61/2/10
f 48/2/10 60/2/10 62/2/10
f 61/2/10 50/2/10 62/2/10
f 48/2/10 62/2/10 50/2/10
f 48/2/10 50/2/10 17/2/10
f 65/1/1 64/1/1 63/1/1
f 64/1/1 65/1/1 66/1/1
f 66/1/1 65/1/1 67/1/1
f 66/1/1 67/1/1 68/1/1
f 68/1/1 67/1/1 69/1/1
f 68/1/1 69/1/1 1/1/1
f 71/2/3 63/1/2 70/2/2
f 63/1/2 71/2/3 65/1/3
f 71/2/3 67/1/4 65/1/3
f 67/1/4 71/2/3 72/2/4
f 72/2/4 69/1/5 67/1/4
f 69/1/5 72/2/4 73/2/5
f 69/1/5 9/2/6 1/1/6
f 9/2/6 69/1/5 73/2/5
f 1/1/6 74/2/7 68/1/7
f 74/2/7 1/1/6 9/2/6
f 74/2/7 66/1/8 68/1/7
f 66/1/8 74/2/7 75/2/8
f 75/2/8 64/1/9 66/1/8
f 64/1/9 75/2/8 76/2/9
f 70/2/2 64/1/9 76/2/9
f 64/1/9 70/2/2 63/1/2
f 79/2/3 78/1/2 77/2/2
f 78/1/2 79/2/3 80/1/3
f 79/2/3 81/1/4 80/1/3
f 81/1/4 79/2/3 82/2/4
f 82/2/4 83/1/5 81/1/4
f 83/1/5 82/2/4 84/2/5
f 83/1/5 41/2/6 42/1/6
f 41/2/6 83/1/5 84/2/5
f 42/1/6 86/2/7 85/1/7
f 86/2/7 42/1/6 41/2/6
f 86/2/7 87/1/8 85/1/7
f 87/1/8 86/2/7 88/2/8
f 88/2/8 89/1/9 87/1/8
f 89/1/9 88/2/8 90/2/9
f 77/2/2 89/1/9 90/2/9
f 89/1/9 77/2/2 78/1/2
f 90/2/10 79/2/10 77/2/10
f 79/2/10 90/2/10 91/2/10
f 91/2/10 90/2/10 92/2/10
f 93/2/10 79/2/10 91/2/10
f 92/2/10 90/2/10 88/2/10
f 92/2/10 88/2/10 94/2/10
f 79/2/10 93/2/10 82/2/10
f 82/2/10 93/2/10 95/2/10
f 82/2/10 95/2/10 96/2/10
f 94/2/10 88/2/10 86/2/10
f 82/2/10 96/2/10 84/2/10
f 94/2/10 86/2/10 97/2/10
f 84/2/10 96/2/10 98/2/10
f 97/2/10 86/2/10 98/2/10
f 84/2/10 98/2/10 86/2/10
f 84/2/10 86/2/10 41/2/10
f 101/1/1 100/1/1 99/1/1
f 100/1/1 101/1/1 102/1/1
f 102/1/1 101/1/1 103/1/1
f 102/1/1 103/1/1 104/1/1
f 104/1/1 103/1/1 105/1/1
f 104/1/1 105/1/1 63/1/1
f 107/2/3 99/1/2 106/2/2
f 99/1/2 107/2/3 101/1/3
f 107/2/3 103/1/4 101/1/3
f 103/1/4 107/2/3 108/2/4
f 108/2/4 105/1/5 103/1/4
f 105/1/5 108/2/4 109/2/5
f 105/1/5 70/2/6 63/1/6
f 70/2/6 105/1/5 109/2/5
f 63/1/6 110/2/7 104/1/7
f 110/2/7 63/1/6 70/2/6
f 110/2/7 102/1/8 104/1/7
f 102/1/8 110/2/7 111/2/8
f 111/2/8 100/1/9 102/1/8
f 100/1/9 111/2/8 112/2/9
f 106/2/2 100/1/9 112/2/9
f 100/1/9 106/2/2 99/1/2
f 113/2/3 25/1/2 26/2/2
f 25/1/2 113/2/3 114/1/3
f 113/2/3 115/1/4 114/1/3
f 115/1/4 113/2/3 116/2/4
f 116/2/4 117/1/5 115/1/4
f 117/1/5 116/2/4 118/2/5
f 117/1/5 120/2/6 119/1/6
f 120/2/6 117/1/5 118/2/5
f 119/1/6 122/2/7 121/1/7
f 122/2/7 119/1/6 120/2/6
f 122/2/7 123/1/8 121/1/7
f 123/1/8 122/2/7 124/2/8
f 124/2/8 125/1/9 123/1/8
f 125/1/9 124/2/8 126/2/9
f 26/2/2 125/1/9 126/2/9
f 125/1/9 26/2/2 25/1/2
f 126/2/10 113/2/10 26/2/10
f 113/2/10 126/2/10 127/2/10
f 127/2/10 126/2/10 128/2/10
f 129/2/10 113/2/10 127/2/10
f 128/2/10 126/2/10 124/2/10
f 128/2/10 124/2/10 130/2/10
f 113/2/10 129/2/10 116/2/10
f 116/2/10 129/2/10 131/2/10
f 116/2/10 131/2/10 132/2/10
f 130/2/10 124/2/10 122/2/10
f 116/2/10 132/2/10 118/2/10
f 130/2/10 122/2/10 133/2/10
f 118/2/10 132/2/10 134/2/10
f 133/2/10 122/2/10 134/2/10
f 118/2/10 134/2/10 122/2/10
f 118/2/10 122/2/10 120/2/10
f 136/1/1 135/1/1 8/1/1
f 135/1/1 136/1/1 137/1/1
f 137/1/1 136/1/1 138/1/1
f 137/1/1 138/1/1 139/1/1
f 139/1/1 138/1/1 140/1/1
f 139/1/1 140/1/1 141/1/1
f 142/2/3 8/1/2 13/2/2
f 8/1/2 142/2/3 136/1/3
f 142/2/3 138/1/4 136/1/3
f 138/1/4 142/2/3 143/2/4
f 143/2/4 140/1/5 138/1/4
f 140/1/5 143/2/4 144/2/5
f 140/1/5 145/2/6 141/1/6
f 145/2/6 140/1/5 144/2/5
f 141/1/6 146/2/7 139/1/7
f 146/2/7 141/1/6 145/2/6
f 146/2/7 137/1/8 139/1/7
f 137/1/8 146/2/7 147/2/8
f 147/2/8 135/1/9 137/1/8
f 135/1/9 147/2/8 148/2/9
f 13/2/2 135/1/9 148/2/9
f 135/1/9 13/2/2 8/1/2
f 151/3/10 150/3/10 149/3/10
f 150/3/10 151/3/10 152/3/10
f 150/3/10 152/3/10 153/3/10
f 153/3/10 152/3/10 154/3/10
f 153/3/10 154/3/10 155/3/10
f 155/3/10 154/3/10 156/3/10
f 38/4/9 156/3/2 40/4/2
f 156/3/2 38/4/9 155/3/9
f 38/4/9 153/3/8 155/3/9
f 153/3/8 38/4/9 37/4/8
f 37/4/8 150/3/7 153/3/8
f 150/3/7 37/4/8 35/4/7
f 150/3/7 33/4/6 149/3/6
f 33/4/6 150/3/7 35/4/7
f 149/3/6 34/4/5 151/3/5
f 34/4/5 149/3/6 33/4/6
f 34/4/5 152/3/4 151/3/5
f 152/3/4 34/4/5 36/4/4
f 36/4/4 154/3/3 152/3/4
f 154/3/3 36/4/4 39/4/3
f 40/4/2 154/3/3 39/4/3
f 154/3/3 40/4/2 156/3/2
f 159/3/10 158/3/10 157/3/10
f 158/3/10 159/3/10 160/3/10
f 158/3/10 160/3/10 161/3/10
f 161/3/10 160/3/10 162/3/10
f 161/3/10 162/3/10 163/3/10
f 163/3/10 162/3/10 164/3/10
f 60/4/9 164/3/2 62/4/2
f 164/3/2 60/4/9 163/3/9
f 60/4/9 161/3/8 163/3/9
f 161/3/8 60/4/9 59/4/8
f 59/4/8 158/3/7 161/3/8
f 158/3/7 59/4/8 57/4/7
f 158/3/7 55/4/6 157/3/6
f 55/4/6 158/3/7 57/4/7
f 157/3/6 56/4/5 159/3/5
f 56/4/5 157/3/6 55/4/6
f 56/4/5 160/3/4 159/3/5
f 160/3/4 56/4/5 58/4/4
f 58/4/4 162/3/3 160/3/4
f 162/3/3 58/4/4 61/4/3
f 62/4/2 162/3/3 61/4/3
f 162/3/3 62/4/2 164/3/2
f 167/3/10 166/3/10 165/3/10
f 166/3/10 167/3/10 168/3/10
f 166/3/10 168/3/10 169/3/10
f 169/3/10 168/3/10 170/3/10
f 169/3/10 170/3/10 171/3/10
f 171/3/10 170/3/10 172/3/10
f 96/4/9 172/3/2 98/4/2
f 172/3/2 96/4/9 171/3/9
f 96/4/9 169/3/8 171/3/9
f 169/3/8 96/4/9 95/4/8
f 95/4/8 166/3/7 169/3/8
f 166/3/7 95/4/8 93/4/7
f 166/3/7 91/4/6 165/3/6
f 91/4/6 166/3/7 93/4/7
f 165/3/6 92/4/5 167/3/5
f 92/4/5 165/3/6 91/4/6
f 92/4/5 168/3/4 167/3/5
f 168/3/4 92/4/5 94/4/4
f 94/4/4 170/3/3 168/3/4
f 170/3/3 94/4/4 97/4/3
f 98/4/2 170/3/3 97/4/3
f 170/3/3 98/4/2 172/3/2
f 175/3/10 174/3/10 173/3/10
f 174/3/10 175/3/10 176/3/10
f 174/3/10 176/3/10 177/3/10
f 177/3/10 176/3/10 178/3/10
f 177/3/10 178/3/10 179/3/10
f 179/3/10 178/3/10 180/3/10
f 132/4/9 180/3/2 134/4/2
f 180/3/2 132/4/9 179/3/9
f 132/4/9 177/3/8 179/3/9
f 177/3/8 132/4/9 131/4/8
f 131/4/8 174/3/7 177/3/8
f 174/3/7 131/4/8 129/4/7
f 174/3/7 127/4/6 173/3/6
f 127/4/6 174/3/7 129/4/7
f 173/3/6 128/4/5 175/3/5
f 128/4/5 173/3/6 127/4/6
f 128/4/5 176/3/4 175/3/5
f 176/3/4 128/4/5 130/4/4
f 130/4/4 178/3/3 176/3/4
f 178/3/3 130/4/4 133/4/3
f 134/4/2 178/3/3 133/4/3
f 178/3/3 134/4/2 180/3/2
f 16/6/9 29/5/8 31/5/9
f 18/5/2 16/6/9 31/5/9
f 29/5/8 16/6/9 15/6/8
f 16/6/9 18/5/2 9/6/2
f 15/6/8 27/5/7 29/5/8
f 27/5/7 15/6/8 14/6/7
f 13/6/6 27/5/7 14/6/7
f 27/5/7 13/6/6 25/5/6
f 20/5/3 9/6/2 18/5/2
f 9/6/2 20/5/3 10/6/3
f 20/5/3 11/6/4 10/6/3
f 11/6/4 20/5/3 21/5/4
f 12/6/5 25/5/6 13/6/6
f 21/5/4 12/6/5 11/6/4
f 25/5/6 12/6/5 23/5/5
f 12/6/5 21/5/4 23/5/5
f 76/6/9 51/5/8 53/5/9
f 42/5/2 76/6/9 53/5/9
f 51/5/8 76/6/9 75/6/8
f 76/6/9 42/5/2 70/6/2
f 75/6/8 49/5/7 51/5/8
f 49/5/7 75/6/8 74/6/7
f 9/6/6 49/5/7 74/6/7
f 49/5/7 9/6/6 18/5/6
f 44/5/3 70/6/2 42/5/2
f 70/6/2 44/5/3 71/6/3
f 44/5/3 72/6/4 71/6/3
f 72/6/4 44/5/3 45/5/4
f 73/6/5 18/5/6 9/6/6
f 45/5/4 73/6/5 72/6/4
f 18/5/6 73/6/5 47/5/5
f 73/6/5 45/5/4 47/5/5
f 112/6/9 87/5/8 89/5/9
f 78/5/2 112/6/9 89/5/9
f 87/5/8 112/6/9 111/6/8
f 112/6/9 78/5/2 106/6/2
f 111/6/8 85/5/7 87/5/8
f 85/5/7 111/6/8 110/6/7
f 70/6/6 85/5/7 110/6/7
f 85/5/7 70/6/6 42/5/6
f 80/5/3 106/6/2 78/5/2
f 106/6/2 80/5/3 107/6/3
f 80/5/3 108/6/4 107/6/3
f 108/6/4 80/5/3 81/5/4
f 109/6/5 42/5/6 70/6/6
f 81/5/4 109/6/5 108/6/4
f 42/5/6 109/6/5 83/5/5
f 109/6/5 81/5/4 83/5/5
f 148/6/9 123/5/8 125/5/9
f 25/5/2 148/6/9 125/5/9
f 123/5/8 148/6/9 147/6/8
f 148/6/9 25/5/2 13/6/2
f 147/6/8 121/5/7 123/5/8
f 121/5/7 147/6/8 146/6/7
f 145/6/6 121/5/7 146/6/7
f 121/5/7 145/6/6 119/5/6
f 114/5/3 13/6/2 25/5/2
f 13/6/2 114/5/3 142/6/3
f 114/5/3 143/6/4 142/6/3
f 143/6/4 114/5/3 115/5/4
f 144/6/5 119/5/6 145/6/6
f 115/5/4 144/6/5 143/6/4
f 119/5/6 144/6/5 117/5/5
f 144/6/5 115/5/4 117/5/5

