# Created by Kenney (www.kenney.nl)

mtllib barrier-segment-white.mtl

g barrier-segment-white

v -0.125 0.2624 0.06316049 1 1 1
v 0.125 0.2624 0.06316049 1 1 1
v -0.125 0.1476 0.07995 1 1 1
v 0.125 0.1476 0.07995 1 1 1
v -0.125 0.0742 0.123 1 1 1
v 0.125 0.0742 0.123 1 1 1
v -0.125 0 0.123 1 1 1
v 0.125 0 0.123 1 1 1
v 0.125 0.2624 -0.06316049 1 1 1
v -0.125 0.2624 -0.06316049 1 1 1
v 0.125 0.1476 -0.07995 1 1 1
v -0.125 0.1476 -0.07995 1 1 1
v 0.125 0.0742 -0.123 1 1 1
v -0.125 0.0742 -0.123 1 1 1
v 0.125 0 -0.123 1 1 1
v -0.125 0 -0.123 1 1 1

vn 0 0.1447106 0.9894741
vn 0 0.3314422 0.9434755
vn 0 0.262123 0.9650344
vn 0 0 1
vn 0 1 0
vn 0 0.1447106 -0.9894741
vn 0 0.3314422 -0.9434755
vn 0 0.262123 -0.9650344
vn 0 0 -1
vn 1 0 0
vn -1 0 0
vn 0 -1 0

vt 0.59375 0.225
vt 0.59375 0.1375
vt 0.59375 0.08155487
vt 0.59375 0.025

usemtl colormap

f 3/2/2 2/1/1 1/1/1
f 2/1/1 3/2/2 4/2/2
f 5/3/3 4/2/2 3/2/2
f 4/2/2 5/3/3 6/3/3
f 7/4/4 6/3/3 5/3/3
f 6/3/3 7/4/4 8/4/4
f 10/1/5 2/1/5 9/1/5
f 2/1/5 10/1/5 1/1/5
f 11/2/7 10/1/6 9/1/6
f 10/1/6 11/2/7 12/2/7
f 13/3/8 12/2/7 11/2/7
f 12/2/7 13/3/8 14/3/8
f 15/4/9 14/3/8 13/3/8
f 14/3/8 15/4/9 16/4/9
f 11/2/10 15/4/10 13/3/10
f 15/4/10 11/2/10 8/4/10
f 8/4/10 11/2/10 9/1/10
f 8/4/10 9/1/10 4/2/10
f 4/2/10 9/1/10 2/1/10
f 8/4/10 4/2/10 6/3/10
f 7/4/11 14/3/11 16/4/11
f 14/3/11 7/4/11 12/2/11
f 12/2/11 7/4/11 10/1/11
f 10/1/11 7/4/11 3/2/11
f 10/1/11 3/2/11 1/1/11
f 3/2/11 7/4/11 5/3/11
f 8/4/12 16/4/12 15/4/12
f 16/4/12 8/4/12 7/4/12

g barrier-segment-white




usemtl colormap

f 3/2/2 2/1/1 1/1/1
f 2/1/1 3/2/2 4/2/2
f 5/3/3 4/2/2 3/2/2
f 4/2/2 5/3/3 6/3/3
f 7/4/4 6/3/3 5/3/3
f 6/3/3 7/4/4 8/4/4
f 10/1/5 2/1/5 9/1/5
f 2/1/5 10/1/5 1/1/5
f 11/2/7 10/1/6 9/1/6
f 10/1/6 11/2/7 12/2/7
f 13/3/8 12/2/7 11/2/7
f 12/2/7 13/3/8 14/3/8
f 15/4/9 14/3/8 13/3/8
f 14/3/8 15/4/9 16/4/9
f 11/2/10 15/4/10 13/3/10
f 15/4/10 11/2/10 8/4/10
f 8/4/10 11/2/10 9/1/10
f 8/4/10 9/1/10 4/2/10
f 4/2/10 9/1/10 2/1/10
f 8/4/10 4/2/10 6/3/10
f 7/4/11 14/3/11 16/4/11
f 14/3/11 7/4/11 12/2/11
f 12/2/11 7/4/11 10/1/11
f 10/1/11 7/4/11 3/2/11
f 10/1/11 3/2/11 1/1/11
f 3/2/11 7/4/11 5/3/11
f 8/4/12 16/4/12 15/4/12
f 16/4/12 8/4/12 7/4/12

