# Created by Kenney (www.kenney.nl)

mtllib barrier.mtl

g barrier

v -0.375 0 0.123 1 1 1
v -0.5 0 0.123 1 1 1
v -0.375 0.0742 0.123 1 1 1
v -0.5 0.0742 0.123 1 1 1
v -0.375 0.1476 0.07995 1 1 1
v -0.5 0.1476 0.07995 1 1 1
v -0.5 0 -0.123 1 1 1
v -0.375 0 -0.123 1 1 1
v -0.5 0.0742 -0.123 1 1 1
v -0.375 0.0742 -0.123 1 1 1
v -0.375 0.2624 0.06316049 1 1 1
v -0.5 0.2624 0.06316049 1 1 1
v -0.5 0.1476 -0.07995 1 1 1
v -0.375 0.1476 -0.07995 1 1 1
v -0.5 0.2624 -0.06316049 1 1 1
v -0.375 0.2624 -0.06316049 1 1 1
v 0.5 0 0.123 1 1 1
v 0.375 0 0.123 1 1 1
v 0.5 0.0742 0.123 1 1 1
v 0.375 0.0742 0.123 1 1 1
v 0.5 0.1476 0.07995 1 1 1
v 0.375 0.1476 0.07995 1 1 1
v 0.5 0.0742 -0.123 1 1 1
v 0.5 0 -0.123 1 1 1
v 0.5 0.1476 -0.07995 1 1 1
v 0.5 0.2624 -0.06316049 1 1 1
v 0.5 0.2624 0.06316049 1 1 1
v 0.375 0 -0.123 1 1 1
v 0.375 0.0742 -0.123 1 1 1
v 0.375 0.2624 0.06316049 1 1 1
v 0.375 0.1476 -0.07995 1 1 1
v 0.375 0.2624 -0.06316049 1 1 1
v -0.125 0.0742 -0.123 1 1 1
v 0.125 0.0742 -0.123 1 1 1
v -0.125 0.1476 -0.07995 1 1 1
v 0.125 0.1476 -0.07995 1 1 1
v 0.125 0.0742 0.123 1 1 1
v -0.125 0.0742 0.123 1 1 1
v 0.125 0.1476 0.07995 1 1 1
v -0.125 0.1476 0.07995 1 1 1
v -0.125 0 -0.123 1 1 1
v 0.125 0 -0.123 1 1 1
v 0.125 0 0.123 1 1 1
v -0.125 0 0.123 1 1 1
v 0.125 0.2624 0.06316049 1 1 1
v -0.125 0.2624 0.06316049 1 1 1
v 0.125 0.2624 -0.06316049 1 1 1
v -0.125 0.2624 -0.06316049 1 1 1

vn 0 0 1
vn 0 0.262123 0.9650345
vn 0 0.3314422 0.9434755
vn 0 0 -1
vn 0 0.262123 -0.9650345
vn 0 -1 0
vn 0 0.1447106 0.989474
vn 0 0.3314422 -0.9434755
vn 0 0.1447106 -0.989474
vn -1 0 0
vn 0 1 0
vn 1 0 0
vn 0 0.262123 -0.9650344
vn 0 0.262123 0.9650344
vn 0 0.1447106 0.9894741
vn 0 0.1447106 -0.9894741

vt 0.59375 0.275
vt 0.59375 0.3315549
vt 0.59375 0.3875
vt 0.59375 0.475
vt 0.59375 0.025
vt 0.59375 0.08155487
vt 0.59375 0.1375
vt 0.59375 0.225

usemtl colormap

f 3/2/2 2/1/1 1/1/1
f 2/1/1 3/2/2 4/2/2
f 5/3/3 4/2/2 3/2/2
f 4/2/2 5/3/3 6/3/3
f 9/2/5 8/1/4 7/1/4
f 8/1/4 9/2/5 10/2/5
f 1/1/6 7/1/6 8/1/6
f 7/1/6 1/1/6 2/1/6
f 11/4/7 6/3/3 5/3/3
f 6/3/3 11/4/7 12/4/7
f 15/4/9 14/3/8 13/3/8
f 14/3/8 15/4/9 16/4/9
f 13/3/8 10/2/5 9/2/5
f 10/2/5 13/3/8 14/3/8
f 2/1/10 9/2/10 7/1/10
f 9/2/10 2/1/10 13/3/10
f 13/3/10 2/1/10 15/4/10
f 15/4/10 2/1/10 6/3/10
f 15/4/10 6/3/10 12/4/10
f 6/3/10 2/1/10 4/2/10
f 15/4/11 11/4/11 16/4/11
f 11/4/11 15/4/11 12/4/11
f 19/2/2 18/1/1 17/1/1
f 18/1/1 19/2/2 20/2/2
f 21/3/3 20/2/2 19/2/2
f 20/2/2 21/3/3 22/3/3
f 25/3/12 24/1/12 23/2/12
f 24/1/12 25/3/12 17/1/12
f 17/1/12 25/3/12 26/4/12
f 17/1/12 26/4/12 21/3/12
f 21/3/12 26/4/12 27/4/12
f 17/1/12 21/3/12 19/2/12
f 29/2/5 24/1/4 28/1/4
f 24/1/4 29/2/5 23/2/5
f 17/1/6 28/1/6 24/1/6
f 28/1/6 17/1/6 18/1/6
f 27/4/7 22/3/3 21/3/3
f 22/3/3 27/4/7 30/4/7
f 32/4/9 25/3/8 31/3/8
f 25/3/8 32/4/9 26/4/9
f 31/3/8 23/2/5 29/2/5
f 23/2/5 31/3/8 25/3/8
f 32/4/11 27/4/11 26/4/11
f 27/4/11 32/4/11 30/4/11
f 35/3/8 34/2/13 33/2/13
f 34/2/13 35/3/8 36/3/8
f 39/3/3 38/2/14 37/2/14
f 38/2/14 39/3/3 40/3/3
f 33/2/13 42/1/4 41/1/4
f 42/1/4 33/2/13 34/2/13
f 37/2/14 44/1/1 43/1/1
f 44/1/1 37/2/14 38/2/14
f 45/4/15 40/3/3 39/3/3
f 40/3/3 45/4/15 46/4/15
f 48/4/11 45/4/11 47/4/11
f 45/4/11 48/4/11 46/4/11
f 43/1/6 41/1/6 42/1/6
f 41/1/6 43/1/6 44/1/6
f 48/4/16 36/3/8 35/3/8
f 36/3/8 48/4/16 47/4/16
f 34/6/13 28/5/4 42/5/4
f 28/5/4 34/6/13 29/6/13
f 36/7/8 29/6/13 34/6/13
f 29/6/13 36/7/8 31/7/8
f 47/8/16 31/7/8 36/7/8
f 31/7/8 47/8/16 32/8/16
f 20/6/14 43/5/1 18/5/1
f 43/5/1 20/6/14 37/6/14
f 22/7/3 37/6/14 20/6/14
f 37/6/14 22/7/3 39/7/3
f 30/8/15 39/7/3 22/7/3
f 39/7/3 30/8/15 45/8/15
f 47/8/11 30/8/11 32/8/11
f 30/8/11 47/8/11 45/8/11
f 18/5/6 42/5/6 28/5/6
f 42/5/6 18/5/6 43/5/6
f 38/6/14 1/5/1 44/5/1
f 1/5/1 38/6/14 3/6/14
f 40/7/3 3/6/14 38/6/14
f 3/6/14 40/7/3 5/7/3
f 46/8/15 5/7/3 40/7/3
f 5/7/3 46/8/15 11/8/15
f 16/8/11 46/8/11 48/8/11
f 46/8/11 16/8/11 11/8/11
f 44/5/6 8/5/6 41/5/6
f 8/5/6 44/5/6 1/5/6
f 35/7/8 16/8/16 48/8/16
f 16/8/16 35/7/8 14/7/8
f 33/6/13 14/7/8 35/7/8
f 14/7/8 33/6/13 10/6/13
f 41/5/4 10/6/13 33/6/13
f 10/6/13 41/5/4 8/5/4

g barrier




usemtl colormap

f 3/2/2 2/1/1 1/1/1
f 2/1/1 3/2/2 4/2/2
f 5/3/3 4/2/2 3/2/2
f 4/2/2 5/3/3 6/3/3
f 9/2/5 8/1/4 7/1/4
f 8/1/4 9/2/5 10/2/5
f 1/1/6 7/1/6 8/1/6
f 7/1/6 1/1/6 2/1/6
f 11/4/7 6/3/3 5/3/3
f 6/3/3 11/4/7 12/4/7
f 15/4/9 14/3/8 13/3/8
f 14/3/8 15/4/9 16/4/9
f 13/3/8 10/2/5 9/2/5
f 10/2/5 13/3/8 14/3/8
f 2/1/10 9/2/10 7/1/10
f 9/2/10 2/1/10 13/3/10
f 13/3/10 2/1/10 15/4/10
f 15/4/10 2/1/10 6/3/10
f 15/4/10 6/3/10 12/4/10
f 6/3/10 2/1/10 4/2/10
f 15/4/11 11/4/11 16/4/11
f 11/4/11 15/4/11 12/4/11
f 19/2/2 18/1/1 17/1/1
f 18/1/1 19/2/2 20/2/2
f 21/3/3 20/2/2 19/2/2
f 20/2/2 21/3/3 22/3/3
f 25/3/12 24/1/12 23/2/12
f 24/1/12 25/3/12 17/1/12
f 17/1/12 25/3/12 26/4/12
f 17/1/12 26/4/12 21/3/12
f 21/3/12 26/4/12 27/4/12
f 17/1/12 21/3/12 19/2/12
f 29/2/5 24/1/4 28/1/4
f 24/1/4 29/2/5 23/2/5
f 17/1/6 28/1/6 24/1/6
f 28/1/6 17/1/6 18/1/6
f 27/4/7 22/3/3 21/3/3
f 22/3/3 27/4/7 30/4/7
f 32/4/9 25/3/8 31/3/8
f 25/3/8 32/4/9 26/4/9
f 31/3/8 23/2/5 29/2/5
f 23/2/5 31/3/8 25/3/8
f 32/4/11 27/4/11 26/4/11
f 27/4/11 32/4/11 30/4/11
f 35/3/8 34/2/13 33/2/13
f 34/2/13 35/3/8 36/3/8
f 39/3/3 38/2/14 37/2/14
f 38/2/14 39/3/3 40/3/3
f 33/2/13 42/1/4 41/1/4
f 42/1/4 33/2/13 34/2/13
f 37/2/14 44/1/1 43/1/1
f 44/1/1 37/2/14 38/2/14
f 45/4/15 40/3/3 39/3/3
f 40/3/3 45/4/15 46/4/15
f 48/4/11 45/4/11 47/4/11
f 45/4/11 48/4/11 46/4/11
f 43/1/6 41/1/6 42/1/6
f 41/1/6 43/1/6 44/1/6
f 48/4/16 36/3/8 35/3/8
f 36/3/8 48/4/16 47/4/16
f 34/6/13 28/5/4 42/5/4
f 28/5/4 34/6/13 29/6/13
f 36/7/8 29/6/13 34/6/13
f 29/6/13 36/7/8 31/7/8
f 47/8/16 31/7/8 36/7/8
f 31/7/8 47/8/16 32/8/16
f 20/6/14 43/5/1 18/5/1
f 43/5/1 20/6/14 37/6/14
f 22/7/3 37/6/14 20/6/14
f 37/6/14 22/7/3 39/7/3
f 30/8/15 39/7/3 22/7/3
f 39/7/3 30/8/15 45/8/15
f 47/8/11 30/8/11 32/8/11
f 30/8/11 47/8/11 45/8/11
f 18/5/6 42/5/6 28/5/6
f 42/5/6 18/5/6 43/5/6
f 38/6/14 1/5/1 44/5/1
f 1/5/1 38/6/14 3/6/14
f 40/7/3 3/6/14 38/6/14
f 3/6/14 40/7/3 5/7/3
f 46/8/15 5/7/3 40/7/3
f 5/7/3 46/8/15 11/8/15
f 16/8/11 46/8/11 48/8/11
f 46/8/11 16/8/11 11/8/11
f 44/5/6 8/5/6 41/5/6
f 8/5/6 44/5/6 1/5/6
f 35/7/8 16/8/16 48/8/16
f 16/8/16 35/7/8 14/7/8
f 33/6/13 14/7/8 35/7/8
f 14/7/8 33/6/13 10/6/13
f 41/5/4 10/6/13 33/6/13
f 10/6/13 41/5/4 8/5/4

