# Created by Kenney (www.kenney.nl)

mtllib barrel.mtl

g barrel

v 0.125 0 8.049312E-14 1 1 1
v 0.08838835 0 -0.08838835 1 1 1
v 0.08838835 0 0.08838835 1 1 1
v 8.02224E-14 0 -0.125 1 1 1
v -8.076384E-14 0 0.125 1 1 1
v -0.08838835 0 -0.08838835 1 1 1
v -0.08838835 0 0.08838835 1 1 1
v -0.125 0 -8.049312E-14 1 1 1
v 0.125 0.1 8.049312E-14 1 1 1
v 0.08838835 0.1 0.08838835 1 1 1
v -8.076384E-14 0.1 0.125 1 1 1
v -0.08838835 0.1 0.08838835 1 1 1
v -0.125 0.1 -8.049312E-14 1 1 1
v -0.08838835 0.1 -0.08838835 1 1 1
v 8.02224E-14 0.1 -0.125 1 1 1
v 0.08838835 0.1 -0.08838835 1 1 1
v 0.125 0.3 8.049312E-14 1 1 1
v 0.125 0.2 8.049312E-14 1 1 1
v 0.08838835 0.3 0.08838835 1 1 1
v 0.08838835 0.2 0.08838835 1 1 1
v -8.076384E-14 0.2 0.125 1 1 1
v -8.076384E-14 0.3 0.125 1 1 1
v -0.08838835 0.2 0.08838835 1 1 1
v -0.08838835 0.3 0.08838835 1 1 1
v -0.125 0.2 -8.049312E-14 1 1 1
v -0.125 0.3 -8.049312E-14 1 1 1
v -0.08838835 0.2 -0.08838835 1 1 1
v -0.08838835 0.3 -0.08838835 1 1 1
v 8.02224E-14 0.2 -0.125 1 1 1
v 8.02224E-14 0.3 -0.125 1 1 1
v 0.08838835 0.2 -0.08838835 1 1 1
v 0.08838835 0.3 -0.08838835 1 1 1
v 0.06906494 0.3 4.457803E-14 1 1 1
v 0.04883629 0.3 -0.04883629 1 1 1
v 0.04883629 0.3 0.04883629 1 1 1
v 4.412684E-14 0.3 -0.06906494 1 1 1
v -4.466827E-14 0.3 0.06906494 1 1 1
v -0.04883629 0.3 0.04883629 1 1 1
v -0.04883629 0.3 -0.04883629 1 1 1
v -0.06906494 0.3 -4.457803E-14 1 1 1
v 0.06906494 0.25 4.457803E-14 1 1 1
v 0.04883629 0.25 0.04883629 1 1 1
v 0.04883629 0.25 -0.04883629 1 1 1
v 4.412684E-14 0.25 -0.06906494 1 1 1
v -4.466827E-14 0.25 0.06906494 1 1 1
v -0.04883629 0.25 -0.04883629 1 1 1
v -0.04883629 0.25 0.04883629 1 1 1
v -0.06906494 0.25 -4.457803E-14 1 1 1

vn 0 -1 0
vn 1 0 0
vn 0.7071068 0 0.7071068
vn 0 0 1
vn -0.7071068 0 0.7071068
vn -1 0 0
vn -0.7071068 0 -0.7071068
vn 0 0 -1
vn 0.7071068 0 -0.7071068
vn 0 1 0

vt 0.59375 0.275
vt 0.59375 0.475
vt 0.34375 0.125
vt 0.34375 0.225
vt 0.59375 0.225
vt 0.59375 0.025

usemtl colormap

f 3/1/1 2/1/1 1/1/1
f 2/1/1 3/1/1 4/1/1
f 4/1/1 3/1/1 5/1/1
f 4/1/1 5/1/1 6/1/1
f 6/1/1 5/1/1 7/1/1
f 6/1/1 7/1/1 8/1/1
f 10/2/3 1/1/2 9/2/2
f 1/1/2 10/2/3 3/1/3
f 10/2/3 5/1/4 3/1/3
f 5/1/4 10/2/3 11/2/4
f 11/2/4 7/1/5 5/1/4
f 7/1/5 11/2/4 12/2/5
f 7/1/5 13/2/6 8/1/6
f 13/2/6 7/1/5 12/2/5
f 8/1/6 14/2/7 6/1/7
f 14/2/7 8/1/6 13/2/6
f 14/2/7 4/1/8 6/1/7
f 4/1/8 14/2/7 15/2/8
f 15/2/8 2/1/9 4/1/8
f 2/1/9 15/2/8 16/2/9
f 9/2/2 2/1/9 16/2/9
f 2/1/9 9/2/2 1/1/2
f 19/2/3 18/1/2 17/2/2
f 18/1/2 19/2/3 20/1/3
f 19/2/3 21/1/4 20/1/3
f 21/1/4 19/2/3 22/2/4
f 22/2/4 23/1/5 21/1/4
f 23/1/5 22/2/4 24/2/5
f 23/1/5 26/2/6 25/1/6
f 26/2/6 23/1/5 24/2/5
f 25/1/6 28/2/7 27/1/7
f 28/2/7 25/1/6 26/2/6
f 28/2/7 29/1/8 27/1/7
f 29/1/8 28/2/7 30/2/8
f 30/2/8 31/1/9 29/1/8
f 31/1/9 30/2/8 32/2/9
f 17/2/2 31/1/9 32/2/9
f 31/1/9 17/2/2 18/1/2
f 32/2/10 19/2/10 17/2/10
f 19/2/10 32/2/10 33/2/10
f 33/2/10 32/2/10 34/2/10
f 35/2/10 19/2/10 33/2/10
f 34/2/10 32/2/10 30/2/10
f 34/2/10 30/2/10 36/2/10
f 19/2/10 35/2/10 22/2/10
f 22/2/10 35/2/10 37/2/10
f 22/2/10 37/2/10 38/2/10
f 36/2/10 30/2/10 28/2/10
f 22/2/10 38/2/10 24/2/10
f 36/2/10 28/2/10 39/2/10
f 24/2/10 38/2/10 40/2/10
f 39/2/10 28/2/10 40/2/10
f 24/2/10 40/2/10 28/2/10
f 24/2/10 28/2/10 26/2/10
f 43/3/10 42/3/10 41/3/10
f 42/3/10 43/3/10 44/3/10
f 42/3/10 44/3/10 45/3/10
f 45/3/10 44/3/10 46/3/10
f 45/3/10 46/3/10 47/3/10
f 47/3/10 46/3/10 48/3/10
f 38/4/9 48/3/2 40/4/2
f 48/3/2 38/4/9 47/3/9
f 38/4/9 45/3/8 47/3/9
f 45/3/8 38/4/9 37/4/8
f 37/4/8 42/3/7 45/3/8
f 42/3/7 37/4/8 35/4/7
f 42/3/7 33/4/6 41/3/6
f 33/4/6 42/3/7 35/4/7
f 41/3/6 34/4/5 43/3/5
f 34/4/5 41/3/6 33/4/6
f 34/4/5 44/3/4 43/3/5
f 44/3/4 34/4/5 36/4/4
f 36/4/4 46/3/3 44/3/4
f 46/3/3 36/4/4 39/4/3
f 40/4/2 46/3/3 39/4/3
f 46/3/3 40/4/2 48/3/2
f 16/6/9 29/5/8 31/5/9
f 18/5/2 16/6/9 31/5/9
f 29/5/8 16/6/9 15/6/8
f 16/6/9 18/5/2 9/6/2
f 15/6/8 27/5/7 29/5/8
f 27/5/7 15/6/8 14/6/7
f 13/6/6 27/5/7 14/6/7
f 27/5/7 13/6/6 25/5/6
f 20/5/3 9/6/2 18/5/2
f 9/6/2 20/5/3 10/6/3
f 20/5/3 11/6/4 10/6/3
f 11/6/4 20/5/3 21/5/4
f 12/6/5 25/5/6 13/6/6
f 21/5/4 12/6/5 11/6/4
f 25/5/6 12/6/5 23/5/5
f 12/6/5 21/5/4 23/5/5

g barrel




usemtl colormap

f 3/1/1 2/1/1 1/1/1
f 2/1/1 3/1/1 4/1/1
f 4/1/1 3/1/1 5/1/1
f 4/1/1 5/1/1 6/1/1
f 6/1/1 5/1/1 7/1/1
f 6/1/1 7/1/1 8/1/1
f 10/2/3 1/1/2 9/2/2
f 1/1/2 10/2/3 3/1/3
f 10/2/3 5/1/4 3/1/3
f 5/1/4 10/2/3 11/2/4
f 11/2/4 7/1/5 5/1/4
f 7/1/5 11/2/4 12/2/5
f 7/1/5 13/2/6 8/1/6
f 13/2/6 7/1/5 12/2/5
f 8/1/6 14/2/7 6/1/7
f 14/2/7 8/1/6 13/2/6
f 14/2/7 4/1/8 6/1/7
f 4/1/8 14/2/7 15/2/8
f 15/2/8 2/1/9 4/1/8
f 2/1/9 15/2/8 16/2/9
f 9/2/2 2/1/9 16/2/9
f 2/1/9 9/2/2 1/1/2
f 19/2/3 18/1/2 17/2/2
f 18/1/2 19/2/3 20/1/3
f 19/2/3 21/1/4 20/1/3
f 21/1/4 19/2/3 22/2/4
f 22/2/4 23/1/5 21/1/4
f 23/1/5 22/2/4 24/2/5
f 23/1/5 26/2/6 25/1/6
f 26/2/6 23/1/5 24/2/5
f 25/1/6 28/2/7 27/1/7
f 28/2/7 25/1/6 26/2/6
f 28/2/7 29/1/8 27/1/7
f 29/1/8 28/2/7 30/2/8
f 30/2/8 31/1/9 29/1/8
f 31/1/9 30/2/8 32/2/9
f 17/2/2 31/1/9 32/2/9
f 31/1/9 17/2/2 18/1/2
f 32/2/10 19/2/10 17/2/10
f 19/2/10 32/2/10 33/2/10
f 33/2/10 32/2/10 34/2/10
f 35/2/10 19/2/10 33/2/10
f 34/2/10 32/2/10 30/2/10
f 34/2/10 30/2/10 36/2/10
f 19/2/10 35/2/10 22/2/10
f 22/2/10 35/2/10 37/2/10
f 22/2/10 37/2/10 38/2/10
f 36/2/10 30/2/10 28/2/10
f 22/2/10 38/2/10 24/2/10
f 36/2/10 28/2/10 39/2/10
f 24/2/10 38/2/10 40/2/10
f 39/2/10 28/2/10 40/2/10
f 24/2/10 40/2/10 28/2/10
f 24/2/10 28/2/10 26/2/10
f 43/3/10 42/3/10 41/3/10
f 42/3/10 43/3/10 44/3/10
f 42/3/10 44/3/10 45/3/10
f 45/3/10 44/3/10 46/3/10
f 45/3/10 46/3/10 47/3/10
f 47/3/10 46/3/10 48/3/10
f 38/4/9 48/3/2 40/4/2
f 48/3/2 38/4/9 47/3/9
f 38/4/9 45/3/8 47/3/9
f 45/3/8 38/4/9 37/4/8
f 37/4/8 42/3/7 45/3/8
f 42/3/7 37/4/8 35/4/7
f 42/3/7 33/4/6 41/3/6
f 33/4/6 42/3/7 35/4/7
f 41/3/6 34/4/5 43/3/5
f 34/4/5 41/3/6 33/4/6
f 34/4/5 44/3/4 43/3/5
f 44/3/4 34/4/5 36/4/4
f 36/4/4 46/3/3 44/3/4
f 46/3/3 36/4/4 39/4/3
f 40/4/2 46/3/3 39/4/3
f 46/3/3 40/4/2 48/3/2
f 16/6/9 29/5/8 31/5/9
f 18/5/2 16/6/9 31/5/9
f 29/5/8 16/6/9 15/6/8
f 16/6/9 18/5/2 9/6/2
f 15/6/8 27/5/7 29/5/8
f 27/5/7 15/6/8 14/6/7
f 13/6/6 27/5/7 14/6/7
f 27/5/7 13/6/6 25/5/6
f 20/5/3 9/6/2 18/5/2
f 9/6/2 20/5/3 10/6/3
f 20/5/3 11/6/4 10/6/3
f 11/6/4 20/5/3 21/5/4
f 12/6/5 25/5/6 13/6/6
f 21/5/4 12/6/5 11/6/4
f 25/5/6 12/6/5 23/5/5
f 12/6/5 21/5/4 23/5/5

