# Created by Kenney (www.kenney.nl)

mtllib barrier-segment-red.mtl

g barrier-segment-red

v 0.125 0 0.123 1 1 1
v -0.125 0 0.123 1 1 1
v 0.125 0.0742 0.123 1 1 1
v -0.125 0.0742 0.123 1 1 1
v -0.125 0.0742 -0.123 1 1 1
v 0.125 0.0742 -0.123 1 1 1
v -0.125 0.1476 -0.07995 1 1 1
v 0.125 0.1476 -0.07995 1 1 1
v 0.125 0.1476 0.07995 1 1 1
v -0.125 0.1476 0.07995 1 1 1
v -0.125 0 -0.123 1 1 1
v -0.125 0.2624 -0.06316049 1 1 1
v -0.125 0.2624 0.06316049 1 1 1
v 0.125 0 -0.123 1 1 1
v 0.125 0.2624 -0.06316049 1 1 1
v 0.125 0.2624 0.06316049 1 1 1

vn 0 0 1
vn 0 0.262123 0.9650344
vn 0 0.262123 -0.9650344
vn 0 0.3314422 -0.9434755
vn 0 0.3314422 0.9434755
vn -1 0 0
vn 0 0 -1
vn 1 0 0
vn 0 1 0
vn 0 0.1447106 0.9894741
vn 0 -1 0
vn 0 0.1447106 -0.9894741

vt 0.59375 0.275
vt 0.59375 0.3315549
vt 0.59375 0.3875
vt 0.59375 0.475

usemtl colormap

f 3/2/2 2/1/1 1/1/1
f 2/1/1 3/2/2 4/2/2
f 7/3/4 6/2/3 5/2/3
f 6/2/3 7/3/4 8/3/4
f 9/3/5 4/2/2 3/2/2
f 4/2/2 9/3/5 10/3/5
f 2/1/6 5/2/6 11/1/6
f 5/2/6 2/1/6 7/3/6
f 7/3/6 2/1/6 12/4/6
f 12/4/6 2/1/6 10/3/6
f 12/4/6 10/3/6 13/4/6
f 10/3/6 2/1/6 4/2/6
f 5/2/3 14/1/7 11/1/7
f 14/1/7 5/2/3 6/2/3
f 8/3/8 14/1/8 6/2/8
f 14/1/8 8/3/8 1/1/8
f 1/1/8 8/3/8 15/4/8
f 1/1/8 15/4/8 9/3/8
f 9/3/8 15/4/8 16/4/8
f 1/1/8 9/3/8 3/2/8
f 12/4/9 16/4/9 15/4/9
f 16/4/9 12/4/9 13/4/9
f 16/4/10 10/3/5 9/3/5
f 10/3/5 16/4/10 13/4/10
f 1/1/11 11/1/11 14/1/11
f 11/1/11 1/1/11 2/1/11
f 12/4/12 8/3/4 7/3/4
f 8/3/4 12/4/12 15/4/12

g barrier-segment-red




usemtl colormap

f 3/2/2 2/1/1 1/1/1
f 2/1/1 3/2/2 4/2/2
f 7/3/4 6/2/3 5/2/3
f 6/2/3 7/3/4 8/3/4
f 9/3/5 4/2/2 3/2/2
f 4/2/2 9/3/5 10/3/5
f 2/1/6 5/2/6 11/1/6
f 5/2/6 2/1/6 7/3/6
f 7/3/6 2/1/6 12/4/6
f 12/4/6 2/1/6 10/3/6
f 12/4/6 10/3/6 13/4/6
f 10/3/6 2/1/6 4/2/6
f 5/2/3 14/1/7 11/1/7
f 14/1/7 5/2/3 6/2/3
f 8/3/8 14/1/8 6/2/8
f 14/1/8 8/3/8 1/1/8
f 1/1/8 8/3/8 15/4/8
f 1/1/8 15/4/8 9/3/8
f 9/3/8 15/4/8 16/4/8
f 1/1/8 9/3/8 3/2/8
f 12/4/9 16/4/9 15/4/9
f 16/4/9 12/4/9 13/4/9
f 16/4/10 10/3/5 9/3/5
f 10/3/5 16/4/10 13/4/10
f 1/1/11 11/1/11 14/1/11
f 11/1/11 1/1/11 2/1/11
f 12/4/12 8/3/4 7/3/4
f 8/3/4 12/4/12 15/4/12

