# Created by Kenney (www.kenney.nl)

mtllib camera.mtl

g camera

v -0.0375 0.3875 -0.075 1 1 1
v 0.0375 0.3875 -0.075 1 1 1
v -0.0375 0.425 -0.075 1 1 1
v 0.0375 0.425 -0.075 1 1 1
v 0.075 0.425 0.0375 1 1 1
v 0.075 0.3875 0.0375 1 1 1
v 0.0375 0.425 0.075 1 1 1
v 0.0375 0.3875 0.075 1 1 1
v 0.075 0.425 -0.0375 1 1 1
v 0.075 0.3875 -0.0375 1 1 1
v -0.0375 0.425 0.075 1 1 1
v -0.075 0.425 -0.0375 1 1 1
v -0.075 0.425 0.0375 1 1 1
v -0.075 0.3875 0.0375 1 1 1
v -0.0375 0.3875 0.075 1 1 1
v -0.075 0.3875 -0.0375 1 1 1
v 0.0375 0.425 0.1125 1 1 1
v 0.0375 0.425 -0.125 1 1 1
v -0.0375 0.425 0.1125 1 1 1
v -0.0375 0.425 -0.125 1 1 1
v -0.075 0.4625 0.15 1 1 1
v -0.075 0.4625 -0.125 1 1 1
v 0.075 0.4625 -0.125 1 1 1
v -0.075 0.575 -0.125 1 1 1
v 0.075 0.575 -0.125 1 1 1
v 0.075 0.5375 0.225 1 1 1
v -0.075 0.5375 0.225 1 1 1
v 0.075 0.575 0.225 1 1 1
v -0.075 0.575 0.225 1 1 1
v 0.075 0.4625 0.15 1 1 1
v 0.06875 0.4625 -0.25 1 1 1
v 0.04923059 0.4625 -0.275 1 1 1
v 0.0375 0.4625 -0.125 1 1 1
v -0.04923059 0.4625 -0.275 1 1 1
v -0.0375 0.4625 -0.125 1 1 1
v -0.06875 0.4625 -0.25 1 1 1
v 0.06875 0.5375 -0.25 1 1 1
v 0.0375 0.5375 -0.125 1 1 1
v 0.04923059 0.5375 -0.275 1 1 1
v -0.04923059 0.5375 -0.275 1 1 1
v -0.0375 0.5375 -0.125 1 1 1
v -0.06875 0.5375 -0.25 1 1 1
v 0.1125 0.5625 0.025 1 1 1
v 0.1125 0.5625 -0.1482898 1 1 1
v 0.0875 0.5625 0.025 1 1 1
v 0.0875 0.5625 -0.1482898 1 1 1
v 0.0625 0.5875 -0.1482898 1 1 1
v 0.0625 0.6125 -0.1482898 1 1 1
v 0.0625 0.5875 0.025 1 1 1
v 0.0625 0.6125 0.025 1 1 1
v 0.1375 0.6125 -0.1482898 1 1 1
v 0.1375 0.5875 -0.1482898 1 1 1
v 0.1375 0.6125 0.025 1 1 1
v 0.1375 0.5875 0.025 1 1 1
v 0.1125 0.6375 -0.1482898 1 1 1
v 0.1125 0.6375 0.025 1 1 1
v 0.0875 0.6375 -0.1482898 1 1 1
v 0.0875 0.6375 0.025 1 1 1
v 0.04999999 0 0.1 1 1 1
v 0.05 0 0.05 1 1 1
v -7.450581E-09 0.3375 0.03749999 1 1 1
v 0 0.3375 -1.490116E-08 1 1 1
v 0.07457495 6.76792E-17 0.1 1 1 1
v 0.01207494 0.3375 0.03749999 1 1 1
v 0.1 -2.255973E-17 0.07457495 1 1 1
v 0.03750001 0.3375 0.01207494 1 1 1
v 0.1 0 0.05000001 1 1 1
v 0.03750001 0.3375 -7.450581E-09 1 1 1
v 0.1 -2.255973E-17 -0.05 1 1 1
v 0.05 -2.255973E-17 -0.05 1 1 1
v 0.0375 0.3375 0 1 1 1
v 0 0.3375 0 1 1 1
v 0.05 -2.255973E-17 -0.1 1 1 1
v 0 0.3375 -0.0375 1 1 1
v 0.1 4.511947E-17 -0.07457495 1 1 1
v 0.0375 0.3375 -0.01207494 1 1 1
v 0.07457495 -4.511946E-17 -0.1 1 1 1
v 0.01207494 0.3375 -0.0375 1 1 1
v -0.1 -6.76792E-17 0.05 1 1 1
v -0.05 -6.76792E-17 0.05 1 1 1
v -0.0375 0.3375 0 1 1 1
v -0.05 -6.76792E-17 0.1 1 1 1
v 0 0.3375 0.0375 1 1 1
v -0.1 0 0.07457495 1 1 1
v -0.0375 0.3375 0.01207494 1 1 1
v -0.07457495 -9.023893E-17 0.1 1 1 1
v -0.01207494 0.3375 0.0375 1 1 1
v -0.05000001 -4.511946E-17 -0.1 1 1 1
v -0.05 -4.511946E-17 -0.05 1 1 1
v 7.450581E-09 0.3375 -0.03750001 1 1 1
v 1.490116E-08 0.3375 0 1 1 1
v -0.1 -4.511946E-17 -0.04999999 1 1 1
v -0.03749999 0.3375 7.450581E-09 1 1 1
v -0.07457495 2.255973E-17 -0.1 1 1 1
v -0.01207494 0.3375 -0.03750001 1 1 1
v -0.1 -6.76792E-17 -0.07457495 1 1 1
v -0.03749999 0.3375 -0.01207494 1 1 1
v 0.0375 0.3375 0.0375 1 1 1
v 0.0375 0.3375 -0.0375 1 1 1
v -0.0375 0.3375 0.0375 1 1 1
v -0.0375 0.3375 -0.0375 1 1 1
v -0.0375 0.3875 -0.0375 1 1 1
v -0.0375 0.3875 0.0375 1 1 1
v 0.0375 0.3875 0.0375 1 1 1
v 0.0375 0.3875 -0.0375 1 1 1
v 3.725339E-10 0.4375 0.225 1 1 1
v -0.03535534 0.4521447 0.225 1 1 1
v 0.03535534 0.4521447 0.225 1 1 1
v 0.05 0.4875 0.225 1 1 1
v -0.05 0.4875 0.225 1 1 1
v 0.03535534 0.5228553 0.225 1 1 1
v -0.03535534 0.5228553 0.225 1 1 1
v 3.725339E-10 0.5375 0.225 1 1 1
v -0.03535534 0.4521447 0.1125 1 1 1
v -0.05 0.4875 0.1125 1 1 1
v -0.03535534 0.5228553 0.1125 1 1 1
v 3.725339E-10 0.5375 0.1125 1 1 1
v 0.03535534 0.5228553 0.1125 1 1 1
v 0.05 0.4875 0.1125 1 1 1
v 0.03535534 0.4521447 0.1125 1 1 1
v 3.725339E-10 0.4375 0.1125 1 1 1

vn -0.3826834 0 -0.9238795
vn 0.3826834 0 -0.9238795
vn 0.9238795 0 0.3826834
vn 0.3826834 0 0.9238795
vn 0.9238795 0 -0.3826834
vn 0 1 0
vn -0.9238795 0 0.3826834
vn -0.3826834 0 0.9238795
vn 0 -1 0
vn -0.9238795 0 -0.3826834
vn 0.4443524 -0.895852 0
vn 0.3826834 -0.9238795 0
vn -0.4443524 -0.895852 0
vn -0.3826834 -0.9238795 0
vn -0.9760643 -0.2174822 0
vn -0.9238795 -0.3826834 0
vn 0 0 -1
vn 0 0 1
vn 1 0 0
vn 0.9238795 -0.3826834 0
vn 0.9760643 -0.2174822 0
vn -1 0 0
vn 0 -0.7071068 0.7071068
vn -0.9782461 0 -0.2074476
vn -0.9701425 0 0.2425356
vn 0.9782461 0 -0.2074476
vn 0.9701425 0 0.2425356
vn -0.4385133 0 -0.8987248
vn 0.4385133 0 -0.8987248
vn -0.9238795 0.3826834 0
vn 0.9238795 0.3826834 0
vn 0.3826834 0.9238795 0
vn -0.3826834 0.9238795 0
vn -0.9892036 -0.1465487 -1.179222E-07
vn 0.3912648 0.2371239 0.8892043
vn -1.172164E-07 0.1820893 0.9832821
vn 0.3488547 0.2327181 0.9078232
vn 0.8892042 0.2371239 0.3912651
vn 0.9078231 0.2327181 0.3488549
vn 1.179222E-07 -0.1465487 -0.9892036
vn 0.9832821 0.1820893 1.172164E-07
vn 0 -0.1465487 0.9892035
vn -0.9892035 -0.1465487 0
vn 0.8892041 0.2371239 -0.3912649
vn 0.983282 0.1820893 0
vn 0.907823 0.2327181 -0.3488548
vn 0.3912649 0.2371239 -0.8892041
vn 0.3488548 0.2327181 -0.907823
vn 0 0.1820893 -0.983282
vn 8.73098E-15 -0.1465487 -0.9892035
vn 0.9892035 -0.1465487 8.73098E-15
vn -0.8892041 0.2371239 0.3912649
vn -0.983282 0.1820893 -8.678716E-15
vn -0.907823 0.2327181 0.3488548
vn -0.3912649 0.2371239 0.8892041
vn -0.3488548 0.2327181 0.907823
vn -8.678716E-15 0.1820893 0.983282
vn 0.9892036 -0.1465487 -1.179222E-07
vn 1.179222E-07 -0.1465487 0.9892036
vn -0.3912651 0.2371239 -0.8892042
vn -1.172164E-07 0.1820893 -0.9832821
vn -0.3488549 0.2327181 -0.9078231
vn -0.8892043 0.2371239 -0.3912648
vn -0.9078232 0.2327181 -0.3488547
vn -0.9832821 0.1820893 1.172164E-07
vn -0.7071068 0 -0.7071068
vn -0.7071068 0 0.7071068
vn 0.7071068 0 0.7071068
vn 0.7071068 0 -0.7071068
vn -0.7071068 -0.7071068 0
vn -0.7071068 0.7071068 0
vn 0.7071068 0.7071068 0
vn 0.7071068 -0.7071068 0

vt 0.46875 0.025
vt 0.46875 0.225
vt 0.46875 0.075
vt 0.46875 0.175
vt 0.21875 0.025
vt 0.21875 0.225
vt 0.21875 0.09166666
vt 0.21875 0.1583333
vt 0.21875 0.075
vt 0.21875 0.175
vt 0.34375 0.025
vt 0.34375 0.225
vt 0.34375 0.09166666
vt 0.34375 0.1583333
vt 0.34375 0.05428932
vt 0.34375 0.125
vt 0.34375 0.1957107

usemtl colormap

f 3/2/1 2/1/2 1/1/1
f 2/1/2 3/2/1 4/2/2
f 7/2/4 6/1/3 5/2/3
f 6/1/3 7/2/4 8/1/4
f 5/2/3 10/1/5 9/2/5
f 10/1/5 5/2/3 6/1/3
f 4/2/6 5/2/6 9/2/6
f 5/2/6 4/2/6 7/2/6
f 7/2/6 4/2/6 3/2/6
f 7/2/6 3/2/6 11/2/6
f 11/2/6 3/2/6 12/2/6
f 11/2/6 12/2/6 13/2/6
f 15/1/8 13/2/7 14/1/7
f 13/2/7 15/1/8 11/2/8
f 7/2/4 15/1/8 8/1/4
f 15/1/8 7/2/4 11/2/8
f 9/2/5 2/1/2 4/2/2
f 2/1/2 9/2/5 10/1/5
f 8/1/9 10/1/9 6/1/9
f 10/1/9 8/1/9 2/1/9
f 2/1/9 8/1/9 15/1/9
f 2/1/9 15/1/9 1/1/9
f 1/1/9 15/1/9 14/1/9
f 1/1/9 14/1/9 16/1/9
f 14/1/7 12/2/10 16/1/10
f 12/2/10 14/1/7 13/2/7
f 16/1/10 3/2/1 1/1/1
f 3/2/1 16/1/10 12/2/10
f 19/1/13 18/1/12 17/1/11
f 18/1/12 19/1/13 20/1/14
f 21/3/15 20/1/14 19/1/13
f 20/1/14 21/3/15 22/3/16
f 22/3/17 18/1/17 20/1/17
f 18/1/17 22/3/17 23/3/17
f 23/3/17 22/3/17 24/2/17
f 23/3/17 24/2/17 25/2/17
f 28/2/18 27/4/18 26/4/18
f 27/4/18 28/2/18 29/2/18
f 28/2/19 23/3/20 25/2/19
f 23/3/20 28/2/19 30/3/21
f 30/3/21 28/2/19 26/4/19
f 24/2/6 28/2/6 25/2/6
f 28/2/6 24/2/6 29/2/6
f 17/1/11 23/3/20 30/3/21
f 23/3/20 17/1/11 18/1/12
f 21/3/15 24/2/22 22/3/16
f 24/2/22 21/3/15 29/2/22
f 29/2/22 21/3/15 27/4/22
f 27/4/23 30/3/23 26/4/23
f 30/3/23 27/4/23 17/1/23
f 17/1/23 27/4/23 19/1/23
f 19/1/23 27/4/23 21/3/23
f 33/5/9 32/5/9 31/5/9
f 32/5/9 33/5/9 34/5/9
f 34/5/9 33/5/9 35/5/9
f 34/5/9 35/5/9 36/5/9
f 39/6/6 38/6/6 37/6/6
f 38/6/6 39/6/6 40/6/6
f 38/6/6 40/6/6 41/6/6
f 41/6/6 40/6/6 42/6/6
f 38/6/18 35/5/18 33/5/18
f 35/5/18 38/6/18 41/6/18
f 35/5/25 42/6/24 36/5/24
f 42/6/24 35/5/25 41/6/25
f 38/6/27 31/5/26 37/6/26
f 31/5/26 38/6/27 33/5/27
f 36/5/24 40/6/28 34/5/28
f 40/6/28 36/5/24 42/6/24
f 37/6/26 32/5/29 39/6/29
f 32/5/29 37/6/26 31/5/26
f 45/5/14 44/5/12 43/5/12
f 44/5/12 45/5/14 46/5/14
f 49/7/16 48/8/30 47/7/16
f 48/8/30 49/7/16 50/8/30
f 53/8/31 52/7/20 51/8/31
f 52/7/20 53/8/31 54/7/20
f 57/6/33 56/6/32 55/6/32
f 56/6/32 57/6/33 58/6/33
f 48/8/30 58/6/33 57/6/33
f 58/6/33 48/8/30 50/8/30
f 49/7/16 46/5/14 45/5/14
f 46/5/14 49/7/16 47/7/16
f 55/6/32 53/8/31 51/8/31
f 53/8/31 55/6/32 56/6/32
f 43/5/12 52/7/20 54/7/20
f 52/7/20 43/5/12 44/5/12
f 61/5/34 60/6/34 59/6/34
f 60/6/34 61/5/34 62/5/34
f 64/5/37 59/6/36 63/6/35
f 59/6/36 64/5/37 61/5/36
f 66/5/39 63/6/35 65/6/38
f 63/6/35 66/5/39 64/5/37
f 59/6/9 65/6/9 63/6/9
f 65/6/9 59/6/9 60/6/9
f 65/6/9 60/6/9 67/6/9
f 60/6/40 68/5/40 67/6/40
f 68/5/40 60/6/40 62/5/40
f 67/6/41 66/5/39 65/6/38
f 66/5/39 67/6/41 68/5/41
f 71/5/42 70/6/42 69/6/42
f 70/6/42 71/5/42 72/5/42
f 70/6/43 74/5/43 73/6/43
f 74/5/43 70/6/43 72/5/43
f 76/5/46 69/6/45 75/6/44
f 69/6/45 76/5/46 71/5/45
f 73/6/49 78/5/48 77/6/47
f 78/5/48 73/6/49 74/5/49
f 78/5/48 75/6/44 77/6/47
f 75/6/44 78/5/48 76/5/46
f 69/6/9 77/6/9 75/6/9
f 77/6/9 69/6/9 70/6/9
f 77/6/9 70/6/9 73/6/9
f 81/5/50 80/6/50 79/6/50
f 80/6/50 81/5/50 72/5/50
f 80/6/51 83/5/51 82/6/51
f 83/5/51 80/6/51 72/5/51
f 85/5/54 79/6/53 84/6/52
f 79/6/53 85/5/54 81/5/53
f 82/6/57 87/5/56 86/6/55
f 87/5/56 82/6/57 83/5/57
f 87/5/56 84/6/52 86/6/55
f 84/6/52 87/5/56 85/5/54
f 79/6/9 86/6/9 84/6/9
f 86/6/9 79/6/9 80/6/9
f 86/6/9 80/6/9 82/6/9
f 90/5/58 89/6/58 88/6/58
f 89/6/58 90/5/58 91/5/58
f 89/6/59 93/5/59 92/6/59
f 93/5/59 89/6/59 91/5/59
f 95/5/62 88/6/61 94/6/60
f 88/6/61 95/5/62 90/5/61
f 92/6/65 97/5/64 96/6/63
f 97/5/64 92/6/65 93/5/65
f 97/5/64 94/6/60 96/6/63
f 94/6/60 97/5/64 95/5/62
f 88/6/9 96/6/9 94/6/9
f 96/6/9 88/6/9 89/6/9
f 96/6/9 89/6/9 92/6/9
f 100/9/9 99/9/9 98/9/9
f 99/9/9 100/9/9 101/9/9
f 100/9/67 102/10/66 101/9/66
f 102/10/66 100/9/67 103/10/67
f 104/10/68 100/9/67 98/9/68
f 100/9/67 104/10/68 103/10/67
f 104/10/68 99/9/69 105/10/69
f 99/9/69 104/10/68 98/9/68
f 102/10/66 99/9/69 101/9/66
f 99/9/69 102/10/66 105/10/69
f 40/12/28 32/11/29 34/11/28
f 32/11/29 40/12/28 39/12/29
f 47/13/17 44/11/17 46/11/17
f 44/11/17 47/13/17 52/13/17
f 52/13/17 47/13/17 48/14/17
f 52/13/17 48/14/17 51/14/17
f 51/14/17 48/14/17 57/12/17
f 51/14/17 57/12/17 55/12/17
f 54/13/18 45/11/18 43/11/18
f 45/11/18 54/13/18 49/13/18
f 49/13/18 54/13/18 53/14/18
f 49/13/18 53/14/18 50/14/18
f 50/14/18 53/14/18 56/12/18
f 50/14/18 56/12/18 58/12/18
f 108/15/18 107/15/18 106/11/18
f 107/15/18 108/15/18 109/16/18
f 107/15/18 109/16/18 110/16/18
f 110/16/18 109/16/18 111/17/18
f 110/16/18 111/17/18 112/17/18
f 112/17/18 111/17/18 113/12/18
f 107/15/70 115/16/22 114/15/70
f 115/16/22 107/15/70 110/16/22
f 110/16/22 116/17/71 115/16/22
f 116/17/71 110/16/22 112/17/71
f 116/17/71 113/12/6 117/12/6
f 113/12/6 116/17/71 112/17/71
f 117/12/6 111/17/72 118/17/72
f 111/17/72 117/12/6 113/12/6
f 111/17/72 119/16/19 118/17/72
f 119/16/19 111/17/72 109/16/19
f 109/16/19 120/15/73 119/16/19
f 120/15/73 109/16/19 108/15/73
f 106/11/9 120/15/73 108/15/73
f 120/15/73 106/11/9 121/11/9
f 107/15/70 121/11/9 106/11/9
f 121/11/9 107/15/70 114/15/70

g camera




usemtl colormap

f 3/2/1 2/1/2 1/1/1
f 2/1/2 3/2/1 4/2/2
f 7/2/4 6/1/3 5/2/3
f 6/1/3 7/2/4 8/1/4
f 5/2/3 10/1/5 9/2/5
f 10/1/5 5/2/3 6/1/3
f 4/2/6 5/2/6 9/2/6
f 5/2/6 4/2/6 7/2/6
f 7/2/6 4/2/6 3/2/6
f 7/2/6 3/2/6 11/2/6
f 11/2/6 3/2/6 12/2/6
f 11/2/6 12/2/6 13/2/6
f 15/1/8 13/2/7 14/1/7
f 13/2/7 15/1/8 11/2/8
f 7/2/4 15/1/8 8/1/4
f 15/1/8 7/2/4 11/2/8
f 9/2/5 2/1/2 4/2/2
f 2/1/2 9/2/5 10/1/5
f 8/1/9 10/1/9 6/1/9
f 10/1/9 8/1/9 2/1/9
f 2/1/9 8/1/9 15/1/9
f 2/1/9 15/1/9 1/1/9
f 1/1/9 15/1/9 14/1/9
f 1/1/9 14/1/9 16/1/9
f 14/1/7 12/2/10 16/1/10
f 12/2/10 14/1/7 13/2/7
f 16/1/10 3/2/1 1/1/1
f 3/2/1 16/1/10 12/2/10
f 19/1/13 18/1/12 17/1/11
f 18/1/12 19/1/13 20/1/14
f 21/3/15 20/1/14 19/1/13
f 20/1/14 21/3/15 22/3/16
f 22/3/17 18/1/17 20/1/17
f 18/1/17 22/3/17 23/3/17
f 23/3/17 22/3/17 24/2/17
f 23/3/17 24/2/17 25/2/17
f 28/2/18 27/4/18 26/4/18
f 27/4/18 28/2/18 29/2/18
f 28/2/19 23/3/20 25/2/19
f 23/3/20 28/2/19 30/3/21
f 30/3/21 28/2/19 26/4/19
f 24/2/6 28/2/6 25/2/6
f 28/2/6 24/2/6 29/2/6
f 17/1/11 23/3/20 30/3/21
f 23/3/20 17/1/11 18/1/12
f 21/3/15 24/2/22 22/3/16
f 24/2/22 21/3/15 29/2/22
f 29/2/22 21/3/15 27/4/22
f 27/4/23 30/3/23 26/4/23
f 30/3/23 27/4/23 17/1/23
f 17/1/23 27/4/23 19/1/23
f 19/1/23 27/4/23 21/3/23
f 33/5/9 32/5/9 31/5/9
f 32/5/9 33/5/9 34/5/9
f 34/5/9 33/5/9 35/5/9
f 34/5/9 35/5/9 36/5/9
f 39/6/6 38/6/6 37/6/6
f 38/6/6 39/6/6 40/6/6
f 38/6/6 40/6/6 41/6/6
f 41/6/6 40/6/6 42/6/6
f 38/6/18 35/5/18 33/5/18
f 35/5/18 38/6/18 41/6/18
f 35/5/25 42/6/24 36/5/24
f 42/6/24 35/5/25 41/6/25
f 38/6/27 31/5/26 37/6/26
f 31/5/26 38/6/27 33/5/27
f 36/5/24 40/6/28 34/5/28
f 40/6/28 36/5/24 42/6/24
f 37/6/26 32/5/29 39/6/29
f 32/5/29 37/6/26 31/5/26
f 45/5/14 44/5/12 43/5/12
f 44/5/12 45/5/14 46/5/14
f 49/7/16 48/8/30 47/7/16
f 48/8/30 49/7/16 50/8/30
f 53/8/31 52/7/20 51/8/31
f 52/7/20 53/8/31 54/7/20
f 57/6/33 56/6/32 55/6/32
f 56/6/32 57/6/33 58/6/33
f 48/8/30 58/6/33 57/6/33
f 58/6/33 48/8/30 50/8/30
f 49/7/16 46/5/14 45/5/14
f 46/5/14 49/7/16 47/7/16
f 55/6/32 53/8/31 51/8/31
f 53/8/31 55/6/32 56/6/32
f 43/5/12 52/7/20 54/7/20
f 52/7/20 43/5/12 44/5/12
f 61/5/34 60/6/34 59/6/34
f 60/6/34 61/5/34 62/5/34
f 64/5/37 59/6/36 63/6/35
f 59/6/36 64/5/37 61/5/36
f 66/5/39 63/6/35 65/6/38
f 63/6/35 66/5/39 64/5/37
f 59/6/9 65/6/9 63/6/9
f 65/6/9 59/6/9 60/6/9
f 65/6/9 60/6/9 67/6/9
f 60/6/40 68/5/40 67/6/40
f 68/5/40 60/6/40 62/5/40
f 67/6/41 66/5/39 65/6/38
f 66/5/39 67/6/41 68/5/41
f 71/5/42 70/6/42 69/6/42
f 70/6/42 71/5/42 72/5/42
f 70/6/43 74/5/43 73/6/43
f 74/5/43 70/6/43 72/5/43
f 76/5/46 69/6/45 75/6/44
f 69/6/45 76/5/46 71/5/45
f 73/6/49 78/5/48 77/6/47
f 78/5/48 73/6/49 74/5/49
f 78/5/48 75/6/44 77/6/47
f 75/6/44 78/5/48 76/5/46
f 69/6/9 77/6/9 75/6/9
f 77/6/9 69/6/9 70/6/9
f 77/6/9 70/6/9 73/6/9
f 81/5/50 80/6/50 79/6/50
f 80/6/50 81/5/50 72/5/50
f 80/6/51 83/5/51 82/6/51
f 83/5/51 80/6/51 72/5/51
f 85/5/54 79/6/53 84/6/52
f 79/6/53 85/5/54 81/5/53
f 82/6/57 87/5/56 86/6/55
f 87/5/56 82/6/57 83/5/57
f 87/5/56 84/6/52 86/6/55
f 84/6/52 87/5/56 85/5/54
f 79/6/9 86/6/9 84/6/9
f 86/6/9 79/6/9 80/6/9
f 86/6/9 80/6/9 82/6/9
f 90/5/58 89/6/58 88/6/58
f 89/6/58 90/5/58 91/5/58
f 89/6/59 93/5/59 92/6/59
f 93/5/59 89/6/59 91/5/59
f 95/5/62 88/6/61 94/6/60
f 88/6/61 95/5/62 90/5/61
f 92/6/65 97/5/64 96/6/63
f 97/5/64 92/6/65 93/5/65
f 97/5/64 94/6/60 96/6/63
f 94/6/60 97/5/64 95/5/62
f 88/6/9 96/6/9 94/6/9
f 96/6/9 88/6/9 89/6/9
f 96/6/9 89/6/9 92/6/9
f 100/9/9 99/9/9 98/9/9
f 99/9/9 100/9/9 101/9/9
f 100/9/67 102/10/66 101/9/66
f 102/10/66 100/9/67 103/10/67
f 104/10/68 100/9/67 98/9/68
f 100/9/67 104/10/68 103/10/67
f 104/10/68 99/9/69 105/10/69
f 99/9/69 104/10/68 98/9/68
f 102/10/66 99/9/69 101/9/66
f 99/9/69 102/10/66 105/10/69
f 40/12/28 32/11/29 34/11/28
f 32/11/29 40/12/28 39/12/29
f 47/13/17 44/11/17 46/11/17
f 44/11/17 47/13/17 52/13/17
f 52/13/17 47/13/17 48/14/17
f 52/13/17 48/14/17 51/14/17
f 51/14/17 48/14/17 57/12/17
f 51/14/17 57/12/17 55/12/17
f 54/13/18 45/11/18 43/11/18
f 45/11/18 54/13/18 49/13/18
f 49/13/18 54/13/18 53/14/18
f 49/13/18 53/14/18 50/14/18
f 50/14/18 53/14/18 56/12/18
f 50/14/18 56/12/18 58/12/18
f 108/15/18 107/15/18 106/11/18
f 107/15/18 108/15/18 109/16/18
f 107/15/18 109/16/18 110/16/18
f 110/16/18 109/16/18 111/17/18
f 110/16/18 111/17/18 112/17/18
f 112/17/18 111/17/18 113/12/18
f 107/15/70 115/16/22 114/15/70
f 115/16/22 107/15/70 110/16/22
f 110/16/22 116/17/71 115/16/22
f 116/17/71 110/16/22 112/17/71
f 116/17/71 113/12/6 117/12/6
f 113/12/6 116/17/71 112/17/71
f 117/12/6 111/17/72 118/17/72
f 111/17/72 117/12/6 113/12/6
f 111/17/72 119/16/19 118/17/72
f 119/16/19 111/17/72 109/16/19
f 109/16/19 120/15/73 119/16/19
f 120/15/73 109/16/19 108/15/73
f 106/11/9 120/15/73 108/15/73
f 120/15/73 106/11/9 121/11/9
f 107/15/70 121/11/9 106/11/9
f 121/11/9 107/15/70 114/15/70

