# Created by Kenney (www.kenney.nl)

mtllib fence-open-tall.mtl

g fence-open-tall

v 0.390625 0.15 -0.03125 1 1 1
v 0.390625 0.15 0.03125 1 1 1
v -0.390625 0.15 -0.03125 1 1 1
v -0.390625 0.15 0.03125 1 1 1
v -0.390625 0.0875 0.03125 1 1 1
v 0.390625 0.0875 0.03125 1 1 1
v 0.390625 0.0875 -0.03125 1 1 1
v -0.390625 0.0875 -0.03125 1 1 1
v 0.390625 0.575 -0.03125 1 1 1
v 0.390625 0.575 0.03125 1 1 1
v -0.390625 0.575 -0.03125 1 1 1
v -0.390625 0.575 0.03125 1 1 1
v -0.390625 0.5125 0.03125 1 1 1
v 0.390625 0.5125 0.03125 1 1 1
v 0.390625 0.5125 -0.03125 1 1 1
v -0.390625 0.5125 -0.03125 1 1 1
v 0.390625 1.028324 -0.2847642 1 1 1
v 0.390625 1.010181 -0.2249554 1 1 1
v -0.390625 1.028324 -0.2847642 1 1 1
v -0.390625 1.010181 -0.2249554 1 1 1
v -0.390625 0.9503722 -0.2430982 1 1 1
v 0.390625 0.9503722 -0.2430982 1 1 1
v 0.390625 0.968515 -0.302907 1 1 1
v -0.390625 0.968515 -0.302907 1 1 1
v -0.390625 0.15 -0.03125 1 1 1
v -0.390625 0.0875 -0.0625 1 1 1
v -0.359375 0.0875 -0.03125 1 1 1
v -0.484375 0.0875 0.03125 1 1 1
v -0.453125 0.15 0.03125 1 1 1
v -0.453125 0.0875 0.0625 1 1 1
v -0.484375 0.0875 -0.03125 1 1 1
v -0.453125 0.0875 -0.0625 1 1 1
v -0.453125 0.15 -0.03125 1 1 1
v -0.390625 0.15 0.03125 1 1 1
v -0.359375 0.0875 0.03125 1 1 1
v -0.390625 0.0875 0.0625 1 1 1
v -0.34375 2.003707E-32 0.0390625 1 1 1
v -0.3828125 2.003707E-32 0.078125 1 1 1
v -0.390625 0.6375 0.03125 1 1 1
v -0.453125 0.6375 0.03125 1 1 1
v -0.4609375 2.003707E-32 -0.078125 1 1 1
v -0.3828125 2.003707E-32 -0.078125 1 1 1
v -0.4609375 2.003707E-32 0.078125 1 1 1
v -0.5 2.003707E-32 0.0390625 1 1 1
v -0.34375 2.003707E-32 -0.0390625 1 1 1
v -0.5 2.003707E-32 -0.0390625 1 1 1
v -0.453125 0.6375 -0.03125 1 1 1
v -0.390625 0.6375 -0.03125 1 1 1
v 0.453125 0.15 -0.03125 1 1 1
v 0.453125 0.0875 -0.0625 1 1 1
v 0.484375 0.0875 -0.03125 1 1 1
v 0.359375 0.0875 0.03125 1 1 1
v 0.390625 0.0875 0.0625 1 1 1
v 0.359375 0.0875 -0.03125 1 1 1
v 0.390625 0.0875 -0.0625 1 1 1
v 0.453125 0.15 0.03125 1 1 1
v 0.484375 0.0875 0.03125 1 1 1
v 0.453125 0.0875 0.0625 1 1 1
v 0.5 2.003707E-32 0.0390625 1 1 1
v 0.4609375 2.003707E-32 0.078125 1 1 1
v 0.453125 0.6375 0.03125 1 1 1
v 0.390625 0.6375 0.03125 1 1 1
v 0.3828125 2.003707E-32 -0.078125 1 1 1
v 0.4609375 2.003707E-32 -0.078125 1 1 1
v 0.3828125 2.003707E-32 0.078125 1 1 1
v 0.34375 2.003707E-32 0.0390625 1 1 1
v 0.5 2.003707E-32 -0.0390625 1 1 1
v 0.34375 2.003707E-32 -0.0390625 1 1 1
v 0.390625 0.6375 -0.03125 1 1 1
v 0.453125 0.6375 -0.03125 1 1 1
v 0.390625 0.975 -0.36875 1 1 1
v 0.390625 1.0375 -0.36875 1 1 1
v 0.390625 0.968515 -0.302907 1 1 1
v 0.390625 1.029814 -0.2907139 1 1 1
v 0.390625 0.9493093 -0.2395944 1 1 1
v 0.390625 1.007052 -0.2156766 1 1 1
v 0.390625 0.918121 -0.1812451 1 1 1
v 0.390625 0.9700878 -0.1465219 1 1 1
v 0.390625 0.8761485 -0.1301015 1 1 1
v 0.390625 0.9203427 -0.08590728 1 1 1
v 0.390625 0.8250049 -0.08812898 1 1 1
v 0.390625 0.7666556 -0.05694062 1 1 1
v 0.390625 0.8597281 -0.03616214 1 1 1
v 0.390625 0.703343 -0.03773499 1 1 1
v 0.390625 0.6375 -0.03125 1 1 1
v 0.390625 0.7905734 0.0008018017 1 1 1
v 0.390625 0.6375 0.03125 1 1 1
v 0.390625 0.7155361 0.0235641 1 1 1
v 0.453125 0.975 -0.36875 1 1 1
v 0.453125 1.0375 -0.36875 1 1 1
v 0.453125 1.029814 -0.2907139 1 1 1
v 0.453125 0.968515 -0.302907 1 1 1
v 0.453125 0.9493093 -0.2395944 1 1 1
v 0.453125 1.007052 -0.2156766 1 1 1
v 0.453125 0.918121 -0.1812451 1 1 1
v 0.453125 0.9700878 -0.1465219 1 1 1
v 0.453125 0.8761485 -0.1301015 1 1 1
v 0.453125 0.9203427 -0.08590728 1 1 1
v 0.453125 0.8250049 -0.08812898 1 1 1
v 0.453125 0.7666556 -0.05694062 1 1 1
v 0.453125 0.8597281 -0.03616214 1 1 1
v 0.453125 0.703343 -0.03773499 1 1 1
v 0.453125 0.6375 -0.03125 1 1 1
v 0.453125 0.7905734 0.0008018017 1 1 1
v 0.453125 0.6375 0.03125 1 1 1
v 0.453125 0.7155361 0.0235641 1 1 1
v -0.453125 0.975 -0.36875 1 1 1
v -0.453125 1.0375 -0.36875 1 1 1
v -0.453125 0.968515 -0.302907 1 1 1
v -0.453125 1.029814 -0.2907139 1 1 1
v -0.453125 0.9493093 -0.2395944 1 1 1
v -0.453125 1.007052 -0.2156766 1 1 1
v -0.453125 0.918121 -0.1812451 1 1 1
v -0.453125 0.9700878 -0.1465219 1 1 1
v -0.453125 0.8761485 -0.1301015 1 1 1
v -0.453125 0.9203427 -0.08590728 1 1 1
v -0.453125 0.8250049 -0.08812898 1 1 1
v -0.453125 0.7666556 -0.05694062 1 1 1
v -0.453125 0.8597281 -0.03616214 1 1 1
v -0.453125 0.703343 -0.03773499 1 1 1
v -0.453125 0.6375 -0.03125 1 1 1
v -0.453125 0.7905734 0.0008018017 1 1 1
v -0.453125 0.6375 0.03125 1 1 1
v -0.453125 0.7155361 0.0235641 1 1 1
v -0.390625 0.975 -0.36875 1 1 1
v -0.390625 1.0375 -0.36875 1 1 1
v -0.390625 1.029814 -0.2907139 1 1 1
v -0.390625 0.9493093 -0.2395944 1 1 1
v -0.390625 1.007052 -0.2156766 1 1 1
v -0.390625 0.918121 -0.1812451 1 1 1
v -0.390625 0.9700878 -0.1465219 1 1 1
v -0.390625 0.8761485 -0.1301015 1 1 1
v -0.390625 0.9203427 -0.08590728 1 1 1
v -0.390625 0.8250049 -0.08812898 1 1 1
v -0.390625 0.7666556 -0.05694062 1 1 1
v -0.390625 0.8597281 -0.03616214 1 1 1
v -0.390625 0.703343 -0.03773499 1 1 1
v -0.390625 0.6375 -0.03125 1 1 1
v -0.390625 0.7905734 0.0008018017 1 1 1
v -0.390625 0.6375 0.03125 1 1 1
v -0.390625 0.7155361 0.0235641 1 1 1

vn 0 0.7071068 -0.7071068
vn 0 0.7071068 0.7071068
vn 0 -0.7071068 0.7071068
vn 0 -0.7071068 -0.7071068
vn 1.616229E-15 0.8819212 -0.4713967
vn 3.912359E-16 0.4713967 0.8819212
vn -1.616229E-15 -0.8819212 0.4713967
vn -3.912359E-16 -0.4713967 -0.8819212
vn 0.5997861 0.5296351 -0.5997861
vn 0.315808 0.4243266 -0.8486531
vn 0.8486531 0.4243266 -0.315808
vn -0.8486531 0.4243266 0.315808
vn -0.5997861 0.5296351 0.5997861
vn -0.315808 0.4243266 0.8486531
vn -0.8486531 0.4243266 -0.315808
vn -0.315808 0.4243266 -0.8486531
vn -0.5997861 0.5296351 -0.5997861
vn 0.5997861 0.5296351 0.5997861
vn 0.8486531 0.4243266 0.315808
vn 0.315808 0.4243266 0.8486531
vn 0.9048882 0.1953526 0.3781727
vn 0.3781727 0.1953526 0.9048882
vn 0.9074546 0.1952616 0.3720203
vn 0.3720203 0.1952616 0.9074546
vn 0.7071068 0 0.7071068
vn -0.7071068 0 0.7071068
vn -0.3781727 0.1953526 -0.9048882
vn 0.3781727 0.1953526 -0.9048882
vn -0.3720203 0.1952616 -0.9074546
vn 0.3720203 0.1952616 -0.9074546
vn -0.3781727 0.1953526 0.9048882
vn -0.9048882 0.1953526 0.3781727
vn -0.3720203 0.1952616 0.9074546
vn -0.9074546 0.1952616 0.3720203
vn 0 -1 0
vn -0.9048882 0.1953526 -0.3781727
vn -0.9074546 0.1952616 -0.3720203
vn -0.7071068 0 -0.7071068
vn 0.7071068 0 -0.7071068
vn 0.9048882 0.1953526 -0.3781727
vn 0.9074546 0.1952616 -0.3720203
vn 0 1 0
vn -0.7282 -0.6820645 -0.06717749
vn -0.6839411 0.7260243 0.07150715
vn -0.7298487 -0.6704734 -0.1333655
vn -0.6856964 0.7139015 0.1420038
vn -0.7298487 -0.6315721 -0.2616057
vn -0.6856964 0.6724805 0.2785505
vn -0.7298487 -0.5683999 -0.3797927
vn -0.6856964 0.6052164 0.4043927
vn -0.7298487 -0.4833843 -0.4833843
vn -0.6856964 0.5146943 0.5146943
vn -0.7298487 -0.3797927 -0.5683999
vn -0.7298487 -0.2616057 -0.6315721
vn -0.6856964 0.4043927 0.6052164
vn -0.7298487 -0.1333655 -0.6704735
vn -0.7282 -0.06717749 -0.6820645
vn -0.6856964 0.2785505 0.6724805
vn -0.6839411 0.07150715 0.7260243
vn -0.6856964 0.1420038 0.7139015
vn 0 0 -1
vn 0.6839411 0.7260243 0.07150715
vn 0.7282 -0.6820645 -0.06717749
vn 0.6856964 0.7139015 0.1420038
vn 0.7298487 -0.6704734 -0.1333655
vn 0.7298487 -0.6315721 -0.2616057
vn 0.6856964 0.6724805 0.2785505
vn 0.7298487 -0.5683999 -0.3797927
vn 0.6856964 0.6052164 0.4043927
vn 0.7298487 -0.4833843 -0.4833843
vn 0.6856964 0.5146943 0.5146943
vn 0.7298487 -0.3797927 -0.5683999
vn 0.7298487 -0.2616057 -0.6315721
vn 0.6856964 0.4043927 0.6052164
vn 0.7298487 -0.1333655 -0.6704735
vn 0.7282 -0.06717749 -0.6820645
vn 0.6856964 0.2785505 0.6724805
vn 0.6839411 0.07150715 0.7260243
vn 0.6856964 0.1420038 0.7139015

vt 0.46875 0.175
vt 0.46875 0.075
vt 0.46875 0.055
vt 0.46875 0.0425
vt 0.46875 0.025
vt 0.46875 0.1525
vt 0.46875 0.22
vt 0.46875 0.225
vt 0.46875 0.218703
vt 0.46875 0.2148619
vt 0.46875 0.2086242
vt 0.46875 0.2190176
vt 0.46875 0.2002297
vt 0.46875 0.2090685
vt 0.46875 0.190001
vt 0.46875 0.1783311
vt 0.46875 0.1969456
vt 0.46875 0.1656686
vt 0.46875 0.1831147
vt 0.46875 0.1681072

usemtl colormap

f 3/1/1 2/1/2 1/1/1
f 2/1/2 3/1/1 4/1/2
f 6/2/3 4/1/2 5/2/3
f 4/1/2 6/2/3 2/1/2
f 5/2/3 7/2/4 6/2/3
f 7/2/4 5/2/3 8/2/4
f 3/1/1 7/2/4 8/2/4
f 7/2/4 3/1/1 1/1/1
f 11/1/1 10/1/2 9/1/1
f 10/1/2 11/1/1 12/1/2
f 14/2/3 12/1/2 13/2/3
f 12/1/2 14/2/3 10/1/2
f 13/2/3 15/2/4 14/2/3
f 15/2/4 13/2/3 16/2/4
f 11/1/1 15/2/4 16/2/4
f 15/2/4 11/1/1 9/1/1
f 19/1/5 18/1/6 17/1/5
f 18/1/6 19/1/5 20/1/6
f 22/2/7 20/1/6 21/2/7
f 20/1/6 22/2/7 18/1/6
f 21/2/7 23/2/8 22/2/7
f 23/2/8 21/2/7 24/2/8
f 19/1/5 23/2/8 24/2/8
f 23/2/8 19/1/5 17/1/5
f 27/4/11 26/4/10 25/3/9
f 30/4/14 29/3/13 28/4/12
f 33/3/17 32/4/16 31/4/15
f 36/4/20 35/4/19 34/3/18
f 35/4/23 38/5/22 37/5/21
f 38/5/22 35/4/23 36/4/24
f 39/6/25 29/3/26 34/3/25
f 29/3/26 39/6/25 40/6/26
f 32/4/29 42/5/28 41/5/27
f 42/5/28 32/4/29 26/4/30
f 33/3/17 26/4/10 32/4/16
f 26/4/10 33/3/17 25/3/9
f 30/4/33 44/5/32 43/5/31
f 44/5/32 30/4/33 28/4/34
f 38/5/35 45/5/35 37/5/35
f 45/5/35 38/5/35 42/5/35
f 42/5/35 38/5/35 43/5/35
f 42/5/35 43/5/35 41/5/35
f 41/5/35 43/5/35 44/5/35
f 41/5/35 44/5/35 46/5/35
f 28/4/12 33/3/17 31/4/15
f 33/3/17 28/4/12 29/3/13
f 31/4/37 41/5/27 46/5/36
f 41/5/27 31/4/37 32/4/29
f 34/3/18 30/4/14 36/4/20
f 30/4/14 34/3/18 29/3/13
f 36/4/24 43/5/31 38/5/22
f 43/5/31 36/4/24 30/4/33
f 47/6/38 25/3/39 33/3/38
f 25/3/39 47/6/38 48/6/39
f 39/6/25 25/3/39 48/6/39
f 25/3/39 39/6/25 34/3/25
f 26/4/30 45/5/40 42/5/28
f 45/5/40 26/4/30 27/4/41
f 44/5/32 31/4/37 46/5/36
f 31/4/37 44/5/32 28/4/34
f 27/4/41 37/5/21 45/5/40
f 37/5/21 27/4/41 35/4/23
f 47/6/42 39/6/42 48/6/42
f 39/6/42 47/6/42 40/6/42
f 29/3/26 47/6/38 33/3/38
f 47/6/38 29/3/26 40/6/26
f 34/3/18 27/4/11 25/3/9
f 27/4/11 34/3/18 35/4/19
f 51/4/11 50/4/10 49/3/9
f 53/4/14 2/3/13 52/4/12
f 1/3/17 55/4/16 54/4/15
f 58/4/20 57/4/19 56/3/18
f 57/4/23 60/5/22 59/5/21
f 60/5/22 57/4/23 58/4/24
f 61/6/25 2/3/26 56/3/25
f 2/3/26 61/6/25 62/6/26
f 55/4/29 64/5/28 63/5/27
f 64/5/28 55/4/29 50/4/30
f 1/3/17 50/4/10 55/4/16
f 50/4/10 1/3/17 49/3/9
f 53/4/33 66/5/32 65/5/31
f 66/5/32 53/4/33 52/4/34
f 60/5/35 67/5/35 59/5/35
f 67/5/35 60/5/35 64/5/35
f 64/5/35 60/5/35 65/5/35
f 64/5/35 65/5/35 63/5/35
f 63/5/35 65/5/35 66/5/35
f 63/5/35 66/5/35 68/5/35
f 52/4/12 1/3/17 54/4/15
f 1/3/17 52/4/12 2/3/13
f 54/4/37 63/5/27 68/5/36
f 63/5/27 54/4/37 55/4/29
f 56/3/18 53/4/14 58/4/20
f 53/4/14 56/3/18 2/3/13
f 58/4/24 65/5/31 60/5/22
f 65/5/31 58/4/24 53/4/33
f 69/6/38 49/3/39 1/3/38
f 49/3/39 69/6/38 70/6/39
f 61/6/25 49/3/39 70/6/39
f 49/3/39 61/6/25 56/3/25
f 50/4/30 67/5/40 64/5/28
f 67/5/40 50/4/30 51/4/41
f 66/5/32 54/4/37 68/5/36
f 54/4/37 66/5/32 52/4/34
f 51/4/41 59/5/21 67/5/40
f 59/5/21 51/4/41 57/4/23
f 69/6/42 61/6/42 70/6/42
f 61/6/42 69/6/42 62/6/42
f 2/3/26 69/6/38 1/3/38
f 69/6/38 2/3/26 62/6/26
f 56/3/18 51/4/11 49/3/9
f 51/4/11 56/3/18 57/4/19
f 73/9/45 72/8/44 71/7/43
f 72/8/44 73/9/45 74/8/46
f 74/8/46 73/9/45 75/10/47
f 74/8/46 75/10/47 76/8/48
f 76/8/48 75/10/47 77/11/49
f 76/8/48 77/11/49 78/12/50
f 78/12/50 77/11/49 79/13/51
f 78/12/50 79/13/51 80/14/52
f 80/14/52 79/13/51 81/15/53
f 80/14/52 81/15/53 82/16/54
f 80/14/52 82/16/54 83/17/55
f 83/17/55 82/16/54 84/18/56
f 83/17/55 84/18/56 85/6/57
f 83/17/55 85/6/57 86/19/58
f 86/19/58 85/6/57 87/6/59
f 86/19/58 87/6/59 88/20/60
f 72/8/61 89/7/61 71/7/61
f 89/7/61 72/8/61 90/8/61
f 91/8/64 89/7/63 90/8/62
f 89/7/63 91/8/64 92/9/65
f 92/9/65 91/8/64 93/10/66
f 93/10/66 91/8/64 94/8/67
f 93/10/66 94/8/67 95/11/68
f 95/11/68 94/8/67 96/12/69
f 95/11/68 96/12/69 97/13/70
f 97/13/70 96/12/69 98/14/71
f 97/13/70 98/14/71 99/15/72
f 99/15/72 98/14/71 100/16/73
f 100/16/73 98/14/71 101/17/74
f 100/16/73 101/17/74 102/18/75
f 102/18/75 101/17/74 103/6/76
f 103/6/76 101/17/74 104/19/77
f 103/6/76 104/19/77 105/6/78
f 105/6/78 104/19/77 106/20/79
f 106/20/79 87/6/59 105/6/78
f 87/6/59 106/20/79 88/20/60
f 104/19/77 88/20/60 106/20/79
f 88/20/60 104/19/77 86/19/58
f 101/17/74 86/19/58 104/19/77
f 86/19/58 101/17/74 83/17/55
f 98/14/71 83/17/55 101/17/74
f 83/17/55 98/14/71 80/14/52
f 78/12/50 98/14/71 96/12/69
f 98/14/71 78/12/50 80/14/52
f 94/8/67 78/12/50 96/12/69
f 78/12/50 94/8/67 76/8/48
f 74/8/46 94/8/67 91/8/64
f 94/8/67 74/8/46 76/8/48
f 72/8/44 91/8/64 90/8/62
f 91/8/64 72/8/44 74/8/46
f 73/9/45 89/7/63 92/9/65
f 89/7/63 73/9/45 71/7/43
f 75/10/47 92/9/65 93/10/66
f 92/9/65 75/10/47 73/9/45
f 77/11/49 93/10/66 95/11/68
f 93/10/66 77/11/49 75/10/47
f 79/13/51 95/11/68 97/13/70
f 95/11/68 79/13/51 77/11/49
f 79/13/51 99/15/72 81/15/53
f 99/15/72 79/13/51 97/13/70
f 82/16/54 99/15/72 100/16/73
f 99/15/72 82/16/54 81/15/53
f 84/18/56 100/16/73 102/18/75
f 100/16/73 84/18/56 82/16/54
f 85/6/57 102/18/75 103/6/76
f 102/18/75 85/6/57 84/18/56
f 109/9/45 108/8/44 107/7/43
f 108/8/44 109/9/45 110/8/46
f 110/8/46 109/9/45 111/10/47
f 110/8/46 111/10/47 112/8/48
f 112/8/48 111/10/47 113/11/49
f 112/8/48 113/11/49 114/12/50
f 114/12/50 113/11/49 115/13/51
f 114/12/50 115/13/51 116/14/52
f 116/14/52 115/13/51 117/15/53
f 116/14/52 117/15/53 118/16/54
f 116/14/52 118/16/54 119/17/55
f 119/17/55 118/16/54 120/18/56
f 119/17/55 120/18/56 121/6/57
f 119/17/55 121/6/57 122/19/58
f 122/19/58 121/6/57 123/6/59
f 122/19/58 123/6/59 124/20/60
f 108/8/61 125/7/61 107/7/61
f 125/7/61 108/8/61 126/8/61
f 127/8/64 125/7/63 126/8/62
f 125/7/63 127/8/64 24/9/65
f 24/9/65 127/8/64 128/10/66
f 128/10/66 127/8/64 129/8/67
f 128/10/66 129/8/67 130/11/68
f 130/11/68 129/8/67 131/12/69
f 130/11/68 131/12/69 132/13/70
f 132/13/70 131/12/69 133/14/71
f 132/13/70 133/14/71 134/15/72
f 134/15/72 133/14/71 135/16/73
f 135/16/73 133/14/71 136/17/74
f 135/16/73 136/17/74 137/18/75
f 137/18/75 136/17/74 138/6/76
f 138/6/76 136/17/74 139/19/77
f 138/6/76 139/19/77 140/6/78
f 140/6/78 139/19/77 141/20/79
f 141/20/79 123/6/59 140/6/78
f 123/6/59 141/20/79 124/20/60
f 139/19/77 124/20/60 141/20/79
f 124/20/60 139/19/77 122/19/58
f 136/17/74 122/19/58 139/19/77
f 122/19/58 136/17/74 119/17/55
f 133/14/71 119/17/55 136/17/74
f 119/17/55 133/14/71 116/14/52
f 114/12/50 133/14/71 131/12/69
f 133/14/71 114/12/50 116/14/52
f 129/8/67 114/12/50 131/12/69
f 114/12/50 129/8/67 112/8/48
f 110/8/46 129/8/67 127/8/64
f 129/8/67 110/8/46 112/8/48
f 108/8/44 127/8/64 126/8/62
f 127/8/64 108/8/44 110/8/46
f 109/9/45 125/7/63 24/9/65
f 125/7/63 109/9/45 107/7/43
f 111/10/47 24/9/65 128/10/66
f 24/9/65 111/10/47 109/9/45
f 113/11/49 128/10/66 130/11/68
f 128/10/66 113/11/49 111/10/47
f 115/13/51 130/11/68 132/13/70
f 130/11/68 115/13/51 113/11/49
f 115/13/51 134/15/72 117/15/53
f 134/15/72 115/13/51 132/13/70
f 118/16/54 134/15/72 135/16/73
f 134/15/72 118/16/54 117/15/53
f 120/18/56 135/16/73 137/18/75
f 135/16/73 120/18/56 118/16/54
f 121/6/57 137/18/75 138/6/76
f 137/18/75 121/6/57 120/18/56

g fence-open-tall




usemtl colormap

f 3/1/1 2/1/2 1/1/1
f 2/1/2 3/1/1 4/1/2
f 6/2/3 4/1/2 5/2/3
f 4/1/2 6/2/3 2/1/2
f 5/2/3 7/2/4 6/2/3
f 7/2/4 5/2/3 8/2/4
f 3/1/1 7/2/4 8/2/4
f 7/2/4 3/1/1 1/1/1
f 11/1/1 10/1/2 9/1/1
f 10/1/2 11/1/1 12/1/2
f 14/2/3 12/1/2 13/2/3
f 12/1/2 14/2/3 10/1/2
f 13/2/3 15/2/4 14/2/3
f 15/2/4 13/2/3 16/2/4
f 11/1/1 15/2/4 16/2/4
f 15/2/4 11/1/1 9/1/1
f 19/1/5 18/1/6 17/1/5
f 18/1/6 19/1/5 20/1/6
f 22/2/7 20/1/6 21/2/7
f 20/1/6 22/2/7 18/1/6
f 21/2/7 23/2/8 22/2/7
f 23/2/8 21/2/7 24/2/8
f 19/1/5 23/2/8 24/2/8
f 23/2/8 19/1/5 17/1/5
f 27/4/11 26/4/10 25/3/9
f 30/4/14 29/3/13 28/4/12
f 33/3/17 32/4/16 31/4/15
f 36/4/20 35/4/19 34/3/18
f 35/4/23 38/5/22 37/5/21
f 38/5/22 35/4/23 36/4/24
f 39/6/25 29/3/26 34/3/25
f 29/3/26 39/6/25 40/6/26
f 32/4/29 42/5/28 41/5/27
f 42/5/28 32/4/29 26/4/30
f 33/3/17 26/4/10 32/4/16
f 26/4/10 33/3/17 25/3/9
f 30/4/33 44/5/32 43/5/31
f 44/5/32 30/4/33 28/4/34
f 38/5/35 45/5/35 37/5/35
f 45/5/35 38/5/35 42/5/35
f 42/5/35 38/5/35 43/5/35
f 42/5/35 43/5/35 41/5/35
f 41/5/35 43/5/35 44/5/35
f 41/5/35 44/5/35 46/5/35
f 28/4/12 33/3/17 31/4/15
f 33/3/17 28/4/12 29/3/13
f 31/4/37 41/5/27 46/5/36
f 41/5/27 31/4/37 32/4/29
f 34/3/18 30/4/14 36/4/20
f 30/4/14 34/3/18 29/3/13
f 36/4/24 43/5/31 38/5/22
f 43/5/31 36/4/24 30/4/33
f 47/6/38 25/3/39 33/3/38
f 25/3/39 47/6/38 48/6/39
f 39/6/25 25/3/39 48/6/39
f 25/3/39 39/6/25 34/3/25
f 26/4/30 45/5/40 42/5/28
f 45/5/40 26/4/30 27/4/41
f 44/5/32 31/4/37 46/5/36
f 31/4/37 44/5/32 28/4/34
f 27/4/41 37/5/21 45/5/40
f 37/5/21 27/4/41 35/4/23
f 47/6/42 39/6/42 48/6/42
f 39/6/42 47/6/42 40/6/42
f 29/3/26 47/6/38 33/3/38
f 47/6/38 29/3/26 40/6/26
f 34/3/18 27/4/11 25/3/9
f 27/4/11 34/3/18 35/4/19
f 51/4/11 50/4/10 49/3/9
f 53/4/14 2/3/13 52/4/12
f 1/3/17 55/4/16 54/4/15
f 58/4/20 57/4/19 56/3/18
f 57/4/23 60/5/22 59/5/21
f 60/5/22 57/4/23 58/4/24
f 61/6/25 2/3/26 56/3/25
f 2/3/26 61/6/25 62/6/26
f 55/4/29 64/5/28 63/5/27
f 64/5/28 55/4/29 50/4/30
f 1/3/17 50/4/10 55/4/16
f 50/4/10 1/3/17 49/3/9
f 53/4/33 66/5/32 65/5/31
f 66/5/32 53/4/33 52/4/34
f 60/5/35 67/5/35 59/5/35
f 67/5/35 60/5/35 64/5/35
f 64/5/35 60/5/35 65/5/35
f 64/5/35 65/5/35 63/5/35
f 63/5/35 65/5/35 66/5/35
f 63/5/35 66/5/35 68/5/35
f 52/4/12 1/3/17 54/4/15
f 1/3/17 52/4/12 2/3/13
f 54/4/37 63/5/27 68/5/36
f 63/5/27 54/4/37 55/4/29
f 56/3/18 53/4/14 58/4/20
f 53/4/14 56/3/18 2/3/13
f 58/4/24 65/5/31 60/5/22
f 65/5/31 58/4/24 53/4/33
f 69/6/38 49/3/39 1/3/38
f 49/3/39 69/6/38 70/6/39
f 61/6/25 49/3/39 70/6/39
f 49/3/39 61/6/25 56/3/25
f 50/4/30 67/5/40 64/5/28
f 67/5/40 50/4/30 51/4/41
f 66/5/32 54/4/37 68/5/36
f 54/4/37 66/5/32 52/4/34
f 51/4/41 59/5/21 67/5/40
f 59/5/21 51/4/41 57/4/23
f 69/6/42 61/6/42 70/6/42
f 61/6/42 69/6/42 62/6/42
f 2/3/26 69/6/38 1/3/38
f 69/6/38 2/3/26 62/6/26
f 56/3/18 51/4/11 49/3/9
f 51/4/11 56/3/18 57/4/19
f 73/9/45 72/8/44 71/7/43
f 72/8/44 73/9/45 74/8/46
f 74/8/46 73/9/45 75/10/47
f 74/8/46 75/10/47 76/8/48
f 76/8/48 75/10/47 77/11/49
f 76/8/48 77/11/49 78/12/50
f 78/12/50 77/11/49 79/13/51
f 78/12/50 79/13/51 80/14/52
f 80/14/52 79/13/51 81/15/53
f 80/14/52 81/15/53 82/16/54
f 80/14/52 82/16/54 83/17/55
f 83/17/55 82/16/54 84/18/56
f 83/17/55 84/18/56 85/6/57
f 83/17/55 85/6/57 86/19/58
f 86/19/58 85/6/57 87/6/59
f 86/19/58 87/6/59 88/20/60
f 72/8/61 89/7/61 71/7/61
f 89/7/61 72/8/61 90/8/61
f 91/8/64 89/7/63 90/8/62
f 89/7/63 91/8/64 92/9/65
f 92/9/65 91/8/64 93/10/66
f 93/10/66 91/8/64 94/8/67
f 93/10/66 94/8/67 95/11/68
f 95/11/68 94/8/67 96/12/69
f 95/11/68 96/12/69 97/13/70
f 97/13/70 96/12/69 98/14/71
f 97/13/70 98/14/71 99/15/72
f 99/15/72 98/14/71 100/16/73
f 100/16/73 98/14/71 101/17/74
f 100/16/73 101/17/74 102/18/75
f 102/18/75 101/17/74 103/6/76
f 103/6/76 101/17/74 104/19/77
f 103/6/76 104/19/77 105/6/78
f 105/6/78 104/19/77 106/20/79
f 106/20/79 87/6/59 105/6/78
f 87/6/59 106/20/79 88/20/60
f 104/19/77 88/20/60 106/20/79
f 88/20/60 104/19/77 86/19/58
f 101/17/74 86/19/58 104/19/77
f 86/19/58 101/17/74 83/17/55
f 98/14/71 83/17/55 101/17/74
f 83/17/55 98/14/71 80/14/52
f 78/12/50 98/14/71 96/12/69
f 98/14/71 78/12/50 80/14/52
f 94/8/67 78/12/50 96/12/69
f 78/12/50 94/8/67 76/8/48
f 74/8/46 94/8/67 91/8/64
f 94/8/67 74/8/46 76/8/48
f 72/8/44 91/8/64 90/8/62
f 91/8/64 72/8/44 74/8/46
f 73/9/45 89/7/63 92/9/65
f 89/7/63 73/9/45 71/7/43
f 75/10/47 92/9/65 93/10/66
f 92/9/65 75/10/47 73/9/45
f 77/11/49 93/10/66 95/11/68
f 93/10/66 77/11/49 75/10/47
f 79/13/51 95/11/68 97/13/70
f 95/11/68 79/13/51 77/11/49
f 79/13/51 99/15/72 81/15/53
f 99/15/72 79/13/51 97/13/70
f 82/16/54 99/15/72 100/16/73
f 99/15/72 82/16/54 81/15/53
f 84/18/56 100/16/73 102/18/75
f 100/16/73 84/18/56 82/16/54
f 85/6/57 102/18/75 103/6/76
f 102/18/75 85/6/57 84/18/56
f 109/9/45 108/8/44 107/7/43
f 108/8/44 109/9/45 110/8/46
f 110/8/46 109/9/45 111/10/47
f 110/8/46 111/10/47 112/8/48
f 112/8/48 111/10/47 113/11/49
f 112/8/48 113/11/49 114/12/50
f 114/12/50 113/11/49 115/13/51
f 114/12/50 115/13/51 116/14/52
f 116/14/52 115/13/51 117/15/53
f 116/14/52 117/15/53 118/16/54
f 116/14/52 118/16/54 119/17/55
f 119/17/55 118/16/54 120/18/56
f 119/17/55 120/18/56 121/6/57
f 119/17/55 121/6/57 122/19/58
f 122/19/58 121/6/57 123/6/59
f 122/19/58 123/6/59 124/20/60
f 108/8/61 125/7/61 107/7/61
f 125/7/61 108/8/61 126/8/61
f 127/8/64 125/7/63 126/8/62
f 125/7/63 127/8/64 24/9/65
f 24/9/65 127/8/64 128/10/66
f 128/10/66 127/8/64 129/8/67
f 128/10/66 129/8/67 130/11/68
f 130/11/68 129/8/67 131/12/69
f 130/11/68 131/12/69 132/13/70
f 132/13/70 131/12/69 133/14/71
f 132/13/70 133/14/71 134/15/72
f 134/15/72 133/14/71 135/16/73
f 135/16/73 133/14/71 136/17/74
f 135/16/73 136/17/74 137/18/75
f 137/18/75 136/17/74 138/6/76
f 138/6/76 136/17/74 139/19/77
f 138/6/76 139/19/77 140/6/78
f 140/6/78 139/19/77 141/20/79
f 141/20/79 123/6/59 140/6/78
f 123/6/59 141/20/79 124/20/60
f 139/19/77 124/20/60 141/20/79
f 124/20/60 139/19/77 122/19/58
f 136/17/74 122/19/58 139/19/77
f 122/19/58 136/17/74 119/17/55
f 133/14/71 119/17/55 136/17/74
f 119/17/55 133/14/71 116/14/52
f 114/12/50 133/14/71 131/12/69
f 133/14/71 114/12/50 116/14/52
f 129/8/67 114/12/50 131/12/69
f 114/12/50 129/8/67 112/8/48
f 110/8/46 129/8/67 127/8/64
f 129/8/67 110/8/46 112/8/48
f 108/8/44 127/8/64 126/8/62
f 127/8/64 108/8/44 110/8/46
f 109/9/45 125/7/63 24/9/65
f 125/7/63 109/9/45 107/7/43
f 111/10/47 24/9/65 128/10/66
f 24/9/65 111/10/47 109/9/45
f 113/11/49 128/10/66 130/11/68
f 128/10/66 113/11/49 111/10/47
f 115/13/51 130/11/68 132/13/70
f 130/11/68 115/13/51 113/11/49
f 115/13/51 134/15/72 117/15/53
f 134/15/72 115/13/51 132/13/70
f 118/16/54 134/15/72 135/16/73
f 134/15/72 118/16/54 117/15/53
f 120/18/56 135/16/73 137/18/75
f 135/16/73 120/18/56 118/16/54
f 121/6/57 137/18/75 138/6/76
f 137/18/75 121/6/57 120/18/56

