# Created by Kenney (www.kenney.nl)

mtllib fence-closed.mtl

g fence-closed

v -0.390625 0.15 -0.03125 1 1 1
v -0.390625 0.0875 -0.0625 1 1 1
v -0.359375 0.0875 -0.03125 1 1 1
v -0.484375 0.0875 0.03125 1 1 1
v -0.453125 0.15 0.03125 1 1 1
v -0.453125 0.0875 0.0625 1 1 1
v -0.484375 0.0875 -0.03125 1 1 1
v -0.453125 0.0875 -0.0625 1 1 1
v -0.453125 0.15 -0.03125 1 1 1
v -0.390625 0.15 0.03125 1 1 1
v -0.359375 0.0875 0.03125 1 1 1
v -0.390625 0.0875 0.0625 1 1 1
v -0.34375 2.003707E-32 0.0390625 1 1 1
v -0.3828125 2.003707E-32 0.078125 1 1 1
v -0.390625 0.6375 0.03125 1 1 1
v -0.453125 0.6375 0.03125 1 1 1
v -0.4609375 2.003707E-32 -0.078125 1 1 1
v -0.3828125 2.003707E-32 -0.078125 1 1 1
v -0.4609375 2.003707E-32 0.078125 1 1 1
v -0.5 2.003707E-32 0.0390625 1 1 1
v -0.34375 2.003707E-32 -0.0390625 1 1 1
v -0.5 2.003707E-32 -0.0390625 1 1 1
v -0.453125 0.6375 -0.03125 1 1 1
v -0.390625 0.6375 -0.03125 1 1 1
v 0.453125 0.15 -0.03125 1 1 1
v 0.453125 0.0875 -0.0625 1 1 1
v 0.484375 0.0875 -0.03125 1 1 1
v 0.359375 0.0875 0.03125 1 1 1
v 0.390625 0.15 0.03125 1 1 1
v 0.390625 0.0875 0.0625 1 1 1
v 0.359375 0.0875 -0.03125 1 1 1
v 0.390625 0.0875 -0.0625 1 1 1
v 0.390625 0.15 -0.03125 1 1 1
v 0.453125 0.15 0.03125 1 1 1
v 0.484375 0.0875 0.03125 1 1 1
v 0.453125 0.0875 0.0625 1 1 1
v 0.5 2.003707E-32 0.0390625 1 1 1
v 0.4609375 2.003707E-32 0.078125 1 1 1
v 0.453125 0.6375 0.03125 1 1 1
v 0.390625 0.6375 0.03125 1 1 1
v 0.3828125 2.003707E-32 -0.078125 1 1 1
v 0.4609375 2.003707E-32 -0.078125 1 1 1
v 0.3828125 2.003707E-32 0.078125 1 1 1
v 0.34375 2.003707E-32 0.0390625 1 1 1
v 0.5 2.003707E-32 -0.0390625 1 1 1
v 0.34375 2.003707E-32 -0.0390625 1 1 1
v 0.390625 0.6375 -0.03125 1 1 1
v 0.453125 0.6375 -0.03125 1 1 1
v -0.390625 0.15 -0.03125 1 1 1
v -0.390625 0.15 0.03125 1 1 1
v -0.390625 0.0875 0.03125 1 1 1
v 0.390625 0.0875 0.03125 1 1 1
v 0.390625 0.0875 -0.03125 1 1 1
v -0.390625 0.0875 -0.03125 1 1 1
v 0.390625 0.575 -0.03125 1 1 1
v 0.390625 0.575 0.03125 1 1 1
v -0.390625 0.575 -0.03125 1 1 1
v -0.390625 0.575 0.03125 1 1 1
v -0.390625 0.5125 0.03125 1 1 1
v 0.390625 0.5125 0.03125 1 1 1
v 0.390625 0.5125 -0.03125 1 1 1
v -0.390625 0.5125 -0.03125 1 1 1
v 0.390625 0.15 1.443823E-15 1 1 1
v -0.390625 0.15 1.443823E-15 1 1 1
v 0.390625 0.5125 1.443823E-15 1 1 1
v -0.390625 0.5125 1.443823E-15 1 1 1

vn 0.5997861 0.5296351 -0.5997861
vn 0.315808 0.4243266 -0.8486531
vn 0.8486531 0.4243266 -0.315808
vn -0.8486531 0.4243266 0.315808
vn -0.5997861 0.5296351 0.5997861
vn -0.315808 0.4243266 0.8486531
vn -0.8486531 0.4243266 -0.315808
vn -0.315808 0.4243266 -0.8486531
vn -0.5997861 0.5296351 -0.5997861
vn 0.5997861 0.5296351 0.5997861
vn 0.8486531 0.4243266 0.315808
vn 0.315808 0.4243266 0.8486531
vn 0.9048882 0.1953526 0.3781727
vn 0.3781727 0.1953526 0.9048882
vn 0.9074546 0.1952616 0.3720203
vn 0.3720203 0.1952616 0.9074546
vn 0.7071068 0 0.7071068
vn -0.7071068 0 0.7071068
vn -0.3781727 0.1953526 -0.9048882
vn 0.3781727 0.1953526 -0.9048882
vn -0.3720203 0.1952616 -0.9074546
vn 0.3720203 0.1952616 -0.9074546
vn -0.3781727 0.1953526 0.9048882
vn -0.9048882 0.1953526 0.3781727
vn -0.3720203 0.1952616 0.9074546
vn -0.9074546 0.1952616 0.3720203
vn 0 -1 0
vn -0.9048882 0.1953526 -0.3781727
vn -0.9074546 0.1952616 -0.3720203
vn -0.7071068 0 -0.7071068
vn 0.7071068 0 -0.7071068
vn 0.9048882 0.1953526 -0.3781727
vn 0.9074546 0.1952616 -0.3720203
vn 0 1 0
vn 0 0.7071068 -0.7071068
vn 0 0.7071068 0.7071068
vn 0 -0.7071068 0.7071068
vn 0 -0.7071068 -0.7071068
vn 0 0 1
vn 0 0 -1

vt 0.46875 0.1779412
vt 0.46875 0.197549
vt 0.46875 0.225
vt 0.46875 0.025
vt 0.46875 0.175
vt 0.46875 0.075
vt 0.34375 0.425
vt 0.34375 0.325

usemtl colormap

f 3/2/3 2/2/2 1/1/1
f 6/2/6 5/1/5 4/2/4
f 9/1/9 8/2/8 7/2/7
f 12/2/12 11/2/11 10/1/10
f 11/2/15 14/3/14 13/3/13
f 14/3/14 11/2/15 12/2/16
f 15/4/17 5/1/18 10/1/17
f 5/1/18 15/4/17 16/4/18
f 8/2/21 18/3/20 17/3/19
f 18/3/20 8/2/21 2/2/22
f 9/1/9 2/2/2 8/2/8
f 2/2/2 9/1/9 1/1/1
f 6/2/25 20/3/24 19/3/23
f 20/3/24 6/2/25 4/2/26
f 14/3/27 21/3/27 13/3/27
f 21/3/27 14/3/27 18/3/27
f 18/3/27 14/3/27 19/3/27
f 18/3/27 19/3/27 17/3/27
f 17/3/27 19/3/27 20/3/27
f 17/3/27 20/3/27 22/3/27
f 4/2/4 9/1/9 7/2/7
f 9/1/9 4/2/4 5/1/5
f 7/2/29 17/3/19 22/3/28
f 17/3/19 7/2/29 8/2/21
f 10/1/10 6/2/6 12/2/12
f 6/2/6 10/1/10 5/1/5
f 12/2/16 19/3/23 14/3/14
f 19/3/23 12/2/16 6/2/25
f 23/4/30 1/1/31 9/1/30
f 1/1/31 23/4/30 24/4/31
f 15/4/17 1/1/31 24/4/31
f 1/1/31 15/4/17 10/1/17
f 2/2/22 21/3/32 18/3/20
f 21/3/32 2/2/22 3/2/33
f 20/3/24 7/2/29 22/3/28
f 7/2/29 20/3/24 4/2/26
f 3/2/33 13/3/13 21/3/32
f 13/3/13 3/2/33 11/2/15
f 23/4/34 15/4/34 24/4/34
f 15/4/34 23/4/34 16/4/34
f 5/1/18 23/4/30 9/1/30
f 23/4/30 5/1/18 16/4/18
f 10/1/10 3/2/3 1/1/1
f 3/2/3 10/1/10 11/2/11
f 27/2/3 26/2/2 25/1/1
f 30/2/6 29/1/5 28/2/4
f 33/1/9 32/2/8 31/2/7
f 36/2/12 35/2/11 34/1/10
f 35/2/15 38/3/14 37/3/13
f 38/3/14 35/2/15 36/2/16
f 39/4/17 29/1/18 34/1/17
f 29/1/18 39/4/17 40/4/18
f 32/2/21 42/3/20 41/3/19
f 42/3/20 32/2/21 26/2/22
f 33/1/9 26/2/2 32/2/8
f 26/2/2 33/1/9 25/1/1
f 30/2/25 44/3/24 43/3/23
f 44/3/24 30/2/25 28/2/26
f 38/3/27 45/3/27 37/3/27
f 45/3/27 38/3/27 42/3/27
f 42/3/27 38/3/27 43/3/27
f 42/3/27 43/3/27 41/3/27
f 41/3/27 43/3/27 44/3/27
f 41/3/27 44/3/27 46/3/27
f 28/2/4 33/1/9 31/2/7
f 33/1/9 28/2/4 29/1/5
f 31/2/29 41/3/19 46/3/28
f 41/3/19 31/2/29 32/2/21
f 34/1/10 30/2/6 36/2/12
f 30/2/6 34/1/10 29/1/5
f 36/2/16 43/3/23 38/3/14
f 43/3/23 36/2/16 30/2/25
f 47/4/30 25/1/31 33/1/30
f 25/1/31 47/4/30 48/4/31
f 39/4/17 25/1/31 48/4/31
f 25/1/31 39/4/17 34/1/17
f 26/2/22 45/3/32 42/3/20
f 45/3/32 26/2/22 27/2/33
f 44/3/24 31/2/29 46/3/28
f 31/2/29 44/3/24 28/2/26
f 27/2/33 37/3/13 45/3/32
f 37/3/13 27/2/33 35/2/15
f 47/4/34 39/4/34 48/4/34
f 39/4/34 47/4/34 40/4/34
f 29/1/18 47/4/30 33/1/30
f 47/4/30 29/1/18 40/4/18
f 34/1/10 27/2/3 25/1/1
f 27/2/3 34/1/10 35/2/11
f 49/5/35 29/5/36 33/5/35
f 29/5/36 49/5/35 50/5/36
f 52/6/37 50/5/36 51/6/37
f 50/5/36 52/6/37 29/5/36
f 51/6/37 53/6/38 52/6/37
f 53/6/38 51/6/37 54/6/38
f 49/5/35 53/6/38 54/6/38
f 53/6/38 49/5/35 33/5/35
f 57/5/35 56/5/36 55/5/35
f 56/5/36 57/5/35 58/5/36
f 60/6/37 58/5/36 59/6/37
f 58/5/36 60/6/37 56/5/36
f 59/6/37 61/6/38 60/6/37
f 61/6/38 59/6/37 62/6/38
f 57/5/35 61/6/38 62/6/38
f 61/6/38 57/5/35 55/5/35
f 65/8/39 64/7/39 63/7/39
f 64/7/39 65/8/39 66/8/39
f 63/7/40 64/7/40 65/8/40
f 66/8/40 65/8/40 64/7/40

g fence-closed




usemtl colormap

f 3/2/3 2/2/2 1/1/1
f 6/2/6 5/1/5 4/2/4
f 9/1/9 8/2/8 7/2/7
f 12/2/12 11/2/11 10/1/10
f 11/2/15 14/3/14 13/3/13
f 14/3/14 11/2/15 12/2/16
f 15/4/17 5/1/18 10/1/17
f 5/1/18 15/4/17 16/4/18
f 8/2/21 18/3/20 17/3/19
f 18/3/20 8/2/21 2/2/22
f 9/1/9 2/2/2 8/2/8
f 2/2/2 9/1/9 1/1/1
f 6/2/25 20/3/24 19/3/23
f 20/3/24 6/2/25 4/2/26
f 14/3/27 21/3/27 13/3/27
f 21/3/27 14/3/27 18/3/27
f 18/3/27 14/3/27 19/3/27
f 18/3/27 19/3/27 17/3/27
f 17/3/27 19/3/27 20/3/27
f 17/3/27 20/3/27 22/3/27
f 4/2/4 9/1/9 7/2/7
f 9/1/9 4/2/4 5/1/5
f 7/2/29 17/3/19 22/3/28
f 17/3/19 7/2/29 8/2/21
f 10/1/10 6/2/6 12/2/12
f 6/2/6 10/1/10 5/1/5
f 12/2/16 19/3/23 14/3/14
f 19/3/23 12/2/16 6/2/25
f 23/4/30 1/1/31 9/1/30
f 1/1/31 23/4/30 24/4/31
f 15/4/17 1/1/31 24/4/31
f 1/1/31 15/4/17 10/1/17
f 2/2/22 21/3/32 18/3/20
f 21/3/32 2/2/22 3/2/33
f 20/3/24 7/2/29 22/3/28
f 7/2/29 20/3/24 4/2/26
f 3/2/33 13/3/13 21/3/32
f 13/3/13 3/2/33 11/2/15
f 23/4/34 15/4/34 24/4/34
f 15/4/34 23/4/34 16/4/34
f 5/1/18 23/4/30 9/1/30
f 23/4/30 5/1/18 16/4/18
f 10/1/10 3/2/3 1/1/1
f 3/2/3 10/1/10 11/2/11
f 27/2/3 26/2/2 25/1/1
f 30/2/6 29/1/5 28/2/4
f 33/1/9 32/2/8 31/2/7
f 36/2/12 35/2/11 34/1/10
f 35/2/15 38/3/14 37/3/13
f 38/3/14 35/2/15 36/2/16
f 39/4/17 29/1/18 34/1/17
f 29/1/18 39/4/17 40/4/18
f 32/2/21 42/3/20 41/3/19
f 42/3/20 32/2/21 26/2/22
f 33/1/9 26/2/2 32/2/8
f 26/2/2 33/1/9 25/1/1
f 30/2/25 44/3/24 43/3/23
f 44/3/24 30/2/25 28/2/26
f 38/3/27 45/3/27 37/3/27
f 45/3/27 38/3/27 42/3/27
f 42/3/27 38/3/27 43/3/27
f 42/3/27 43/3/27 41/3/27
f 41/3/27 43/3/27 44/3/27
f 41/3/27 44/3/27 46/3/27
f 28/2/4 33/1/9 31/2/7
f 33/1/9 28/2/4 29/1/5
f 31/2/29 41/3/19 46/3/28
f 41/3/19 31/2/29 32/2/21
f 34/1/10 30/2/6 36/2/12
f 30/2/6 34/1/10 29/1/5
f 36/2/16 43/3/23 38/3/14
f 43/3/23 36/2/16 30/2/25
f 47/4/30 25/1/31 33/1/30
f 25/1/31 47/4/30 48/4/31
f 39/4/17 25/1/31 48/4/31
f 25/1/31 39/4/17 34/1/17
f 26/2/22 45/3/32 42/3/20
f 45/3/32 26/2/22 27/2/33
f 44/3/24 31/2/29 46/3/28
f 31/2/29 44/3/24 28/2/26
f 27/2/33 37/3/13 45/3/32
f 37/3/13 27/2/33 35/2/15
f 47/4/34 39/4/34 48/4/34
f 39/4/34 47/4/34 40/4/34
f 29/1/18 47/4/30 33/1/30
f 47/4/30 29/1/18 40/4/18
f 34/1/10 27/2/3 25/1/1
f 27/2/3 34/1/10 35/2/11
f 49/5/35 29/5/36 33/5/35
f 29/5/36 49/5/35 50/5/36
f 52/6/37 50/5/36 51/6/37
f 50/5/36 52/6/37 29/5/36
f 51/6/37 53/6/38 52/6/37
f 53/6/38 51/6/37 54/6/38
f 49/5/35 53/6/38 54/6/38
f 53/6/38 49/5/35 33/5/35
f 57/5/35 56/5/36 55/5/35
f 56/5/36 57/5/35 58/5/36
f 60/6/37 58/5/36 59/6/37
f 58/5/36 60/6/37 56/5/36
f 59/6/37 61/6/38 60/6/37
f 61/6/38 59/6/37 62/6/38
f 57/5/35 61/6/38 62/6/38
f 61/6/38 57/5/35 55/5/35
f 65/8/39 64/7/39 63/7/39
f 64/7/39 65/8/39 66/8/39
f 63/7/40 64/7/40 65/8/40
f 66/8/40 65/8/40 64/7/40

