# Created by Kenney (www.kenney.nl)

mtllib fence-closed-tall.mtl

g fence-closed-tall

v 0.390625 0.15 1.443823E-15 1 1 1
v -0.390625 0.15 1.443823E-15 1 1 1
v 0.390625 0.5125 1.443823E-15 1 1 1
v -0.390625 0.5125 1.443823E-15 1 1 1
v -0.390625 0.7094395 -0.007085435 1 1 1
v -0.390625 0.7786145 -0.02806942 1 1 1
v 0.390625 0.7094395 -0.007085435 1 1 1
v 0.390625 0.7786145 -0.02806942 1 1 1
v -0.390625 0.6375 0 1 1 1
v 0.390625 0.6375 0 1 1 1
v -0.390625 0.575 0 1 1 1
v 0.390625 0.575 0 1 1 1
v 0.390625 0.9802766 -0.2340268 1 1 1
v 0.390625 0.9781805 -0.2276355 1 1 1
v -0.390625 0.9802766 -0.2340268 1 1 1
v -0.390625 0.9781805 -0.2276355 1 1 1
v 0.390625 0.9441044 -0.1638835 1 1 1
v -0.390625 0.9441044 -0.1638835 1 1 1
v 0.390625 0.8982456 -0.1080044 1 1 1
v -0.390625 0.8982456 -0.1080044 1 1 1
v 0.390625 0.8423665 -0.06214558 1 1 1
v -0.390625 0.8423665 -0.06214558 1 1 1
v 0.390625 0.15 -0.03125 1 1 1
v 0.390625 0.15 0.03125 1 1 1
v -0.390625 0.15 -0.03125 1 1 1
v -0.390625 0.15 0.03125 1 1 1
v -0.390625 0.0875 0.03125 1 1 1
v 0.390625 0.0875 0.03125 1 1 1
v 0.390625 0.0875 -0.03125 1 1 1
v -0.390625 0.0875 -0.03125 1 1 1
v 0.390625 0.575 -0.03125 1 1 1
v 0.390625 0.575 0.03125 1 1 1
v -0.390625 0.575 -0.03125 1 1 1
v -0.390625 0.575 0.03125 1 1 1
v -0.390625 0.5125 0.03125 1 1 1
v 0.390625 0.5125 0.03125 1 1 1
v 0.390625 0.5125 -0.03125 1 1 1
v -0.390625 0.5125 -0.03125 1 1 1
v 0.390625 1.028324 -0.2847642 1 1 1
v 0.390625 1.010181 -0.2249554 1 1 1
v -0.390625 1.028324 -0.2847642 1 1 1
v -0.390625 1.010181 -0.2249554 1 1 1
v -0.390625 0.9503722 -0.2430982 1 1 1
v 0.390625 0.9503722 -0.2430982 1 1 1
v 0.390625 0.968515 -0.302907 1 1 1
v -0.390625 0.968515 -0.302907 1 1 1
v -0.390625 0.15 -0.03125 1 1 1
v -0.390625 0.0875 -0.0625 1 1 1
v -0.359375 0.0875 -0.03125 1 1 1
v -0.484375 0.0875 0.03125 1 1 1
v -0.453125 0.15 0.03125 1 1 1
v -0.453125 0.0875 0.0625 1 1 1
v -0.484375 0.0875 -0.03125 1 1 1
v -0.453125 0.0875 -0.0625 1 1 1
v -0.453125 0.15 -0.03125 1 1 1
v -0.390625 0.15 0.03125 1 1 1
v -0.359375 0.0875 0.03125 1 1 1
v -0.390625 0.0875 0.0625 1 1 1
v -0.34375 2.003707E-32 0.0390625 1 1 1
v -0.3828125 2.003707E-32 0.078125 1 1 1
v -0.390625 0.6375 0.03125 1 1 1
v -0.453125 0.6375 0.03125 1 1 1
v -0.4609375 2.003707E-32 -0.078125 1 1 1
v -0.3828125 2.003707E-32 -0.078125 1 1 1
v -0.4609375 2.003707E-32 0.078125 1 1 1
v -0.5 2.003707E-32 0.0390625 1 1 1
v -0.34375 2.003707E-32 -0.0390625 1 1 1
v -0.5 2.003707E-32 -0.0390625 1 1 1
v -0.453125 0.6375 -0.03125 1 1 1
v -0.390625 0.6375 -0.03125 1 1 1
v 0.453125 0.15 -0.03125 1 1 1
v 0.453125 0.0875 -0.0625 1 1 1
v 0.484375 0.0875 -0.03125 1 1 1
v 0.359375 0.0875 0.03125 1 1 1
v 0.390625 0.0875 0.0625 1 1 1
v 0.359375 0.0875 -0.03125 1 1 1
v 0.390625 0.0875 -0.0625 1 1 1
v 0.453125 0.15 0.03125 1 1 1
v 0.484375 0.0875 0.03125 1 1 1
v 0.453125 0.0875 0.0625 1 1 1
v 0.5 2.003707E-32 0.0390625 1 1 1
v 0.4609375 2.003707E-32 0.078125 1 1 1
v 0.453125 0.6375 0.03125 1 1 1
v 0.390625 0.6375 0.03125 1 1 1
v 0.3828125 2.003707E-32 -0.078125 1 1 1
v 0.4609375 2.003707E-32 -0.078125 1 1 1
v 0.3828125 2.003707E-32 0.078125 1 1 1
v 0.34375 2.003707E-32 0.0390625 1 1 1
v 0.5 2.003707E-32 -0.0390625 1 1 1
v 0.34375 2.003707E-32 -0.0390625 1 1 1
v 0.390625 0.6375 -0.03125 1 1 1
v 0.453125 0.6375 -0.03125 1 1 1
v 0.390625 0.975 -0.36875 1 1 1
v 0.390625 1.0375 -0.36875 1 1 1
v 0.390625 0.968515 -0.302907 1 1 1
v 0.390625 1.029814 -0.2907139 1 1 1
v 0.390625 0.9493093 -0.2395944 1 1 1
v 0.390625 1.007052 -0.2156766 1 1 1
v 0.390625 0.918121 -0.1812451 1 1 1
v 0.390625 0.9700878 -0.1465219 1 1 1
v 0.390625 0.8761485 -0.1301015 1 1 1
v 0.390625 0.9203427 -0.08590728 1 1 1
v 0.390625 0.8250049 -0.08812898 1 1 1
v 0.390625 0.7666556 -0.05694062 1 1 1
v 0.390625 0.8597281 -0.03616214 1 1 1
v 0.390625 0.703343 -0.03773499 1 1 1
v 0.390625 0.6375 -0.03125 1 1 1
v 0.390625 0.7905734 0.0008018017 1 1 1
v 0.390625 0.6375 0.03125 1 1 1
v 0.390625 0.7155361 0.0235641 1 1 1
v 0.453125 0.975 -0.36875 1 1 1
v 0.453125 1.0375 -0.36875 1 1 1
v 0.453125 1.029814 -0.2907139 1 1 1
v 0.453125 0.968515 -0.302907 1 1 1
v 0.453125 0.9493093 -0.2395944 1 1 1
v 0.453125 1.007052 -0.2156766 1 1 1
v 0.453125 0.918121 -0.1812451 1 1 1
v 0.453125 0.9700878 -0.1465219 1 1 1
v 0.453125 0.8761485 -0.1301015 1 1 1
v 0.453125 0.9203427 -0.08590728 1 1 1
v 0.453125 0.8250049 -0.08812898 1 1 1
v 0.453125 0.7666556 -0.05694062 1 1 1
v 0.453125 0.8597281 -0.03616214 1 1 1
v 0.453125 0.703343 -0.03773499 1 1 1
v 0.453125 0.6375 -0.03125 1 1 1
v 0.453125 0.7905734 0.0008018017 1 1 1
v 0.453125 0.6375 0.03125 1 1 1
v 0.453125 0.7155361 0.0235641 1 1 1
v -0.453125 0.975 -0.36875 1 1 1
v -0.453125 1.0375 -0.36875 1 1 1
v -0.453125 0.968515 -0.302907 1 1 1
v -0.453125 1.029814 -0.2907139 1 1 1
v -0.453125 0.9493093 -0.2395944 1 1 1
v -0.453125 1.007052 -0.2156766 1 1 1
v -0.453125 0.918121 -0.1812451 1 1 1
v -0.453125 0.9700878 -0.1465219 1 1 1
v -0.453125 0.8761485 -0.1301015 1 1 1
v -0.453125 0.9203427 -0.08590728 1 1 1
v -0.453125 0.8250049 -0.08812898 1 1 1
v -0.453125 0.7666556 -0.05694062 1 1 1
v -0.453125 0.8597281 -0.03616214 1 1 1
v -0.453125 0.703343 -0.03773499 1 1 1
v -0.453125 0.6375 -0.03125 1 1 1
v -0.453125 0.7905734 0.0008018017 1 1 1
v -0.453125 0.6375 0.03125 1 1 1
v -0.453125 0.7155361 0.0235641 1 1 1
v -0.390625 0.975 -0.36875 1 1 1
v -0.390625 1.0375 -0.36875 1 1 1
v -0.390625 1.029814 -0.2907139 1 1 1
v -0.390625 0.9493093 -0.2395944 1 1 1
v -0.390625 1.007052 -0.2156766 1 1 1
v -0.390625 0.918121 -0.1812451 1 1 1
v -0.390625 0.9700878 -0.1465219 1 1 1
v -0.390625 0.8761485 -0.1301015 1 1 1
v -0.390625 0.9203427 -0.08590728 1 1 1
v -0.390625 0.8250049 -0.08812898 1 1 1
v -0.390625 0.7666556 -0.05694062 1 1 1
v -0.390625 0.8597281 -0.03616214 1 1 1
v -0.390625 0.703343 -0.03773499 1 1 1
v -0.390625 0.6375 -0.03125 1 1 1
v -0.390625 0.7905734 0.0008018017 1 1 1
v -0.390625 0.6375 0.03125 1 1 1
v -0.390625 0.7155361 0.0235641 1 1 1

vn 0 0 1
vn 0 0 -1
vn 0 0.1950903 0.9807853
vn 0 0.3826834 0.9238795
vn 0 -0.1950903 -0.9807853
vn 0 -0.3826834 -0.9238795
vn 0 0.04906768 0.9987955
vn 0 -0.04906768 -0.9987955
vn 0 0.9502067 0.3116202
vn 0 0.9195409 0.3929944
vn 0 0.8314696 0.5555702
vn 0 -0.9195409 -0.3929944
vn 0 -0.8314696 -0.5555702
vn 0 0.7071068 0.7071068
vn 0 -0.7071068 -0.7071068
vn 0 0.5555702 0.8314696
vn 0 -0.5555702 -0.8314696
vn 0 -0.9502067 -0.3116202
vn 0 0.7071068 -0.7071068
vn 0 -0.7071068 0.7071068
vn 1.616229E-15 0.8819212 -0.4713967
vn 3.912359E-16 0.4713967 0.8819212
vn -1.616229E-15 -0.8819212 0.4713967
vn -3.912359E-16 -0.4713967 -0.8819212
vn 0.5997861 0.5296351 -0.5997861
vn 0.315808 0.4243266 -0.8486531
vn 0.8486531 0.4243266 -0.315808
vn -0.8486531 0.4243266 0.315808
vn -0.5997861 0.5296351 0.5997861
vn -0.315808 0.4243266 0.8486531
vn -0.8486531 0.4243266 -0.315808
vn -0.315808 0.4243266 -0.8486531
vn -0.5997861 0.5296351 -0.5997861
vn 0.5997861 0.5296351 0.5997861
vn 0.8486531 0.4243266 0.315808
vn 0.315808 0.4243266 0.8486531
vn 0.9048882 0.1953526 0.3781727
vn 0.3781727 0.1953526 0.9048882
vn 0.9074546 0.1952616 0.3720203
vn 0.3720203 0.1952616 0.9074546
vn 0.7071068 0 0.7071068
vn -0.7071068 0 0.7071068
vn -0.3781727 0.1953526 -0.9048882
vn 0.3781727 0.1953526 -0.9048882
vn -0.3720203 0.1952616 -0.9074546
vn 0.3720203 0.1952616 -0.9074546
vn -0.3781727 0.1953526 0.9048882
vn -0.9048882 0.1953526 0.3781727
vn -0.3720203 0.1952616 0.9074546
vn -0.9074546 0.1952616 0.3720203
vn 0 -1 0
vn -0.9048882 0.1953526 -0.3781727
vn -0.9074546 0.1952616 -0.3720203
vn -0.7071068 0 -0.7071068
vn 0.7071068 0 -0.7071068
vn 0.9048882 0.1953526 -0.3781727
vn 0.9074546 0.1952616 -0.3720203
vn 0 1 0
vn -0.7282 -0.6820645 -0.06717749
vn -0.6839411 0.7260243 0.07150715
vn -0.7298487 -0.6704734 -0.1333655
vn -0.6856964 0.7139015 0.1420038
vn -0.7298487 -0.6315721 -0.2616057
vn -0.6856964 0.6724805 0.2785505
vn -0.7298487 -0.5683999 -0.3797927
vn -0.6856964 0.6052164 0.4043927
vn -0.7298487 -0.4833843 -0.4833843
vn -0.6856964 0.5146943 0.5146943
vn -0.7298487 -0.3797927 -0.5683999
vn -0.7298487 -0.2616057 -0.6315721
vn -0.6856964 0.4043927 0.6052164
vn -0.7298487 -0.1333655 -0.6704735
vn -0.7282 -0.06717749 -0.6820645
vn -0.6856964 0.2785505 0.6724805
vn -0.6839411 0.07150715 0.7260243
vn -0.6856964 0.1420038 0.7139015
vn 0.6839411 0.7260243 0.07150715
vn 0.7282 -0.6820645 -0.06717749
vn 0.6856964 0.7139015 0.1420038
vn 0.7298487 -0.6704734 -0.1333655
vn 0.7298487 -0.6315721 -0.2616057
vn 0.6856964 0.6724805 0.2785505
vn 0.7298487 -0.5683999 -0.3797927
vn 0.6856964 0.6052164 0.4043927
vn 0.7298487 -0.4833843 -0.4833843
vn 0.6856964 0.5146943 0.5146943
vn 0.7298487 -0.3797927 -0.5683999
vn 0.7298487 -0.2616057 -0.6315721
vn 0.6856964 0.4043927 0.6052164
vn 0.7298487 -0.1333655 -0.6704735
vn 0.7282 -0.06717749 -0.6820645
vn 0.6856964 0.2785505 0.6724805
vn 0.6839411 0.07150715 0.7260243
vn 0.6856964 0.1420038 0.7139015

vt 0.34375 0.425
vt 0.34375 0.325
vt 0.34375 0.3918277
vt 0.34375 0.3747591
vt 0.34375 0.4095784
vt 0.21875 0.325
vt 0.21875 0.3255172
vt 0.21875 0.3339253
vt 0.21875 0.3452407
vt 0.21875 0.3590286
vt 0.21875 0.3747591
vt 0.34375 0.075
vt 0.34375 0.07551719
vt 0.46875 0.175
vt 0.46875 0.075
vt 0.46875 0.055
vt 0.46875 0.0425
vt 0.46875 0.025
vt 0.46875 0.1525
vt 0.46875 0.22
vt 0.46875 0.225
vt 0.46875 0.218703
vt 0.46875 0.2148619
vt 0.46875 0.2086242
vt 0.46875 0.2190176
vt 0.46875 0.2002297
vt 0.46875 0.2090685
vt 0.46875 0.190001
vt 0.46875 0.1783311
vt 0.46875 0.1969456
vt 0.46875 0.1656686
vt 0.46875 0.1831147
vt 0.46875 0.1681072

usemtl colormap

f 3/2/1 2/1/1 1/1/1
f 2/1/1 3/2/1 4/2/1
f 1/1/2 2/1/2 3/2/2
f 4/2/2 3/2/2 2/1/2
f 7/3/3 6/4/4 5/3/3
f 6/4/4 7/3/3 8/4/4
f 5/3/5 6/4/6 7/3/5
f 8/4/6 7/3/5 6/4/6
f 10/5/7 5/3/3 9/5/7
f 5/3/3 10/5/7 7/3/3
f 9/5/8 5/3/5 10/5/8
f 7/3/5 10/5/8 5/3/5
f 12/1/1 9/5/7 11/1/1
f 9/5/7 12/1/1 10/5/7
f 11/1/2 9/5/8 12/1/2
f 10/5/8 12/1/2 9/5/8
f 15/6/9 14/7/10 13/6/9
f 14/7/10 15/6/9 16/7/10
f 16/7/10 17/8/11 14/7/10
f 17/8/11 16/7/10 18/8/11
f 14/7/12 17/8/13 16/7/12
f 18/8/13 16/7/12 17/8/13
f 18/8/11 19/9/14 17/8/11
f 19/9/14 18/8/11 20/9/14
f 17/8/13 19/9/15 18/8/13
f 20/9/15 18/8/13 19/9/15
f 19/9/14 22/10/16 21/10/16
f 22/10/16 19/9/14 20/9/14
f 21/10/17 22/10/17 19/9/15
f 20/9/15 19/9/15 22/10/17
f 8/11/4 22/10/16 6/11/4
f 22/10/16 8/11/4 21/10/16
f 6/11/6 22/10/17 8/11/6
f 21/10/17 8/11/6 22/10/17
f 13/12/18 14/13/12 15/12/18
f 16/13/12 15/12/18 14/13/12
f 25/14/19 24/14/14 23/14/19
f 24/14/14 25/14/19 26/14/14
f 28/15/20 26/14/14 27/15/20
f 26/14/14 28/15/20 24/14/14
f 27/15/20 29/15/15 28/15/20
f 29/15/15 27/15/20 30/15/15
f 25/14/19 29/15/15 30/15/15
f 29/15/15 25/14/19 23/14/19
f 33/14/19 32/14/14 31/14/19
f 32/14/14 33/14/19 34/14/14
f 36/15/20 34/14/14 35/15/20
f 34/14/14 36/15/20 32/14/14
f 35/15/20 37/15/15 36/15/20
f 37/15/15 35/15/20 38/15/15
f 33/14/19 37/15/15 38/15/15
f 37/15/15 33/14/19 31/14/19
f 41/14/21 40/14/22 39/14/21
f 40/14/22 41/14/21 42/14/22
f 44/15/23 42/14/22 43/15/23
f 42/14/22 44/15/23 40/14/22
f 43/15/23 45/15/24 44/15/23
f 45/15/24 43/15/23 46/15/24
f 41/14/21 45/15/24 46/15/24
f 45/15/24 41/14/21 39/14/21
f 49/17/27 48/17/26 47/16/25
f 52/17/30 51/16/29 50/17/28
f 55/16/33 54/17/32 53/17/31
f 58/17/36 57/17/35 56/16/34
f 57/17/39 60/18/38 59/18/37
f 60/18/38 57/17/39 58/17/40
f 61/19/41 51/16/42 56/16/41
f 51/16/42 61/19/41 62/19/42
f 54/17/45 64/18/44 63/18/43
f 64/18/44 54/17/45 48/17/46
f 55/16/33 48/17/26 54/17/32
f 48/17/26 55/16/33 47/16/25
f 52/17/49 66/18/48 65/18/47
f 66/18/48 52/17/49 50/17/50
f 60/18/51 67/18/51 59/18/51
f 67/18/51 60/18/51 64/18/51
f 64/18/51 60/18/51 65/18/51
f 64/18/51 65/18/51 63/18/51
f 63/18/51 65/18/51 66/18/51
f 63/18/51 66/18/51 68/18/51
f 50/17/28 55/16/33 53/17/31
f 55/16/33 50/17/28 51/16/29
f 53/17/53 63/18/43 68/18/52
f 63/18/43 53/17/53 54/17/45
f 56/16/34 52/17/30 58/17/36
f 52/17/30 56/16/34 51/16/29
f 58/17/40 65/18/47 60/18/38
f 65/18/47 58/17/40 52/17/49
f 69/19/54 47/16/55 55/16/54
f 47/16/55 69/19/54 70/19/55
f 61/19/41 47/16/55 70/19/55
f 47/16/55 61/19/41 56/16/41
f 48/17/46 67/18/56 64/18/44
f 67/18/56 48/17/46 49/17/57
f 66/18/48 53/17/53 68/18/52
f 53/17/53 66/18/48 50/17/50
f 49/17/57 59/18/37 67/18/56
f 59/18/37 49/17/57 57/17/39
f 69/19/58 61/19/58 70/19/58
f 61/19/58 69/19/58 62/19/58
f 51/16/42 69/19/54 55/16/54
f 69/19/54 51/16/42 62/19/42
f 56/16/34 49/17/27 47/16/25
f 49/17/27 56/16/34 57/17/35
f 73/17/27 72/17/26 71/16/25
f 75/17/30 24/16/29 74/17/28
f 23/16/33 77/17/32 76/17/31
f 80/17/36 79/17/35 78/16/34
f 79/17/39 82/18/38 81/18/37
f 82/18/38 79/17/39 80/17/40
f 83/19/41 24/16/42 78/16/41
f 24/16/42 83/19/41 84/19/42
f 77/17/45 86/18/44 85/18/43
f 86/18/44 77/17/45 72/17/46
f 23/16/33 72/17/26 77/17/32
f 72/17/26 23/16/33 71/16/25
f 75/17/49 88/18/48 87/18/47
f 88/18/48 75/17/49 74/17/50
f 82/18/51 89/18/51 81/18/51
f 89/18/51 82/18/51 86/18/51
f 86/18/51 82/18/51 87/18/51
f 86/18/51 87/18/51 85/18/51
f 85/18/51 87/18/51 88/18/51
f 85/18/51 88/18/51 90/18/51
f 74/17/28 23/16/33 76/17/31
f 23/16/33 74/17/28 24/16/29
f 76/17/53 85/18/43 90/18/52
f 85/18/43 76/17/53 77/17/45
f 78/16/34 75/17/30 80/17/36
f 75/17/30 78/16/34 24/16/29
f 80/17/40 87/18/47 82/18/38
f 87/18/47 80/17/40 75/17/49
f 91/19/54 71/16/55 23/16/54
f 71/16/55 91/19/54 92/19/55
f 83/19/41 71/16/55 92/19/55
f 71/16/55 83/19/41 78/16/41
f 72/17/46 89/18/56 86/18/44
f 89/18/56 72/17/46 73/17/57
f 88/18/48 76/17/53 90/18/52
f 76/17/53 88/18/48 74/17/50
f 73/17/57 81/18/37 89/18/56
f 81/18/37 73/17/57 79/17/39
f 91/19/58 83/19/58 92/19/58
f 83/19/58 91/19/58 84/19/58
f 24/16/42 91/19/54 23/16/54
f 91/19/54 24/16/42 84/19/42
f 78/16/34 73/17/27 71/16/25
f 73/17/27 78/16/34 79/17/35
f 95/22/61 94/21/60 93/20/59
f 94/21/60 95/22/61 96/21/62
f 96/21/62 95/22/61 97/23/63
f 96/21/62 97/23/63 98/21/64
f 98/21/64 97/23/63 99/24/65
f 98/21/64 99/24/65 100/25/66
f 100/25/66 99/24/65 101/26/67
f 100/25/66 101/26/67 102/27/68
f 102/27/68 101/26/67 103/28/69
f 102/27/68 103/28/69 104/29/70
f 102/27/68 104/29/70 105/30/71
f 105/30/71 104/29/70 106/31/72
f 105/30/71 106/31/72 107/19/73
f 105/30/71 107/19/73 108/32/74
f 108/32/74 107/19/73 109/19/75
f 108/32/74 109/19/75 110/33/76
f 94/21/2 111/20/2 93/20/2
f 111/20/2 94/21/2 112/21/2
f 113/21/79 111/20/78 112/21/77
f 111/20/78 113/21/79 114/22/80
f 114/22/80 113/21/79 115/23/81
f 115/23/81 113/21/79 116/21/82
f 115/23/81 116/21/82 117/24/83
f 117/24/83 116/21/82 118/25/84
f 117/24/83 118/25/84 119/26/85
f 119/26/85 118/25/84 120/27/86
f 119/26/85 120/27/86 121/28/87
f 121/28/87 120/27/86 122/29/88
f 122/29/88 120/27/86 123/30/89
f 122/29/88 123/30/89 124/31/90
f 124/31/90 123/30/89 125/19/91
f 125/19/91 123/30/89 126/32/92
f 125/19/91 126/32/92 127/19/93
f 127/19/93 126/32/92 128/33/94
f 128/33/94 109/19/75 127/19/93
f 109/19/75 128/33/94 110/33/76
f 126/32/92 110/33/76 128/33/94
f 110/33/76 126/32/92 108/32/74
f 123/30/89 108/32/74 126/32/92
f 108/32/74 123/30/89 105/30/71
f 120/27/86 105/30/71 123/30/89
f 105/30/71 120/27/86 102/27/68
f 100/25/66 120/27/86 118/25/84
f 120/27/86 100/25/66 102/27/68
f 116/21/82 100/25/66 118/25/84
f 100/25/66 116/21/82 98/21/64
f 96/21/62 116/21/82 113/21/79
f 116/21/82 96/21/62 98/21/64
f 94/21/60 113/21/79 112/21/77
f 113/21/79 94/21/60 96/21/62
f 95/22/61 111/20/78 114/22/80
f 111/20/78 95/22/61 93/20/59
f 97/23/63 114/22/80 115/23/81
f 114/22/80 97/23/63 95/22/61
f 99/24/65 115/23/81 117/24/83
f 115/23/81 99/24/65 97/23/63
f 101/26/67 117/24/83 119/26/85
f 117/24/83 101/26/67 99/24/65
f 101/26/67 121/28/87 103/28/69
f 121/28/87 101/26/67 119/26/85
f 104/29/70 121/28/87 122/29/88
f 121/28/87 104/29/70 103/28/69
f 106/31/72 122/29/88 124/31/90
f 122/29/88 106/31/72 104/29/70
f 107/19/73 124/31/90 125/19/91
f 124/31/90 107/19/73 106/31/72
f 131/22/61 130/21/60 129/20/59
f 130/21/60 131/22/61 132/21/62
f 132/21/62 131/22/61 133/23/63
f 132/21/62 133/23/63 134/21/64
f 134/21/64 133/23/63 135/24/65
f 134/21/64 135/24/65 136/25/66
f 136/25/66 135/24/65 137/26/67
f 136/25/66 137/26/67 138/27/68
f 138/27/68 137/26/67 139/28/69
f 138/27/68 139/28/69 140/29/70
f 138/27/68 140/29/70 141/30/71
f 141/30/71 140/29/70 142/31/72
f 141/30/71 142/31/72 143/19/73
f 141/30/71 143/19/73 144/32/74
f 144/32/74 143/19/73 145/19/75
f 144/32/74 145/19/75 146/33/76
f 130/21/2 147/20/2 129/20/2
f 147/20/2 130/21/2 148/21/2
f 149/21/79 147/20/78 148/21/77
f 147/20/78 149/21/79 46/22/80
f 46/22/80 149/21/79 150/23/81
f 150/23/81 149/21/79 151/21/82
f 150/23/81 151/21/82 152/24/83
f 152/24/83 151/21/82 153/25/84
f 152/24/83 153/25/84 154/26/85
f 154/26/85 153/25/84 155/27/86
f 154/26/85 155/27/86 156/28/87
f 156/28/87 155/27/86 157/29/88
f 157/29/88 155/27/86 158/30/89
f 157/29/88 158/30/89 159/31/90
f 159/31/90 158/30/89 160/19/91
f 160/19/91 158/30/89 161/32/92
f 160/19/91 161/32/92 162/19/93
f 162/19/93 161/32/92 163/33/94
f 163/33/94 145/19/75 162/19/93
f 145/19/75 163/33/94 146/33/76
f 161/32/92 146/33/76 163/33/94
f 146/33/76 161/32/92 144/32/74
f 158/30/89 144/32/74 161/32/92
f 144/32/74 158/30/89 141/30/71
f 155/27/86 141/30/71 158/30/89
f 141/30/71 155/27/86 138/27/68
f 136/25/66 155/27/86 153/25/84
f 155/27/86 136/25/66 138/27/68
f 151/21/82 136/25/66 153/25/84
f 136/25/66 151/21/82 134/21/64
f 132/21/62 151/21/82 149/21/79
f 151/21/82 132/21/62 134/21/64
f 130/21/60 149/21/79 148/21/77
f 149/21/79 130/21/60 132/21/62
f 131/22/61 147/20/78 46/22/80
f 147/20/78 131/22/61 129/20/59
f 133/23/63 46/22/80 150/23/81
f 46/22/80 133/23/63 131/22/61
f 135/24/65 150/23/81 152/24/83
f 150/23/81 135/24/65 133/23/63
f 137/26/67 152/24/83 154/26/85
f 152/24/83 137/26/67 135/24/65
f 137/26/67 156/28/87 139/28/69
f 156/28/87 137/26/67 154/26/85
f 140/29/70 156/28/87 157/29/88
f 156/28/87 140/29/70 139/28/69
f 142/31/72 157/29/88 159/31/90
f 157/29/88 142/31/72 140/29/70
f 143/19/73 159/31/90 160/19/91
f 159/31/90 143/19/73 142/31/72

g fence-closed-tall




usemtl colormap

f 3/2/1 2/1/1 1/1/1
f 2/1/1 3/2/1 4/2/1
f 1/1/2 2/1/2 3/2/2
f 4/2/2 3/2/2 2/1/2
f 7/3/3 6/4/4 5/3/3
f 6/4/4 7/3/3 8/4/4
f 5/3/5 6/4/6 7/3/5
f 8/4/6 7/3/5 6/4/6
f 10/5/7 5/3/3 9/5/7
f 5/3/3 10/5/7 7/3/3
f 9/5/8 5/3/5 10/5/8
f 7/3/5 10/5/8 5/3/5
f 12/1/1 9/5/7 11/1/1
f 9/5/7 12/1/1 10/5/7
f 11/1/2 9/5/8 12/1/2
f 10/5/8 12/1/2 9/5/8
f 15/6/9 14/7/10 13/6/9
f 14/7/10 15/6/9 16/7/10
f 16/7/10 17/8/11 14/7/10
f 17/8/11 16/7/10 18/8/11
f 14/7/12 17/8/13 16/7/12
f 18/8/13 16/7/12 17/8/13
f 18/8/11 19/9/14 17/8/11
f 19/9/14 18/8/11 20/9/14
f 17/8/13 19/9/15 18/8/13
f 20/9/15 18/8/13 19/9/15
f 19/9/14 22/10/16 21/10/16
f 22/10/16 19/9/14 20/9/14
f 21/10/17 22/10/17 19/9/15
f 20/9/15 19/9/15 22/10/17
f 8/11/4 22/10/16 6/11/4
f 22/10/16 8/11/4 21/10/16
f 6/11/6 22/10/17 8/11/6
f 21/10/17 8/11/6 22/10/17
f 13/12/18 14/13/12 15/12/18
f 16/13/12 15/12/18 14/13/12
f 25/14/19 24/14/14 23/14/19
f 24/14/14 25/14/19 26/14/14
f 28/15/20 26/14/14 27/15/20
f 26/14/14 28/15/20 24/14/14
f 27/15/20 29/15/15 28/15/20
f 29/15/15 27/15/20 30/15/15
f 25/14/19 29/15/15 30/15/15
f 29/15/15 25/14/19 23/14/19
f 33/14/19 32/14/14 31/14/19
f 32/14/14 33/14/19 34/14/14
f 36/15/20 34/14/14 35/15/20
f 34/14/14 36/15/20 32/14/14
f 35/15/20 37/15/15 36/15/20
f 37/15/15 35/15/20 38/15/15
f 33/14/19 37/15/15 38/15/15
f 37/15/15 33/14/19 31/14/19
f 41/14/21 40/14/22 39/14/21
f 40/14/22 41/14/21 42/14/22
f 44/15/23 42/14/22 43/15/23
f 42/14/22 44/15/23 40/14/22
f 43/15/23 45/15/24 44/15/23
f 45/15/24 43/15/23 46/15/24
f 41/14/21 45/15/24 46/15/24
f 45/15/24 41/14/21 39/14/21
f 49/17/27 48/17/26 47/16/25
f 52/17/30 51/16/29 50/17/28
f 55/16/33 54/17/32 53/17/31
f 58/17/36 57/17/35 56/16/34
f 57/17/39 60/18/38 59/18/37
f 60/18/38 57/17/39 58/17/40
f 61/19/41 51/16/42 56/16/41
f 51/16/42 61/19/41 62/19/42
f 54/17/45 64/18/44 63/18/43
f 64/18/44 54/17/45 48/17/46
f 55/16/33 48/17/26 54/17/32
f 48/17/26 55/16/33 47/16/25
f 52/17/49 66/18/48 65/18/47
f 66/18/48 52/17/49 50/17/50
f 60/18/51 67/18/51 59/18/51
f 67/18/51 60/18/51 64/18/51
f 64/18/51 60/18/51 65/18/51
f 64/18/51 65/18/51 63/18/51
f 63/18/51 65/18/51 66/18/51
f 63/18/51 66/18/51 68/18/51
f 50/17/28 55/16/33 53/17/31
f 55/16/33 50/17/28 51/16/29
f 53/17/53 63/18/43 68/18/52
f 63/18/43 53/17/53 54/17/45
f 56/16/34 52/17/30 58/17/36
f 52/17/30 56/16/34 51/16/29
f 58/17/40 65/18/47 60/18/38
f 65/18/47 58/17/40 52/17/49
f 69/19/54 47/16/55 55/16/54
f 47/16/55 69/19/54 70/19/55
f 61/19/41 47/16/55 70/19/55
f 47/16/55 61/19/41 56/16/41
f 48/17/46 67/18/56 64/18/44
f 67/18/56 48/17/46 49/17/57
f 66/18/48 53/17/53 68/18/52
f 53/17/53 66/18/48 50/17/50
f 49/17/57 59/18/37 67/18/56
f 59/18/37 49/17/57 57/17/39
f 69/19/58 61/19/58 70/19/58
f 61/19/58 69/19/58 62/19/58
f 51/16/42 69/19/54 55/16/54
f 69/19/54 51/16/42 62/19/42
f 56/16/34 49/17/27 47/16/25
f 49/17/27 56/16/34 57/17/35
f 73/17/27 72/17/26 71/16/25
f 75/17/30 24/16/29 74/17/28
f 23/16/33 77/17/32 76/17/31
f 80/17/36 79/17/35 78/16/34
f 79/17/39 82/18/38 81/18/37
f 82/18/38 79/17/39 80/17/40
f 83/19/41 24/16/42 78/16/41
f 24/16/42 83/19/41 84/19/42
f 77/17/45 86/18/44 85/18/43
f 86/18/44 77/17/45 72/17/46
f 23/16/33 72/17/26 77/17/32
f 72/17/26 23/16/33 71/16/25
f 75/17/49 88/18/48 87/18/47
f 88/18/48 75/17/49 74/17/50
f 82/18/51 89/18/51 81/18/51
f 89/18/51 82/18/51 86/18/51
f 86/18/51 82/18/51 87/18/51
f 86/18/51 87/18/51 85/18/51
f 85/18/51 87/18/51 88/18/51
f 85/18/51 88/18/51 90/18/51
f 74/17/28 23/16/33 76/17/31
f 23/16/33 74/17/28 24/16/29
f 76/17/53 85/18/43 90/18/52
f 85/18/43 76/17/53 77/17/45
f 78/16/34 75/17/30 80/17/36
f 75/17/30 78/16/34 24/16/29
f 80/17/40 87/18/47 82/18/38
f 87/18/47 80/17/40 75/17/49
f 91/19/54 71/16/55 23/16/54
f 71/16/55 91/19/54 92/19/55
f 83/19/41 71/16/55 92/19/55
f 71/16/55 83/19/41 78/16/41
f 72/17/46 89/18/56 86/18/44
f 89/18/56 72/17/46 73/17/57
f 88/18/48 76/17/53 90/18/52
f 76/17/53 88/18/48 74/17/50
f 73/17/57 81/18/37 89/18/56
f 81/18/37 73/17/57 79/17/39
f 91/19/58 83/19/58 92/19/58
f 83/19/58 91/19/58 84/19/58
f 24/16/42 91/19/54 23/16/54
f 91/19/54 24/16/42 84/19/42
f 78/16/34 73/17/27 71/16/25
f 73/17/27 78/16/34 79/17/35
f 95/22/61 94/21/60 93/20/59
f 94/21/60 95/22/61 96/21/62
f 96/21/62 95/22/61 97/23/63
f 96/21/62 97/23/63 98/21/64
f 98/21/64 97/23/63 99/24/65
f 98/21/64 99/24/65 100/25/66
f 100/25/66 99/24/65 101/26/67
f 100/25/66 101/26/67 102/27/68
f 102/27/68 101/26/67 103/28/69
f 102/27/68 103/28/69 104/29/70
f 102/27/68 104/29/70 105/30/71
f 105/30/71 104/29/70 106/31/72
f 105/30/71 106/31/72 107/19/73
f 105/30/71 107/19/73 108/32/74
f 108/32/74 107/19/73 109/19/75
f 108/32/74 109/19/75 110/33/76
f 94/21/2 111/20/2 93/20/2
f 111/20/2 94/21/2 112/21/2
f 113/21/79 111/20/78 112/21/77
f 111/20/78 113/21/79 114/22/80
f 114/22/80 113/21/79 115/23/81
f 115/23/81 113/21/79 116/21/82
f 115/23/81 116/21/82 117/24/83
f 117/24/83 116/21/82 118/25/84
f 117/24/83 118/25/84 119/26/85
f 119/26/85 118/25/84 120/27/86
f 119/26/85 120/27/86 121/28/87
f 121/28/87 120/27/86 122/29/88
f 122/29/88 120/27/86 123/30/89
f 122/29/88 123/30/89 124/31/90
f 124/31/90 123/30/89 125/19/91
f 125/19/91 123/30/89 126/32/92
f 125/19/91 126/32/92 127/19/93
f 127/19/93 126/32/92 128/33/94
f 128/33/94 109/19/75 127/19/93
f 109/19/75 128/33/94 110/33/76
f 126/32/92 110/33/76 128/33/94
f 110/33/76 126/32/92 108/32/74
f 123/30/89 108/32/74 126/32/92
f 108/32/74 123/30/89 105/30/71
f 120/27/86 105/30/71 123/30/89
f 105/30/71 120/27/86 102/27/68
f 100/25/66 120/27/86 118/25/84
f 120/27/86 100/25/66 102/27/68
f 116/21/82 100/25/66 118/25/84
f 100/25/66 116/21/82 98/21/64
f 96/21/62 116/21/82 113/21/79
f 116/21/82 96/21/62 98/21/64
f 94/21/60 113/21/79 112/21/77
f 113/21/79 94/21/60 96/21/62
f 95/22/61 111/20/78 114/22/80
f 111/20/78 95/22/61 93/20/59
f 97/23/63 114/22/80 115/23/81
f 114/22/80 97/23/63 95/22/61
f 99/24/65 115/23/81 117/24/83
f 115/23/81 99/24/65 97/23/63
f 101/26/67 117/24/83 119/26/85
f 117/24/83 101/26/67 99/24/65
f 101/26/67 121/28/87 103/28/69
f 121/28/87 101/26/67 119/26/85
f 104/29/70 121/28/87 122/29/88
f 121/28/87 104/29/70 103/28/69
f 106/31/72 122/29/88 124/31/90
f 122/29/88 106/31/72 104/29/70
f 107/19/73 124/31/90 125/19/91
f 124/31/90 107/19/73 106/31/72
f 131/22/61 130/21/60 129/20/59
f 130/21/60 131/22/61 132/21/62
f 132/21/62 131/22/61 133/23/63
f 132/21/62 133/23/63 134/21/64
f 134/21/64 133/23/63 135/24/65
f 134/21/64 135/24/65 136/25/66
f 136/25/66 135/24/65 137/26/67
f 136/25/66 137/26/67 138/27/68
f 138/27/68 137/26/67 139/28/69
f 138/27/68 139/28/69 140/29/70
f 138/27/68 140/29/70 141/30/71
f 141/30/71 140/29/70 142/31/72
f 141/30/71 142/31/72 143/19/73
f 141/30/71 143/19/73 144/32/74
f 144/32/74 143/19/73 145/19/75
f 144/32/74 145/19/75 146/33/76
f 130/21/2 147/20/2 129/20/2
f 147/20/2 130/21/2 148/21/2
f 149/21/79 147/20/78 148/21/77
f 147/20/78 149/21/79 46/22/80
f 46/22/80 149/21/79 150/23/81
f 150/23/81 149/21/79 151/21/82
f 150/23/81 151/21/82 152/24/83
f 152/24/83 151/21/82 153/25/84
f 152/24/83 153/25/84 154/26/85
f 154/26/85 153/25/84 155/27/86
f 154/26/85 155/27/86 156/28/87
f 156/28/87 155/27/86 157/29/88
f 157/29/88 155/27/86 158/30/89
f 157/29/88 158/30/89 159/31/90
f 159/31/90 158/30/89 160/19/91
f 160/19/91 158/30/89 161/32/92
f 160/19/91 161/32/92 162/19/93
f 162/19/93 161/32/92 163/33/94
f 163/33/94 145/19/75 162/19/93
f 145/19/75 163/33/94 146/33/76
f 161/32/92 146/33/76 163/33/94
f 146/33/76 161/32/92 144/32/74
f 158/30/89 144/32/74 161/32/92
f 144/32/74 158/30/89 141/30/71
f 155/27/86 141/30/71 158/30/89
f 141/30/71 155/27/86 138/27/68
f 136/25/66 155/27/86 153/25/84
f 155/27/86 136/25/66 138/27/68
f 151/21/82 136/25/66 153/25/84
f 136/25/66 151/21/82 134/21/64
f 132/21/62 151/21/82 149/21/79
f 151/21/82 132/21/62 134/21/64
f 130/21/60 149/21/79 148/21/77
f 149/21/79 130/21/60 132/21/62
f 131/22/61 147/20/78 46/22/80
f 147/20/78 131/22/61 129/20/59
f 133/23/63 46/22/80 150/23/81
f 46/22/80 133/23/63 131/22/61
f 135/24/65 150/23/81 152/24/83
f 150/23/81 135/24/65 133/23/63
f 137/26/67 152/24/83 154/26/85
f 152/24/83 137/26/67 135/24/65
f 137/26/67 156/28/87 139/28/69
f 156/28/87 137/26/67 154/26/85
f 140/29/70 156/28/87 157/29/88
f 156/28/87 140/29/70 139/28/69
f 142/31/72 157/29/88 159/31/90
f 157/29/88 142/31/72 140/29/70
f 143/19/73 159/31/90 160/19/91
f 159/31/90 143/19/73 142/31/72

