# Created by Kenney (www.kenney.nl)

mtllib flag-green.mtl

g flag-green

v 0.1018578 1.060654 0.0185182 1 1 1
v 0.1523438 1.060654 0.025 1 1 1
v 0.1018579 1.442615 0.0185182 1 1 1
v 0.1523438 1.442615 0.025 1 1 1
v 0.05859374 1.060654 0 1 1 1
v 0.0585938 1.442615 0 1 1 1
v 0.2965797 1.060654 -0.006481799 1 1 1
v 0.3470656 1.060654 0 1 1 1
v 0.2965797 1.442615 -0.006481799 1 1 1
v 0.3470657 1.442615 0 1 1 1
v 0.2028297 1.060654 0.0185182 1 1 1
v 0.2028297 1.442615 0.0185182 1 1 1
v 0.2460938 1.060654 0 1 1 1
v 0.2460938 1.442615 0 1 1 1
v 0.3903297 1.107714 0.0185182 1 1 1
v 0.3903297 1.395554 0.0185182 1 1 1
v -0.05859375 1.060654 -0.02734375 1 1 1
v -0.05859375 1.442615 -0.02734375 1 1 1
v -0.05859375 1.060654 0.02734375 1 1 1
v -0.05859375 1.442615 0.02734375 1 1 1
v 0.02734375 1.060654 0.05859375 1 1 1
v -0.02734375 1.060654 0.05859375 1 1 1
v 0.02734375 1.442615 0.05859375 1 1 1
v -0.02734375 1.442615 0.05859375 1 1 1
v 0.05859375 1.060654 0.02734375 1 1 1
v 0.05859375 1.442615 0.02734375 1 1 1
v 0.05859375 1.060654 -0.02734375 1 1 1
v 0.02734375 1.060654 -0.05859375 1 1 1
v -0.02734375 1.060654 -0.05859375 1 1 1
v -0.02734375 1.442615 -0.05859375 1 1 1
v 0.05859375 1.442615 -0.02734375 1 1 1
v 0.02734375 1.442615 -0.05859375 1 1 1
v 0.03125 0.35 -0.03125 1 1 1
v 0.03125 0.2875 -0.0625 1 1 1
v 0.0625 0.2875 -0.03125 1 1 1
v -0.0625 0.2875 0.03125 1 1 1
v -0.03125 0.35 0.03125 1 1 1
v -0.03125 0.2875 0.0625 1 1 1
v -0.0625 0.2875 -0.03125 1 1 1
v -0.03125 0.2875 -0.0625 1 1 1
v -0.03125 0.35 -0.03125 1 1 1
v 0.03125 0.35 0.03125 1 1 1
v 0.0625 0.2875 0.03125 1 1 1
v 0.03125 0.2875 0.0625 1 1 1
v 0.078125 0 0.0390625 1 1 1
v 0.0390625 0 0.078125 1 1 1
v 0.03125 1.4875 0.03125 1 1 1
v -0.03125 1.4875 0.03125 1 1 1
v -0.0390625 0 -0.078125 1 1 1
v 0.0390625 0 -0.078125 1 1 1
v -0.078125 0 0.0390625 1 1 1
v -0.0390625 0 0.078125 1 1 1
v 0.078125 0 -0.0390625 1 1 1
v -0.078125 0 -0.0390625 1 1 1
v -0.03125 1.4875 -0.03125 1 1 1
v 0.03125 1.4875 -0.03125 1 1 1

vn 0.2629329 -3.134404E-08 -0.9648141
vn 0 0 -1
vn -0.2629329 3.134404E-08 0.9648141
vn 0 0 1
vn 0.3934966 -4.690844E-08 -0.9193261
vn -0.3934966 4.690844E-08 0.9193261
vn 0.2179113 -2.597704E-08 -0.9759686
vn -0.2179113 2.597704E-08 0.9759686
vn -0.2629329 3.134404E-08 -0.9648141
vn 0.2629329 -3.134404E-08 0.9648141
vn -0.9238796 0 -0.3826835
vn -0.9238796 0 0.3826835
vn 0.3826835 0 0.9238796
vn -0.3826835 0 0.9238796
vn 0.9238796 0 0.3826835
vn 0 -1 0
vn -0.3826835 0 -0.9238796
vn 0.9238796 0 -0.3826835
vn 0.3826835 0 -0.9238796
vn 0 1 0
vn 0.5997861 0.5296351 -0.5997861
vn 0.315808 0.4243266 -0.8486531
vn 0.8486531 0.4243266 -0.315808
vn -0.8486531 0.4243266 0.315808
vn -0.5997861 0.5296351 0.5997861
vn -0.315808 0.4243266 0.8486531
vn -0.8486531 0.4243266 -0.315808
vn -0.315808 0.4243266 -0.8486531
vn -0.5997861 0.5296351 -0.5997861
vn 0.5997861 0.5296351 0.5997861
vn 0.8486531 0.4243266 0.315808
vn 0.315808 0.4243266 0.8486531
vn 0.9217949 0.06050319 0.3829277
vn 0.3829277 0.06050319 0.9217949
vn 0.9225959 0.0604942 0.380995
vn 0.380995 0.0604942 0.9225959
vn 0.7071068 0 0.7071068
vn -0.7071068 0 0.7071068
vn -0.3829277 0.06050319 -0.9217949
vn 0.3829277 0.06050319 -0.9217949
vn -0.380995 0.0604942 -0.9225959
vn 0.380995 0.0604942 -0.9225959
vn -0.9225959 0.0604942 0.380995
vn -0.380995 0.0604942 0.9225959
vn -0.9217949 0.06050319 0.3829277
vn -0.3829277 0.06050319 0.9217949
vn -0.9217949 0.06050319 -0.3829277
vn -0.9225959 0.0604942 -0.380995
vn -0.7071068 0 -0.7071068
vn 0.7071068 0 -0.7071068
vn 0.9217949 0.06050319 -0.3829277
vn 0.9225959 0.0604942 -0.380995

vt 0.21875 0.3010834
vt 0.21875 0.3315209
vt 0.21875 0.275
vt 0.21875 0.4184791
vt 0.21875 0.4489165
vt 0.21875 0.4489166
vt 0.21875 0.3619583
vt 0.21875 0.3880417
vt 0.21875 0.475
vt 0.21875 0.4359227
vt 0.46875 0.1779412
vt 0.46875 0.1863445
vt 0.46875 0.225
vt 0.46875 0.025

usemtl colormap

f 3/1/1 2/2/2 1/1/1
f 2/2/2 3/1/1 4/2/2
f 1/1/3 2/2/4 3/1/3
f 4/2/4 3/1/3 2/2/4
f 6/3/5 1/1/1 5/3/5
f 1/1/1 6/3/5 3/1/1
f 5/3/6 1/1/3 6/3/6
f 3/1/3 6/3/6 1/1/3
f 9/4/2 8/5/7 7/4/2
f 8/5/7 9/4/2 10/6/7
f 7/4/4 8/5/8 9/4/4
f 10/6/8 9/4/4 8/5/8
f 4/2/2 11/7/9 2/2/2
f 11/7/9 4/2/2 12/7/9
f 2/2/4 11/7/10 4/2/4
f 12/7/10 4/2/4 11/7/10
f 12/7/9 13/8/9 11/7/9
f 13/8/9 12/7/9 14/8/9
f 11/7/10 13/8/10 12/7/10
f 14/8/10 12/7/10 13/8/10
f 14/8/9 7/4/2 13/8/9
f 7/4/2 14/8/9 9/4/2
f 13/8/10 7/4/4 14/8/10
f 9/4/4 14/8/10 7/4/4
f 10/6/7 15/9/5 8/5/7
f 15/9/5 10/6/7 16/9/5
f 8/5/8 15/9/6 10/6/8
f 16/9/6 10/6/8 15/9/6
f 19/10/12 18/9/11 17/10/11
f 18/9/11 19/10/12 20/9/12
f 23/9/13 22/10/14 21/10/13
f 22/10/14 23/9/13 24/9/14
f 26/9/15 21/10/13 25/10/15
f 21/10/13 26/9/15 23/9/13
f 21/10/16 27/10/16 25/10/16
f 27/10/16 21/10/16 28/10/16
f 28/10/16 21/10/16 22/10/16
f 28/10/16 22/10/16 29/10/16
f 29/10/16 22/10/16 19/10/16
f 29/10/16 19/10/16 17/10/16
f 18/9/11 29/10/17 17/10/11
f 29/10/17 18/9/11 30/9/17
f 24/9/14 19/10/12 22/10/14
f 19/10/12 24/9/14 20/9/12
f 26/9/15 27/10/18 31/9/18
f 27/10/18 26/9/15 25/10/15
f 30/9/17 28/10/19 29/10/17
f 28/10/19 30/9/17 32/9/19
f 32/9/20 26/9/20 31/9/20
f 26/9/20 32/9/20 23/9/20
f 23/9/20 32/9/20 30/9/20
f 23/9/20 30/9/20 24/9/20
f 24/9/20 30/9/20 18/9/20
f 24/9/20 18/9/20 20/9/20
f 32/9/19 27/10/18 28/10/19
f 27/10/18 32/9/19 31/9/18
f 35/12/23 34/12/22 33/11/21
f 38/12/26 37/11/25 36/12/24
f 41/11/29 40/12/28 39/12/27
f 44/12/32 43/12/31 42/11/30
f 43/12/35 46/13/34 45/13/33
f 46/13/34 43/12/35 44/12/36
f 47/14/37 37/11/38 42/11/37
f 37/11/38 47/14/37 48/14/38
f 40/12/41 50/13/40 49/13/39
f 50/13/40 40/12/41 34/12/42
f 41/11/29 34/12/22 40/12/28
f 34/12/22 41/11/29 33/11/21
f 51/13/45 38/12/44 36/12/43
f 38/12/44 51/13/45 52/13/46
f 46/13/16 53/13/16 45/13/16
f 53/13/16 46/13/16 50/13/16
f 50/13/16 46/13/16 52/13/16
f 50/13/16 52/13/16 49/13/16
f 49/13/16 52/13/16 51/13/16
f 49/13/16 51/13/16 54/13/16
f 36/12/24 41/11/29 39/12/27
f 41/11/29 36/12/24 37/11/25
f 54/13/47 40/12/41 49/13/39
f 40/12/41 54/13/47 39/12/48
f 42/11/30 38/12/26 44/12/32
f 38/12/26 42/11/30 37/11/25
f 44/12/36 52/13/46 46/13/34
f 52/13/46 44/12/36 38/12/44
f 55/14/49 33/11/50 41/11/49
f 33/11/50 55/14/49 56/14/50
f 47/14/37 33/11/50 56/14/50
f 33/11/50 47/14/37 42/11/37
f 34/12/42 53/13/51 50/13/40
f 53/13/51 34/12/42 35/12/52
f 51/13/45 39/12/48 54/13/47
f 39/12/48 51/13/45 36/12/43
f 35/12/52 45/13/33 53/13/51
f 45/13/33 35/12/52 43/12/35
f 55/14/20 47/14/20 56/14/20
f 47/14/20 55/14/20 48/14/20
f 37/11/38 55/14/49 41/11/49
f 55/14/49 37/11/38 48/14/38
f 42/11/30 35/12/23 33/11/21
f 35/12/23 42/11/30 43/12/31

g flag-green




usemtl colormap

f 3/1/1 2/2/2 1/1/1
f 2/2/2 3/1/1 4/2/2
f 1/1/3 2/2/4 3/1/3
f 4/2/4 3/1/3 2/2/4
f 6/3/5 1/1/1 5/3/5
f 1/1/1 6/3/5 3/1/1
f 5/3/6 1/1/3 6/3/6
f 3/1/3 6/3/6 1/1/3
f 9/4/2 8/5/7 7/4/2
f 8/5/7 9/4/2 10/6/7
f 7/4/4 8/5/8 9/4/4
f 10/6/8 9/4/4 8/5/8
f 4/2/2 11/7/9 2/2/2
f 11/7/9 4/2/2 12/7/9
f 2/2/4 11/7/10 4/2/4
f 12/7/10 4/2/4 11/7/10
f 12/7/9 13/8/9 11/7/9
f 13/8/9 12/7/9 14/8/9
f 11/7/10 13/8/10 12/7/10
f 14/8/10 12/7/10 13/8/10
f 14/8/9 7/4/2 13/8/9
f 7/4/2 14/8/9 9/4/2
f 13/8/10 7/4/4 14/8/10
f 9/4/4 14/8/10 7/4/4
f 10/6/7 15/9/5 8/5/7
f 15/9/5 10/6/7 16/9/5
f 8/5/8 15/9/6 10/6/8
f 16/9/6 10/6/8 15/9/6
f 19/10/12 18/9/11 17/10/11
f 18/9/11 19/10/12 20/9/12
f 23/9/13 22/10/14 21/10/13
f 22/10/14 23/9/13 24/9/14
f 26/9/15 21/10/13 25/10/15
f 21/10/13 26/9/15 23/9/13
f 21/10/16 27/10/16 25/10/16
f 27/10/16 21/10/16 28/10/16
f 28/10/16 21/10/16 22/10/16
f 28/10/16 22/10/16 29/10/16
f 29/10/16 22/10/16 19/10/16
f 29/10/16 19/10/16 17/10/16
f 18/9/11 29/10/17 17/10/11
f 29/10/17 18/9/11 30/9/17
f 24/9/14 19/10/12 22/10/14
f 19/10/12 24/9/14 20/9/12
f 26/9/15 27/10/18 31/9/18
f 27/10/18 26/9/15 25/10/15
f 30/9/17 28/10/19 29/10/17
f 28/10/19 30/9/17 32/9/19
f 32/9/20 26/9/20 31/9/20
f 26/9/20 32/9/20 23/9/20
f 23/9/20 32/9/20 30/9/20
f 23/9/20 30/9/20 24/9/20
f 24/9/20 30/9/20 18/9/20
f 24/9/20 18/9/20 20/9/20
f 32/9/19 27/10/18 28/10/19
f 27/10/18 32/9/19 31/9/18
f 35/12/23 34/12/22 33/11/21
f 38/12/26 37/11/25 36/12/24
f 41/11/29 40/12/28 39/12/27
f 44/12/32 43/12/31 42/11/30
f 43/12/35 46/13/34 45/13/33
f 46/13/34 43/12/35 44/12/36
f 47/14/37 37/11/38 42/11/37
f 37/11/38 47/14/37 48/14/38
f 40/12/41 50/13/40 49/13/39
f 50/13/40 40/12/41 34/12/42
f 41/11/29 34/12/22 40/12/28
f 34/12/22 41/11/29 33/11/21
f 51/13/45 38/12/44 36/12/43
f 38/12/44 51/13/45 52/13/46
f 46/13/16 53/13/16 45/13/16
f 53/13/16 46/13/16 50/13/16
f 50/13/16 46/13/16 52/13/16
f 50/13/16 52/13/16 49/13/16
f 49/13/16 52/13/16 51/13/16
f 49/13/16 51/13/16 54/13/16
f 36/12/24 41/11/29 39/12/27
f 41/11/29 36/12/24 37/11/25
f 54/13/47 40/12/41 49/13/39
f 40/12/41 54/13/47 39/12/48
f 42/11/30 38/12/26 44/12/32
f 38/12/26 42/11/30 37/11/25
f 44/12/36 52/13/46 46/13/34
f 52/13/46 44/12/36 38/12/44
f 55/14/49 33/11/50 41/11/49
f 33/11/50 55/14/49 56/14/50
f 47/14/37 33/11/50 56/14/50
f 33/11/50 47/14/37 42/11/37
f 34/12/42 53/13/51 50/13/40
f 53/13/51 34/12/42 35/12/52
f 51/13/45 39/12/48 54/13/47
f 39/12/48 51/13/45 36/12/43
f 35/12/52 45/13/33 53/13/51
f 45/13/33 35/12/52 43/12/35
f 55/14/20 47/14/20 56/14/20
f 47/14/20 55/14/20 48/14/20
f 37/11/38 55/14/49 41/11/49
f 55/14/49 37/11/38 48/14/38
f 42/11/30 35/12/23 33/11/21
f 35/12/23 42/11/30 43/12/31

