# Created by Kenney (www.kenney.nl)

mtllib gantry.mtl

g gantry

v 2.1 0 -0.25 1 1 1
v 2.4 0 -0.25 1 1 1
v 2.1 0.65 -0.25 1 1 1
v 2.4 0.65 -0.25 1 1 1
v 2.4 0 0.25 1 1 1
v 2.1 0 0.25 1 1 1
v 2.4 0.65 0.25 1 1 1
v 2.1 0.65 0.25 1 1 1
v 2 0 -0.15 1 1 1
v 2 0.65 -0.15 1 1 1
v 2 0 0.15 1 1 1
v 2 0.65 0.15 1 1 1
v 2.5 0.65 -0.15 1 1 1
v 2.5 0 -0.15 1 1 1
v 2.5 0.65 0.15 1 1 1
v 2.5 0 0.15 1 1 1
v 2.1 2.3 -0.15 1 1 1
v 2.1 1.8 -0.15 1 1 1
v 2.1 2.3 0.15 1 1 1
v 2.1 1.8 0.15 1 1 1
v 2 1.8 0.25 1 1 1
v -2 1.8 0.25 1 1 1
v 2 2.3 0.25 1 1 1
v -2 2.3 0.25 1 1 1
v 2 1.8 -0.25 1 1 1
v 2 2.3 -0.25 1 1 1
v -2 1.8 -0.25 1 1 1
v -2 2.3 -0.25 1 1 1
v -2.1 1.8 -0.15 1 1 1
v -2.1 2.3 -0.15 1 1 1
v -2.1 1.8 0.15 1 1 1
v -2.1 2.3 0.15 1 1 1
v -2.4 0 -0.25 1 1 1
v -2.1 0 -0.25 1 1 1
v -2.4 0.65 -0.25 1 1 1
v -2.1 0.65 -0.25 1 1 1
v -2.1 0 0.25 1 1 1
v -2.4 0 0.25 1 1 1
v -2.1 0.65 0.25 1 1 1
v -2.4 0.65 0.25 1 1 1
v -2.5 0 -0.15 1 1 1
v -2.5 0.65 -0.15 1 1 1
v -2.5 0 0.15 1 1 1
v -2.5 0.65 0.15 1 1 1
v -2 0.65 -0.15 1 1 1
v -2 0 -0.15 1 1 1
v -2 0.65 0.15 1 1 1
v -2 0 0.15 1 1 1
v 2.4 2.3 -0.15 1 1 1
v 2.4 2.3 0.15 1 1 1
v 2.1 2.3 -0.15 1 1 1
v 2.1 2.3 0.15 1 1 1
v 2.1 0.65 -0.15 1 1 1
v 2.1 0.65 0.15 1 1 1
v 2.4 0.65 0.15 1 1 1
v 2.4 0.65 -0.15 1 1 1
v -2.1 2.3 -0.15 1 1 1
v -2.1 2.3 0.15 1 1 1
v -2.4 2.3 -0.15 1 1 1
v -2.4 2.3 0.15 1 1 1
v -2.4 0.65 -0.15 1 1 1
v -2.4 0.65 0.15 1 1 1
v -2.1 0.65 0.15 1 1 1
v -2.1 0.65 -0.15 1 1 1
v 2.1 1.9 -0.25 1 1 1
v 2.4 1.9 -0.25 1 1 1
v 2.1 2.2 -0.25 1 1 1
v 2.4 2.2 -0.25 1 1 1
v 2.4 1.9 0.25 1 1 1
v 2.1 1.9 0.25 1 1 1
v 2.4 2.2 0.25 1 1 1
v 2.1 2.2 0.25 1 1 1
v 2 1.9 -0.15 1 1 1
v 2 2.2 -0.15 1 1 1
v 2 1.9 0.15 1 1 1
v 2 2.2 0.15 1 1 1
v 2.5 2.2 -0.15 1 1 1
v 2.5 1.9 -0.15 1 1 1
v 2.5 2.2 0.15 1 1 1
v 2.5 1.9 0.15 1 1 1
v -2.4 1.9 -0.25 1 1 1
v -2.1 1.9 -0.25 1 1 1
v -2.4 2.2 -0.25 1 1 1
v -2.1 2.2 -0.25 1 1 1
v -2.1 1.9 0.25 1 1 1
v -2.4 1.9 0.25 1 1 1
v -2.1 2.2 0.25 1 1 1
v -2.4 2.2 0.25 1 1 1
v -2.5 1.9 -0.15 1 1 1
v -2.5 2.2 -0.15 1 1 1
v -2.5 1.9 0.15 1 1 1
v -2.5 2.2 0.15 1 1 1
v -2 2.2 -0.15 1 1 1
v -2 1.9 -0.15 1 1 1
v -2 2.2 0.15 1 1 1
v -2 1.9 0.15 1 1 1

vn -0.3826834 0 -0.9238795
vn 0.3826834 0 -0.9238795
vn 0.3826834 0 0.9238795
vn -0.3826834 0 0.9238795
vn -0.9238795 0 -0.3826834
vn -0.9238795 0 0.3826834
vn 0.9238795 0 -0.3826834
vn 0.9238795 0 0.3826834
vn 0 -1 0
vn 0 1 0
vn 0.3826834 0 0.9238795
vn -0.3826834 0 0.9238795
vn 0.3826834 0 -0.9238795
vn -0.3826834 0 -0.9238795
vn -1 0 0
vn 0 0 1
vn 1 0 0
vn 0 0 -1

vt 0.46875 0.025
vt 0.46875 0.225
vt 0.46875 0.02500001
vt 0.46875 0.075
vt 0.46875 0.175
vt 0.46875 0.1204545

usemtl colormap

f 3/2/1 2/1/2 1/1/1
f 2/1/2 3/2/1 4/2/2
f 7/2/3 6/1/4 5/1/3
f 6/1/4 7/2/3 8/2/4
f 11/1/6 10/2/5 9/1/5
f 10/2/5 11/1/6 12/2/6
f 15/2/8 14/1/7 13/2/7
f 14/1/7 15/2/8 16/1/8
f 9/1/5 3/2/1 1/1/1
f 3/2/1 9/1/5 10/2/5
f 7/2/3 16/1/8 15/2/8
f 16/1/8 7/2/3 5/1/3
f 13/2/7 2/1/2 4/2/2
f 2/1/2 13/2/7 14/1/7
f 6/1/4 12/2/6 11/1/6
f 12/2/6 6/1/4 8/2/4
f 5/1/9 14/1/9 16/1/9
f 14/1/9 5/1/9 2/1/9
f 2/1/9 5/1/9 6/1/9
f 2/1/9 6/1/9 1/1/9
f 1/1/9 6/1/9 11/1/9
f 1/1/9 11/1/9 9/1/9
f 4/2/10 15/2/10 13/2/10
f 15/2/10 4/2/10 7/2/10
f 7/2/10 4/2/10 3/2/10
f 7/2/10 3/2/10 8/2/10
f 8/2/10 3/2/10 10/2/10
f 8/2/10 10/2/10 12/2/10
f 19/2/8 18/1/7 17/2/7
f 18/1/7 19/2/8 20/1/8
f 23/2/3 22/3/4 21/1/11
f 22/3/4 23/2/3 24/2/12
f 27/3/1 26/2/2 25/1/13
f 26/2/2 27/3/1 28/2/14
f 31/3/6 30/2/5 29/3/5
f 30/2/5 31/3/6 32/2/6
f 29/3/5 28/2/14 27/3/1
f 28/2/14 29/3/5 30/2/5
f 23/2/3 20/1/8 19/2/8
f 20/1/8 23/2/3 21/1/11
f 17/2/7 25/1/13 26/2/2
f 25/1/13 17/2/7 18/1/7
f 24/2/12 31/3/6 22/3/4
f 31/3/6 24/2/12 32/2/6
f 21/1/9 18/1/9 20/1/9
f 18/1/9 21/1/9 25/1/9
f 25/1/9 21/1/9 22/3/9
f 25/1/9 22/3/9 27/3/9
f 27/3/9 22/3/9 31/3/9
f 27/3/9 31/3/9 29/3/9
f 26/2/10 19/2/10 17/2/10
f 19/2/10 26/2/10 23/2/10
f 23/2/10 26/2/10 28/2/10
f 23/2/10 28/2/10 24/2/10
f 24/2/10 28/2/10 30/2/10
f 24/2/10 30/2/10 32/2/10
f 35/2/1 34/1/2 33/1/1
f 34/1/2 35/2/1 36/2/2
f 39/2/3 38/1/4 37/1/3
f 38/1/4 39/2/3 40/2/4
f 43/1/6 42/2/5 41/1/5
f 42/2/5 43/1/6 44/2/6
f 47/2/8 46/1/7 45/2/7
f 46/1/7 47/2/8 48/1/8
f 41/1/5 35/2/1 33/1/1
f 35/2/1 41/1/5 42/2/5
f 39/2/3 48/1/8 47/2/8
f 48/1/8 39/2/3 37/1/3
f 45/2/7 34/1/2 36/2/2
f 34/1/2 45/2/7 46/1/7
f 38/1/4 44/2/6 43/1/6
f 44/2/6 38/1/4 40/2/4
f 37/1/9 46/1/9 48/1/9
f 46/1/9 37/1/9 34/1/9
f 34/1/9 37/1/9 38/1/9
f 34/1/9 38/1/9 33/1/9
f 33/1/9 38/1/9 43/1/9
f 33/1/9 43/1/9 41/1/9
f 36/2/10 47/2/10 45/2/10
f 47/2/10 36/2/10 39/2/10
f 39/2/10 36/2/10 35/2/10
f 39/2/10 35/2/10 40/2/10
f 40/2/10 35/2/10 42/2/10
f 40/2/10 42/2/10 44/2/10
f 51/4/10 50/4/10 49/4/10
f 50/4/10 51/4/10 52/4/10
f 54/5/15 51/4/15 53/5/15
f 51/4/15 54/5/15 52/4/15
f 50/4/16 54/5/16 55/5/16
f 54/5/16 50/4/16 52/4/16
f 50/4/17 56/5/17 49/4/17
f 56/5/17 50/4/17 55/5/17
f 51/4/18 56/5/18 53/5/18
f 56/5/18 51/4/18 49/4/18
f 59/4/10 58/4/10 57/4/10
f 58/4/10 59/4/10 60/4/10
f 62/5/15 59/4/15 61/5/15
f 59/4/15 62/5/15 60/4/15
f 58/4/16 62/5/16 63/5/16
f 62/5/16 58/4/16 60/4/16
f 58/4/17 64/5/17 57/4/17
f 64/5/17 58/4/17 63/5/17
f 59/4/18 64/5/18 61/5/18
f 64/5/18 59/4/18 57/4/18
f 67/5/1 66/6/2 65/6/1
f 66/6/2 67/5/1 68/5/2
f 71/5/3 70/6/4 69/6/3
f 70/6/4 71/5/3 72/5/4
f 75/6/6 74/5/5 73/6/5
f 74/5/5 75/6/6 76/5/6
f 79/5/8 78/6/7 77/5/7
f 78/6/7 79/5/8 80/6/8
f 73/6/5 67/5/1 65/6/1
f 67/5/1 73/6/5 74/5/5
f 71/5/3 80/6/8 79/5/8
f 80/6/8 71/5/3 69/6/3
f 77/5/7 66/6/2 68/5/2
f 66/6/2 77/5/7 78/6/7
f 70/6/4 76/5/6 75/6/6
f 76/5/6 70/6/4 72/5/4
f 69/6/9 78/6/9 80/6/9
f 78/6/9 69/6/9 66/6/9
f 66/6/9 69/6/9 70/6/9
f 66/6/9 70/6/9 65/6/9
f 65/6/9 70/6/9 75/6/9
f 65/6/9 75/6/9 73/6/9
f 68/5/10 79/5/10 77/5/10
f 79/5/10 68/5/10 71/5/10
f 71/5/10 68/5/10 67/5/10
f 71/5/10 67/5/10 72/5/10
f 72/5/10 67/5/10 74/5/10
f 72/5/10 74/5/10 76/5/10
f 83/5/1 82/6/2 81/6/1
f 82/6/2 83/5/1 84/5/2
f 87/5/3 86/6/4 85/6/3
f 86/6/4 87/5/3 88/5/4
f 91/6/6 90/5/5 89/6/5
f 90/5/5 91/6/6 92/5/6
f 95/5/8 94/6/7 93/5/7
f 94/6/7 95/5/8 96/6/8
f 89/6/5 83/5/1 81/6/1
f 83/5/1 89/6/5 90/5/5
f 87/5/3 96/6/8 95/5/8
f 96/6/8 87/5/3 85/6/3
f 93/5/7 82/6/2 84/5/2
f 82/6/2 93/5/7 94/6/7
f 86/6/4 92/5/6 91/6/6
f 92/5/6 86/6/4 88/5/4
f 85/6/9 94/6/9 96/6/9
f 94/6/9 85/6/9 82/6/9
f 82/6/9 85/6/9 86/6/9
f 82/6/9 86/6/9 81/6/9
f 81/6/9 86/6/9 91/6/9
f 81/6/9 91/6/9 89/6/9
f 84/5/10 95/5/10 93/5/10
f 95/5/10 84/5/10 87/5/10
f 87/5/10 84/5/10 83/5/10
f 87/5/10 83/5/10 88/5/10
f 88/5/10 83/5/10 90/5/10
f 88/5/10 90/5/10 92/5/10

g gantry




usemtl colormap

f 3/2/1 2/1/2 1/1/1
f 2/1/2 3/2/1 4/2/2
f 7/2/3 6/1/4 5/1/3
f 6/1/4 7/2/3 8/2/4
f 11/1/6 10/2/5 9/1/5
f 10/2/5 11/1/6 12/2/6
f 15/2/8 14/1/7 13/2/7
f 14/1/7 15/2/8 16/1/8
f 9/1/5 3/2/1 1/1/1
f 3/2/1 9/1/5 10/2/5
f 7/2/3 16/1/8 15/2/8
f 16/1/8 7/2/3 5/1/3
f 13/2/7 2/1/2 4/2/2
f 2/1/2 13/2/7 14/1/7
f 6/1/4 12/2/6 11/1/6
f 12/2/6 6/1/4 8/2/4
f 5/1/9 14/1/9 16/1/9
f 14/1/9 5/1/9 2/1/9
f 2/1/9 5/1/9 6/1/9
f 2/1/9 6/1/9 1/1/9
f 1/1/9 6/1/9 11/1/9
f 1/1/9 11/1/9 9/1/9
f 4/2/10 15/2/10 13/2/10
f 15/2/10 4/2/10 7/2/10
f 7/2/10 4/2/10 3/2/10
f 7/2/10 3/2/10 8/2/10
f 8/2/10 3/2/10 10/2/10
f 8/2/10 10/2/10 12/2/10
f 19/2/8 18/1/7 17/2/7
f 18/1/7 19/2/8 20/1/8
f 23/2/3 22/3/4 21/1/11
f 22/3/4 23/2/3 24/2/12
f 27/3/1 26/2/2 25/1/13
f 26/2/2 27/3/1 28/2/14
f 31/3/6 30/2/5 29/3/5
f 30/2/5 31/3/6 32/2/6
f 29/3/5 28/2/14 27/3/1
f 28/2/14 29/3/5 30/2/5
f 23/2/3 20/1/8 19/2/8
f 20/1/8 23/2/3 21/1/11
f 17/2/7 25/1/13 26/2/2
f 25/1/13 17/2/7 18/1/7
f 24/2/12 31/3/6 22/3/4
f 31/3/6 24/2/12 32/2/6
f 21/1/9 18/1/9 20/1/9
f 18/1/9 21/1/9 25/1/9
f 25/1/9 21/1/9 22/3/9
f 25/1/9 22/3/9 27/3/9
f 27/3/9 22/3/9 31/3/9
f 27/3/9 31/3/9 29/3/9
f 26/2/10 19/2/10 17/2/10
f 19/2/10 26/2/10 23/2/10
f 23/2/10 26/2/10 28/2/10
f 23/2/10 28/2/10 24/2/10
f 24/2/10 28/2/10 30/2/10
f 24/2/10 30/2/10 32/2/10
f 35/2/1 34/1/2 33/1/1
f 34/1/2 35/2/1 36/2/2
f 39/2/3 38/1/4 37/1/3
f 38/1/4 39/2/3 40/2/4
f 43/1/6 42/2/5 41/1/5
f 42/2/5 43/1/6 44/2/6
f 47/2/8 46/1/7 45/2/7
f 46/1/7 47/2/8 48/1/8
f 41/1/5 35/2/1 33/1/1
f 35/2/1 41/1/5 42/2/5
f 39/2/3 48/1/8 47/2/8
f 48/1/8 39/2/3 37/1/3
f 45/2/7 34/1/2 36/2/2
f 34/1/2 45/2/7 46/1/7
f 38/1/4 44/2/6 43/1/6
f 44/2/6 38/1/4 40/2/4
f 37/1/9 46/1/9 48/1/9
f 46/1/9 37/1/9 34/1/9
f 34/1/9 37/1/9 38/1/9
f 34/1/9 38/1/9 33/1/9
f 33/1/9 38/1/9 43/1/9
f 33/1/9 43/1/9 41/1/9
f 36/2/10 47/2/10 45/2/10
f 47/2/10 36/2/10 39/2/10
f 39/2/10 36/2/10 35/2/10
f 39/2/10 35/2/10 40/2/10
f 40/2/10 35/2/10 42/2/10
f 40/2/10 42/2/10 44/2/10
f 51/4/10 50/4/10 49/4/10
f 50/4/10 51/4/10 52/4/10
f 54/5/15 51/4/15 53/5/15
f 51/4/15 54/5/15 52/4/15
f 50/4/16 54/5/16 55/5/16
f 54/5/16 50/4/16 52/4/16
f 50/4/17 56/5/17 49/4/17
f 56/5/17 50/4/17 55/5/17
f 51/4/18 56/5/18 53/5/18
f 56/5/18 51/4/18 49/4/18
f 59/4/10 58/4/10 57/4/10
f 58/4/10 59/4/10 60/4/10
f 62/5/15 59/4/15 61/5/15
f 59/4/15 62/5/15 60/4/15
f 58/4/16 62/5/16 63/5/16
f 62/5/16 58/4/16 60/4/16
f 58/4/17 64/5/17 57/4/17
f 64/5/17 58/4/17 63/5/17
f 59/4/18 64/5/18 61/5/18
f 64/5/18 59/4/18 57/4/18
f 67/5/1 66/6/2 65/6/1
f 66/6/2 67/5/1 68/5/2
f 71/5/3 70/6/4 69/6/3
f 70/6/4 71/5/3 72/5/4
f 75/6/6 74/5/5 73/6/5
f 74/5/5 75/6/6 76/5/6
f 79/5/8 78/6/7 77/5/7
f 78/6/7 79/5/8 80/6/8
f 73/6/5 67/5/1 65/6/1
f 67/5/1 73/6/5 74/5/5
f 71/5/3 80/6/8 79/5/8
f 80/6/8 71/5/3 69/6/3
f 77/5/7 66/6/2 68/5/2
f 66/6/2 77/5/7 78/6/7
f 70/6/4 76/5/6 75/6/6
f 76/5/6 70/6/4 72/5/4
f 69/6/9 78/6/9 80/6/9
f 78/6/9 69/6/9 66/6/9
f 66/6/9 69/6/9 70/6/9
f 66/6/9 70/6/9 65/6/9
f 65/6/9 70/6/9 75/6/9
f 65/6/9 75/6/9 73/6/9
f 68/5/10 79/5/10 77/5/10
f 79/5/10 68/5/10 71/5/10
f 71/5/10 68/5/10 67/5/10
f 71/5/10 67/5/10 72/5/10
f 72/5/10 67/5/10 74/5/10
f 72/5/10 74/5/10 76/5/10
f 83/5/1 82/6/2 81/6/1
f 82/6/2 83/5/1 84/5/2
f 87/5/3 86/6/4 85/6/3
f 86/6/4 87/5/3 88/5/4
f 91/6/6 90/5/5 89/6/5
f 90/5/5 91/6/6 92/5/6
f 95/5/8 94/6/7 93/5/7
f 94/6/7 95/5/8 96/6/8
f 89/6/5 83/5/1 81/6/1
f 83/5/1 89/6/5 90/5/5
f 87/5/3 96/6/8 95/5/8
f 96/6/8 87/5/3 85/6/3
f 93/5/7 82/6/2 84/5/2
f 82/6/2 93/5/7 94/6/7
f 86/6/4 92/5/6 91/6/6
f 92/5/6 86/6/4 88/5/4
f 85/6/9 94/6/9 96/6/9
f 94/6/9 85/6/9 82/6/9
f 82/6/9 85/6/9 86/6/9
f 82/6/9 86/6/9 81/6/9
f 81/6/9 86/6/9 91/6/9
f 81/6/9 91/6/9 89/6/9
f 84/5/10 95/5/10 93/5/10
f 95/5/10 84/5/10 87/5/10
f 87/5/10 84/5/10 83/5/10
f 87/5/10 83/5/10 88/5/10
f 88/5/10 83/5/10 90/5/10
f 88/5/10 90/5/10 92/5/10

