# Created by Kenney (www.kenney.nl)

mtllib grandstand.mtl

g grandstand

v 0.09999999 1.25 -0.07000001 1 1 1
v 0.09999999 1.25 -0.15 1 1 1
v 0.12 1.25 -0.05 1 1 1
v 0.7 1.25 -0.15 1 1 1
v 0.68 1.25 -0.05 1 1 1
v 0.7 1.25 -0.07000001 1 1 1
v 0.09999999 1.33 -0.15 1 1 1
v 0.09999999 1.33 -0.2 1 1 1
v 0.09999999 1.2 -0.2 1 1 1
v 0.09999999 1.2 -0.07000001 1 1 1
v 0.12 1.35 -0.15 1 1 1
v 0.12 1.35 -0.2 1 1 1
v 0.68 1.35 -0.15 1 1 1
v 0.68 1.35 -0.2 1 1 1
v 0.7 1.2 -0.07000001 1 1 1
v 0.7 1.2 -0.2 1 1 1
v 0.7 1.33 -0.15 1 1 1
v 0.7 1.33 -0.2 1 1 1
v 0.68 1.2 -0.05 1 1 1
v 0.12 1.2 -0.05 1 1 1
v -0.7 0.65 0.53 1 1 1
v -0.7 0.65 0.45 1 1 1
v -0.68 0.65 0.55 1 1 1
v -0.09999999 0.65 0.45 1 1 1
v -0.12 0.65 0.55 1 1 1
v -0.09999999 0.65 0.53 1 1 1
v -0.7 0.73 0.45 1 1 1
v -0.7 0.73 0.4 1 1 1
v -0.7 0.6 0.4 1 1 1
v -0.7 0.6 0.53 1 1 1
v -0.68 0.75 0.45 1 1 1
v -0.68 0.75 0.4 1 1 1
v -0.12 0.75 0.45 1 1 1
v -0.12 0.75 0.4 1 1 1
v -0.09999999 0.6 0.53 1 1 1
v -0.09999999 0.6 0.4 1 1 1
v -0.09999999 0.73 0.45 1 1 1
v -0.09999999 0.73 0.4 1 1 1
v -0.12 0.6 0.55 1 1 1
v -0.68 0.6 0.55 1 1 1
v -0.7 1.05 0.13 1 1 1
v -0.7 1.05 0.05 1 1 1
v -0.68 1.05 0.15 1 1 1
v -0.09999999 1.05 0.05 1 1 1
v -0.12 1.05 0.15 1 1 1
v -0.09999999 1.05 0.13 1 1 1
v -0.7 1.13 0.05 1 1 1
v -0.7 1.13 0 1 1 1
v -0.7 1 0 1 1 1
v -0.7 1 0.13 1 1 1
v -0.68 1.15 0.05 1 1 1
v -0.68 1.15 0 1 1 1
v -0.12 1.15 0.05 1 1 1
v -0.12 1.15 0 1 1 1
v -0.09999999 1 0.13 1 1 1
v -0.09999999 1 0 1 1 1
v -0.09999999 1.13 0.05 1 1 1
v -0.09999999 1.13 0 1 1 1
v -0.12 1 0.15 1 1 1
v -0.68 1 0.15 1 1 1
v 0.09999999 0.45 0.73 1 1 1
v 0.09999999 0.45 0.65 1 1 1
v 0.12 0.45 0.7499999 1 1 1
v 0.7 0.45 0.65 1 1 1
v 0.68 0.45 0.7499999 1 1 1
v 0.7 0.45 0.73 1 1 1
v 0.09999999 0.53 0.65 1 1 1
v 0.09999999 0.53 0.6 1 1 1
v 0.09999999 0.4 0.6 1 1 1
v 0.09999999 0.4 0.73 1 1 1
v 0.12 0.55 0.65 1 1 1
v 0.12 0.55 0.6 1 1 1
v 0.68 0.55 0.65 1 1 1
v 0.68 0.55 0.6 1 1 1
v 0.7 0.4 0.73 1 1 1
v 0.7 0.4 0.6 1 1 1
v 0.7 0.53 0.65 1 1 1
v 0.7 0.53 0.6 1 1 1
v 0.68 0.4 0.7499999 1 1 1
v 0.12 0.4 0.7499999 1 1 1
v -0.7 0.85 0.33 1 1 1
v -0.7 0.85 0.25 1 1 1
v -0.68 0.85 0.35 1 1 1
v -0.09999999 0.85 0.25 1 1 1
v -0.12 0.85 0.35 1 1 1
v -0.09999999 0.85 0.33 1 1 1
v -0.7 0.93 0.25 1 1 1
v -0.7 0.93 0.2 1 1 1
v -0.7 0.8 0.2 1 1 1
v -0.7 0.8 0.33 1 1 1
v -0.68 0.95 0.25 1 1 1
v -0.68 0.95 0.2 1 1 1
v -0.12 0.95 0.25 1 1 1
v -0.12 0.95 0.2 1 1 1
v -0.09999999 0.8 0.33 1 1 1
v -0.09999999 0.8 0.2 1 1 1
v -0.09999999 0.93 0.25 1 1 1
v -0.09999999 0.93 0.2 1 1 1
v -0.12 0.8 0.35 1 1 1
v -0.68 0.8 0.35 1 1 1
v -0.7 0.45 0.73 1 1 1
v -0.7 0.45 0.65 1 1 1
v -0.68 0.45 0.7499999 1 1 1
v -0.09999999 0.45 0.65 1 1 1
v -0.12 0.45 0.7499999 1 1 1
v -0.09999999 0.45 0.73 1 1 1
v -0.7 0.53 0.65 1 1 1
v -0.7 0.53 0.6 1 1 1
v -0.7 0.4 0.6 1 1 1
v -0.7 0.4 0.73 1 1 1
v -0.68 0.55 0.65 1 1 1
v -0.68 0.55 0.6 1 1 1
v -0.12 0.55 0.65 1 1 1
v -0.12 0.55 0.6 1 1 1
v -0.09999999 0.4 0.73 1 1 1
v -0.09999999 0.4 0.6 1 1 1
v -0.09999999 0.53 0.65 1 1 1
v -0.09999999 0.53 0.6 1 1 1
v -0.12 0.4 0.7499999 1 1 1
v -0.68 0.4 0.7499999 1 1 1
v -0.7 1.25 -0.07000001 1 1 1
v -0.7 1.25 -0.15 1 1 1
v -0.68 1.25 -0.05 1 1 1
v -0.09999999 1.25 -0.15 1 1 1
v -0.12 1.25 -0.05 1 1 1
v -0.09999999 1.25 -0.07000001 1 1 1
v -0.7 1.33 -0.15 1 1 1
v -0.7 1.33 -0.2 1 1 1
v -0.7 1.2 -0.2 1 1 1
v -0.7 1.2 -0.07000001 1 1 1
v -0.68 1.35 -0.15 1 1 1
v -0.68 1.35 -0.2 1 1 1
v -0.12 1.35 -0.15 1 1 1
v -0.12 1.35 -0.2 1 1 1
v -0.09999999 1.2 -0.07000001 1 1 1
v -0.09999999 1.2 -0.2 1 1 1
v -0.09999999 1.33 -0.15 1 1 1
v -0.09999999 1.33 -0.2 1 1 1
v -0.12 1.2 -0.05 1 1 1
v -0.68 1.2 -0.05 1 1 1
v 0.09999999 0.65 0.53 1 1 1
v 0.09999999 0.65 0.45 1 1 1
v 0.12 0.65 0.55 1 1 1
v 0.7 0.65 0.45 1 1 1
v 0.68 0.65 0.55 1 1 1
v 0.7 0.65 0.53 1 1 1
v 0.09999999 0.73 0.45 1 1 1
v 0.09999999 0.73 0.4 1 1 1
v 0.09999999 0.6 0.4 1 1 1
v 0.09999999 0.6 0.53 1 1 1
v 0.12 0.75 0.45 1 1 1
v 0.12 0.75 0.4 1 1 1
v 0.68 0.75 0.45 1 1 1
v 0.68 0.75 0.4 1 1 1
v 0.7 0.6 0.53 1 1 1
v 0.7 0.6 0.4 1 1 1
v 0.7 0.73 0.45 1 1 1
v 0.7 0.73 0.4 1 1 1
v 0.68 0.6 0.55 1 1 1
v 0.12 0.6 0.55 1 1 1
v 0.09999999 0.85 0.33 1 1 1
v 0.09999999 0.85 0.25 1 1 1
v 0.12 0.85 0.35 1 1 1
v 0.7 0.85 0.25 1 1 1
v 0.68 0.85 0.35 1 1 1
v 0.7 0.85 0.33 1 1 1
v 0.09999999 0.93 0.25 1 1 1
v 0.09999999 0.93 0.2 1 1 1
v 0.09999999 0.8 0.2 1 1 1
v 0.09999999 0.8 0.33 1 1 1
v 0.12 0.95 0.25 1 1 1
v 0.12 0.95 0.2 1 1 1
v 0.68 0.95 0.25 1 1 1
v 0.68 0.95 0.2 1 1 1
v 0.7 0.8 0.33 1 1 1
v 0.7 0.8 0.2 1 1 1
v 0.7 0.93 0.25 1 1 1
v 0.7 0.93 0.2 1 1 1
v 0.68 0.8 0.35 1 1 1
v 0.12 0.8 0.35 1 1 1
v 0.09999999 1.05 0.13 1 1 1
v 0.09999999 1.05 0.05 1 1 1
v 0.12 1.05 0.15 1 1 1
v 0.7 1.05 0.05 1 1 1
v 0.68 1.05 0.15 1 1 1
v 0.7 1.05 0.13 1 1 1
v 0.09999999 1.13 0.05 1 1 1
v 0.09999999 1.13 0 1 1 1
v 0.09999999 1 0 1 1 1
v 0.09999999 1 0.13 1 1 1
v 0.12 1.15 0.05 1 1 1
v 0.12 1.15 0 1 1 1
v 0.68 1.15 0.05 1 1 1
v 0.68 1.15 0 1 1 1
v 0.7 1 0.13 1 1 1
v 0.7 1 0 1 1 1
v 0.7 1.13 0.05 1 1 1
v 0.7 1.13 0 1 1 1
v 0.68 1 0.15 1 1 1
v 0.12 1 0.15 1 1 1
v -0.8 -1.602965E-31 0.95 1 1 1
v -0.8 -1.602965E-31 1.05 1 1 1
v 0.8 -1.602965E-31 0.95 1 1 1
v 0.8 -1.602965E-31 1.05 1 1 1
v -0.8 0.4 0.95 1 1 1
v 0.8 0.4 0.95 1 1 1
v -0.8 0.4 1.05 1 1 1
v 0.8 0.4 1.05 1 1 1
v -0.8 -1.602965E-31 1 1 1 1
v -0.9 -1.602965E-31 1 1 1 1
v -0.8 -1.602965E-31 -1 1 1 1
v -0.9 -1.602965E-31 -1 1 1 1
v -0.8 2 -0.6 1 1 1
v -0.8 2 -1 1 1 1
v -0.9 2 -0.6 1 1 1
v -0.9 2 -1 1 1 1
v -0.8 0.5 0.9 1 1 1
v -0.8 1.6 -0.2 1 1 1
v -0.9 0.5 0.9 1 1 1
v -0.9 1.6 -0.2 1 1 1
v -0.9 1.8 -0.6 1 1 1
v -0.8 1.8 -0.6 1 1 1
v -0.8 1.8 -0.3 1 1 1
v -0.9 1.8 -0.3 1 1 1
v -0.9 1.7 -0.2 1 1 1
v -0.8 1.7 -0.2 1 1 1
v -0.9 0.2585786 1 1 1 1
v -0.8 0.2585786 1 1 1 1
v 0.8 -1.602965E-31 1 1 1 1
v 0.9 -1.602965E-31 1 1 1 1
v 0.8 -1.602965E-31 -1 1 1 1
v 0.9 -1.602965E-31 -1 1 1 1
v 0.8 2 -0.6 1 1 1
v 0.8 2 -1 1 1 1
v 0.9 2 -0.6 1 1 1
v 0.9 2 -1 1 1 1
v 0.8 0.5 0.9 1 1 1
v 0.8 1.6 -0.2 1 1 1
v 0.9 0.5 0.9 1 1 1
v 0.9 1.6 -0.2 1 1 1
v 0.9 1.8 -0.6 1 1 1
v 0.8 1.8 -0.6 1 1 1
v 0.8 1.8 -0.3 1 1 1
v 0.9 1.8 -0.3 1 1 1
v 0.9 1.7 -0.2 1 1 1
v 0.8 1.7 -0.2 1 1 1
v 0.9 0.2585786 1 1 1 1
v 0.8 0.2585786 1 1 1 1
v -0.8 0.4 0.8000001 1 1 1
v -0.8 0.4 0.6 1 1 1
v 0.8 0.4 0.8000001 1 1 1
v 0.8 0.4 0.6 1 1 1
v -0.8 0.6 0.6 1 1 1
v -0.8 0.6 0.4 1 1 1
v 0.8 0.6 0.6 1 1 1
v 0.8 0.6 0.4 1 1 1
v -0.8 0.8 0.4 1 1 1
v -0.8 0.8 0.2 1 1 1
v 0.8 0.8 0.4 1 1 1
v 0.8 0.8 0.2 1 1 1
v -0.8 1 0.2 1 1 1
v -0.8 1 0 1 1 1
v 0.8 1 0.2 1 1 1
v 0.8 1 0 1 1 1
v -0.8 1.4 -0.2 1 1 1
v -0.8 1.4 -0.9999999 1 1 1
v 0.8 1.4 -0.2 1 1 1
v 0.8 1.4 -0.9999999 1 1 1
v -0.8 1.2 -0.2 1 1 1
v 0.8 1.2 -0.2 1 1 1
v -0.8 1.2 0 1 1 1
v 0.8 1.2 0 1 1 1
v 0.4 1.4 -0.8 1 1 1
v -0.4 1.4 -0.8 1 1 1
v 0.4 1.75 -0.8 1 1 1
v -0.4 1.75 -0.8 1 1 1
v 0.35 1.8 -0.8 1 1 1
v -0.35 1.8 -0.8 1 1 1
v -1 -1.602965E-31 1 1 1 1
v -0.9 -1.602965E-31 -3.076384E-15 1 1 1
v -1 -1.602965E-31 -2.52669E-15 1 1 1
v -0.9 1 -1 1 1 1
v -1 1 -1 1 1 1
v -0.9 1.8 -1 1 1 1
v -1 1.8 -1 1 1 1
v -1 0.2585786 1 1 1 1
v -1 0.5 0.9 1 1 1
v -1 1.6 -0.2 1 1 1
v -1 1.7 -0.2 1 1 1
v -1 1.8 -0.3 1 1 1
v 1 -1.602965E-31 1 1 1 1
v 0.9 -1.602965E-31 -3.798295E-15 1 1 1
v 1 -1.602965E-31 -2.52669E-15 1 1 1
v 0.9 1 -1 1 1 1
v 1 1 -1 1 1 1
v 0.9 1.8 -1 1 1 1
v 1 1.8 -1 1 1 1
v 1 0.2585786 1 1 1 1
v 1 0.5 0.9 1 1 1
v 1 1.6 -0.2 1 1 1
v 1 1.7 -0.2 1 1 1
v 1 1.8 -0.3 1 1 1
v -0.35 1.4 -0.5 1 1 1
v -0.4 1.4 -0.5 1 1 1
v -0.35 1.8 -0.5 1 1 1
v -0.4 1.8 -0.5 1 1 1
v -0.3 1.4 -0.55 1 1 1
v -0.3 1.8 -0.55 1 1 1
v -0.3 1.4 -0.8 1 1 1
v -0.3 1.8 -0.8 1 1 1
v 0.35 1.4 -0.5 1 1 1
v 0.4 1.4 -0.5 1 1 1
v 0.35 1.8 -0.5 1 1 1
v 0.4 1.8 -0.5 1 1 1
v 0.3 1.4 -0.55 1 1 1
v 0.3 1.8 -0.55 1 1 1
v 0.3 1.4 -0.8 1 1 1
v 0.3 1.8 -0.8 1 1 1
v -0.8 -1.602965E-31 -0.9999999 1 1 1
v 0.8 -1.602965E-31 -0.9999999 1 1 1
v 0.8 0.2 0.8000001 1 1 1
v -0.8 0.2 0.8000001 1 1 1
v 0.8 0.2 0.95 1 1 1
v -0.8 0.2 0.95 1 1 1
v 0.8 1.4 -0.4 1 1 1
v 0.8 2 -0.4 1 1 1
v 0.8 1.4 -1 1 1 1
v 0.8 2 -1 1 1 1
v -0.8 2 -0.4 1 1 1
v -0.8 1.4 -0.4 1 1 1
v -0.8 2 -1 1 1 1
v -0.8 1.4 -1 1 1 1
v 0.4 1.4 -0.4 1 1 1
v 0.4 1.75 -0.4 1 1 1
v 0.4 1.8 -0.4 1 1 1
v 0.35 1.8 -0.4 1 1 1
v -0.35 1.8 -0.4 1 1 1
v -0.4 1.8 -0.4 1 1 1
v -0.4 1.75 -0.4 1 1 1
v -0.4 1.4 -0.4 1 1 1

vn 0 1 0
vn -1.334579E-15 0.7071068 0.7071068
vn -0.8991125 0.4377176 -1.696966E-15
vn -1 0 -1.887379E-15
vn -0.8991125 0 0.4377176
vn -0.2336056 0.9723314 -4.409024E-16
vn 0.2336056 0.9723314 4.409024E-16
vn 0.8991125 0 0.4377176
vn 1 0 1.887379E-15
vn 0.8991125 0.4377176 1.696966E-15
vn 0.2336056 0 0.9723314
vn -0.2336056 0 0.9723314
vn -1.887379E-15 0 1
vn 0 -1 0
vn 1.887379E-15 0 -1
vn -1.887379E-15 0 -1
vn 1.569298E-15 0.5555702 0.8314696
vn 1.334579E-15 0.7071068 0.7071068
vn 1.887379E-15 0 1
vn 7.222687E-16 0.9238795 0.3826834
vn 1.743711E-15 0.3826834 0.9238795
vn 1.851114E-15 0.1950903 0.9807853
vn 1 0 -1.887379E-15
vn -1 0 1.887379E-15
vn -1.569298E-15 0.5555702 0.8314696
vn -1.334579E-15 0.7071068 0.7071068
vn -7.222687E-16 0.9238795 0.3826834
vn -1.743711E-15 0.3826834 0.9238795
vn -1.851114E-15 0.1950903 0.9807853
vn -1.334579E-15 -0.7071068 -0.7071068
vn 1.334579E-15 -0.7071068 -0.7071068
vn 0.3826834 0 0.9238795
vn 0.9238795 0 0.3826834
vn -0.3826834 0 0.9238795
vn -0.9238795 0 0.3826834
vn -0.9238795 -0.3826834 -1.743711E-15
vn 0.9238795 -0.3826834 1.743711E-15
vn 0.3826834 -0.9238795 7.222687E-16
vn -0.3826834 -0.9238795 -7.222687E-16

vt 0.34375 0.3416667
vt 0.34375 0.4483333
vt 0.34375 0.275
vt 0.34375 0.475
vt 0.21875 0.025
vt 0.21875 0.225
vt 0.21875 0.075
vt 0.21875 0.185
vt 0.21875 0.205
vt 0.21875 0.195
vt 0.21875 0.05085786
vt 0.21875 0.1035714
vt 0.21875 0.1178571
vt 0.21875 0.1321429
vt 0.21875 0.1464286
vt 0.21875 0.175
vt 0.21875 0.1607143
vt 0.34375 0.025
vt 0.34375 0.225
vt 0.34375 0.075
vt 0.34375 0.1333333
vt 0.34375 0.1416667
vt 0.59375 0.025
vt 0.59375 0.1361111
vt 0.59375 0.225
vt 0.59375 0.05373096
vt 0.59375 0.08055556
vt 0.59375 0.2027778
vt 0.59375 0.2138889
vt 0.46875 0.08055556
vt 0.46875 0.2027778
vt 0.46875 0.225
vt 0.46875 0.2138889
vt 0.46875 0.025
vt 0.46875 0.05373096
vt 0.46875 0.075
vt 0.46875 0.175
vt 0.46875 0.1035714
vt 0.46875 0.1178571
vt 0.46875 0.1321429
vt 0.46875 0.1464286
vt 0.46875 0.1607143
vt 0.46875 0.08928571
vt 0.46875 0.1333333
vt 0.46875 0.1416667

usemtl colormap

f 3/1/1 2/1/2 1/1/1
f 2/1/2 3/1/1 4/1/2
f 4/1/2 3/1/1 5/1/1
f 4/1/2 5/1/1 6/1/1
f 8/2/3 2/1/4 7/2/3
f 9/3/4 2/1/4 8/2/3
f 10/3/5 2/1/4 9/3/4
f 2/1/4 10/3/5 1/1/5
f 13/4/7 12/4/6 11/4/6
f 12/4/6 13/4/7 14/4/7
f 16/3/9 6/1/8 15/3/8
f 6/1/8 16/3/9 4/1/9
f 4/1/9 16/3/9 17/2/10
f 17/2/10 16/3/9 18/2/10
f 5/1/11 20/3/12 19/3/11
f 20/3/12 5/1/11 3/1/12
f 12/4/6 7/2/3 11/4/6
f 7/2/3 12/4/6 8/2/3
f 18/2/10 13/4/7 17/2/10
f 13/4/7 18/2/10 14/4/7
f 15/3/8 5/1/11 19/3/11
f 5/1/11 15/3/8 6/1/8
f 1/1/5 20/3/12 3/1/12
f 20/3/12 1/1/5 10/3/5
f 17/2/13 2/1/2 4/1/2
f 2/1/2 17/2/13 7/2/13
f 7/2/13 17/2/13 13/4/13
f 7/2/13 13/4/13 11/4/13
f 23/1/1 22/1/2 21/1/1
f 22/1/2 23/1/1 24/1/2
f 24/1/2 23/1/1 25/1/1
f 24/1/2 25/1/1 26/1/1
f 28/2/3 22/1/4 27/2/3
f 29/3/4 22/1/4 28/2/3
f 30/3/5 22/1/4 29/3/4
f 22/1/4 30/3/5 21/1/5
f 33/4/7 32/4/6 31/4/6
f 32/4/6 33/4/7 34/4/7
f 36/3/9 26/1/8 35/3/8
f 26/1/8 36/3/9 24/1/9
f 24/1/9 36/3/9 37/2/10
f 37/2/10 36/3/9 38/2/10
f 25/1/11 40/3/12 39/3/11
f 40/3/12 25/1/11 23/1/12
f 32/4/6 27/2/3 31/4/6
f 27/2/3 32/4/6 28/2/3
f 38/2/10 33/4/7 37/2/10
f 33/4/7 38/2/10 34/4/7
f 35/3/8 25/1/11 39/3/11
f 25/1/11 35/3/8 26/1/8
f 21/1/5 40/3/12 23/1/12
f 40/3/12 21/1/5 30/3/5
f 37/2/13 22/1/2 24/1/2
f 22/1/2 37/2/13 27/2/13
f 27/2/13 37/2/13 33/4/13
f 27/2/13 33/4/13 31/4/13
f 43/1/1 42/1/2 41/1/1
f 42/1/2 43/1/1 44/1/2
f 44/1/2 43/1/1 45/1/1
f 44/1/2 45/1/1 46/1/1
f 48/2/3 42/1/4 47/2/3
f 49/3/4 42/1/4 48/2/3
f 50/3/5 42/1/4 49/3/4
f 42/1/4 50/3/5 41/1/5
f 53/4/7 52/4/6 51/4/6
f 52/4/6 53/4/7 54/4/7
f 56/3/9 46/1/8 55/3/8
f 46/1/8 56/3/9 44/1/9
f 44/1/9 56/3/9 57/2/10
f 57/2/10 56/3/9 58/2/10
f 45/1/11 60/3/12 59/3/11
f 60/3/12 45/1/11 43/1/12
f 52/4/6 47/2/3 51/4/6
f 47/2/3 52/4/6 48/2/3
f 58/2/10 53/4/7 57/2/10
f 53/4/7 58/2/10 54/4/7
f 55/3/8 45/1/11 59/3/11
f 45/1/11 55/3/8 46/1/8
f 41/1/5 60/3/12 43/1/12
f 60/3/12 41/1/5 50/3/5
f 57/2/13 42/1/2 44/1/2
f 42/1/2 57/2/13 47/2/13
f 47/2/13 57/2/13 53/4/13
f 47/2/13 53/4/13 51/4/13
f 63/1/1 62/1/2 61/1/1
f 62/1/2 63/1/1 64/1/2
f 64/1/2 63/1/1 65/1/1
f 64/1/2 65/1/1 66/1/1
f 68/2/3 62/1/4 67/2/3
f 69/3/4 62/1/4 68/2/3
f 70/3/5 62/1/4 69/3/4
f 62/1/4 70/3/5 61/1/5
f 73/4/7 72/4/6 71/4/6
f 72/4/6 73/4/7 74/4/7
f 76/3/9 66/1/8 75/3/8
f 66/1/8 76/3/9 64/1/9
f 64/1/9 76/3/9 77/2/10
f 77/2/10 76/3/9 78/2/10
f 65/1/11 80/3/12 79/3/11
f 80/3/12 65/1/11 63/1/12
f 72/4/6 67/2/3 71/4/6
f 67/2/3 72/4/6 68/2/3
f 78/2/10 73/4/7 77/2/10
f 73/4/7 78/2/10 74/4/7
f 75/3/8 65/1/11 79/3/11
f 65/1/11 75/3/8 66/1/8
f 61/1/5 80/3/12 63/1/12
f 80/3/12 61/1/5 70/3/5
f 77/2/13 62/1/2 64/1/2
f 62/1/2 77/2/13 67/2/13
f 67/2/13 77/2/13 73/4/13
f 67/2/13 73/4/13 71/4/13
f 83/1/1 82/1/2 81/1/1
f 82/1/2 83/1/1 84/1/2
f 84/1/2 83/1/1 85/1/1
f 84/1/2 85/1/1 86/1/1
f 88/2/3 82/1/4 87/2/3
f 89/3/4 82/1/4 88/2/3
f 90/3/5 82/1/4 89/3/4
f 82/1/4 90/3/5 81/1/5
f 93/4/7 92/4/6 91/4/6
f 92/4/6 93/4/7 94/4/7
f 96/3/9 86/1/8 95/3/8
f 86/1/8 96/3/9 84/1/9
f 84/1/9 96/3/9 97/2/10
f 97/2/10 96/3/9 98/2/10
f 85/1/11 100/3/12 99/3/11
f 100/3/12 85/1/11 83/1/12
f 92/4/6 87/2/3 91/4/6
f 87/2/3 92/4/6 88/2/3
f 98/2/10 93/4/7 97/2/10
f 93/4/7 98/2/10 94/4/7
f 95/3/8 85/1/11 99/3/11
f 85/1/11 95/3/8 86/1/8
f 81/1/5 100/3/12 83/1/12
f 100/3/12 81/1/5 90/3/5
f 97/2/13 82/1/2 84/1/2
f 82/1/2 97/2/13 87/2/13
f 87/2/13 97/2/13 93/4/13
f 87/2/13 93/4/13 91/4/13
f 103/1/1 102/1/2 101/1/1
f 102/1/2 103/1/1 104/1/2
f 104/1/2 103/1/1 105/1/1
f 104/1/2 105/1/1 106/1/1
f 108/2/3 102/1/4 107/2/3
f 109/3/4 102/1/4 108/2/3
f 110/3/5 102/1/4 109/3/4
f 102/1/4 110/3/5 101/1/5
f 113/4/7 112/4/6 111/4/6
f 112/4/6 113/4/7 114/4/7
f 116/3/9 106/1/8 115/3/8
f 106/1/8 116/3/9 104/1/9
f 104/1/9 116/3/9 117/2/10
f 117/2/10 116/3/9 118/2/10
f 105/1/11 120/3/12 119/3/11
f 120/3/12 105/1/11 103/1/12
f 112/4/6 107/2/3 111/4/6
f 107/2/3 112/4/6 108/2/3
f 118/2/10 113/4/7 117/2/10
f 113/4/7 118/2/10 114/4/7
f 115/3/8 105/1/11 119/3/11
f 105/1/11 115/3/8 106/1/8
f 101/1/5 120/3/12 103/1/12
f 120/3/12 101/1/5 110/3/5
f 117/2/13 102/1/2 104/1/2
f 102/1/2 117/2/13 107/2/13
f 107/2/13 117/2/13 113/4/13
f 107/2/13 113/4/13 111/4/13
f 123/1/1 122/1/2 121/1/1
f 122/1/2 123/1/1 124/1/2
f 124/1/2 123/1/1 125/1/1
f 124/1/2 125/1/1 126/1/1
f 128/2/3 122/1/4 127/2/3
f 129/3/4 122/1/4 128/2/3
f 130/3/5 122/1/4 129/3/4
f 122/1/4 130/3/5 121/1/5
f 133/4/7 132/4/6 131/4/6
f 132/4/6 133/4/7 134/4/7
f 136/3/9 126/1/8 135/3/8
f 126/1/8 136/3/9 124/1/9
f 124/1/9 136/3/9 137/2/10
f 137/2/10 136/3/9 138/2/10
f 125/1/11 140/3/12 139/3/11
f 140/3/12 125/1/11 123/1/12
f 132/4/6 127/2/3 131/4/6
f 127/2/3 132/4/6 128/2/3
f 138/2/10 133/4/7 137/2/10
f 133/4/7 138/2/10 134/4/7
f 135/3/8 125/1/11 139/3/11
f 125/1/11 135/3/8 126/1/8
f 121/1/5 140/3/12 123/1/12
f 140/3/12 121/1/5 130/3/5
f 137/2/13 122/1/2 124/1/2
f 122/1/2 137/2/13 127/2/13
f 127/2/13 137/2/13 133/4/13
f 127/2/13 133/4/13 131/4/13
f 143/1/1 142/1/2 141/1/1
f 142/1/2 143/1/1 144/1/2
f 144/1/2 143/1/1 145/1/1
f 144/1/2 145/1/1 146/1/1
f 148/2/3 142/1/4 147/2/3
f 149/3/4 142/1/4 148/2/3
f 150/3/5 142/1/4 149/3/4
f 142/1/4 150/3/5 141/1/5
f 153/4/7 152/4/6 151/4/6
f 152/4/6 153/4/7 154/4/7
f 156/3/9 146/1/8 155/3/8
f 146/1/8 156/3/9 144/1/9
f 144/1/9 156/3/9 157/2/10
f 157/2/10 156/3/9 158/2/10
f 145/1/11 160/3/12 159/3/11
f 160/3/12 145/1/11 143/1/12
f 152/4/6 147/2/3 151/4/6
f 147/2/3 152/4/6 148/2/3
f 158/2/10 153/4/7 157/2/10
f 153/4/7 158/2/10 154/4/7
f 155/3/8 145/1/11 159/3/11
f 145/1/11 155/3/8 146/1/8
f 141/1/5 160/3/12 143/1/12
f 160/3/12 141/1/5 150/3/5
f 157/2/13 142/1/2 144/1/2
f 142/1/2 157/2/13 147/2/13
f 147/2/13 157/2/13 153/4/13
f 147/2/13 153/4/13 151/4/13
f 163/1/1 162/1/2 161/1/1
f 162/1/2 163/1/1 164/1/2
f 164/1/2 163/1/1 165/1/1
f 164/1/2 165/1/1 166/1/1
f 168/2/3 162/1/4 167/2/3
f 169/3/4 162/1/4 168/2/3
f 170/3/5 162/1/4 169/3/4
f 162/1/4 170/3/5 161/1/5
f 173/4/7 172/4/6 171/4/6
f 172/4/6 173/4/7 174/4/7
f 176/3/9 166/1/8 175/3/8
f 166/1/8 176/3/9 164/1/9
f 164/1/9 176/3/9 177/2/10
f 177/2/10 176/3/9 178/2/10
f 165/1/11 180/3/12 179/3/11
f 180/3/12 165/1/11 163/1/12
f 172/4/6 167/2/3 171/4/6
f 167/2/3 172/4/6 168/2/3
f 178/2/10 173/4/7 177/2/10
f 173/4/7 178/2/10 174/4/7
f 175/3/8 165/1/11 179/3/11
f 165/1/11 175/3/8 166/1/8
f 161/1/5 180/3/12 163/1/12
f 180/3/12 161/1/5 170/3/5
f 177/2/13 162/1/2 164/1/2
f 162/1/2 177/2/13 167/2/13
f 167/2/13 177/2/13 173/4/13
f 167/2/13 173/4/13 171/4/13
f 183/1/1 182/1/2 181/1/1
f 182/1/2 183/1/1 184/1/2
f 184/1/2 183/1/1 185/1/1
f 184/1/2 185/1/1 186/1/1
f 188/2/3 182/1/4 187/2/3
f 189/3/4 182/1/4 188/2/3
f 190/3/5 182/1/4 189/3/4
f 182/1/4 190/3/5 181/1/5
f 193/4/7 192/4/6 191/4/6
f 192/4/6 193/4/7 194/4/7
f 196/3/9 186/1/8 195/3/8
f 186/1/8 196/3/9 184/1/9
f 184/1/9 196/3/9 197/2/10
f 197/2/10 196/3/9 198/2/10
f 185/1/11 200/3/12 199/3/11
f 200/3/12 185/1/11 183/1/12
f 192/4/6 187/2/3 191/4/6
f 187/2/3 192/4/6 188/2/3
f 198/2/10 193/4/7 197/2/10
f 193/4/7 198/2/10 194/4/7
f 195/3/8 185/1/11 199/3/11
f 185/1/11 195/3/8 186/1/8
f 181/1/5 200/3/12 183/1/12
f 200/3/12 181/1/5 190/3/5
f 197/2/13 182/1/2 184/1/2
f 182/1/2 197/2/13 187/2/13
f 187/2/13 197/2/13 193/4/13
f 187/2/13 193/4/13 191/4/13
f 203/5/14 202/5/14 201/5/14
f 202/5/14 203/5/14 204/5/14
f 207/6/1 206/6/1 205/6/1
f 206/6/1 207/6/1 208/6/1
f 203/5/9 208/6/9 204/5/9
f 208/6/9 203/5/9 206/6/9
f 205/6/4 202/5/4 207/6/4
f 202/5/4 205/6/4 201/5/4
f 205/6/15 203/5/15 201/5/15
f 203/5/15 205/6/15 206/6/15
f 216/6/24 212/5/24 215/6/24
f 215/6/24 212/5/24 221/9/24
f 221/9/24 212/5/24 224/9/24
f 224/9/24 212/5/24 225/10/24
f 225/10/24 212/5/24 220/8/24
f 220/8/24 212/5/24 219/7/24
f 219/7/24 212/5/24 227/11/24
f 210/5/24 227/11/24 212/5/24
f 228/11/23 209/5/23 217/7/23
f 211/5/23 217/7/23 209/5/23
f 213/6/23 222/9/23 214/6/23
f 214/6/23 222/9/23 211/5/23
f 218/8/23 217/7/23 211/5/23
f 222/9/23 223/9/23 211/5/23
f 223/9/23 218/8/23 211/5/23
f 226/10/23 218/8/23 223/9/23
f 217/7/17 219/7/17 228/11/22
f 227/11/22 228/11/22 219/7/17
f 228/11/22 227/11/22 209/5/19
f 210/5/19 209/5/19 227/11/22
f 224/9/20 225/10/21 223/9/20
f 226/10/21 223/9/20 225/10/21
f 226/10/21 225/10/21 218/8/19
f 220/8/19 218/8/19 225/10/21
f 224/9/20 223/9/20 221/9/1
f 222/9/1 221/9/1 223/9/20
f 213/6/19 215/6/19 222/9/19
f 221/9/19 222/9/19 215/6/19
f 220/8/18 219/7/17 218/8/18
f 217/7/17 218/8/18 219/7/17
f 216/6/16 214/6/16 212/5/16
f 211/5/16 212/5/16 214/6/16
f 216/6/1 215/6/1 214/6/1
f 213/6/1 214/6/1 215/6/1
f 212/5/14 211/5/14 210/5/14
f 209/5/14 210/5/14 211/5/14
f 231/5/14 230/5/14 229/5/14
f 230/5/14 231/5/14 232/5/14
f 235/6/1 234/6/1 233/6/1
f 234/6/1 235/6/1 236/6/1
f 234/6/15 232/5/15 231/5/15
f 232/5/15 234/6/15 236/6/15
f 239/7/25 238/8/26 237/7/25
f 238/8/26 239/7/25 240/8/26
f 235/6/13 242/9/13 241/9/13
f 242/9/13 235/6/13 233/6/13
f 243/9/27 241/9/1 242/9/1
f 241/9/1 243/9/27 244/9/27
f 245/10/28 238/8/13 240/8/13
f 238/8/13 245/10/28 246/10/28
f 245/10/28 243/9/27 246/10/28
f 243/9/27 245/10/28 244/9/27
f 247/11/29 229/5/13 230/5/13
f 229/5/13 247/11/29 248/11/29
f 239/7/25 248/11/29 247/11/29
f 248/11/29 239/7/25 237/7/25
f 243/9/4 238/8/4 246/10/4
f 231/5/4 238/8/4 243/9/4
f 231/5/4 243/9/4 242/9/4
f 231/5/4 237/7/4 238/8/4
f 231/5/4 242/9/4 234/6/4
f 234/6/4 242/9/4 233/6/4
f 229/5/4 237/7/4 231/5/4
f 237/7/4 229/5/4 248/11/4
f 232/5/9 247/11/9 230/5/9
f 247/11/9 232/5/9 239/7/9
f 239/7/9 232/5/9 240/8/9
f 240/8/9 232/5/9 245/10/9
f 245/10/9 232/5/9 244/9/9
f 244/9/9 232/5/9 241/9/9
f 241/9/9 232/5/9 235/6/9
f 235/6/9 232/5/9 236/6/9
f 251/12/1 250/12/1 249/12/1
f 250/12/1 251/12/1 252/12/1
f 255/13/1 254/13/1 253/13/1
f 254/13/1 255/13/1 256/13/1
f 259/14/1 258/14/1 257/14/1
f 258/14/1 259/14/1 260/14/1
f 263/15/1 262/15/1 261/15/1
f 262/15/1 263/15/1 264/15/1
f 267/16/1 266/16/1 265/16/1
f 266/16/1 267/16/1 268/16/1
f 271/17/1 270/17/1 269/17/1
f 270/17/1 271/17/1 272/17/1
f 208/19/13 202/18/13 204/18/13
f 202/18/13 208/19/13 207/19/13
f 275/21/13 274/20/13 273/20/13
f 274/20/13 275/21/13 276/21/13
f 276/21/13 275/21/13 277/22/13
f 276/21/13 277/22/13 278/22/13
f 283/24/30 282/24/30 281/23/30
f 280/23/30 281/23/30 282/24/30
f 285/25/24 283/24/24 290/25/24
f 290/25/24 283/24/24 289/29/24
f 289/29/24 283/24/24 288/28/24
f 283/24/24 281/23/24 288/28/24
f 288/28/24 281/23/24 287/27/24
f 287/27/24 281/23/24 286/26/24
f 279/23/24 286/26/24 281/23/24
f 285/25/16 284/25/16 283/24/16
f 282/24/16 283/24/16 284/25/16
f 281/23/14 280/23/14 279/23/14
f 210/23/14 279/23/14 280/23/14
f 292/23/14 291/23/14 230/23/14
f 291/23/14 292/23/14 293/23/14
f 296/25/15 295/24/15 294/24/15
f 295/24/15 296/25/15 297/25/15
f 294/24/31 293/23/31 292/23/31
f 293/23/31 294/24/31 295/24/31
f 293/23/9 298/26/9 291/23/9
f 298/26/9 293/23/9 299/27/9
f 299/27/9 293/23/9 300/28/9
f 300/28/9 293/23/9 295/24/9
f 300/28/9 295/24/9 301/29/9
f 301/29/9 295/24/9 302/25/9
f 302/25/9 295/24/9 297/25/9
f 219/30/17 287/30/17 227/35/22
f 286/35/22 227/35/22 287/30/17
f 227/35/22 286/35/22 210/34/19
f 279/34/19 210/34/19 286/35/22
f 290/32/20 289/33/21 224/32/20
f 225/33/21 224/32/20 289/33/21
f 225/33/21 289/33/21 220/31/19
f 288/31/19 220/31/19 289/33/21
f 285/32/1 290/32/20 284/32/1
f 224/32/20 284/32/1 290/32/20
f 288/31/18 287/30/17 220/31/18
f 219/30/17 220/31/18 287/30/17
f 299/30/25 240/31/26 239/30/25
f 240/31/26 299/30/25 300/31/26
f 298/35/29 230/34/13 291/34/13
f 230/34/13 298/35/29 247/35/29
f 299/30/25 247/35/29 298/35/29
f 247/35/29 299/30/25 239/30/25
f 244/32/27 297/32/1 296/32/1
f 297/32/1 244/32/27 302/32/27
f 301/33/28 240/31/13 300/31/13
f 240/31/13 301/33/28 245/33/28
f 301/33/28 244/32/27 245/33/28
f 244/32/27 301/33/28 302/32/27
f 305/34/32 304/32/13 303/32/32
f 304/32/13 305/34/32 306/34/13
f 309/32/9 308/34/33 307/32/33
f 308/34/33 309/32/9 310/34/9
f 307/32/33 305/34/32 303/32/32
f 305/34/32 307/32/33 308/34/33
f 316/34/35 315/32/35 313/34/34
f 311/32/34 313/34/34 315/32/35
f 318/34/4 317/32/4 316/34/35
f 315/32/35 316/34/35 317/32/4
f 314/34/13 313/34/34 312/32/13
f 311/32/34 312/32/13 313/34/34
f 266/37/15 320/36/15 319/36/15
f 320/36/15 266/37/15 268/37/15
f 255/39/13 250/38/13 252/38/13
f 250/38/13 255/39/13 253/39/13
f 259/40/13 254/39/13 256/39/13
f 254/39/13 259/40/13 257/40/13
f 263/41/13 258/40/13 260/40/13
f 258/40/13 263/41/13 261/41/13
f 272/42/13 262/41/13 264/41/13
f 262/41/13 272/42/13 271/42/13
f 267/37/13 269/42/13 270/42/13
f 269/42/13 267/37/13 265/37/13
f 251/38/13 322/43/13 321/43/13
f 322/43/13 251/38/13 249/38/13
f 323/43/13 201/36/13 203/36/13
f 201/36/13 323/43/13 324/43/13
f 323/43/1 322/43/1 324/43/1
f 322/43/1 323/43/1 321/43/1
f 320/36/14 201/36/14 319/36/14
f 201/36/14 320/36/14 203/36/14
f 327/36/9 326/37/9 325/36/9
f 326/37/9 327/36/9 328/37/9
f 331/37/4 330/36/4 329/37/4
f 330/36/4 331/37/4 332/36/4
f 326/37/1 331/37/1 329/37/1
f 331/37/1 326/37/1 328/37/1
f 332/36/15 328/37/15 327/36/15
f 328/37/15 332/36/15 331/37/15
f 326/37/13 333/36/13 325/36/13
f 333/36/13 326/37/13 334/44/13
f 334/44/13 326/37/13 335/45/13
f 336/45/13 334/44/13 335/45/13
f 335/45/13 326/37/13 336/45/13
f 336/45/13 326/37/13 337/45/13
f 337/45/13 326/37/13 338/45/13
f 329/37/13 338/45/13 326/37/13
f 338/45/13 339/44/13 337/45/13
f 329/37/13 339/44/13 338/45/13
f 330/36/13 339/44/13 329/37/13
f 339/44/13 330/36/13 340/36/13
f 275/44/36 333/36/4 334/44/36
f 333/36/4 275/44/36 273/36/4
f 274/36/9 339/44/37 340/36/9
f 339/44/37 274/36/9 276/44/37
f 277/45/39 337/45/38 278/45/38
f 337/45/38 277/45/39 336/45/39
f 278/45/38 339/44/37 276/44/37
f 339/44/37 278/45/38 337/45/38
f 336/45/39 275/44/36 334/44/36
f 275/44/36 336/45/39 277/45/39

g grandstand




usemtl colormap

f 3/1/1 2/1/2 1/1/1
f 2/1/2 3/1/1 4/1/2
f 4/1/2 3/1/1 5/1/1
f 4/1/2 5/1/1 6/1/1
f 8/2/3 2/1/4 7/2/3
f 9/3/4 2/1/4 8/2/3
f 10/3/5 2/1/4 9/3/4
f 2/1/4 10/3/5 1/1/5
f 13/4/7 12/4/6 11/4/6
f 12/4/6 13/4/7 14/4/7
f 16/3/9 6/1/8 15/3/8
f 6/1/8 16/3/9 4/1/9
f 4/1/9 16/3/9 17/2/10
f 17/2/10 16/3/9 18/2/10
f 5/1/11 20/3/12 19/3/11
f 20/3/12 5/1/11 3/1/12
f 12/4/6 7/2/3 11/4/6
f 7/2/3 12/4/6 8/2/3
f 18/2/10 13/4/7 17/2/10
f 13/4/7 18/2/10 14/4/7
f 15/3/8 5/1/11 19/3/11
f 5/1/11 15/3/8 6/1/8
f 1/1/5 20/3/12 3/1/12
f 20/3/12 1/1/5 10/3/5
f 17/2/13 2/1/2 4/1/2
f 2/1/2 17/2/13 7/2/13
f 7/2/13 17/2/13 13/4/13
f 7/2/13 13/4/13 11/4/13
f 23/1/1 22/1/2 21/1/1
f 22/1/2 23/1/1 24/1/2
f 24/1/2 23/1/1 25/1/1
f 24/1/2 25/1/1 26/1/1
f 28/2/3 22/1/4 27/2/3
f 29/3/4 22/1/4 28/2/3
f 30/3/5 22/1/4 29/3/4
f 22/1/4 30/3/5 21/1/5
f 33/4/7 32/4/6 31/4/6
f 32/4/6 33/4/7 34/4/7
f 36/3/9 26/1/8 35/3/8
f 26/1/8 36/3/9 24/1/9
f 24/1/9 36/3/9 37/2/10
f 37/2/10 36/3/9 38/2/10
f 25/1/11 40/3/12 39/3/11
f 40/3/12 25/1/11 23/1/12
f 32/4/6 27/2/3 31/4/6
f 27/2/3 32/4/6 28/2/3
f 38/2/10 33/4/7 37/2/10
f 33/4/7 38/2/10 34/4/7
f 35/3/8 25/1/11 39/3/11
f 25/1/11 35/3/8 26/1/8
f 21/1/5 40/3/12 23/1/12
f 40/3/12 21/1/5 30/3/5
f 37/2/13 22/1/2 24/1/2
f 22/1/2 37/2/13 27/2/13
f 27/2/13 37/2/13 33/4/13
f 27/2/13 33/4/13 31/4/13
f 43/1/1 42/1/2 41/1/1
f 42/1/2 43/1/1 44/1/2
f 44/1/2 43/1/1 45/1/1
f 44/1/2 45/1/1 46/1/1
f 48/2/3 42/1/4 47/2/3
f 49/3/4 42/1/4 48/2/3
f 50/3/5 42/1/4 49/3/4
f 42/1/4 50/3/5 41/1/5
f 53/4/7 52/4/6 51/4/6
f 52/4/6 53/4/7 54/4/7
f 56/3/9 46/1/8 55/3/8
f 46/1/8 56/3/9 44/1/9
f 44/1/9 56/3/9 57/2/10
f 57/2/10 56/3/9 58/2/10
f 45/1/11 60/3/12 59/3/11
f 60/3/12 45/1/11 43/1/12
f 52/4/6 47/2/3 51/4/6
f 47/2/3 52/4/6 48/2/3
f 58/2/10 53/4/7 57/2/10
f 53/4/7 58/2/10 54/4/7
f 55/3/8 45/1/11 59/3/11
f 45/1/11 55/3/8 46/1/8
f 41/1/5 60/3/12 43/1/12
f 60/3/12 41/1/5 50/3/5
f 57/2/13 42/1/2 44/1/2
f 42/1/2 57/2/13 47/2/13
f 47/2/13 57/2/13 53/4/13
f 47/2/13 53/4/13 51/4/13
f 63/1/1 62/1/2 61/1/1
f 62/1/2 63/1/1 64/1/2
f 64/1/2 63/1/1 65/1/1
f 64/1/2 65/1/1 66/1/1
f 68/2/3 62/1/4 67/2/3
f 69/3/4 62/1/4 68/2/3
f 70/3/5 62/1/4 69/3/4
f 62/1/4 70/3/5 61/1/5
f 73/4/7 72/4/6 71/4/6
f 72/4/6 73/4/7 74/4/7
f 76/3/9 66/1/8 75/3/8
f 66/1/8 76/3/9 64/1/9
f 64/1/9 76/3/9 77/2/10
f 77/2/10 76/3/9 78/2/10
f 65/1/11 80/3/12 79/3/11
f 80/3/12 65/1/11 63/1/12
f 72/4/6 67/2/3 71/4/6
f 67/2/3 72/4/6 68/2/3
f 78/2/10 73/4/7 77/2/10
f 73/4/7 78/2/10 74/4/7
f 75/3/8 65/1/11 79/3/11
f 65/1/11 75/3/8 66/1/8
f 61/1/5 80/3/12 63/1/12
f 80/3/12 61/1/5 70/3/5
f 77/2/13 62/1/2 64/1/2
f 62/1/2 77/2/13 67/2/13
f 67/2/13 77/2/13 73/4/13
f 67/2/13 73/4/13 71/4/13
f 83/1/1 82/1/2 81/1/1
f 82/1/2 83/1/1 84/1/2
f 84/1/2 83/1/1 85/1/1
f 84/1/2 85/1/1 86/1/1
f 88/2/3 82/1/4 87/2/3
f 89/3/4 82/1/4 88/2/3
f 90/3/5 82/1/4 89/3/4
f 82/1/4 90/3/5 81/1/5
f 93/4/7 92/4/6 91/4/6
f 92/4/6 93/4/7 94/4/7
f 96/3/9 86/1/8 95/3/8
f 86/1/8 96/3/9 84/1/9
f 84/1/9 96/3/9 97/2/10
f 97/2/10 96/3/9 98/2/10
f 85/1/11 100/3/12 99/3/11
f 100/3/12 85/1/11 83/1/12
f 92/4/6 87/2/3 91/4/6
f 87/2/3 92/4/6 88/2/3
f 98/2/10 93/4/7 97/2/10
f 93/4/7 98/2/10 94/4/7
f 95/3/8 85/1/11 99/3/11
f 85/1/11 95/3/8 86/1/8
f 81/1/5 100/3/12 83/1/12
f 100/3/12 81/1/5 90/3/5
f 97/2/13 82/1/2 84/1/2
f 82/1/2 97/2/13 87/2/13
f 87/2/13 97/2/13 93/4/13
f 87/2/13 93/4/13 91/4/13
f 103/1/1 102/1/2 101/1/1
f 102/1/2 103/1/1 104/1/2
f 104/1/2 103/1/1 105/1/1
f 104/1/2 105/1/1 106/1/1
f 108/2/3 102/1/4 107/2/3
f 109/3/4 102/1/4 108/2/3
f 110/3/5 102/1/4 109/3/4
f 102/1/4 110/3/5 101/1/5
f 113/4/7 112/4/6 111/4/6
f 112/4/6 113/4/7 114/4/7
f 116/3/9 106/1/8 115/3/8
f 106/1/8 116/3/9 104/1/9
f 104/1/9 116/3/9 117/2/10
f 117/2/10 116/3/9 118/2/10
f 105/1/11 120/3/12 119/3/11
f 120/3/12 105/1/11 103/1/12
f 112/4/6 107/2/3 111/4/6
f 107/2/3 112/4/6 108/2/3
f 118/2/10 113/4/7 117/2/10
f 113/4/7 118/2/10 114/4/7
f 115/3/8 105/1/11 119/3/11
f 105/1/11 115/3/8 106/1/8
f 101/1/5 120/3/12 103/1/12
f 120/3/12 101/1/5 110/3/5
f 117/2/13 102/1/2 104/1/2
f 102/1/2 117/2/13 107/2/13
f 107/2/13 117/2/13 113/4/13
f 107/2/13 113/4/13 111/4/13
f 123/1/1 122/1/2 121/1/1
f 122/1/2 123/1/1 124/1/2
f 124/1/2 123/1/1 125/1/1
f 124/1/2 125/1/1 126/1/1
f 128/2/3 122/1/4 127/2/3
f 129/3/4 122/1/4 128/2/3
f 130/3/5 122/1/4 129/3/4
f 122/1/4 130/3/5 121/1/5
f 133/4/7 132/4/6 131/4/6
f 132/4/6 133/4/7 134/4/7
f 136/3/9 126/1/8 135/3/8
f 126/1/8 136/3/9 124/1/9
f 124/1/9 136/3/9 137/2/10
f 137/2/10 136/3/9 138/2/10
f 125/1/11 140/3/12 139/3/11
f 140/3/12 125/1/11 123/1/12
f 132/4/6 127/2/3 131/4/6
f 127/2/3 132/4/6 128/2/3
f 138/2/10 133/4/7 137/2/10
f 133/4/7 138/2/10 134/4/7
f 135/3/8 125/1/11 139/3/11
f 125/1/11 135/3/8 126/1/8
f 121/1/5 140/3/12 123/1/12
f 140/3/12 121/1/5 130/3/5
f 137/2/13 122/1/2 124/1/2
f 122/1/2 137/2/13 127/2/13
f 127/2/13 137/2/13 133/4/13
f 127/2/13 133/4/13 131/4/13
f 143/1/1 142/1/2 141/1/1
f 142/1/2 143/1/1 144/1/2
f 144/1/2 143/1/1 145/1/1
f 144/1/2 145/1/1 146/1/1
f 148/2/3 142/1/4 147/2/3
f 149/3/4 142/1/4 148/2/3
f 150/3/5 142/1/4 149/3/4
f 142/1/4 150/3/5 141/1/5
f 153/4/7 152/4/6 151/4/6
f 152/4/6 153/4/7 154/4/7
f 156/3/9 146/1/8 155/3/8
f 146/1/8 156/3/9 144/1/9
f 144/1/9 156/3/9 157/2/10
f 157/2/10 156/3/9 158/2/10
f 145/1/11 160/3/12 159/3/11
f 160/3/12 145/1/11 143/1/12
f 152/4/6 147/2/3 151/4/6
f 147/2/3 152/4/6 148/2/3
f 158/2/10 153/4/7 157/2/10
f 153/4/7 158/2/10 154/4/7
f 155/3/8 145/1/11 159/3/11
f 145/1/11 155/3/8 146/1/8
f 141/1/5 160/3/12 143/1/12
f 160/3/12 141/1/5 150/3/5
f 157/2/13 142/1/2 144/1/2
f 142/1/2 157/2/13 147/2/13
f 147/2/13 157/2/13 153/4/13
f 147/2/13 153/4/13 151/4/13
f 163/1/1 162/1/2 161/1/1
f 162/1/2 163/1/1 164/1/2
f 164/1/2 163/1/1 165/1/1
f 164/1/2 165/1/1 166/1/1
f 168/2/3 162/1/4 167/2/3
f 169/3/4 162/1/4 168/2/3
f 170/3/5 162/1/4 169/3/4
f 162/1/4 170/3/5 161/1/5
f 173/4/7 172/4/6 171/4/6
f 172/4/6 173/4/7 174/4/7
f 176/3/9 166/1/8 175/3/8
f 166/1/8 176/3/9 164/1/9
f 164/1/9 176/3/9 177/2/10
f 177/2/10 176/3/9 178/2/10
f 165/1/11 180/3/12 179/3/11
f 180/3/12 165/1/11 163/1/12
f 172/4/6 167/2/3 171/4/6
f 167/2/3 172/4/6 168/2/3
f 178/2/10 173/4/7 177/2/10
f 173/4/7 178/2/10 174/4/7
f 175/3/8 165/1/11 179/3/11
f 165/1/11 175/3/8 166/1/8
f 161/1/5 180/3/12 163/1/12
f 180/3/12 161/1/5 170/3/5
f 177/2/13 162/1/2 164/1/2
f 162/1/2 177/2/13 167/2/13
f 167/2/13 177/2/13 173/4/13
f 167/2/13 173/4/13 171/4/13
f 183/1/1 182/1/2 181/1/1
f 182/1/2 183/1/1 184/1/2
f 184/1/2 183/1/1 185/1/1
f 184/1/2 185/1/1 186/1/1
f 188/2/3 182/1/4 187/2/3
f 189/3/4 182/1/4 188/2/3
f 190/3/5 182/1/4 189/3/4
f 182/1/4 190/3/5 181/1/5
f 193/4/7 192/4/6 191/4/6
f 192/4/6 193/4/7 194/4/7
f 196/3/9 186/1/8 195/3/8
f 186/1/8 196/3/9 184/1/9
f 184/1/9 196/3/9 197/2/10
f 197/2/10 196/3/9 198/2/10
f 185/1/11 200/3/12 199/3/11
f 200/3/12 185/1/11 183/1/12
f 192/4/6 187/2/3 191/4/6
f 187/2/3 192/4/6 188/2/3
f 198/2/10 193/4/7 197/2/10
f 193/4/7 198/2/10 194/4/7
f 195/3/8 185/1/11 199/3/11
f 185/1/11 195/3/8 186/1/8
f 181/1/5 200/3/12 183/1/12
f 200/3/12 181/1/5 190/3/5
f 197/2/13 182/1/2 184/1/2
f 182/1/2 197/2/13 187/2/13
f 187/2/13 197/2/13 193/4/13
f 187/2/13 193/4/13 191/4/13
f 203/5/14 202/5/14 201/5/14
f 202/5/14 203/5/14 204/5/14
f 207/6/1 206/6/1 205/6/1
f 206/6/1 207/6/1 208/6/1
f 203/5/9 208/6/9 204/5/9
f 208/6/9 203/5/9 206/6/9
f 205/6/4 202/5/4 207/6/4
f 202/5/4 205/6/4 201/5/4
f 205/6/15 203/5/15 201/5/15
f 203/5/15 205/6/15 206/6/15
f 216/6/24 212/5/24 215/6/24
f 215/6/24 212/5/24 221/9/24
f 221/9/24 212/5/24 224/9/24
f 224/9/24 212/5/24 225/10/24
f 225/10/24 212/5/24 220/8/24
f 220/8/24 212/5/24 219/7/24
f 219/7/24 212/5/24 227/11/24
f 210/5/24 227/11/24 212/5/24
f 228/11/23 209/5/23 217/7/23
f 211/5/23 217/7/23 209/5/23
f 213/6/23 222/9/23 214/6/23
f 214/6/23 222/9/23 211/5/23
f 218/8/23 217/7/23 211/5/23
f 222/9/23 223/9/23 211/5/23
f 223/9/23 218/8/23 211/5/23
f 226/10/23 218/8/23 223/9/23
f 217/7/17 219/7/17 228/11/22
f 227/11/22 228/11/22 219/7/17
f 228/11/22 227/11/22 209/5/19
f 210/5/19 209/5/19 227/11/22
f 224/9/20 225/10/21 223/9/20
f 226/10/21 223/9/20 225/10/21
f 226/10/21 225/10/21 218/8/19
f 220/8/19 218/8/19 225/10/21
f 224/9/20 223/9/20 221/9/1
f 222/9/1 221/9/1 223/9/20
f 213/6/19 215/6/19 222/9/19
f 221/9/19 222/9/19 215/6/19
f 220/8/18 219/7/17 218/8/18
f 217/7/17 218/8/18 219/7/17
f 216/6/16 214/6/16 212/5/16
f 211/5/16 212/5/16 214/6/16
f 216/6/1 215/6/1 214/6/1
f 213/6/1 214/6/1 215/6/1
f 212/5/14 211/5/14 210/5/14
f 209/5/14 210/5/14 211/5/14
f 231/5/14 230/5/14 229/5/14
f 230/5/14 231/5/14 232/5/14
f 235/6/1 234/6/1 233/6/1
f 234/6/1 235/6/1 236/6/1
f 234/6/15 232/5/15 231/5/15
f 232/5/15 234/6/15 236/6/15
f 239/7/25 238/8/26 237/7/25
f 238/8/26 239/7/25 240/8/26
f 235/6/13 242/9/13 241/9/13
f 242/9/13 235/6/13 233/6/13
f 243/9/27 241/9/1 242/9/1
f 241/9/1 243/9/27 244/9/27
f 245/10/28 238/8/13 240/8/13
f 238/8/13 245/10/28 246/10/28
f 245/10/28 243/9/27 246/10/28
f 243/9/27 245/10/28 244/9/27
f 247/11/29 229/5/13 230/5/13
f 229/5/13 247/11/29 248/11/29
f 239/7/25 248/11/29 247/11/29
f 248/11/29 239/7/25 237/7/25
f 243/9/4 238/8/4 246/10/4
f 231/5/4 238/8/4 243/9/4
f 231/5/4 243/9/4 242/9/4
f 231/5/4 237/7/4 238/8/4
f 231/5/4 242/9/4 234/6/4
f 234/6/4 242/9/4 233/6/4
f 229/5/4 237/7/4 231/5/4
f 237/7/4 229/5/4 248/11/4
f 232/5/9 247/11/9 230/5/9
f 247/11/9 232/5/9 239/7/9
f 239/7/9 232/5/9 240/8/9
f 240/8/9 232/5/9 245/10/9
f 245/10/9 232/5/9 244/9/9
f 244/9/9 232/5/9 241/9/9
f 241/9/9 232/5/9 235/6/9
f 235/6/9 232/5/9 236/6/9
f 251/12/1 250/12/1 249/12/1
f 250/12/1 251/12/1 252/12/1
f 255/13/1 254/13/1 253/13/1
f 254/13/1 255/13/1 256/13/1
f 259/14/1 258/14/1 257/14/1
f 258/14/1 259/14/1 260/14/1
f 263/15/1 262/15/1 261/15/1
f 262/15/1 263/15/1 264/15/1
f 267/16/1 266/16/1 265/16/1
f 266/16/1 267/16/1 268/16/1
f 271/17/1 270/17/1 269/17/1
f 270/17/1 271/17/1 272/17/1
f 208/19/13 202/18/13 204/18/13
f 202/18/13 208/19/13 207/19/13
f 275/21/13 274/20/13 273/20/13
f 274/20/13 275/21/13 276/21/13
f 276/21/13 275/21/13 277/22/13
f 276/21/13 277/22/13 278/22/13
f 283/24/30 282/24/30 281/23/30
f 280/23/30 281/23/30 282/24/30
f 285/25/24 283/24/24 290/25/24
f 290/25/24 283/24/24 289/29/24
f 289/29/24 283/24/24 288/28/24
f 283/24/24 281/23/24 288/28/24
f 288/28/24 281/23/24 287/27/24
f 287/27/24 281/23/24 286/26/24
f 279/23/24 286/26/24 281/23/24
f 285/25/16 284/25/16 283/24/16
f 282/24/16 283/24/16 284/25/16
f 281/23/14 280/23/14 279/23/14
f 210/23/14 279/23/14 280/23/14
f 292/23/14 291/23/14 230/23/14
f 291/23/14 292/23/14 293/23/14
f 296/25/15 295/24/15 294/24/15
f 295/24/15 296/25/15 297/25/15
f 294/24/31 293/23/31 292/23/31
f 293/23/31 294/24/31 295/24/31
f 293/23/9 298/26/9 291/23/9
f 298/26/9 293/23/9 299/27/9
f 299/27/9 293/23/9 300/28/9
f 300/28/9 293/23/9 295/24/9
f 300/28/9 295/24/9 301/29/9
f 301/29/9 295/24/9 302/25/9
f 302/25/9 295/24/9 297/25/9
f 219/30/17 287/30/17 227/35/22
f 286/35/22 227/35/22 287/30/17
f 227/35/22 286/35/22 210/34/19
f 279/34/19 210/34/19 286/35/22
f 290/32/20 289/33/21 224/32/20
f 225/33/21 224/32/20 289/33/21
f 225/33/21 289/33/21 220/31/19
f 288/31/19 220/31/19 289/33/21
f 285/32/1 290/32/20 284/32/1
f 224/32/20 284/32/1 290/32/20
f 288/31/18 287/30/17 220/31/18
f 219/30/17 220/31/18 287/30/17
f 299/30/25 240/31/26 239/30/25
f 240/31/26 299/30/25 300/31/26
f 298/35/29 230/34/13 291/34/13
f 230/34/13 298/35/29 247/35/29
f 299/30/25 247/35/29 298/35/29
f 247/35/29 299/30/25 239/30/25
f 244/32/27 297/32/1 296/32/1
f 297/32/1 244/32/27 302/32/27
f 301/33/28 240/31/13 300/31/13
f 240/31/13 301/33/28 245/33/28
f 301/33/28 244/32/27 245/33/28
f 244/32/27 301/33/28 302/32/27
f 305/34/32 304/32/13 303/32/32
f 304/32/13 305/34/32 306/34/13
f 309/32/9 308/34/33 307/32/33
f 308/34/33 309/32/9 310/34/9
f 307/32/33 305/34/32 303/32/32
f 305/34/32 307/32/33 308/34/33
f 316/34/35 315/32/35 313/34/34
f 311/32/34 313/34/34 315/32/35
f 318/34/4 317/32/4 316/34/35
f 315/32/35 316/34/35 317/32/4
f 314/34/13 313/34/34 312/32/13
f 311/32/34 312/32/13 313/34/34
f 266/37/15 320/36/15 319/36/15
f 320/36/15 266/37/15 268/37/15
f 255/39/13 250/38/13 252/38/13
f 250/38/13 255/39/13 253/39/13
f 259/40/13 254/39/13 256/39/13
f 254/39/13 259/40/13 257/40/13
f 263/41/13 258/40/13 260/40/13
f 258/40/13 263/41/13 261/41/13
f 272/42/13 262/41/13 264/41/13
f 262/41/13 272/42/13 271/42/13
f 267/37/13 269/42/13 270/42/13
f 269/42/13 267/37/13 265/37/13
f 251/38/13 322/43/13 321/43/13
f 322/43/13 251/38/13 249/38/13
f 323/43/13 201/36/13 203/36/13
f 201/36/13 323/43/13 324/43/13
f 323/43/1 322/43/1 324/43/1
f 322/43/1 323/43/1 321/43/1
f 320/36/14 201/36/14 319/36/14
f 201/36/14 320/36/14 203/36/14
f 327/36/9 326/37/9 325/36/9
f 326/37/9 327/36/9 328/37/9
f 331/37/4 330/36/4 329/37/4
f 330/36/4 331/37/4 332/36/4
f 326/37/1 331/37/1 329/37/1
f 331/37/1 326/37/1 328/37/1
f 332/36/15 328/37/15 327/36/15
f 328/37/15 332/36/15 331/37/15
f 326/37/13 333/36/13 325/36/13
f 333/36/13 326/37/13 334/44/13
f 334/44/13 326/37/13 335/45/13
f 336/45/13 334/44/13 335/45/13
f 335/45/13 326/37/13 336/45/13
f 336/45/13 326/37/13 337/45/13
f 337/45/13 326/37/13 338/45/13
f 329/37/13 338/45/13 326/37/13
f 338/45/13 339/44/13 337/45/13
f 329/37/13 339/44/13 338/45/13
f 330/36/13 339/44/13 329/37/13
f 339/44/13 330/36/13 340/36/13
f 275/44/36 333/36/4 334/44/36
f 333/36/4 275/44/36 273/36/4
f 274/36/9 339/44/37 340/36/9
f 339/44/37 274/36/9 276/44/37
f 277/45/39 337/45/38 278/45/38
f 337/45/38 277/45/39 336/45/39
f 278/45/38 339/44/37 276/44/37
f 339/44/37 278/45/38 337/45/38
f 336/45/39 275/44/36 334/44/36
f 275/44/36 336/45/39 277/45/39

