# Created by Kenney (www.kenney.nl)

mtllib guardrail-single.mtl

g guardrail-single

v -0.4 0.175 -0.025 1 1 1
v -0.4 0.175 0.025 1 1 1
v -0.45 0.175 -0.025 1 1 1
v -0.45 0.175 0.025 1 1 1
v -0.4 0 0.025 1 1 1
v -0.45 0 0.025 1 1 1
v -0.45 0 -0.025 1 1 1
v -0.4 0 -0.025 1 1 1
v 0.5 0.1275 0.0625 1 1 1
v -0.5 0.1275 0.0625 1 1 1
v 0.5 0.15 0.0625 1 1 1
v -0.5 0.15 0.0625 1 1 1
v 0.5 0.05 0.0625 1 1 1
v 0.5 0.05 0.04375 1 1 1
v -0.5 0.05 0.0625 1 1 1
v -0.5 0.05 0.04375 1 1 1
v 0.5 0.06246531 0.04375 1 1 1
v 0.5 0.07496531 0.025 1 1 1
v -0.5 0.06246531 0.04375 1 1 1
v -0.5 0.07496531 0.025 1 1 1
v 0.5 0.115 0.04375 1 1 1
v -0.5 0.115 0.04375 1 1 1
v 0.5 0.1250347 0.025 1 1 1
v 0.5 0.1375347 0.04375 1 1 1
v -0.5 0.1250347 0.025 1 1 1
v -0.5 0.1375347 0.04375 1 1 1
v -0.5 0.085 0.04375 1 1 1
v -0.5 0.15 0.04375 1 1 1
v -0.5 0.0725 0.0625 1 1 1
v 0.5 0.085 0.04375 1 1 1
v 0.5 0.0725 0.0625 1 1 1
v 0.5 0.15 0.04375 1 1 1
v 0.45 0 0.025 1 1 1
v 0.45 0 -0.025 1 1 1
v 0.4 0 0.025 1 1 1
v 0.4 0 -0.025 1 1 1
v 0.4 0.175 -0.025 1 1 1
v 0.4 0.175 0.025 1 1 1
v 0.45 0.175 -0.025 1 1 1
v 0.45 0.175 0.025 1 1 1

vn 0 1 0
vn 0.7071068 0 0.7071068
vn -0.7071068 0 0.7071068
vn -0.7071068 0 -0.7071068
vn 0.7071068 0 -0.7071068
vn 0 -1 0
vn 0 -0.4718579 0.8816746
vn 0 0 1
vn 0 -0.4718579 -0.8816746
vn 0 0.4718579 -0.8816746
vn 0 0 -1
vn -1 0 0
vn 0 0.4718579 0.8816746
vn 1 0 0

vt 0.46875 0.225
vt 0.46875 0.025
vt 0.46875 0.18
vt 0.46875 0.04993061
vt 0.46875 0.07493061
vt 0.46875 0.155
vt 0.46875 0.1750694
vt 0.46875 0.2000694
vt 0.46875 0.095
vt 0.46875 0.06999999

usemtl colormap

f 3/1/1 2/1/1 1/1/1
f 2/1/1 3/1/1 4/1/1
f 2/1/2 6/2/3 5/2/2
f 6/2/3 2/1/2 4/1/3
f 6/2/3 3/1/4 7/2/4
f 3/1/4 6/2/3 4/1/3
f 2/1/2 8/2/5 1/1/5
f 8/2/5 2/1/2 5/2/2
f 3/1/4 8/2/5 7/2/4
f 8/2/5 3/1/4 1/1/5
f 6/2/6 8/2/6 5/2/6
f 8/2/6 6/2/6 7/2/6
f 11/1/8 10/3/7 9/3/7
f 10/3/7 11/1/8 12/1/8
f 15/2/6 14/2/6 13/2/6
f 14/2/6 15/2/6 16/2/6
f 19/4/9 18/5/9 17/4/9
f 18/5/9 19/4/9 20/5/9
f 10/3/7 21/6/7 9/3/7
f 21/6/7 10/3/7 22/6/7
f 25/7/10 24/8/10 23/7/10
f 24/8/10 25/7/10 26/8/10
f 25/7/10 18/5/9 20/5/9
f 18/5/9 25/7/10 23/7/10
f 19/4/9 14/2/11 16/2/11
f 14/2/11 19/4/9 17/4/9
f 19/4/12 25/7/12 20/5/12
f 25/7/12 19/4/12 26/8/12
f 26/8/12 19/4/12 27/9/12
f 26/8/12 27/9/12 22/6/12
f 26/8/12 22/6/12 10/3/12
f 26/8/12 10/3/12 28/1/12
f 28/1/12 10/3/12 12/1/12
f 19/4/12 15/2/12 27/9/12
f 27/9/12 15/2/12 29/10/12
f 15/2/12 19/4/12 16/2/12
f 27/9/13 31/10/13 30/9/13
f 31/10/13 27/9/13 29/10/13
f 21/6/7 27/9/13 30/9/13
f 27/9/13 21/6/7 22/6/7
f 32/1/1 12/1/1 11/1/1
f 12/1/1 32/1/1 28/1/1
f 11/1/14 24/8/14 32/1/14
f 24/8/14 11/1/14 9/3/14
f 21/6/14 24/8/14 9/3/14
f 18/5/14 24/8/14 21/6/14
f 24/8/14 18/5/14 23/7/14
f 30/9/14 18/5/14 21/6/14
f 18/5/14 30/9/14 17/4/14
f 17/4/14 30/9/14 31/10/14
f 17/4/14 31/10/14 14/2/14
f 14/2/14 31/10/14 13/2/14
f 28/1/11 24/8/10 26/8/10
f 24/8/10 28/1/11 32/1/11
f 31/10/13 15/2/8 13/2/8
f 15/2/8 31/10/13 29/10/13
f 35/2/6 34/2/6 33/2/6
f 34/2/6 35/2/6 36/2/6
f 35/2/3 37/1/4 36/2/4
f 37/1/4 35/2/3 38/1/3
f 37/1/4 34/2/5 36/2/4
f 34/2/5 37/1/4 39/1/5
f 37/1/1 40/1/1 39/1/1
f 40/1/1 37/1/1 38/1/1
f 40/1/2 34/2/5 39/1/5
f 34/2/5 40/1/2 33/2/2
f 40/1/2 35/2/3 33/2/2
f 35/2/3 40/1/2 38/1/3

g guardrail-single




usemtl colormap

f 3/1/1 2/1/1 1/1/1
f 2/1/1 3/1/1 4/1/1
f 2/1/2 6/2/3 5/2/2
f 6/2/3 2/1/2 4/1/3
f 6/2/3 3/1/4 7/2/4
f 3/1/4 6/2/3 4/1/3
f 2/1/2 8/2/5 1/1/5
f 8/2/5 2/1/2 5/2/2
f 3/1/4 8/2/5 7/2/4
f 8/2/5 3/1/4 1/1/5
f 6/2/6 8/2/6 5/2/6
f 8/2/6 6/2/6 7/2/6
f 11/1/8 10/3/7 9/3/7
f 10/3/7 11/1/8 12/1/8
f 15/2/6 14/2/6 13/2/6
f 14/2/6 15/2/6 16/2/6
f 19/4/9 18/5/9 17/4/9
f 18/5/9 19/4/9 20/5/9
f 10/3/7 21/6/7 9/3/7
f 21/6/7 10/3/7 22/6/7
f 25/7/10 24/8/10 23/7/10
f 24/8/10 25/7/10 26/8/10
f 25/7/10 18/5/9 20/5/9
f 18/5/9 25/7/10 23/7/10
f 19/4/9 14/2/11 16/2/11
f 14/2/11 19/4/9 17/4/9
f 19/4/12 25/7/12 20/5/12
f 25/7/12 19/4/12 26/8/12
f 26/8/12 19/4/12 27/9/12
f 26/8/12 27/9/12 22/6/12
f 26/8/12 22/6/12 10/3/12
f 26/8/12 10/3/12 28/1/12
f 28/1/12 10/3/12 12/1/12
f 19/4/12 15/2/12 27/9/12
f 27/9/12 15/2/12 29/10/12
f 15/2/12 19/4/12 16/2/12
f 27/9/13 31/10/13 30/9/13
f 31/10/13 27/9/13 29/10/13
f 21/6/7 27/9/13 30/9/13
f 27/9/13 21/6/7 22/6/7
f 32/1/1 12/1/1 11/1/1
f 12/1/1 32/1/1 28/1/1
f 11/1/14 24/8/14 32/1/14
f 24/8/14 11/1/14 9/3/14
f 21/6/14 24/8/14 9/3/14
f 18/5/14 24/8/14 21/6/14
f 24/8/14 18/5/14 23/7/14
f 30/9/14 18/5/14 21/6/14
f 18/5/14 30/9/14 17/4/14
f 17/4/14 30/9/14 31/10/14
f 17/4/14 31/10/14 14/2/14
f 14/2/14 31/10/14 13/2/14
f 28/1/11 24/8/10 26/8/10
f 24/8/10 28/1/11 32/1/11
f 31/10/13 15/2/8 13/2/8
f 15/2/8 31/10/13 29/10/13
f 35/2/6 34/2/6 33/2/6
f 34/2/6 35/2/6 36/2/6
f 35/2/3 37/1/4 36/2/4
f 37/1/4 35/2/3 38/1/3
f 37/1/4 34/2/5 36/2/4
f 34/2/5 37/1/4 39/1/5
f 37/1/1 40/1/1 39/1/1
f 40/1/1 37/1/1 38/1/1
f 40/1/2 34/2/5 39/1/5
f 34/2/5 40/1/2 33/2/2
f 40/1/2 35/2/3 33/2/2
f 35/2/3 40/1/2 38/1/3

