# Created by Kenney (www.kenney.nl)

mtllib guardrail-double.mtl

g guardrail-double

v -0.4 0.3 -0.025 1 1 1
v -0.4 0.3 0.025 1 1 1
v -0.45 0.3 -0.025 1 1 1
v -0.45 0.3 0.025 1 1 1
v -0.4 0 0.025 1 1 1
v -0.45 0 0.025 1 1 1
v -0.45 0 -0.025 1 1 1
v -0.4 0 -0.025 1 1 1
v 0.5 0.275 0.0625 1 1 1
v -0.5 0.275 0.0625 1 1 1
v 0.5 0.275 0.04375 1 1 1
v -0.5 0.275 0.04375 1 1 1
v -0.5 0.175 0.04375 1 1 1
v 0.5 0.175 0.04375 1 1 1
v -0.5 0.1874653 0.04375 1 1 1
v 0.5 0.1874653 0.04375 1 1 1
v 0.5 0.1999653 0.025 1 1 1
v -0.5 0.1999653 0.025 1 1 1
v 0.5 0.175 0.0625 1 1 1
v -0.5 0.175 0.0625 1 1 1
v 0.5 0.1975 0.0625 1 1 1
v -0.5 0.1975 0.0625 1 1 1
v 0.5 0.2500347 0.025 1 1 1
v 0.5 0.2625347 0.04375 1 1 1
v -0.5 0.2500347 0.025 1 1 1
v -0.5 0.2625347 0.04375 1 1 1
v -0.5 0.21 0.04375 1 1 1
v -0.5 0.24 0.04375 1 1 1
v -0.5 0.2525 0.0625 1 1 1
v 0.5 0.21 0.04375 1 1 1
v 0.5 0.24 0.04375 1 1 1
v 0.5 0.2525 0.0625 1 1 1
v 0.5 0.1275 0.0625 1 1 1
v -0.5 0.1275 0.0625 1 1 1
v 0.5 0.15 0.0625 1 1 1
v -0.5 0.15 0.0625 1 1 1
v 0.5 0.05 0.0625 1 1 1
v 0.5 0.05 0.04375 1 1 1
v -0.5 0.05 0.0625 1 1 1
v -0.5 0.05 0.04375 1 1 1
v 0.5 0.06246531 0.04375 1 1 1
v 0.5 0.07496531 0.025 1 1 1
v -0.5 0.06246531 0.04375 1 1 1
v -0.5 0.07496531 0.025 1 1 1
v 0.5 0.115 0.04375 1 1 1
v -0.5 0.115 0.04375 1 1 1
v 0.5 0.1250347 0.025 1 1 1
v 0.5 0.1375347 0.04375 1 1 1
v -0.5 0.1250347 0.025 1 1 1
v -0.5 0.1375347 0.04375 1 1 1
v -0.5 0.085 0.04375 1 1 1
v -0.5 0.15 0.04375 1 1 1
v -0.5 0.0725 0.0625 1 1 1
v 0.5 0.085 0.04375 1 1 1
v 0.5 0.0725 0.0625 1 1 1
v 0.5 0.15 0.04375 1 1 1
v 0.45 0 0.025 1 1 1
v 0.45 0 -0.025 1 1 1
v 0.4 0 0.025 1 1 1
v 0.4 0 -0.025 1 1 1
v 0.4 0.3 -0.025 1 1 1
v 0.4 0.3 0.025 1 1 1
v 0.45 0.3 -0.025 1 1 1
v 0.45 0.3 0.025 1 1 1

vn 0 1 0
vn 0.7071068 0 0.7071068
vn -0.7071068 0 0.7071068
vn -0.7071068 0 -0.7071068
vn 0.7071068 0 -0.7071068
vn 0 -1 0
vn 0 0 -1
vn 0 -0.4718579 -0.8816746
vn 0 0 1
vn 0 0.4718579 0.8816746
vn 0 0.4718579 -0.8816746
vn -1 0 0
vn 0 -0.4718579 0.8816746
vn 1 0 0

vt 0.46875 0.225
vt 0.46875 0.025
vt 0.46875 0.04993061
vt 0.46875 0.07493061
vt 0.46875 0.06999999
vt 0.46875 0.1750694
vt 0.46875 0.2000694
vt 0.46875 0.095
vt 0.46875 0.155
vt 0.46875 0.18

usemtl colormap

f 3/1/1 2/1/1 1/1/1
f 2/1/1 3/1/1 4/1/1
f 2/1/2 6/2/3 5/2/2
f 6/2/3 2/1/2 4/1/3
f 6/2/3 3/1/4 7/2/4
f 3/1/4 6/2/3 4/1/3
f 2/1/2 8/2/5 1/1/5
f 8/2/5 2/1/2 5/2/2
f 3/1/4 8/2/5 7/2/4
f 8/2/5 3/1/4 1/1/5
f 6/2/6 8/2/6 5/2/6
f 8/2/6 6/2/6 7/2/6
f 11/1/1 10/1/1 9/1/1
f 10/1/1 11/1/1 12/1/1
f 15/3/8 14/2/7 13/2/7
f 14/2/7 15/3/8 16/3/8
f 15/3/8 17/4/8 16/3/8
f 17/4/8 15/3/8 18/4/8
f 21/5/10 20/2/9 19/2/9
f 20/2/9 21/5/10 22/5/10
f 20/2/6 14/2/6 19/2/6
f 14/2/6 20/2/6 13/2/6
f 25/6/11 24/7/11 23/6/11
f 24/7/11 25/6/11 26/7/11
f 15/3/12 25/6/12 18/4/12
f 25/6/12 15/3/12 26/7/12
f 26/7/12 15/3/12 27/8/12
f 26/7/12 27/8/12 28/9/12
f 26/7/12 28/9/12 29/10/12
f 26/7/12 29/10/12 12/1/12
f 12/1/12 29/10/12 10/1/12
f 15/3/12 20/2/12 27/8/12
f 27/8/12 20/2/12 22/5/12
f 20/2/12 15/3/12 13/2/12
f 31/9/13 27/8/10 30/8/10
f 27/8/10 31/9/13 28/9/13
f 9/1/9 29/10/13 32/10/13
f 29/10/13 9/1/9 10/1/9
f 25/6/11 17/4/8 18/4/8
f 17/4/8 25/6/11 23/6/11
f 27/8/10 21/5/10 30/8/10
f 21/5/10 27/8/10 22/5/10
f 29/10/13 31/9/13 32/10/13
f 31/9/13 29/10/13 28/9/13
f 9/1/14 24/7/14 11/1/14
f 24/7/14 9/1/14 32/10/14
f 31/9/14 24/7/14 32/10/14
f 17/4/14 24/7/14 31/9/14
f 24/7/14 17/4/14 23/6/14
f 30/8/14 17/4/14 31/9/14
f 17/4/14 30/8/14 16/3/14
f 16/3/14 30/8/14 21/5/14
f 16/3/14 21/5/14 14/2/14
f 14/2/14 21/5/14 19/2/14
f 12/1/7 24/7/11 26/7/11
f 24/7/11 12/1/7 11/1/7
f 35/1/9 34/10/13 33/10/13
f 34/10/13 35/1/9 36/1/9
f 39/2/6 38/2/6 37/2/6
f 38/2/6 39/2/6 40/2/6
f 43/3/8 42/4/8 41/3/8
f 42/4/8 43/3/8 44/4/8
f 34/10/13 45/9/13 33/10/13
f 45/9/13 34/10/13 46/9/13
f 49/6/11 48/7/11 47/6/11
f 48/7/11 49/6/11 50/7/11
f 49/6/11 42/4/8 44/4/8
f 42/4/8 49/6/11 47/6/11
f 43/3/8 38/2/7 40/2/7
f 38/2/7 43/3/8 41/3/8
f 43/3/12 49/6/12 44/4/12
f 49/6/12 43/3/12 50/7/12
f 50/7/12 43/3/12 51/8/12
f 50/7/12 51/8/12 46/9/12
f 50/7/12 46/9/12 34/10/12
f 50/7/12 34/10/12 52/1/12
f 52/1/12 34/10/12 36/1/12
f 43/3/12 39/2/12 51/8/12
f 51/8/12 39/2/12 53/5/12
f 39/2/12 43/3/12 40/2/12
f 51/8/10 55/5/10 54/8/10
f 55/5/10 51/8/10 53/5/10
f 45/9/13 51/8/10 54/8/10
f 51/8/10 45/9/13 46/9/13
f 56/1/1 36/1/1 35/1/1
f 36/1/1 56/1/1 52/1/1
f 35/1/14 48/7/14 56/1/14
f 48/7/14 35/1/14 33/10/14
f 45/9/14 48/7/14 33/10/14
f 42/4/14 48/7/14 45/9/14
f 48/7/14 42/4/14 47/6/14
f 54/8/14 42/4/14 45/9/14
f 42/4/14 54/8/14 41/3/14
f 41/3/14 54/8/14 55/5/14
f 41/3/14 55/5/14 38/2/14
f 38/2/14 55/5/14 37/2/14
f 52/1/7 48/7/11 50/7/11
f 48/7/11 52/1/7 56/1/7
f 55/5/10 39/2/9 37/2/9
f 39/2/9 55/5/10 53/5/10
f 59/2/6 58/2/6 57/2/6
f 58/2/6 59/2/6 60/2/6
f 59/2/3 61/1/4 60/2/4
f 61/1/4 59/2/3 62/1/3
f 61/1/4 58/2/5 60/2/4
f 58/2/5 61/1/4 63/1/5
f 61/1/1 64/1/1 63/1/1
f 64/1/1 61/1/1 62/1/1
f 64/1/2 58/2/5 63/1/5
f 58/2/5 64/1/2 57/2/2
f 64/1/2 59/2/3 57/2/2
f 59/2/3 64/1/2 62/1/3

g guardrail-double




usemtl colormap

f 3/1/1 2/1/1 1/1/1
f 2/1/1 3/1/1 4/1/1
f 2/1/2 6/2/3 5/2/2
f 6/2/3 2/1/2 4/1/3
f 6/2/3 3/1/4 7/2/4
f 3/1/4 6/2/3 4/1/3
f 2/1/2 8/2/5 1/1/5
f 8/2/5 2/1/2 5/2/2
f 3/1/4 8/2/5 7/2/4
f 8/2/5 3/1/4 1/1/5
f 6/2/6 8/2/6 5/2/6
f 8/2/6 6/2/6 7/2/6
f 11/1/1 10/1/1 9/1/1
f 10/1/1 11/1/1 12/1/1
f 15/3/8 14/2/7 13/2/7
f 14/2/7 15/3/8 16/3/8
f 15/3/8 17/4/8 16/3/8
f 17/4/8 15/3/8 18/4/8
f 21/5/10 20/2/9 19/2/9
f 20/2/9 21/5/10 22/5/10
f 20/2/6 14/2/6 19/2/6
f 14/2/6 20/2/6 13/2/6
f 25/6/11 24/7/11 23/6/11
f 24/7/11 25/6/11 26/7/11
f 15/3/12 25/6/12 18/4/12
f 25/6/12 15/3/12 26/7/12
f 26/7/12 15/3/12 27/8/12
f 26/7/12 27/8/12 28/9/12
f 26/7/12 28/9/12 29/10/12
f 26/7/12 29/10/12 12/1/12
f 12/1/12 29/10/12 10/1/12
f 15/3/12 20/2/12 27/8/12
f 27/8/12 20/2/12 22/5/12
f 20/2/12 15/3/12 13/2/12
f 31/9/13 27/8/10 30/8/10
f 27/8/10 31/9/13 28/9/13
f 9/1/9 29/10/13 32/10/13
f 29/10/13 9/1/9 10/1/9
f 25/6/11 17/4/8 18/4/8
f 17/4/8 25/6/11 23/6/11
f 27/8/10 21/5/10 30/8/10
f 21/5/10 27/8/10 22/5/10
f 29/10/13 31/9/13 32/10/13
f 31/9/13 29/10/13 28/9/13
f 9/1/14 24/7/14 11/1/14
f 24/7/14 9/1/14 32/10/14
f 31/9/14 24/7/14 32/10/14
f 17/4/14 24/7/14 31/9/14
f 24/7/14 17/4/14 23/6/14
f 30/8/14 17/4/14 31/9/14
f 17/4/14 30/8/14 16/3/14
f 16/3/14 30/8/14 21/5/14
f 16/3/14 21/5/14 14/2/14
f 14/2/14 21/5/14 19/2/14
f 12/1/7 24/7/11 26/7/11
f 24/7/11 12/1/7 11/1/7
f 35/1/9 34/10/13 33/10/13
f 34/10/13 35/1/9 36/1/9
f 39/2/6 38/2/6 37/2/6
f 38/2/6 39/2/6 40/2/6
f 43/3/8 42/4/8 41/3/8
f 42/4/8 43/3/8 44/4/8
f 34/10/13 45/9/13 33/10/13
f 45/9/13 34/10/13 46/9/13
f 49/6/11 48/7/11 47/6/11
f 48/7/11 49/6/11 50/7/11
f 49/6/11 42/4/8 44/4/8
f 42/4/8 49/6/11 47/6/11
f 43/3/8 38/2/7 40/2/7
f 38/2/7 43/3/8 41/3/8
f 43/3/12 49/6/12 44/4/12
f 49/6/12 43/3/12 50/7/12
f 50/7/12 43/3/12 51/8/12
f 50/7/12 51/8/12 46/9/12
f 50/7/12 46/9/12 34/10/12
f 50/7/12 34/10/12 52/1/12
f 52/1/12 34/10/12 36/1/12
f 43/3/12 39/2/12 51/8/12
f 51/8/12 39/2/12 53/5/12
f 39/2/12 43/3/12 40/2/12
f 51/8/10 55/5/10 54/8/10
f 55/5/10 51/8/10 53/5/10
f 45/9/13 51/8/10 54/8/10
f 51/8/10 45/9/13 46/9/13
f 56/1/1 36/1/1 35/1/1
f 36/1/1 56/1/1 52/1/1
f 35/1/14 48/7/14 56/1/14
f 48/7/14 35/1/14 33/10/14
f 45/9/14 48/7/14 33/10/14
f 42/4/14 48/7/14 45/9/14
f 48/7/14 42/4/14 47/6/14
f 54/8/14 42/4/14 45/9/14
f 42/4/14 54/8/14 41/3/14
f 41/3/14 54/8/14 55/5/14
f 41/3/14 55/5/14 38/2/14
f 38/2/14 55/5/14 37/2/14
f 52/1/7 48/7/11 50/7/11
f 48/7/11 52/1/7 56/1/7
f 55/5/10 39/2/9 37/2/9
f 39/2/9 55/5/10 53/5/10
f 59/2/6 58/2/6 57/2/6
f 58/2/6 59/2/6 60/2/6
f 59/2/3 61/1/4 60/2/4
f 61/1/4 59/2/3 62/1/3
f 61/1/4 58/2/5 60/2/4
f 58/2/5 61/1/4 63/1/5
f 61/1/1 64/1/1 63/1/1
f 64/1/1 61/1/1 62/1/1
f 64/1/2 58/2/5 63/1/5
f 58/2/5 64/1/2 57/2/2
f 64/1/2 59/2/3 57/2/2
f 59/2/3 64/1/2 62/1/3

