# Created by Kenney (www.kenney.nl)

mtllib lights-high-wide.mtl

g lights-high-wide

v 0.1585937 2.410427 -0.0515625 1 1 1
v 0.2085938 2.410427 -0.0515625 1 1 1
v 0.1585937 2.437927 -0.0240625 1 1 1
v 0.2085938 2.437927 -0.0240625 1 1 1
v 0.1585937 2.334802 0.0240625 1 1 1
v 0.1585937 2.362302 0.0515625 1 1 1
v 0.2085938 2.334802 0.0240625 1 1 1
v 0.2085938 2.362302 0.0515625 1 1 1
v 0.1585937 2.362302 -0.0515625 1 1 1
v 0.2085938 2.362302 -0.0515625 1 1 1
v 0.2085938 2.334802 -0.0240625 1 1 1
v 0.1585937 2.334802 -0.0240625 1 1 1
v 0.2085938 2.437927 0.0240625 1 1 1
v 0.1585937 2.437927 0.0240625 1 1 1
v 0.1585937 2.410427 0.0515625 1 1 1
v 0.2085938 2.410427 0.0515625 1 1 1
v -0.1585937 2.410427 -0.0515625 1 1 1
v -0.1585937 2.362302 -0.0515625 1 1 1
v -0.1585937 2.437927 -0.0240625 1 1 1
v -0.1585937 2.334802 -0.0240625 1 1 1
v -0.1585937 2.437927 0.0240625 1 1 1
v -0.1585937 2.334802 0.0240625 1 1 1
v -0.1585937 2.410427 0.0515625 1 1 1
v -0.1585937 2.362302 0.0515625 1 1 1
v -0.2085938 2.410427 -0.0515625 1 1 1
v -0.2085938 2.437927 -0.0240625 1 1 1
v -0.2085938 2.362302 -0.0515625 1 1 1
v -0.2085938 2.334802 -0.0240625 1 1 1
v -0.2085938 2.334802 0.0240625 1 1 1
v -0.2085938 2.437927 0.0240625 1 1 1
v -0.2085938 2.362302 0.0515625 1 1 1
v -0.2085938 2.410427 0.0515625 1 1 1
v 0.4297937 2.410427 -0.0515625 1 1 1
v 0.4797938 2.410427 -0.0515625 1 1 1
v 0.4297937 2.437927 -0.0240625 1 1 1
v 0.4797938 2.437927 -0.0240625 1 1 1
v 0.4297937 2.334802 0.0240625 1 1 1
v 0.4297937 2.362302 0.0515625 1 1 1
v 0.4797938 2.334802 0.0240625 1 1 1
v 0.4797938 2.362302 0.0515625 1 1 1
v 0.4297937 2.362302 -0.0515625 1 1 1
v 0.4797938 2.362302 -0.0515625 1 1 1
v 0.4797938 2.334802 -0.0240625 1 1 1
v 0.4297937 2.334802 -0.0240625 1 1 1
v 0.4797938 2.437927 0.0240625 1 1 1
v 0.4297937 2.437927 0.0240625 1 1 1
v 0.4297937 2.410427 0.0515625 1 1 1
v 0.4797938 2.410427 0.0515625 1 1 1
v -0.4797938 2.410427 -0.0515625 1 1 1
v -0.4297937 2.410427 -0.0515625 1 1 1
v -0.4797938 2.437927 -0.0240625 1 1 1
v -0.4297937 2.437927 -0.0240625 1 1 1
v -0.4797938 2.334802 0.0240625 1 1 1
v -0.4797938 2.362302 0.0515625 1 1 1
v -0.4297937 2.334802 0.0240625 1 1 1
v -0.4297937 2.362302 0.0515625 1 1 1
v -0.4797938 2.362302 -0.0515625 1 1 1
v -0.4297937 2.362302 -0.0515625 1 1 1
v -0.4297937 2.334802 -0.0240625 1 1 1
v -0.4797938 2.334802 -0.0240625 1 1 1
v -0.4297937 2.437927 0.0240625 1 1 1
v -0.4797938 2.437927 0.0240625 1 1 1
v -0.4797938 2.410427 0.0515625 1 1 1
v -0.4297937 2.410427 0.0515625 1 1 1
v 0.03125 0.35 -0.03125 1 1 1
v 0.03125 0.2875 -0.0625 1 1 1
v 0.0625 0.2875 -0.03125 1 1 1
v -0.0625 0.2875 0.03125 1 1 1
v -0.03125 0.35 0.03125 1 1 1
v -0.03125 0.2875 0.0625 1 1 1
v -0.0625 0.2875 -0.03125 1 1 1
v -0.03125 0.2875 -0.0625 1 1 1
v -0.03125 0.35 -0.03125 1 1 1
v 0.03125 0.35 0.03125 1 1 1
v 0.0625 0.2875 0.03125 1 1 1
v 0.03125 0.2875 0.0625 1 1 1
v 0.078125 0 0.0390625 1 1 1
v 0.0390625 0 0.078125 1 1 1
v 0.03125 2.4875 0.03125 1 1 1
v -0.03125 2.4875 0.03125 1 1 1
v -0.0390625 0 -0.078125 1 1 1
v 0.0390625 0 -0.078125 1 1 1
v -0.078125 0 0.0390625 1 1 1
v -0.0390625 0 0.078125 1 1 1
v 0.078125 0 -0.0390625 1 1 1
v -0.078125 0 -0.0390625 1 1 1
v -0.03125 2.4875 -0.03125 1 1 1
v 0.03125 2.4875 -0.03125 1 1 1
v 0.03125 2.355114 0.05859375 1 1 1
v -0.03125 2.355114 0.05859375 1 1 1
v 0.03125 2.417614 0.05859375 1 1 1
v -0.03125 2.417614 0.05859375 1 1 1
v -0.03125 2.355114 -0.05859375 1 1 1
v 0.03125 2.355114 -0.05859375 1 1 1
v -0.03125 2.417614 -0.05859375 1 1 1
v 0.03125 2.417614 -0.05859375 1 1 1
v 0.05859375 2.355114 0.03125 1 1 1
v 0.05859375 2.417614 0.03125 1 1 1
v -0.05859375 2.355114 0.03125 1 1 1
v -0.05859375 2.417614 0.03125 1 1 1
v 0.5297937 2.355114 0.03125 1 1 1
v 0.5297937 2.355114 -0.03125 1 1 1
v 0.05859375 2.355114 -0.03125 1 1 1
v -0.05859375 2.355114 -0.03125 1 1 1
v -0.5297937 2.355114 0.03125 1 1 1
v -0.5297937 2.355114 -0.03125 1 1 1
v -0.05859375 2.417614 -0.03125 1 1 1
v 0.5297937 2.417614 -0.03125 1 1 1
v 0.5297937 2.417614 0.03125 1 1 1
v 0.05859375 2.417614 -0.03125 1 1 1
v -0.5297937 2.417614 -0.03125 1 1 1
v -0.5297937 2.417614 0.03125 1 1 1
v 0.2478338 2.258815 0.01093825 1 1 1
v 0.1193537 2.258815 0.01093825 1 1 1
v 0.2478338 2.238503 0.08674411 1 1 1
v 0.1193537 2.238503 0.08674411 1 1 1
v 0.1193537 2.410427 0.05156251 1 1 1
v 0.2478338 2.410427 0.05156251 1 1 1
v 0.1193537 2.390115 0.1273684 1 1 1
v 0.2478338 2.390115 0.1273684 1 1 1
v 0.08011375 2.372524 0.04140645 1 1 1
v 0.08011375 2.352212 0.1172123 1 1 1
v 0.08011375 2.276406 0.09690018 1 1 1
v 0.08011375 2.296718 0.02109431 1 1 1
v 0.2870737 2.296718 0.02109431 1 1 1
v 0.2870737 2.276406 0.09690018 1 1 1
v 0.2870737 2.352212 0.1172123 1 1 1
v 0.2870737 2.372524 0.04140645 1 1 1
v 0.06049375 2.347582 0.1723943 1 1 1
v 0.06049375 2.252825 0.1470041 1 1 1
v 0.2576438 2.205446 0.134309 1 1 1
v 0.1095438 2.205446 0.134309 1 1 1
v 0.2576438 2.19134 0.186952 1 1 1
v 0.1095438 2.19134 0.186952 1 1 1
v 0.1095438 2.394961 0.1850893 1 1 1
v 0.2576438 2.394961 0.1850893 1 1 1
v 0.1095438 2.380855 0.2377323 1 1 1
v 0.2576438 2.380855 0.2377323 1 1 1
v 0.3066937 2.252825 0.1470041 1 1 1
v 0.3066937 2.347582 0.1723943 1 1 1
v 0.3066937 2.333477 0.2250372 1 1 1
v 0.06049375 2.333477 0.2250372 1 1 1
v 0.06049375 2.238719 0.1996471 1 1 1
v 0.3066937 2.238719 0.1996471 1 1 1
v -0.1193537 2.258815 0.01093825 1 1 1
v -0.2478338 2.258815 0.01093825 1 1 1
v -0.1193537 2.238503 0.08674411 1 1 1
v -0.2478338 2.238503 0.08674411 1 1 1
v -0.2478338 2.410427 0.05156251 1 1 1
v -0.1193537 2.410427 0.05156251 1 1 1
v -0.2478338 2.390115 0.1273684 1 1 1
v -0.1193537 2.390115 0.1273684 1 1 1
v -0.2870737 2.372524 0.04140645 1 1 1
v -0.2870737 2.352212 0.1172123 1 1 1
v -0.2870737 2.296718 0.02109431 1 1 1
v -0.2870737 2.276406 0.09690018 1 1 1
v -0.08011375 2.296718 0.02109431 1 1 1
v -0.08011375 2.276406 0.09690018 1 1 1
v -0.08011375 2.352212 0.1172123 1 1 1
v -0.08011375 2.372524 0.04140645 1 1 1
v -0.3066937 2.347582 0.1723943 1 1 1
v -0.3066937 2.252825 0.1470041 1 1 1
v -0.1095438 2.205446 0.134309 1 1 1
v -0.2576438 2.205446 0.134309 1 1 1
v -0.1095438 2.19134 0.186952 1 1 1
v -0.2576438 2.19134 0.186952 1 1 1
v -0.2576438 2.394961 0.1850893 1 1 1
v -0.1095438 2.394961 0.1850893 1 1 1
v -0.2576438 2.380855 0.2377323 1 1 1
v -0.1095438 2.380855 0.2377323 1 1 1
v -0.06049375 2.252825 0.1470041 1 1 1
v -0.06049375 2.347582 0.1723943 1 1 1
v -0.06049375 2.333477 0.2250372 1 1 1
v -0.3066937 2.333477 0.2250372 1 1 1
v -0.3066937 2.238719 0.1996471 1 1 1
v -0.06049375 2.238719 0.1996471 1 1 1
v 0.5190337 2.258815 0.01093825 1 1 1
v 0.3905537 2.258815 0.01093825 1 1 1
v 0.5190337 2.238503 0.08674411 1 1 1
v 0.3905537 2.238503 0.08674411 1 1 1
v 0.3905537 2.410427 0.05156251 1 1 1
v 0.5190337 2.410427 0.05156251 1 1 1
v 0.3905537 2.390115 0.1273684 1 1 1
v 0.5190337 2.390115 0.1273684 1 1 1
v 0.3513138 2.372524 0.04140645 1 1 1
v 0.3513138 2.352212 0.1172123 1 1 1
v 0.3513138 2.276406 0.09690018 1 1 1
v 0.3513138 2.296718 0.02109431 1 1 1
v 0.5582737 2.296718 0.02109431 1 1 1
v 0.5582737 2.276406 0.09690018 1 1 1
v 0.5582737 2.352212 0.1172123 1 1 1
v 0.5582737 2.372524 0.04140645 1 1 1
v 0.3316938 2.347582 0.1723943 1 1 1
v 0.3316938 2.252825 0.1470041 1 1 1
v 0.5288438 2.205446 0.134309 1 1 1
v 0.3807437 2.205446 0.134309 1 1 1
v 0.5288438 2.19134 0.186952 1 1 1
v 0.3807437 2.19134 0.186952 1 1 1
v 0.3807437 2.394961 0.1850893 1 1 1
v 0.5288438 2.394961 0.1850893 1 1 1
v 0.3807437 2.380855 0.2377323 1 1 1
v 0.5288438 2.380855 0.2377323 1 1 1
v 0.5778937 2.252825 0.1470041 1 1 1
v 0.5778937 2.347582 0.1723943 1 1 1
v 0.5778937 2.333477 0.2250372 1 1 1
v 0.3316938 2.333477 0.2250372 1 1 1
v 0.3316938 2.238719 0.1996471 1 1 1
v 0.5778937 2.238719 0.1996471 1 1 1
v -0.3905537 2.258815 0.01093825 1 1 1
v -0.5190337 2.258815 0.01093825 1 1 1
v -0.3905537 2.238503 0.08674411 1 1 1
v -0.5190337 2.238503 0.08674411 1 1 1
v -0.5190337 2.410427 0.05156251 1 1 1
v -0.3905537 2.410427 0.05156251 1 1 1
v -0.5190337 2.390115 0.1273684 1 1 1
v -0.3905537 2.390115 0.1273684 1 1 1
v -0.5582737 2.372524 0.04140645 1 1 1
v -0.5582737 2.352212 0.1172123 1 1 1
v -0.5582737 2.276406 0.09690018 1 1 1
v -0.5582737 2.296718 0.02109431 1 1 1
v -0.3513138 2.296718 0.02109431 1 1 1
v -0.3513138 2.276406 0.09690018 1 1 1
v -0.3513138 2.352212 0.1172123 1 1 1
v -0.3513138 2.372524 0.04140645 1 1 1
v -0.5778937 2.347582 0.1723943 1 1 1
v -0.5778937 2.252825 0.1470041 1 1 1
v -0.3807437 2.205446 0.134309 1 1 1
v -0.5288438 2.205446 0.134309 1 1 1
v -0.3807437 2.19134 0.186952 1 1 1
v -0.5288438 2.19134 0.186952 1 1 1
v -0.5288438 2.394961 0.1850893 1 1 1
v -0.3807437 2.394961 0.1850893 1 1 1
v -0.5288438 2.380855 0.2377323 1 1 1
v -0.3807437 2.380855 0.2377323 1 1 1
v -0.3316938 2.252825 0.1470041 1 1 1
v -0.3316938 2.347582 0.1723943 1 1 1
v -0.3316938 2.333477 0.2250372 1 1 1
v -0.5778937 2.333477 0.2250372 1 1 1
v -0.5778937 2.238719 0.1996471 1 1 1
v -0.3316938 2.238719 0.1996471 1 1 1

vn 0 0.3826834 -0.9238795
vn 0 0.9238795 -0.3826834
vn 0 -0.9238795 0.3826834
vn 0 -0.3826834 0.9238795
vn 0 -0.3826834 -0.9238795
vn 0 -0.9238795 -0.3826834
vn 0 0.9238795 0.3826834
vn 0 0.3826834 0.9238795
vn 1 0 0
vn -1 0 0
vn 0.5997861 0.5296351 -0.5997861
vn 0.315808 0.4243266 -0.8486531
vn 0.8486531 0.4243266 -0.315808
vn -0.8486531 0.4243266 0.315808
vn -0.5997861 0.5296351 0.5997861
vn -0.315808 0.4243266 0.8486531
vn -0.8486531 0.4243266 -0.315808
vn -0.315808 0.4243266 -0.8486531
vn -0.5997861 0.5296351 -0.5997861
vn 0.5997861 0.5296351 0.5997861
vn 0.8486531 0.4243266 0.315808
vn 0.315808 0.4243266 0.8486531
vn 0.9217949 0.06050319 0.3829277
vn 0.3829277 0.06050319 0.9217949
vn 0.9225959 0.0604942 0.380995
vn 0.380995 0.0604942 0.9225959
vn 0.7071068 0 0.7071068
vn -0.7071068 0 0.7071068
vn -0.3829277 0.06050319 -0.9217949
vn 0.3829277 0.06050319 -0.9217949
vn -0.380995 0.0604942 -0.9225959
vn 0.380995 0.0604942 -0.9225959
vn -0.9225959 0.0604942 0.380995
vn -0.380995 0.0604942 0.9225959
vn -0.9217949 0.06050319 0.3829277
vn -0.3829277 0.06050319 0.9217949
vn 0 -1 0
vn -0.9217949 0.06050319 -0.3829277
vn -0.9225959 0.0604942 -0.380995
vn -0.7071068 0 -0.7071068
vn 0.7071068 0 -0.7071068
vn 0.9217949 0.06050319 -0.3829277
vn 0.9225959 0.0604942 -0.380995
vn 0 1 0
vn 0.3826835 0 0.9238796
vn -0.3826835 0 0.9238796
vn -0.3826835 0 -0.9238796
vn 0.3826835 0 -0.9238796
vn 0.7071068 0 0.7071068
vn -0.7071068 0 0.7071068
vn -0.7071068 0 -0.7071068
vn 0.7071068 0 -0.7071068
vn 0 0 -1
vn 0 0 1
vn 0.3826834 -0.8923991 -0.2391177
vn -0.3826834 -0.8923991 -0.2391177
vn -0.3826834 0.8923991 0.2391177
vn 0.3826834 0.8923991 0.2391177
vn -0.9238795 0.3696438 0.09904581
vn -0.9238795 -0.3696438 -0.09904581
vn 0.9238795 -0.3696438 -0.09904581
vn 0.9238795 0.3696438 0.09904581
vn -0.8552802 0.4441833 -0.2668275
vn -0.8552802 -0.2512602 -0.4531711
vn -0.8600493 0.4332638 -0.2694393
vn -0.8600493 -0.2404976 -0.4499733
vn 0.8600493 -0.2404976 -0.4499733
vn 0.3487646 -0.7343608 -0.5823035
vn 0.8552802 -0.2512602 -0.4531711
vn 0.359988 -0.7296757 -0.5813622
vn -0.3487646 -0.7343608 -0.5823035
vn -0.359988 -0.7296757 -0.5813622
vn 0.3487646 0.9271269 -0.137109
vn 0.8600493 0.4332638 -0.2694393
vn 0.359988 0.9225988 -0.1386364
vn 0.8552802 0.4441833 -0.2668275
vn -0.3487646 0.9271269 -0.137109
vn -0.359988 0.9225988 -0.1386364
vn 0 0.2588192 -0.9659258
vn 0 -0.2588192 0.9659258

vt 0.46875 0.1716666
vt 0.46875 0.225
vt 0.46875 0.025
vt 0.46875 0.07833333
vt 0.46875 0.1968593
vt 0.46875 0.2018844
vt 0.46875 0.075
vt 0.46875 0.175
vt 0.21875 0.025
vt 0.21875 0.1087209
vt 0.21875 0.1668605
vt 0.21875 0.225
vt 0.59375 0.225

usemtl colormap

f 3/2/2 2/1/1 1/1/1
f 2/1/1 3/2/2 4/2/2
f 7/3/3 6/4/4 5/3/3
f 6/4/4 7/3/3 8/4/4
f 1/1/1 10/4/5 9/4/5
f 10/4/5 1/1/1 2/1/1
f 5/3/3 11/3/6 7/3/3
f 11/3/6 5/3/3 12/3/6
f 3/2/2 13/2/7 4/2/2
f 13/2/7 3/2/2 14/2/7
f 16/1/8 14/2/7 15/1/8
f 14/2/7 16/1/8 13/2/7
f 9/4/5 11/3/6 12/3/6
f 11/3/6 9/4/5 10/4/5
f 8/4/4 15/1/8 6/4/4
f 15/1/8 8/4/4 16/1/8
f 4/2/9 10/4/9 2/1/9
f 10/4/9 4/2/9 11/3/9
f 11/3/9 4/2/9 13/2/9
f 11/3/9 13/2/9 7/3/9
f 7/3/9 13/2/9 16/1/9
f 7/3/9 16/1/9 8/4/9
f 12/3/10 1/1/10 9/4/10
f 1/1/10 12/3/10 3/2/10
f 3/2/10 12/3/10 5/3/10
f 3/2/10 5/3/10 14/2/10
f 14/2/10 5/3/10 6/4/10
f 14/2/10 6/4/10 15/1/10
f 19/2/9 18/4/9 17/1/9
f 18/4/9 19/2/9 20/3/9
f 20/3/9 19/2/9 21/2/9
f 20/3/9 21/2/9 22/3/9
f 22/3/9 21/2/9 23/1/9
f 22/3/9 23/1/9 24/4/9
f 26/2/2 17/1/1 25/1/1
f 17/1/1 26/2/2 19/2/2
f 28/3/10 25/1/10 27/4/10
f 25/1/10 28/3/10 26/2/10
f 26/2/10 28/3/10 29/3/10
f 26/2/10 29/3/10 30/2/10
f 30/2/10 29/3/10 31/4/10
f 30/2/10 31/4/10 32/1/10
f 22/3/3 31/4/4 29/3/3
f 31/4/4 22/3/3 24/4/4
f 26/2/2 21/2/7 19/2/2
f 21/2/7 26/2/2 30/2/7
f 29/3/3 20/3/6 22/3/3
f 20/3/6 29/3/3 28/3/6
f 25/1/1 18/4/5 27/4/5
f 18/4/5 25/1/1 17/1/1
f 23/1/8 30/2/7 32/1/8
f 30/2/7 23/1/8 21/2/7
f 24/4/4 32/1/8 31/4/4
f 32/1/8 24/4/4 23/1/8
f 27/4/5 20/3/6 28/3/6
f 20/3/6 27/4/5 18/4/5
f 35/2/2 34/1/1 33/1/1
f 34/1/1 35/2/2 36/2/2
f 39/3/3 38/4/4 37/3/3
f 38/4/4 39/3/3 40/4/4
f 33/1/1 42/4/5 41/4/5
f 42/4/5 33/1/1 34/1/1
f 37/3/3 43/3/6 39/3/3
f 43/3/6 37/3/3 44/3/6
f 35/2/2 45/2/7 36/2/2
f 45/2/7 35/2/2 46/2/7
f 48/1/8 46/2/7 47/1/8
f 46/2/7 48/1/8 45/2/7
f 41/4/5 43/3/6 44/3/6
f 43/3/6 41/4/5 42/4/5
f 40/4/4 47/1/8 38/4/4
f 47/1/8 40/4/4 48/1/8
f 36/2/9 42/4/9 34/1/9
f 42/4/9 36/2/9 43/3/9
f 43/3/9 36/2/9 45/2/9
f 43/3/9 45/2/9 39/3/9
f 39/3/9 45/2/9 48/1/9
f 39/3/9 48/1/9 40/4/9
f 44/3/10 33/1/10 41/4/10
f 33/1/10 44/3/10 35/2/10
f 35/2/10 44/3/10 37/3/10
f 35/2/10 37/3/10 46/2/10
f 46/2/10 37/3/10 38/4/10
f 46/2/10 38/4/10 47/1/10
f 51/2/2 50/1/1 49/1/1
f 50/1/1 51/2/2 52/2/2
f 55/3/3 54/4/4 53/3/3
f 54/4/4 55/3/3 56/4/4
f 49/1/1 58/4/5 57/4/5
f 58/4/5 49/1/1 50/1/1
f 53/3/3 59/3/6 55/3/3
f 59/3/6 53/3/3 60/3/6
f 51/2/2 61/2/7 52/2/2
f 61/2/7 51/2/2 62/2/7
f 64/1/8 62/2/7 63/1/8
f 62/2/7 64/1/8 61/2/7
f 57/4/5 59/3/6 60/3/6
f 59/3/6 57/4/5 58/4/5
f 56/4/4 63/1/8 54/4/4
f 63/1/8 56/4/4 64/1/8
f 52/2/9 58/4/9 50/1/9
f 58/4/9 52/2/9 59/3/9
f 59/3/9 52/2/9 61/2/9
f 59/3/9 61/2/9 55/3/9
f 55/3/9 61/2/9 64/1/9
f 55/3/9 64/1/9 56/4/9
f 60/3/10 49/1/10 57/4/10
f 49/1/10 60/3/10 51/2/10
f 51/2/10 60/3/10 53/3/10
f 51/2/10 53/3/10 62/2/10
f 62/2/10 53/3/10 54/4/10
f 62/2/10 54/4/10 63/1/10
f 67/6/13 66/6/12 65/5/11
f 70/6/16 69/5/15 68/6/14
f 73/5/19 72/6/18 71/6/17
f 76/6/22 75/6/21 74/5/20
f 75/6/25 78/2/24 77/2/23
f 78/2/24 75/6/25 76/6/26
f 79/3/27 69/5/28 74/5/27
f 69/5/28 79/3/27 80/3/28
f 72/6/31 82/2/30 81/2/29
f 82/2/30 72/6/31 66/6/32
f 73/5/19 66/6/12 72/6/18
f 66/6/12 73/5/19 65/5/11
f 83/2/35 70/6/34 68/6/33
f 70/6/34 83/2/35 84/2/36
f 78/2/37 85/2/37 77/2/37
f 85/2/37 78/2/37 82/2/37
f 82/2/37 78/2/37 84/2/37
f 82/2/37 84/2/37 81/2/37
f 81/2/37 84/2/37 83/2/37
f 81/2/37 83/2/37 86/2/37
f 68/6/14 73/5/19 71/6/17
f 73/5/19 68/6/14 69/5/15
f 86/2/38 72/6/31 81/2/29
f 72/6/31 86/2/38 71/6/39
f 74/5/20 70/6/16 76/6/22
f 70/6/16 74/5/20 69/5/15
f 76/6/26 84/2/36 78/2/24
f 84/2/36 76/6/26 70/6/34
f 87/3/40 65/5/41 73/5/40
f 65/5/41 87/3/40 88/3/41
f 79/3/27 65/5/41 88/3/41
f 65/5/41 79/3/27 74/5/27
f 66/6/32 85/2/42 82/2/30
f 85/2/42 66/6/32 67/6/43
f 83/2/35 71/6/39 86/2/38
f 71/6/39 83/2/35 68/6/33
f 67/6/43 77/2/23 85/2/42
f 77/2/23 67/6/43 75/6/25
f 87/3/44 79/3/44 88/3/44
f 79/3/44 87/3/44 80/3/44
f 69/5/28 87/3/40 73/5/40
f 87/3/40 69/5/28 80/3/28
f 74/5/20 67/6/13 65/5/11
f 67/6/13 74/5/20 75/6/21
f 91/8/45 90/7/46 89/7/45
f 90/7/46 91/8/45 92/8/46
f 95/8/47 94/7/48 93/7/47
f 94/7/48 95/8/47 96/8/48
f 98/8/49 89/7/45 97/7/49
f 89/7/45 98/8/49 91/8/45
f 90/7/46 100/8/50 99/7/50
f 100/8/50 90/7/46 92/8/46
f 97/7/37 102/7/37 101/7/37
f 102/7/37 97/7/37 103/7/37
f 103/7/37 97/7/37 89/7/37
f 103/7/37 89/7/37 94/7/37
f 94/7/37 89/7/37 90/7/37
f 94/7/37 90/7/37 93/7/37
f 93/7/37 90/7/37 99/7/37
f 93/7/37 99/7/37 104/7/37
f 104/7/37 99/7/37 105/7/37
f 104/7/37 105/7/37 106/7/37
f 104/7/51 95/8/47 93/7/47
f 95/8/47 104/7/51 107/8/51
f 110/8/44 109/8/44 108/8/44
f 109/8/44 110/8/44 98/8/44
f 98/8/44 110/8/44 96/8/44
f 98/8/44 96/8/44 91/8/44
f 91/8/44 96/8/44 92/8/44
f 92/8/44 96/8/44 95/8/44
f 92/8/44 95/8/44 107/8/44
f 92/8/44 107/8/44 100/8/44
f 100/8/44 107/8/44 111/8/44
f 100/8/44 111/8/44 112/8/44
f 96/8/48 103/7/52 94/7/48
f 103/7/52 96/8/48 110/8/52
f 109/8/9 102/7/9 108/8/9
f 102/7/9 109/8/9 101/7/9
f 110/8/53 102/7/53 103/7/53
f 102/7/53 110/8/53 108/8/53
f 109/8/54 97/7/54 101/7/54
f 97/7/54 109/8/54 98/8/54
f 105/7/10 111/8/10 106/7/10
f 111/8/10 105/7/10 112/8/10
f 100/8/54 105/7/54 99/7/54
f 105/7/54 100/8/54 112/8/54
f 111/8/53 104/7/53 106/7/53
f 104/7/53 111/8/53 107/8/53
f 115/10/55 114/9/56 113/9/55
f 114/9/56 115/10/55 116/10/56
f 119/10/57 118/9/58 117/9/57
f 118/9/58 119/10/57 120/10/58
f 122/10/59 117/9/57 121/9/59
f 117/9/57 122/10/59 119/10/57
f 121/9/59 123/10/60 122/10/59
f 123/10/60 121/9/59 124/9/60
f 125/9/61 115/10/55 113/9/55
f 115/10/55 125/9/61 126/10/61
f 126/10/61 128/9/62 127/10/62
f 128/9/62 126/10/61 125/9/61
f 122/10/65 130/11/64 129/11/63
f 130/11/64 122/10/65 123/10/66
f 133/12/55 132/11/56 131/11/55
f 132/11/56 133/12/55 134/12/56
f 137/12/57 136/11/58 135/11/57
f 136/11/58 137/12/57 138/12/58
f 139/11/69 115/10/68 126/10/67
f 115/10/68 139/11/69 131/11/70
f 131/11/70 116/10/71 115/10/68
f 116/10/71 131/11/70 132/11/72
f 136/11/75 127/10/74 120/10/73
f 127/10/74 136/11/75 140/11/76
f 139/11/69 127/10/74 140/11/76
f 127/10/74 139/11/69 126/10/67
f 136/11/58 141/12/62 140/11/62
f 141/12/62 136/11/58 138/12/58
f 135/11/78 120/10/73 119/10/77
f 120/10/73 135/11/78 136/11/75
f 116/10/71 130/11/64 123/10/66
f 130/11/64 116/10/71 132/11/72
f 142/12/59 135/11/57 129/11/59
f 135/11/57 142/12/59 137/12/57
f 130/11/60 142/12/59 129/11/59
f 142/12/59 130/11/60 143/12/60
f 118/9/58 127/10/62 128/9/62
f 127/10/62 118/9/58 120/10/58
f 132/11/56 143/12/60 130/11/60
f 143/12/60 132/11/56 134/12/56
f 144/12/61 131/11/55 139/11/61
f 131/11/55 144/12/61 133/12/55
f 141/12/62 139/11/61 140/11/62
f 139/11/61 141/12/62 144/12/61
f 113/9/79 128/9/79 125/9/79
f 128/9/79 113/9/79 118/9/79
f 118/9/79 113/9/79 114/9/79
f 118/9/79 114/9/79 117/9/79
f 117/9/79 114/9/79 124/9/79
f 117/9/79 124/9/79 121/9/79
f 116/10/56 124/9/60 114/9/56
f 124/9/60 116/10/56 123/10/60
f 129/11/63 119/10/77 122/10/65
f 119/10/77 129/11/63 135/11/78
f 147/10/55 146/9/56 145/9/55
f 146/9/56 147/10/55 148/10/56
f 151/10/57 150/9/58 149/9/57
f 150/9/58 151/10/57 152/10/58
f 154/10/59 149/9/57 153/9/59
f 149/9/57 154/10/59 151/10/57
f 155/9/60 154/10/59 153/9/59
f 154/10/59 155/9/60 156/10/60
f 157/9/61 147/10/55 145/9/55
f 147/10/55 157/9/61 158/10/61
f 158/10/61 160/9/62 159/10/62
f 160/9/62 158/10/61 157/9/61
f 154/10/65 162/11/64 161/11/63
f 162/11/64 154/10/65 156/10/66
f 165/12/55 164/11/56 163/11/55
f 164/11/56 165/12/55 166/12/56
f 169/12/57 168/11/58 167/11/57
f 168/11/58 169/12/57 170/12/58
f 171/11/69 147/10/68 158/10/67
f 147/10/68 171/11/69 163/11/70
f 163/11/70 148/10/71 147/10/68
f 148/10/71 163/11/70 164/11/72
f 168/11/75 159/10/74 152/10/73
f 159/10/74 168/11/75 172/11/76
f 171/11/69 159/10/74 172/11/76
f 159/10/74 171/11/69 158/10/67
f 170/12/58 172/11/62 168/11/58
f 172/11/62 170/12/58 173/12/62
f 167/11/78 152/10/73 151/10/77
f 152/10/73 167/11/78 168/11/75
f 164/11/72 156/10/66 148/10/71
f 156/10/66 164/11/72 162/11/64
f 174/12/59 167/11/57 161/11/59
f 167/11/57 174/12/59 169/12/57
f 162/11/60 174/12/59 161/11/59
f 174/12/59 162/11/60 175/12/60
f 150/9/58 159/10/62 160/9/62
f 159/10/62 150/9/58 152/10/58
f 164/11/56 175/12/60 162/11/60
f 175/12/60 164/11/56 166/12/56
f 176/12/61 163/11/55 171/11/61
f 163/11/55 176/12/61 165/12/55
f 173/12/62 171/11/61 172/11/62
f 171/11/61 173/12/62 176/12/61
f 145/9/79 160/9/79 157/9/79
f 160/9/79 145/9/79 150/9/79
f 150/9/79 145/9/79 146/9/79
f 150/9/79 146/9/79 149/9/79
f 149/9/79 146/9/79 155/9/79
f 149/9/79 155/9/79 153/9/79
f 148/10/56 155/9/60 146/9/56
f 155/9/60 148/10/56 156/10/60
f 154/10/65 167/11/78 151/10/77
f 167/11/78 154/10/65 161/11/63
f 179/10/55 178/9/56 177/9/55
f 178/9/56 179/10/55 180/10/56
f 183/10/57 182/9/58 181/9/57
f 182/9/58 183/10/57 184/10/58
f 186/10/59 181/9/57 185/9/59
f 181/9/57 186/10/59 183/10/57
f 185/9/59 187/10/60 186/10/59
f 187/10/60 185/9/59 188/9/60
f 189/9/61 179/10/55 177/9/55
f 179/10/55 189/9/61 190/10/61
f 190/10/61 192/9/62 191/10/62
f 192/9/62 190/10/61 189/9/61
f 186/10/65 194/11/64 193/11/63
f 194/11/64 186/10/65 187/10/66
f 197/12/55 196/11/56 195/11/55
f 196/11/56 197/12/55 198/12/56
f 201/12/57 200/11/58 199/11/57
f 200/11/58 201/12/57 202/12/58
f 203/11/69 179/10/68 190/10/67
f 179/10/68 203/11/69 195/11/70
f 195/11/70 180/10/71 179/10/68
f 180/10/71 195/11/70 196/11/72
f 200/11/75 191/10/74 184/10/73
f 191/10/74 200/11/75 204/11/76
f 203/11/69 191/10/74 204/11/76
f 191/10/74 203/11/69 190/10/67
f 200/11/58 205/12/62 204/11/62
f 205/12/62 200/11/58 202/12/58
f 199/11/78 184/10/73 183/10/77
f 184/10/73 199/11/78 200/11/75
f 180/10/71 194/11/64 187/10/66
f 194/11/64 180/10/71 196/11/72
f 206/12/59 199/11/57 193/11/59
f 199/11/57 206/12/59 201/12/57
f 194/11/60 206/12/59 193/11/59
f 206/12/59 194/11/60 207/12/60
f 182/9/58 191/10/62 192/9/62
f 191/10/62 182/9/58 184/10/58
f 196/11/56 207/12/60 194/11/60
f 207/12/60 196/11/56 198/12/56
f 208/12/61 195/11/55 203/11/61
f 195/11/55 208/12/61 197/12/55
f 205/12/62 203/11/61 204/11/62
f 203/11/61 205/12/62 208/12/61
f 177/9/79 192/9/79 189/9/79
f 192/9/79 177/9/79 182/9/79
f 182/9/79 177/9/79 178/9/79
f 182/9/79 178/9/79 181/9/79
f 181/9/79 178/9/79 188/9/79
f 181/9/79 188/9/79 185/9/79
f 180/10/56 188/9/60 178/9/56
f 188/9/60 180/10/56 187/10/60
f 193/11/63 183/10/77 186/10/65
f 183/10/77 193/11/63 199/11/78
f 211/10/55 210/9/56 209/9/55
f 210/9/56 211/10/55 212/10/56
f 215/10/57 214/9/58 213/9/57
f 214/9/58 215/10/57 216/10/58
f 218/10/59 213/9/57 217/9/59
f 213/9/57 218/10/59 215/10/57
f 217/9/59 219/10/60 218/10/59
f 219/10/60 217/9/59 220/9/60
f 221/9/61 211/10/55 209/9/55
f 211/10/55 221/9/61 222/10/61
f 222/10/61 224/9/62 223/10/62
f 224/9/62 222/10/61 221/9/61
f 218/10/65 226/11/64 225/11/63
f 226/11/64 218/10/65 219/10/66
f 229/12/55 228/11/56 227/11/55
f 228/11/56 229/12/55 230/12/56
f 233/12/57 232/11/58 231/11/57
f 232/11/58 233/12/57 234/12/58
f 235/11/69 211/10/68 222/10/67
f 211/10/68 235/11/69 227/11/70
f 227/11/70 212/10/71 211/10/68
f 212/10/71 227/11/70 228/11/72
f 232/11/75 223/10/74 216/10/73
f 223/10/74 232/11/75 236/11/76
f 235/11/69 223/10/74 236/11/76
f 223/10/74 235/11/69 222/10/67
f 232/11/58 237/12/62 236/11/62
f 237/12/62 232/11/58 234/12/58
f 231/11/78 216/10/73 215/10/77
f 216/10/73 231/11/78 232/11/75
f 212/10/71 226/11/64 219/10/66
f 226/11/64 212/10/71 228/11/72
f 238/12/59 231/11/57 225/11/59
f 231/11/57 238/12/59 233/12/57
f 226/11/60 238/12/59 225/11/59
f 238/12/59 226/11/60 239/12/60
f 214/9/58 223/10/62 224/9/62
f 223/10/62 214/9/58 216/10/58
f 228/11/56 239/12/60 226/11/60
f 239/12/60 228/11/56 230/12/56
f 240/12/61 227/11/55 235/11/61
f 227/11/55 240/12/61 229/12/55
f 237/12/62 235/11/61 236/11/62
f 235/11/61 237/12/62 240/12/61
f 209/9/79 224/9/79 221/9/79
f 224/9/79 209/9/79 214/9/79
f 214/9/79 209/9/79 210/9/79
f 214/9/79 210/9/79 213/9/79
f 213/9/79 210/9/79 220/9/79
f 213/9/79 220/9/79 217/9/79
f 212/10/56 220/9/60 210/9/56
f 220/9/60 212/10/56 219/10/60
f 225/11/63 215/10/77 218/10/65
f 215/10/77 225/11/63 231/11/78
f 138/13/80 144/13/80 141/13/80
f 144/13/80 138/13/80 133/13/80
f 133/13/80 138/13/80 137/13/80
f 133/13/80 137/13/80 134/13/80
f 134/13/80 137/13/80 142/13/80
f 134/13/80 142/13/80 143/13/80
f 170/13/80 176/13/80 173/13/80
f 176/13/80 170/13/80 165/13/80
f 165/13/80 170/13/80 169/13/80
f 165/13/80 169/13/80 166/13/80
f 166/13/80 169/13/80 174/13/80
f 166/13/80 174/13/80 175/13/80
f 202/13/80 208/13/80 205/13/80
f 208/13/80 202/13/80 197/13/80
f 197/13/80 202/13/80 201/13/80
f 197/13/80 201/13/80 198/13/80
f 198/13/80 201/13/80 206/13/80
f 198/13/80 206/13/80 207/13/80
f 234/13/80 240/13/80 237/13/80
f 240/13/80 234/13/80 229/13/80
f 229/13/80 234/13/80 233/13/80
f 229/13/80 233/13/80 230/13/80
f 230/13/80 233/13/80 238/13/80
f 230/13/80 238/13/80 239/13/80

g lights-high-wide




usemtl colormap

f 3/2/2 2/1/1 1/1/1
f 2/1/1 3/2/2 4/2/2
f 7/3/3 6/4/4 5/3/3
f 6/4/4 7/3/3 8/4/4
f 1/1/1 10/4/5 9/4/5
f 10/4/5 1/1/1 2/1/1
f 5/3/3 11/3/6 7/3/3
f 11/3/6 5/3/3 12/3/6
f 3/2/2 13/2/7 4/2/2
f 13/2/7 3/2/2 14/2/7
f 16/1/8 14/2/7 15/1/8
f 14/2/7 16/1/8 13/2/7
f 9/4/5 11/3/6 12/3/6
f 11/3/6 9/4/5 10/4/5
f 8/4/4 15/1/8 6/4/4
f 15/1/8 8/4/4 16/1/8
f 4/2/9 10/4/9 2/1/9
f 10/4/9 4/2/9 11/3/9
f 11/3/9 4/2/9 13/2/9
f 11/3/9 13/2/9 7/3/9
f 7/3/9 13/2/9 16/1/9
f 7/3/9 16/1/9 8/4/9
f 12/3/10 1/1/10 9/4/10
f 1/1/10 12/3/10 3/2/10
f 3/2/10 12/3/10 5/3/10
f 3/2/10 5/3/10 14/2/10
f 14/2/10 5/3/10 6/4/10
f 14/2/10 6/4/10 15/1/10
f 19/2/9 18/4/9 17/1/9
f 18/4/9 19/2/9 20/3/9
f 20/3/9 19/2/9 21/2/9
f 20/3/9 21/2/9 22/3/9
f 22/3/9 21/2/9 23/1/9
f 22/3/9 23/1/9 24/4/9
f 26/2/2 17/1/1 25/1/1
f 17/1/1 26/2/2 19/2/2
f 28/3/10 25/1/10 27/4/10
f 25/1/10 28/3/10 26/2/10
f 26/2/10 28/3/10 29/3/10
f 26/2/10 29/3/10 30/2/10
f 30/2/10 29/3/10 31/4/10
f 30/2/10 31/4/10 32/1/10
f 22/3/3 31/4/4 29/3/3
f 31/4/4 22/3/3 24/4/4
f 26/2/2 21/2/7 19/2/2
f 21/2/7 26/2/2 30/2/7
f 29/3/3 20/3/6 22/3/3
f 20/3/6 29/3/3 28/3/6
f 25/1/1 18/4/5 27/4/5
f 18/4/5 25/1/1 17/1/1
f 23/1/8 30/2/7 32/1/8
f 30/2/7 23/1/8 21/2/7
f 24/4/4 32/1/8 31/4/4
f 32/1/8 24/4/4 23/1/8
f 27/4/5 20/3/6 28/3/6
f 20/3/6 27/4/5 18/4/5
f 35/2/2 34/1/1 33/1/1
f 34/1/1 35/2/2 36/2/2
f 39/3/3 38/4/4 37/3/3
f 38/4/4 39/3/3 40/4/4
f 33/1/1 42/4/5 41/4/5
f 42/4/5 33/1/1 34/1/1
f 37/3/3 43/3/6 39/3/3
f 43/3/6 37/3/3 44/3/6
f 35/2/2 45/2/7 36/2/2
f 45/2/7 35/2/2 46/2/7
f 48/1/8 46/2/7 47/1/8
f 46/2/7 48/1/8 45/2/7
f 41/4/5 43/3/6 44/3/6
f 43/3/6 41/4/5 42/4/5
f 40/4/4 47/1/8 38/4/4
f 47/1/8 40/4/4 48/1/8
f 36/2/9 42/4/9 34/1/9
f 42/4/9 36/2/9 43/3/9
f 43/3/9 36/2/9 45/2/9
f 43/3/9 45/2/9 39/3/9
f 39/3/9 45/2/9 48/1/9
f 39/3/9 48/1/9 40/4/9
f 44/3/10 33/1/10 41/4/10
f 33/1/10 44/3/10 35/2/10
f 35/2/10 44/3/10 37/3/10
f 35/2/10 37/3/10 46/2/10
f 46/2/10 37/3/10 38/4/10
f 46/2/10 38/4/10 47/1/10
f 51/2/2 50/1/1 49/1/1
f 50/1/1 51/2/2 52/2/2
f 55/3/3 54/4/4 53/3/3
f 54/4/4 55/3/3 56/4/4
f 49/1/1 58/4/5 57/4/5
f 58/4/5 49/1/1 50/1/1
f 53/3/3 59/3/6 55/3/3
f 59/3/6 53/3/3 60/3/6
f 51/2/2 61/2/7 52/2/2
f 61/2/7 51/2/2 62/2/7
f 64/1/8 62/2/7 63/1/8
f 62/2/7 64/1/8 61/2/7
f 57/4/5 59/3/6 60/3/6
f 59/3/6 57/4/5 58/4/5
f 56/4/4 63/1/8 54/4/4
f 63/1/8 56/4/4 64/1/8
f 52/2/9 58/4/9 50/1/9
f 58/4/9 52/2/9 59/3/9
f 59/3/9 52/2/9 61/2/9
f 59/3/9 61/2/9 55/3/9
f 55/3/9 61/2/9 64/1/9
f 55/3/9 64/1/9 56/4/9
f 60/3/10 49/1/10 57/4/10
f 49/1/10 60/3/10 51/2/10
f 51/2/10 60/3/10 53/3/10
f 51/2/10 53/3/10 62/2/10
f 62/2/10 53/3/10 54/4/10
f 62/2/10 54/4/10 63/1/10
f 67/6/13 66/6/12 65/5/11
f 70/6/16 69/5/15 68/6/14
f 73/5/19 72/6/18 71/6/17
f 76/6/22 75/6/21 74/5/20
f 75/6/25 78/2/24 77/2/23
f 78/2/24 75/6/25 76/6/26
f 79/3/27 69/5/28 74/5/27
f 69/5/28 79/3/27 80/3/28
f 72/6/31 82/2/30 81/2/29
f 82/2/30 72/6/31 66/6/32
f 73/5/19 66/6/12 72/6/18
f 66/6/12 73/5/19 65/5/11
f 83/2/35 70/6/34 68/6/33
f 70/6/34 83/2/35 84/2/36
f 78/2/37 85/2/37 77/2/37
f 85/2/37 78/2/37 82/2/37
f 82/2/37 78/2/37 84/2/37
f 82/2/37 84/2/37 81/2/37
f 81/2/37 84/2/37 83/2/37
f 81/2/37 83/2/37 86/2/37
f 68/6/14 73/5/19 71/6/17
f 73/5/19 68/6/14 69/5/15
f 86/2/38 72/6/31 81/2/29
f 72/6/31 86/2/38 71/6/39
f 74/5/20 70/6/16 76/6/22
f 70/6/16 74/5/20 69/5/15
f 76/6/26 84/2/36 78/2/24
f 84/2/36 76/6/26 70/6/34
f 87/3/40 65/5/41 73/5/40
f 65/5/41 87/3/40 88/3/41
f 79/3/27 65/5/41 88/3/41
f 65/5/41 79/3/27 74/5/27
f 66/6/32 85/2/42 82/2/30
f 85/2/42 66/6/32 67/6/43
f 83/2/35 71/6/39 86/2/38
f 71/6/39 83/2/35 68/6/33
f 67/6/43 77/2/23 85/2/42
f 77/2/23 67/6/43 75/6/25
f 87/3/44 79/3/44 88/3/44
f 79/3/44 87/3/44 80/3/44
f 69/5/28 87/3/40 73/5/40
f 87/3/40 69/5/28 80/3/28
f 74/5/20 67/6/13 65/5/11
f 67/6/13 74/5/20 75/6/21
f 91/8/45 90/7/46 89/7/45
f 90/7/46 91/8/45 92/8/46
f 95/8/47 94/7/48 93/7/47
f 94/7/48 95/8/47 96/8/48
f 98/8/49 89/7/45 97/7/49
f 89/7/45 98/8/49 91/8/45
f 90/7/46 100/8/50 99/7/50
f 100/8/50 90/7/46 92/8/46
f 97/7/37 102/7/37 101/7/37
f 102/7/37 97/7/37 103/7/37
f 103/7/37 97/7/37 89/7/37
f 103/7/37 89/7/37 94/7/37
f 94/7/37 89/7/37 90/7/37
f 94/7/37 90/7/37 93/7/37
f 93/7/37 90/7/37 99/7/37
f 93/7/37 99/7/37 104/7/37
f 104/7/37 99/7/37 105/7/37
f 104/7/37 105/7/37 106/7/37
f 104/7/51 95/8/47 93/7/47
f 95/8/47 104/7/51 107/8/51
f 110/8/44 109/8/44 108/8/44
f 109/8/44 110/8/44 98/8/44
f 98/8/44 110/8/44 96/8/44
f 98/8/44 96/8/44 91/8/44
f 91/8/44 96/8/44 92/8/44
f 92/8/44 96/8/44 95/8/44
f 92/8/44 95/8/44 107/8/44
f 92/8/44 107/8/44 100/8/44
f 100/8/44 107/8/44 111/8/44
f 100/8/44 111/8/44 112/8/44
f 96/8/48 103/7/52 94/7/48
f 103/7/52 96/8/48 110/8/52
f 109/8/9 102/7/9 108/8/9
f 102/7/9 109/8/9 101/7/9
f 110/8/53 102/7/53 103/7/53
f 102/7/53 110/8/53 108/8/53
f 109/8/54 97/7/54 101/7/54
f 97/7/54 109/8/54 98/8/54
f 105/7/10 111/8/10 106/7/10
f 111/8/10 105/7/10 112/8/10
f 100/8/54 105/7/54 99/7/54
f 105/7/54 100/8/54 112/8/54
f 111/8/53 104/7/53 106/7/53
f 104/7/53 111/8/53 107/8/53
f 115/10/55 114/9/56 113/9/55
f 114/9/56 115/10/55 116/10/56
f 119/10/57 118/9/58 117/9/57
f 118/9/58 119/10/57 120/10/58
f 122/10/59 117/9/57 121/9/59
f 117/9/57 122/10/59 119/10/57
f 121/9/59 123/10/60 122/10/59
f 123/10/60 121/9/59 124/9/60
f 125/9/61 115/10/55 113/9/55
f 115/10/55 125/9/61 126/10/61
f 126/10/61 128/9/62 127/10/62
f 128/9/62 126/10/61 125/9/61
f 122/10/65 130/11/64 129/11/63
f 130/11/64 122/10/65 123/10/66
f 133/12/55 132/11/56 131/11/55
f 132/11/56 133/12/55 134/12/56
f 137/12/57 136/11/58 135/11/57
f 136/11/58 137/12/57 138/12/58
f 139/11/69 115/10/68 126/10/67
f 115/10/68 139/11/69 131/11/70
f 131/11/70 116/10/71 115/10/68
f 116/10/71 131/11/70 132/11/72
f 136/11/75 127/10/74 120/10/73
f 127/10/74 136/11/75 140/11/76
f 139/11/69 127/10/74 140/11/76
f 127/10/74 139/11/69 126/10/67
f 136/11/58 141/12/62 140/11/62
f 141/12/62 136/11/58 138/12/58
f 135/11/78 120/10/73 119/10/77
f 120/10/73 135/11/78 136/11/75
f 116/10/71 130/11/64 123/10/66
f 130/11/64 116/10/71 132/11/72
f 142/12/59 135/11/57 129/11/59
f 135/11/57 142/12/59 137/12/57
f 130/11/60 142/12/59 129/11/59
f 142/12/59 130/11/60 143/12/60
f 118/9/58 127/10/62 128/9/62
f 127/10/62 118/9/58 120/10/58
f 132/11/56 143/12/60 130/11/60
f 143/12/60 132/11/56 134/12/56
f 144/12/61 131/11/55 139/11/61
f 131/11/55 144/12/61 133/12/55
f 141/12/62 139/11/61 140/11/62
f 139/11/61 141/12/62 144/12/61
f 113/9/79 128/9/79 125/9/79
f 128/9/79 113/9/79 118/9/79
f 118/9/79 113/9/79 114/9/79
f 118/9/79 114/9/79 117/9/79
f 117/9/79 114/9/79 124/9/79
f 117/9/79 124/9/79 121/9/79
f 116/10/56 124/9/60 114/9/56
f 124/9/60 116/10/56 123/10/60
f 129/11/63 119/10/77 122/10/65
f 119/10/77 129/11/63 135/11/78
f 147/10/55 146/9/56 145/9/55
f 146/9/56 147/10/55 148/10/56
f 151/10/57 150/9/58 149/9/57
f 150/9/58 151/10/57 152/10/58
f 154/10/59 149/9/57 153/9/59
f 149/9/57 154/10/59 151/10/57
f 155/9/60 154/10/59 153/9/59
f 154/10/59 155/9/60 156/10/60
f 157/9/61 147/10/55 145/9/55
f 147/10/55 157/9/61 158/10/61
f 158/10/61 160/9/62 159/10/62
f 160/9/62 158/10/61 157/9/61
f 154/10/65 162/11/64 161/11/63
f 162/11/64 154/10/65 156/10/66
f 165/12/55 164/11/56 163/11/55
f 164/11/56 165/12/55 166/12/56
f 169/12/57 168/11/58 167/11/57
f 168/11/58 169/12/57 170/12/58
f 171/11/69 147/10/68 158/10/67
f 147/10/68 171/11/69 163/11/70
f 163/11/70 148/10/71 147/10/68
f 148/10/71 163/11/70 164/11/72
f 168/11/75 159/10/74 152/10/73
f 159/10/74 168/11/75 172/11/76
f 171/11/69 159/10/74 172/11/76
f 159/10/74 171/11/69 158/10/67
f 170/12/58 172/11/62 168/11/58
f 172/11/62 170/12/58 173/12/62
f 167/11/78 152/10/73 151/10/77
f 152/10/73 167/11/78 168/11/75
f 164/11/72 156/10/66 148/10/71
f 156/10/66 164/11/72 162/11/64
f 174/12/59 167/11/57 161/11/59
f 167/11/57 174/12/59 169/12/57
f 162/11/60 174/12/59 161/11/59
f 174/12/59 162/11/60 175/12/60
f 150/9/58 159/10/62 160/9/62
f 159/10/62 150/9/58 152/10/58
f 164/11/56 175/12/60 162/11/60
f 175/12/60 164/11/56 166/12/56
f 176/12/61 163/11/55 171/11/61
f 163/11/55 176/12/61 165/12/55
f 173/12/62 171/11/61 172/11/62
f 171/11/61 173/12/62 176/12/61
f 145/9/79 160/9/79 157/9/79
f 160/9/79 145/9/79 150/9/79
f 150/9/79 145/9/79 146/9/79
f 150/9/79 146/9/79 149/9/79
f 149/9/79 146/9/79 155/9/79
f 149/9/79 155/9/79 153/9/79
f 148/10/56 155/9/60 146/9/56
f 155/9/60 148/10/56 156/10/60
f 154/10/65 167/11/78 151/10/77
f 167/11/78 154/10/65 161/11/63
f 179/10/55 178/9/56 177/9/55
f 178/9/56 179/10/55 180/10/56
f 183/10/57 182/9/58 181/9/57
f 182/9/58 183/10/57 184/10/58
f 186/10/59 181/9/57 185/9/59
f 181/9/57 186/10/59 183/10/57
f 185/9/59 187/10/60 186/10/59
f 187/10/60 185/9/59 188/9/60
f 189/9/61 179/10/55 177/9/55
f 179/10/55 189/9/61 190/10/61
f 190/10/61 192/9/62 191/10/62
f 192/9/62 190/10/61 189/9/61
f 186/10/65 194/11/64 193/11/63
f 194/11/64 186/10/65 187/10/66
f 197/12/55 196/11/56 195/11/55
f 196/11/56 197/12/55 198/12/56
f 201/12/57 200/11/58 199/11/57
f 200/11/58 201/12/57 202/12/58
f 203/11/69 179/10/68 190/10/67
f 179/10/68 203/11/69 195/11/70
f 195/11/70 180/10/71 179/10/68
f 180/10/71 195/11/70 196/11/72
f 200/11/75 191/10/74 184/10/73
f 191/10/74 200/11/75 204/11/76
f 203/11/69 191/10/74 204/11/76
f 191/10/74 203/11/69 190/10/67
f 200/11/58 205/12/62 204/11/62
f 205/12/62 200/11/58 202/12/58
f 199/11/78 184/10/73 183/10/77
f 184/10/73 199/11/78 200/11/75
f 180/10/71 194/11/64 187/10/66
f 194/11/64 180/10/71 196/11/72
f 206/12/59 199/11/57 193/11/59
f 199/11/57 206/12/59 201/12/57
f 194/11/60 206/12/59 193/11/59
f 206/12/59 194/11/60 207/12/60
f 182/9/58 191/10/62 192/9/62
f 191/10/62 182/9/58 184/10/58
f 196/11/56 207/12/60 194/11/60
f 207/12/60 196/11/56 198/12/56
f 208/12/61 195/11/55 203/11/61
f 195/11/55 208/12/61 197/12/55
f 205/12/62 203/11/61 204/11/62
f 203/11/61 205/12/62 208/12/61
f 177/9/79 192/9/79 189/9/79
f 192/9/79 177/9/79 182/9/79
f 182/9/79 177/9/79 178/9/79
f 182/9/79 178/9/79 181/9/79
f 181/9/79 178/9/79 188/9/79
f 181/9/79 188/9/79 185/9/79
f 180/10/56 188/9/60 178/9/56
f 188/9/60 180/10/56 187/10/60
f 193/11/63 183/10/77 186/10/65
f 183/10/77 193/11/63 199/11/78
f 211/10/55 210/9/56 209/9/55
f 210/9/56 211/10/55 212/10/56
f 215/10/57 214/9/58 213/9/57
f 214/9/58 215/10/57 216/10/58
f 218/10/59 213/9/57 217/9/59
f 213/9/57 218/10/59 215/10/57
f 217/9/59 219/10/60 218/10/59
f 219/10/60 217/9/59 220/9/60
f 221/9/61 211/10/55 209/9/55
f 211/10/55 221/9/61 222/10/61
f 222/10/61 224/9/62 223/10/62
f 224/9/62 222/10/61 221/9/61
f 218/10/65 226/11/64 225/11/63
f 226/11/64 218/10/65 219/10/66
f 229/12/55 228/11/56 227/11/55
f 228/11/56 229/12/55 230/12/56
f 233/12/57 232/11/58 231/11/57
f 232/11/58 233/12/57 234/12/58
f 235/11/69 211/10/68 222/10/67
f 211/10/68 235/11/69 227/11/70
f 227/11/70 212/10/71 211/10/68
f 212/10/71 227/11/70 228/11/72
f 232/11/75 223/10/74 216/10/73
f 223/10/74 232/11/75 236/11/76
f 235/11/69 223/10/74 236/11/76
f 223/10/74 235/11/69 222/10/67
f 232/11/58 237/12/62 236/11/62
f 237/12/62 232/11/58 234/12/58
f 231/11/78 216/10/73 215/10/77
f 216/10/73 231/11/78 232/11/75
f 212/10/71 226/11/64 219/10/66
f 226/11/64 212/10/71 228/11/72
f 238/12/59 231/11/57 225/11/59
f 231/11/57 238/12/59 233/12/57
f 226/11/60 238/12/59 225/11/59
f 238/12/59 226/11/60 239/12/60
f 214/9/58 223/10/62 224/9/62
f 223/10/62 214/9/58 216/10/58
f 228/11/56 239/12/60 226/11/60
f 239/12/60 228/11/56 230/12/56
f 240/12/61 227/11/55 235/11/61
f 227/11/55 240/12/61 229/12/55
f 237/12/62 235/11/61 236/11/62
f 235/11/61 237/12/62 240/12/61
f 209/9/79 224/9/79 221/9/79
f 224/9/79 209/9/79 214/9/79
f 214/9/79 209/9/79 210/9/79
f 214/9/79 210/9/79 213/9/79
f 213/9/79 210/9/79 220/9/79
f 213/9/79 220/9/79 217/9/79
f 212/10/56 220/9/60 210/9/56
f 220/9/60 212/10/56 219/10/60
f 225/11/63 215/10/77 218/10/65
f 215/10/77 225/11/63 231/11/78
f 138/13/80 144/13/80 141/13/80
f 144/13/80 138/13/80 133/13/80
f 133/13/80 138/13/80 137/13/80
f 133/13/80 137/13/80 134/13/80
f 134/13/80 137/13/80 142/13/80
f 134/13/80 142/13/80 143/13/80
f 170/13/80 176/13/80 173/13/80
f 176/13/80 170/13/80 165/13/80
f 165/13/80 170/13/80 169/13/80
f 165/13/80 169/13/80 166/13/80
f 166/13/80 169/13/80 174/13/80
f 166/13/80 174/13/80 175/13/80
f 202/13/80 208/13/80 205/13/80
f 208/13/80 202/13/80 197/13/80
f 197/13/80 202/13/80 201/13/80
f 197/13/80 201/13/80 198/13/80
f 198/13/80 201/13/80 206/13/80
f 198/13/80 206/13/80 207/13/80
f 234/13/80 240/13/80 237/13/80
f 240/13/80 234/13/80 229/13/80
f 229/13/80 234/13/80 233/13/80
f 229/13/80 233/13/80 230/13/80
f 230/13/80 233/13/80 238/13/80
f 230/13/80 238/13/80 239/13/80

