# Created by Kenney (www.kenney.nl)

mtllib lights-low.mtl

g lights-low

v 0.1585937 1.410427 -0.0515625 1 1 1
v 0.2085938 1.410427 -0.0515625 1 1 1
v 0.1585937 1.437927 -0.0240625 1 1 1
v 0.2085938 1.437927 -0.0240625 1 1 1
v 0.1585937 1.334802 0.0240625 1 1 1
v 0.1585937 1.362302 0.0515625 1 1 1
v 0.2085938 1.334802 0.0240625 1 1 1
v 0.2085938 1.362302 0.0515625 1 1 1
v 0.1585937 1.362302 -0.0515625 1 1 1
v 0.2085938 1.362302 -0.0515625 1 1 1
v 0.2085938 1.334802 -0.0240625 1 1 1
v 0.1585937 1.334802 -0.0240625 1 1 1
v 0.2085938 1.437927 0.0240625 1 1 1
v 0.1585937 1.437927 0.0240625 1 1 1
v 0.1585937 1.410427 0.0515625 1 1 1
v 0.2085938 1.410427 0.0515625 1 1 1
v -0.1585937 1.410427 -0.0515625 1 1 1
v -0.1585937 1.362302 -0.0515625 1 1 1
v -0.1585937 1.437927 -0.0240625 1 1 1
v -0.1585937 1.334802 -0.0240625 1 1 1
v -0.1585937 1.437927 0.0240625 1 1 1
v -0.1585937 1.334802 0.0240625 1 1 1
v -0.1585937 1.410427 0.0515625 1 1 1
v -0.1585937 1.362302 0.0515625 1 1 1
v -0.2085938 1.410427 -0.0515625 1 1 1
v -0.2085938 1.437927 -0.0240625 1 1 1
v -0.2085938 1.362302 -0.0515625 1 1 1
v -0.2085938 1.334802 -0.0240625 1 1 1
v -0.2085938 1.334802 0.0240625 1 1 1
v -0.2085938 1.437927 0.0240625 1 1 1
v -0.2085938 1.362302 0.0515625 1 1 1
v -0.2085938 1.410427 0.0515625 1 1 1
v 0.03125 0.35 -0.03125 1 1 1
v 0.03125 0.2875 -0.0625 1 1 1
v 0.0625 0.2875 -0.03125 1 1 1
v -0.0625 0.2875 0.03125 1 1 1
v -0.03125 0.35 0.03125 1 1 1
v -0.03125 0.2875 0.0625 1 1 1
v -0.0625 0.2875 -0.03125 1 1 1
v -0.03125 0.2875 -0.0625 1 1 1
v -0.03125 0.35 -0.03125 1 1 1
v 0.03125 0.35 0.03125 1 1 1
v 0.0625 0.2875 0.03125 1 1 1
v 0.03125 0.2875 0.0625 1 1 1
v 0.078125 0 0.0390625 1 1 1
v 0.0390625 0 0.078125 1 1 1
v 0.03125 1.4875 0.03125 1 1 1
v -0.03125 1.4875 0.03125 1 1 1
v -0.0390625 0 -0.078125 1 1 1
v 0.0390625 0 -0.078125 1 1 1
v -0.078125 0 0.0390625 1 1 1
v -0.0390625 0 0.078125 1 1 1
v 0.078125 0 -0.0390625 1 1 1
v -0.078125 0 -0.0390625 1 1 1
v -0.03125 1.4875 -0.03125 1 1 1
v 0.03125 1.4875 -0.03125 1 1 1
v 0.03125 1.355115 0.05859375 1 1 1
v -0.03125 1.355115 0.05859375 1 1 1
v 0.03125 1.417615 0.05859375 1 1 1
v -0.03125 1.417615 0.05859375 1 1 1
v -0.03125 1.355115 -0.05859375 1 1 1
v 0.03125 1.355115 -0.05859375 1 1 1
v -0.03125 1.417615 -0.05859375 1 1 1
v 0.03125 1.417615 -0.05859375 1 1 1
v 0.05859375 1.355115 0.03125 1 1 1
v 0.05859375 1.417615 0.03125 1 1 1
v -0.05859375 1.355115 0.03125 1 1 1
v -0.05859375 1.417615 0.03125 1 1 1
v 0.2585938 1.355115 0.03125 1 1 1
v 0.2585938 1.355115 -0.03125 1 1 1
v 0.05859375 1.355115 -0.03125 1 1 1
v -0.05859375 1.355115 -0.03125 1 1 1
v -0.2585938 1.355115 0.03125 1 1 1
v -0.2585938 1.355115 -0.03125 1 1 1
v -0.05859375 1.417615 -0.03125 1 1 1
v 0.2585938 1.417615 -0.03125 1 1 1
v 0.2585938 1.417615 0.03125 1 1 1
v 0.05859375 1.417615 -0.03125 1 1 1
v -0.2585938 1.417615 -0.03125 1 1 1
v -0.2585938 1.417615 0.03125 1 1 1
v 0.2478338 1.258815 0.01093825 1 1 1
v 0.1193537 1.258815 0.01093825 1 1 1
v 0.2478338 1.238503 0.08674411 1 1 1
v 0.1193537 1.238503 0.08674411 1 1 1
v 0.1193537 1.410427 0.05156251 1 1 1
v 0.2478338 1.410427 0.05156251 1 1 1
v 0.1193537 1.390115 0.1273684 1 1 1
v 0.2478338 1.390115 0.1273684 1 1 1
v 0.08011375 1.372524 0.04140645 1 1 1
v 0.08011375 1.352212 0.1172123 1 1 1
v 0.08011375 1.276406 0.09690018 1 1 1
v 0.08011375 1.296718 0.02109431 1 1 1
v 0.2870737 1.296718 0.02109431 1 1 1
v 0.2870737 1.276406 0.09690018 1 1 1
v 0.2870737 1.352212 0.1172123 1 1 1
v 0.2870737 1.372524 0.04140645 1 1 1
v 0.06049375 1.347582 0.1723943 1 1 1
v 0.06049375 1.252825 0.1470041 1 1 1
v 0.2576438 1.205446 0.134309 1 1 1
v 0.1095438 1.205446 0.134309 1 1 1
v 0.2576438 1.19134 0.186952 1 1 1
v 0.1095438 1.19134 0.186952 1 1 1
v 0.1095438 1.394961 0.1850893 1 1 1
v 0.2576438 1.394961 0.1850893 1 1 1
v 0.1095438 1.380855 0.2377323 1 1 1
v 0.2576438 1.380855 0.2377323 1 1 1
v 0.3066937 1.252825 0.1470041 1 1 1
v 0.3066937 1.347582 0.1723943 1 1 1
v 0.3066937 1.333476 0.2250372 1 1 1
v 0.06049375 1.333476 0.2250372 1 1 1
v 0.06049375 1.238719 0.1996471 1 1 1
v 0.3066937 1.238719 0.1996471 1 1 1
v -0.1193537 1.258815 0.01093825 1 1 1
v -0.2478338 1.258815 0.01093825 1 1 1
v -0.1193537 1.238503 0.08674411 1 1 1
v -0.2478338 1.238503 0.08674411 1 1 1
v -0.2478338 1.410427 0.05156251 1 1 1
v -0.1193537 1.410427 0.05156251 1 1 1
v -0.2478338 1.390115 0.1273684 1 1 1
v -0.1193537 1.390115 0.1273684 1 1 1
v -0.2870737 1.372524 0.04140645 1 1 1
v -0.2870737 1.352212 0.1172123 1 1 1
v -0.2870737 1.296718 0.02109431 1 1 1
v -0.2870737 1.276406 0.09690018 1 1 1
v -0.08011375 1.296718 0.02109431 1 1 1
v -0.08011375 1.276406 0.09690018 1 1 1
v -0.08011375 1.352212 0.1172123 1 1 1
v -0.08011375 1.372524 0.04140645 1 1 1
v -0.3066937 1.347582 0.1723943 1 1 1
v -0.3066937 1.252825 0.1470041 1 1 1
v -0.1095438 1.205446 0.134309 1 1 1
v -0.2576438 1.205446 0.134309 1 1 1
v -0.1095438 1.19134 0.186952 1 1 1
v -0.2576438 1.19134 0.186952 1 1 1
v -0.2576438 1.394961 0.1850893 1 1 1
v -0.1095438 1.394961 0.1850893 1 1 1
v -0.2576438 1.380855 0.2377323 1 1 1
v -0.1095438 1.380855 0.2377323 1 1 1
v -0.06049375 1.252825 0.1470041 1 1 1
v -0.06049375 1.347582 0.1723943 1 1 1
v -0.06049375 1.333476 0.2250372 1 1 1
v -0.3066937 1.333476 0.2250372 1 1 1
v -0.3066937 1.238719 0.1996471 1 1 1
v -0.06049375 1.238719 0.1996471 1 1 1

vn 0 0.3826834 -0.9238795
vn 0 0.9238795 -0.3826834
vn 0 -0.9238795 0.3826834
vn 0 -0.3826834 0.9238795
vn 0 -0.3826834 -0.9238795
vn 0 -0.9238795 -0.3826834
vn 0 0.9238795 0.3826834
vn 0 0.3826834 0.9238795
vn 1 0 0
vn -1 0 0
vn 0.5997861 0.5296351 -0.5997861
vn 0.315808 0.4243266 -0.8486531
vn 0.8486531 0.4243266 -0.315808
vn -0.8486531 0.4243266 0.315808
vn -0.5997861 0.5296351 0.5997861
vn -0.315808 0.4243266 0.8486531
vn -0.8486531 0.4243266 -0.315808
vn -0.315808 0.4243266 -0.8486531
vn -0.5997861 0.5296351 -0.5997861
vn 0.5997861 0.5296351 0.5997861
vn 0.8486531 0.4243266 0.315808
vn 0.315808 0.4243266 0.8486531
vn 0.9217949 0.06050319 0.3829277
vn 0.3829277 0.06050319 0.9217949
vn 0.9225959 0.0604942 0.380995
vn 0.380995 0.0604942 0.9225959
vn 0.7071068 0 0.7071068
vn -0.7071068 0 0.7071068
vn -0.3829277 0.06050319 -0.9217949
vn 0.3829277 0.06050319 -0.9217949
vn -0.380995 0.0604942 -0.9225959
vn 0.380995 0.0604942 -0.9225959
vn -0.9225959 0.0604942 0.380995
vn -0.380995 0.0604942 0.9225959
vn -0.9217949 0.06050319 0.3829277
vn -0.3829277 0.06050319 0.9217949
vn 0 -1 0
vn -0.9217949 0.06050319 -0.3829277
vn -0.9225959 0.0604942 -0.380995
vn -0.7071068 0 -0.7071068
vn 0.7071068 0 -0.7071068
vn 0.9217949 0.06050319 -0.3829277
vn 0.9225959 0.0604942 -0.380995
vn 0 1 0
vn 0.3826835 0 0.9238796
vn -0.3826835 0 0.9238796
vn -0.3826835 0 -0.9238796
vn 0.3826835 0 -0.9238796
vn 0.7071068 0 0.7071068
vn -0.7071068 0 0.7071068
vn -0.7071068 0 -0.7071068
vn 0.7071068 0 -0.7071068
vn 0 0 -1
vn 0 0 1
vn 0.3826834 -0.8923991 -0.2391177
vn -0.3826834 -0.8923991 -0.2391177
vn -0.3826834 0.8923991 0.2391177
vn 0.3826834 0.8923991 0.2391177
vn -0.9238795 0.3696438 0.09904581
vn -0.9238795 -0.3696438 -0.09904581
vn 0.9238795 -0.3696438 -0.09904581
vn 0.9238795 0.3696438 0.09904581
vn -0.8552802 0.4441833 -0.2668275
vn -0.8552802 -0.2512602 -0.4531711
vn -0.8600493 0.4332638 -0.2694393
vn -0.8600493 -0.2404976 -0.4499733
vn 0.8600493 -0.2404976 -0.4499733
vn 0.3487646 -0.7343608 -0.5823035
vn 0.8552802 -0.2512602 -0.4531711
vn 0.359988 -0.7296757 -0.5813622
vn -0.3487646 -0.7343608 -0.5823035
vn -0.359988 -0.7296757 -0.5813622
vn 0.3487646 0.9271269 -0.137109
vn 0.8600493 0.4332638 -0.2694393
vn 0.359988 0.9225988 -0.1386364
vn 0.8552802 0.4441833 -0.2668275
vn -0.3487646 0.9271269 -0.137109
vn -0.359988 0.9225988 -0.1386364
vn 0 0.2588192 -0.9659258
vn 0 -0.2588192 0.9659258

vt 0.46875 0.1716666
vt 0.46875 0.225
vt 0.46875 0.025
vt 0.46875 0.07833333
vt 0.46875 0.1779412
vt 0.46875 0.1863445
vt 0.46875 0.075
vt 0.46875 0.175
vt 0.21875 0.025
vt 0.21875 0.1087209
vt 0.21875 0.1668605
vt 0.21875 0.225
vt 0.59375 0.225

usemtl colormap

f 3/2/2 2/1/1 1/1/1
f 2/1/1 3/2/2 4/2/2
f 7/3/3 6/4/4 5/3/3
f 6/4/4 7/3/3 8/4/4
f 1/1/1 10/4/5 9/4/5
f 10/4/5 1/1/1 2/1/1
f 5/3/3 11/3/6 7/3/3
f 11/3/6 5/3/3 12/3/6
f 3/2/2 13/2/7 4/2/2
f 13/2/7 3/2/2 14/2/7
f 16/1/8 14/2/7 15/1/8
f 14/2/7 16/1/8 13/2/7
f 9/4/5 11/3/6 12/3/6
f 11/3/6 9/4/5 10/4/5
f 8/4/4 15/1/8 6/4/4
f 15/1/8 8/4/4 16/1/8
f 4/2/9 10/4/9 2/1/9
f 10/4/9 4/2/9 11/3/9
f 11/3/9 4/2/9 13/2/9
f 11/3/9 13/2/9 7/3/9
f 7/3/9 13/2/9 16/1/9
f 7/3/9 16/1/9 8/4/9
f 12/3/10 1/1/10 9/4/10
f 1/1/10 12/3/10 3/2/10
f 3/2/10 12/3/10 5/3/10
f 3/2/10 5/3/10 14/2/10
f 14/2/10 5/3/10 6/4/10
f 14/2/10 6/4/10 15/1/10
f 19/2/9 18/4/9 17/1/9
f 18/4/9 19/2/9 20/3/9
f 20/3/9 19/2/9 21/2/9
f 20/3/9 21/2/9 22/3/9
f 22/3/9 21/2/9 23/1/9
f 22/3/9 23/1/9 24/4/9
f 26/2/2 17/1/1 25/1/1
f 17/1/1 26/2/2 19/2/2
f 28/3/10 25/1/10 27/4/10
f 25/1/10 28/3/10 26/2/10
f 26/2/10 28/3/10 29/3/10
f 26/2/10 29/3/10 30/2/10
f 30/2/10 29/3/10 31/4/10
f 30/2/10 31/4/10 32/1/10
f 22/3/3 31/4/4 29/3/3
f 31/4/4 22/3/3 24/4/4
f 26/2/2 21/2/7 19/2/2
f 21/2/7 26/2/2 30/2/7
f 29/3/3 20/3/6 22/3/3
f 20/3/6 29/3/3 28/3/6
f 25/1/1 18/4/5 27/4/5
f 18/4/5 25/1/1 17/1/1
f 23/1/8 30/2/7 32/1/8
f 30/2/7 23/1/8 21/2/7
f 24/4/4 32/1/8 31/4/4
f 32/1/8 24/4/4 23/1/8
f 27/4/5 20/3/6 28/3/6
f 20/3/6 27/4/5 18/4/5
f 35/6/13 34/6/12 33/5/11
f 38/6/16 37/5/15 36/6/14
f 41/5/19 40/6/18 39/6/17
f 44/6/22 43/6/21 42/5/20
f 43/6/25 46/2/24 45/2/23
f 46/2/24 43/6/25 44/6/26
f 47/3/27 37/5/28 42/5/27
f 37/5/28 47/3/27 48/3/28
f 40/6/31 50/2/30 49/2/29
f 50/2/30 40/6/31 34/6/32
f 41/5/19 34/6/12 40/6/18
f 34/6/12 41/5/19 33/5/11
f 51/2/35 38/6/34 36/6/33
f 38/6/34 51/2/35 52/2/36
f 46/2/37 53/2/37 45/2/37
f 53/2/37 46/2/37 50/2/37
f 50/2/37 46/2/37 52/2/37
f 50/2/37 52/2/37 49/2/37
f 49/2/37 52/2/37 51/2/37
f 49/2/37 51/2/37 54/2/37
f 36/6/14 41/5/19 39/6/17
f 41/5/19 36/6/14 37/5/15
f 54/2/38 40/6/31 49/2/29
f 40/6/31 54/2/38 39/6/39
f 42/5/20 38/6/16 44/6/22
f 38/6/16 42/5/20 37/5/15
f 44/6/26 52/2/36 46/2/24
f 52/2/36 44/6/26 38/6/34
f 55/3/40 33/5/41 41/5/40
f 33/5/41 55/3/40 56/3/41
f 47/3/27 33/5/41 56/3/41
f 33/5/41 47/3/27 42/5/27
f 34/6/32 53/2/42 50/2/30
f 53/2/42 34/6/32 35/6/43
f 51/2/35 39/6/39 54/2/38
f 39/6/39 51/2/35 36/6/33
f 35/6/43 45/2/23 53/2/42
f 45/2/23 35/6/43 43/6/25
f 55/3/44 47/3/44 56/3/44
f 47/3/44 55/3/44 48/3/44
f 37/5/28 55/3/40 41/5/40
f 55/3/40 37/5/28 48/3/28
f 42/5/20 35/6/13 33/5/11
f 35/6/13 42/5/20 43/6/21
f 59/8/45 58/7/46 57/7/45
f 58/7/46 59/8/45 60/8/46
f 63/8/47 62/7/48 61/7/47
f 62/7/48 63/8/47 64/8/48
f 66/8/49 57/7/45 65/7/49
f 57/7/45 66/8/49 59/8/45
f 58/7/46 68/8/50 67/7/50
f 68/8/50 58/7/46 60/8/46
f 65/7/37 70/7/37 69/7/37
f 70/7/37 65/7/37 71/7/37
f 71/7/37 65/7/37 57/7/37
f 71/7/37 57/7/37 62/7/37
f 62/7/37 57/7/37 58/7/37
f 62/7/37 58/7/37 61/7/37
f 61/7/37 58/7/37 72/7/37
f 72/7/37 58/7/37 67/7/37
f 72/7/37 67/7/37 73/7/37
f 72/7/37 73/7/37 74/7/37
f 72/7/51 63/8/47 61/7/47
f 63/8/47 72/7/51 75/8/51
f 78/8/44 77/8/44 76/8/44
f 77/8/44 78/8/44 66/8/44
f 66/8/44 78/8/44 64/8/44
f 66/8/44 64/8/44 59/8/44
f 59/8/44 64/8/44 60/8/44
f 60/8/44 64/8/44 63/8/44
f 60/8/44 63/8/44 75/8/44
f 60/8/44 75/8/44 68/8/44
f 68/8/44 75/8/44 79/8/44
f 68/8/44 79/8/44 80/8/44
f 64/8/48 71/7/52 62/7/48
f 71/7/52 64/8/48 78/8/52
f 77/8/9 70/7/9 76/8/9
f 70/7/9 77/8/9 69/7/9
f 78/8/53 70/7/53 71/7/53
f 70/7/53 78/8/53 76/8/53
f 77/8/54 65/7/54 69/7/54
f 65/7/54 77/8/54 66/8/54
f 73/7/10 79/8/10 74/7/10
f 79/8/10 73/7/10 80/8/10
f 68/8/54 73/7/54 67/7/54
f 73/7/54 68/8/54 80/8/54
f 79/8/53 72/7/53 74/7/53
f 72/7/53 79/8/53 75/8/53
f 83/10/55 82/9/56 81/9/55
f 82/9/56 83/10/55 84/10/56
f 87/10/57 86/9/58 85/9/57
f 86/9/58 87/10/57 88/10/58
f 90/10/59 85/9/57 89/9/59
f 85/9/57 90/10/59 87/10/57
f 89/9/59 91/10/60 90/10/59
f 91/10/60 89/9/59 92/9/60
f 93/9/61 83/10/55 81/9/55
f 83/10/55 93/9/61 94/10/61
f 94/10/61 96/9/62 95/10/62
f 96/9/62 94/10/61 93/9/61
f 90/10/65 98/11/64 97/11/63
f 98/11/64 90/10/65 91/10/66
f 101/12/55 100/11/56 99/11/55
f 100/11/56 101/12/55 102/12/56
f 105/12/57 104/11/58 103/11/57
f 104/11/58 105/12/57 106/12/58
f 107/11/69 83/10/68 94/10/67
f 83/10/68 107/11/69 99/11/70
f 99/11/70 84/10/71 83/10/68
f 84/10/71 99/11/70 100/11/72
f 104/11/75 95/10/74 88/10/73
f 95/10/74 104/11/75 108/11/76
f 107/11/69 95/10/74 108/11/76
f 95/10/74 107/11/69 94/10/67
f 104/11/58 109/12/62 108/11/62
f 109/12/62 104/11/58 106/12/58
f 103/11/78 88/10/73 87/10/77
f 88/10/73 103/11/78 104/11/75
f 84/10/71 98/11/64 91/10/66
f 98/11/64 84/10/71 100/11/72
f 110/12/59 103/11/57 97/11/59
f 103/11/57 110/12/59 105/12/57
f 98/11/60 110/12/59 97/11/59
f 110/12/59 98/11/60 111/12/60
f 86/9/58 95/10/62 96/9/62
f 95/10/62 86/9/58 88/10/58
f 100/11/56 111/12/60 98/11/60
f 111/12/60 100/11/56 102/12/56
f 112/12/61 99/11/55 107/11/61
f 99/11/55 112/12/61 101/12/55
f 109/12/62 107/11/61 108/11/62
f 107/11/61 109/12/62 112/12/61
f 81/9/79 96/9/79 93/9/79
f 96/9/79 81/9/79 86/9/79
f 86/9/79 81/9/79 82/9/79
f 86/9/79 82/9/79 85/9/79
f 85/9/79 82/9/79 92/9/79
f 85/9/79 92/9/79 89/9/79
f 84/10/56 92/9/60 82/9/56
f 92/9/60 84/10/56 91/10/60
f 97/11/63 87/10/77 90/10/65
f 87/10/77 97/11/63 103/11/78
f 115/10/55 114/9/56 113/9/55
f 114/9/56 115/10/55 116/10/56
f 119/10/57 118/9/58 117/9/57
f 118/9/58 119/10/57 120/10/58
f 122/10/59 117/9/57 121/9/59
f 117/9/57 122/10/59 119/10/57
f 123/9/60 122/10/59 121/9/59
f 122/10/59 123/9/60 124/10/60
f 125/9/61 115/10/55 113/9/55
f 115/10/55 125/9/61 126/10/61
f 126/10/61 128/9/62 127/10/62
f 128/9/62 126/10/61 125/9/61
f 122/10/65 130/11/64 129/11/63
f 130/11/64 122/10/65 124/10/66
f 133/12/55 132/11/56 131/11/55
f 132/11/56 133/12/55 134/12/56
f 137/12/57 136/11/58 135/11/57
f 136/11/58 137/12/57 138/12/58
f 139/11/69 115/10/68 126/10/67
f 115/10/68 139/11/69 131/11/70
f 131/11/70 116/10/71 115/10/68
f 116/10/71 131/11/70 132/11/72
f 136/11/75 127/10/74 120/10/73
f 127/10/74 136/11/75 140/11/76
f 139/11/69 127/10/74 140/11/76
f 127/10/74 139/11/69 126/10/67
f 138/12/58 140/11/62 136/11/58
f 140/11/62 138/12/58 141/12/62
f 135/11/78 120/10/73 119/10/77
f 120/10/73 135/11/78 136/11/75
f 132/11/72 124/10/66 116/10/71
f 124/10/66 132/11/72 130/11/64
f 142/12/59 135/11/57 129/11/59
f 135/11/57 142/12/59 137/12/57
f 130/11/60 142/12/59 129/11/59
f 142/12/59 130/11/60 143/12/60
f 118/9/58 127/10/62 128/9/62
f 127/10/62 118/9/58 120/10/58
f 132/11/56 143/12/60 130/11/60
f 143/12/60 132/11/56 134/12/56
f 144/12/61 131/11/55 139/11/61
f 131/11/55 144/12/61 133/12/55
f 141/12/62 139/11/61 140/11/62
f 139/11/61 141/12/62 144/12/61
f 113/9/79 128/9/79 125/9/79
f 128/9/79 113/9/79 118/9/79
f 118/9/79 113/9/79 114/9/79
f 118/9/79 114/9/79 117/9/79
f 117/9/79 114/9/79 123/9/79
f 117/9/79 123/9/79 121/9/79
f 116/10/56 123/9/60 114/9/56
f 123/9/60 116/10/56 124/10/60
f 122/10/65 135/11/78 119/10/77
f 135/11/78 122/10/65 129/11/63
f 106/13/80 112/13/80 109/13/80
f 112/13/80 106/13/80 101/13/80
f 101/13/80 106/13/80 105/13/80
f 101/13/80 105/13/80 102/13/80
f 102/13/80 105/13/80 110/13/80
f 102/13/80 110/13/80 111/13/80
f 138/13/80 144/13/80 141/13/80
f 144/13/80 138/13/80 133/13/80
f 133/13/80 138/13/80 137/13/80
f 133/13/80 137/13/80 134/13/80
f 134/13/80 137/13/80 142/13/80
f 134/13/80 142/13/80 143/13/80

g lights-low




usemtl colormap

f 3/2/2 2/1/1 1/1/1
f 2/1/1 3/2/2 4/2/2
f 7/3/3 6/4/4 5/3/3
f 6/4/4 7/3/3 8/4/4
f 1/1/1 10/4/5 9/4/5
f 10/4/5 1/1/1 2/1/1
f 5/3/3 11/3/6 7/3/3
f 11/3/6 5/3/3 12/3/6
f 3/2/2 13/2/7 4/2/2
f 13/2/7 3/2/2 14/2/7
f 16/1/8 14/2/7 15/1/8
f 14/2/7 16/1/8 13/2/7
f 9/4/5 11/3/6 12/3/6
f 11/3/6 9/4/5 10/4/5
f 8/4/4 15/1/8 6/4/4
f 15/1/8 8/4/4 16/1/8
f 4/2/9 10/4/9 2/1/9
f 10/4/9 4/2/9 11/3/9
f 11/3/9 4/2/9 13/2/9
f 11/3/9 13/2/9 7/3/9
f 7/3/9 13/2/9 16/1/9
f 7/3/9 16/1/9 8/4/9
f 12/3/10 1/1/10 9/4/10
f 1/1/10 12/3/10 3/2/10
f 3/2/10 12/3/10 5/3/10
f 3/2/10 5/3/10 14/2/10
f 14/2/10 5/3/10 6/4/10
f 14/2/10 6/4/10 15/1/10
f 19/2/9 18/4/9 17/1/9
f 18/4/9 19/2/9 20/3/9
f 20/3/9 19/2/9 21/2/9
f 20/3/9 21/2/9 22/3/9
f 22/3/9 21/2/9 23/1/9
f 22/3/9 23/1/9 24/4/9
f 26/2/2 17/1/1 25/1/1
f 17/1/1 26/2/2 19/2/2
f 28/3/10 25/1/10 27/4/10
f 25/1/10 28/3/10 26/2/10
f 26/2/10 28/3/10 29/3/10
f 26/2/10 29/3/10 30/2/10
f 30/2/10 29/3/10 31/4/10
f 30/2/10 31/4/10 32/1/10
f 22/3/3 31/4/4 29/3/3
f 31/4/4 22/3/3 24/4/4
f 26/2/2 21/2/7 19/2/2
f 21/2/7 26/2/2 30/2/7
f 29/3/3 20/3/6 22/3/3
f 20/3/6 29/3/3 28/3/6
f 25/1/1 18/4/5 27/4/5
f 18/4/5 25/1/1 17/1/1
f 23/1/8 30/2/7 32/1/8
f 30/2/7 23/1/8 21/2/7
f 24/4/4 32/1/8 31/4/4
f 32/1/8 24/4/4 23/1/8
f 27/4/5 20/3/6 28/3/6
f 20/3/6 27/4/5 18/4/5
f 35/6/13 34/6/12 33/5/11
f 38/6/16 37/5/15 36/6/14
f 41/5/19 40/6/18 39/6/17
f 44/6/22 43/6/21 42/5/20
f 43/6/25 46/2/24 45/2/23
f 46/2/24 43/6/25 44/6/26
f 47/3/27 37/5/28 42/5/27
f 37/5/28 47/3/27 48/3/28
f 40/6/31 50/2/30 49/2/29
f 50/2/30 40/6/31 34/6/32
f 41/5/19 34/6/12 40/6/18
f 34/6/12 41/5/19 33/5/11
f 51/2/35 38/6/34 36/6/33
f 38/6/34 51/2/35 52/2/36
f 46/2/37 53/2/37 45/2/37
f 53/2/37 46/2/37 50/2/37
f 50/2/37 46/2/37 52/2/37
f 50/2/37 52/2/37 49/2/37
f 49/2/37 52/2/37 51/2/37
f 49/2/37 51/2/37 54/2/37
f 36/6/14 41/5/19 39/6/17
f 41/5/19 36/6/14 37/5/15
f 54/2/38 40/6/31 49/2/29
f 40/6/31 54/2/38 39/6/39
f 42/5/20 38/6/16 44/6/22
f 38/6/16 42/5/20 37/5/15
f 44/6/26 52/2/36 46/2/24
f 52/2/36 44/6/26 38/6/34
f 55/3/40 33/5/41 41/5/40
f 33/5/41 55/3/40 56/3/41
f 47/3/27 33/5/41 56/3/41
f 33/5/41 47/3/27 42/5/27
f 34/6/32 53/2/42 50/2/30
f 53/2/42 34/6/32 35/6/43
f 51/2/35 39/6/39 54/2/38
f 39/6/39 51/2/35 36/6/33
f 35/6/43 45/2/23 53/2/42
f 45/2/23 35/6/43 43/6/25
f 55/3/44 47/3/44 56/3/44
f 47/3/44 55/3/44 48/3/44
f 37/5/28 55/3/40 41/5/40
f 55/3/40 37/5/28 48/3/28
f 42/5/20 35/6/13 33/5/11
f 35/6/13 42/5/20 43/6/21
f 59/8/45 58/7/46 57/7/45
f 58/7/46 59/8/45 60/8/46
f 63/8/47 62/7/48 61/7/47
f 62/7/48 63/8/47 64/8/48
f 66/8/49 57/7/45 65/7/49
f 57/7/45 66/8/49 59/8/45
f 58/7/46 68/8/50 67/7/50
f 68/8/50 58/7/46 60/8/46
f 65/7/37 70/7/37 69/7/37
f 70/7/37 65/7/37 71/7/37
f 71/7/37 65/7/37 57/7/37
f 71/7/37 57/7/37 62/7/37
f 62/7/37 57/7/37 58/7/37
f 62/7/37 58/7/37 61/7/37
f 61/7/37 58/7/37 72/7/37
f 72/7/37 58/7/37 67/7/37
f 72/7/37 67/7/37 73/7/37
f 72/7/37 73/7/37 74/7/37
f 72/7/51 63/8/47 61/7/47
f 63/8/47 72/7/51 75/8/51
f 78/8/44 77/8/44 76/8/44
f 77/8/44 78/8/44 66/8/44
f 66/8/44 78/8/44 64/8/44
f 66/8/44 64/8/44 59/8/44
f 59/8/44 64/8/44 60/8/44
f 60/8/44 64/8/44 63/8/44
f 60/8/44 63/8/44 75/8/44
f 60/8/44 75/8/44 68/8/44
f 68/8/44 75/8/44 79/8/44
f 68/8/44 79/8/44 80/8/44
f 64/8/48 71/7/52 62/7/48
f 71/7/52 64/8/48 78/8/52
f 77/8/9 70/7/9 76/8/9
f 70/7/9 77/8/9 69/7/9
f 78/8/53 70/7/53 71/7/53
f 70/7/53 78/8/53 76/8/53
f 77/8/54 65/7/54 69/7/54
f 65/7/54 77/8/54 66/8/54
f 73/7/10 79/8/10 74/7/10
f 79/8/10 73/7/10 80/8/10
f 68/8/54 73/7/54 67/7/54
f 73/7/54 68/8/54 80/8/54
f 79/8/53 72/7/53 74/7/53
f 72/7/53 79/8/53 75/8/53
f 83/10/55 82/9/56 81/9/55
f 82/9/56 83/10/55 84/10/56
f 87/10/57 86/9/58 85/9/57
f 86/9/58 87/10/57 88/10/58
f 90/10/59 85/9/57 89/9/59
f 85/9/57 90/10/59 87/10/57
f 89/9/59 91/10/60 90/10/59
f 91/10/60 89/9/59 92/9/60
f 93/9/61 83/10/55 81/9/55
f 83/10/55 93/9/61 94/10/61
f 94/10/61 96/9/62 95/10/62
f 96/9/62 94/10/61 93/9/61
f 90/10/65 98/11/64 97/11/63
f 98/11/64 90/10/65 91/10/66
f 101/12/55 100/11/56 99/11/55
f 100/11/56 101/12/55 102/12/56
f 105/12/57 104/11/58 103/11/57
f 104/11/58 105/12/57 106/12/58
f 107/11/69 83/10/68 94/10/67
f 83/10/68 107/11/69 99/11/70
f 99/11/70 84/10/71 83/10/68
f 84/10/71 99/11/70 100/11/72
f 104/11/75 95/10/74 88/10/73
f 95/10/74 104/11/75 108/11/76
f 107/11/69 95/10/74 108/11/76
f 95/10/74 107/11/69 94/10/67
f 104/11/58 109/12/62 108/11/62
f 109/12/62 104/11/58 106/12/58
f 103/11/78 88/10/73 87/10/77
f 88/10/73 103/11/78 104/11/75
f 84/10/71 98/11/64 91/10/66
f 98/11/64 84/10/71 100/11/72
f 110/12/59 103/11/57 97/11/59
f 103/11/57 110/12/59 105/12/57
f 98/11/60 110/12/59 97/11/59
f 110/12/59 98/11/60 111/12/60
f 86/9/58 95/10/62 96/9/62
f 95/10/62 86/9/58 88/10/58
f 100/11/56 111/12/60 98/11/60
f 111/12/60 100/11/56 102/12/56
f 112/12/61 99/11/55 107/11/61
f 99/11/55 112/12/61 101/12/55
f 109/12/62 107/11/61 108/11/62
f 107/11/61 109/12/62 112/12/61
f 81/9/79 96/9/79 93/9/79
f 96/9/79 81/9/79 86/9/79
f 86/9/79 81/9/79 82/9/79
f 86/9/79 82/9/79 85/9/79
f 85/9/79 82/9/79 92/9/79
f 85/9/79 92/9/79 89/9/79
f 84/10/56 92/9/60 82/9/56
f 92/9/60 84/10/56 91/10/60
f 97/11/63 87/10/77 90/10/65
f 87/10/77 97/11/63 103/11/78
f 115/10/55 114/9/56 113/9/55
f 114/9/56 115/10/55 116/10/56
f 119/10/57 118/9/58 117/9/57
f 118/9/58 119/10/57 120/10/58
f 122/10/59 117/9/57 121/9/59
f 117/9/57 122/10/59 119/10/57
f 123/9/60 122/10/59 121/9/59
f 122/10/59 123/9/60 124/10/60
f 125/9/61 115/10/55 113/9/55
f 115/10/55 125/9/61 126/10/61
f 126/10/61 128/9/62 127/10/62
f 128/9/62 126/10/61 125/9/61
f 122/10/65 130/11/64 129/11/63
f 130/11/64 122/10/65 124/10/66
f 133/12/55 132/11/56 131/11/55
f 132/11/56 133/12/55 134/12/56
f 137/12/57 136/11/58 135/11/57
f 136/11/58 137/12/57 138/12/58
f 139/11/69 115/10/68 126/10/67
f 115/10/68 139/11/69 131/11/70
f 131/11/70 116/10/71 115/10/68
f 116/10/71 131/11/70 132/11/72
f 136/11/75 127/10/74 120/10/73
f 127/10/74 136/11/75 140/11/76
f 139/11/69 127/10/74 140/11/76
f 127/10/74 139/11/69 126/10/67
f 138/12/58 140/11/62 136/11/58
f 140/11/62 138/12/58 141/12/62
f 135/11/78 120/10/73 119/10/77
f 120/10/73 135/11/78 136/11/75
f 132/11/72 124/10/66 116/10/71
f 124/10/66 132/11/72 130/11/64
f 142/12/59 135/11/57 129/11/59
f 135/11/57 142/12/59 137/12/57
f 130/11/60 142/12/59 129/11/59
f 142/12/59 130/11/60 143/12/60
f 118/9/58 127/10/62 128/9/62
f 127/10/62 118/9/58 120/10/58
f 132/11/56 143/12/60 130/11/60
f 143/12/60 132/11/56 134/12/56
f 144/12/61 131/11/55 139/11/61
f 131/11/55 144/12/61 133/12/55
f 141/12/62 139/11/61 140/11/62
f 139/11/61 141/12/62 144/12/61
f 113/9/79 128/9/79 125/9/79
f 128/9/79 113/9/79 118/9/79
f 118/9/79 113/9/79 114/9/79
f 118/9/79 114/9/79 117/9/79
f 117/9/79 114/9/79 123/9/79
f 117/9/79 123/9/79 121/9/79
f 116/10/56 123/9/60 114/9/56
f 123/9/60 116/10/56 124/10/60
f 122/10/65 135/11/78 119/10/77
f 135/11/78 122/10/65 129/11/63
f 106/13/80 112/13/80 109/13/80
f 112/13/80 106/13/80 101/13/80
f 101/13/80 106/13/80 105/13/80
f 101/13/80 105/13/80 102/13/80
f 102/13/80 105/13/80 110/13/80
f 102/13/80 110/13/80 111/13/80
f 138/13/80 144/13/80 141/13/80
f 144/13/80 138/13/80 133/13/80
f 133/13/80 138/13/80 137/13/80
f 133/13/80 137/13/80 134/13/80
f 134/13/80 137/13/80 142/13/80
f 134/13/80 142/13/80 143/13/80

