# Created by Kenney (www.kenney.nl)

mtllib overhead-arch-sign.mtl

g overhead-arch-sign

v 0.975 2.3 0.71875 1 1 1
v 0.975 2.3 0.76875 1 1 1
v -0.975 2.3 0.71875 1 1 1
v -0.975 2.3 0.76875 1 1 1
v 0.975 1.8 0.76875 1 1 1
v 0.975 1.8 0.71875 1 1 1
v -0.975 1.8 0.76875 1 1 1
v -0.975 1.8 0.71875 1 1 1
v -1 1.825 0.71875 1 1 1
v -1 2.275 0.71875 1 1 1
v -1 1.825 0.76875 1 1 1
v -1 2.275 0.76875 1 1 1
v 1 2.275 0.71875 1 1 1
v 1 1.825 0.71875 1 1 1
v 1 2.275 0.76875 1 1 1
v 1 1.825 0.76875 1 1 1
v 1.08979 1.630986 0.61875 1 1 1
v 1.08979 1.630986 -0.61875 1 1 1
v 0.7653669 1.847759 0.61875 1 1 1
v 0.7653669 1.847759 -0.61875 1 1 1
v 2.318749 0.9604572 0.61875 1 1 1
v 2.046721 1.367575 0.61875 1 1 1
v 2.554244 1.058002 0.36875 1 1 1
v 2.254589 1.506468 0.36875 1 1 1
v -0.9604571 2.318749 0.61875 1 1 1
v -1.058002 2.554244 0.36875 1 1 1
v -0.4802286 2.414272 0.61875 1 1 1
v -0.5290012 2.659469 0.36875 1 1 1
v -2.318749 0.9604572 0.61875 1 1 1
v -2.554244 1.058002 0.36875 1 1 1
v -2.046721 1.367575 0.61875 1 1 1
v -2.254589 1.506468 0.36875 1 1 1
v -2.554244 1.058002 -0.36875 1 1 1
v -2.254589 1.506468 -0.36875 1 1 1
v -2.318749 0.9604572 -0.61875 1 1 1
v -2.046721 1.367575 -0.61875 1 1 1
v 0.9604571 2.318749 0.61875 1 1 1
v 0.4802286 2.414272 0.61875 1 1 1
v 1.058002 2.554244 0.36875 1 1 1
v 0.5290012 2.659469 0.36875 1 1 1
v -0.5290012 2.659469 -0.36875 1 1 1
v -1.058002 2.554244 -0.36875 1 1 1
v -0.9604571 2.318749 -0.61875 1 1 1
v -0.4802286 2.414272 -0.61875 1 1 1
v 1.367575 2.046721 -0.61875 1 1 1
v 1.506468 2.254589 -0.36875 1 1 1
v 0.9604571 2.318749 -0.61875 1 1 1
v 1.058002 2.554244 -0.36875 1 1 1
v 2.554244 1.058002 -0.36875 1 1 1
v 2.659468 0.5290012 -0.36875 1 1 1
v 2.659468 0.5290012 0.36875 1 1 1
v 1.506468 2.254589 0.36875 1 1 1
v 2.414272 0.4802286 -0.61875 1 1 1
v 2.318749 0.9604572 -0.61875 1 1 1
v 1.923879 0.3826834 -0.61875 1 1 1
v 1.847759 0.7653669 -0.61875 1 1 1
v 1.923879 0.3826834 0.61875 1 1 1
v 1.847759 0.7653669 0.61875 1 1 1
v 2.414272 0.4802286 0.61875 1 1 1
v 1.630986 1.08979 0.61875 1 1 1
v 1.367575 2.046721 0.61875 1 1 1
v 0.3826834 1.92388 0.61875 1 1 1
v -1.923879 0.3826834 0.61875 1 1 1
v -2.414272 0.4802286 0.61875 1 1 1
v -1.847759 0.7653669 0.61875 1 1 1
v -1.630986 1.08979 0.61875 1 1 1
v -0.3826834 1.92388 0.61875 1 1 1
v -0.3826834 1.92388 -0.61875 1 1 1
v -0.7653669 1.847759 0.61875 1 1 1
v -0.7653669 1.847759 -0.61875 1 1 1
v -1.630986 1.08979 -0.61875 1 1 1
v -1.847759 0.7653669 -0.61875 1 1 1
v 1.630986 1.08979 -0.61875 1 1 1
v 2.046721 1.367575 -0.61875 1 1 1
v -2.414272 0.4802286 -0.61875 1 1 1
v -2.659468 0.5290012 -0.36875 1 1 1
v 0.4802286 2.414272 -0.61875 1 1 1
v 0.5290012 2.659469 -0.36875 1 1 1
v -1.08979 1.630986 0.61875 1 1 1
v -1.367575 2.046721 0.61875 1 1 1
v -1.367575 2.046721 -0.61875 1 1 1
v -1.506468 2.254589 -0.36875 1 1 1
v 2.254589 1.506468 -0.36875 1 1 1
v -2.659468 0.5290012 0.36875 1 1 1
v -1.506468 2.254589 0.36875 1 1 1
v 0.3826834 1.92388 -0.61875 1 1 1
v -1.923879 0.3826834 -0.61875 1 1 1
v -1.08979 1.630986 -0.61875 1 1 1
v -1.774693 1.774693 0.61875 1 1 1
v -1.954933 1.954933 0.36875 1 1 1
v 2 1.28127E-16 0.61875 1 1 1
v 2.509796 1.843821E-16 0.61875 1 1 1
v 2.414272 0.4802286 0.61875 1 1 1
v -1.774693 1.774693 -0.61875 1 1 1
v -1.954933 1.954933 -0.36875 1 1 1
v 1.774693 1.774693 0.61875 1 1 1
v 1.954933 1.954933 0.36875 1 1 1
v 2.764693 1.78829E-16 0.36875 1 1 1
v -2.509796 1.768622E-16 0.61875 1 1 1
v -2.764693 1.78829E-16 0.36875 1 1 1
v -2.414272 0.4802286 0.61875 1 1 1
v 0.5290012 2.659468 -0.36875 1 1 1
v 0.5290012 2.659468 0.36875 1 1 1
v -1.443823E-15 2.764693 -0.36875 1 1 1
v 0 2.764693 0.36875 1 1 1
v 0.4802286 2.414272 -0.61875 1 1 1
v -1.443823E-15 2.509796 -0.61875 1 1 1
v 1.630986 1.08979 -0.61875 1 1 1
v 1.414214 1.414214 -0.61875 1 1 1
v 1.630986 1.08979 0.61875 1 1 1
v 1.414214 1.414214 0.61875 1 1 1
v 1.954933 1.954933 -0.36875 1 1 1
v 2.254589 1.506468 -0.36875 1 1 1
v 2.254589 1.506468 0.36875 1 1 1
v 1.774693 1.774693 -0.61875 1 1 1
v -2.509796 1.052787E-16 -0.61875 1 1 1
v -2.414272 0.4802286 -0.61875 1 1 1
v -2.764693 1.333915E-16 -0.36875 1 1 1
v 1.08979 1.630986 0.61875 1 1 1
v -1.08979 1.630986 0.61875 1 1 1
v -1.08979 1.630986 -0.61875 1 1 1
v -1.414214 1.414214 0.61875 1 1 1
v -1.414214 1.414214 -0.61875 1 1 1
v -2 1.28127E-16 0.61875 1 1 1
v 0.3826834 1.923879 0.61875 1 1 1
v 0.3826834 1.923879 -0.61875 1 1 1
v 0 2 0.61875 1 1 1
v 0 2 -0.61875 1 1 1
v -1.630986 1.08979 0.61875 1 1 1
v -2 3.007964E-17 -0.61875 1 1 1
v 0.4802286 2.414272 0.61875 1 1 1
v -0.4802286 2.414272 0.61875 1 1 1
v 0 2.509796 0.61875 1 1 1
v -0.3826834 1.923879 0.61875 1 1 1
v 2.509796 0 -0.61875 1 1 1
v 2.414272 0.4802286 -0.61875 1 1 1
v 2 3.007964E-17 -0.61875 1 1 1
v 1.08979 1.630986 -0.61875 1 1 1
v -2.254589 1.506468 -0.36875 1 1 1
v -0.4802286 2.414272 -0.61875 1 1 1
v -0.5290012 2.659468 -0.36875 1 1 1
v 2.764693 2.059289E-17 -0.36875 1 1 1
v -2.254589 1.506468 0.36875 1 1 1
v -1.630986 1.08979 -0.61875 1 1 1
v -0.3826834 1.923879 -0.61875 1 1 1
v -0.5290012 2.659468 0.36875 1 1 1
v 1 2.275 0.61875 1 1 1
v 1 1.825 0.61875 1 1 1
v 0.975 2.3 0.61875 1 1 1
v -0.975 2.3 0.61875 1 1 1
v 0.975 1.8 0.61875 1 1 1
v -0.975 1.8 0.61875 1 1 1
v -1 1.825 0.61875 1 1 1
v -1 2.275 0.61875 1 1 1

vn 0.3826834 0.9238795 0
vn -0.3826834 0.9238795 0
vn 0.3826834 -0.9238795 0
vn -0.3826834 -0.9238795 0
vn -0.9238795 -0.3826834 0
vn -0.9238795 0.3826834 0
vn 0.9238795 0.3826834 0
vn 0.9238795 -0.3826834 0
vn 0 0 1
vn -0.5555702 -0.8314696 0
vn 0.3854666 0.1596655 0.9088027
vn 0.3181897 0.2126075 0.9238795
vn 0.8579547 0.3553765 0.3709733
vn 0.7681777 0.51328 0.3826834
vn -0.1596655 0.3854666 0.9088027
vn -0.3553765 0.8579547 0.3709733
vn -0.07465784 0.3753303 0.9238795
vn -0.18024 0.9061275 0.3826834
vn -0.3854666 0.1596655 0.9088027
vn -0.8579547 0.3553765 0.3709733
vn -0.3181897 0.2126075 0.9238795
vn -0.7681777 0.51328 0.3826834
vn -0.8579547 0.3553765 -0.3709733
vn -0.7681777 0.51328 -0.3826834
vn -0.3854666 0.1596655 -0.9088027
vn -0.3181897 0.2126075 -0.9238795
vn 0.1596655 0.3854666 0.9088027
vn 0.07465784 0.3753303 0.9238795
vn 0.3553765 0.8579547 0.3709733
vn 0.18024 0.9061275 0.3826834
vn -0.18024 0.9061275 -0.3826834
vn -0.3553765 0.8579547 -0.3709733
vn -0.1596655 0.3854666 -0.9088027
vn -0.07465784 0.3753303 -0.9238795
vn 0.2126075 0.3181897 -0.9238795
vn 0.51328 0.7681777 -0.3826834
vn 0.1596655 0.3854666 -0.9088027
vn 0.3553765 0.8579547 -0.3709733
vn 0.8579547 0.3553765 -0.3709733
vn 0.9061275 0.18024 -0.3826834
vn 0.9061275 0.18024 0.3826834
vn 0.51328 0.7681777 0.3826834
vn 0.3753303 0.07465784 -0.9238795
vn 0.3854666 0.1596655 -0.9088027
vn -0.9807853 -0.1950903 0
vn 0.3753303 0.07465784 0.9238795
vn 0.2126075 0.3181897 0.9238795
vn -0.3753303 0.07465784 0.9238795
vn 0.1950903 -0.9807853 0
vn 0.8314696 -0.5555702 0
vn 0 0 -1
vn 0.3181897 0.2126075 -0.9238795
vn -0.3753303 0.07465784 -0.9238795
vn -0.9061275 0.18024 -0.3826834
vn 0.07465784 0.3753303 -0.9238795
vn 0.18024 0.9061275 -0.3826834
vn -0.2126075 0.3181897 0.9238795
vn -0.2126075 0.3181897 -0.9238795
vn -0.51328 0.7681777 -0.3826834
vn 0.7681777 0.51328 -0.3826834
vn -0.9061275 0.18024 0.3826834
vn -0.51328 0.7681777 0.3826834
vn -0.1950903 -0.9807853 0
vn 0.9807853 -0.1950903 0
vn -0.8314696 -0.5555702 0
vn 0.5555702 -0.8314696 0
vn -0.2950234 0.2950234 0.9088028
vn -0.6566502 0.6566502 0.3709733
vn 0.4157966 0.08270708 0.9056892
vn -0.2950234 0.2950234 -0.9088028
vn -0.6566502 0.6566502 -0.3709733
vn 0.2950234 0.2950234 0.9088028
vn 0.6566502 0.6566502 0.3709733
vn 0.9131947 0.1816457 0.3648019
vn -0.4157966 0.08270708 0.9056892
vn -0.9131947 0.1816457 0.3648019
vn 0 0.9286435 -0.3709733
vn 0 0.9286435 0.3709733
vn 0 0.417226 -0.9088027
vn -0.7071068 -0.7071068 0
vn 0.6566502 0.6566502 -0.3709733
vn 0.2950234 0.2950234 -0.9088028
vn -0.4157966 0.08270708 -0.9056892
vn -0.9131947 0.1816457 -0.3648019
vn 0.7071068 -0.7071068 0
vn 0 -1 0
vn 0 0.417226 0.9088027
vn 0.4157966 0.08270708 -0.9056892
vn 0.9131947 0.1816457 -0.3648019
vn 0.9238796 0.3826835 0
vn 0.9238796 -0.3826835 0
vn 0.3826835 0.9238796 0
vn -0.3826835 0.9238796 0
vn 0.3826835 -0.9238796 0
vn -0.3826835 -0.9238796 0
vn -0.9238796 -0.3826835 0
vn -0.9238796 0.3826835 0

vt 0.34375 0.225
vt 0.34375 0.025
vt 0.34375 0.035
vt 0.34375 0.215
vt 0.21875 0.06886194
vt 0.21875 0.07647875
vt 0.21875 0.04530139
vt 0.21875 0.05960641
vt 0.21875 0.04872886
vt 0.21875 0.0644867
vt 0.21875 0.09302804
vt 0.21875 0.1013027
vt 0.21875 0.09638447
vt 0.21875 0.105
vt 0.21875 0.08346973
vt 0.21875 0.09077362
vt 0.21875 0.0301412
vt 0.21875 0.02842747
vt 0.21875 0.025
vt 0.21875 0.03844645
vt 0.21875 0.0498458
vt 0.21875 0.07915341
vt 0.21875 0.1391913
vt 0.21875 0.1457107
vt 0.21875 0.1490307
vt 0.21875 0.1565493
vt 0.21875 0.075
vt 0.21875 0.0888418
vt 0.21875 0.09237004
vt 0.21875 0.09413417
vt 0.21875 0.171194
vt 0.21875 0.175
vt 0.21875 0.1623251
vt 0.21875 0.1657803
vt 0.21875 0.1144181
vt 0.21875 0.1261526
vt 0.21875 0.1294895
vt 0.21875 0.1244657
vt 0.21875 0.1339934
vt 0.21875 0.1445874
vt 0.21875 0.1473407
vt 0.21875 0.17
vt 0.21875 0.08

usemtl colormap

f 3/1/2 2/1/1 1/1/1
f 2/1/1 3/1/2 4/1/2
f 7/2/4 6/2/3 5/2/3
f 6/2/3 7/2/4 8/2/4
f 11/3/5 10/4/6 9/3/5
f 10/4/6 11/3/5 12/4/6
f 15/4/7 14/3/8 13/4/7
f 14/3/8 15/4/7 16/3/8
f 2/1/1 13/4/7 1/1/1
f 13/4/7 2/1/1 15/4/7
f 7/2/4 9/3/5 8/2/4
f 9/3/5 7/2/4 11/3/5
f 12/4/6 3/1/2 10/4/6
f 3/1/2 12/4/6 4/1/2
f 16/3/8 6/2/3 14/3/8
f 6/2/3 16/3/8 5/2/3
f 16/3/9 7/2/9 5/2/9
f 7/2/9 16/3/9 11/3/9
f 11/3/9 16/3/9 15/4/9
f 11/3/9 15/4/9 12/4/9
f 12/4/9 15/4/9 2/1/9
f 12/4/9 2/1/9 4/1/9
f 19/6/4 18/5/10 17/5/10
f 18/5/10 19/6/4 20/6/4
f 23/9/13 22/8/12 21/7/11
f 22/8/12 23/9/13 24/10/14
f 27/13/17 26/12/16 25/11/15
f 26/12/16 27/13/17 28/14/18
f 31/8/21 30/9/20 29/7/19
f 30/9/20 31/8/21 32/10/22
f 30/9/20 34/10/24 33/9/23
f 34/10/24 30/9/20 32/10/22
f 33/9/23 36/8/26 35/7/25
f 36/8/26 33/9/23 34/10/24
f 39/12/29 38/13/28 37/11/27
f 38/13/28 39/12/29 40/14/30
f 42/12/32 28/14/18 41/14/31
f 28/14/18 42/12/32 26/12/16
f 42/12/32 44/13/34 43/11/33
f 44/13/34 42/12/32 41/14/31
f 47/11/37 46/16/36 45/15/35
f 46/16/36 47/11/37 48/12/38
f 23/9/13 50/17/40 49/9/39
f 50/17/40 23/9/13 51/17/41
f 48/12/38 52/16/42 46/16/36
f 52/16/42 48/12/38 39/12/29
f 54/7/44 50/17/40 53/18/43
f 50/17/40 54/7/44 49/9/39
f 57/19/45 56/20/5 55/19/45
f 56/20/5 57/19/45 58/20/5
f 59/18/46 58/20/9 57/19/9
f 58/20/9 59/18/46 21/7/11
f 58/20/9 21/7/11 60/21/9
f 60/21/9 21/7/11 22/8/12
f 61/15/47 19/6/9 17/5/9
f 19/6/9 61/15/47 62/22/9
f 62/22/9 61/15/47 38/13/28
f 38/13/28 61/15/47 37/11/27
f 65/20/9 64/18/48 63/19/9
f 64/18/48 65/20/9 29/7/19
f 29/7/19 65/20/9 66/21/9
f 29/7/19 66/21/9 31/8/21
f 69/6/3 68/22/49 67/22/49
f 68/22/49 69/6/3 70/6/3
f 66/21/50 72/20/8 71/21/50
f 72/20/8 66/21/50 65/20/8
f 56/20/51 53/18/43 55/19/51
f 53/18/43 56/20/51 54/7/44
f 54/7/44 56/20/51 73/21/51
f 54/7/44 73/21/51 74/8/52
f 76/17/54 35/7/25 75/18/53
f 35/7/25 76/17/54 33/9/23
f 77/13/55 48/12/38 47/11/37
f 48/12/38 77/13/55 78/14/56
f 69/6/9 80/15/57 79/5/9
f 80/15/57 69/6/9 67/22/9
f 80/15/57 67/22/9 27/13/17
f 80/15/57 27/13/17 25/11/15
f 82/16/59 43/11/33 81/15/58
f 43/11/33 82/16/59 42/12/32
f 51/17/41 21/7/11 59/18/46
f 21/7/11 51/17/41 23/9/13
f 52/16/42 37/11/27 61/15/47
f 37/11/27 52/16/42 39/12/29
f 74/8/52 49/9/39 54/7/44
f 49/9/39 74/8/52 83/10/60
f 29/7/19 84/17/61 64/18/48
f 84/17/61 29/7/19 30/9/20
f 25/11/15 85/16/62 80/15/57
f 85/16/62 25/11/15 26/12/16
f 20/6/51 45/15/35 18/5/51
f 45/15/35 20/6/51 86/22/51
f 45/15/35 86/22/51 77/13/55
f 45/15/35 77/13/55 47/11/37
f 75/18/53 72/20/51 87/19/51
f 72/20/51 75/18/53 35/7/25
f 72/20/51 35/7/25 71/21/51
f 71/21/51 35/7/25 36/8/26
f 81/15/58 70/6/51 88/5/51
f 70/6/51 81/15/58 68/22/51
f 68/22/51 81/15/58 44/13/34
f 44/13/34 81/15/58 43/11/33
f 82/16/59 26/12/16 42/12/32
f 26/12/16 82/16/59 85/16/62
f 24/10/14 49/9/39 83/10/60
f 49/9/39 24/10/14 23/9/13
f 62/22/63 20/6/4 19/6/4
f 20/6/4 62/22/63 86/22/63
f 65/20/8 87/19/64 72/20/8
f 87/19/64 65/20/8 63/19/64
f 58/20/5 73/21/65 56/20/5
f 73/21/65 58/20/5 60/21/65
f 78/14/56 39/12/29 48/12/38
f 39/12/29 78/14/56 40/14/30
f 84/17/61 33/9/23 76/17/54
f 33/9/23 84/17/61 30/9/20
f 79/5/66 70/6/3 69/6/3
f 70/6/3 79/5/66 88/5/66
f 80/25/57 90/24/68 89/23/67
f 90/24/68 80/25/57 85/26/62
f 92/27/69 57/28/9 91/27/9
f 57/28/9 92/27/69 93/29/46
f 95/24/71 81/25/58 94/23/70
f 81/25/58 95/24/71 82/26/59
f 95/24/71 85/26/62 82/26/59
f 85/26/62 95/24/71 90/24/68
f 97/24/73 61/25/47 96/23/72
f 61/25/47 97/24/73 52/26/42
f 51/30/41 92/27/69 98/27/74
f 92/27/69 51/30/41 93/29/46
f 101/29/48 100/27/76 99/27/75
f 100/27/76 101/29/48 84/30/61
f 104/32/77 103/31/30 102/31/56
f 103/31/30 104/32/77 105/32/78
f 107/34/79 102/31/56 106/33/55
f 102/31/56 107/34/79 104/32/77
f 110/35/65 109/36/80 108/35/65
f 109/36/80 110/35/65 111/36/80
f 97/24/73 113/37/60 112/24/81
f 113/37/60 97/24/73 114/37/14
f 115/23/82 113/37/60 74/38/52
f 113/37/60 115/23/82 112/24/81
f 118/27/84 117/29/53 116/27/83
f 117/29/53 118/27/84 76/30/54
f 100/27/76 76/30/54 118/27/84
f 76/30/54 100/27/76 84/30/61
f 22/38/12 111/36/9 110/35/9
f 111/36/9 22/38/12 96/23/72
f 111/36/9 96/23/72 119/39/9
f 119/39/9 96/23/72 61/25/47
f 122/36/85 121/39/66 120/39/66
f 121/39/66 122/36/85 123/36/85
f 63/28/9 99/27/75 124/27/9
f 99/27/75 63/28/9 101/29/48
f 127/41/86 126/40/63 125/40/63
f 126/40/63 127/41/86 128/41/86
f 122/36/9 31/38/21 129/35/9
f 31/38/21 122/36/9 89/23/67
f 89/23/67 122/36/9 120/39/9
f 89/23/67 120/39/9 80/25/57
f 63/28/64 130/27/64 87/28/64
f 130/27/64 63/28/64 124/27/64
f 131/33/28 127/41/9 125/40/9
f 132/33/17 127/41/9 131/33/28
f 132/33/17 131/33/28 133/34/87
f 127/41/9 132/33/17 134/40/9
f 46/26/36 97/24/73 112/24/81
f 97/24/73 46/26/36 52/26/42
f 137/27/51 136/29/43 135/27/88
f 136/29/43 137/27/51 55/28/51
f 109/36/51 74/38/52 108/35/51
f 74/38/52 109/36/51 115/23/82
f 115/23/82 109/36/51 138/39/51
f 115/23/82 138/39/51 45/25/35
f 116/27/83 87/28/51 130/27/51
f 87/28/51 116/27/83 117/29/53
f 139/37/24 94/23/70 36/38/26
f 94/23/70 139/37/24 95/24/71
f 141/31/31 107/34/79 140/33/34
f 107/34/79 141/31/31 104/32/77
f 136/29/43 142/27/89 135/27/88
f 142/27/89 136/29/43 50/30/40
f 89/23/67 143/37/22 31/38/21
f 143/37/22 89/23/67 90/24/68
f 36/38/26 123/36/51 144/35/51
f 123/36/51 36/38/26 94/23/70
f 123/36/51 94/23/70 121/39/51
f 121/39/51 94/23/70 81/25/58
f 140/33/34 128/41/51 145/40/51
f 106/33/55 128/41/51 140/33/34
f 106/33/55 140/33/34 107/34/79
f 128/41/51 106/33/55 126/40/51
f 45/25/35 112/24/81 115/23/82
f 112/24/81 45/25/35 46/26/36
f 103/31/30 133/34/87 131/33/28
f 133/34/87 103/31/30 105/32/78
f 92/27/86 142/27/86 98/27/86
f 142/27/86 92/27/86 135/27/86
f 135/27/86 92/27/86 91/27/86
f 135/27/86 91/27/86 137/27/86
f 133/34/87 146/31/18 132/33/17
f 146/31/18 133/34/87 105/32/78
f 114/37/14 96/23/72 22/38/12
f 96/23/72 114/37/14 97/24/73
f 99/27/86 130/27/86 124/27/86
f 130/27/86 99/27/86 116/27/86
f 116/27/86 99/27/86 118/27/86
f 118/27/86 99/27/86 100/27/86
f 104/32/77 146/31/18 105/32/78
f 146/31/18 104/32/77 141/31/31
f 134/40/49 128/41/86 127/41/86
f 128/41/86 134/40/49 145/40/49
f 51/30/41 142/27/89 50/30/40
f 142/27/89 51/30/41 98/27/74
f 122/36/85 144/35/50 123/36/85
f 144/35/50 122/36/85 129/35/50
f 143/37/22 95/24/71 139/37/24
f 95/24/71 143/37/22 90/24/68
f 119/39/10 109/36/80 111/36/80
f 109/36/80 119/39/10 138/39/10
f 91/27/45 55/28/45 137/27/45
f 55/28/45 91/27/45 57/28/45
f 13/42/90 148/43/91 147/42/90
f 148/43/91 13/42/90 14/43/91
f 150/32/93 1/32/92 149/32/92
f 1/32/92 150/32/93 3/32/93
f 8/27/95 151/27/94 6/27/94
f 151/27/94 8/27/95 152/27/95
f 9/43/96 154/42/97 153/43/96
f 154/42/97 9/43/96 10/42/97
f 10/42/97 150/32/93 154/42/97
f 150/32/93 10/42/97 3/32/93
f 1/32/92 147/42/90 149/32/92
f 147/42/90 1/32/92 13/42/90
f 14/43/91 151/27/94 148/43/91
f 151/27/94 14/43/91 6/27/94
f 8/27/95 153/43/96 152/27/95
f 153/43/96 8/27/95 9/43/96

g overhead-arch-sign




usemtl colormap

f 3/1/2 2/1/1 1/1/1
f 2/1/1 3/1/2 4/1/2
f 7/2/4 6/2/3 5/2/3
f 6/2/3 7/2/4 8/2/4
f 11/3/5 10/4/6 9/3/5
f 10/4/6 11/3/5 12/4/6
f 15/4/7 14/3/8 13/4/7
f 14/3/8 15/4/7 16/3/8
f 2/1/1 13/4/7 1/1/1
f 13/4/7 2/1/1 15/4/7
f 7/2/4 9/3/5 8/2/4
f 9/3/5 7/2/4 11/3/5
f 12/4/6 3/1/2 10/4/6
f 3/1/2 12/4/6 4/1/2
f 16/3/8 6/2/3 14/3/8
f 6/2/3 16/3/8 5/2/3
f 16/3/9 7/2/9 5/2/9
f 7/2/9 16/3/9 11/3/9
f 11/3/9 16/3/9 15/4/9
f 11/3/9 15/4/9 12/4/9
f 12/4/9 15/4/9 2/1/9
f 12/4/9 2/1/9 4/1/9
f 19/6/4 18/5/10 17/5/10
f 18/5/10 19/6/4 20/6/4
f 23/9/13 22/8/12 21/7/11
f 22/8/12 23/9/13 24/10/14
f 27/13/17 26/12/16 25/11/15
f 26/12/16 27/13/17 28/14/18
f 31/8/21 30/9/20 29/7/19
f 30/9/20 31/8/21 32/10/22
f 30/9/20 34/10/24 33/9/23
f 34/10/24 30/9/20 32/10/22
f 33/9/23 36/8/26 35/7/25
f 36/8/26 33/9/23 34/10/24
f 39/12/29 38/13/28 37/11/27
f 38/13/28 39/12/29 40/14/30
f 42/12/32 28/14/18 41/14/31
f 28/14/18 42/12/32 26/12/16
f 42/12/32 44/13/34 43/11/33
f 44/13/34 42/12/32 41/14/31
f 47/11/37 46/16/36 45/15/35
f 46/16/36 47/11/37 48/12/38
f 23/9/13 50/17/40 49/9/39
f 50/17/40 23/9/13 51/17/41
f 48/12/38 52/16/42 46/16/36
f 52/16/42 48/12/38 39/12/29
f 54/7/44 50/17/40 53/18/43
f 50/17/40 54/7/44 49/9/39
f 57/19/45 56/20/5 55/19/45
f 56/20/5 57/19/45 58/20/5
f 59/18/46 58/20/9 57/19/9
f 58/20/9 59/18/46 21/7/11
f 58/20/9 21/7/11 60/21/9
f 60/21/9 21/7/11 22/8/12
f 61/15/47 19/6/9 17/5/9
f 19/6/9 61/15/47 62/22/9
f 62/22/9 61/15/47 38/13/28
f 38/13/28 61/15/47 37/11/27
f 65/20/9 64/18/48 63/19/9
f 64/18/48 65/20/9 29/7/19
f 29/7/19 65/20/9 66/21/9
f 29/7/19 66/21/9 31/8/21
f 69/6/3 68/22/49 67/22/49
f 68/22/49 69/6/3 70/6/3
f 66/21/50 72/20/8 71/21/50
f 72/20/8 66/21/50 65/20/8
f 56/20/51 53/18/43 55/19/51
f 53/18/43 56/20/51 54/7/44
f 54/7/44 56/20/51 73/21/51
f 54/7/44 73/21/51 74/8/52
f 76/17/54 35/7/25 75/18/53
f 35/7/25 76/17/54 33/9/23
f 77/13/55 48/12/38 47/11/37
f 48/12/38 77/13/55 78/14/56
f 69/6/9 80/15/57 79/5/9
f 80/15/57 69/6/9 67/22/9
f 80/15/57 67/22/9 27/13/17
f 80/15/57 27/13/17 25/11/15
f 82/16/59 43/11/33 81/15/58
f 43/11/33 82/16/59 42/12/32
f 51/17/41 21/7/11 59/18/46
f 21/7/11 51/17/41 23/9/13
f 52/16/42 37/11/27 61/15/47
f 37/11/27 52/16/42 39/12/29
f 74/8/52 49/9/39 54/7/44
f 49/9/39 74/8/52 83/10/60
f 29/7/19 84/17/61 64/18/48
f 84/17/61 29/7/19 30/9/20
f 25/11/15 85/16/62 80/15/57
f 85/16/62 25/11/15 26/12/16
f 20/6/51 45/15/35 18/5/51
f 45/15/35 20/6/51 86/22/51
f 45/15/35 86/22/51 77/13/55
f 45/15/35 77/13/55 47/11/37
f 75/18/53 72/20/51 87/19/51
f 72/20/51 75/18/53 35/7/25
f 72/20/51 35/7/25 71/21/51
f 71/21/51 35/7/25 36/8/26
f 81/15/58 70/6/51 88/5/51
f 70/6/51 81/15/58 68/22/51
f 68/22/51 81/15/58 44/13/34
f 44/13/34 81/15/58 43/11/33
f 82/16/59 26/12/16 42/12/32
f 26/12/16 82/16/59 85/16/62
f 24/10/14 49/9/39 83/10/60
f 49/9/39 24/10/14 23/9/13
f 62/22/63 20/6/4 19/6/4
f 20/6/4 62/22/63 86/22/63
f 65/20/8 87/19/64 72/20/8
f 87/19/64 65/20/8 63/19/64
f 58/20/5 73/21/65 56/20/5
f 73/21/65 58/20/5 60/21/65
f 78/14/56 39/12/29 48/12/38
f 39/12/29 78/14/56 40/14/30
f 84/17/61 33/9/23 76/17/54
f 33/9/23 84/17/61 30/9/20
f 79/5/66 70/6/3 69/6/3
f 70/6/3 79/5/66 88/5/66
f 80/25/57 90/24/68 89/23/67
f 90/24/68 80/25/57 85/26/62
f 92/27/69 57/28/9 91/27/9
f 57/28/9 92/27/69 93/29/46
f 95/24/71 81/25/58 94/23/70
f 81/25/58 95/24/71 82/26/59
f 95/24/71 85/26/62 82/26/59
f 85/26/62 95/24/71 90/24/68
f 97/24/73 61/25/47 96/23/72
f 61/25/47 97/24/73 52/26/42
f 51/30/41 92/27/69 98/27/74
f 92/27/69 51/30/41 93/29/46
f 101/29/48 100/27/76 99/27/75
f 100/27/76 101/29/48 84/30/61
f 104/32/77 103/31/30 102/31/56
f 103/31/30 104/32/77 105/32/78
f 107/34/79 102/31/56 106/33/55
f 102/31/56 107/34/79 104/32/77
f 110/35/65 109/36/80 108/35/65
f 109/36/80 110/35/65 111/36/80
f 97/24/73 113/37/60 112/24/81
f 113/37/60 97/24/73 114/37/14
f 115/23/82 113/37/60 74/38/52
f 113/37/60 115/23/82 112/24/81
f 118/27/84 117/29/53 116/27/83
f 117/29/53 118/27/84 76/30/54
f 100/27/76 76/30/54 118/27/84
f 76/30/54 100/27/76 84/30/61
f 22/38/12 111/36/9 110/35/9
f 111/36/9 22/38/12 96/23/72
f 111/36/9 96/23/72 119/39/9
f 119/39/9 96/23/72 61/25/47
f 122/36/85 121/39/66 120/39/66
f 121/39/66 122/36/85 123/36/85
f 63/28/9 99/27/75 124/27/9
f 99/27/75 63/28/9 101/29/48
f 127/41/86 126/40/63 125/40/63
f 126/40/63 127/41/86 128/41/86
f 122/36/9 31/38/21 129/35/9
f 31/38/21 122/36/9 89/23/67
f 89/23/67 122/36/9 120/39/9
f 89/23/67 120/39/9 80/25/57
f 63/28/64 130/27/64 87/28/64
f 130/27/64 63/28/64 124/27/64
f 131/33/28 127/41/9 125/40/9
f 132/33/17 127/41/9 131/33/28
f 132/33/17 131/33/28 133/34/87
f 127/41/9 132/33/17 134/40/9
f 46/26/36 97/24/73 112/24/81
f 97/24/73 46/26/36 52/26/42
f 137/27/51 136/29/43 135/27/88
f 136/29/43 137/27/51 55/28/51
f 109/36/51 74/38/52 108/35/51
f 74/38/52 109/36/51 115/23/82
f 115/23/82 109/36/51 138/39/51
f 115/23/82 138/39/51 45/25/35
f 116/27/83 87/28/51 130/27/51
f 87/28/51 116/27/83 117/29/53
f 139/37/24 94/23/70 36/38/26
f 94/23/70 139/37/24 95/24/71
f 141/31/31 107/34/79 140/33/34
f 107/34/79 141/31/31 104/32/77
f 136/29/43 142/27/89 135/27/88
f 142/27/89 136/29/43 50/30/40
f 89/23/67 143/37/22 31/38/21
f 143/37/22 89/23/67 90/24/68
f 36/38/26 123/36/51 144/35/51
f 123/36/51 36/38/26 94/23/70
f 123/36/51 94/23/70 121/39/51
f 121/39/51 94/23/70 81/25/58
f 140/33/34 128/41/51 145/40/51
f 106/33/55 128/41/51 140/33/34
f 106/33/55 140/33/34 107/34/79
f 128/41/51 106/33/55 126/40/51
f 45/25/35 112/24/81 115/23/82
f 112/24/81 45/25/35 46/26/36
f 103/31/30 133/34/87 131/33/28
f 133/34/87 103/31/30 105/32/78
f 92/27/86 142/27/86 98/27/86
f 142/27/86 92/27/86 135/27/86
f 135/27/86 92/27/86 91/27/86
f 135/27/86 91/27/86 137/27/86
f 133/34/87 146/31/18 132/33/17
f 146/31/18 133/34/87 105/32/78
f 114/37/14 96/23/72 22/38/12
f 96/23/72 114/37/14 97/24/73
f 99/27/86 130/27/86 124/27/86
f 130/27/86 99/27/86 116/27/86
f 116/27/86 99/27/86 118/27/86
f 118/27/86 99/27/86 100/27/86
f 104/32/77 146/31/18 105/32/78
f 146/31/18 104/32/77 141/31/31
f 134/40/49 128/41/86 127/41/86
f 128/41/86 134/40/49 145/40/49
f 51/30/41 142/27/89 50/30/40
f 142/27/89 51/30/41 98/27/74
f 122/36/85 144/35/50 123/36/85
f 144/35/50 122/36/85 129/35/50
f 143/37/22 95/24/71 139/37/24
f 95/24/71 143/37/22 90/24/68
f 119/39/10 109/36/80 111/36/80
f 109/36/80 119/39/10 138/39/10
f 91/27/45 55/28/45 137/27/45
f 55/28/45 91/27/45 57/28/45
f 13/42/90 148/43/91 147/42/90
f 148/43/91 13/42/90 14/43/91
f 150/32/93 1/32/92 149/32/92
f 1/32/92 150/32/93 3/32/93
f 8/27/95 151/27/94 6/27/94
f 151/27/94 8/27/95 152/27/95
f 9/43/96 154/42/97 153/43/96
f 154/42/97 9/43/96 10/42/97
f 10/42/97 150/32/93 154/42/97
f 150/32/93 10/42/97 3/32/93
f 1/32/92 147/42/90 149/32/92
f 147/42/90 1/32/92 13/42/90
f 14/43/91 151/27/94 148/43/91
f 151/27/94 14/43/91 6/27/94
f 8/27/95 153/43/96 152/27/95
f 153/43/96 8/27/95 9/43/96

