# Created by Kenney (www.kenney.nl)

mtllib overhead-arch-striped.mtl

g overhead-arch-striped

v -1.774693 1.774693 0.61875 1 1 1
v -1.954933 1.954933 0.36875 1 1 1
v -1.367575 2.046721 0.61875 1 1 1
v -1.506468 2.254589 0.36875 1 1 1
v 2 1.28127E-16 0.61875 1 1 1
v 1.923879 0.3826834 0.61875 1 1 1
v 2.509796 1.843821E-16 0.61875 1 1 1
v 2.414272 0.4802286 0.61875 1 1 1
v -1.774693 1.774693 -0.61875 1 1 1
v -1.367575 2.046721 -0.61875 1 1 1
v -1.954933 1.954933 -0.36875 1 1 1
v -1.506468 2.254589 -0.36875 1 1 1
v 1.774693 1.774693 0.61875 1 1 1
v 1.367575 2.046721 0.61875 1 1 1
v 1.954933 1.954933 0.36875 1 1 1
v 1.506468 2.254589 0.36875 1 1 1
v 2.764693 1.78829E-16 0.36875 1 1 1
v 2.659468 0.5290012 0.36875 1 1 1
v -2.509796 1.768622E-16 0.61875 1 1 1
v -2.764693 1.78829E-16 0.36875 1 1 1
v -2.414272 0.4802286 0.61875 1 1 1
v -2.659468 0.5290012 0.36875 1 1 1
v 0.5290012 2.659468 -0.36875 1 1 1
v 0.5290012 2.659468 0.36875 1 1 1
v -1.443823E-15 2.764693 -0.36875 1 1 1
v 0 2.764693 0.36875 1 1 1
v 0.4802286 2.414272 -0.61875 1 1 1
v -1.443823E-15 2.509796 -0.61875 1 1 1
v 1.630986 1.08979 -0.61875 1 1 1
v 1.414214 1.414214 -0.61875 1 1 1
v 1.630986 1.08979 0.61875 1 1 1
v 1.414214 1.414214 0.61875 1 1 1
v 1.954933 1.954933 -0.36875 1 1 1
v 2.254589 1.506468 -0.36875 1 1 1
v 2.254589 1.506468 0.36875 1 1 1
v 2.046721 1.367575 -0.61875 1 1 1
v 1.774693 1.774693 -0.61875 1 1 1
v -2.509796 1.052787E-16 -0.61875 1 1 1
v -2.414272 0.4802286 -0.61875 1 1 1
v -2.764693 1.333915E-16 -0.36875 1 1 1
v -2.659468 0.5290012 -0.36875 1 1 1
v 2.046721 1.367575 0.61875 1 1 1
v 1.08979 1.630986 0.61875 1 1 1
v -1.08979 1.630986 0.61875 1 1 1
v -1.08979 1.630986 -0.61875 1 1 1
v -1.414214 1.414214 0.61875 1 1 1
v -1.414214 1.414214 -0.61875 1 1 1
v -2 1.28127E-16 0.61875 1 1 1
v -1.923879 0.3826834 0.61875 1 1 1
v 0.3826834 1.923879 0.61875 1 1 1
v 0.3826834 1.923879 -0.61875 1 1 1
v 0 2 0.61875 1 1 1
v 0 2 -0.61875 1 1 1
v -1.630986 1.08979 0.61875 1 1 1
v -2.046721 1.367575 0.61875 1 1 1
v -1.923879 0.3826834 -0.61875 1 1 1
v -2 3.007964E-17 -0.61875 1 1 1
v 0.4802286 2.414272 0.61875 1 1 1
v -0.4802286 2.414272 0.61875 1 1 1
v 0 2.509796 0.61875 1 1 1
v -0.3826834 1.923879 0.61875 1 1 1
v 1.506468 2.254589 -0.36875 1 1 1
v 2.509796 0 -0.61875 1 1 1
v 2.414272 0.4802286 -0.61875 1 1 1
v 2 3.007964E-17 -0.61875 1 1 1
v 1.923879 0.3826834 -0.61875 1 1 1
v 1.08979 1.630986 -0.61875 1 1 1
v 1.367575 2.046721 -0.61875 1 1 1
v -2.046721 1.367575 -0.61875 1 1 1
v -2.254589 1.506468 -0.36875 1 1 1
v -0.4802286 2.414272 -0.61875 1 1 1
v -0.5290012 2.659468 -0.36875 1 1 1
v 2.764693 2.059289E-17 -0.36875 1 1 1
v 2.659468 0.5290012 -0.36875 1 1 1
v -2.254589 1.506468 0.36875 1 1 1
v -1.630986 1.08979 -0.61875 1 1 1
v -0.3826834 1.923879 -0.61875 1 1 1
v -0.5290012 2.659468 0.36875 1 1 1
v 1.08979 1.630986 0.61875 1 1 1
v 1.08979 1.630986 -0.61875 1 1 1
v 0.7653669 1.847759 0.61875 1 1 1
v 0.7653669 1.847759 -0.61875 1 1 1
v 0.3826834 1.92388 0.61875 1 1 1
v 0.3826834 1.92388 -0.61875 1 1 1
v 1.847759 0.7653669 -0.61875 1 1 1
v 1.847759 0.7653669 0.61875 1 1 1
v 1.630986 1.08979 -0.61875 1 1 1
v 1.630986 1.08979 0.61875 1 1 1
v 2.414272 0.4802286 0.61875 1 1 1
v 2.318749 0.9604572 0.61875 1 1 1
v 2.554244 1.058002 0.36875 1 1 1
v 2.254589 1.506468 0.36875 1 1 1
v 2.554244 1.058002 -0.36875 1 1 1
v 2.254589 1.506468 -0.36875 1 1 1
v 2.318749 0.9604572 -0.61875 1 1 1
v 2.414272 0.4802286 -0.61875 1 1 1
v 0.4802286 2.414272 0.61875 1 1 1
v 0.9604571 2.318749 0.61875 1 1 1
v 1.058002 2.554244 0.36875 1 1 1
v 0.5290012 2.659469 0.36875 1 1 1
v 0.5290012 2.659469 -0.36875 1 1 1
v 1.058002 2.554244 -0.36875 1 1 1
v 0.4802286 2.414272 -0.61875 1 1 1
v 0.9604571 2.318749 -0.61875 1 1 1
v -2.414272 0.4802286 0.61875 1 1 1
v -1.847759 0.7653669 0.61875 1 1 1
v -2.318749 0.9604572 0.61875 1 1 1
v -1.630986 1.08979 0.61875 1 1 1
v -2.554244 1.058002 0.36875 1 1 1
v -2.254589 1.506468 0.36875 1 1 1
v -2.254589 1.506468 -0.36875 1 1 1
v -2.554244 1.058002 -0.36875 1 1 1
v -2.318749 0.9604572 -0.61875 1 1 1
v -1.630986 1.08979 -0.61875 1 1 1
v -2.414272 0.4802286 -0.61875 1 1 1
v -1.847759 0.7653669 -0.61875 1 1 1
v -0.3826834 1.92388 0.61875 1 1 1
v -0.3826834 1.92388 -0.61875 1 1 1
v -0.7653669 1.847759 0.61875 1 1 1
v -0.7653669 1.847759 -0.61875 1 1 1
v -1.08979 1.630986 0.61875 1 1 1
v -1.08979 1.630986 -0.61875 1 1 1
v -0.4802286 2.414272 0.61875 1 1 1
v -0.9604571 2.318749 0.61875 1 1 1
v -1.058002 2.554244 0.36875 1 1 1
v -0.5290012 2.659469 0.36875 1 1 1
v -1.058002 2.554244 -0.36875 1 1 1
v -0.5290012 2.659469 -0.36875 1 1 1
v -0.4802286 2.414272 -0.61875 1 1 1
v -0.9604571 2.318749 -0.61875 1 1 1

vn -0.2950234 0.2950234 0.9088028
vn -0.6566502 0.6566502 0.3709733
vn -0.2126075 0.3181897 0.9238795
vn -0.51328 0.7681777 0.3826834
vn 0 0 1
vn 0.4157966 0.08270708 0.9056892
vn 0.3753303 0.07465784 0.9238795
vn -0.2950234 0.2950234 -0.9088028
vn -0.2126075 0.3181897 -0.9238795
vn -0.6566502 0.6566502 -0.3709733
vn -0.51328 0.7681777 -0.3826834
vn 0.2950234 0.2950234 0.9088028
vn 0.2126075 0.3181897 0.9238795
vn 0.6566502 0.6566502 0.3709733
vn 0.51328 0.7681777 0.3826834
vn 0.9131947 0.1816457 0.3648019
vn 0.9061275 0.18024 0.3826834
vn -0.4157966 0.08270708 0.9056892
vn -0.9131947 0.1816457 0.3648019
vn -0.3753303 0.07465784 0.9238795
vn -0.9061275 0.18024 0.3826834
vn 0.18024 0.9061275 -0.3826834
vn 0.18024 0.9061275 0.3826834
vn 0 0.9286435 -0.3709733
vn 0 0.9286435 0.3709733
vn 0.07465784 0.3753303 -0.9238795
vn 0 0.417226 -0.9088027
vn -0.8314696 -0.5555702 0
vn -0.7071068 -0.7071068 0
vn 0.6566502 0.6566502 -0.3709733
vn 0.7681777 0.51328 -0.3826834
vn 0.7681777 0.51328 0.3826834
vn 0.3181897 0.2126075 -0.9238795
vn 0.2950234 0.2950234 -0.9088028
vn -0.4157966 0.08270708 -0.9056892
vn -0.3753303 0.07465784 -0.9238795
vn -0.9131947 0.1816457 -0.3648019
vn -0.9061275 0.18024 -0.3826834
vn 0.3181897 0.2126075 0.9238795
vn 0.5555702 -0.8314696 0
vn 0.7071068 -0.7071068 0
vn -0.1950903 -0.9807853 0
vn 0 -1 0
vn -0.3181897 0.2126075 0.9238795
vn 0.9807853 -0.1950903 0
vn 0.07465784 0.3753303 0.9238795
vn -0.07465784 0.3753303 0.9238795
vn 0 0.417226 0.9088027
vn 0.51328 0.7681777 -0.3826834
vn 0.4157966 0.08270708 -0.9056892
vn 0.3753303 0.07465784 -0.9238795
vn 0 0 -1
vn 0.2126075 0.3181897 -0.9238795
vn -0.3181897 0.2126075 -0.9238795
vn -0.7681777 0.51328 -0.3826834
vn -0.07465784 0.3753303 -0.9238795
vn -0.18024 0.9061275 -0.3826834
vn 0.9131947 0.1816457 -0.3648019
vn 0.9061275 0.18024 -0.3826834
vn -0.7681777 0.51328 0.3826834
vn -0.18024 0.9061275 0.3826834
vn 0.1950903 -0.9807853 0
vn 0.8314696 -0.5555702 0
vn -0.5555702 -0.8314696 0
vn -0.9807853 -0.1950903 0
vn -0.3826834 -0.9238795 0
vn -0.9238795 -0.3826834 0
vn 0.3854666 0.1596655 0.9088027
vn 0.8579547 0.3553765 0.3709733
vn 0.8579547 0.3553765 -0.3709733
vn 0.3854666 0.1596655 -0.9088027
vn 0.1596655 0.3854666 0.9088027
vn 0.3553765 0.8579547 0.3709733
vn 0.3553765 0.8579547 -0.3709733
vn 0.1596655 0.3854666 -0.9088027
vn -0.3854666 0.1596655 0.9088027
vn -0.8579547 0.3553765 0.3709733
vn -0.8579547 0.3553765 -0.3709733
vn -0.3854666 0.1596655 -0.9088027
vn 0.3826834 -0.9238795 0
vn 0.9238795 -0.3826834 0
vn -0.1596655 0.3854666 0.9088027
vn -0.3553765 0.8579547 0.3709733
vn -0.3553765 0.8579547 -0.3709733
vn -0.1596655 0.3854666 -0.9088027

vt 0.59375 0.4033827
vt 0.59375 0.4164214
vt 0.59375 0.4230613
vt 0.59375 0.4380986
vt 0.59375 0.275
vt 0.59375 0.3026836
vt 0.59375 0.3097401
vt 0.59375 0.3132683
vt 0.59375 0.4673879
vt 0.59375 0.475
vt 0.59375 0.4496502
vt 0.59375 0.4565605
vt 0.59375 0.3538362
vt 0.59375 0.3773053
vt 0.59375 0.383979
vt 0.59375 0.3739314
vt 0.59375 0.3929868
vt 0.59375 0.4141749
vt 0.59375 0.4196815
vt 0.59375 0.1346548
vt 0.59375 0.1536969
vt 0.59375 0.1603835
vt 0.59375 0.025
vt 0.59375 0.05861612
vt 0.59375 0.08711449
vt 0.59375 0.03356868
vt 0.59375 0.07575347
vt 0.59375 0.03785301
vt 0.59375 0.111516
vt 0.59375 0.08432215
vt 0.59375 0.1237168
vt 0.59375 0.1711743
vt 0.59375 0.2034612
vt 0.59375 0.1950701
vt 0.59375 0.1894341
vt 0.59375 0.2157567
vt 0.59375 0.225

usemtl colormap

f 3/3/3 2/2/2 1/1/1
f 2/2/2 3/3/3 4/4/4
f 7/5/6 6/6/5 5/5/5
f 6/6/5 7/5/6 8/7/7
f 11/2/10 10/3/9 9/1/8
f 10/3/9 11/2/10 12/4/11
f 11/2/10 4/4/4 12/4/11
f 4/4/4 11/2/10 2/2/2
f 15/2/14 14/3/13 13/1/12
f 14/3/13 15/2/14 16/4/15
f 18/8/17 7/5/6 17/5/16
f 7/5/6 18/8/17 8/7/7
f 21/7/20 20/5/19 19/5/18
f 20/5/19 21/7/20 22/8/21
f 25/10/24 24/9/23 23/9/22
f 24/9/23 25/10/24 26/10/25
f 28/12/27 23/9/22 27/11/26
f 23/9/22 28/12/27 25/10/24
f 31/13/28 30/14/29 29/13/28
f 30/14/29 31/13/28 32/14/29
f 15/2/14 34/15/31 33/2/30
f 34/15/31 15/2/14 35/15/32
f 37/1/34 34/15/31 36/16/33
f 34/15/31 37/1/34 33/2/30
f 40/5/37 39/7/36 38/5/35
f 39/7/36 40/5/37 41/8/38
f 20/5/19 41/8/38 40/5/37
f 41/8/38 20/5/19 22/8/21
f 42/16/39 32/14/5 31/13/5
f 32/14/5 42/16/39 13/1/12
f 32/14/5 13/1/12 43/17/5
f 43/17/5 13/1/12 14/3/13
f 46/14/41 45/17/40 44/17/40
f 45/17/40 46/14/41 47/14/41
f 49/6/5 19/5/18 48/5/5
f 19/5/18 49/6/5 21/7/20
f 52/19/43 51/18/42 50/18/42
f 51/18/42 52/19/43 53/19/43
f 46/14/5 55/16/44 54/13/5
f 55/16/44 46/14/5 1/1/1
f 1/1/1 46/14/5 44/17/5
f 1/1/1 44/17/5 3/3/3
f 49/6/45 57/5/45 56/6/45
f 57/5/45 49/6/45 48/5/45
f 58/11/46 52/19/5 50/18/5
f 59/11/47 52/19/5 58/11/46
f 59/11/47 58/11/46 60/12/48
f 52/19/5 59/11/47 61/18/5
f 62/4/49 15/2/14 33/2/30
f 15/2/14 62/4/49 16/4/15
f 65/5/52 64/7/51 63/5/50
f 64/7/51 65/5/52 66/6/52
f 30/14/52 36/16/33 29/13/52
f 36/16/33 30/14/52 37/1/34
f 37/1/34 30/14/52 67/17/52
f 37/1/34 67/17/52 68/3/53
f 38/5/35 56/6/52 57/5/52
f 56/6/52 38/5/35 39/7/36
f 70/15/55 9/1/8 69/16/54
f 9/1/8 70/15/55 11/2/10
f 72/9/57 28/12/27 71/11/56
f 28/12/27 72/9/57 25/10/24
f 64/7/51 73/5/58 63/5/50
f 73/5/58 64/7/51 74/8/59
f 1/1/1 75/15/60 55/16/44
f 75/15/60 1/1/1 2/2/2
f 69/16/54 47/14/52 76/13/52
f 47/14/52 69/16/54 9/1/8
f 47/14/52 9/1/8 45/17/52
f 45/17/52 9/1/8 10/3/9
f 71/11/56 53/19/52 77/18/52
f 27/11/26 53/19/52 71/11/56
f 27/11/26 71/11/56 28/12/27
f 53/19/52 27/11/26 51/18/52
f 68/3/53 33/2/30 37/1/34
f 33/2/30 68/3/53 62/4/49
f 24/9/23 60/12/48 58/11/46
f 60/12/48 24/9/23 26/10/25
f 7/5/43 73/5/43 17/5/43
f 73/5/43 7/5/43 63/5/43
f 63/5/43 7/5/43 5/5/43
f 63/5/43 5/5/43 65/5/43
f 60/12/48 78/9/61 59/11/47
f 78/9/61 60/12/48 26/10/25
f 35/15/32 13/1/12 42/16/39
f 13/1/12 35/15/32 15/2/14
f 19/5/43 57/5/43 48/5/43
f 57/5/43 19/5/43 38/5/43
f 38/5/43 19/5/43 40/5/43
f 40/5/43 19/5/43 20/5/43
f 25/10/24 78/9/61 26/10/25
f 78/9/61 25/10/24 72/9/57
f 61/18/62 53/19/43 52/19/43
f 53/19/43 61/18/62 77/18/62
f 18/8/17 73/5/58 74/8/59
f 73/5/58 18/8/17 17/5/16
f 46/14/41 76/13/63 47/14/41
f 76/13/63 46/14/41 54/13/63
f 75/15/60 11/2/10 70/15/55
f 11/2/10 75/15/60 2/2/2
f 43/17/64 30/14/29 32/14/29
f 30/14/29 43/17/64 67/17/64
f 5/5/65 66/6/65 65/5/65
f 66/6/65 5/5/65 6/6/65
f 81/21/66 80/20/64 79/20/64
f 80/20/64 81/21/66 82/21/66
f 83/22/42 82/21/66 81/21/66
f 82/21/66 83/22/42 84/22/42
f 6/23/65 85/24/67 66/23/65
f 85/24/67 6/23/65 86/24/67
f 86/24/67 87/25/28 85/24/67
f 87/25/28 86/24/67 88/25/28
f 89/26/7 86/24/5 6/23/5
f 86/24/5 89/26/7 90/27/68
f 86/24/5 90/27/68 88/25/5
f 18/28/17 90/27/68 89/26/7
f 88/25/5 90/27/68 42/29/39
f 90/27/68 18/28/17 91/30/69
f 91/30/69 42/29/39 90/27/68
f 42/29/39 91/30/69 92/31/32
f 74/28/59 91/30/69 18/28/17
f 93/30/70 92/31/32 91/30/69
f 91/30/69 74/28/59 93/30/70
f 92/31/32 93/30/70 94/31/31
f 93/30/70 36/29/33 94/31/31
f 74/28/59 95/27/71 93/30/70
f 36/29/33 93/30/70 95/27/71
f 95/27/71 87/25/52 36/29/33
f 95/27/71 74/28/59 96/26/51
f 95/27/71 85/24/52 87/25/52
f 96/26/51 85/24/52 95/27/71
f 85/24/52 96/26/51 66/23/52
f 14/32/13 81/21/5 79/20/5
f 81/21/5 14/32/13 83/22/5
f 83/22/5 14/32/13 97/33/46
f 97/33/46 14/32/13 98/34/72
f 16/35/15 98/34/72 14/32/13
f 99/36/73 97/33/46 98/34/72
f 98/34/72 16/35/15 99/36/73
f 97/33/46 99/36/73 100/37/23
f 99/36/73 101/37/22 100/37/23
f 16/35/15 102/36/74 99/36/73
f 101/37/22 99/36/73 102/36/74
f 102/36/74 16/35/15 62/35/49
f 102/36/74 103/33/26 101/37/22
f 62/35/49 104/34/75 102/36/74
f 103/33/26 102/36/74 104/34/75
f 104/34/75 62/35/49 68/32/53
f 68/32/53 103/33/26 104/34/75
f 68/32/53 84/22/52 103/33/26
f 68/32/53 82/21/52 84/22/52
f 82/21/52 68/32/53 80/20/52
f 106/24/5 105/26/20 49/23/5
f 105/26/20 106/24/5 107/27/76
f 107/27/76 106/24/5 108/25/5
f 107/27/76 108/25/5 55/29/44
f 107/27/76 22/28/21 105/26/20
f 55/29/44 109/30/77 107/27/76
f 22/28/21 107/27/76 109/30/77
f 109/30/77 55/29/44 110/31/60
f 111/31/55 109/30/77 110/31/60
f 112/30/78 22/28/21 109/30/77
f 109/30/77 111/31/55 112/30/78
f 22/28/21 112/30/78 41/28/38
f 69/29/54 112/30/78 111/31/55
f 113/27/79 41/28/38 112/30/78
f 112/30/78 69/29/54 113/27/79
f 114/25/52 113/27/79 69/29/54
f 41/28/38 113/27/79 115/26/36
f 116/24/52 113/27/79 114/25/52
f 116/24/52 115/26/36 113/27/79
f 115/26/36 116/24/52 56/23/52
f 119/21/80 118/22/62 117/22/62
f 118/22/62 119/21/80 120/21/80
f 121/20/40 120/21/80 119/21/80
f 120/21/80 121/20/40 122/20/40
f 108/25/63 116/24/81 114/25/63
f 116/24/81 108/25/63 106/24/81
f 106/24/81 56/23/45 116/24/81
f 56/23/45 106/24/81 49/23/45
f 119/21/5 3/32/3 121/20/5
f 3/32/3 119/21/5 117/22/5
f 3/32/3 117/22/5 123/33/47
f 3/32/3 123/33/47 124/34/82
f 124/34/82 4/35/4 3/32/3
f 123/33/47 125/36/83 124/34/82
f 4/35/4 124/34/82 125/36/83
f 125/36/83 123/33/47 126/37/61
f 125/36/83 12/35/11 4/35/4
f 126/37/61 127/36/84 125/36/83
f 12/35/11 125/36/83 127/36/84
f 127/36/84 126/37/61 128/37/57
f 129/33/56 127/36/84 128/37/57
f 130/34/85 12/35/11 127/36/84
f 127/36/84 129/33/56 130/34/85
f 12/35/11 130/34/85 10/32/9
f 129/33/56 10/32/9 130/34/85
f 118/22/52 10/32/9 129/33/56
f 120/21/52 10/32/9 118/22/52
f 10/32/9 120/21/52 122/20/52

g overhead-arch-striped




usemtl colormap

f 3/3/3 2/2/2 1/1/1
f 2/2/2 3/3/3 4/4/4
f 7/5/6 6/6/5 5/5/5
f 6/6/5 7/5/6 8/7/7
f 11/2/10 10/3/9 9/1/8
f 10/3/9 11/2/10 12/4/11
f 11/2/10 4/4/4 12/4/11
f 4/4/4 11/2/10 2/2/2
f 15/2/14 14/3/13 13/1/12
f 14/3/13 15/2/14 16/4/15
f 18/8/17 7/5/6 17/5/16
f 7/5/6 18/8/17 8/7/7
f 21/7/20 20/5/19 19/5/18
f 20/5/19 21/7/20 22/8/21
f 25/10/24 24/9/23 23/9/22
f 24/9/23 25/10/24 26/10/25
f 28/12/27 23/9/22 27/11/26
f 23/9/22 28/12/27 25/10/24
f 31/13/28 30/14/29 29/13/28
f 30/14/29 31/13/28 32/14/29
f 15/2/14 34/15/31 33/2/30
f 34/15/31 15/2/14 35/15/32
f 37/1/34 34/15/31 36/16/33
f 34/15/31 37/1/34 33/2/30
f 40/5/37 39/7/36 38/5/35
f 39/7/36 40/5/37 41/8/38
f 20/5/19 41/8/38 40/5/37
f 41/8/38 20/5/19 22/8/21
f 42/16/39 32/14/5 31/13/5
f 32/14/5 42/16/39 13/1/12
f 32/14/5 13/1/12 43/17/5
f 43/17/5 13/1/12 14/3/13
f 46/14/41 45/17/40 44/17/40
f 45/17/40 46/14/41 47/14/41
f 49/6/5 19/5/18 48/5/5
f 19/5/18 49/6/5 21/7/20
f 52/19/43 51/18/42 50/18/42
f 51/18/42 52/19/43 53/19/43
f 46/14/5 55/16/44 54/13/5
f 55/16/44 46/14/5 1/1/1
f 1/1/1 46/14/5 44/17/5
f 1/1/1 44/17/5 3/3/3
f 49/6/45 57/5/45 56/6/45
f 57/5/45 49/6/45 48/5/45
f 58/11/46 52/19/5 50/18/5
f 59/11/47 52/19/5 58/11/46
f 59/11/47 58/11/46 60/12/48
f 52/19/5 59/11/47 61/18/5
f 62/4/49 15/2/14 33/2/30
f 15/2/14 62/4/49 16/4/15
f 65/5/52 64/7/51 63/5/50
f 64/7/51 65/5/52 66/6/52
f 30/14/52 36/16/33 29/13/52
f 36/16/33 30/14/52 37/1/34
f 37/1/34 30/14/52 67/17/52
f 37/1/34 67/17/52 68/3/53
f 38/5/35 56/6/52 57/5/52
f 56/6/52 38/5/35 39/7/36
f 70/15/55 9/1/8 69/16/54
f 9/1/8 70/15/55 11/2/10
f 72/9/57 28/12/27 71/11/56
f 28/12/27 72/9/57 25/10/24
f 64/7/51 73/5/58 63/5/50
f 73/5/58 64/7/51 74/8/59
f 1/1/1 75/15/60 55/16/44
f 75/15/60 1/1/1 2/2/2
f 69/16/54 47/14/52 76/13/52
f 47/14/52 69/16/54 9/1/8
f 47/14/52 9/1/8 45/17/52
f 45/17/52 9/1/8 10/3/9
f 71/11/56 53/19/52 77/18/52
f 27/11/26 53/19/52 71/11/56
f 27/11/26 71/11/56 28/12/27
f 53/19/52 27/11/26 51/18/52
f 68/3/53 33/2/30 37/1/34
f 33/2/30 68/3/53 62/4/49
f 24/9/23 60/12/48 58/11/46
f 60/12/48 24/9/23 26/10/25
f 7/5/43 73/5/43 17/5/43
f 73/5/43 7/5/43 63/5/43
f 63/5/43 7/5/43 5/5/43
f 63/5/43 5/5/43 65/5/43
f 60/12/48 78/9/61 59/11/47
f 78/9/61 60/12/48 26/10/25
f 35/15/32 13/1/12 42/16/39
f 13/1/12 35/15/32 15/2/14
f 19/5/43 57/5/43 48/5/43
f 57/5/43 19/5/43 38/5/43
f 38/5/43 19/5/43 40/5/43
f 40/5/43 19/5/43 20/5/43
f 25/10/24 78/9/61 26/10/25
f 78/9/61 25/10/24 72/9/57
f 61/18/62 53/19/43 52/19/43
f 53/19/43 61/18/62 77/18/62
f 18/8/17 73/5/58 74/8/59
f 73/5/58 18/8/17 17/5/16
f 46/14/41 76/13/63 47/14/41
f 76/13/63 46/14/41 54/13/63
f 75/15/60 11/2/10 70/15/55
f 11/2/10 75/15/60 2/2/2
f 43/17/64 30/14/29 32/14/29
f 30/14/29 43/17/64 67/17/64
f 5/5/65 66/6/65 65/5/65
f 66/6/65 5/5/65 6/6/65
f 81/21/66 80/20/64 79/20/64
f 80/20/64 81/21/66 82/21/66
f 83/22/42 82/21/66 81/21/66
f 82/21/66 83/22/42 84/22/42
f 6/23/65 85/24/67 66/23/65
f 85/24/67 6/23/65 86/24/67
f 86/24/67 87/25/28 85/24/67
f 87/25/28 86/24/67 88/25/28
f 89/26/7 86/24/5 6/23/5
f 86/24/5 89/26/7 90/27/68
f 86/24/5 90/27/68 88/25/5
f 18/28/17 90/27/68 89/26/7
f 88/25/5 90/27/68 42/29/39
f 90/27/68 18/28/17 91/30/69
f 91/30/69 42/29/39 90/27/68
f 42/29/39 91/30/69 92/31/32
f 74/28/59 91/30/69 18/28/17
f 93/30/70 92/31/32 91/30/69
f 91/30/69 74/28/59 93/30/70
f 92/31/32 93/30/70 94/31/31
f 93/30/70 36/29/33 94/31/31
f 74/28/59 95/27/71 93/30/70
f 36/29/33 93/30/70 95/27/71
f 95/27/71 87/25/52 36/29/33
f 95/27/71 74/28/59 96/26/51
f 95/27/71 85/24/52 87/25/52
f 96/26/51 85/24/52 95/27/71
f 85/24/52 96/26/51 66/23/52
f 14/32/13 81/21/5 79/20/5
f 81/21/5 14/32/13 83/22/5
f 83/22/5 14/32/13 97/33/46
f 97/33/46 14/32/13 98/34/72
f 16/35/15 98/34/72 14/32/13
f 99/36/73 97/33/46 98/34/72
f 98/34/72 16/35/15 99/36/73
f 97/33/46 99/36/73 100/37/23
f 99/36/73 101/37/22 100/37/23
f 16/35/15 102/36/74 99/36/73
f 101/37/22 99/36/73 102/36/74
f 102/36/74 16/35/15 62/35/49
f 102/36/74 103/33/26 101/37/22
f 62/35/49 104/34/75 102/36/74
f 103/33/26 102/36/74 104/34/75
f 104/34/75 62/35/49 68/32/53
f 68/32/53 103/33/26 104/34/75
f 68/32/53 84/22/52 103/33/26
f 68/32/53 82/21/52 84/22/52
f 82/21/52 68/32/53 80/20/52
f 106/24/5 105/26/20 49/23/5
f 105/26/20 106/24/5 107/27/76
f 107/27/76 106/24/5 108/25/5
f 107/27/76 108/25/5 55/29/44
f 107/27/76 22/28/21 105/26/20
f 55/29/44 109/30/77 107/27/76
f 22/28/21 107/27/76 109/30/77
f 109/30/77 55/29/44 110/31/60
f 111/31/55 109/30/77 110/31/60
f 112/30/78 22/28/21 109/30/77
f 109/30/77 111/31/55 112/30/78
f 22/28/21 112/30/78 41/28/38
f 69/29/54 112/30/78 111/31/55
f 113/27/79 41/28/38 112/30/78
f 112/30/78 69/29/54 113/27/79
f 114/25/52 113/27/79 69/29/54
f 41/28/38 113/27/79 115/26/36
f 116/24/52 113/27/79 114/25/52
f 116/24/52 115/26/36 113/27/79
f 115/26/36 116/24/52 56/23/52
f 119/21/80 118/22/62 117/22/62
f 118/22/62 119/21/80 120/21/80
f 121/20/40 120/21/80 119/21/80
f 120/21/80 121/20/40 122/20/40
f 108/25/63 116/24/81 114/25/63
f 116/24/81 108/25/63 106/24/81
f 106/24/81 56/23/45 116/24/81
f 56/23/45 106/24/81 49/23/45
f 119/21/5 3/32/3 121/20/5
f 3/32/3 119/21/5 117/22/5
f 3/32/3 117/22/5 123/33/47
f 3/32/3 123/33/47 124/34/82
f 124/34/82 4/35/4 3/32/3
f 123/33/47 125/36/83 124/34/82
f 4/35/4 124/34/82 125/36/83
f 125/36/83 123/33/47 126/37/61
f 125/36/83 12/35/11 4/35/4
f 126/37/61 127/36/84 125/36/83
f 12/35/11 125/36/83 127/36/84
f 127/36/84 126/37/61 128/37/57
f 129/33/56 127/36/84 128/37/57
f 130/34/85 12/35/11 127/36/84
f 127/36/84 129/33/56 130/34/85
f 12/35/11 130/34/85 10/32/9
f 129/33/56 10/32/9 130/34/85
f 118/22/52 10/32/9 129/33/56
f 120/21/52 10/32/9 118/22/52
f 10/32/9 120/21/52 122/20/52

