# Created by Kenney (www.kenney.nl)

mtllib pitstop-garage-closed.mtl

g pitstop-garage-closed

v 0.975 1 1.1 1 1 1
v 0.975 1 1.15 1 1 1
v -0.975 1 1.1 1 1 1
v -0.975 1 1.15 1 1 1
v 0.975 0.8 1.15 1 1 1
v 0.975 0.8 1.1 1 1 1
v -0.975 0.8 1.15 1 1 1
v -0.975 0.8 1.1 1 1 1
v -1 0.825 1.1 1 1 1
v -1 0.975 1.1 1 1 1
v -1 0.825 1.15 1 1 1
v -1 0.975 1.15 1 1 1
v 1 0.975 1.1 1 1 1
v 1 0.825 1.1 1 1 1
v 1 0.975 1.15 1 1 1
v 1 0.825 1.15 1 1 1
v 0.9 0 0.9999999 1 1 1
v 0.9 8.648648E-20 -0.8999999 1 1 1
v -0.9 0 0.9999999 1 1 1
v -0.9 0 -0.8999999 1 1 1
v 0.9 0.05 -0.8999999 1 1 1
v 0.9 0.05 0.8 1 1 1
v -0.9 0.05 -0.8999999 1 1 1
v -0.9 0.05 0.8 1 1 1
v 0.8 0.509375 0.825 1 1 1
v 0.15 0.509375 0.825 1 1 1
v 0.8 0.60625 0.85 1 1 1
v 0.15 0.60625 0.85 1 1 1
v 0.8 0.4125 0.85 1 1 1
v 0.15 0.4125 0.85 1 1 1
v -0.15 0.509375 0.825 1 1 1
v -0.8 0.509375 0.825 1 1 1
v -0.15 0.60625 0.85 1 1 1
v -0.8 0.60625 0.85 1 1 1
v -0.15 0.4125 0.85 1 1 1
v -0.8 0.4125 0.85 1 1 1
v 0.95 0.75 0.9999999 1 1 1
v 0.95 0.65 0.9999999 1 1 1
v 0.95 0.8 1.05 1 1 1
v 0.95 0.8 1.15 1 1 1
v 0.9 0.65 0.9999999 1 1 1
v 0.9 0.75 0.9999999 1 1 1
v 0.9 0.8 1.15 1 1 1
v 0.9 0.8 1.05 1 1 1
v -0.9 0.75 0.9999999 1 1 1
v -0.9 0.65 0.9999999 1 1 1
v -0.9 0.8 1.05 1 1 1
v -0.9 0.8 1.15 1 1 1
v -0.95 0.65 0.9999999 1 1 1
v -0.95 0.75 0.9999999 1 1 1
v -0.95 0.8 1.15 1 1 1
v -0.95 0.8 1.05 1 1 1
v 0.025 0.75 0.9999999 1 1 1
v 0.025 0.65 0.9999999 1 1 1
v 0.025 0.8 1.05 1 1 1
v 0.025 0.8 1.15 1 1 1
v -0.025 0.65 0.9999999 1 1 1
v -0.025 0.75 0.9999999 1 1 1
v -0.025 0.8 1.15 1 1 1
v -0.025 0.8 1.05 1 1 1
v 1 0.975 0.9999999 1 1 1
v 1 0.825 0.9999999 1 1 1
v 1 0.975 1.1 1 1 1
v 1 0.825 1.1 1 1 1
v 0.975 1 0.9999999 1 1 1
v 0.975 1 1.1 1 1 1
v -0.975 1 0.9999999 1 1 1
v -0.975 1 1.1 1 1 1
v 0.975 0.8 1.1 1 1 1
v 0.975 0.8 0.9999999 1 1 1
v -0.975 0.8 1.1 1 1 1
v -0.975 0.8 0.9999999 1 1 1
v -1 0.825 0.9999999 1 1 1
v -1 0.975 0.9999999 1 1 1
v -1 0.825 1.1 1 1 1
v -1 0.975 1.1 1 1 1
v -0.05 0.2 0.8 1 1 1
v -0.05 0.8 0.8 1 1 1
v -0.05 0.2 1 1 1 1
v -0.05 0.8 1 1 1 1
v 0.05 0.2 0.8 1 1 1
v 0.05 0.8 0.8 1 1 1
v 0.05 0.8 1 1 1 1
v 0.05 0.2 1 1 1 1
v 0.55 0.1 0.8806452 1 1 1
v 0.4 0.1 0.8806452 1 1 1
v 0.55 0.14375 0.8806452 1 1 1
v 0.4 0.14375 0.8806452 1 1 1
v -0.4 0.1 0.8806452 1 1 1
v -0.55 0.1 0.8806452 1 1 1
v -0.4 0.14375 0.8806452 1 1 1
v -0.55 0.14375 0.8806452 1 1 1
v 1 1 -1 1 1 1
v 1 3.947953E-17 -1 1 1 1
v 1 1 1 1 1 1
v 1 3.947953E-17 1 1 1 1
v -1 1 -1 1 1 1
v -1 1 1 1 1 1
v -1 3.947953E-17 -1 1 1 1
v -1 3.947953E-17 1 1 1 1
v 0.9 0 -0.9 1 1 1
v 0.9 0.8 -0.9 1 1 1
v 0.9 0 1 1 1 1
v 0.9 0.8 1 1 1 1
v -0.9 0 -0.9 1 1 1
v -0.9 0.8 -0.9 1 1 1
v -0.9 0.8 1 1 1 1
v -0.9 0 1 1 1 1
v -0.05 4.664176E-20 0.8 1 1 1
v -0.05 0 1 1 1 1
v 0.05 4.664176E-20 0.8 1 1 1
v 0.05 0 1 1 1 1
v -0.04999998 0.121875 0.875 1 1 1
v -0.9 0.121875 0.875 1 1 1
v -0.04999998 0.21875 0.9 1 1 1
v -0.9 0.21875 0.9 1 1 1
v -0.04999998 0.025 0.9 1 1 1
v -0.9 0.025 0.9 1 1 1
v -0.04999998 0.315625 0.875 1 1 1
v -0.9 0.315625 0.875 1 1 1
v -0.04999998 0.4125 0.9 1 1 1
v -0.9 0.4125 0.9 1 1 1
v -0.15 0.4125 0.9 1 1 1
v -0.8 0.4125 0.9 1 1 1
v -0.8 0.4125 0.9 1 1 1
v -0.9 0.4125 0.9 1 1 1
v -0.8 0.509375 0.8749999 1 1 1
v -0.9 0.509375 0.8749999 1 1 1
v -0.04999998 0.509375 0.8749999 1 1 1
v -0.15 0.509375 0.8749999 1 1 1
v -0.04999998 0.60625 0.9 1 1 1
v -0.15 0.60625 0.9 1 1 1
v -0.8 0.60625 0.9 1 1 1
v -0.9 0.60625 0.9 1 1 1
v -0.04999998 0.4125 0.9 1 1 1
v -0.15 0.4125 0.9 1 1 1
v -0.15 0.60625 0.85 1 1 1
v -0.8 0.60625 0.85 1 1 1
v -0.15 0.509375 0.8249999 1 1 1
v -0.15 0.4125 0.85 1 1 1
v -0.8 0.4125 0.85 1 1 1
v -0.8 0.509375 0.8249999 1 1 1
v -0.04999998 0.703125 0.875 1 1 1
v -0.9 0.703125 0.875 1 1 1
v -0.04999998 0.8 0.9 1 1 1
v -0.9 0.8 0.9 1 1 1
v -0.04999998 0.60625 0.9 1 1 1
v -0.15 0.60625 0.9 1 1 1
v -0.8 0.60625 0.9 1 1 1
v -0.9 0.60625 0.9 1 1 1
v 0.9 0.121875 0.875 1 1 1
v 0.04999998 0.121875 0.875 1 1 1
v 0.9 0.21875 0.9 1 1 1
v 0.04999998 0.21875 0.9 1 1 1
v 0.9 0.025 0.9 1 1 1
v 0.04999998 0.025 0.9 1 1 1
v 0.9 0.315625 0.875 1 1 1
v 0.04999998 0.315625 0.875 1 1 1
v 0.9 0.4125 0.9 1 1 1
v 0.04999998 0.4125 0.9 1 1 1
v 0.8 0.4125 0.9 1 1 1
v 0.15 0.4125 0.9 1 1 1
v 0.9 0.703125 0.875 1 1 1
v 0.04999998 0.703125 0.875 1 1 1
v 0.9 0.8 0.9 1 1 1
v 0.04999998 0.8 0.9 1 1 1
v 0.9 0.60625 0.9 1 1 1
v 0.8 0.60625 0.9 1 1 1
v 0.15 0.60625 0.9 1 1 1
v 0.04999998 0.60625 0.9 1 1 1
v 0.15 0.4125 0.9 1 1 1
v 0.04999998 0.4125 0.9 1 1 1
v 0.15 0.509375 0.8749999 1 1 1
v 0.04999998 0.509375 0.8749999 1 1 1
v 0.9 0.509375 0.8749999 1 1 1
v 0.8 0.509375 0.8749999 1 1 1
v 0.9 0.60625 0.9 1 1 1
v 0.8 0.60625 0.9 1 1 1
v 0.15 0.60625 0.9 1 1 1
v 0.04999998 0.60625 0.9 1 1 1
v 0.9 0.4125 0.9 1 1 1
v 0.8 0.4125 0.9 1 1 1
v 0.8 0.60625 0.85 1 1 1
v 0.15 0.60625 0.85 1 1 1
v 0.8 0.509375 0.8249999 1 1 1
v 0.8 0.4125 0.85 1 1 1
v 0.15 0.4125 0.85 1 1 1
v 0.15 0.509375 0.8249999 1 1 1

vn 0.3826834 0.9238795 0
vn -0.3826834 0.9238795 0
vn 0.3826834 -0.9238795 0
vn -0.3826834 -0.9238795 0
vn -0.9238795 -0.3826834 0
vn -0.9238795 0.3826834 0
vn 0.9238795 0.3826834 0
vn 0.9238795 -0.3826834 0
vn 0 0 1
vn 0 -1 0
vn 0 1 0
vn 0 0.9925076 0.1221833
vn 0 0.9701425 0.2425356
vn 0 -0.249878 0.9682773
vn 0 0.249878 0.9682773
vn 1 0 0
vn -1 0 0
vn 0 0.7071068 -0.7071068
vn 0 -0.7071068 0.7071068
vn 0.9238796 0.3826835 0
vn 0.9238796 -0.3826835 0
vn 0.3826835 0.9238796 0
vn -0.3826835 0.9238796 0
vn 0.3826835 -0.9238796 0
vn -0.3826835 -0.9238796 0
vn -0.9238796 -0.3826835 0
vn -0.9238796 0.3826835 0
vn 0 0 -1
vn 0 -0.249878 0.9682773
vn 0 0.249878 0.9682773
vn -0.6428413 -0.7659995 0
vn -0.7576272 -0.6526875 0
vn 0.6428413 -0.7659995 0
vn 0.7576272 -0.6526875 0
vn -0.7576272 0.6526875 0
vn -0.6428413 0.7659995 0
vn 0.7576272 0.6526875 0
vn 0.6428413 0.7659995 0

vt 0.34375 0.225
vt 0.34375 0.025
vt 0.34375 0.05
vt 0.34375 0.2
vt 0.21875 0.025
vt 0.21875 0.225
vt 0.21875 0.185
vt 0.21875 0.145
vt 0.21875 0.1083333
vt 0.21875 0.175
vt 0.21875 0.075
vt 0.21875 0.1625
vt 0.21875 0.0875
vt 0.46875 0.225
vt 0.46875 0.025
vt 0.46875 0.175
vt 0.46875 0.075
vt 0.46875 0.155
vt 0.21875 0.325
vt 0.21875 0.425
vt 0.59375 0.375
vt 0.59375 0.425
vt 0.59375 0.325

usemtl colormap

f 3/1/2 2/1/1 1/1/1
f 2/1/1 3/1/2 4/1/2
f 7/2/4 6/2/3 5/2/3
f 6/2/3 7/2/4 8/2/4
f 11/3/5 10/4/6 9/3/5
f 10/4/6 11/3/5 12/4/6
f 15/4/7 14/3/8 13/4/7
f 14/3/8 15/4/7 16/3/8
f 2/1/1 13/4/7 1/1/1
f 13/4/7 2/1/1 15/4/7
f 7/2/4 9/3/5 8/2/4
f 9/3/5 7/2/4 11/3/5
f 12/4/6 3/1/2 10/4/6
f 3/1/2 12/4/6 4/1/2
f 16/3/8 6/2/3 14/3/8
f 6/2/3 16/3/8 5/2/3
f 16/3/9 7/2/9 5/2/9
f 7/2/9 16/3/9 11/3/9
f 11/3/9 16/3/9 15/4/9
f 11/3/9 15/4/9 12/4/9
f 12/4/9 15/4/9 2/1/9
f 12/4/9 2/1/9 4/1/9
f 19/5/10 18/5/10 17/5/10
f 18/5/10 19/5/10 20/5/10
f 23/6/11 22/6/12 21/6/11
f 22/6/12 23/6/11 24/6/12
f 24/6/12 17/5/13 22/6/12
f 17/5/13 24/6/12 19/5/13
f 27/6/14 26/7/9 25/7/9
f 26/7/9 27/6/14 28/6/14
f 25/7/9 30/8/15 29/8/15
f 30/8/15 25/7/9 26/7/9
f 33/6/14 32/7/9 31/7/9
f 32/7/9 33/6/14 34/6/14
f 31/7/9 36/8/15 35/8/15
f 36/8/15 31/7/9 32/7/9
f 39/11/16 38/10/16 37/9/16
f 38/10/16 39/11/16 40/11/16
f 43/11/17 42/9/17 41/10/17
f 42/9/17 43/11/17 44/11/17
f 42/9/18 39/11/18 37/9/18
f 39/11/18 42/9/18 44/11/18
f 40/11/19 41/10/19 38/10/19
f 41/10/19 40/11/19 43/11/19
f 47/11/16 46/10/16 45/9/16
f 46/10/16 47/11/16 48/11/16
f 51/11/17 50/9/17 49/10/17
f 50/9/17 51/11/17 52/11/17
f 50/9/18 47/11/18 45/9/18
f 47/11/18 50/9/18 52/11/18
f 48/11/19 49/10/19 46/10/19
f 49/10/19 48/11/19 51/11/19
f 55/11/16 54/10/16 53/9/16
f 54/10/16 55/11/16 56/11/16
f 59/11/17 58/9/17 57/10/17
f 58/9/17 59/11/17 60/11/17
f 58/9/18 55/11/18 53/9/18
f 55/11/18 58/9/18 60/11/18
f 56/11/19 57/10/19 54/10/19
f 57/10/19 56/11/19 59/11/19
f 63/12/20 62/13/21 61/12/20
f 62/13/21 63/12/20 64/13/21
f 67/10/23 66/10/22 65/10/22
f 66/10/22 67/10/23 68/10/23
f 71/11/25 70/11/24 69/11/24
f 70/11/24 71/11/25 72/11/25
f 75/13/26 74/12/27 73/13/26
f 74/12/27 75/13/26 76/12/27
f 76/12/27 67/10/23 74/12/27
f 67/10/23 76/12/27 68/10/23
f 66/10/22 61/12/20 65/10/22
f 61/12/20 66/10/22 63/12/20
f 64/13/21 70/11/24 62/13/21
f 70/11/24 64/13/21 69/11/24
f 71/11/25 73/13/26 72/11/25
f 73/13/26 71/11/25 75/13/26
f 79/14/17 78/15/17 77/14/17
f 78/15/17 79/14/17 80/15/17
f 78/15/28 81/14/28 77/14/28
f 81/14/28 78/15/28 82/15/28
f 83/15/16 81/14/16 82/15/16
f 81/14/16 83/15/16 84/14/16
f 83/15/9 79/14/9 84/14/9
f 79/14/9 83/15/9 80/15/9
f 87/15/9 86/14/9 85/14/9
f 86/14/9 87/15/9 88/15/9
f 91/15/9 90/14/9 89/14/9
f 90/14/9 91/15/9 92/15/9
f 95/16/16 94/17/16 93/16/16
f 94/17/16 95/16/16 96/17/16
f 97/16/11 95/16/11 93/16/11
f 95/16/11 97/16/11 98/16/11
f 100/17/17 97/16/17 99/17/17
f 97/16/17 100/17/17 98/16/17
f 97/16/28 94/17/28 99/17/28
f 94/17/28 97/16/28 93/16/28
f 103/17/17 102/18/17 101/17/17
f 102/18/17 103/17/17 104/18/17
f 102/18/9 105/17/9 101/17/9
f 105/17/9 102/18/9 106/18/9
f 107/18/10 102/18/10 104/18/10
f 102/18/10 107/18/10 106/18/10
f 96/17/9 104/18/9 103/17/9
f 104/18/9 96/17/9 95/16/9
f 104/18/9 95/16/9 107/18/9
f 98/16/9 107/18/9 95/16/9
f 100/17/9 107/18/9 98/16/9
f 107/18/9 100/17/9 108/17/9
f 107/18/16 105/17/16 106/18/16
f 105/17/16 107/18/16 108/17/16
f 100/17/10 105/17/10 108/17/10
f 99/17/10 105/17/10 100/17/10
f 99/17/10 101/17/10 105/17/10
f 94/17/10 101/17/10 99/17/10
f 94/17/10 103/17/10 101/17/10
f 103/17/10 94/17/10 96/17/10
f 110/19/17 77/20/17 109/19/17
f 77/20/17 110/19/17 79/20/17
f 84/20/16 111/19/16 81/20/16
f 111/19/16 84/20/16 112/19/16
f 77/20/28 111/19/28 109/19/28
f 111/19/28 77/20/28 81/20/28
f 84/20/9 110/19/9 112/19/9
f 110/19/9 84/20/9 79/20/9
f 110/19/10 111/19/10 112/19/10
f 111/19/10 110/19/10 109/19/10
f 115/22/29 114/21/9 113/21/9
f 114/21/9 115/22/29 116/22/29
f 113/21/9 118/23/30 117/23/30
f 118/23/30 113/21/9 114/21/9
f 121/22/29 120/21/9 119/21/9
f 120/21/9 121/22/29 122/22/29
f 122/22/29 121/22/29 123/22/29
f 122/22/29 123/22/29 124/22/29
f 119/21/9 116/23/30 115/23/30
f 116/23/30 119/21/9 120/21/9
f 127/21/9 126/23/30 125/23/30
f 126/23/30 127/21/9 128/21/9
f 131/22/29 130/21/9 129/21/9
f 130/21/9 131/22/29 132/22/29
f 133/22/29 128/21/9 127/21/9
f 128/21/9 133/22/29 134/22/29
f 129/21/9 136/23/30 135/23/30
f 136/23/30 129/21/9 130/21/9
f 133/22/33 137/22/32 132/22/31
f 137/22/32 133/22/33 138/22/34
f 140/23/35 137/22/32 139/21/17
f 137/22/32 140/23/35 130/21/17
f 130/21/17 140/23/35 136/23/36
f 132/22/31 137/22/32 130/21/17
f 141/23/37 136/23/36 140/23/35
f 136/23/36 141/23/37 125/23/38
f 138/22/34 141/23/37 142/21/16
f 141/23/37 138/22/34 127/21/16
f 127/21/16 138/22/34 133/22/33
f 125/23/38 141/23/37 127/21/16
f 145/22/29 144/21/9 143/21/9
f 144/21/9 145/22/29 146/22/29
f 143/21/9 148/23/30 147/23/30
f 148/23/30 143/21/9 149/23/30
f 149/23/30 143/21/9 150/23/30
f 150/23/30 143/21/9 144/21/9
f 153/22/29 152/21/9 151/21/9
f 152/21/9 153/22/29 154/22/29
f 151/21/9 156/23/30 155/23/30
f 156/23/30 151/21/9 152/21/9
f 159/22/29 158/21/9 157/21/9
f 158/21/9 159/22/29 160/22/29
f 160/22/29 159/22/29 161/22/29
f 160/22/29 161/22/29 162/22/29
f 157/21/9 154/23/30 153/23/30
f 154/23/30 157/21/9 158/21/9
f 165/22/29 164/21/9 163/21/9
f 164/21/9 165/22/29 166/22/29
f 163/21/9 168/23/30 167/23/30
f 168/23/30 163/21/9 169/23/30
f 169/23/30 163/21/9 170/23/30
f 170/23/30 163/21/9 164/21/9
f 173/21/9 172/23/30 171/23/30
f 172/23/30 173/21/9 174/21/9
f 177/22/29 176/21/9 175/21/9
f 176/21/9 177/22/29 178/22/29
f 179/22/29 174/21/9 173/21/9
f 174/21/9 179/22/29 180/22/29
f 175/21/9 182/23/30 181/23/30
f 182/23/30 175/21/9 176/21/9
f 179/22/33 183/22/32 178/22/31
f 183/22/32 179/22/33 184/22/34
f 186/23/35 183/22/32 185/21/17
f 183/22/32 186/23/35 176/21/17
f 176/21/17 186/23/35 182/23/36
f 178/22/31 183/22/32 176/21/17
f 187/23/37 182/23/36 186/23/35
f 182/23/36 187/23/37 171/23/38
f 184/22/34 187/23/37 188/21/16
f 187/23/37 184/22/34 173/21/16
f 173/21/16 184/22/34 179/22/33
f 171/23/38 187/23/37 173/21/16

g pitstop-garage-closed




usemtl colormap

f 3/1/2 2/1/1 1/1/1
f 2/1/1 3/1/2 4/1/2
f 7/2/4 6/2/3 5/2/3
f 6/2/3 7/2/4 8/2/4
f 11/3/5 10/4/6 9/3/5
f 10/4/6 11/3/5 12/4/6
f 15/4/7 14/3/8 13/4/7
f 14/3/8 15/4/7 16/3/8
f 2/1/1 13/4/7 1/1/1
f 13/4/7 2/1/1 15/4/7
f 7/2/4 9/3/5 8/2/4
f 9/3/5 7/2/4 11/3/5
f 12/4/6 3/1/2 10/4/6
f 3/1/2 12/4/6 4/1/2
f 16/3/8 6/2/3 14/3/8
f 6/2/3 16/3/8 5/2/3
f 16/3/9 7/2/9 5/2/9
f 7/2/9 16/3/9 11/3/9
f 11/3/9 16/3/9 15/4/9
f 11/3/9 15/4/9 12/4/9
f 12/4/9 15/4/9 2/1/9
f 12/4/9 2/1/9 4/1/9
f 19/5/10 18/5/10 17/5/10
f 18/5/10 19/5/10 20/5/10
f 23/6/11 22/6/12 21/6/11
f 22/6/12 23/6/11 24/6/12
f 24/6/12 17/5/13 22/6/12
f 17/5/13 24/6/12 19/5/13
f 27/6/14 26/7/9 25/7/9
f 26/7/9 27/6/14 28/6/14
f 25/7/9 30/8/15 29/8/15
f 30/8/15 25/7/9 26/7/9
f 33/6/14 32/7/9 31/7/9
f 32/7/9 33/6/14 34/6/14
f 31/7/9 36/8/15 35/8/15
f 36/8/15 31/7/9 32/7/9
f 39/11/16 38/10/16 37/9/16
f 38/10/16 39/11/16 40/11/16
f 43/11/17 42/9/17 41/10/17
f 42/9/17 43/11/17 44/11/17
f 42/9/18 39/11/18 37/9/18
f 39/11/18 42/9/18 44/11/18
f 40/11/19 41/10/19 38/10/19
f 41/10/19 40/11/19 43/11/19
f 47/11/16 46/10/16 45/9/16
f 46/10/16 47/11/16 48/11/16
f 51/11/17 50/9/17 49/10/17
f 50/9/17 51/11/17 52/11/17
f 50/9/18 47/11/18 45/9/18
f 47/11/18 50/9/18 52/11/18
f 48/11/19 49/10/19 46/10/19
f 49/10/19 48/11/19 51/11/19
f 55/11/16 54/10/16 53/9/16
f 54/10/16 55/11/16 56/11/16
f 59/11/17 58/9/17 57/10/17
f 58/9/17 59/11/17 60/11/17
f 58/9/18 55/11/18 53/9/18
f 55/11/18 58/9/18 60/11/18
f 56/11/19 57/10/19 54/10/19
f 57/10/19 56/11/19 59/11/19
f 63/12/20 62/13/21 61/12/20
f 62/13/21 63/12/20 64/13/21
f 67/10/23 66/10/22 65/10/22
f 66/10/22 67/10/23 68/10/23
f 71/11/25 70/11/24 69/11/24
f 70/11/24 71/11/25 72/11/25
f 75/13/26 74/12/27 73/13/26
f 74/12/27 75/13/26 76/12/27
f 76/12/27 67/10/23 74/12/27
f 67/10/23 76/12/27 68/10/23
f 66/10/22 61/12/20 65/10/22
f 61/12/20 66/10/22 63/12/20
f 64/13/21 70/11/24 62/13/21
f 70/11/24 64/13/21 69/11/24
f 71/11/25 73/13/26 72/11/25
f 73/13/26 71/11/25 75/13/26
f 79/14/17 78/15/17 77/14/17
f 78/15/17 79/14/17 80/15/17
f 78/15/28 81/14/28 77/14/28
f 81/14/28 78/15/28 82/15/28
f 83/15/16 81/14/16 82/15/16
f 81/14/16 83/15/16 84/14/16
f 83/15/9 79/14/9 84/14/9
f 79/14/9 83/15/9 80/15/9
f 87/15/9 86/14/9 85/14/9
f 86/14/9 87/15/9 88/15/9
f 91/15/9 90/14/9 89/14/9
f 90/14/9 91/15/9 92/15/9
f 95/16/16 94/17/16 93/16/16
f 94/17/16 95/16/16 96/17/16
f 97/16/11 95/16/11 93/16/11
f 95/16/11 97/16/11 98/16/11
f 100/17/17 97/16/17 99/17/17
f 97/16/17 100/17/17 98/16/17
f 97/16/28 94/17/28 99/17/28
f 94/17/28 97/16/28 93/16/28
f 103/17/17 102/18/17 101/17/17
f 102/18/17 103/17/17 104/18/17
f 102/18/9 105/17/9 101/17/9
f 105/17/9 102/18/9 106/18/9
f 107/18/10 102/18/10 104/18/10
f 102/18/10 107/18/10 106/18/10
f 96/17/9 104/18/9 103/17/9
f 104/18/9 96/17/9 95/16/9
f 104/18/9 95/16/9 107/18/9
f 98/16/9 107/18/9 95/16/9
f 100/17/9 107/18/9 98/16/9
f 107/18/9 100/17/9 108/17/9
f 107/18/16 105/17/16 106/18/16
f 105/17/16 107/18/16 108/17/16
f 100/17/10 105/17/10 108/17/10
f 99/17/10 105/17/10 100/17/10
f 99/17/10 101/17/10 105/17/10
f 94/17/10 101/17/10 99/17/10
f 94/17/10 103/17/10 101/17/10
f 103/17/10 94/17/10 96/17/10
f 110/19/17 77/20/17 109/19/17
f 77/20/17 110/19/17 79/20/17
f 84/20/16 111/19/16 81/20/16
f 111/19/16 84/20/16 112/19/16
f 77/20/28 111/19/28 109/19/28
f 111/19/28 77/20/28 81/20/28
f 84/20/9 110/19/9 112/19/9
f 110/19/9 84/20/9 79/20/9
f 110/19/10 111/19/10 112/19/10
f 111/19/10 110/19/10 109/19/10
f 115/22/29 114/21/9 113/21/9
f 114/21/9 115/22/29 116/22/29
f 113/21/9 118/23/30 117/23/30
f 118/23/30 113/21/9 114/21/9
f 121/22/29 120/21/9 119/21/9
f 120/21/9 121/22/29 122/22/29
f 122/22/29 121/22/29 123/22/29
f 122/22/29 123/22/29 124/22/29
f 119/21/9 116/23/30 115/23/30
f 116/23/30 119/21/9 120/21/9
f 127/21/9 126/23/30 125/23/30
f 126/23/30 127/21/9 128/21/9
f 131/22/29 130/21/9 129/21/9
f 130/21/9 131/22/29 132/22/29
f 133/22/29 128/21/9 127/21/9
f 128/21/9 133/22/29 134/22/29
f 129/21/9 136/23/30 135/23/30
f 136/23/30 129/21/9 130/21/9
f 133/22/33 137/22/32 132/22/31
f 137/22/32 133/22/33 138/22/34
f 140/23/35 137/22/32 139/21/17
f 137/22/32 140/23/35 130/21/17
f 130/21/17 140/23/35 136/23/36
f 132/22/31 137/22/32 130/21/17
f 141/23/37 136/23/36 140/23/35
f 136/23/36 141/23/37 125/23/38
f 138/22/34 141/23/37 142/21/16
f 141/23/37 138/22/34 127/21/16
f 127/21/16 138/22/34 133/22/33
f 125/23/38 141/23/37 127/21/16
f 145/22/29 144/21/9 143/21/9
f 144/21/9 145/22/29 146/22/29
f 143/21/9 148/23/30 147/23/30
f 148/23/30 143/21/9 149/23/30
f 149/23/30 143/21/9 150/23/30
f 150/23/30 143/21/9 144/21/9
f 153/22/29 152/21/9 151/21/9
f 152/21/9 153/22/29 154/22/29
f 151/21/9 156/23/30 155/23/30
f 156/23/30 151/21/9 152/21/9
f 159/22/29 158/21/9 157/21/9
f 158/21/9 159/22/29 160/22/29
f 160/22/29 159/22/29 161/22/29
f 160/22/29 161/22/29 162/22/29
f 157/21/9 154/23/30 153/23/30
f 154/23/30 157/21/9 158/21/9
f 165/22/29 164/21/9 163/21/9
f 164/21/9 165/22/29 166/22/29
f 163/21/9 168/23/30 167/23/30
f 168/23/30 163/21/9 169/23/30
f 169/23/30 163/21/9 170/23/30
f 170/23/30 163/21/9 164/21/9
f 173/21/9 172/23/30 171/23/30
f 172/23/30 173/21/9 174/21/9
f 177/22/29 176/21/9 175/21/9
f 176/21/9 177/22/29 178/22/29
f 179/22/29 174/21/9 173/21/9
f 174/21/9 179/22/29 180/22/29
f 175/21/9 182/23/30 181/23/30
f 182/23/30 175/21/9 176/21/9
f 179/22/33 183/22/32 178/22/31
f 183/22/32 179/22/33 184/22/34
f 186/23/35 183/22/32 185/21/17
f 183/22/32 186/23/35 176/21/17
f 176/21/17 186/23/35 182/23/36
f 178/22/31 183/22/32 176/21/17
f 187/23/37 182/23/36 186/23/35
f 182/23/36 187/23/37 171/23/38
f 184/22/34 187/23/37 188/21/16
f 187/23/37 184/22/34 173/21/16
f 173/21/16 184/22/34 179/22/33
f 171/23/38 187/23/37 173/21/16

