# Created by Kenney (www.kenney.nl)

mtllib pitstop-windows.mtl

g pitstop-windows

v 0.04999998 0.2 0.9 1 1 1
v 0.04999998 0.25 0.9 1 1 1
v 0.04999998 0.2 1.05 1 1 1
v 0.04999998 0.25 1.05 1 1 1
v 0.9 0.25 0.9 1 1 1
v 0.9 0.2 0.9 1 1 1
v 0.9 0.25 1.05 1 1 1
v 0.9 0.2 1.05 1 1 1
v 0.85 0.2 1.1 1 1 1
v 0.09999996 0.2 1.1 1 1 1
v 0.85 0.25 1.1 1 1 1
v 0.09999996 0.25 1.1 1 1 1
v -0.9 0.2 0.9 1 1 1
v -0.9 0.25 0.9 1 1 1
v -0.9 0.2 1.05 1 1 1
v -0.9 0.25 1.05 1 1 1
v -0.04999998 0.25 0.9 1 1 1
v -0.04999998 0.2 0.9 1 1 1
v -0.04999998 0.25 1.05 1 1 1
v -0.04999998 0.2 1.05 1 1 1
v -0.09999996 0.2 1.1 1 1 1
v -0.85 0.2 1.1 1 1 1
v -0.09999996 0.25 1.1 1 1 1
v -0.85 0.25 1.1 1 1 1
v 0.8 0.35 0.85 1 1 1
v 0.8 0.35 0.9 1 1 1
v 0.15 0.35 0.85 1 1 1
v 0.15 0.35 0.9 1 1 1
v 0.8 0.7 0.85 1 1 1
v 0.8 0.7 0.9 1 1 1
v 0.15 0.7 0.9 1 1 1
v 0.15 0.7 0.85 1 1 1
v 0.525 0.35 0.875 1 1 1
v 0.425 0.35 0.875 1 1 1
v 0.525 0.7 0.875 1 1 1
v 0.425 0.7 0.875 1 1 1
v 0.9 0.8 0.9 1 1 1
v 0.04999998 0.8 0.9 1 1 1
v -0.15 0.35 0.85 1 1 1
v -0.15 0.35 0.9 1 1 1
v -0.8 0.35 0.85 1 1 1
v -0.8 0.35 0.9 1 1 1
v -0.15 0.7 0.85 1 1 1
v -0.15 0.7 0.9 1 1 1
v -0.8 0.7 0.9 1 1 1
v -0.8 0.7 0.85 1 1 1
v -0.425 0.35 0.875 1 1 1
v -0.525 0.35 0.875 1 1 1
v -0.425 0.7 0.875 1 1 1
v -0.525 0.7 0.875 1 1 1
v -0.04999998 0.8 0.9 1 1 1
v -0.9 0.8 0.9 1 1 1
v -0.9 0.8 1 1 1 1
v -0.9 0.2 1 1 1 1
v -1 0.2 -1 1 1 1
v -1 0.8 -1 1 1 1
v -1 0.2 1 1 1 1
v -1 0.8 1 1 1 1
v -0.05 0.2 0.9 1 1 1
v -0.05 0.8 0.9 1 1 1
v -0.05 0.2 1 1 1 1
v -0.05 0.8 1 1 1 1
v 0.05 0.8 0.9 1 1 1
v 0.05 0.2 0.9 1 1 1
v 0.05 0.8 1 1 1 1
v 0.05 0.2 1 1 1 1
v 1 0.2 1 1 1 1
v 0.9 0.2 1 1 1 1
v 1 0.8 1 1 1 1
v 0.9 0.8 1 1 1 1
v 1 0.8 -1 1 1 1
v 1 0.2 -1 1 1 1
v 0.8 0.9 -0.8 1 1 1
v 0.8 0.9 0.8 1 1 1
v -0.8 0.9 -0.8 1 1 1
v -0.8 0.9 0.8 1 1 1
v 0.8 1 -0.8 1 1 1
v 0.8 1 0.8 1 1 1
v -0.8 1 0.8 1 1 1
v -0.8 1 -0.8 1 1 1
v -0.9 1 -0.9 1 1 1
v 0.9 1 -0.9 1 1 1
v -0.9 1 0.9 1 1 1
v 0.9 1 0.9 1 1 1
v 1 0 1 1 1 1
v 1 0 -1 1 1 1
v -1 0 1 1 1 1
v -1 0 -1 1 1 1
v -0.9 1.05 -0.9 1 1 1
v -0.9 0.9 -0.9 1 1 1
v -0.9 1.05 0.9 1 1 1
v -0.9 0.9 0.9 1 1 1
v 0.9 0.9 -0.9 1 1 1
v 0.9 1.05 -0.9 1 1 1
v 0.9 0.9 0.9 1 1 1
v 0.9 1.05 0.9 1 1 1
v -1 0.8 -1.05 1 1 1
v 1 0.8 -1.05 1 1 1
v -1 1.05 -1.05 1 1 1
v 1 1.05 -1.05 1 1 1
v -1.05 0.8 -1 1 1 1
v -1.05 1.05 -1 1 1 1
v -1.05 0.8 1 1 1 1
v -1.05 1.05 1 1 1 1
v 1 0.8 1.05 1 1 1
v -1 0.8 1.05 1 1 1
v 1 1.05 1.05 1 1 1
v -1 1.05 1.05 1 1 1
v 1.05 1.05 -1 1 1 1
v 1.05 0.8 -1 1 1 1
v 1.05 1.05 1 1 1 1
v 1.05 0.8 1 1 1 1

vn -1 0 0
vn -0.9238795 0 0.3826834
vn 1 0 0
vn 0.9238795 0 0.3826834
vn 0.3826834 0 0.9238795
vn -0.3826834 0 0.9238795
vn 0 -1 0
vn 0 1 0
vn -0.7071068 0.7071068 0
vn 0.7071068 0.7071068 0
vn -0.7071068 -0.7071068 0
vn 0.7071068 -0.7071068 0
vn 0 0 1
vn 0 0 -1
vn 0.7071068 0 0.7071068
vn 0.7071068 0 -0.7071068
vn -0.7071068 0 0.7071068
vn -0.7071068 0 -0.7071068
vn -0.3826834 0 -0.9238795
vn 0.3826834 0 -0.9238795
vn -0.9238795 0 -0.3826834
vn 0.9238795 0 -0.3826834

vt 0.46875 0.025
vt 0.46875 0.105
vt 0.46875 0.175
vt 0.46875 0.05833335
vt 0.46875 0.225
vt 0.46875 0.075
vt 0.21875 0.175
vt 0.21875 0.05833335
vt 0.21875 0.075
vt 0.21875 0.425
vt 0.21875 0.365
vt 0.21875 0.325

usemtl colormap

f 3/1/2 2/2/1 1/1/1
f 2/2/1 3/1/2 4/2/2
f 7/2/4 6/1/3 5/2/3
f 6/1/3 7/2/4 8/1/4
f 11/2/5 10/1/6 9/1/5
f 10/1/6 11/2/5 12/2/6
f 7/2/4 9/1/5 8/1/4
f 9/1/5 7/2/4 11/2/5
f 12/2/6 3/1/2 10/1/6
f 3/1/2 12/2/6 4/2/2
f 9/1/7 6/1/7 8/1/7
f 6/1/7 9/1/7 1/1/7
f 1/1/7 9/1/7 10/1/7
f 1/1/7 10/1/7 3/1/7
f 2/2/8 7/2/8 5/2/8
f 7/2/8 2/2/8 11/2/8
f 11/2/8 2/2/8 12/2/8
f 12/2/8 2/2/8 4/2/8
f 15/1/2 14/2/1 13/1/1
f 14/2/1 15/1/2 16/2/2
f 19/2/4 18/1/3 17/2/3
f 18/1/3 19/2/4 20/1/4
f 23/2/5 22/1/6 21/1/5
f 22/1/6 23/2/5 24/2/6
f 19/2/4 21/1/5 20/1/4
f 21/1/5 19/2/4 23/2/5
f 24/2/6 15/1/2 22/1/6
f 15/1/2 24/2/6 16/2/2
f 21/1/7 18/1/7 20/1/7
f 18/1/7 21/1/7 13/1/7
f 13/1/7 21/1/7 22/1/7
f 13/1/7 22/1/7 15/1/7
f 14/2/8 19/2/8 17/2/8
f 19/2/8 14/2/8 23/2/8
f 23/2/8 14/2/8 24/2/8
f 24/2/8 14/2/8 16/2/8
f 27/3/10 26/3/9 25/3/9
f 26/3/9 27/3/10 28/3/10
f 26/3/9 29/4/11 25/3/9
f 29/4/11 26/3/9 30/4/11
f 31/4/12 29/4/11 30/4/11
f 29/4/11 31/4/12 32/4/12
f 31/4/12 27/3/10 32/4/12
f 27/3/10 31/4/12 28/3/10
f 35/4/13 34/3/13 33/3/13
f 34/3/13 35/4/13 36/4/13
f 26/3/13 37/1/13 30/4/13
f 30/4/13 37/1/13 31/4/13
f 26/3/13 6/5/13 37/1/13
f 38/1/13 31/4/13 37/1/13
f 6/5/13 26/3/13 1/5/13
f 38/1/13 28/3/13 31/4/13
f 1/5/13 28/3/13 38/1/13
f 28/3/13 1/5/13 26/3/13
f 41/3/10 40/3/9 39/3/9
f 40/3/9 41/3/10 42/3/10
f 40/3/9 43/4/11 39/3/9
f 43/4/11 40/3/9 44/4/11
f 45/4/12 43/4/11 44/4/11
f 43/4/11 45/4/12 46/4/12
f 45/4/12 41/3/10 46/4/12
f 41/3/10 45/4/12 42/3/10
f 49/4/13 48/3/13 47/3/13
f 48/3/13 49/4/13 50/4/13
f 40/3/13 51/1/13 44/4/13
f 44/4/13 51/1/13 45/4/13
f 40/3/13 18/5/13 51/1/13
f 52/1/13 45/4/13 51/1/13
f 18/5/13 40/3/13 13/5/13
f 52/1/13 42/3/13 45/4/13
f 13/5/13 42/3/13 52/1/13
f 42/3/13 13/5/13 40/3/13
f 53/6/3 13/3/3 52/6/3
f 13/3/3 53/6/3 54/3/3
f 57/3/1 56/6/1 55/3/1
f 56/6/1 57/3/1 58/6/1
f 53/6/13 57/3/13 54/3/13
f 57/3/13 53/6/13 58/6/13
f 61/3/1 60/6/1 59/3/1
f 60/6/1 61/3/1 62/6/1
f 65/6/3 64/3/3 63/6/3
f 64/3/3 65/6/3 66/3/3
f 65/6/13 61/3/13 66/3/13
f 61/3/13 65/6/13 62/6/13
f 69/6/13 68/3/13 67/3/13
f 68/3/13 69/6/13 70/6/13
f 68/3/1 37/6/1 6/3/1
f 37/6/1 68/3/1 70/6/1
f 69/6/3 72/3/3 71/6/3
f 72/3/3 69/6/3 67/3/3
f 56/6/14 72/3/14 55/3/14
f 72/3/14 56/6/14 71/6/14
f 75/6/8 74/6/8 73/6/8
f 74/6/8 75/6/8 76/6/8
f 74/6/1 77/3/1 73/6/1
f 77/3/1 74/6/1 78/3/1
f 79/3/14 74/6/14 76/6/14
f 74/6/14 79/3/14 78/3/14
f 77/3/13 75/6/13 73/6/13
f 75/6/13 77/3/13 80/3/13
f 79/3/3 75/6/3 80/3/3
f 75/6/3 79/3/3 76/6/3
f 77/3/8 81/3/8 80/3/8
f 80/3/8 81/3/8 79/3/8
f 77/3/8 82/3/8 81/3/8
f 83/3/8 79/3/8 81/3/8
f 82/3/8 77/3/8 84/3/8
f 83/3/8 78/3/8 79/3/8
f 84/3/8 78/3/8 83/3/8
f 78/3/8 84/3/8 77/3/8
f 29/8/13 27/7/13 25/7/13
f 27/7/13 29/8/13 32/8/13
f 43/8/13 41/7/13 39/7/13
f 41/7/13 43/8/13 46/8/13
f 87/7/7 86/7/7 85/7/7
f 86/7/7 87/7/7 88/7/7
f 67/9/13 87/7/13 85/7/13
f 87/7/13 67/9/13 57/9/13
f 67/9/3 86/7/3 72/9/3
f 86/7/3 67/9/3 85/7/3
f 55/9/14 86/7/14 88/7/14
f 86/7/14 55/9/14 72/9/14
f 87/7/1 55/9/1 88/7/1
f 55/9/1 87/7/1 57/9/1
f 91/10/16 90/11/15 89/10/15
f 90/11/15 91/10/16 92/11/16
f 94/10/17 90/11/15 93/11/17
f 90/11/15 94/10/17 89/10/15
f 91/10/16 95/11/18 92/11/16
f 95/11/18 91/10/16 96/10/18
f 95/11/18 94/10/17 93/11/17
f 94/10/17 95/11/18 96/10/18
f 99/10/19 98/12/20 97/12/19
f 98/12/20 99/10/19 100/10/20
f 103/12/2 102/10/21 101/12/21
f 102/10/21 103/12/2 104/10/2
f 107/10/5 106/12/6 105/12/5
f 106/12/6 107/10/5 108/10/6
f 111/10/4 110/12/22 109/10/22
f 110/12/22 111/10/4 112/12/4
f 111/10/4 105/12/5 112/12/4
f 105/12/5 111/10/4 107/10/5
f 109/10/22 98/12/20 100/10/20
f 98/12/20 109/10/22 110/12/22
f 101/12/21 99/10/19 97/12/19
f 99/10/19 101/12/21 102/10/21
f 108/10/6 103/12/2 106/12/6
f 103/12/2 108/10/6 104/10/2
f 105/12/7 110/12/7 112/12/7
f 110/12/7 105/12/7 98/12/7
f 98/12/7 105/12/7 106/12/7
f 98/12/7 106/12/7 97/12/7
f 97/12/7 106/12/7 103/12/7
f 97/12/7 103/12/7 101/12/7
f 100/10/8 111/10/8 109/10/8
f 111/10/8 100/10/8 107/10/8
f 107/10/8 100/10/8 94/10/8
f 94/10/8 100/10/8 99/10/8
f 96/10/8 107/10/8 94/10/8
f 94/10/8 99/10/8 89/10/8
f 107/10/8 96/10/8 108/10/8
f 89/10/8 99/10/8 91/10/8
f 108/10/8 96/10/8 91/10/8
f 108/10/8 91/10/8 99/10/8
f 108/10/8 99/10/8 102/10/8
f 108/10/8 102/10/8 104/10/8

g pitstop-windows




usemtl colormap

f 3/1/2 2/2/1 1/1/1
f 2/2/1 3/1/2 4/2/2
f 7/2/4 6/1/3 5/2/3
f 6/1/3 7/2/4 8/1/4
f 11/2/5 10/1/6 9/1/5
f 10/1/6 11/2/5 12/2/6
f 7/2/4 9/1/5 8/1/4
f 9/1/5 7/2/4 11/2/5
f 12/2/6 3/1/2 10/1/6
f 3/1/2 12/2/6 4/2/2
f 9/1/7 6/1/7 8/1/7
f 6/1/7 9/1/7 1/1/7
f 1/1/7 9/1/7 10/1/7
f 1/1/7 10/1/7 3/1/7
f 2/2/8 7/2/8 5/2/8
f 7/2/8 2/2/8 11/2/8
f 11/2/8 2/2/8 12/2/8
f 12/2/8 2/2/8 4/2/8
f 15/1/2 14/2/1 13/1/1
f 14/2/1 15/1/2 16/2/2
f 19/2/4 18/1/3 17/2/3
f 18/1/3 19/2/4 20/1/4
f 23/2/5 22/1/6 21/1/5
f 22/1/6 23/2/5 24/2/6
f 19/2/4 21/1/5 20/1/4
f 21/1/5 19/2/4 23/2/5
f 24/2/6 15/1/2 22/1/6
f 15/1/2 24/2/6 16/2/2
f 21/1/7 18/1/7 20/1/7
f 18/1/7 21/1/7 13/1/7
f 13/1/7 21/1/7 22/1/7
f 13/1/7 22/1/7 15/1/7
f 14/2/8 19/2/8 17/2/8
f 19/2/8 14/2/8 23/2/8
f 23/2/8 14/2/8 24/2/8
f 24/2/8 14/2/8 16/2/8
f 27/3/10 26/3/9 25/3/9
f 26/3/9 27/3/10 28/3/10
f 26/3/9 29/4/11 25/3/9
f 29/4/11 26/3/9 30/4/11
f 31/4/12 29/4/11 30/4/11
f 29/4/11 31/4/12 32/4/12
f 31/4/12 27/3/10 32/4/12
f 27/3/10 31/4/12 28/3/10
f 35/4/13 34/3/13 33/3/13
f 34/3/13 35/4/13 36/4/13
f 26/3/13 37/1/13 30/4/13
f 30/4/13 37/1/13 31/4/13
f 26/3/13 6/5/13 37/1/13
f 38/1/13 31/4/13 37/1/13
f 6/5/13 26/3/13 1/5/13
f 38/1/13 28/3/13 31/4/13
f 1/5/13 28/3/13 38/1/13
f 28/3/13 1/5/13 26/3/13
f 41/3/10 40/3/9 39/3/9
f 40/3/9 41/3/10 42/3/10
f 40/3/9 43/4/11 39/3/9
f 43/4/11 40/3/9 44/4/11
f 45/4/12 43/4/11 44/4/11
f 43/4/11 45/4/12 46/4/12
f 45/4/12 41/3/10 46/4/12
f 41/3/10 45/4/12 42/3/10
f 49/4/13 48/3/13 47/3/13
f 48/3/13 49/4/13 50/4/13
f 40/3/13 51/1/13 44/4/13
f 44/4/13 51/1/13 45/4/13
f 40/3/13 18/5/13 51/1/13
f 52/1/13 45/4/13 51/1/13
f 18/5/13 40/3/13 13/5/13
f 52/1/13 42/3/13 45/4/13
f 13/5/13 42/3/13 52/1/13
f 42/3/13 13/5/13 40/3/13
f 53/6/3 13/3/3 52/6/3
f 13/3/3 53/6/3 54/3/3
f 57/3/1 56/6/1 55/3/1
f 56/6/1 57/3/1 58/6/1
f 53/6/13 57/3/13 54/3/13
f 57/3/13 53/6/13 58/6/13
f 61/3/1 60/6/1 59/3/1
f 60/6/1 61/3/1 62/6/1
f 65/6/3 64/3/3 63/6/3
f 64/3/3 65/6/3 66/3/3
f 65/6/13 61/3/13 66/3/13
f 61/3/13 65/6/13 62/6/13
f 69/6/13 68/3/13 67/3/13
f 68/3/13 69/6/13 70/6/13
f 68/3/1 37/6/1 6/3/1
f 37/6/1 68/3/1 70/6/1
f 69/6/3 72/3/3 71/6/3
f 72/3/3 69/6/3 67/3/3
f 56/6/14 72/3/14 55/3/14
f 72/3/14 56/6/14 71/6/14
f 75/6/8 74/6/8 73/6/8
f 74/6/8 75/6/8 76/6/8
f 74/6/1 77/3/1 73/6/1
f 77/3/1 74/6/1 78/3/1
f 79/3/14 74/6/14 76/6/14
f 74/6/14 79/3/14 78/3/14
f 77/3/13 75/6/13 73/6/13
f 75/6/13 77/3/13 80/3/13
f 79/3/3 75/6/3 80/3/3
f 75/6/3 79/3/3 76/6/3
f 77/3/8 81/3/8 80/3/8
f 80/3/8 81/3/8 79/3/8
f 77/3/8 82/3/8 81/3/8
f 83/3/8 79/3/8 81/3/8
f 82/3/8 77/3/8 84/3/8
f 83/3/8 78/3/8 79/3/8
f 84/3/8 78/3/8 83/3/8
f 78/3/8 84/3/8 77/3/8
f 29/8/13 27/7/13 25/7/13
f 27/7/13 29/8/13 32/8/13
f 43/8/13 41/7/13 39/7/13
f 41/7/13 43/8/13 46/8/13
f 87/7/7 86/7/7 85/7/7
f 86/7/7 87/7/7 88/7/7
f 67/9/13 87/7/13 85/7/13
f 87/7/13 67/9/13 57/9/13
f 67/9/3 86/7/3 72/9/3
f 86/7/3 67/9/3 85/7/3
f 55/9/14 86/7/14 88/7/14
f 86/7/14 55/9/14 72/9/14
f 87/7/1 55/9/1 88/7/1
f 55/9/1 87/7/1 57/9/1
f 91/10/16 90/11/15 89/10/15
f 90/11/15 91/10/16 92/11/16
f 94/10/17 90/11/15 93/11/17
f 90/11/15 94/10/17 89/10/15
f 91/10/16 95/11/18 92/11/16
f 95/11/18 91/10/16 96/10/18
f 95/11/18 94/10/17 93/11/17
f 94/10/17 95/11/18 96/10/18
f 99/10/19 98/12/20 97/12/19
f 98/12/20 99/10/19 100/10/20
f 103/12/2 102/10/21 101/12/21
f 102/10/21 103/12/2 104/10/2
f 107/10/5 106/12/6 105/12/5
f 106/12/6 107/10/5 108/10/6
f 111/10/4 110/12/22 109/10/22
f 110/12/22 111/10/4 112/12/4
f 111/10/4 105/12/5 112/12/4
f 105/12/5 111/10/4 107/10/5
f 109/10/22 98/12/20 100/10/20
f 98/12/20 109/10/22 110/12/22
f 101/12/21 99/10/19 97/12/19
f 99/10/19 101/12/21 102/10/21
f 108/10/6 103/12/2 106/12/6
f 103/12/2 108/10/6 104/10/2
f 105/12/7 110/12/7 112/12/7
f 110/12/7 105/12/7 98/12/7
f 98/12/7 105/12/7 106/12/7
f 98/12/7 106/12/7 97/12/7
f 97/12/7 106/12/7 103/12/7
f 97/12/7 103/12/7 101/12/7
f 100/10/8 111/10/8 109/10/8
f 111/10/8 100/10/8 107/10/8
f 107/10/8 100/10/8 94/10/8
f 94/10/8 100/10/8 99/10/8
f 96/10/8 107/10/8 94/10/8
f 94/10/8 99/10/8 89/10/8
f 107/10/8 96/10/8 108/10/8
f 89/10/8 99/10/8 91/10/8
f 108/10/8 96/10/8 91/10/8
f 108/10/8 91/10/8 99/10/8
f 108/10/8 99/10/8 102/10/8
f 108/10/8 102/10/8 104/10/8

