# Created by Kenney (www.kenney.nl)

mtllib pitstop-windows-roof.mtl

g pitstop-windows-roof

v -0.7447214 1.427639 -0.85 1 1 1
v 7.219114E-16 1.8 -0.85 1 1 1
v -0.8118034 1.561803 -0.85 1 1 1
v -0.0559017 1.939754 -0.85 1 1 1
v 0.0559017 1.939754 -0.85 1 1 1
v 0.8118034 1.561803 -0.85 1 1 1
v 0.7447214 1.427639 -0.85 1 1 1
v 0.9012461 1.517082 -0.75 1 1 1
v 0.8341641 1.382918 -0.75 1 1 1
v 0.9012461 1.517082 0.75 1 1 1
v 0.8341641 1.382918 0.75 1 1 1
v -0.8341641 1.382918 -0.75 1 1 1
v -0.9012461 1.517082 -0.75 1 1 1
v -0.8341641 1.382918 0.75 1 1 1
v -0.9012461 1.517082 0.75 1 1 1
v 0.7447214 1.427639 0.85 1 1 1
v 7.219114E-16 1.8 0.85 1 1 1
v 0.8118034 1.561803 0.85 1 1 1
v 0.0559017 1.939754 0.85 1 1 1
v -0.0559017 1.939754 0.85 1 1 1
v -0.8118034 1.561803 0.85 1 1 1
v -0.7447214 1.427639 0.85 1 1 1
v -0.9 1.05 -0.9 1 1 1
v -0.9 0.9 -0.9 1 1 1
v -0.9 1.05 0.9 1 1 1
v -0.9 0.9 0.9 1 1 1
v 0.9 0.9 -0.9 1 1 1
v 0.9 1.05 -0.9 1 1 1
v 0.9 0.9 0.9 1 1 1
v 0.9 1.05 0.9 1 1 1
v -1 0.8 -1.05 1 1 1
v 1 0.8 -1.05 1 1 1
v -1 1.05 -1.05 1 1 1
v 1 1.05 -1.05 1 1 1
v -1.05 0.8 -1 1 1 1
v -1.05 1.05 -1 1 1 1
v -1.05 0.8 1 1 1 1
v -1.05 1.05 1 1 1 1
v 1 0.8 1.05 1 1 1
v -1 0.8 1.05 1 1 1
v 1 1.05 1.05 1 1 1
v -1 1.05 1.05 1 1 1
v 1.05 1.05 -1 1 1 1
v 1.05 0.8 -1 1 1 1
v 1.05 1.05 1 1 1 1
v 1.05 0.8 1 1 1 1
v 0.04999998 0.2 0.9 1 1 1
v 0.04999998 0.25 0.9 1 1 1
v 0.04999998 0.2 1.05 1 1 1
v 0.04999998 0.25 1.05 1 1 1
v 0.9 0.25 0.9 1 1 1
v 0.9 0.2 0.9 1 1 1
v 0.9 0.25 1.05 1 1 1
v 0.9 0.2 1.05 1 1 1
v 0.85 0.2 1.1 1 1 1
v 0.09999996 0.2 1.1 1 1 1
v 0.85 0.25 1.1 1 1 1
v 0.09999996 0.25 1.1 1 1 1
v -0.9 0.2 0.9 1 1 1
v -0.9 0.25 0.9 1 1 1
v -0.9 0.2 1.05 1 1 1
v -0.9 0.25 1.05 1 1 1
v -0.04999998 0.25 0.9 1 1 1
v -0.04999998 0.2 0.9 1 1 1
v -0.04999998 0.25 1.05 1 1 1
v -0.04999998 0.2 1.05 1 1 1
v -0.09999996 0.2 1.1 1 1 1
v -0.85 0.2 1.1 1 1 1
v -0.09999996 0.25 1.1 1 1 1
v -0.85 0.25 1.1 1 1 1
v 0.8 0.35 0.85 1 1 1
v 0.8 0.35 0.9 1 1 1
v 0.15 0.35 0.85 1 1 1
v 0.15 0.35 0.9 1 1 1
v 0.8 0.7 0.85 1 1 1
v 0.8 0.7 0.9 1 1 1
v 0.15 0.7 0.9 1 1 1
v 0.15 0.7 0.85 1 1 1
v 0.525 0.35 0.875 1 1 1
v 0.425 0.35 0.875 1 1 1
v 0.525 0.7 0.875 1 1 1
v 0.425 0.7 0.875 1 1 1
v 0.9 0.8 0.9 1 1 1
v 0.04999998 0.8 0.9 1 1 1
v -0.15 0.35 0.85 1 1 1
v -0.15 0.35 0.9 1 1 1
v -0.8 0.35 0.85 1 1 1
v -0.8 0.35 0.9 1 1 1
v -0.15 0.7 0.85 1 1 1
v -0.15 0.7 0.9 1 1 1
v -0.8 0.7 0.9 1 1 1
v -0.8 0.7 0.85 1 1 1
v -0.425 0.35 0.875 1 1 1
v -0.525 0.35 0.875 1 1 1
v -0.425 0.7 0.875 1 1 1
v -0.525 0.7 0.875 1 1 1
v -0.04999998 0.8 0.9 1 1 1
v -0.9 0.8 0.9 1 1 1
v 0.325 0.9 0.55 1 1 1
v 0.325 1.35 0.55 1 1 1
v 0.325 0.9 0.6 1 1 1
v 0.325 1.35 0.6 1 1 1
v -0.325 1.35 0.6 1 1 1
v -0.325 1.35 0.55 1 1 1
v -0.325 0.9 0.55 1 1 1
v -0.325 0.9 0.6 1 1 1
v 0.05 0.9 0.575 1 1 1
v -0.05 0.9 0.575 1 1 1
v 0.05 1.35 0.575 1 1 1
v -0.05 1.35 0.575 1 1 1
v 0.425 0.9 0.6 1 1 1
v 0.425 1.45 0.6 1 1 1
v -0.425 1.45 0.6 1 1 1
v -0.425 0.9 0.6 1 1 1
v -0.9 0.8 1 1 1 1
v -0.9 0.2 1 1 1 1
v -1 0.2 -1 1 1 1
v -1 0.8 -1 1 1 1
v -1 0.2 1 1 1 1
v -1 0.8 1 1 1 1
v -0.05 0.2 0.9 1 1 1
v -0.05 0.8 0.9 1 1 1
v -0.05 0.2 1 1 1 1
v -0.05 0.8 1 1 1 1
v 0.05 0.8 0.9 1 1 1
v 0.05 0.2 0.9 1 1 1
v 0.05 0.8 1 1 1 1
v 0.05 0.2 1 1 1 1
v 1 0.2 1 1 1 1
v 0.9 0.2 1 1 1 1
v 1 0.8 1 1 1 1
v 0.9 0.8 1 1 1 1
v 1 0.8 -1 1 1 1
v 1 0.2 -1 1 1 1
v 0.425 0.9 0.7 1 1 1
v 0.425 1.45 0.7 1 1 1
v 0.7 0.9 0.7 1 1 1
v 0.7 1.45 0.7 1 1 1
v -0.425 1.45 0.7 1 1 1
v -0.7 1.45 0.7 1 1 1
v 0 1.8 0.7 1 1 1
v -0.7 0.9 0.7 1 1 1
v -0.425 0.9 0.7 1 1 1
v -0.7 0.9 -0.7 1 1 1
v -0.7 1.45 -0.7 1 1 1
v 0.7 0.9 -0.7 1 1 1
v 0.7 1.45 -0.7 1 1 1
v 0 1.8 -0.7 1 1 1
v 0.425 0.9 0.6 1 1 1
v 0.425 1.45 0.6 1 1 1
v -0.425 1.45 0.6 1 1 1
v -0.425 0.9 0.6 1 1 1
v 0.8 0.9 -0.8 1 1 1
v 0.8 0.9 0.8 1 1 1
v -0.8 0.9 -0.8 1 1 1
v -0.8 0.9 0.8 1 1 1
v 0.8 1 -0.8 1 1 1
v 0.8 1 0.8 1 1 1
v -0.8 1 0.8 1 1 1
v -0.8 1 -0.8 1 1 1
v -0.9 1 -0.9 1 1 1
v 0.9 1 -0.9 1 1 1
v -0.9 1 0.9 1 1 1
v 0.9 1 0.9 1 1 1
v 1 0 1 1 1 1
v 1 0 -1 1 1 1
v -1 0 1 1 1 1
v -1 0 -1 1 1 1

vn -0.3422824 -0.1711412 -0.9238795
vn 0 0 -1
vn 0.3422824 -0.1711412 -0.9238795
vn 0.8263429 -0.4131715 -0.3826834
vn 0.8263429 -0.4131715 0.3826834
vn -0.8263429 -0.4131715 -0.3826834
vn -0.8263429 -0.4131715 0.3826834
vn 0.3422824 -0.1711412 0.9238795
vn 0 0 1
vn -0.3422824 -0.1711412 0.9238795
vn 0.4472136 0.8944272 0
vn 0.2297529 0.973249 0
vn 0.4472136 -0.8944272 0
vn -0.4472136 -0.8944272 0
vn -0.2297529 0.973249 0
vn -0.4472136 0.8944272 0
vn 0.7071068 0 0.7071068
vn 0.7071068 0 -0.7071068
vn -0.7071068 0 0.7071068
vn -0.7071068 0 -0.7071068
vn -0.3826834 0 -0.9238795
vn 0.3826834 0 -0.9238795
vn -0.9238795 0 -0.3826834
vn -0.9238795 0 0.3826834
vn 0.3826834 0 0.9238795
vn -0.3826834 0 0.9238795
vn 0.9238795 0 -0.3826834
vn 0.9238795 0 0.3826834
vn 0 -1 0
vn 0 1 0
vn -1 0 0
vn 1 0 0
vn -0.7071068 0.7071068 0
vn 0.7071068 0.7071068 0
vn -0.7071068 -0.7071068 0
vn 0.7071068 -0.7071068 0

vt 0.21875 0.2910627
vt 0.21875 0.4248042
vt 0.21875 0.3392506
vt 0.21875 0.475
vt 0.21875 0.323188
vt 0.21875 0.275
vt 0.21875 0.425
vt 0.21875 0.365
vt 0.21875 0.325
vt 0.46875 0.025
vt 0.46875 0.105
vt 0.46875 0.175
vt 0.46875 0.05833335
vt 0.46875 0.225
vt 0.46875 0.2083333
vt 0.46875 0.075
vt 0.46875 0.1138889
vt 0.21875 0.175
vt 0.21875 0.05833335
vt 0.21875 0.2083333
vt 0.21875 0.075

usemtl colormap

f 3/3/1 2/2/2 1/1/1
f 2/2/2 3/3/1 4/4/2
f 5/4/2 2/2/2 4/4/2
f 6/3/3 2/2/2 5/4/2
f 2/2/2 6/3/3 7/1/3
f 10/5/5 9/6/4 8/5/4
f 9/6/4 10/5/5 11/6/5
f 14/6/7 13/5/6 12/6/6
f 13/5/6 14/6/7 15/5/7
f 18/3/8 17/2/9 16/1/8
f 17/2/9 18/3/8 19/4/9
f 20/4/9 17/2/9 19/4/9
f 21/3/10 17/2/9 20/4/9
f 17/2/9 21/3/10 22/1/10
f 7/1/3 8/5/4 9/6/4
f 8/5/4 7/1/3 6/3/3
f 10/5/5 16/1/8 11/6/5
f 16/1/8 10/5/5 18/3/8
f 13/5/6 1/1/1 12/6/6
f 1/1/1 13/5/6 3/3/1
f 22/1/10 15/5/7 14/6/7
f 15/5/7 22/1/10 21/3/10
f 6/3/11 10/5/11 8/5/11
f 10/5/11 6/3/11 18/3/11
f 18/3/11 6/3/11 5/4/12
f 18/3/11 5/4/12 19/4/12
f 22/1/13 2/2/13 17/2/13
f 2/2/13 22/1/13 1/1/13
f 1/1/13 22/1/13 14/6/13
f 1/1/13 14/6/13 12/6/13
f 16/1/14 9/6/14 11/6/14
f 9/6/14 16/1/14 7/1/14
f 7/1/14 16/1/14 17/2/14
f 7/1/14 17/2/14 2/2/14
f 3/3/16 20/4/15 4/4/15
f 20/4/15 3/3/16 21/3/16
f 21/3/16 3/3/16 13/5/16
f 21/3/16 13/5/16 15/5/16
f 4/4/15 19/4/12 5/4/12
f 19/4/12 4/4/15 20/4/15
f 25/7/18 24/8/17 23/7/17
f 24/8/17 25/7/18 26/8/18
f 28/7/19 24/8/17 27/8/19
f 24/8/17 28/7/19 23/7/17
f 25/7/18 29/8/20 26/8/18
f 29/8/20 25/7/18 30/7/20
f 29/8/20 28/7/19 27/8/19
f 28/7/19 29/8/20 30/7/20
f 33/7/21 32/9/22 31/9/21
f 32/9/22 33/7/21 34/7/22
f 37/9/24 36/7/23 35/9/23
f 36/7/23 37/9/24 38/7/24
f 41/7/25 40/9/26 39/9/25
f 40/9/26 41/7/25 42/7/26
f 45/7/28 44/9/27 43/7/27
f 44/9/27 45/7/28 46/9/28
f 45/7/28 39/9/25 46/9/28
f 39/9/25 45/7/28 41/7/25
f 43/7/27 32/9/22 34/7/22
f 32/9/22 43/7/27 44/9/27
f 35/9/23 33/7/21 31/9/21
f 33/7/21 35/9/23 36/7/23
f 42/7/26 37/9/24 40/9/26
f 37/9/24 42/7/26 38/7/24
f 39/9/29 44/9/29 46/9/29
f 44/9/29 39/9/29 32/9/29
f 32/9/29 39/9/29 40/9/29
f 32/9/29 40/9/29 31/9/29
f 31/9/29 40/9/29 37/9/29
f 31/9/29 37/9/29 35/9/29
f 34/7/30 45/7/30 43/7/30
f 45/7/30 34/7/30 41/7/30
f 41/7/30 34/7/30 28/7/30
f 28/7/30 34/7/30 33/7/30
f 30/7/30 41/7/30 28/7/30
f 28/7/30 33/7/30 23/7/30
f 41/7/30 30/7/30 42/7/30
f 23/7/30 33/7/30 25/7/30
f 42/7/30 30/7/30 25/7/30
f 42/7/30 25/7/30 33/7/30
f 42/7/30 33/7/30 36/7/30
f 42/7/30 36/7/30 38/7/30
f 49/10/24 48/11/31 47/10/31
f 48/11/31 49/10/24 50/11/24
f 53/11/28 52/10/32 51/11/32
f 52/10/32 53/11/28 54/10/28
f 57/11/25 56/10/26 55/10/25
f 56/10/26 57/11/25 58/11/26
f 53/11/28 55/10/25 54/10/28
f 55/10/25 53/11/28 57/11/25
f 58/11/26 49/10/24 56/10/26
f 49/10/24 58/11/26 50/11/24
f 55/10/29 52/10/29 54/10/29
f 52/10/29 55/10/29 47/10/29
f 47/10/29 55/10/29 56/10/29
f 47/10/29 56/10/29 49/10/29
f 48/11/30 53/11/30 51/11/30
f 53/11/30 48/11/30 57/11/30
f 57/11/30 48/11/30 58/11/30
f 58/11/30 48/11/30 50/11/30
f 61/10/24 60/11/31 59/10/31
f 60/11/31 61/10/24 62/11/24
f 65/11/28 64/10/32 63/11/32
f 64/10/32 65/11/28 66/10/28
f 69/11/25 68/10/26 67/10/25
f 68/10/26 69/11/25 70/11/26
f 65/11/28 67/10/25 66/10/28
f 67/10/25 65/11/28 69/11/25
f 70/11/26 61/10/24 68/10/26
f 61/10/24 70/11/26 62/11/24
f 67/10/29 64/10/29 66/10/29
f 64/10/29 67/10/29 59/10/29
f 59/10/29 67/10/29 68/10/29
f 59/10/29 68/10/29 61/10/29
f 60/11/30 65/11/30 63/11/30
f 65/11/30 60/11/30 69/11/30
f 69/11/30 60/11/30 70/11/30
f 70/11/30 60/11/30 62/11/30
f 73/12/34 72/12/33 71/12/33
f 72/12/33 73/12/34 74/12/34
f 72/12/33 75/13/35 71/12/33
f 75/13/35 72/12/33 76/13/35
f 77/13/36 75/13/35 76/13/35
f 75/13/35 77/13/36 78/13/36
f 77/13/36 73/12/34 78/13/36
f 73/12/34 77/13/36 74/12/34
f 81/13/9 80/12/9 79/12/9
f 80/12/9 81/13/9 82/13/9
f 72/12/9 83/10/9 76/13/9
f 76/13/9 83/10/9 77/13/9
f 72/12/9 52/14/9 83/10/9
f 84/10/9 77/13/9 83/10/9
f 52/14/9 72/12/9 47/14/9
f 84/10/9 74/12/9 77/13/9
f 47/14/9 74/12/9 84/10/9
f 74/12/9 47/14/9 72/12/9
f 87/12/34 86/12/33 85/12/33
f 86/12/33 87/12/34 88/12/34
f 86/12/33 89/13/35 85/12/33
f 89/13/35 86/12/33 90/13/35
f 91/13/36 89/13/35 90/13/35
f 89/13/35 91/13/36 92/13/36
f 91/13/36 87/12/34 92/13/36
f 87/12/34 91/13/36 88/12/34
f 95/13/9 94/12/9 93/12/9
f 94/12/9 95/13/9 96/13/9
f 86/12/9 97/10/9 90/13/9
f 90/13/9 97/10/9 91/13/9
f 86/12/9 64/14/9 97/10/9
f 98/10/9 91/13/9 97/10/9
f 64/14/9 86/12/9 59/14/9
f 98/10/9 88/12/9 91/13/9
f 59/14/9 88/12/9 98/10/9
f 88/12/9 59/14/9 86/12/9
f 101/15/31 100/13/35 99/15/31
f 100/13/35 101/15/31 102/13/35
f 103/13/36 100/13/35 102/13/35
f 100/13/35 103/13/36 104/13/36
f 103/13/36 105/15/32 104/13/36
f 105/15/32 103/13/36 106/15/32
f 109/13/9 108/15/9 107/15/9
f 108/15/9 109/13/9 110/13/9
f 112/10/9 101/15/9 111/15/9
f 101/15/9 112/10/9 102/13/9
f 102/13/9 112/10/9 103/13/9
f 113/10/9 103/13/9 112/10/9
f 113/10/9 106/15/9 103/13/9
f 106/15/9 113/10/9 114/15/9
f 115/16/32 59/12/32 98/16/32
f 59/12/32 115/16/32 116/12/32
f 119/12/31 118/16/31 117/12/31
f 118/16/31 119/12/31 120/16/31
f 115/16/9 119/12/9 116/12/9
f 119/12/9 115/16/9 120/16/9
f 123/12/31 122/16/31 121/12/31
f 122/16/31 123/12/31 124/16/31
f 127/16/32 126/12/32 125/16/32
f 126/12/32 127/16/32 128/12/32
f 127/16/9 123/12/9 128/12/9
f 123/12/9 127/16/9 124/16/9
f 131/16/9 130/12/9 129/12/9
f 130/12/9 131/16/9 132/16/9
f 130/12/31 83/16/31 52/12/31
f 83/16/31 130/12/31 132/16/31
f 131/16/32 134/12/32 133/16/32
f 134/12/32 131/16/32 129/12/32
f 118/16/2 134/12/2 117/12/2
f 134/12/2 118/16/2 133/16/2
f 137/12/9 136/17/9 135/12/9
f 136/17/9 137/12/9 138/17/9
f 136/17/9 138/17/9 139/17/9
f 140/17/9 139/17/9 138/17/9
f 140/17/9 138/17/9 141/16/9
f 142/12/9 139/17/9 140/17/9
f 139/17/9 142/12/9 143/12/9
f 142/12/31 145/17/31 144/12/31
f 145/17/31 142/12/31 140/17/31
f 145/17/2 146/12/2 144/12/2
f 146/12/2 145/17/2 147/17/2
f 147/17/2 145/17/2 148/16/2
f 138/17/32 146/12/32 147/17/32
f 146/12/32 138/17/32 137/12/32
f 135/12/31 150/17/31 149/12/31
f 150/17/31 135/12/31 136/17/31
f 139/17/29 150/17/29 136/17/29
f 150/17/29 139/17/29 151/17/29
f 139/17/32 152/12/32 151/17/32
f 152/12/32 139/17/32 143/12/32
f 155/16/30 154/16/30 153/16/30
f 154/16/30 155/16/30 156/16/30
f 154/16/31 157/12/31 153/16/31
f 157/12/31 154/16/31 158/12/31
f 159/12/2 154/16/2 156/16/2
f 154/16/2 159/12/2 158/12/2
f 157/12/9 155/16/9 153/16/9
f 155/16/9 157/12/9 160/12/9
f 159/12/32 155/16/32 160/12/32
f 155/16/32 159/12/32 156/16/32
f 157/12/30 161/12/30 160/12/30
f 160/12/30 161/12/30 159/12/30
f 157/12/30 162/12/30 161/12/30
f 163/12/30 159/12/30 161/12/30
f 162/12/30 157/12/30 164/12/30
f 163/12/30 158/12/30 159/12/30
f 164/12/30 158/12/30 163/12/30
f 158/12/30 164/12/30 157/12/30
f 75/19/9 73/18/9 71/18/9
f 73/18/9 75/19/9 78/19/9
f 89/19/9 87/18/9 85/18/9
f 87/18/9 89/19/9 92/19/9
f 100/19/9 105/20/9 99/20/9
f 105/20/9 100/19/9 104/19/9
f 167/18/29 166/18/29 165/18/29
f 166/18/29 167/18/29 168/18/29
f 129/21/9 167/18/9 165/18/9
f 167/18/9 129/21/9 119/21/9
f 129/21/32 166/18/32 134/21/32
f 166/18/32 129/21/32 165/18/32
f 117/21/2 166/18/2 168/18/2
f 166/18/2 117/21/2 134/21/2
f 167/18/31 117/21/31 168/18/31
f 117/21/31 167/18/31 119/21/31

g pitstop-windows-roof




usemtl colormap

f 3/3/1 2/2/2 1/1/1
f 2/2/2 3/3/1 4/4/2
f 5/4/2 2/2/2 4/4/2
f 6/3/3 2/2/2 5/4/2
f 2/2/2 6/3/3 7/1/3
f 10/5/5 9/6/4 8/5/4
f 9/6/4 10/5/5 11/6/5
f 14/6/7 13/5/6 12/6/6
f 13/5/6 14/6/7 15/5/7
f 18/3/8 17/2/9 16/1/8
f 17/2/9 18/3/8 19/4/9
f 20/4/9 17/2/9 19/4/9
f 21/3/10 17/2/9 20/4/9
f 17/2/9 21/3/10 22/1/10
f 7/1/3 8/5/4 9/6/4
f 8/5/4 7/1/3 6/3/3
f 10/5/5 16/1/8 11/6/5
f 16/1/8 10/5/5 18/3/8
f 13/5/6 1/1/1 12/6/6
f 1/1/1 13/5/6 3/3/1
f 22/1/10 15/5/7 14/6/7
f 15/5/7 22/1/10 21/3/10
f 6/3/11 10/5/11 8/5/11
f 10/5/11 6/3/11 18/3/11
f 18/3/11 6/3/11 5/4/12
f 18/3/11 5/4/12 19/4/12
f 22/1/13 2/2/13 17/2/13
f 2/2/13 22/1/13 1/1/13
f 1/1/13 22/1/13 14/6/13
f 1/1/13 14/6/13 12/6/13
f 16/1/14 9/6/14 11/6/14
f 9/6/14 16/1/14 7/1/14
f 7/1/14 16/1/14 17/2/14
f 7/1/14 17/2/14 2/2/14
f 3/3/16 20/4/15 4/4/15
f 20/4/15 3/3/16 21/3/16
f 21/3/16 3/3/16 13/5/16
f 21/3/16 13/5/16 15/5/16
f 4/4/15 19/4/12 5/4/12
f 19/4/12 4/4/15 20/4/15
f 25/7/18 24/8/17 23/7/17
f 24/8/17 25/7/18 26/8/18
f 28/7/19 24/8/17 27/8/19
f 24/8/17 28/7/19 23/7/17
f 25/7/18 29/8/20 26/8/18
f 29/8/20 25/7/18 30/7/20
f 29/8/20 28/7/19 27/8/19
f 28/7/19 29/8/20 30/7/20
f 33/7/21 32/9/22 31/9/21
f 32/9/22 33/7/21 34/7/22
f 37/9/24 36/7/23 35/9/23
f 36/7/23 37/9/24 38/7/24
f 41/7/25 40/9/26 39/9/25
f 40/9/26 41/7/25 42/7/26
f 45/7/28 44/9/27 43/7/27
f 44/9/27 45/7/28 46/9/28
f 45/7/28 39/9/25 46/9/28
f 39/9/25 45/7/28 41/7/25
f 43/7/27 32/9/22 34/7/22
f 32/9/22 43/7/27 44/9/27
f 35/9/23 33/7/21 31/9/21
f 33/7/21 35/9/23 36/7/23
f 42/7/26 37/9/24 40/9/26
f 37/9/24 42/7/26 38/7/24
f 39/9/29 44/9/29 46/9/29
f 44/9/29 39/9/29 32/9/29
f 32/9/29 39/9/29 40/9/29
f 32/9/29 40/9/29 31/9/29
f 31/9/29 40/9/29 37/9/29
f 31/9/29 37/9/29 35/9/29
f 34/7/30 45/7/30 43/7/30
f 45/7/30 34/7/30 41/7/30
f 41/7/30 34/7/30 28/7/30
f 28/7/30 34/7/30 33/7/30
f 30/7/30 41/7/30 28/7/30
f 28/7/30 33/7/30 23/7/30
f 41/7/30 30/7/30 42/7/30
f 23/7/30 33/7/30 25/7/30
f 42/7/30 30/7/30 25/7/30
f 42/7/30 25/7/30 33/7/30
f 42/7/30 33/7/30 36/7/30
f 42/7/30 36/7/30 38/7/30
f 49/10/24 48/11/31 47/10/31
f 48/11/31 49/10/24 50/11/24
f 53/11/28 52/10/32 51/11/32
f 52/10/32 53/11/28 54/10/28
f 57/11/25 56/10/26 55/10/25
f 56/10/26 57/11/25 58/11/26
f 53/11/28 55/10/25 54/10/28
f 55/10/25 53/11/28 57/11/25
f 58/11/26 49/10/24 56/10/26
f 49/10/24 58/11/26 50/11/24
f 55/10/29 52/10/29 54/10/29
f 52/10/29 55/10/29 47/10/29
f 47/10/29 55/10/29 56/10/29
f 47/10/29 56/10/29 49/10/29
f 48/11/30 53/11/30 51/11/30
f 53/11/30 48/11/30 57/11/30
f 57/11/30 48/11/30 58/11/30
f 58/11/30 48/11/30 50/11/30
f 61/10/24 60/11/31 59/10/31
f 60/11/31 61/10/24 62/11/24
f 65/11/28 64/10/32 63/11/32
f 64/10/32 65/11/28 66/10/28
f 69/11/25 68/10/26 67/10/25
f 68/10/26 69/11/25 70/11/26
f 65/11/28 67/10/25 66/10/28
f 67/10/25 65/11/28 69/11/25
f 70/11/26 61/10/24 68/10/26
f 61/10/24 70/11/26 62/11/24
f 67/10/29 64/10/29 66/10/29
f 64/10/29 67/10/29 59/10/29
f 59/10/29 67/10/29 68/10/29
f 59/10/29 68/10/29 61/10/29
f 60/11/30 65/11/30 63/11/30
f 65/11/30 60/11/30 69/11/30
f 69/11/30 60/11/30 70/11/30
f 70/11/30 60/11/30 62/11/30
f 73/12/34 72/12/33 71/12/33
f 72/12/33 73/12/34 74/12/34
f 72/12/33 75/13/35 71/12/33
f 75/13/35 72/12/33 76/13/35
f 77/13/36 75/13/35 76/13/35
f 75/13/35 77/13/36 78/13/36
f 77/13/36 73/12/34 78/13/36
f 73/12/34 77/13/36 74/12/34
f 81/13/9 80/12/9 79/12/9
f 80/12/9 81/13/9 82/13/9
f 72/12/9 83/10/9 76/13/9
f 76/13/9 83/10/9 77/13/9
f 72/12/9 52/14/9 83/10/9
f 84/10/9 77/13/9 83/10/9
f 52/14/9 72/12/9 47/14/9
f 84/10/9 74/12/9 77/13/9
f 47/14/9 74/12/9 84/10/9
f 74/12/9 47/14/9 72/12/9
f 87/12/34 86/12/33 85/12/33
f 86/12/33 87/12/34 88/12/34
f 86/12/33 89/13/35 85/12/33
f 89/13/35 86/12/33 90/13/35
f 91/13/36 89/13/35 90/13/35
f 89/13/35 91/13/36 92/13/36
f 91/13/36 87/12/34 92/13/36
f 87/12/34 91/13/36 88/12/34
f 95/13/9 94/12/9 93/12/9
f 94/12/9 95/13/9 96/13/9
f 86/12/9 97/10/9 90/13/9
f 90/13/9 97/10/9 91/13/9
f 86/12/9 64/14/9 97/10/9
f 98/10/9 91/13/9 97/10/9
f 64/14/9 86/12/9 59/14/9
f 98/10/9 88/12/9 91/13/9
f 59/14/9 88/12/9 98/10/9
f 88/12/9 59/14/9 86/12/9
f 101/15/31 100/13/35 99/15/31
f 100/13/35 101/15/31 102/13/35
f 103/13/36 100/13/35 102/13/35
f 100/13/35 103/13/36 104/13/36
f 103/13/36 105/15/32 104/13/36
f 105/15/32 103/13/36 106/15/32
f 109/13/9 108/15/9 107/15/9
f 108/15/9 109/13/9 110/13/9
f 112/10/9 101/15/9 111/15/9
f 101/15/9 112/10/9 102/13/9
f 102/13/9 112/10/9 103/13/9
f 113/10/9 103/13/9 112/10/9
f 113/10/9 106/15/9 103/13/9
f 106/15/9 113/10/9 114/15/9
f 115/16/32 59/12/32 98/16/32
f 59/12/32 115/16/32 116/12/32
f 119/12/31 118/16/31 117/12/31
f 118/16/31 119/12/31 120/16/31
f 115/16/9 119/12/9 116/12/9
f 119/12/9 115/16/9 120/16/9
f 123/12/31 122/16/31 121/12/31
f 122/16/31 123/12/31 124/16/31
f 127/16/32 126/12/32 125/16/32
f 126/12/32 127/16/32 128/12/32
f 127/16/9 123/12/9 128/12/9
f 123/12/9 127/16/9 124/16/9
f 131/16/9 130/12/9 129/12/9
f 130/12/9 131/16/9 132/16/9
f 130/12/31 83/16/31 52/12/31
f 83/16/31 130/12/31 132/16/31
f 131/16/32 134/12/32 133/16/32
f 134/12/32 131/16/32 129/12/32
f 118/16/2 134/12/2 117/12/2
f 134/12/2 118/16/2 133/16/2
f 137/12/9 136/17/9 135/12/9
f 136/17/9 137/12/9 138/17/9
f 136/17/9 138/17/9 139/17/9
f 140/17/9 139/17/9 138/17/9
f 140/17/9 138/17/9 141/16/9
f 142/12/9 139/17/9 140/17/9
f 139/17/9 142/12/9 143/12/9
f 142/12/31 145/17/31 144/12/31
f 145/17/31 142/12/31 140/17/31
f 145/17/2 146/12/2 144/12/2
f 146/12/2 145/17/2 147/17/2
f 147/17/2 145/17/2 148/16/2
f 138/17/32 146/12/32 147/17/32
f 146/12/32 138/17/32 137/12/32
f 135/12/31 150/17/31 149/12/31
f 150/17/31 135/12/31 136/17/31
f 139/17/29 150/17/29 136/17/29
f 150/17/29 139/17/29 151/17/29
f 139/17/32 152/12/32 151/17/32
f 152/12/32 139/17/32 143/12/32
f 155/16/30 154/16/30 153/16/30
f 154/16/30 155/16/30 156/16/30
f 154/16/31 157/12/31 153/16/31
f 157/12/31 154/16/31 158/12/31
f 159/12/2 154/16/2 156/16/2
f 154/16/2 159/12/2 158/12/2
f 157/12/9 155/16/9 153/16/9
f 155/16/9 157/12/9 160/12/9
f 159/12/32 155/16/32 160/12/32
f 155/16/32 159/12/32 156/16/32
f 157/12/30 161/12/30 160/12/30
f 160/12/30 161/12/30 159/12/30
f 157/12/30 162/12/30 161/12/30
f 163/12/30 159/12/30 161/12/30
f 162/12/30 157/12/30 164/12/30
f 163/12/30 158/12/30 159/12/30
f 164/12/30 158/12/30 163/12/30
f 158/12/30 164/12/30 157/12/30
f 75/19/9 73/18/9 71/18/9
f 73/18/9 75/19/9 78/19/9
f 89/19/9 87/18/9 85/18/9
f 87/18/9 89/19/9 92/19/9
f 100/19/9 105/20/9 99/20/9
f 105/20/9 100/19/9 104/19/9
f 167/18/29 166/18/29 165/18/29
f 166/18/29 167/18/29 168/18/29
f 129/21/9 167/18/9 165/18/9
f 167/18/9 129/21/9 119/21/9
f 129/21/32 166/18/32 134/21/32
f 166/18/32 129/21/32 165/18/32
f 117/21/2 166/18/2 168/18/2
f 166/18/2 117/21/2 134/21/2
f 167/18/31 117/21/31 168/18/31
f 117/21/31 167/18/31 119/21/31

