# Created by Kenney (www.kenney.nl)

mtllib pitstop-windows-corner.mtl

g pitstop-windows-corner

v 0.04999998 0.2 0.9 1 1 1
v 0.04999998 0.25 0.9 1 1 1
v 0.04999998 0.2 1.05 1 1 1
v 0.04999998 0.25 1.05 1 1 1
v 0.9 0.25 0.9 1 1 1
v 0.9 0.2 0.9 1 1 1
v 0.9 0.25 1.05 1 1 1
v 0.9 0.2 1.05 1 1 1
v 0.85 0.2 1.1 1 1 1
v 0.09999996 0.2 1.1 1 1 1
v 0.85 0.25 1.1 1 1 1
v 0.09999996 0.25 1.1 1 1 1
v -0.9 0.2 0.9 1 1 1
v -0.9 0.25 0.9 1 1 1
v -0.9 0.2 1.05 1 1 1
v -0.9 0.25 1.05 1 1 1
v -0.04999998 0.25 0.9 1 1 1
v -0.04999998 0.2 0.9 1 1 1
v -0.04999998 0.25 1.05 1 1 1
v -0.04999998 0.2 1.05 1 1 1
v -0.09999996 0.2 1.1 1 1 1
v -0.85 0.2 1.1 1 1 1
v -0.09999996 0.25 1.1 1 1 1
v -0.85 0.25 1.1 1 1 1
v 0.9 0.2 -0.04999992 1 1 1
v 0.9 0.25 -0.04999992 1 1 1
v 1.05 0.2 -0.04999992 1 1 1
v 1.05 0.25 -0.04999992 1 1 1
v 0.8999999 0.25 -0.9 1 1 1
v 0.8999999 0.2 -0.9 1 1 1
v 1.05 0.25 -0.9 1 1 1
v 1.05 0.2 -0.9 1 1 1
v 1.1 0.2 -0.85 1 1 1
v 1.1 0.2 -0.0999999 1 1 1
v 1.1 0.25 -0.85 1 1 1
v 1.1 0.25 -0.0999999 1 1 1
v 1.05 0.2 0.9 1 1 1
v 1.05 0.25 0.9 1 1 1
v 0.8999999 0.25 0.04999992 1 1 1
v 0.8999999 0.2 0.04999992 1 1 1
v 1.05 0.25 0.04999992 1 1 1
v 1.05 0.2 0.04999992 1 1 1
v 1.1 0.2 0.0999999 1 1 1
v 1.1 0.2 0.85 1 1 1
v 1.1 0.25 0.0999999 1 1 1
v 1.1 0.25 0.85 1 1 1
v 0.8 0.35 0.85 1 1 1
v 0.8 0.35 0.9 1 1 1
v 0.15 0.35 0.85 1 1 1
v 0.15 0.35 0.9 1 1 1
v 0.8 0.7 0.85 1 1 1
v 0.8 0.7 0.9 1 1 1
v 0.15 0.7 0.9 1 1 1
v 0.15 0.7 0.85 1 1 1
v 0.525 0.35 0.875 1 1 1
v 0.425 0.35 0.875 1 1 1
v 0.525 0.7 0.875 1 1 1
v 0.425 0.7 0.875 1 1 1
v 0.9 0.8 0.9 1 1 1
v 0.04999998 0.8 0.9 1 1 1
v -0.15 0.35 0.85 1 1 1
v -0.15 0.35 0.9 1 1 1
v -0.8 0.35 0.85 1 1 1
v -0.8 0.35 0.9 1 1 1
v -0.15 0.7 0.85 1 1 1
v -0.15 0.7 0.9 1 1 1
v -0.8 0.7 0.9 1 1 1
v -0.8 0.7 0.85 1 1 1
v -0.425 0.35 0.875 1 1 1
v -0.525 0.35 0.875 1 1 1
v -0.425 0.7 0.875 1 1 1
v -0.525 0.7 0.875 1 1 1
v -0.04999998 0.8 0.9 1 1 1
v -0.9 0.8 0.9 1 1 1
v 0.85 0.35 -0.8 1 1 1
v 0.9 0.35 -0.8 1 1 1
v 0.85 0.35 -0.1499999 1 1 1
v 0.9 0.35 -0.1499999 1 1 1
v 0.85 0.7 -0.8 1 1 1
v 0.9 0.7 -0.8 1 1 1
v 0.9 0.7 -0.1499999 1 1 1
v 0.85 0.7 -0.1499999 1 1 1
v 0.875 0.35 -0.525 1 1 1
v 0.875 0.35 -0.425 1 1 1
v 0.875 0.7 -0.525 1 1 1
v 0.875 0.7 -0.425 1 1 1
v 0.9 0.8 -0.9 1 1 1
v 0.9 0.2 -0.9 1 1 1
v 0.9 0.8 -0.04999992 1 1 1
v 0.9 0.2 -0.04999992 1 1 1
v 0.85 0.35 0.1499999 1 1 1
v 0.9 0.35 0.1499999 1 1 1
v 0.85 0.35 0.8 1 1 1
v 0.9 0.35 0.8 1 1 1
v 0.85 0.7 0.1499999 1 1 1
v 0.9 0.7 0.1499999 1 1 1
v 0.9 0.7 0.8 1 1 1
v 0.85 0.7 0.8 1 1 1
v 0.875 0.35 0.425 1 1 1
v 0.875 0.35 0.525 1 1 1
v 0.875 0.7 0.425 1 1 1
v 0.875 0.7 0.525 1 1 1
v 0.9 0.8 0.04999992 1 1 1
v 0.9 0.2 0.04999992 1 1 1
v 0.9 0.8 0.9 1 1 1
v 0.9 0.2 0.9 1 1 1
v -0.9 0.8 1 1 1 1
v -0.9 0.2 1 1 1 1
v -1 0.2 -1 1 1 1
v -1 0.8 -1 1 1 1
v -1 0.2 1 1 1 1
v -1 0.8 1 1 1 1
v -0.05 0.2 0.9 1 1 1
v -0.05 0.8 0.9 1 1 1
v -0.05 0.2 1 1 1 1
v -0.05 0.8 1 1 1 1
v 0.05 0.8 0.9 1 1 1
v 0.05 0.2 0.9 1 1 1
v 0.05 0.8 1 1 1 1
v 0.05 0.2 1 1 1 1
v 1 0.2 1 1 1 1
v 0.9 0.2 1 1 1 1
v 1 0.8 1 1 1 1
v 0.9 0.8 1 1 1 1
v 1 0.8 -1 1 1 1
v 1 0.2 -1 1 1 1
v 1 0.8 -0.9 1 1 1
v 1 0.2 -0.9 1 1 1
v 0.9 0.2 -0.05 1 1 1
v 1 0.2 -0.05 1 1 1
v 0.9 0.8 -0.05 1 1 1
v 1 0.8 -0.05 1 1 1
v 1 0.8 0.05 1 1 1
v 1 0.2 0.05 1 1 1
v 1 0.2 0.9 1 1 1
v 1 0.8 0.9 1 1 1
v 0.9 0.2 0.05 1 1 1
v 0.9 0.8 0.05 1 1 1
v 0.8 0.9 -0.8 1 1 1
v 0.8 0.9 0.8 1 1 1
v -0.8 0.9 -0.8 1 1 1
v -0.8 0.9 0.8 1 1 1
v 0.8 1 -0.8 1 1 1
v 0.8 1 0.8 1 1 1
v -0.8 1 0.8 1 1 1
v -0.8 1 -0.8 1 1 1
v -0.9 1 -0.9 1 1 1
v 0.9 1 -0.9 1 1 1
v -0.9 1 0.9 1 1 1
v 0.9 1 0.9 1 1 1
v 1 0 -1 1 1 1
v -1 0 -1 1 1 1
v 1 0 1 1 1 1
v -1 0 1 1 1 1
v 1 0.2 -1 1 1 1
v 1 0.2 1 1 1 1
v -1 0.2 -1 1 1 1
v -1 0.2 1 1 1 1
v -0.9 1.05 -0.9 1 1 1
v -0.9 0.9 -0.9 1 1 1
v -0.9 1.05 0.9 1 1 1
v -0.9 0.9 0.9 1 1 1
v 0.9 0.9 -0.9 1 1 1
v 0.9 1.05 -0.9 1 1 1
v 0.9 0.9 0.9 1 1 1
v 0.9 1.05 0.9 1 1 1
v -1 0.8 -1.05 1 1 1
v 1 0.8 -1.05 1 1 1
v -1 1.05 -1.05 1 1 1
v 1 1.05 -1.05 1 1 1
v -1.05 0.8 -1 1 1 1
v -1.05 1.05 -1 1 1 1
v -1.05 0.8 1 1 1 1
v -1.05 1.05 1 1 1 1
v 1 0.8 1.05 1 1 1
v -1 0.8 1.05 1 1 1
v 1 1.05 1.05 1 1 1
v -1 1.05 1.05 1 1 1
v 1.05 1.05 -1 1 1 1
v 1.05 0.8 -1 1 1 1
v 1.05 1.05 1 1 1 1
v 1.05 0.8 1 1 1 1

vn -1 0 0
vn -0.9238795 0 0.3826834
vn 1 0 0
vn 0.9238795 0 0.3826834
vn 0.3826834 0 0.9238795
vn -0.3826834 0 0.9238795
vn 0 -1 0
vn 0 1 0
vn 1.192093E-07 0 1
vn 0.3826836 0 0.9238796
vn -1.192093E-07 0 -1
vn 0.3826834 0 -0.9238797
vn 0.9238796 0 -0.3826836
vn 0.9238797 0 0.3826834
vn -0.7071068 0.7071068 0
vn 0.7071068 0.7071068 0
vn -0.7071068 -0.7071068 0
vn 0.7071068 -0.7071068 0
vn 0 0 1
vn 8.42937E-08 0.7071068 0.7071068
vn -8.42937E-08 0.7071068 -0.7071068
vn 8.42937E-08 -0.7071068 0.7071068
vn -8.42937E-08 -0.7071068 -0.7071068
vn 1 0 -1.192093E-07
vn 0 0 -1
vn -1 0 1.192093E-07
vn 0.7071068 0 0.7071068
vn 0.7071068 0 -0.7071068
vn -0.7071068 0 0.7071068
vn -0.7071068 0 -0.7071068
vn -0.3826834 0 -0.9238795
vn 0.3826834 0 -0.9238795
vn -0.9238795 0 -0.3826834
vn 0.9238795 0 -0.3826834

vt 0.46875 0.025
vt 0.46875 0.105
vt 0.46875 0.175
vt 0.46875 0.05833335
vt 0.46875 0.225
vt 0.46875 0.075
vt 0.21875 0.175
vt 0.21875 0.05833335
vt 0.21875 0.075
vt 0.21875 0.425
vt 0.21875 0.365
vt 0.21875 0.325

usemtl colormap

f 3/1/2 2/2/1 1/1/1
f 2/2/1 3/1/2 4/2/2
f 7/2/4 6/1/3 5/2/3
f 6/1/3 7/2/4 8/1/4
f 11/2/5 10/1/6 9/1/5
f 10/1/6 11/2/5 12/2/6
f 7/2/4 9/1/5 8/1/4
f 9/1/5 7/2/4 11/2/5
f 12/2/6 3/1/2 10/1/6
f 3/1/2 12/2/6 4/2/2
f 9/1/7 6/1/7 8/1/7
f 6/1/7 9/1/7 1/1/7
f 1/1/7 9/1/7 10/1/7
f 1/1/7 10/1/7 3/1/7
f 2/2/8 7/2/8 5/2/8
f 7/2/8 2/2/8 11/2/8
f 11/2/8 2/2/8 12/2/8
f 12/2/8 2/2/8 4/2/8
f 15/1/2 14/2/1 13/1/1
f 14/2/1 15/1/2 16/2/2
f 19/2/4 18/1/3 17/2/3
f 18/1/3 19/2/4 20/1/4
f 23/2/5 22/1/6 21/1/5
f 22/1/6 23/2/5 24/2/6
f 19/2/4 21/1/5 20/1/4
f 21/1/5 19/2/4 23/2/5
f 24/2/6 15/1/2 22/1/6
f 15/1/2 24/2/6 16/2/2
f 21/1/7 18/1/7 20/1/7
f 18/1/7 21/1/7 13/1/7
f 13/1/7 21/1/7 22/1/7
f 13/1/7 22/1/7 15/1/7
f 14/2/8 19/2/8 17/2/8
f 19/2/8 14/2/8 23/2/8
f 23/2/8 14/2/8 24/2/8
f 24/2/8 14/2/8 16/2/8
f 27/1/10 26/2/9 25/1/9
f 26/2/9 27/1/10 28/2/10
f 31/2/12 30/1/11 29/2/11
f 30/1/11 31/2/12 32/1/12
f 35/2/13 34/1/14 33/1/13
f 34/1/14 35/2/13 36/2/14
f 31/2/12 33/1/13 32/1/12
f 33/1/13 31/2/12 35/2/13
f 36/2/14 27/1/10 34/1/14
f 27/1/10 36/2/14 28/2/10
f 33/1/7 30/1/7 32/1/7
f 30/1/7 33/1/7 25/1/7
f 25/1/7 33/1/7 34/1/7
f 25/1/7 34/1/7 27/1/7
f 26/2/8 31/2/8 29/2/8
f 31/2/8 26/2/8 35/2/8
f 35/2/8 26/2/8 36/2/8
f 36/2/8 26/2/8 28/2/8
f 37/1/10 5/2/9 6/1/9
f 5/2/9 37/1/10 38/2/10
f 41/2/12 40/1/11 39/2/11
f 40/1/11 41/2/12 42/1/12
f 45/2/13 44/1/14 43/1/13
f 44/1/14 45/2/13 46/2/14
f 41/2/12 43/1/13 42/1/12
f 43/1/13 41/2/12 45/2/13
f 46/2/14 37/1/10 44/1/14
f 37/1/10 46/2/14 38/2/10
f 43/1/7 40/1/7 42/1/7
f 40/1/7 43/1/7 6/1/7
f 6/1/7 43/1/7 44/1/7
f 6/1/7 44/1/7 37/1/7
f 5/2/8 41/2/8 39/2/8
f 41/2/8 5/2/8 45/2/8
f 45/2/8 5/2/8 46/2/8
f 46/2/8 5/2/8 38/2/8
f 49/3/16 48/3/15 47/3/15
f 48/3/15 49/3/16 50/3/16
f 48/3/15 51/4/17 47/3/15
f 51/4/17 48/3/15 52/4/17
f 53/4/18 51/4/17 52/4/17
f 51/4/17 53/4/18 54/4/18
f 53/4/18 49/3/16 54/4/18
f 49/3/16 53/4/18 50/3/16
f 57/4/19 56/3/19 55/3/19
f 56/3/19 57/4/19 58/4/19
f 48/3/19 59/1/19 52/4/19
f 52/4/19 59/1/19 53/4/19
f 48/3/19 6/5/19 59/1/19
f 60/1/19 53/4/19 59/1/19
f 6/5/19 48/3/19 1/5/19
f 60/1/19 50/3/19 53/4/19
f 1/5/19 50/3/19 60/1/19
f 50/3/19 1/5/19 48/3/19
f 63/3/16 62/3/15 61/3/15
f 62/3/15 63/3/16 64/3/16
f 62/3/15 65/4/17 61/3/15
f 65/4/17 62/3/15 66/4/17
f 67/4/18 65/4/17 66/4/17
f 65/4/17 67/4/18 68/4/18
f 67/4/18 63/3/16 68/4/18
f 63/3/16 67/4/18 64/3/16
f 71/4/19 70/3/19 69/3/19
f 70/3/19 71/4/19 72/4/19
f 62/3/19 73/1/19 66/4/19
f 66/4/19 73/1/19 67/4/19
f 62/3/19 18/5/19 73/1/19
f 74/1/19 67/4/19 73/1/19
f 18/5/19 62/3/19 13/5/19
f 74/1/19 64/3/19 67/4/19
f 13/5/19 64/3/19 74/1/19
f 64/3/19 13/5/19 62/3/19
f 77/3/21 76/3/20 75/3/20
f 76/3/20 77/3/21 78/3/21
f 76/3/20 79/4/22 75/3/20
f 79/4/22 76/3/20 80/4/22
f 81/4/23 79/4/22 80/4/22
f 79/4/22 81/4/23 82/4/23
f 81/4/23 77/3/21 82/4/23
f 77/3/21 81/4/23 78/3/21
f 85/4/24 84/3/24 83/3/24
f 84/3/24 85/4/24 86/4/24
f 76/3/24 87/1/24 80/4/24
f 80/4/24 87/1/24 81/4/24
f 76/3/24 88/5/24 87/1/24
f 89/1/24 81/4/24 87/1/24
f 88/5/24 76/3/24 90/5/24
f 89/1/24 78/3/24 81/4/24
f 90/5/24 78/3/24 89/1/24
f 78/3/24 90/5/24 76/3/24
f 93/3/21 92/3/20 91/3/20
f 92/3/20 93/3/21 94/3/21
f 92/3/20 95/4/22 91/3/20
f 95/4/22 92/3/20 96/4/22
f 97/4/23 95/4/22 96/4/22
f 95/4/22 97/4/23 98/4/23
f 97/4/23 93/3/21 98/4/23
f 93/3/21 97/4/23 94/3/21
f 101/4/24 100/3/24 99/3/24
f 100/3/24 101/4/24 102/4/24
f 92/3/24 103/1/24 96/4/24
f 96/4/24 103/1/24 97/4/24
f 92/3/24 104/5/24 103/1/24
f 105/1/24 97/4/24 103/1/24
f 104/5/24 92/3/24 106/5/24
f 105/1/24 94/3/24 97/4/24
f 106/5/24 94/3/24 105/1/24
f 94/3/24 106/5/24 92/3/24
f 107/6/3 13/3/3 74/6/3
f 13/3/3 107/6/3 108/3/3
f 111/3/1 110/6/1 109/3/1
f 110/6/1 111/3/1 112/6/1
f 107/6/19 111/3/19 108/3/19
f 111/3/19 107/6/19 112/6/19
f 115/3/1 114/6/1 113/3/1
f 114/6/1 115/3/1 116/6/1
f 119/6/3 118/3/3 117/6/3
f 118/3/3 119/6/3 120/3/3
f 119/6/19 115/3/19 120/3/19
f 115/3/19 119/6/19 116/6/19
f 123/6/19 122/3/19 121/3/19
f 122/3/19 123/6/19 124/6/19
f 122/3/1 59/6/1 6/3/1
f 59/6/1 122/3/1 124/6/1
f 127/6/3 126/3/3 125/6/3
f 126/3/3 127/6/3 128/3/3
f 127/6/19 88/3/19 128/3/19
f 88/3/19 127/6/19 87/6/19
f 131/6/25 130/3/25 129/3/25
f 130/3/25 131/6/25 132/6/25
f 133/6/3 130/3/3 132/6/3
f 130/3/3 133/6/3 134/3/3
f 59/6/25 135/3/25 6/3/25
f 135/3/25 59/6/25 136/6/25
f 123/6/3 135/3/3 136/6/3
f 135/3/3 123/6/3 121/3/3
f 133/6/19 137/3/19 134/3/19
f 137/3/19 133/6/19 138/6/19
f 110/6/25 126/3/25 109/3/25
f 126/3/25 110/6/25 125/6/25
f 141/6/8 140/6/8 139/6/8
f 140/6/8 141/6/8 142/6/8
f 140/6/1 143/3/1 139/6/1
f 143/3/1 140/6/1 144/3/1
f 145/3/25 140/6/25 142/6/25
f 140/6/25 145/3/25 144/3/25
f 143/3/19 141/6/19 139/6/19
f 141/6/19 143/3/19 146/3/19
f 145/3/3 141/6/3 146/3/3
f 141/6/3 145/3/3 142/6/3
f 143/3/8 147/3/8 146/3/8
f 146/3/8 147/3/8 145/3/8
f 143/3/8 148/3/8 147/3/8
f 149/3/8 145/3/8 147/3/8
f 148/3/8 143/3/8 150/3/8
f 149/3/8 144/3/8 145/3/8
f 150/3/8 144/3/8 149/3/8
f 144/3/8 150/3/8 143/3/8
f 51/8/19 49/7/19 47/7/19
f 49/7/19 51/8/19 54/8/19
f 65/8/19 63/7/19 61/7/19
f 63/7/19 65/8/19 68/8/19
f 79/8/24 77/7/24 75/7/24
f 77/7/24 79/8/24 82/8/24
f 95/8/24 93/7/24 91/7/24
f 93/7/24 95/8/24 98/8/24
f 153/7/7 152/7/7 151/7/7
f 152/7/7 153/7/7 154/7/7
f 155/9/24 153/7/24 151/7/24
f 153/7/24 155/9/24 156/9/24
f 155/9/11 152/7/11 157/9/11
f 152/7/11 155/9/11 151/7/11
f 158/9/26 152/7/26 154/7/26
f 152/7/26 158/9/26 157/9/26
f 153/7/9 158/9/9 154/7/9
f 158/9/9 153/7/9 156/9/9
f 161/10/28 160/11/27 159/10/27
f 160/11/27 161/10/28 162/11/28
f 164/10/29 160/11/27 163/11/29
f 160/11/27 164/10/29 159/10/27
f 161/10/28 165/11/30 162/11/28
f 165/11/30 161/10/28 166/10/30
f 165/11/30 164/10/29 163/11/29
f 164/10/29 165/11/30 166/10/30
f 169/10/31 168/12/32 167/12/31
f 168/12/32 169/10/31 170/10/32
f 173/12/2 172/10/33 171/12/33
f 172/10/33 173/12/2 174/10/2
f 177/10/5 176/12/6 175/12/5
f 176/12/6 177/10/5 178/10/6
f 181/10/4 180/12/34 179/10/34
f 180/12/34 181/10/4 182/12/4
f 181/10/4 175/12/5 182/12/4
f 175/12/5 181/10/4 177/10/5
f 179/10/34 168/12/32 170/10/32
f 168/12/32 179/10/34 180/12/34
f 171/12/33 169/10/31 167/12/31
f 169/10/31 171/12/33 172/10/33
f 178/10/6 173/12/2 176/12/6
f 173/12/2 178/10/6 174/10/2
f 175/12/7 180/12/7 182/12/7
f 180/12/7 175/12/7 168/12/7
f 168/12/7 175/12/7 176/12/7
f 168/12/7 176/12/7 167/12/7
f 167/12/7 176/12/7 173/12/7
f 167/12/7 173/12/7 171/12/7
f 170/10/8 181/10/8 179/10/8
f 181/10/8 170/10/8 177/10/8
f 177/10/8 170/10/8 164/10/8
f 164/10/8 170/10/8 169/10/8
f 166/10/8 177/10/8 164/10/8
f 164/10/8 169/10/8 159/10/8
f 177/10/8 166/10/8 178/10/8
f 159/10/8 169/10/8 161/10/8
f 178/10/8 166/10/8 161/10/8
f 178/10/8 161/10/8 169/10/8
f 178/10/8 169/10/8 172/10/8
f 178/10/8 172/10/8 174/10/8

g pitstop-windows-corner




usemtl colormap

f 3/1/2 2/2/1 1/1/1
f 2/2/1 3/1/2 4/2/2
f 7/2/4 6/1/3 5/2/3
f 6/1/3 7/2/4 8/1/4
f 11/2/5 10/1/6 9/1/5
f 10/1/6 11/2/5 12/2/6
f 7/2/4 9/1/5 8/1/4
f 9/1/5 7/2/4 11/2/5
f 12/2/6 3/1/2 10/1/6
f 3/1/2 12/2/6 4/2/2
f 9/1/7 6/1/7 8/1/7
f 6/1/7 9/1/7 1/1/7
f 1/1/7 9/1/7 10/1/7
f 1/1/7 10/1/7 3/1/7
f 2/2/8 7/2/8 5/2/8
f 7/2/8 2/2/8 11/2/8
f 11/2/8 2/2/8 12/2/8
f 12/2/8 2/2/8 4/2/8
f 15/1/2 14/2/1 13/1/1
f 14/2/1 15/1/2 16/2/2
f 19/2/4 18/1/3 17/2/3
f 18/1/3 19/2/4 20/1/4
f 23/2/5 22/1/6 21/1/5
f 22/1/6 23/2/5 24/2/6
f 19/2/4 21/1/5 20/1/4
f 21/1/5 19/2/4 23/2/5
f 24/2/6 15/1/2 22/1/6
f 15/1/2 24/2/6 16/2/2
f 21/1/7 18/1/7 20/1/7
f 18/1/7 21/1/7 13/1/7
f 13/1/7 21/1/7 22/1/7
f 13/1/7 22/1/7 15/1/7
f 14/2/8 19/2/8 17/2/8
f 19/2/8 14/2/8 23/2/8
f 23/2/8 14/2/8 24/2/8
f 24/2/8 14/2/8 16/2/8
f 27/1/10 26/2/9 25/1/9
f 26/2/9 27/1/10 28/2/10
f 31/2/12 30/1/11 29/2/11
f 30/1/11 31/2/12 32/1/12
f 35/2/13 34/1/14 33/1/13
f 34/1/14 35/2/13 36/2/14
f 31/2/12 33/1/13 32/1/12
f 33/1/13 31/2/12 35/2/13
f 36/2/14 27/1/10 34/1/14
f 27/1/10 36/2/14 28/2/10
f 33/1/7 30/1/7 32/1/7
f 30/1/7 33/1/7 25/1/7
f 25/1/7 33/1/7 34/1/7
f 25/1/7 34/1/7 27/1/7
f 26/2/8 31/2/8 29/2/8
f 31/2/8 26/2/8 35/2/8
f 35/2/8 26/2/8 36/2/8
f 36/2/8 26/2/8 28/2/8
f 37/1/10 5/2/9 6/1/9
f 5/2/9 37/1/10 38/2/10
f 41/2/12 40/1/11 39/2/11
f 40/1/11 41/2/12 42/1/12
f 45/2/13 44/1/14 43/1/13
f 44/1/14 45/2/13 46/2/14
f 41/2/12 43/1/13 42/1/12
f 43/1/13 41/2/12 45/2/13
f 46/2/14 37/1/10 44/1/14
f 37/1/10 46/2/14 38/2/10
f 43/1/7 40/1/7 42/1/7
f 40/1/7 43/1/7 6/1/7
f 6/1/7 43/1/7 44/1/7
f 6/1/7 44/1/7 37/1/7
f 5/2/8 41/2/8 39/2/8
f 41/2/8 5/2/8 45/2/8
f 45/2/8 5/2/8 46/2/8
f 46/2/8 5/2/8 38/2/8
f 49/3/16 48/3/15 47/3/15
f 48/3/15 49/3/16 50/3/16
f 48/3/15 51/4/17 47/3/15
f 51/4/17 48/3/15 52/4/17
f 53/4/18 51/4/17 52/4/17
f 51/4/17 53/4/18 54/4/18
f 53/4/18 49/3/16 54/4/18
f 49/3/16 53/4/18 50/3/16
f 57/4/19 56/3/19 55/3/19
f 56/3/19 57/4/19 58/4/19
f 48/3/19 59/1/19 52/4/19
f 52/4/19 59/1/19 53/4/19
f 48/3/19 6/5/19 59/1/19
f 60/1/19 53/4/19 59/1/19
f 6/5/19 48/3/19 1/5/19
f 60/1/19 50/3/19 53/4/19
f 1/5/19 50/3/19 60/1/19
f 50/3/19 1/5/19 48/3/19
f 63/3/16 62/3/15 61/3/15
f 62/3/15 63/3/16 64/3/16
f 62/3/15 65/4/17 61/3/15
f 65/4/17 62/3/15 66/4/17
f 67/4/18 65/4/17 66/4/17
f 65/4/17 67/4/18 68/4/18
f 67/4/18 63/3/16 68/4/18
f 63/3/16 67/4/18 64/3/16
f 71/4/19 70/3/19 69/3/19
f 70/3/19 71/4/19 72/4/19
f 62/3/19 73/1/19 66/4/19
f 66/4/19 73/1/19 67/4/19
f 62/3/19 18/5/19 73/1/19
f 74/1/19 67/4/19 73/1/19
f 18/5/19 62/3/19 13/5/19
f 74/1/19 64/3/19 67/4/19
f 13/5/19 64/3/19 74/1/19
f 64/3/19 13/5/19 62/3/19
f 77/3/21 76/3/20 75/3/20
f 76/3/20 77/3/21 78/3/21
f 76/3/20 79/4/22 75/3/20
f 79/4/22 76/3/20 80/4/22
f 81/4/23 79/4/22 80/4/22
f 79/4/22 81/4/23 82/4/23
f 81/4/23 77/3/21 82/4/23
f 77/3/21 81/4/23 78/3/21
f 85/4/24 84/3/24 83/3/24
f 84/3/24 85/4/24 86/4/24
f 76/3/24 87/1/24 80/4/24
f 80/4/24 87/1/24 81/4/24
f 76/3/24 88/5/24 87/1/24
f 89/1/24 81/4/24 87/1/24
f 88/5/24 76/3/24 90/5/24
f 89/1/24 78/3/24 81/4/24
f 90/5/24 78/3/24 89/1/24
f 78/3/24 90/5/24 76/3/24
f 93/3/21 92/3/20 91/3/20
f 92/3/20 93/3/21 94/3/21
f 92/3/20 95/4/22 91/3/20
f 95/4/22 92/3/20 96/4/22
f 97/4/23 95/4/22 96/4/22
f 95/4/22 97/4/23 98/4/23
f 97/4/23 93/3/21 98/4/23
f 93/3/21 97/4/23 94/3/21
f 101/4/24 100/3/24 99/3/24
f 100/3/24 101/4/24 102/4/24
f 92/3/24 103/1/24 96/4/24
f 96/4/24 103/1/24 97/4/24
f 92/3/24 104/5/24 103/1/24
f 105/1/24 97/4/24 103/1/24
f 104/5/24 92/3/24 106/5/24
f 105/1/24 94/3/24 97/4/24
f 106/5/24 94/3/24 105/1/24
f 94/3/24 106/5/24 92/3/24
f 107/6/3 13/3/3 74/6/3
f 13/3/3 107/6/3 108/3/3
f 111/3/1 110/6/1 109/3/1
f 110/6/1 111/3/1 112/6/1
f 107/6/19 111/3/19 108/3/19
f 111/3/19 107/6/19 112/6/19
f 115/3/1 114/6/1 113/3/1
f 114/6/1 115/3/1 116/6/1
f 119/6/3 118/3/3 117/6/3
f 118/3/3 119/6/3 120/3/3
f 119/6/19 115/3/19 120/3/19
f 115/3/19 119/6/19 116/6/19
f 123/6/19 122/3/19 121/3/19
f 122/3/19 123/6/19 124/6/19
f 122/3/1 59/6/1 6/3/1
f 59/6/1 122/3/1 124/6/1
f 127/6/3 126/3/3 125/6/3
f 126/3/3 127/6/3 128/3/3
f 127/6/19 88/3/19 128/3/19
f 88/3/19 127/6/19 87/6/19
f 131/6/25 130/3/25 129/3/25
f 130/3/25 131/6/25 132/6/25
f 133/6/3 130/3/3 132/6/3
f 130/3/3 133/6/3 134/3/3
f 59/6/25 135/3/25 6/3/25
f 135/3/25 59/6/25 136/6/25
f 123/6/3 135/3/3 136/6/3
f 135/3/3 123/6/3 121/3/3
f 133/6/19 137/3/19 134/3/19
f 137/3/19 133/6/19 138/6/19
f 110/6/25 126/3/25 109/3/25
f 126/3/25 110/6/25 125/6/25
f 141/6/8 140/6/8 139/6/8
f 140/6/8 141/6/8 142/6/8
f 140/6/1 143/3/1 139/6/1
f 143/3/1 140/6/1 144/3/1
f 145/3/25 140/6/25 142/6/25
f 140/6/25 145/3/25 144/3/25
f 143/3/19 141/6/19 139/6/19
f 141/6/19 143/3/19 146/3/19
f 145/3/3 141/6/3 146/3/3
f 141/6/3 145/3/3 142/6/3
f 143/3/8 147/3/8 146/3/8
f 146/3/8 147/3/8 145/3/8
f 143/3/8 148/3/8 147/3/8
f 149/3/8 145/3/8 147/3/8
f 148/3/8 143/3/8 150/3/8
f 149/3/8 144/3/8 145/3/8
f 150/3/8 144/3/8 149/3/8
f 144/3/8 150/3/8 143/3/8
f 51/8/19 49/7/19 47/7/19
f 49/7/19 51/8/19 54/8/19
f 65/8/19 63/7/19 61/7/19
f 63/7/19 65/8/19 68/8/19
f 79/8/24 77/7/24 75/7/24
f 77/7/24 79/8/24 82/8/24
f 95/8/24 93/7/24 91/7/24
f 93/7/24 95/8/24 98/8/24
f 153/7/7 152/7/7 151/7/7
f 152/7/7 153/7/7 154/7/7
f 155/9/24 153/7/24 151/7/24
f 153/7/24 155/9/24 156/9/24
f 155/9/11 152/7/11 157/9/11
f 152/7/11 155/9/11 151/7/11
f 158/9/26 152/7/26 154/7/26
f 152/7/26 158/9/26 157/9/26
f 153/7/9 158/9/9 154/7/9
f 158/9/9 153/7/9 156/9/9
f 161/10/28 160/11/27 159/10/27
f 160/11/27 161/10/28 162/11/28
f 164/10/29 160/11/27 163/11/29
f 160/11/27 164/10/29 159/10/27
f 161/10/28 165/11/30 162/11/28
f 165/11/30 161/10/28 166/10/30
f 165/11/30 164/10/29 163/11/29
f 164/10/29 165/11/30 166/10/30
f 169/10/31 168/12/32 167/12/31
f 168/12/32 169/10/31 170/10/32
f 173/12/2 172/10/33 171/12/33
f 172/10/33 173/12/2 174/10/2
f 177/10/5 176/12/6 175/12/5
f 176/12/6 177/10/5 178/10/6
f 181/10/4 180/12/34 179/10/34
f 180/12/34 181/10/4 182/12/4
f 181/10/4 175/12/5 182/12/4
f 175/12/5 181/10/4 177/10/5
f 179/10/34 168/12/32 170/10/32
f 168/12/32 179/10/34 180/12/34
f 171/12/33 169/10/31 167/12/31
f 169/10/31 171/12/33 172/10/33
f 178/10/6 173/12/2 176/12/6
f 173/12/2 178/10/6 174/10/2
f 175/12/7 180/12/7 182/12/7
f 180/12/7 175/12/7 168/12/7
f 168/12/7 175/12/7 176/12/7
f 168/12/7 176/12/7 167/12/7
f 167/12/7 176/12/7 173/12/7
f 167/12/7 173/12/7 171/12/7
f 170/10/8 181/10/8 179/10/8
f 181/10/8 170/10/8 177/10/8
f 177/10/8 170/10/8 164/10/8
f 164/10/8 170/10/8 169/10/8
f 166/10/8 177/10/8 164/10/8
f 164/10/8 169/10/8 159/10/8
f 177/10/8 166/10/8 178/10/8
f 159/10/8 169/10/8 161/10/8
f 178/10/8 166/10/8 161/10/8
f 178/10/8 161/10/8 169/10/8
f 178/10/8 169/10/8 172/10/8
f 178/10/8 172/10/8 174/10/8

