# Created by Kenney (www.kenney.nl)

mtllib pitstop-window.mtl

g pitstop-window

v -0.9 0.2 0.9 1 1 1
v -0.9 0.25 0.9 1 1 1
v -0.9 0.2 1.05 1 1 1
v -0.9 0.25 1.05 1 1 1
v -0.85 0.2 1.1 1 1 1
v -0.85 0.25 1.1 1 1 1
v 0.9 0.2 1.05 1 1 1
v 0.9 0.2 0.9 1 1 1
v 0.85 0.2 1.1 1 1 1
v 0.9 0.25 1.05 1 1 1
v 0.85 0.25 1.1 1 1 1
v 0.9 0.25 0.9 1 1 1
v 0.8 0.35 0.85 1 1 1
v 0.8 0.7 0.85 1 1 1
v 0.8 0.35 0.9 1 1 1
v 0.8 0.7 0.9 1 1 1
v -0.8 0.7 0.9 1 1 1
v -0.8 0.7 0.85 1 1 1
v -0.8 0.35 0.85 1 1 1
v -0.8 0.35 0.9 1 1 1
v 0.05 0.35 0.875 1 1 1
v -0.05 0.35 0.875 1 1 1
v 0.05 0.7 0.875 1 1 1
v -0.05 0.7 0.875 1 1 1
v 0.9 0.8 0.9 1 1 1
v -0.9 0.8 0.9 1 1 1
v -0.9 0.8 1 1 1 1
v -0.9 0.2 1 1 1 1
v -1 0.2 -1 1 1 1
v -1 0.8 -1 1 1 1
v -1 0.2 1 1 1 1
v -1 0.8 1 1 1 1
v 1 0.2 1 1 1 1
v 0.9 0.2 1 1 1 1
v 1 0.8 1 1 1 1
v 0.9 0.8 1 1 1 1
v 1 0.8 -1 1 1 1
v 1 0.2 -1 1 1 1
v 0.8 0.9 -0.8 1 1 1
v 0.8 0.9 0.8 1 1 1
v -0.8 0.9 -0.8 1 1 1
v -0.8 0.9 0.8 1 1 1
v 0.8 1 -0.8 1 1 1
v 0.8 1 0.8 1 1 1
v -0.8 1 0.8 1 1 1
v -0.8 1 -0.8 1 1 1
v -0.9 1 -0.9 1 1 1
v 0.9 1 -0.9 1 1 1
v -0.9 1 0.9 1 1 1
v 0.9 1 0.9 1 1 1
v 1 0 1 1 1 1
v 1 0 -1 1 1 1
v -1 0 1 1 1 1
v -1 0 -1 1 1 1
v -0.9 1.05 -0.9 1 1 1
v -0.9 0.9 -0.9 1 1 1
v -0.9 1.05 0.9 1 1 1
v -0.9 0.9 0.9 1 1 1
v 0.9 0.9 -0.9 1 1 1
v 0.9 1.05 -0.9 1 1 1
v 0.9 0.9 0.9 1 1 1
v 0.9 1.05 0.9 1 1 1
v -1 0.8 -1.05 1 1 1
v 1 0.8 -1.05 1 1 1
v -1 1.05 -1.05 1 1 1
v 1 1.05 -1.05 1 1 1
v -1.05 0.8 -1 1 1 1
v -1.05 1.05 -1 1 1 1
v -1.05 0.8 1 1 1 1
v -1.05 1.05 1 1 1 1
v 1 0.8 1.05 1 1 1
v -1 0.8 1.05 1 1 1
v 1 1.05 1.05 1 1 1
v -1 1.05 1.05 1 1 1
v 1.05 1.05 -1 1 1 1
v 1.05 0.8 -1 1 1 1
v 1.05 1.05 1 1 1 1
v 1.05 0.8 1 1 1 1

vn -1 0 0
vn -0.9238795 0 0.3826834
vn -0.3826834 0 0.9238795
vn 0 -1 0
vn 0.9238795 0 0.3826834
vn 0.3826834 0 0.9238795
vn 1 0 0
vn 0 1 0
vn -0.7071068 0.7071068 0
vn -0.7071068 -0.7071068 0
vn 0.7071068 -0.7071068 0
vn 0.7071068 0.7071068 0
vn 0 0 1
vn 0 0 -1
vn 0.7071068 0 0.7071068
vn 0.7071068 0 -0.7071068
vn -0.7071068 0 0.7071068
vn -0.7071068 0 -0.7071068
vn -0.3826834 0 -0.9238795
vn 0.3826834 0 -0.9238795
vn -0.9238795 0 -0.3826834
vn 0.9238795 0 -0.3826834

vt 0.46875 0.025
vt 0.46875 0.105
vt 0.46875 0.175
vt 0.46875 0.05833335
vt 0.46875 0.225
vt 0.46875 0.075
vt 0.21875 0.175
vt 0.21875 0.05833335
vt 0.21875 0.075
vt 0.21875 0.425
vt 0.21875 0.365
vt 0.21875 0.325

usemtl colormap

f 3/1/2 2/2/1 1/1/1
f 2/2/1 3/1/2 4/2/2
f 6/2/3 3/1/2 5/1/3
f 3/1/2 6/2/3 4/2/2
f 9/1/4 8/1/4 7/1/4
f 8/1/4 9/1/4 1/1/4
f 1/1/4 9/1/4 5/1/4
f 1/1/4 5/1/4 3/1/4
f 10/2/5 9/1/6 7/1/5
f 9/1/6 10/2/5 11/2/6
f 10/2/5 8/1/7 12/2/7
f 8/1/7 10/2/5 7/1/5
f 2/2/8 10/2/8 12/2/8
f 10/2/8 2/2/8 11/2/8
f 11/2/8 2/2/8 6/2/8
f 6/2/8 2/2/8 4/2/8
f 11/2/6 5/1/3 9/1/6
f 5/1/3 11/2/6 6/2/3
f 15/3/9 14/4/10 13/3/9
f 14/4/10 15/3/9 16/4/10
f 17/4/11 14/4/10 16/4/10
f 14/4/10 17/4/11 18/4/11
f 19/3/12 15/3/9 13/3/9
f 15/3/9 19/3/12 20/3/12
f 17/4/11 19/3/12 18/4/11
f 19/3/12 17/4/11 20/3/12
f 23/4/13 22/3/13 21/3/13
f 22/3/13 23/4/13 24/4/13
f 15/3/13 25/1/13 16/4/13
f 16/4/13 25/1/13 17/4/13
f 15/3/13 8/5/13 25/1/13
f 26/1/13 17/4/13 25/1/13
f 8/5/13 15/3/13 1/5/13
f 26/1/13 20/3/13 17/4/13
f 1/5/13 20/3/13 26/1/13
f 20/3/13 1/5/13 15/3/13
f 27/6/7 1/3/7 26/6/7
f 1/3/7 27/6/7 28/3/7
f 31/3/1 30/6/1 29/3/1
f 30/6/1 31/3/1 32/6/1
f 27/6/13 31/3/13 28/3/13
f 31/3/13 27/6/13 32/6/13
f 35/6/13 34/3/13 33/3/13
f 34/3/13 35/6/13 36/6/13
f 34/3/1 25/6/1 8/3/1
f 25/6/1 34/3/1 36/6/1
f 35/6/7 38/3/7 37/6/7
f 38/3/7 35/6/7 33/3/7
f 30/6/14 38/3/14 29/3/14
f 38/3/14 30/6/14 37/6/14
f 41/6/8 40/6/8 39/6/8
f 40/6/8 41/6/8 42/6/8
f 40/6/1 43/3/1 39/6/1
f 43/3/1 40/6/1 44/3/1
f 45/3/14 40/6/14 42/6/14
f 40/6/14 45/3/14 44/3/14
f 43/3/13 41/6/13 39/6/13
f 41/6/13 43/3/13 46/3/13
f 45/3/7 41/6/7 46/3/7
f 41/6/7 45/3/7 42/6/7
f 43/3/8 47/3/8 46/3/8
f 46/3/8 47/3/8 45/3/8
f 43/3/8 48/3/8 47/3/8
f 49/3/8 45/3/8 47/3/8
f 48/3/8 43/3/8 50/3/8
f 49/3/8 44/3/8 45/3/8
f 50/3/8 44/3/8 49/3/8
f 44/3/8 50/3/8 43/3/8
f 14/8/13 19/7/13 13/7/13
f 19/7/13 14/8/13 18/8/13
f 53/7/4 52/7/4 51/7/4
f 52/7/4 53/7/4 54/7/4
f 33/9/13 53/7/13 51/7/13
f 53/7/13 33/9/13 31/9/13
f 33/9/7 52/7/7 38/9/7
f 52/7/7 33/9/7 51/7/7
f 29/9/14 52/7/14 54/7/14
f 52/7/14 29/9/14 38/9/14
f 53/7/1 29/9/1 54/7/1
f 29/9/1 53/7/1 31/9/1
f 57/10/16 56/11/15 55/10/15
f 56/11/15 57/10/16 58/11/16
f 60/10/17 56/11/15 59/11/17
f 56/11/15 60/10/17 55/10/15
f 57/10/16 61/11/18 58/11/16
f 61/11/18 57/10/16 62/10/18
f 61/11/18 60/10/17 59/11/17
f 60/10/17 61/11/18 62/10/18
f 65/10/19 64/12/20 63/12/19
f 64/12/20 65/10/19 66/10/20
f 69/12/2 68/10/21 67/12/21
f 68/10/21 69/12/2 70/10/2
f 73/10/6 72/12/3 71/12/6
f 72/12/3 73/10/6 74/10/3
f 77/10/5 76/12/22 75/10/22
f 76/12/22 77/10/5 78/12/5
f 77/10/5 71/12/6 78/12/5
f 71/12/6 77/10/5 73/10/6
f 75/10/22 64/12/20 66/10/20
f 64/12/20 75/10/22 76/12/22
f 67/12/21 65/10/19 63/12/19
f 65/10/19 67/12/21 68/10/21
f 74/10/3 69/12/2 72/12/3
f 69/12/2 74/10/3 70/10/2
f 71/12/4 76/12/4 78/12/4
f 76/12/4 71/12/4 64/12/4
f 64/12/4 71/12/4 72/12/4
f 64/12/4 72/12/4 63/12/4
f 63/12/4 72/12/4 69/12/4
f 63/12/4 69/12/4 67/12/4
f 66/10/8 77/10/8 75/10/8
f 77/10/8 66/10/8 73/10/8
f 73/10/8 66/10/8 60/10/8
f 60/10/8 66/10/8 65/10/8
f 62/10/8 73/10/8 60/10/8
f 60/10/8 65/10/8 55/10/8
f 73/10/8 62/10/8 74/10/8
f 55/10/8 65/10/8 57/10/8
f 74/10/8 62/10/8 57/10/8
f 74/10/8 57/10/8 65/10/8
f 74/10/8 65/10/8 68/10/8
f 74/10/8 68/10/8 70/10/8

g pitstop-window




usemtl colormap

f 3/1/2 2/2/1 1/1/1
f 2/2/1 3/1/2 4/2/2
f 6/2/3 3/1/2 5/1/3
f 3/1/2 6/2/3 4/2/2
f 9/1/4 8/1/4 7/1/4
f 8/1/4 9/1/4 1/1/4
f 1/1/4 9/1/4 5/1/4
f 1/1/4 5/1/4 3/1/4
f 10/2/5 9/1/6 7/1/5
f 9/1/6 10/2/5 11/2/6
f 10/2/5 8/1/7 12/2/7
f 8/1/7 10/2/5 7/1/5
f 2/2/8 10/2/8 12/2/8
f 10/2/8 2/2/8 11/2/8
f 11/2/8 2/2/8 6/2/8
f 6/2/8 2/2/8 4/2/8
f 11/2/6 5/1/3 9/1/6
f 5/1/3 11/2/6 6/2/3
f 15/3/9 14/4/10 13/3/9
f 14/4/10 15/3/9 16/4/10
f 17/4/11 14/4/10 16/4/10
f 14/4/10 17/4/11 18/4/11
f 19/3/12 15/3/9 13/3/9
f 15/3/9 19/3/12 20/3/12
f 17/4/11 19/3/12 18/4/11
f 19/3/12 17/4/11 20/3/12
f 23/4/13 22/3/13 21/3/13
f 22/3/13 23/4/13 24/4/13
f 15/3/13 25/1/13 16/4/13
f 16/4/13 25/1/13 17/4/13
f 15/3/13 8/5/13 25/1/13
f 26/1/13 17/4/13 25/1/13
f 8/5/13 15/3/13 1/5/13
f 26/1/13 20/3/13 17/4/13
f 1/5/13 20/3/13 26/1/13
f 20/3/13 1/5/13 15/3/13
f 27/6/7 1/3/7 26/6/7
f 1/3/7 27/6/7 28/3/7
f 31/3/1 30/6/1 29/3/1
f 30/6/1 31/3/1 32/6/1
f 27/6/13 31/3/13 28/3/13
f 31/3/13 27/6/13 32/6/13
f 35/6/13 34/3/13 33/3/13
f 34/3/13 35/6/13 36/6/13
f 34/3/1 25/6/1 8/3/1
f 25/6/1 34/3/1 36/6/1
f 35/6/7 38/3/7 37/6/7
f 38/3/7 35/6/7 33/3/7
f 30/6/14 38/3/14 29/3/14
f 38/3/14 30/6/14 37/6/14
f 41/6/8 40/6/8 39/6/8
f 40/6/8 41/6/8 42/6/8
f 40/6/1 43/3/1 39/6/1
f 43/3/1 40/6/1 44/3/1
f 45/3/14 40/6/14 42/6/14
f 40/6/14 45/3/14 44/3/14
f 43/3/13 41/6/13 39/6/13
f 41/6/13 43/3/13 46/3/13
f 45/3/7 41/6/7 46/3/7
f 41/6/7 45/3/7 42/6/7
f 43/3/8 47/3/8 46/3/8
f 46/3/8 47/3/8 45/3/8
f 43/3/8 48/3/8 47/3/8
f 49/3/8 45/3/8 47/3/8
f 48/3/8 43/3/8 50/3/8
f 49/3/8 44/3/8 45/3/8
f 50/3/8 44/3/8 49/3/8
f 44/3/8 50/3/8 43/3/8
f 14/8/13 19/7/13 13/7/13
f 19/7/13 14/8/13 18/8/13
f 53/7/4 52/7/4 51/7/4
f 52/7/4 53/7/4 54/7/4
f 33/9/13 53/7/13 51/7/13
f 53/7/13 33/9/13 31/9/13
f 33/9/7 52/7/7 38/9/7
f 52/7/7 33/9/7 51/7/7
f 29/9/14 52/7/14 54/7/14
f 52/7/14 29/9/14 38/9/14
f 53/7/1 29/9/1 54/7/1
f 29/9/1 53/7/1 31/9/1
f 57/10/16 56/11/15 55/10/15
f 56/11/15 57/10/16 58/11/16
f 60/10/17 56/11/15 59/11/17
f 56/11/15 60/10/17 55/10/15
f 57/10/16 61/11/18 58/11/16
f 61/11/18 57/10/16 62/10/18
f 61/11/18 60/10/17 59/11/17
f 60/10/17 61/11/18 62/10/18
f 65/10/19 64/12/20 63/12/19
f 64/12/20 65/10/19 66/10/20
f 69/12/2 68/10/21 67/12/21
f 68/10/21 69/12/2 70/10/2
f 73/10/6 72/12/3 71/12/6
f 72/12/3 73/10/6 74/10/3
f 77/10/5 76/12/22 75/10/22
f 76/12/22 77/10/5 78/12/5
f 77/10/5 71/12/6 78/12/5
f 71/12/6 77/10/5 73/10/6
f 75/10/22 64/12/20 66/10/20
f 64/12/20 75/10/22 76/12/22
f 67/12/21 65/10/19 63/12/19
f 65/10/19 67/12/21 68/10/21
f 74/10/3 69/12/2 72/12/3
f 69/12/2 74/10/3 70/10/2
f 71/12/4 76/12/4 78/12/4
f 76/12/4 71/12/4 64/12/4
f 64/12/4 71/12/4 72/12/4
f 64/12/4 72/12/4 63/12/4
f 63/12/4 72/12/4 69/12/4
f 63/12/4 69/12/4 67/12/4
f 66/10/8 77/10/8 75/10/8
f 77/10/8 66/10/8 73/10/8
f 73/10/8 66/10/8 60/10/8
f 60/10/8 66/10/8 65/10/8
f 62/10/8 73/10/8 60/10/8
f 60/10/8 65/10/8 55/10/8
f 73/10/8 62/10/8 74/10/8
f 55/10/8 65/10/8 57/10/8
f 74/10/8 62/10/8 57/10/8
f 74/10/8 57/10/8 65/10/8
f 74/10/8 65/10/8 68/10/8
f 74/10/8 68/10/8 70/10/8

