# Created by Kenney (www.kenney.nl)

mtllib pitstop-garage-open.mtl

g pitstop-garage-open

v 0.975 1 1.1 1 1 1
v 0.975 1 1.15 1 1 1
v -0.975 1 1.1 1 1 1
v -0.975 1 1.15 1 1 1
v 0.975 0.8 1.15 1 1 1
v 0.975 0.8 1.1 1 1 1
v -0.975 0.8 1.15 1 1 1
v -0.975 0.8 1.1 1 1 1
v -1 0.825 1.1 1 1 1
v -1 0.975 1.1 1 1 1
v -1 0.825 1.15 1 1 1
v -1 0.975 1.15 1 1 1
v 1 0.975 1.1 1 1 1
v 1 0.825 1.1 1 1 1
v 1 0.975 1.15 1 1 1
v 1 0.825 1.15 1 1 1
v 0.9 5.639933E-18 0.9999999 1 1 1
v 0.9 5.726419E-18 -0.8999999 1 1 1
v -0.9 5.639933E-18 0.9999999 1 1 1
v -0.9 5.639933E-18 -0.8999999 1 1 1
v 0.9 0.05 -0.8999999 1 1 1
v 0.9 0.05 0.8 1 1 1
v -0.9 0.05 -0.8999999 1 1 1
v -0.9 0.05 0.8 1 1 1
v 0.95 0.75 0.9999999 1 1 1
v 0.95 0.65 0.9999999 1 1 1
v 0.95 0.8 1.05 1 1 1
v 0.95 0.8 1.15 1 1 1
v 0.9 0.65 0.9999999 1 1 1
v 0.9 0.75 0.9999999 1 1 1
v 0.9 0.8 1.15 1 1 1
v 0.9 0.8 1.05 1 1 1
v -0.9 0.75 0.9999999 1 1 1
v -0.9 0.65 0.9999999 1 1 1
v -0.9 0.8 1.05 1 1 1
v -0.9 0.8 1.15 1 1 1
v -0.95 0.65 0.9999999 1 1 1
v -0.95 0.75 0.9999999 1 1 1
v -0.95 0.8 1.15 1 1 1
v -0.95 0.8 1.05 1 1 1
v 0.025 0.75 0.9999999 1 1 1
v 0.025 0.65 0.9999999 1 1 1
v 0.025 0.8 1.05 1 1 1
v 0.025 0.8 1.15 1 1 1
v -0.025 0.65 0.9999999 1 1 1
v -0.025 0.75 0.9999999 1 1 1
v -0.025 0.8 1.15 1 1 1
v -0.025 0.8 1.05 1 1 1
v 1 0.975 0.9999999 1 1 1
v 1 0.825 0.9999999 1 1 1
v 1 0.975 1.1 1 1 1
v 1 0.825 1.1 1 1 1
v 0.975 1 0.9999999 1 1 1
v 0.975 1 1.1 1 1 1
v -0.975 1 0.9999999 1 1 1
v -0.975 1 1.1 1 1 1
v 0.975 0.8 1.1 1 1 1
v 0.975 0.8 0.9999999 1 1 1
v -0.975 0.8 1.1 1 1 1
v -0.975 0.8 0.9999999 1 1 1
v -1 0.825 0.9999999 1 1 1
v -1 0.975 0.9999999 1 1 1
v -1 0.825 1.1 1 1 1
v -1 0.975 1.1 1 1 1
v -0.05 0.2 0.8 1 1 1
v -0.05 0.8 0.8 1 1 1
v -0.05 0.2 1 1 1 1
v -0.05 0.8 1 1 1 1
v 0.05 0.2 0.8 1 1 1
v 0.05 0.8 0.8 1 1 1
v 0.05 0.8 1 1 1 1
v 0.05 0.2 1 1 1 1
v 1 1 -1 1 1 1
v 1 3.947953E-17 -1 1 1 1
v 1 1 1 1 1 1
v 1 3.947953E-17 1 1 1 1
v -1 1 -1 1 1 1
v -1 1 1 1 1 1
v -1 3.947953E-17 -1 1 1 1
v -1 3.947953E-17 1 1 1 1
v 0.9 0 -0.9 1 1 1
v 0.9 0.8 -0.9 1 1 1
v 0.9 0 1 1 1 1
v 0.9 0.8 1 1 1 1
v -0.9 0 -0.9 1 1 1
v -0.9 0.8 -0.9 1 1 1
v -0.9 0.8 1 1 1 1
v -0.9 0 1 1 1 1
v -0.05 4.664176E-20 0.8 1 1 1
v -0.05 0 1 1 1 1
v 0.05 4.664176E-20 0.8 1 1 1
v 0.05 0 1 1 1 1
v 0.9 0.7138214 0.9138213 1 1 1
v 0.04999998 0.7138214 0.9138213 1 1 1
v 0.9 0.8 0.8629981 1 1 1
v 0.04999998 0.8 0.8629981 1 1 1
v 0.9 0.6629981 1 1 1 1
v 0.04999998 0.6629981 1 1 1 1
v -0.04999998 0.7138214 0.9138213 1 1 1
v -0.9 0.7138214 0.9138213 1 1 1
v -0.04999998 0.8 0.8629981 1 1 1
v -0.9 0.8 0.8629981 1 1 1
v -0.04999998 0.6629981 1 1 1 1
v -0.9 0.6629981 1 1 1 1

vn 0.3826834 0.9238795 0
vn -0.3826834 0.9238795 0
vn 0.3826834 -0.9238795 0
vn -0.3826834 -0.9238795 0
vn -0.9238795 -0.3826834 0
vn -0.9238795 0.3826834 0
vn 0.9238795 0.3826834 0
vn 0.9238795 -0.3826834 0
vn 0 0 1
vn 0 -1 0
vn 0 1 0
vn 0 0.9925076 0.1221833
vn 0 0.9701425 0.2425356
vn 1 0 0
vn -1 0 0
vn 0 0.7071068 -0.7071068
vn 0 -0.7071068 0.7071068
vn 0.9238796 0.3826835 0
vn 0.9238796 -0.3826835 0
vn 0.3826835 0.9238796 0
vn -0.3826835 0.9238796 0
vn 0.3826835 -0.9238796 0
vn -0.3826835 -0.9238796 0
vn -0.9238796 -0.3826835 0
vn -0.9238796 0.3826835 0
vn 0 0 -1
vn 0 0.7071068 0.7071066
vn 0 0.507985 0.8613657
vn 0 -0.507985 -0.8613657
vn 0 -0.7071068 -0.7071066
vn 0 0.8613658 0.5079849
vn 0 -0.8613658 -0.5079849

vt 0.34375 0.225
vt 0.34375 0.025
vt 0.34375 0.05
vt 0.34375 0.2
vt 0.21875 0.025
vt 0.21875 0.225
vt 0.21875 0.1083333
vt 0.21875 0.175
vt 0.21875 0.075
vt 0.21875 0.1625
vt 0.21875 0.0875
vt 0.46875 0.225
vt 0.46875 0.025
vt 0.46875 0.175
vt 0.46875 0.075
vt 0.46875 0.155
vt 0.21875 0.325
vt 0.21875 0.425
vt 0.59375 0.375
vt 0.59375 0.425
vt 0.59375 0.325

usemtl colormap

f 3/1/2 2/1/1 1/1/1
f 2/1/1 3/1/2 4/1/2
f 7/2/4 6/2/3 5/2/3
f 6/2/3 7/2/4 8/2/4
f 11/3/5 10/4/6 9/3/5
f 10/4/6 11/3/5 12/4/6
f 15/4/7 14/3/8 13/4/7
f 14/3/8 15/4/7 16/3/8
f 2/1/1 13/4/7 1/1/1
f 13/4/7 2/1/1 15/4/7
f 7/2/4 9/3/5 8/2/4
f 9/3/5 7/2/4 11/3/5
f 12/4/6 3/1/2 10/4/6
f 3/1/2 12/4/6 4/1/2
f 16/3/8 6/2/3 14/3/8
f 6/2/3 16/3/8 5/2/3
f 16/3/9 7/2/9 5/2/9
f 7/2/9 16/3/9 11/3/9
f 11/3/9 16/3/9 15/4/9
f 11/3/9 15/4/9 12/4/9
f 12/4/9 15/4/9 2/1/9
f 12/4/9 2/1/9 4/1/9
f 19/5/10 18/5/10 17/5/10
f 18/5/10 19/5/10 20/5/10
f 23/6/11 22/6/12 21/6/11
f 22/6/12 23/6/11 24/6/12
f 24/6/12 17/5/13 22/6/12
f 17/5/13 24/6/12 19/5/13
f 27/9/14 26/8/14 25/7/14
f 26/8/14 27/9/14 28/9/14
f 31/9/15 30/7/15 29/8/15
f 30/7/15 31/9/15 32/9/15
f 30/7/16 27/9/16 25/7/16
f 27/9/16 30/7/16 32/9/16
f 28/9/17 29/8/17 26/8/17
f 29/8/17 28/9/17 31/9/17
f 35/9/14 34/8/14 33/7/14
f 34/8/14 35/9/14 36/9/14
f 39/9/15 38/7/15 37/8/15
f 38/7/15 39/9/15 40/9/15
f 38/7/16 35/9/16 33/7/16
f 35/9/16 38/7/16 40/9/16
f 36/9/17 37/8/17 34/8/17
f 37/8/17 36/9/17 39/9/17
f 43/9/14 42/8/14 41/7/14
f 42/8/14 43/9/14 44/9/14
f 47/9/15 46/7/15 45/8/15
f 46/7/15 47/9/15 48/9/15
f 46/7/16 43/9/16 41/7/16
f 43/9/16 46/7/16 48/9/16
f 44/9/17 45/8/17 42/8/17
f 45/8/17 44/9/17 47/9/17
f 51/10/18 50/11/19 49/10/18
f 50/11/19 51/10/18 52/11/19
f 55/8/21 54/8/20 53/8/20
f 54/8/20 55/8/21 56/8/21
f 59/9/23 58/9/22 57/9/22
f 58/9/22 59/9/23 60/9/23
f 63/11/24 62/10/25 61/11/24
f 62/10/25 63/11/24 64/10/25
f 64/10/25 55/8/21 62/10/25
f 55/8/21 64/10/25 56/8/21
f 54/8/20 49/10/18 53/8/20
f 49/10/18 54/8/20 51/10/18
f 52/11/19 58/9/22 50/11/19
f 58/9/22 52/11/19 57/9/22
f 59/9/23 61/11/24 60/9/23
f 61/11/24 59/9/23 63/11/24
f 67/12/15 66/13/15 65/12/15
f 66/13/15 67/12/15 68/13/15
f 66/13/26 69/12/26 65/12/26
f 69/12/26 66/13/26 70/13/26
f 71/13/14 69/12/14 70/13/14
f 69/12/14 71/13/14 72/12/14
f 71/13/9 67/12/9 72/12/9
f 67/12/9 71/13/9 68/13/9
f 75/14/14 74/15/14 73/14/14
f 74/15/14 75/14/14 76/15/14
f 77/14/11 75/14/11 73/14/11
f 75/14/11 77/14/11 78/14/11
f 80/15/15 77/14/15 79/15/15
f 77/14/15 80/15/15 78/14/15
f 77/14/26 74/15/26 79/15/26
f 74/15/26 77/14/26 73/14/26
f 83/15/15 82/16/15 81/15/15
f 82/16/15 83/15/15 84/16/15
f 82/16/9 85/15/9 81/15/9
f 85/15/9 82/16/9 86/16/9
f 87/16/10 82/16/10 84/16/10
f 82/16/10 87/16/10 86/16/10
f 76/15/9 84/16/9 83/15/9
f 84/16/9 76/15/9 75/14/9
f 84/16/9 75/14/9 87/16/9
f 78/14/9 87/16/9 75/14/9
f 80/15/9 87/16/9 78/14/9
f 87/16/9 80/15/9 88/15/9
f 87/16/14 85/15/14 86/16/14
f 85/15/14 87/16/14 88/15/14
f 80/15/10 85/15/10 88/15/10
f 79/15/10 85/15/10 80/15/10
f 79/15/10 81/15/10 85/15/10
f 74/15/10 81/15/10 79/15/10
f 74/15/10 83/15/10 81/15/10
f 83/15/10 74/15/10 76/15/10
f 90/17/15 65/18/15 89/17/15
f 65/18/15 90/17/15 67/18/15
f 72/18/14 91/17/14 69/18/14
f 91/17/14 72/18/14 92/17/14
f 65/18/26 91/17/26 89/17/26
f 91/17/26 65/18/26 69/18/26
f 72/18/9 90/17/9 92/17/9
f 90/17/9 72/18/9 67/18/9
f 90/17/10 91/17/10 92/17/10
f 91/17/10 90/17/10 89/17/10
f 95/20/28 94/19/27 93/19/27
f 94/19/27 95/20/28 96/20/28
f 93/19/30 94/19/30 95/20/29
f 96/20/29 95/20/29 94/19/30
f 93/19/27 98/21/31 97/21/31
f 98/21/31 93/19/27 94/19/27
f 97/21/32 98/21/32 93/19/30
f 94/19/30 93/19/30 98/21/32
f 101/20/28 100/19/27 99/19/27
f 100/19/27 101/20/28 102/20/28
f 99/19/30 100/19/30 101/20/29
f 102/20/29 101/20/29 100/19/30
f 99/19/27 104/21/31 103/21/31
f 104/21/31 99/19/27 100/19/27
f 103/21/32 104/21/32 99/19/30
f 100/19/30 99/19/30 104/21/32

g pitstop-garage-open




usemtl colormap

f 3/1/2 2/1/1 1/1/1
f 2/1/1 3/1/2 4/1/2
f 7/2/4 6/2/3 5/2/3
f 6/2/3 7/2/4 8/2/4
f 11/3/5 10/4/6 9/3/5
f 10/4/6 11/3/5 12/4/6
f 15/4/7 14/3/8 13/4/7
f 14/3/8 15/4/7 16/3/8
f 2/1/1 13/4/7 1/1/1
f 13/4/7 2/1/1 15/4/7
f 7/2/4 9/3/5 8/2/4
f 9/3/5 7/2/4 11/3/5
f 12/4/6 3/1/2 10/4/6
f 3/1/2 12/4/6 4/1/2
f 16/3/8 6/2/3 14/3/8
f 6/2/3 16/3/8 5/2/3
f 16/3/9 7/2/9 5/2/9
f 7/2/9 16/3/9 11/3/9
f 11/3/9 16/3/9 15/4/9
f 11/3/9 15/4/9 12/4/9
f 12/4/9 15/4/9 2/1/9
f 12/4/9 2/1/9 4/1/9
f 19/5/10 18/5/10 17/5/10
f 18/5/10 19/5/10 20/5/10
f 23/6/11 22/6/12 21/6/11
f 22/6/12 23/6/11 24/6/12
f 24/6/12 17/5/13 22/6/12
f 17/5/13 24/6/12 19/5/13
f 27/9/14 26/8/14 25/7/14
f 26/8/14 27/9/14 28/9/14
f 31/9/15 30/7/15 29/8/15
f 30/7/15 31/9/15 32/9/15
f 30/7/16 27/9/16 25/7/16
f 27/9/16 30/7/16 32/9/16
f 28/9/17 29/8/17 26/8/17
f 29/8/17 28/9/17 31/9/17
f 35/9/14 34/8/14 33/7/14
f 34/8/14 35/9/14 36/9/14
f 39/9/15 38/7/15 37/8/15
f 38/7/15 39/9/15 40/9/15
f 38/7/16 35/9/16 33/7/16
f 35/9/16 38/7/16 40/9/16
f 36/9/17 37/8/17 34/8/17
f 37/8/17 36/9/17 39/9/17
f 43/9/14 42/8/14 41/7/14
f 42/8/14 43/9/14 44/9/14
f 47/9/15 46/7/15 45/8/15
f 46/7/15 47/9/15 48/9/15
f 46/7/16 43/9/16 41/7/16
f 43/9/16 46/7/16 48/9/16
f 44/9/17 45/8/17 42/8/17
f 45/8/17 44/9/17 47/9/17
f 51/10/18 50/11/19 49/10/18
f 50/11/19 51/10/18 52/11/19
f 55/8/21 54/8/20 53/8/20
f 54/8/20 55/8/21 56/8/21
f 59/9/23 58/9/22 57/9/22
f 58/9/22 59/9/23 60/9/23
f 63/11/24 62/10/25 61/11/24
f 62/10/25 63/11/24 64/10/25
f 64/10/25 55/8/21 62/10/25
f 55/8/21 64/10/25 56/8/21
f 54/8/20 49/10/18 53/8/20
f 49/10/18 54/8/20 51/10/18
f 52/11/19 58/9/22 50/11/19
f 58/9/22 52/11/19 57/9/22
f 59/9/23 61/11/24 60/9/23
f 61/11/24 59/9/23 63/11/24
f 67/12/15 66/13/15 65/12/15
f 66/13/15 67/12/15 68/13/15
f 66/13/26 69/12/26 65/12/26
f 69/12/26 66/13/26 70/13/26
f 71/13/14 69/12/14 70/13/14
f 69/12/14 71/13/14 72/12/14
f 71/13/9 67/12/9 72/12/9
f 67/12/9 71/13/9 68/13/9
f 75/14/14 74/15/14 73/14/14
f 74/15/14 75/14/14 76/15/14
f 77/14/11 75/14/11 73/14/11
f 75/14/11 77/14/11 78/14/11
f 80/15/15 77/14/15 79/15/15
f 77/14/15 80/15/15 78/14/15
f 77/14/26 74/15/26 79/15/26
f 74/15/26 77/14/26 73/14/26
f 83/15/15 82/16/15 81/15/15
f 82/16/15 83/15/15 84/16/15
f 82/16/9 85/15/9 81/15/9
f 85/15/9 82/16/9 86/16/9
f 87/16/10 82/16/10 84/16/10
f 82/16/10 87/16/10 86/16/10
f 76/15/9 84/16/9 83/15/9
f 84/16/9 76/15/9 75/14/9
f 84/16/9 75/14/9 87/16/9
f 78/14/9 87/16/9 75/14/9
f 80/15/9 87/16/9 78/14/9
f 87/16/9 80/15/9 88/15/9
f 87/16/14 85/15/14 86/16/14
f 85/15/14 87/16/14 88/15/14
f 80/15/10 85/15/10 88/15/10
f 79/15/10 85/15/10 80/15/10
f 79/15/10 81/15/10 85/15/10
f 74/15/10 81/15/10 79/15/10
f 74/15/10 83/15/10 81/15/10
f 83/15/10 74/15/10 76/15/10
f 90/17/15 65/18/15 89/17/15
f 65/18/15 90/17/15 67/18/15
f 72/18/14 91/17/14 69/18/14
f 91/17/14 72/18/14 92/17/14
f 65/18/26 91/17/26 89/17/26
f 91/17/26 65/18/26 69/18/26
f 72/18/9 90/17/9 92/17/9
f 90/17/9 72/18/9 67/18/9
f 90/17/10 91/17/10 92/17/10
f 91/17/10 90/17/10 89/17/10
f 95/20/28 94/19/27 93/19/27
f 94/19/27 95/20/28 96/20/28
f 93/19/30 94/19/30 95/20/29
f 96/20/29 95/20/29 94/19/30
f 93/19/27 98/21/31 97/21/31
f 98/21/31 93/19/27 94/19/27
f 97/21/32 98/21/32 93/19/30
f 94/19/30 93/19/30 98/21/32
f 101/20/28 100/19/27 99/19/27
f 100/19/27 101/20/28 102/20/28
f 99/19/30 100/19/30 101/20/29
f 102/20/29 101/20/29 100/19/30
f 99/19/27 104/21/31 103/21/31
f 104/21/31 99/19/27 100/19/27
f 103/21/32 104/21/32 99/19/30
f 100/19/30 99/19/30 104/21/32

