# Created by Kenney (www.kenney.nl)

mtllib pitstop-garage-corner.mtl

g pitstop-garage-corner

v 1.05 0.8 -0.8000001 1 1 1
v 1.1 0.8 -0.8000001 1 1 1
v 1.05 0.8 -0.2 1 1 1
v 1.1 0.8 -0.2 1 1 1
v 1.05 0.625 -0.8000001 1 1 1
v 1.05 0.625 -0.2 1 1 1
v 1.1 0.625 -0.8000001 1 1 1
v 1.1 0.625 -0.2 1 1 1
v 1.05 0.65 -0.175 1 1 1
v 1.05 0.775 -0.175 1 1 1
v 1.1 0.65 -0.175 1 1 1
v 1.1 0.775 -0.175 1 1 1
v 1.05 0.65 -0.825 1 1 1
v 1.1 0.65 -0.825 1 1 1
v 1.05 0.775 -0.825 1 1 1
v 1.1 0.775 -0.825 1 1 1
v -0.275 0.275 0.85 1 1 1
v -0.275 0.275 0.9 1 1 1
v -0.725 0.275 0.85 1 1 1
v -0.725 0.275 0.9 1 1 1
v -0.45 0.275 0.875 1 1 1
v -0.55 0.275 0.875 1 1 1
v -0.45 0.525 0.875 1 1 1
v -0.55 0.525 0.875 1 1 1
v -0.275 0.525 0.9 1 1 1
v -0.275 0.525 0.85 1 1 1
v -0.725 0.525 0.9 1 1 1
v -0.725 0.525 0.85 1 1 1
v -0.175 0.625 0.9 1 1 1
v -0.175 0.175 0.9 1 1 1
v -0.825 0.625 0.9 1 1 1
v -0.825 0.175 0.9 1 1 1
v 0.9 0.525 -0.725 1 1 1
v 0.85 0.525 -0.725 1 1 1
v 0.9 0.525 -0.275 1 1 1
v 0.85 0.525 -0.275 1 1 1
v 0.85 0 -0.275 1 1 1
v 0.9 0 -0.275 1 1 1
v 0.85 0 -0.725 1 1 1
v 0.9 0 -0.725 1 1 1
v 0.9 0 -0.825 1 1 1
v 0.9 0.625 -0.825 1 1 1
v 0.9 0.625 -0.175 1 1 1
v 0.9 0 -0.175 1 1 1
v 0.875 0 -0.55 1 1 1
v 0.875 0 -0.45 1 1 1
v 0.875 0.525 -0.55 1 1 1
v 0.875 0.525 -0.45 1 1 1
v 0.7499999 0.2 0.7499999 1 1 1
v 0.7499999 0.8 0.7499999 1 1 1
v 0.7499999 0.2 0.95 1 1 1
v 0.7499999 0.8 0.95 1 1 1
v 0.95 0.2 0.7499999 1 1 1
v 0.95 0.8 0.7499999 1 1 1
v 0.95 0.8 0.95 1 1 1
v 0.95 0.2 0.95 1 1 1
v 1 0.8 1 1 1 1
v 1 0.8 0 1 1 1
v 0 0.8 1 1 1 1
v 1 1 -1 1 1 1
v 1 1 1 1 1 1
v -1 1 -1 1 1 1
v -1 1 1 1 1 1
v -1 3.947953E-17 -1 1 1 1
v -1 3.947953E-17 1 1 1 1
v 1 3.947953E-17 -1 1 1 1
v 1 0 0 1 1 1
v 1 2.255973E-17 -0.175 1 1 1
v 0 -5.797287E-18 1 1 1 1
v 0.9 2.255973E-17 -0.175 1 1 1
v 0.85 2.932765E-16 -0.275 1 1 1
v 0.9 2.932765E-16 -0.275 1 1 1
v 0.85 2.932765E-16 -0.725 1 1 1
v 0.9 2.932765E-16 -0.725 1 1 1
v 0.9 2.255973E-17 -0.825 1 1 1
v 1 2.255973E-17 -0.825 1 1 1
v -0.825 0.625 0.9 1 1 1
v -0.825 0.175 0.9 1 1 1
v -0.825 0.625 1 1 1 1
v -0.825 0.175 1 1 1 1
v -0.175 0.175 0.9 1 1 1
v -0.175 0.175 1 1 1 1
v -0.175 0.625 0.9 1 1 1
v -0.175 0.625 1 1 1 1
v 1 0.625 -0.825 1 1 1
v 1 0.625 -0.175 1 1 1
v 0.9 0.625 -0.175 1 1 1
v 0.05303301 0.625 0.8055456 1 1 1
v 0.05303301 0.175 0.8055456 1 1 1
v 0.1237437 0.625 0.8762563 1 1 1
v 0.1237437 0.175 0.8762563 1 1 1
v 0.8762563 0.175 0.1237437 1 1 1
v 0.8055456 0.175 0.05303301 1 1 1
v 0.8055456 0.625 0.05303301 1 1 1
v 0.8762563 0.625 0.1237437 1 1 1
v 0.6994796 0.275 0.08838835 1 1 1
v 0.7348349 0.275 0.1237437 1 1 1
v 0.08838841 0.275 0.6994796 1 1 1
v 0.1237437 0.275 0.7348349 1 1 1
v 0.6994796 0.525 0.08838835 1 1 1
v 0.08838841 0.525 0.6994796 1 1 1
v 0.7348349 0.525 0.1237437 1 1 1
v 0.1237437 0.525 0.7348349 1 1 1
v 0.8055456 0.625 0.05303302 1 1 1
v 0.8055456 0.175 0.05303302 1 1 1
v 0.05303308 0.625 0.8055456 1 1 1
v 0.05303308 0.175 0.8055456 1 1 1
v 0.446967 0.275 0.3762563 1 1 1
v 0.3762563 0.275 0.446967 1 1 1
v 0.446967 0.525 0.3762563 1 1 1
v 0.3762563 0.525 0.446967 1 1 1
v 0.9999999 0.775 -0.825 1 1 1
v 0.9999999 0.65 -0.825 1 1 1
v 1.05 0.775 -0.825 1 1 1
v 1.05 0.65 -0.825 1 1 1
v 1.05 0.8 -0.8000001 1 1 1
v 1.05 0.8 -0.2 1 1 1
v 0.9999999 0.8 -0.8000001 1 1 1
v 1 0.8 -0.2 1 1 1
v 1.05 0.625 -0.8000001 1 1 1
v 0.9999999 0.625 -0.8000001 1 1 1
v 1.05 0.625 -0.2 1 1 1
v 1 0.625 -0.2 1 1 1
v 1 0.65 -0.175 1 1 1
v 1 0.775 -0.175 1 1 1
v 1.05 0.65 -0.175 1 1 1
v 1.05 0.775 -0.175 1 1 1
v 0.7499999 -3.609091E-16 0.7499999 1 1 1
v 0.7499999 -3.609557E-16 0.95 1 1 1
v 0.95 -3.609091E-16 0.7499999 1 1 1
v 0.95 -3.609557E-16 0.95 1 1 1

vn -4.561942E-08 0.9238795 -0.3826835
vn 4.561942E-08 0.9238795 0.3826835
vn -4.561942E-08 -0.9238795 -0.3826835
vn 4.561942E-08 -0.9238795 0.3826835
vn 1.10135E-07 -0.3826834 0.9238796
vn 1.10135E-07 0.3826834 0.9238796
vn -1.10135E-07 -0.3826834 -0.9238796
vn -1.10135E-07 0.3826834 -0.9238796
vn 1 0 -1.192093E-07
vn -0.7071068 0.7071068 0
vn 0.7071068 0.7071068 0
vn 0 0 1
vn -0.7071068 -0.7071068 0
vn 0.7071068 -0.7071068 0
vn 8.42937E-08 -0.7071068 0.7071068
vn -8.42937E-08 -0.7071068 -0.7071068
vn -1.192093E-07 0 -1
vn 1.192093E-07 0 1
vn -1 0 0
vn 0 0 -1
vn 1 0 0
vn 0 -1 0
vn 0 1 0
vn 0.7071068 0 -0.7071068
vn -0.7071068 0 0.7071068
vn 0.7071068 0 0.7071068
vn -0.4999999 0.7071068 0.5
vn 0.4999999 0.7071068 -0.5
vn -0.4999999 -0.7071068 0.5
vn 0.4999999 -0.7071068 -0.5
vn 0.7071068 0 0.7071066
vn -1.10135E-07 0.3826835 -0.9238796
vn -1.10135E-07 -0.3826835 -0.9238796
vn -4.561941E-08 0.9238796 -0.3826834
vn 4.561941E-08 0.9238796 0.3826834
vn -4.561941E-08 -0.9238796 -0.3826834
vn 4.561941E-08 -0.9238796 0.3826834
vn 1.10135E-07 -0.3826835 0.9238796
vn 1.10135E-07 0.3826835 0.9238796

vt 0.34375 0.225
vt 0.34375 0.025
vt 0.34375 0.05357143
vt 0.34375 0.1964286
vt 0.46875 0.165
vt 0.46875 0.065
vt 0.46875 0.025
vt 0.46875 0.205
vt 0.46875 0.225
vt 0.46875 0.155
vt 0.46875 0.175
vt 0.46875 0.075
vt 0.46875 0.1375
vt 0.46875 0.0925
vt 0.46875 0.1805556
vt 0.46875 0.06944444
vt 0.21875 0.165
vt 0.21875 0.065
vt 0.21875 0.225
vt 0.21875 0.1607143
vt 0.21875 0.08928571
vt 0.21875 0.175
vt 0.21875 0.075
vt 0.21875 0.1805556
vt 0.21875 0.06944444
vt 0.21875 0.325
vt 0.21875 0.425

usemtl colormap

f 3/1/2 2/1/1 1/1/1
f 2/1/1 3/1/2 4/1/2
f 7/2/3 6/2/4 5/2/3
f 6/2/4 7/2/3 8/2/4
f 11/3/5 10/4/6 9/3/5
f 10/4/6 11/3/5 12/4/6
f 15/4/8 14/3/7 13/3/7
f 14/3/7 15/4/8 16/4/8
f 1/1/1 16/4/8 15/4/8
f 16/4/8 1/1/1 2/1/1
f 11/3/5 6/2/4 8/2/4
f 6/2/4 11/3/5 9/3/5
f 10/4/6 4/1/2 3/1/2
f 4/1/2 10/4/6 12/4/6
f 14/3/7 5/2/3 13/3/7
f 5/2/3 14/3/7 7/2/3
f 14/3/9 8/2/9 7/2/9
f 8/2/9 14/3/9 11/3/9
f 11/3/9 14/3/9 16/4/9
f 11/3/9 16/4/9 12/4/9
f 12/4/9 16/4/9 2/1/9
f 12/4/9 2/1/9 4/1/9
f 19/5/11 18/5/10 17/5/10
f 18/5/10 19/5/11 20/5/11
f 23/6/12 22/5/12 21/5/12
f 22/5/12 23/6/12 24/6/12
f 27/6/14 26/6/13 25/6/13
f 26/6/13 27/6/14 28/6/14
f 27/6/14 19/5/11 28/6/14
f 19/5/11 27/6/14 20/5/11
f 18/5/10 26/6/13 17/5/10
f 26/6/13 18/5/10 25/6/13
f 18/5/12 29/7/12 25/6/12
f 25/6/12 29/7/12 27/6/12
f 18/5/12 30/8/12 29/7/12
f 31/7/12 27/6/12 29/7/12
f 30/8/12 18/5/12 32/8/12
f 31/7/12 20/5/12 27/6/12
f 32/8/12 20/5/12 31/7/12
f 20/5/12 32/8/12 18/5/12
f 35/6/16 34/6/15 33/6/15
f 34/6/15 35/6/16 36/6/16
f 36/6/16 38/9/17 37/9/17
f 38/9/17 36/6/16 35/6/16
f 40/9/18 34/6/15 39/9/18
f 34/6/15 40/9/18 33/6/15
f 42/7/9 40/9/9 41/9/9
f 40/9/9 42/7/9 33/6/9
f 33/6/9 42/7/9 35/6/9
f 43/7/9 35/6/9 42/7/9
f 43/7/9 38/9/9 35/6/9
f 38/9/9 43/7/9 44/9/9
f 47/6/9 46/9/9 45/9/9
f 46/9/9 47/6/9 48/6/9
f 51/9/19 50/7/19 49/9/19
f 50/7/19 51/9/19 52/7/19
f 50/7/20 53/9/20 49/9/20
f 53/9/20 50/7/20 54/7/20
f 55/7/21 53/9/21 54/7/21
f 53/9/21 55/7/21 56/9/21
f 55/7/12 51/9/12 56/9/12
f 51/9/12 55/7/12 52/7/12
f 59/10/22 58/10/22 57/10/22
f 62/11/23 61/11/23 60/11/23
f 61/11/23 62/11/23 63/11/23
f 65/12/19 62/11/19 64/12/19
f 62/11/19 65/12/19 63/11/19
f 62/11/20 66/12/20 64/12/20
f 66/12/20 62/11/20 60/11/20
f 69/12/22 68/12/22 67/12/22
f 68/12/22 69/12/22 70/12/22
f 70/12/22 69/12/22 71/12/22
f 71/12/22 72/12/22 70/12/22
f 71/12/22 69/12/22 73/12/22
f 64/12/22 73/12/22 69/12/22
f 64/12/22 69/12/22 65/12/22
f 64/12/22 74/12/22 73/12/22
f 64/12/22 75/12/22 74/12/22
f 64/12/22 76/12/22 75/12/22
f 76/12/22 64/12/22 66/12/22
f 79/13/21 78/14/21 77/13/21
f 78/14/21 79/13/21 80/14/21
f 78/14/23 82/14/23 81/14/23
f 82/14/23 78/14/23 80/14/23
f 82/14/19 83/13/19 81/14/19
f 83/13/19 82/14/19 84/13/19
f 79/13/22 83/13/22 84/13/22
f 83/13/22 79/13/22 77/13/22
f 58/10/21 61/11/21 57/10/21
f 58/10/21 60/11/21 61/11/21
f 85/13/21 60/11/21 58/10/21
f 60/11/21 85/13/21 66/12/21
f 76/12/21 66/12/21 85/13/21
f 85/13/21 58/10/21 86/13/21
f 86/13/21 58/10/21 68/12/21
f 67/12/21 68/12/21 58/10/21
f 86/13/22 42/13/22 85/13/22
f 42/13/22 86/13/22 87/13/22
f 87/13/20 68/12/20 70/12/20
f 68/12/20 87/13/20 86/13/20
f 85/13/12 75/12/12 76/12/12
f 75/12/12 85/13/12 42/13/12
f 61/11/12 59/10/12 57/10/12
f 63/11/12 59/10/12 61/11/12
f 63/11/12 79/13/12 59/10/12
f 84/13/12 59/10/12 79/13/12
f 63/11/12 80/14/12 79/13/12
f 65/12/12 80/14/12 63/11/12
f 82/14/12 59/10/12 84/13/12
f 80/14/12 65/12/12 82/14/12
f 82/14/12 69/12/12 59/10/12
f 69/12/12 82/14/12 65/12/12
f 90/13/24 89/14/24 88/13/24
f 89/14/24 90/13/24 91/14/24
f 93/14/23 91/14/23 92/14/23
f 91/14/23 93/14/23 89/14/23
f 93/14/25 95/13/25 94/13/25
f 95/13/25 93/14/25 92/14/25
f 90/13/22 94/13/22 95/13/22
f 94/13/22 90/13/22 88/13/22
f 69/12/26 91/14/26 59/10/26
f 91/14/26 69/12/26 67/12/26
f 59/10/26 91/14/26 90/13/26
f 91/14/26 67/12/26 92/14/26
f 59/10/26 90/13/26 58/10/26
f 58/10/26 92/14/26 67/12/26
f 95/13/26 58/10/26 90/13/26
f 92/14/26 58/10/26 95/13/26
f 98/15/28 97/15/27 96/15/27
f 97/15/27 98/15/28 99/15/28
f 102/16/29 101/16/30 100/16/29
f 101/16/30 102/16/29 103/16/30
f 103/16/30 98/15/28 101/16/30
f 98/15/28 103/16/30 99/15/28
f 97/15/27 100/16/29 96/15/27
f 100/16/29 97/15/27 102/16/29
f 97/15/31 104/7/31 102/16/31
f 102/16/31 104/7/31 103/16/31
f 97/15/31 105/9/31 104/7/31
f 106/7/31 103/16/31 104/7/31
f 105/9/31 97/15/31 107/9/31
f 106/7/31 99/15/31 103/16/31
f 107/9/31 97/15/31 99/15/31
f 99/15/31 106/7/31 107/9/31
f 110/9/31 109/7/31 108/7/31
f 109/7/31 110/9/31 111/9/31
f 26/18/12 19/17/12 17/17/12
f 19/17/12 26/18/12 28/18/12
f 34/18/9 37/19/9 39/19/9
f 37/19/9 34/18/9 36/18/9
f 114/20/32 113/21/33 112/20/32
f 113/21/33 114/20/32 115/21/33
f 118/22/34 117/22/35 116/22/34
f 117/22/35 118/22/34 119/22/35
f 122/23/37 121/23/36 120/23/36
f 121/23/36 122/23/37 123/23/37
f 126/21/38 125/20/39 124/21/38
f 125/20/39 126/21/38 127/20/39
f 125/20/39 117/22/35 119/22/35
f 117/22/35 125/20/39 127/20/39
f 112/20/32 116/22/34 114/20/32
f 116/22/34 112/20/32 118/22/34
f 120/23/36 113/21/33 115/21/33
f 113/21/33 120/23/36 121/23/36
f 122/23/37 124/21/38 123/23/37
f 124/21/38 122/23/37 126/21/38
f 96/24/31 101/25/31 98/24/31
f 101/25/31 96/24/31 100/25/31
f 129/26/19 49/27/19 128/26/19
f 49/27/19 129/26/19 51/27/19
f 56/27/21 130/26/21 53/27/21
f 130/26/21 56/27/21 131/26/21
f 49/27/20 130/26/20 128/26/20
f 130/26/20 49/27/20 53/27/20
f 56/27/12 129/26/12 131/26/12
f 129/26/12 56/27/12 51/27/12
f 129/26/22 130/26/22 131/26/22
f 130/26/22 129/26/22 128/26/22

g pitstop-garage-corner




usemtl colormap

f 3/1/2 2/1/1 1/1/1
f 2/1/1 3/1/2 4/1/2
f 7/2/3 6/2/4 5/2/3
f 6/2/4 7/2/3 8/2/4
f 11/3/5 10/4/6 9/3/5
f 10/4/6 11/3/5 12/4/6
f 15/4/8 14/3/7 13/3/7
f 14/3/7 15/4/8 16/4/8
f 1/1/1 16/4/8 15/4/8
f 16/4/8 1/1/1 2/1/1
f 11/3/5 6/2/4 8/2/4
f 6/2/4 11/3/5 9/3/5
f 10/4/6 4/1/2 3/1/2
f 4/1/2 10/4/6 12/4/6
f 14/3/7 5/2/3 13/3/7
f 5/2/3 14/3/7 7/2/3
f 14/3/9 8/2/9 7/2/9
f 8/2/9 14/3/9 11/3/9
f 11/3/9 14/3/9 16/4/9
f 11/3/9 16/4/9 12/4/9
f 12/4/9 16/4/9 2/1/9
f 12/4/9 2/1/9 4/1/9
f 19/5/11 18/5/10 17/5/10
f 18/5/10 19/5/11 20/5/11
f 23/6/12 22/5/12 21/5/12
f 22/5/12 23/6/12 24/6/12
f 27/6/14 26/6/13 25/6/13
f 26/6/13 27/6/14 28/6/14
f 27/6/14 19/5/11 28/6/14
f 19/5/11 27/6/14 20/5/11
f 18/5/10 26/6/13 17/5/10
f 26/6/13 18/5/10 25/6/13
f 18/5/12 29/7/12 25/6/12
f 25/6/12 29/7/12 27/6/12
f 18/5/12 30/8/12 29/7/12
f 31/7/12 27/6/12 29/7/12
f 30/8/12 18/5/12 32/8/12
f 31/7/12 20/5/12 27/6/12
f 32/8/12 20/5/12 31/7/12
f 20/5/12 32/8/12 18/5/12
f 35/6/16 34/6/15 33/6/15
f 34/6/15 35/6/16 36/6/16
f 36/6/16 38/9/17 37/9/17
f 38/9/17 36/6/16 35/6/16
f 40/9/18 34/6/15 39/9/18
f 34/6/15 40/9/18 33/6/15
f 42/7/9 40/9/9 41/9/9
f 40/9/9 42/7/9 33/6/9
f 33/6/9 42/7/9 35/6/9
f 43/7/9 35/6/9 42/7/9
f 43/7/9 38/9/9 35/6/9
f 38/9/9 43/7/9 44/9/9
f 47/6/9 46/9/9 45/9/9
f 46/9/9 47/6/9 48/6/9
f 51/9/19 50/7/19 49/9/19
f 50/7/19 51/9/19 52/7/19
f 50/7/20 53/9/20 49/9/20
f 53/9/20 50/7/20 54/7/20
f 55/7/21 53/9/21 54/7/21
f 53/9/21 55/7/21 56/9/21
f 55/7/12 51/9/12 56/9/12
f 51/9/12 55/7/12 52/7/12
f 59/10/22 58/10/22 57/10/22
f 62/11/23 61/11/23 60/11/23
f 61/11/23 62/11/23 63/11/23
f 65/12/19 62/11/19 64/12/19
f 62/11/19 65/12/19 63/11/19
f 62/11/20 66/12/20 64/12/20
f 66/12/20 62/11/20 60/11/20
f 69/12/22 68/12/22 67/12/22
f 68/12/22 69/12/22 70/12/22
f 70/12/22 69/12/22 71/12/22
f 71/12/22 72/12/22 70/12/22
f 71/12/22 69/12/22 73/12/22
f 64/12/22 73/12/22 69/12/22
f 64/12/22 69/12/22 65/12/22
f 64/12/22 74/12/22 73/12/22
f 64/12/22 75/12/22 74/12/22
f 64/12/22 76/12/22 75/12/22
f 76/12/22 64/12/22 66/12/22
f 79/13/21 78/14/21 77/13/21
f 78/14/21 79/13/21 80/14/21
f 78/14/23 82/14/23 81/14/23
f 82/14/23 78/14/23 80/14/23
f 82/14/19 83/13/19 81/14/19
f 83/13/19 82/14/19 84/13/19
f 79/13/22 83/13/22 84/13/22
f 83/13/22 79/13/22 77/13/22
f 58/10/21 61/11/21 57/10/21
f 58/10/21 60/11/21 61/11/21
f 85/13/21 60/11/21 58/10/21
f 60/11/21 85/13/21 66/12/21
f 76/12/21 66/12/21 85/13/21
f 85/13/21 58/10/21 86/13/21
f 86/13/21 58/10/21 68/12/21
f 67/12/21 68/12/21 58/10/21
f 86/13/22 42/13/22 85/13/22
f 42/13/22 86/13/22 87/13/22
f 87/13/20 68/12/20 70/12/20
f 68/12/20 87/13/20 86/13/20
f 85/13/12 75/12/12 76/12/12
f 75/12/12 85/13/12 42/13/12
f 61/11/12 59/10/12 57/10/12
f 63/11/12 59/10/12 61/11/12
f 63/11/12 79/13/12 59/10/12
f 84/13/12 59/10/12 79/13/12
f 63/11/12 80/14/12 79/13/12
f 65/12/12 80/14/12 63/11/12
f 82/14/12 59/10/12 84/13/12
f 80/14/12 65/12/12 82/14/12
f 82/14/12 69/12/12 59/10/12
f 69/12/12 82/14/12 65/12/12
f 90/13/24 89/14/24 88/13/24
f 89/14/24 90/13/24 91/14/24
f 93/14/23 91/14/23 92/14/23
f 91/14/23 93/14/23 89/14/23
f 93/14/25 95/13/25 94/13/25
f 95/13/25 93/14/25 92/14/25
f 90/13/22 94/13/22 95/13/22
f 94/13/22 90/13/22 88/13/22
f 69/12/26 91/14/26 59/10/26
f 91/14/26 69/12/26 67/12/26
f 59/10/26 91/14/26 90/13/26
f 91/14/26 67/12/26 92/14/26
f 59/10/26 90/13/26 58/10/26
f 58/10/26 92/14/26 67/12/26
f 95/13/26 58/10/26 90/13/26
f 92/14/26 58/10/26 95/13/26
f 98/15/28 97/15/27 96/15/27
f 97/15/27 98/15/28 99/15/28
f 102/16/29 101/16/30 100/16/29
f 101/16/30 102/16/29 103/16/30
f 103/16/30 98/15/28 101/16/30
f 98/15/28 103/16/30 99/15/28
f 97/15/27 100/16/29 96/15/27
f 100/16/29 97/15/27 102/16/29
f 97/15/31 104/7/31 102/16/31
f 102/16/31 104/7/31 103/16/31
f 97/15/31 105/9/31 104/7/31
f 106/7/31 103/16/31 104/7/31
f 105/9/31 97/15/31 107/9/31
f 106/7/31 99/15/31 103/16/31
f 107/9/31 97/15/31 99/15/31
f 99/15/31 106/7/31 107/9/31
f 110/9/31 109/7/31 108/7/31
f 109/7/31 110/9/31 111/9/31
f 26/18/12 19/17/12 17/17/12
f 19/17/12 26/18/12 28/18/12
f 34/18/9 37/19/9 39/19/9
f 37/19/9 34/18/9 36/18/9
f 114/20/32 113/21/33 112/20/32
f 113/21/33 114/20/32 115/21/33
f 118/22/34 117/22/35 116/22/34
f 117/22/35 118/22/34 119/22/35
f 122/23/37 121/23/36 120/23/36
f 121/23/36 122/23/37 123/23/37
f 126/21/38 125/20/39 124/21/38
f 125/20/39 126/21/38 127/20/39
f 125/20/39 117/22/35 119/22/35
f 117/22/35 125/20/39 127/20/39
f 112/20/32 116/22/34 114/20/32
f 116/22/34 112/20/32 118/22/34
f 120/23/36 113/21/33 115/21/33
f 113/21/33 120/23/36 121/23/36
f 122/23/37 124/21/38 123/23/37
f 124/21/38 122/23/37 126/21/38
f 96/24/31 101/25/31 98/24/31
f 101/25/31 96/24/31 100/25/31
f 129/26/19 49/27/19 128/26/19
f 49/27/19 129/26/19 51/27/19
f 56/27/21 130/26/21 53/27/21
f 130/26/21 56/27/21 131/26/21
f 49/27/20 130/26/20 128/26/20
f 130/26/20 49/27/20 53/27/20
f 56/27/12 129/26/12 131/26/12
f 129/26/12 56/27/12 51/27/12
f 129/26/22 130/26/22 131/26/22
f 130/26/22 129/26/22 128/26/22

