# Created by Kenney (www.kenney.nl)

mtllib racing-lights-single.mtl

g racing-lights-single

v 0.03125 0.35 -0.03125 1 1 1
v 0.03125 0.2875 -0.0625 1 1 1
v 0.0625 0.2875 -0.03125 1 1 1
v -0.0625 0.2875 0.03125 1 1 1
v -0.03125 0.35 0.03125 1 1 1
v -0.03125 0.2875 0.0625 1 1 1
v -0.0625 0.2875 -0.03125 1 1 1
v -0.03125 0.2875 -0.0625 1 1 1
v -0.03125 0.35 -0.03125 1 1 1
v 0.03125 0.35 0.03125 1 1 1
v 0.0625 0.2875 0.03125 1 1 1
v 0.03125 0.2875 0.0625 1 1 1
v 0.078125 0 0.0390625 1 1 1
v 0.0390625 0 0.078125 1 1 1
v 0.03125 1.4875 0.03125 1 1 1
v -0.03125 1.4875 0.03125 1 1 1
v -0.0390625 0 -0.078125 1 1 1
v 0.0390625 0 -0.078125 1 1 1
v -0.078125 0 0.0390625 1 1 1
v -0.0390625 0 0.078125 1 1 1
v 0.078125 0 -0.0390625 1 1 1
v -0.078125 0 -0.0390625 1 1 1
v -0.03125 1.4875 -0.03125 1 1 1
v 0.03125 1.4875 -0.03125 1 1 1
v -0.05859375 1.144455 -0.02734375 1 1 1
v -0.05859375 1.331955 -0.02734375 1 1 1
v -0.05859375 1.144455 0.02734375 1 1 1
v -0.05859375 1.331955 0.02734375 1 1 1
v 0.02734375 1.144455 0.05859375 1 1 1
v -0.02734375 1.144455 0.05859375 1 1 1
v 0.02734375 1.331955 0.05859375 1 1 1
v -0.02734375 1.331955 0.05859375 1 1 1
v 0.05859375 1.144455 0.02734375 1 1 1
v 0.05859375 1.331955 0.02734375 1 1 1
v 0.05859375 1.144455 -0.02734375 1 1 1
v 0.02734375 1.144455 -0.05859375 1 1 1
v -0.02734375 1.144455 -0.05859375 1 1 1
v -0.02734375 1.331955 -0.05859375 1 1 1
v 0.05859375 1.331955 -0.02734375 1 1 1
v 0.02734375 1.331955 -0.05859375 1 1 1
v 0.045 1.420092 0.1845939 1 1 1
v 0.05774638 1.431129 0.1485939 1 1 1
v 0.045 1.420092 0.1485939 1 1 1
v -0.045 1.420092 0.1845939 1 1 1
v -0.045 1.420092 0.1485939 1 1 1
v -0.05775512 1.431108 0.1485939 1 1 1
v 0.04403068 1.464242 0.1485939 1 1 1
v 0.0318198 1.451911 0.1845939 1 1 1
v -0.0005266221 1.482192 0.1485939 1 1 1
v -0.0004424788 1.464908 0.1845939 1 1 1
v -0.0318198 1.451911 0.1485939 1 1 1
v -0.0318198 1.451911 0.1845939 1 1 1
v 0.0318198 1.451911 0.1485939 1 1 1
v -0.0004424788 1.464908 0.1485939 1 1 1
v -0.04406567 1.464157 0.1485939 1 1 1
v 0.045 1.298979 0.1845939 1 1 1
v 0.05774638 1.310017 0.1485939 1 1 1
v 0.045 1.298979 0.1485939 1 1 1
v -0.045 1.298979 0.1845939 1 1 1
v -0.045 1.298979 0.1485939 1 1 1
v -0.05775512 1.309996 0.1485939 1 1 1
v 0.04403068 1.343129 0.1485939 1 1 1
v 0.0318198 1.330799 0.1845939 1 1 1
v -0.0005266221 1.361079 0.1485939 1 1 1
v -0.0004424788 1.343796 0.1845939 1 1 1
v -0.0318198 1.330799 0.1485939 1 1 1
v -0.0318198 1.330799 0.1845939 1 1 1
v 0.0318198 1.330799 0.1485939 1 1 1
v -0.0004424788 1.343796 0.1485939 1 1 1
v -0.04406567 1.343045 0.1485939 1 1 1
v 0.045 1.177844 0.1845939 1 1 1
v 0.05774638 1.188881 0.1485939 1 1 1
v 0.045 1.177844 0.1485939 1 1 1
v -0.045 1.177844 0.1845939 1 1 1
v -0.045 1.177844 0.1485939 1 1 1
v -0.05775512 1.18886 0.1485939 1 1 1
v 0.04403068 1.221994 0.1485939 1 1 1
v 0.0318198 1.209664 0.1845939 1 1 1
v -0.0005266221 1.239944 0.1485939 1 1 1
v -0.0004424788 1.22266 0.1845939 1 1 1
v -0.0318198 1.209664 0.1485939 1 1 1
v -0.0318198 1.209664 0.1845939 1 1 1
v 0.0318198 1.209664 0.1485939 1 1 1
v -0.0004424788 1.22266 0.1485939 1 1 1
v -0.04406567 1.221909 0.1485939 1 1 1
v 0.045 1.056708 0.1845939 1 1 1
v 0.05774638 1.067746 0.1485939 1 1 1
v 0.045 1.056708 0.1485939 1 1 1
v -0.045 1.056708 0.1845939 1 1 1
v -0.045 1.056708 0.1485939 1 1 1
v -0.05775512 1.067725 0.1485939 1 1 1
v 0.04403068 1.100858 0.1485939 1 1 1
v 0.0318198 1.088528 0.1845939 1 1 1
v -0.0005266221 1.118808 0.1485939 1 1 1
v -0.0004424788 1.101525 0.1845939 1 1 1
v -0.0318198 1.088528 0.1485939 1 1 1
v -0.0318198 1.088528 0.1845939 1 1 1
v 0.0318198 1.088528 0.1485939 1 1 1
v -0.0004424788 1.101525 0.1485939 1 1 1
v -0.04406567 1.100774 0.1485939 1 1 1
v -0.0675 0.9664104 0.1035937 1 1 1
v -0.0675 0.9889104 0.05859371 1 1 1
v -0.09 0.9889104 0.1035937 1 1 1
v 0.0675 1.4875 0.05859371 1 1 1
v 0.09 1.4875 0.1035937 1 1 1
v 0.0675 1.51 0.1035937 1 1 1
v -0.0675 1.4875 0.05859371 1 1 1
v -0.0675 1.51 0.1035937 1 1 1
v -0.09 1.4875 0.1035937 1 1 1
v 0.09 0.9889104 0.1035937 1 1 1
v 0.0675 0.9889104 0.05859371 1 1 1
v 0.0675 0.9664104 0.1035937 1 1 1
v -0.0675 0.9664104 0.1485937 1 1 1
v -0.09 0.9889104 0.1485937 1 1 1
v 0.0675 1.51 0.1485937 1 1 1
v -0.0675 1.51 0.1485937 1 1 1
v -0.09 1.4875 0.1485937 1 1 1
v 0.09 1.4875 0.1485937 1 1 1
v 0.09 0.9889104 0.1485937 1 1 1
v 0.0675 0.9664104 0.1485937 1 1 1
v -1.949161E-15 1.011525 0.1485937 1 1 1
v 0.03181981 1.024705 0.1485937 1 1 1
v -0.03181981 1.024705 0.1485937 1 1 1
v 0.045 1.056525 0.1485937 1 1 1
v -0.045 1.056525 0.1485937 1 1 1
v 0.045 1.177844 0.1485937 1 1 1
v 0.03181981 1.088345 0.1485937 1 1 1
v 0.03181981 1.146024 0.1485937 1 1 1
v 0.03181981 1.209664 0.1485937 1 1 1
v 0.045 1.298979 0.1485937 1 1 1
v -1.949161E-15 1.101525 0.1485937 1 1 1
v -1.299441E-15 1.132844 0.1485937 1 1 1
v -0.03181981 1.146024 0.1485937 1 1 1
v -0.03181981 1.088345 0.1485937 1 1 1
v -0.045 1.177844 0.1485937 1 1 1
v -0.03181981 1.209664 0.1485937 1 1 1
v -0.045 1.298979 0.1485937 1 1 1
v 0.03181981 1.267159 0.1485937 1 1 1
v -1.299441E-15 1.222844 0.1485937 1 1 1
v -1.949161E-15 1.253979 0.1485937 1 1 1
v -0.03181981 1.267159 0.1485937 1 1 1
v -0.03181981 1.330799 0.1485937 1 1 1
v -0.03181981 1.388272 0.1485937 1 1 1
v -1.949161E-15 1.343979 0.1485937 1 1 1
v -1.949161E-15 1.375092 0.1485937 1 1 1
v -0.045 1.420092 0.1485937 1 1 1
v 0.03181981 1.388272 0.1485937 1 1 1
v -0.03181981 1.451911 0.1485937 1 1 1
v -0.0004424788 1.464908 0.1485937 1 1 1
v -1.949161E-15 1.465092 0.1485937 1 1 1
v 0.0004424788 1.464908 0.1485937 1 1 1
v 0.03181981 1.451911 0.1485937 1 1 1
v 0.045 1.420092 0.1485937 1 1 1
v 0.03181981 1.330799 0.1485937 1 1 1
v 0 1.375092 0.1485938 1 1 1
v -0.03181981 1.388272 0.1485938 1 1 1
v 0.03181981 1.388272 0.1485938 1 1 1
v 0.045 1.420092 0.1485938 1 1 1
v -0.045 1.420092 0.1485938 1 1 1
v 0.03181981 1.451911 0.1485938 1 1 1
v -0.03181981 1.451911 0.1485938 1 1 1
v 0.0004424788 1.464908 0.1485938 1 1 1
v -0.0004424788 1.464908 0.1485938 1 1 1
v 1.299441E-15 1.464908 0.1485938 1 1 1
v 0.04496204 1.177752 0.1485938 1 1 1
v 0.045 1.17766 0.1485938 1 1 1
v 0.03181981 1.146024 0.1485938 1 1 1
v 0.03181981 1.145841 0.1485938 1 1 1
v 0 1.132844 0.1485938 1 1 1
v 0 1.13266 0.1485938 1 1 1
v -0.03181981 1.145841 0.1485938 1 1 1
v -0.03181981 1.146024 0.1485938 1 1 1
v -0.045 1.17766 0.1485938 1 1 1
v -0.04496204 1.177752 0.1485938 1 1 1
v 0.03181981 1.20948 0.1485938 1 1 1
v 0.045 1.177844 0.1485938 1 1 1
v 0.03181981 1.209664 0.1485938 1 1 1
v 0 1.22266 0.1485938 1 1 1
v 0 1.222844 0.1485938 1 1 1
v -0.03181981 1.209664 0.1485938 1 1 1
v -0.03181981 1.20948 0.1485938 1 1 1
v -0.045 1.177844 0.1485938 1 1 1
v 0 1.253979 0.1485938 1 1 1
v -0.03181981 1.267159 0.1485938 1 1 1
v 0.03181981 1.267159 0.1485938 1 1 1
v 0.045 1.298979 0.1485938 1 1 1
v -0.045 1.298979 0.1485938 1 1 1
v 0.03181981 1.330799 0.1485938 1 1 1
v -0.03181981 1.330799 0.1485938 1 1 1
v 0 1.343979 0.1485938 1 1 1
v 0 1.011525 0.1485938 1 1 1
v -0.03181981 1.024705 0.1485938 1 1 1
v 0.03181981 1.024705 0.1485938 1 1 1
v 0.045 1.056525 0.1485938 1 1 1
v -0.045 1.056525 0.1485938 1 1 1
v 0.03181981 1.088345 0.1485938 1 1 1
v -0.03181981 1.088345 0.1485938 1 1 1
v 0 1.101525 0.1485938 1 1 1

vn 0.5997861 0.5296351 -0.5997861
vn 0.315808 0.4243266 -0.8486531
vn 0.8486531 0.4243266 -0.315808
vn -0.8486531 0.4243266 0.315808
vn -0.5997861 0.5296351 0.5997861
vn -0.315808 0.4243266 0.8486531
vn -0.8486531 0.4243266 -0.315808
vn -0.315808 0.4243266 -0.8486531
vn -0.5997861 0.5296351 -0.5997861
vn 0.5997861 0.5296351 0.5997861
vn 0.8486531 0.4243266 0.315808
vn 0.315808 0.4243266 0.8486531
vn 0.9217949 0.06050319 0.3829277
vn 0.3829277 0.06050319 0.9217949
vn 0.9225959 0.0604942 0.380995
vn 0.380995 0.0604942 0.9225959
vn 0.7071068 0 0.7071068
vn -0.7071068 0 0.7071068
vn -0.3829277 0.06050319 -0.9217949
vn 0.3829277 0.06050319 -0.9217949
vn -0.380995 0.0604942 -0.9225959
vn 0.380995 0.0604942 -0.9225959
vn -0.9225959 0.0604942 0.380995
vn -0.380995 0.0604942 0.9225959
vn -0.9217949 0.06050319 0.3829277
vn -0.3829277 0.06050319 0.9217949
vn 0 -1 0
vn -0.9217949 0.06050319 -0.3829277
vn -0.9225959 0.0604942 -0.380995
vn -0.7071068 0 -0.7071068
vn 0.7071068 0 -0.7071068
vn 0.9217949 0.06050319 -0.3829277
vn 0.9225959 0.0604942 -0.380995
vn 0 1 0
vn -0.9238795 0 -0.3826834
vn -0.9238795 0 0.3826834
vn 0.3826834 0 0.9238795
vn -0.3826834 0 0.9238795
vn 0.9238795 0 0.3826834
vn -0.3826834 0 -0.9238795
vn 0.9238795 0 -0.3826834
vn 0.3826834 0 -0.9238795
vn 0.9267117 0.1058271 0.3605635
vn 0.9470149 -0.1129353 0.30068
vn 0.6546147 -0.7559626 0
vn -0.926662 0.1057971 0.3606999
vn -0.6536413 -0.7568045 0
vn -0.9469178 -0.1135551 0.3007523
vn 0.6338565 0.6400585 0.4342247
vn -0.00438879 0.9014769 0.4328049
vn -0.9238795 0.3826834 0
vn -0.7071068 0.7071068 0
vn 0.9238795 -0.3826834 0
vn 0.7071068 -0.7071068 0
vn 0.703656 0.7105409 0
vn -0.004868386 0.9999882 0
vn 0.004868386 -0.9999882 0
vn -0.703656 -0.7105409 0
vn 0.9238795 0.3826834 0
vn -0.9238795 -0.3826834 0
vn -0.6372085 0.6372085 0.4335096
vn -0.315808 -0.8486531 -0.4243266
vn -0.5997861 -0.5997861 -0.5296351
vn -0.8486531 -0.315808 -0.4243266
vn 0.5997861 0.5997861 -0.5296351
vn 0.8486531 0.315808 -0.4243266
vn 0.315808 0.8486531 -0.4243266
vn -0.5997861 0.5997861 -0.5296351
vn -0.315808 0.8486531 -0.4243266
vn -0.8486531 0.315808 -0.4243266
vn 0.8486531 -0.315808 -0.4243266
vn 0.5997861 -0.5997861 -0.5296351
vn 0.315808 -0.8486531 -0.4243266
vn -0.3826834 -0.9238795 0
vn 0.3826834 0.9238795 0
vn -0.3826834 0.9238795 0
vn 0.3826834 -0.9238795 0
vn 0 0 1
vn 0 0 -1

vt 0.46875 0.1779412
vt 0.46875 0.1863445
vt 0.46875 0.225
vt 0.46875 0.025
vt 0.46875 0.075
vt 0.46875 0.175
vt 0.34375 0.025
vt 0.34375 0.06054755
vt 0.34375 0.06047953
vt 0.34375 0.1671902
vt 0.34375 0.127479
vt 0.34375 0.225
vt 0.34375 0.1693369
vt 0.34375 0.1669181
vt 0.34375 0.075
vt 0.34375 0.1696717
vt 0.34375 0.175
vt 0.34375 0.09634046
vt 0.34375 0.07514579
vt 0.34375 0.08880506
vt 0.34375 0.1038759
vt 0.34375 0.1250271
vt 0.34375 0.07826705
vt 0.34375 0.08568379
vt 0.34375 0.1174917
vt 0.34375 0.1069971
vt 0.34375 0.1143705
vt 0.34375 0.1325625
vt 0.34375 0.146173
vt 0.34375 0.1356838
vt 0.34375 0.1430517
vt 0.34375 0.1537084
vt 0.34375 0.1612438
vt 0.34375 0.1643216
vt 0.34375 0.164365
vt 0.59375 0.025
vt 0.59375 0.127479
vt 0.59375 0.06047953
vt 0.59375 0.1669181
vt 0.59375 0.1693369
vt 0.59375 0.225
vt 0.59375 0.1671902
vt 0.59375 0.06054755
vt 0.28125 0.375
vt 0.53125 0.375
vt 0.15625 0.375

usemtl colormap

f 3/2/3 2/2/2 1/1/1
f 6/2/6 5/1/5 4/2/4
f 9/1/9 8/2/8 7/2/7
f 12/2/12 11/2/11 10/1/10
f 11/2/15 14/3/14 13/3/13
f 14/3/14 11/2/15 12/2/16
f 15/4/17 5/1/18 10/1/17
f 5/1/18 15/4/17 16/4/18
f 8/2/21 18/3/20 17/3/19
f 18/3/20 8/2/21 2/2/22
f 9/1/9 2/2/2 8/2/8
f 2/2/2 9/1/9 1/1/1
f 19/3/25 6/2/24 4/2/23
f 6/2/24 19/3/25 20/3/26
f 14/3/27 21/3/27 13/3/27
f 21/3/27 14/3/27 18/3/27
f 18/3/27 14/3/27 20/3/27
f 18/3/27 20/3/27 17/3/27
f 17/3/27 20/3/27 19/3/27
f 17/3/27 19/3/27 22/3/27
f 4/2/4 9/1/9 7/2/7
f 9/1/9 4/2/4 5/1/5
f 22/3/28 8/2/21 17/3/19
f 8/2/21 22/3/28 7/2/29
f 10/1/10 6/2/6 12/2/12
f 6/2/6 10/1/10 5/1/5
f 12/2/16 20/3/26 14/3/14
f 20/3/26 12/2/16 6/2/24
f 23/4/30 1/1/31 9/1/30
f 1/1/31 23/4/30 24/4/31
f 15/4/17 1/1/31 24/4/31
f 1/1/31 15/4/17 10/1/17
f 2/2/22 21/3/32 18/3/20
f 21/3/32 2/2/22 3/2/33
f 19/3/25 7/2/29 22/3/28
f 7/2/29 19/3/25 4/2/23
f 3/2/33 13/3/13 21/3/32
f 13/3/13 3/2/33 11/2/15
f 23/4/34 15/4/34 24/4/34
f 15/4/34 23/4/34 16/4/34
f 5/1/18 23/4/30 9/1/30
f 23/4/30 5/1/18 16/4/18
f 10/1/10 3/2/3 1/1/1
f 3/2/3 10/1/10 11/2/11
f 27/5/36 26/6/35 25/5/35
f 26/6/35 27/5/36 28/6/36
f 31/6/37 30/5/38 29/5/37
f 30/5/38 31/6/37 32/6/38
f 34/6/39 29/5/37 33/5/39
f 29/5/37 34/6/39 31/6/37
f 29/5/27 35/5/27 33/5/27
f 35/5/27 29/5/27 36/5/27
f 36/5/27 29/5/27 30/5/27
f 36/5/27 30/5/27 37/5/27
f 37/5/27 30/5/27 27/5/27
f 37/5/27 27/5/27 25/5/27
f 26/6/35 37/5/40 25/5/35
f 37/5/40 26/6/35 38/6/40
f 32/6/38 27/5/36 30/5/38
f 27/5/36 32/6/38 28/6/36
f 34/6/39 35/5/41 39/6/41
f 35/5/41 34/6/39 33/5/39
f 38/6/40 36/5/42 37/5/40
f 36/5/42 38/6/40 40/6/42
f 40/6/34 34/6/34 39/6/34
f 34/6/34 40/6/34 31/6/34
f 31/6/34 40/6/34 38/6/34
f 31/6/34 38/6/34 32/6/34
f 32/6/34 38/6/34 26/6/34
f 32/6/34 26/6/34 28/6/34
f 40/6/42 35/5/41 36/5/42
f 35/5/41 40/6/42 39/6/41
f 43/7/45 42/8/44 41/7/43
f 46/9/48 45/7/47 44/7/46
f 49/12/50 48/11/49 47/10/49
f 48/11/49 49/12/50 50/13/50
f 44/7/51 51/11/52 45/7/51
f 51/11/52 44/7/51 52/11/52
f 45/7/53 51/11/54 44/7/53
f 52/11/54 44/7/53 51/11/54
f 54/13/56 48/11/55 53/11/55
f 48/11/55 54/13/56 50/13/56
f 53/11/58 48/11/58 54/13/57
f 50/13/57 54/13/57 48/11/58
f 51/11/52 50/13/56 54/13/56
f 50/13/56 51/11/52 52/11/52
f 54/13/57 50/13/57 51/11/54
f 52/11/54 51/11/54 50/13/57
f 48/11/55 43/7/59 53/11/55
f 43/7/59 48/11/55 41/7/59
f 53/11/58 43/7/60 48/11/58
f 41/7/60 48/11/58 43/7/60
f 49/12/50 52/11/61 50/13/50
f 52/11/61 49/12/50 55/14/61
f 44/7/46 55/14/61 46/9/48
f 55/14/61 44/7/46 52/11/61
f 48/11/49 42/8/44 47/10/49
f 42/8/44 48/11/49 41/7/43
f 58/7/45 57/8/44 56/7/43
f 61/9/48 60/7/47 59/7/46
f 64/12/50 63/11/49 62/10/49
f 63/11/49 64/12/50 65/13/50
f 59/7/51 66/11/52 60/7/51
f 66/11/52 59/7/51 67/11/52
f 60/7/53 66/11/54 59/7/53
f 67/11/54 59/7/53 66/11/54
f 69/13/56 63/11/55 68/11/55
f 63/11/55 69/13/56 65/13/56
f 68/11/58 63/11/58 69/13/57
f 65/13/57 69/13/57 63/11/58
f 66/11/52 65/13/56 69/13/56
f 65/13/56 66/11/52 67/11/52
f 69/13/57 65/13/57 66/11/54
f 67/11/54 66/11/54 65/13/57
f 63/11/55 58/7/59 68/11/55
f 58/7/59 63/11/55 56/7/59
f 68/11/58 58/7/60 63/11/58
f 56/7/60 63/11/58 58/7/60
f 64/12/50 67/11/61 65/13/50
f 67/11/61 64/12/50 70/14/61
f 59/7/46 70/14/61 61/9/48
f 70/14/61 59/7/46 67/11/61
f 63/11/49 57/8/44 62/10/49
f 57/8/44 63/11/49 56/7/43
f 73/7/45 72/8/44 71/7/43
f 76/9/48 75/7/47 74/7/46
f 79/12/50 78/11/49 77/10/49
f 78/11/49 79/12/50 80/13/50
f 74/7/51 81/11/52 75/7/51
f 81/11/52 74/7/51 82/11/52
f 75/7/53 81/11/54 74/7/53
f 82/11/54 74/7/53 81/11/54
f 84/13/56 78/11/55 83/11/55
f 78/11/55 84/13/56 80/13/56
f 83/11/58 78/11/58 84/13/57
f 80/13/57 84/13/57 78/11/58
f 81/11/52 80/13/56 84/13/56
f 80/13/56 81/11/52 82/11/52
f 84/13/57 80/13/57 81/11/54
f 82/11/54 81/11/54 80/13/57
f 78/11/55 73/7/59 83/11/55
f 73/7/59 78/11/55 71/7/59
f 83/11/58 73/7/60 78/11/58
f 71/7/60 78/11/58 73/7/60
f 79/12/50 82/11/61 80/13/50
f 82/11/61 79/12/50 85/14/61
f 74/7/46 85/14/61 76/9/48
f 85/14/61 74/7/46 82/11/61
f 78/11/49 72/8/44 77/10/49
f 72/8/44 78/11/49 71/7/43
f 88/7/45 87/8/44 86/7/43
f 91/9/48 90/7/47 89/7/46
f 94/12/50 93/11/49 92/10/49
f 93/11/49 94/12/50 95/13/50
f 89/7/51 96/11/52 90/7/51
f 96/11/52 89/7/51 97/11/52
f 90/7/53 96/11/54 89/7/53
f 97/11/54 89/7/53 96/11/54
f 99/13/56 93/11/55 98/11/55
f 93/11/55 99/13/56 95/13/56
f 98/11/58 93/11/58 99/13/57
f 95/13/57 99/13/57 93/11/58
f 96/11/52 95/13/56 99/13/56
f 95/13/56 96/11/52 97/11/52
f 99/13/57 95/13/57 96/11/54
f 97/11/54 96/11/54 95/13/57
f 93/11/55 88/7/59 98/11/55
f 88/7/59 93/11/55 86/7/59
f 98/11/58 88/7/60 93/11/58
f 86/7/60 93/11/58 88/7/60
f 94/12/50 97/11/61 95/13/50
f 97/11/61 94/12/50 100/14/61
f 89/7/46 100/14/61 91/9/48
f 100/14/61 89/7/46 97/11/61
f 93/11/49 87/8/44 92/10/49
f 87/8/44 93/11/49 86/7/43
f 103/15/64 102/15/63 101/15/62
f 106/17/67 105/16/66 104/16/65
f 109/16/70 108/17/69 107/16/68
f 112/15/73 111/15/72 110/15/71
f 113/15/74 103/15/60 101/15/74
f 103/15/60 113/15/74 114/15/60
f 108/17/76 115/17/75 106/17/75
f 115/17/75 108/17/76 116/17/76
f 114/15/60 109/16/51 103/15/60
f 109/16/51 114/15/60 117/16/51
f 118/16/59 110/15/53 105/16/59
f 110/15/53 118/16/59 119/15/53
f 109/16/51 116/17/76 108/17/76
f 116/17/76 109/16/51 117/16/51
f 119/15/53 112/15/77 110/15/53
f 112/15/77 119/15/53 120/15/77
f 113/15/74 112/15/77 120/15/77
f 112/15/77 113/15/74 101/15/74
f 106/17/75 118/16/59 105/16/59
f 118/16/59 106/17/75 115/17/75
f 107/16/68 106/17/67 104/16/65
f 106/17/67 107/16/68 108/17/69
f 101/15/62 111/15/72 112/15/73
f 111/15/72 101/15/62 102/15/63
f 103/15/64 107/16/68 102/15/63
f 107/16/68 103/15/64 109/16/70
f 104/16/65 110/15/71 111/15/72
f 110/15/71 104/16/65 105/16/66
f 119/15/78 113/15/78 120/15/78
f 113/15/78 119/15/78 114/15/78
f 114/15/78 119/15/78 121/15/78
f 121/15/78 119/15/78 122/15/78
f 123/15/78 114/15/78 121/15/78
f 122/15/78 119/15/78 124/15/78
f 125/15/78 114/15/78 123/15/78
f 124/15/78 119/15/78 118/16/78
f 114/15/78 125/15/78 117/16/78
f 124/15/78 118/16/78 126/18/78
f 124/15/78 126/18/78 127/19/78
f 127/19/78 126/18/78 128/20/78
f 126/18/78 118/16/78 129/21/78
f 117/16/78 118/16/78 115/17/78
f 129/21/78 118/16/78 130/22/78
f 117/16/78 115/17/78 116/17/78
f 127/19/78 128/20/78 131/23/78
f 131/23/78 128/20/78 132/24/78
f 133/20/78 131/23/78 132/24/78
f 133/20/78 134/19/78 131/23/78
f 135/18/78 134/19/78 133/20/78
f 135/18/78 125/15/78 134/19/78
f 117/16/78 125/15/78 135/18/78
f 117/16/78 135/18/78 136/21/78
f 117/16/78 136/21/78 137/22/78
f 129/21/78 130/22/78 138/25/78
f 129/21/78 138/25/78 139/26/78
f 139/26/78 138/25/78 140/27/78
f 141/25/78 139/26/78 140/27/78
f 141/25/78 136/21/78 139/26/78
f 137/22/78 136/21/78 141/25/78
f 117/16/78 137/22/78 142/28/78
f 117/16/78 142/28/78 143/29/78
f 143/29/78 142/28/78 144/30/78
f 143/29/78 144/30/78 145/31/78
f 117/16/78 143/29/78 146/32/78
f 144/30/78 147/29/78 145/31/78
f 117/16/78 146/32/78 148/33/78
f 117/16/78 148/33/78 149/34/78
f 117/16/78 149/34/78 150/35/78
f 117/16/78 150/35/78 118/16/78
f 151/34/78 118/16/78 150/35/78
f 152/33/78 118/16/78 151/34/78
f 153/32/78 118/16/78 152/33/78
f 147/29/78 118/16/78 153/32/78
f 154/28/78 147/29/78 144/30/78
f 154/28/78 118/16/78 147/29/78
f 130/22/78 118/16/78 154/28/78
f 107/16/79 111/15/79 102/15/79
f 111/15/79 107/16/79 104/16/79
f 46/38/79 51/37/79 45/36/79
f 51/37/79 46/38/79 55/39/79
f 51/37/79 55/39/79 54/40/79
f 54/40/79 55/39/79 49/41/79
f 47/42/79 54/40/79 49/41/79
f 47/42/79 53/37/79 54/40/79
f 42/43/79 53/37/79 47/42/79
f 53/37/79 42/43/79 43/36/79
f 61/38/79 66/37/79 60/36/79
f 66/37/79 61/38/79 70/39/79
f 66/37/79 70/39/79 69/40/79
f 69/40/79 70/39/79 64/41/79
f 62/42/79 69/40/79 64/41/79
f 62/42/79 68/37/79 69/40/79
f 57/43/79 68/37/79 62/42/79
f 68/37/79 57/43/79 58/36/79
f 76/38/79 81/37/79 75/36/79
f 81/37/79 76/38/79 85/39/79
f 81/37/79 85/39/79 84/40/79
f 84/40/79 85/39/79 79/41/79
f 77/42/79 84/40/79 79/41/79
f 77/42/79 83/37/79 84/40/79
f 72/43/79 83/37/79 77/42/79
f 83/37/79 72/43/79 73/36/79
f 91/38/79 96/37/79 90/36/79
f 96/37/79 91/38/79 100/39/79
f 96/37/79 100/39/79 99/40/79
f 99/40/79 100/39/79 94/41/79
f 92/42/79 99/40/79 94/41/79
f 92/42/79 98/37/79 99/40/79
f 87/43/79 98/37/79 92/42/79
f 98/37/79 87/43/79 88/36/79
f 157/44/78 156/44/78 155/44/78
f 156/44/78 157/44/78 158/44/78
f 156/44/78 158/44/78 159/44/78
f 159/44/78 158/44/78 160/44/78
f 159/44/78 160/44/78 161/44/78
f 161/44/78 160/44/78 162/44/78
f 161/44/78 162/44/78 163/44/78
f 163/44/78 162/44/78 164/44/78
f 167/45/78 166/44/78 165/45/78
f 167/45/78 168/44/78 166/44/78
f 169/45/78 168/44/78 167/45/78
f 168/44/78 169/45/78 170/44/78
f 169/45/78 171/44/78 170/44/78
f 171/44/78 169/45/78 172/45/78
f 171/44/78 172/45/78 173/44/78
f 173/44/78 172/45/78 174/45/78
f 176/46/78 175/45/78 165/45/78
f 175/45/78 176/46/78 177/46/78
f 175/45/78 177/46/78 178/45/78
f 178/45/78 177/46/78 179/46/78
f 180/46/78 178/45/78 179/46/78
f 180/46/78 181/45/78 178/45/78
f 182/46/78 181/45/78 180/46/78
f 181/45/78 182/46/78 174/45/78
f 185/45/78 184/45/78 183/45/78
f 184/45/78 185/45/78 186/45/78
f 184/45/78 186/45/78 187/45/78
f 187/45/78 186/45/78 188/45/78
f 187/45/78 188/45/78 189/45/78
f 189/45/78 188/45/78 190/45/78
f 193/45/78 192/45/78 191/45/78
f 192/45/78 193/45/78 194/45/78
f 192/45/78 194/45/78 195/45/78
f 195/45/78 194/45/78 196/45/78
f 195/45/78 196/45/78 197/45/78
f 197/45/78 196/45/78 198/45/78
f 167/45/78 172/45/78 169/45/78
f 172/45/78 167/45/78 165/45/78
f 172/45/78 165/45/78 174/45/78
f 174/45/78 165/45/78 175/45/78
f 174/45/78 175/45/78 181/45/78
f 181/45/78 175/45/78 178/45/78

g racing-lights-single




usemtl colormap

f 3/2/3 2/2/2 1/1/1
f 6/2/6 5/1/5 4/2/4
f 9/1/9 8/2/8 7/2/7
f 12/2/12 11/2/11 10/1/10
f 11/2/15 14/3/14 13/3/13
f 14/3/14 11/2/15 12/2/16
f 15/4/17 5/1/18 10/1/17
f 5/1/18 15/4/17 16/4/18
f 8/2/21 18/3/20 17/3/19
f 18/3/20 8/2/21 2/2/22
f 9/1/9 2/2/2 8/2/8
f 2/2/2 9/1/9 1/1/1
f 19/3/25 6/2/24 4/2/23
f 6/2/24 19/3/25 20/3/26
f 14/3/27 21/3/27 13/3/27
f 21/3/27 14/3/27 18/3/27
f 18/3/27 14/3/27 20/3/27
f 18/3/27 20/3/27 17/3/27
f 17/3/27 20/3/27 19/3/27
f 17/3/27 19/3/27 22/3/27
f 4/2/4 9/1/9 7/2/7
f 9/1/9 4/2/4 5/1/5
f 22/3/28 8/2/21 17/3/19
f 8/2/21 22/3/28 7/2/29
f 10/1/10 6/2/6 12/2/12
f 6/2/6 10/1/10 5/1/5
f 12/2/16 20/3/26 14/3/14
f 20/3/26 12/2/16 6/2/24
f 23/4/30 1/1/31 9/1/30
f 1/1/31 23/4/30 24/4/31
f 15/4/17 1/1/31 24/4/31
f 1/1/31 15/4/17 10/1/17
f 2/2/22 21/3/32 18/3/20
f 21/3/32 2/2/22 3/2/33
f 19/3/25 7/2/29 22/3/28
f 7/2/29 19/3/25 4/2/23
f 3/2/33 13/3/13 21/3/32
f 13/3/13 3/2/33 11/2/15
f 23/4/34 15/4/34 24/4/34
f 15/4/34 23/4/34 16/4/34
f 5/1/18 23/4/30 9/1/30
f 23/4/30 5/1/18 16/4/18
f 10/1/10 3/2/3 1/1/1
f 3/2/3 10/1/10 11/2/11
f 27/5/36 26/6/35 25/5/35
f 26/6/35 27/5/36 28/6/36
f 31/6/37 30/5/38 29/5/37
f 30/5/38 31/6/37 32/6/38
f 34/6/39 29/5/37 33/5/39
f 29/5/37 34/6/39 31/6/37
f 29/5/27 35/5/27 33/5/27
f 35/5/27 29/5/27 36/5/27
f 36/5/27 29/5/27 30/5/27
f 36/5/27 30/5/27 37/5/27
f 37/5/27 30/5/27 27/5/27
f 37/5/27 27/5/27 25/5/27
f 26/6/35 37/5/40 25/5/35
f 37/5/40 26/6/35 38/6/40
f 32/6/38 27/5/36 30/5/38
f 27/5/36 32/6/38 28/6/36
f 34/6/39 35/5/41 39/6/41
f 35/5/41 34/6/39 33/5/39
f 38/6/40 36/5/42 37/5/40
f 36/5/42 38/6/40 40/6/42
f 40/6/34 34/6/34 39/6/34
f 34/6/34 40/6/34 31/6/34
f 31/6/34 40/6/34 38/6/34
f 31/6/34 38/6/34 32/6/34
f 32/6/34 38/6/34 26/6/34
f 32/6/34 26/6/34 28/6/34
f 40/6/42 35/5/41 36/5/42
f 35/5/41 40/6/42 39/6/41
f 43/7/45 42/8/44 41/7/43
f 46/9/48 45/7/47 44/7/46
f 49/12/50 48/11/49 47/10/49
f 48/11/49 49/12/50 50/13/50
f 44/7/51 51/11/52 45/7/51
f 51/11/52 44/7/51 52/11/52
f 45/7/53 51/11/54 44/7/53
f 52/11/54 44/7/53 51/11/54
f 54/13/56 48/11/55 53/11/55
f 48/11/55 54/13/56 50/13/56
f 53/11/58 48/11/58 54/13/57
f 50/13/57 54/13/57 48/11/58
f 51/11/52 50/13/56 54/13/56
f 50/13/56 51/11/52 52/11/52
f 54/13/57 50/13/57 51/11/54
f 52/11/54 51/11/54 50/13/57
f 48/11/55 43/7/59 53/11/55
f 43/7/59 48/11/55 41/7/59
f 53/11/58 43/7/60 48/11/58
f 41/7/60 48/11/58 43/7/60
f 49/12/50 52/11/61 50/13/50
f 52/11/61 49/12/50 55/14/61
f 44/7/46 55/14/61 46/9/48
f 55/14/61 44/7/46 52/11/61
f 48/11/49 42/8/44 47/10/49
f 42/8/44 48/11/49 41/7/43
f 58/7/45 57/8/44 56/7/43
f 61/9/48 60/7/47 59/7/46
f 64/12/50 63/11/49 62/10/49
f 63/11/49 64/12/50 65/13/50
f 59/7/51 66/11/52 60/7/51
f 66/11/52 59/7/51 67/11/52
f 60/7/53 66/11/54 59/7/53
f 67/11/54 59/7/53 66/11/54
f 69/13/56 63/11/55 68/11/55
f 63/11/55 69/13/56 65/13/56
f 68/11/58 63/11/58 69/13/57
f 65/13/57 69/13/57 63/11/58
f 66/11/52 65/13/56 69/13/56
f 65/13/56 66/11/52 67/11/52
f 69/13/57 65/13/57 66/11/54
f 67/11/54 66/11/54 65/13/57
f 63/11/55 58/7/59 68/11/55
f 58/7/59 63/11/55 56/7/59
f 68/11/58 58/7/60 63/11/58
f 56/7/60 63/11/58 58/7/60
f 64/12/50 67/11/61 65/13/50
f 67/11/61 64/12/50 70/14/61
f 59/7/46 70/14/61 61/9/48
f 70/14/61 59/7/46 67/11/61
f 63/11/49 57/8/44 62/10/49
f 57/8/44 63/11/49 56/7/43
f 73/7/45 72/8/44 71/7/43
f 76/9/48 75/7/47 74/7/46
f 79/12/50 78/11/49 77/10/49
f 78/11/49 79/12/50 80/13/50
f 74/7/51 81/11/52 75/7/51
f 81/11/52 74/7/51 82/11/52
f 75/7/53 81/11/54 74/7/53
f 82/11/54 74/7/53 81/11/54
f 84/13/56 78/11/55 83/11/55
f 78/11/55 84/13/56 80/13/56
f 83/11/58 78/11/58 84/13/57
f 80/13/57 84/13/57 78/11/58
f 81/11/52 80/13/56 84/13/56
f 80/13/56 81/11/52 82/11/52
f 84/13/57 80/13/57 81/11/54
f 82/11/54 81/11/54 80/13/57
f 78/11/55 73/7/59 83/11/55
f 73/7/59 78/11/55 71/7/59
f 83/11/58 73/7/60 78/11/58
f 71/7/60 78/11/58 73/7/60
f 79/12/50 82/11/61 80/13/50
f 82/11/61 79/12/50 85/14/61
f 74/7/46 85/14/61 76/9/48
f 85/14/61 74/7/46 82/11/61
f 78/11/49 72/8/44 77/10/49
f 72/8/44 78/11/49 71/7/43
f 88/7/45 87/8/44 86/7/43
f 91/9/48 90/7/47 89/7/46
f 94/12/50 93/11/49 92/10/49
f 93/11/49 94/12/50 95/13/50
f 89/7/51 96/11/52 90/7/51
f 96/11/52 89/7/51 97/11/52
f 90/7/53 96/11/54 89/7/53
f 97/11/54 89/7/53 96/11/54
f 99/13/56 93/11/55 98/11/55
f 93/11/55 99/13/56 95/13/56
f 98/11/58 93/11/58 99/13/57
f 95/13/57 99/13/57 93/11/58
f 96/11/52 95/13/56 99/13/56
f 95/13/56 96/11/52 97/11/52
f 99/13/57 95/13/57 96/11/54
f 97/11/54 96/11/54 95/13/57
f 93/11/55 88/7/59 98/11/55
f 88/7/59 93/11/55 86/7/59
f 98/11/58 88/7/60 93/11/58
f 86/7/60 93/11/58 88/7/60
f 94/12/50 97/11/61 95/13/50
f 97/11/61 94/12/50 100/14/61
f 89/7/46 100/14/61 91/9/48
f 100/14/61 89/7/46 97/11/61
f 93/11/49 87/8/44 92/10/49
f 87/8/44 93/11/49 86/7/43
f 103/15/64 102/15/63 101/15/62
f 106/17/67 105/16/66 104/16/65
f 109/16/70 108/17/69 107/16/68
f 112/15/73 111/15/72 110/15/71
f 113/15/74 103/15/60 101/15/74
f 103/15/60 113/15/74 114/15/60
f 108/17/76 115/17/75 106/17/75
f 115/17/75 108/17/76 116/17/76
f 114/15/60 109/16/51 103/15/60
f 109/16/51 114/15/60 117/16/51
f 118/16/59 110/15/53 105/16/59
f 110/15/53 118/16/59 119/15/53
f 109/16/51 116/17/76 108/17/76
f 116/17/76 109/16/51 117/16/51
f 119/15/53 112/15/77 110/15/53
f 112/15/77 119/15/53 120/15/77
f 113/15/74 112/15/77 120/15/77
f 112/15/77 113/15/74 101/15/74
f 106/17/75 118/16/59 105/16/59
f 118/16/59 106/17/75 115/17/75
f 107/16/68 106/17/67 104/16/65
f 106/17/67 107/16/68 108/17/69
f 101/15/62 111/15/72 112/15/73
f 111/15/72 101/15/62 102/15/63
f 103/15/64 107/16/68 102/15/63
f 107/16/68 103/15/64 109/16/70
f 104/16/65 110/15/71 111/15/72
f 110/15/71 104/16/65 105/16/66
f 119/15/78 113/15/78 120/15/78
f 113/15/78 119/15/78 114/15/78
f 114/15/78 119/15/78 121/15/78
f 121/15/78 119/15/78 122/15/78
f 123/15/78 114/15/78 121/15/78
f 122/15/78 119/15/78 124/15/78
f 125/15/78 114/15/78 123/15/78
f 124/15/78 119/15/78 118/16/78
f 114/15/78 125/15/78 117/16/78
f 124/15/78 118/16/78 126/18/78
f 124/15/78 126/18/78 127/19/78
f 127/19/78 126/18/78 128/20/78
f 126/18/78 118/16/78 129/21/78
f 117/16/78 118/16/78 115/17/78
f 129/21/78 118/16/78 130/22/78
f 117/16/78 115/17/78 116/17/78
f 127/19/78 128/20/78 131/23/78
f 131/23/78 128/20/78 132/24/78
f 133/20/78 131/23/78 132/24/78
f 133/20/78 134/19/78 131/23/78
f 135/18/78 134/19/78 133/20/78
f 135/18/78 125/15/78 134/19/78
f 117/16/78 125/15/78 135/18/78
f 117/16/78 135/18/78 136/21/78
f 117/16/78 136/21/78 137/22/78
f 129/21/78 130/22/78 138/25/78
f 129/21/78 138/25/78 139/26/78
f 139/26/78 138/25/78 140/27/78
f 141/25/78 139/26/78 140/27/78
f 141/25/78 136/21/78 139/26/78
f 137/22/78 136/21/78 141/25/78
f 117/16/78 137/22/78 142/28/78
f 117/16/78 142/28/78 143/29/78
f 143/29/78 142/28/78 144/30/78
f 143/29/78 144/30/78 145/31/78
f 117/16/78 143/29/78 146/32/78
f 144/30/78 147/29/78 145/31/78
f 117/16/78 146/32/78 148/33/78
f 117/16/78 148/33/78 149/34/78
f 117/16/78 149/34/78 150/35/78
f 117/16/78 150/35/78 118/16/78
f 151/34/78 118/16/78 150/35/78
f 152/33/78 118/16/78 151/34/78
f 153/32/78 118/16/78 152/33/78
f 147/29/78 118/16/78 153/32/78
f 154/28/78 147/29/78 144/30/78
f 154/28/78 118/16/78 147/29/78
f 130/22/78 118/16/78 154/28/78
f 107/16/79 111/15/79 102/15/79
f 111/15/79 107/16/79 104/16/79
f 46/38/79 51/37/79 45/36/79
f 51/37/79 46/38/79 55/39/79
f 51/37/79 55/39/79 54/40/79
f 54/40/79 55/39/79 49/41/79
f 47/42/79 54/40/79 49/41/79
f 47/42/79 53/37/79 54/40/79
f 42/43/79 53/37/79 47/42/79
f 53/37/79 42/43/79 43/36/79
f 61/38/79 66/37/79 60/36/79
f 66/37/79 61/38/79 70/39/79
f 66/37/79 70/39/79 69/40/79
f 69/40/79 70/39/79 64/41/79
f 62/42/79 69/40/79 64/41/79
f 62/42/79 68/37/79 69/40/79
f 57/43/79 68/37/79 62/42/79
f 68/37/79 57/43/79 58/36/79
f 76/38/79 81/37/79 75/36/79
f 81/37/79 76/38/79 85/39/79
f 81/37/79 85/39/79 84/40/79
f 84/40/79 85/39/79 79/41/79
f 77/42/79 84/40/79 79/41/79
f 77/42/79 83/37/79 84/40/79
f 72/43/79 83/37/79 77/42/79
f 83/37/79 72/43/79 73/36/79
f 91/38/79 96/37/79 90/36/79
f 96/37/79 91/38/79 100/39/79
f 96/37/79 100/39/79 99/40/79
f 99/40/79 100/39/79 94/41/79
f 92/42/79 99/40/79 94/41/79
f 92/42/79 98/37/79 99/40/79
f 87/43/79 98/37/79 92/42/79
f 98/37/79 87/43/79 88/36/79
f 157/44/78 156/44/78 155/44/78
f 156/44/78 157/44/78 158/44/78
f 156/44/78 158/44/78 159/44/78
f 159/44/78 158/44/78 160/44/78
f 159/44/78 160/44/78 161/44/78
f 161/44/78 160/44/78 162/44/78
f 161/44/78 162/44/78 163/44/78
f 163/44/78 162/44/78 164/44/78
f 167/45/78 166/44/78 165/45/78
f 167/45/78 168/44/78 166/44/78
f 169/45/78 168/44/78 167/45/78
f 168/44/78 169/45/78 170/44/78
f 169/45/78 171/44/78 170/44/78
f 171/44/78 169/45/78 172/45/78
f 171/44/78 172/45/78 173/44/78
f 173/44/78 172/45/78 174/45/78
f 176/46/78 175/45/78 165/45/78
f 175/45/78 176/46/78 177/46/78
f 175/45/78 177/46/78 178/45/78
f 178/45/78 177/46/78 179/46/78
f 180/46/78 178/45/78 179/46/78
f 180/46/78 181/45/78 178/45/78
f 182/46/78 181/45/78 180/46/78
f 181/45/78 182/46/78 174/45/78
f 185/45/78 184/45/78 183/45/78
f 184/45/78 185/45/78 186/45/78
f 184/45/78 186/45/78 187/45/78
f 187/45/78 186/45/78 188/45/78
f 187/45/78 188/45/78 189/45/78
f 189/45/78 188/45/78 190/45/78
f 193/45/78 192/45/78 191/45/78
f 192/45/78 193/45/78 194/45/78
f 192/45/78 194/45/78 195/45/78
f 195/45/78 194/45/78 196/45/78
f 195/45/78 196/45/78 197/45/78
f 197/45/78 196/45/78 198/45/78
f 167/45/78 172/45/78 169/45/78
f 172/45/78 167/45/78 165/45/78
f 172/45/78 165/45/78 174/45/78
f 174/45/78 165/45/78 175/45/78
f 174/45/78 175/45/78 181/45/78
f 181/45/78 175/45/78 178/45/78

