# Created by Kenney (www.kenney.nl)

mtllib racing-lights-traffic.mtl

g racing-lights-traffic

v 0.03125 0.35 -0.03125 1 1 1
v 0.03125 0.2875 -0.0625 1 1 1
v 0.0625 0.2875 -0.03125 1 1 1
v -0.0625 0.2875 0.03125 1 1 1
v -0.03125 0.35 0.03125 1 1 1
v -0.03125 0.2875 0.0625 1 1 1
v -0.0625 0.2875 -0.03125 1 1 1
v -0.03125 0.2875 -0.0625 1 1 1
v -0.03125 0.35 -0.03125 1 1 1
v 0.03125 0.35 0.03125 1 1 1
v 0.0625 0.2875 0.03125 1 1 1
v 0.03125 0.2875 0.0625 1 1 1
v 0.078125 0 0.0390625 1 1 1
v 0.0390625 0 0.078125 1 1 1
v 0.03125 1.4875 0.03125 1 1 1
v -0.03125 1.4875 0.03125 1 1 1
v -0.0390625 0 -0.078125 1 1 1
v 0.0390625 0 -0.078125 1 1 1
v -0.078125 0 0.0390625 1 1 1
v -0.0390625 0 0.078125 1 1 1
v 0.078125 0 -0.0390625 1 1 1
v -0.078125 0 -0.0390625 1 1 1
v -0.03125 1.4875 -0.03125 1 1 1
v 0.03125 1.4875 -0.03125 1 1 1
v -0.05859375 1.205114 -0.02734375 1 1 1
v -0.05859375 1.392614 -0.02734375 1 1 1
v -0.05859375 1.205114 0.02734375 1 1 1
v -0.05859375 1.392614 0.02734375 1 1 1
v 0.02734375 1.205114 0.05859375 1 1 1
v -0.02734375 1.205114 0.05859375 1 1 1
v 0.02734375 1.392614 0.05859375 1 1 1
v -0.02734375 1.392614 0.05859375 1 1 1
v 0.05859375 1.205114 0.02734375 1 1 1
v 0.05859375 1.392614 0.02734375 1 1 1
v 0.05859375 1.205114 -0.02734375 1 1 1
v 0.02734375 1.205114 -0.05859375 1 1 1
v -0.02734375 1.205114 -0.05859375 1 1 1
v -0.02734375 1.392614 -0.05859375 1 1 1
v 0.05859375 1.392614 -0.02734375 1 1 1
v 0.02734375 1.392614 -0.05859375 1 1 1
v 0.045 1.420092 0.1845939 1 1 1
v 0.05774638 1.431129 0.1485939 1 1 1
v 0.045 1.420092 0.1485939 1 1 1
v -0.045 1.420092 0.1845939 1 1 1
v -0.045 1.420092 0.1485939 1 1 1
v -0.05775512 1.431108 0.1485939 1 1 1
v 0.04403068 1.464242 0.1485939 1 1 1
v 0.0318198 1.451911 0.1845939 1 1 1
v -0.0005266221 1.482192 0.1485939 1 1 1
v -0.0004424788 1.464908 0.1845939 1 1 1
v -0.0318198 1.451911 0.1485939 1 1 1
v -0.0318198 1.451911 0.1845939 1 1 1
v 0.0318198 1.451911 0.1485939 1 1 1
v -0.0004424788 1.464908 0.1485939 1 1 1
v -0.04406567 1.464157 0.1485939 1 1 1
v 0.045 1.298979 0.1845939 1 1 1
v 0.05774638 1.310017 0.1485939 1 1 1
v 0.045 1.298979 0.1485939 1 1 1
v -0.045 1.298979 0.1845939 1 1 1
v -0.045 1.298979 0.1485939 1 1 1
v -0.05775512 1.309996 0.1485939 1 1 1
v 0.04403068 1.343129 0.1485939 1 1 1
v 0.0318198 1.330799 0.1845939 1 1 1
v -0.0005266221 1.361079 0.1485939 1 1 1
v -0.0004424788 1.343796 0.1845939 1 1 1
v -0.0318198 1.330799 0.1485939 1 1 1
v -0.0318198 1.330799 0.1845939 1 1 1
v 0.0318198 1.330799 0.1485939 1 1 1
v -0.0004424788 1.343796 0.1485939 1 1 1
v -0.04406567 1.343045 0.1485939 1 1 1
v 0.045 1.177844 0.1845939 1 1 1
v 0.05774638 1.188881 0.1485939 1 1 1
v 0.045 1.177844 0.1485939 1 1 1
v -0.045 1.177844 0.1845939 1 1 1
v -0.045 1.177844 0.1485939 1 1 1
v -0.05775512 1.18886 0.1485939 1 1 1
v 0.04403068 1.221994 0.1485939 1 1 1
v 0.0318198 1.209664 0.1845939 1 1 1
v -0.0005266221 1.239944 0.1485939 1 1 1
v -0.0004424788 1.22266 0.1845939 1 1 1
v -0.0318198 1.209664 0.1485939 1 1 1
v -0.0318198 1.209664 0.1845939 1 1 1
v 0.0318198 1.209664 0.1485939 1 1 1
v -0.0004424788 1.22266 0.1485939 1 1 1
v -0.04406567 1.221909 0.1485939 1 1 1
v -0.0675 1.087729 0.1035937 1 1 1
v -0.0675 1.110229 0.05859371 1 1 1
v -0.09 1.110229 0.1035937 1 1 1
v 0.0675 1.4875 0.05859371 1 1 1
v 0.09 1.4875 0.1035937 1 1 1
v 0.0675 1.51 0.1035937 1 1 1
v -0.0675 1.4875 0.05859371 1 1 1
v -0.0675 1.51 0.1035937 1 1 1
v -0.09 1.4875 0.1035937 1 1 1
v 0.09 1.110229 0.1035937 1 1 1
v 0.0675 1.110229 0.05859371 1 1 1
v 0.0675 1.087729 0.1035937 1 1 1
v -0.0675 1.087729 0.1485937 1 1 1
v -0.09 1.110229 0.1485937 1 1 1
v 0.0675 1.087729 0.1485937 1 1 1
v 0.09 1.110229 0.1485937 1 1 1
v -1.588205E-15 1.132844 0.1485937 1 1 1
v 0.03181981 1.146024 0.1485937 1 1 1
v -0.03181981 1.146024 0.1485937 1 1 1
v 0.045 1.177844 0.1485937 1 1 1
v -0.045 1.177844 0.1485937 1 1 1
v 0.09 1.4875 0.1485937 1 1 1
v -0.09 1.4875 0.1485937 1 1 1
v 0.03181981 1.209664 0.1485937 1 1 1
v 0.0675 1.51 0.1485937 1 1 1
v -1.588205E-15 1.465092 0.1485937 1 1 1
v -0.0675 1.51 0.1485937 1 1 1
v -0.03181981 1.209664 0.1485937 1 1 1
v 0.0004424788 1.464908 0.1485937 1 1 1
v -0.0004424788 1.464908 0.1485937 1 1 1
v 0.03181981 1.451911 0.1485937 1 1 1
v -0.03181981 1.451911 0.1485937 1 1 1
v 0.045 1.420092 0.1485937 1 1 1
v -0.045 1.420092 0.1485937 1 1 1
v 0.03181981 1.388272 0.1485937 1 1 1
v -0.03181981 1.388272 0.1485937 1 1 1
v -0.045 1.298979 0.1485937 1 1 1
v -0.03181981 1.267159 0.1485937 1 1 1
v -0.03181981 1.330799 0.1485937 1 1 1
v -1.588205E-15 1.222844 0.1485937 1 1 1
v -1.588205E-15 1.253979 0.1485937 1 1 1
v 0.03181981 1.267159 0.1485937 1 1 1
v 0.045 1.298979 0.1485937 1 1 1
v 0.03181981 1.330799 0.1485937 1 1 1
v -1.588205E-15 1.343979 0.1485937 1 1 1
v -1.588205E-15 1.375092 0.1485937 1 1 1
v 3.609557E-16 1.375092 0.1485938 1 1 1
v -0.03181981 1.388272 0.1485938 1 1 1
v 0.03181981 1.388272 0.1485938 1 1 1
v 0.045 1.420092 0.1485938 1 1 1
v -0.045 1.420092 0.1485938 1 1 1
v 0.03181981 1.451911 0.1485938 1 1 1
v -0.03181981 1.451911 0.1485938 1 1 1
v 0.0004424788 1.464908 0.1485938 1 1 1
v -0.0004424788 1.464908 0.1485938 1 1 1
v 1.660396E-15 1.464908 0.1485938 1 1 1
v 3.609557E-16 1.132844 0.1485938 1 1 1
v -0.03181981 1.146024 0.1485938 1 1 1
v 0.03181981 1.146024 0.1485938 1 1 1
v 0.045 1.177844 0.1485938 1 1 1
v -0.045 1.177844 0.1485938 1 1 1
v 0.03181981 1.209664 0.1485938 1 1 1
v -0.03181981 1.209664 0.1485938 1 1 1
v 3.609557E-16 1.222844 0.1485938 1 1 1
v 3.609557E-16 1.253979 0.1485938 1 1 1
v -0.03181981 1.267159 0.1485938 1 1 1
v 0.03181981 1.267159 0.1485938 1 1 1
v 0.045 1.298979 0.1485938 1 1 1
v -0.045 1.298979 0.1485938 1 1 1
v 0.03181981 1.330799 0.1485938 1 1 1
v -0.03181981 1.330799 0.1485938 1 1 1
v 3.609557E-16 1.343979 0.1485938 1 1 1

vn 0.5997861 0.5296351 -0.5997861
vn 0.315808 0.4243266 -0.8486531
vn 0.8486531 0.4243266 -0.315808
vn -0.8486531 0.4243266 0.315808
vn -0.5997861 0.5296351 0.5997861
vn -0.315808 0.4243266 0.8486531
vn -0.8486531 0.4243266 -0.315808
vn -0.315808 0.4243266 -0.8486531
vn -0.5997861 0.5296351 -0.5997861
vn 0.5997861 0.5296351 0.5997861
vn 0.8486531 0.4243266 0.315808
vn 0.315808 0.4243266 0.8486531
vn 0.9217949 0.06050319 0.3829277
vn 0.3829277 0.06050319 0.9217949
vn 0.9225959 0.0604942 0.380995
vn 0.380995 0.0604942 0.9225959
vn 0.7071068 0 0.7071068
vn -0.7071068 0 0.7071068
vn -0.3829277 0.06050319 -0.9217949
vn 0.3829277 0.06050319 -0.9217949
vn -0.380995 0.0604942 -0.9225959
vn 0.380995 0.0604942 -0.9225959
vn -0.9225959 0.0604942 0.380995
vn -0.380995 0.0604942 0.9225959
vn -0.9217949 0.06050319 0.3829277
vn -0.3829277 0.06050319 0.9217949
vn 0 -1 0
vn -0.9217949 0.06050319 -0.3829277
vn -0.9225959 0.0604942 -0.380995
vn -0.7071068 0 -0.7071068
vn 0.7071068 0 -0.7071068
vn 0.9217949 0.06050319 -0.3829277
vn 0.9225959 0.0604942 -0.380995
vn 0 1 0
vn -0.9238795 0 -0.3826834
vn -0.9238795 0 0.3826834
vn 0.3826834 0 0.9238795
vn -0.3826834 0 0.9238795
vn 0.9238795 0 0.3826834
vn -0.3826834 0 -0.9238795
vn 0.9238795 0 -0.3826834
vn 0.3826834 0 -0.9238795
vn 0.9267117 0.1058271 0.3605635
vn 0.9470149 -0.1129353 0.30068
vn 0.6546147 -0.7559626 0
vn -0.926662 0.1057971 0.3606999
vn -0.6536413 -0.7568045 0
vn -0.9469178 -0.1135551 0.3007523
vn 0.6338565 0.6400585 0.4342247
vn -0.00438879 0.9014769 0.4328049
vn -0.9238795 0.3826834 0
vn -0.7071068 0.7071068 0
vn 0.9238795 -0.3826834 0
vn 0.7071068 -0.7071068 0
vn 0.703656 0.7105409 0
vn -0.004868386 0.9999882 0
vn 0.004868386 -0.9999882 0
vn -0.703656 -0.7105409 0
vn 0.9238795 0.3826834 0
vn -0.9238795 -0.3826834 0
vn -0.6372085 0.6372085 0.4335096
vn -0.315808 -0.8486531 -0.4243266
vn -0.5997861 -0.5997861 -0.5296351
vn -0.8486531 -0.315808 -0.4243266
vn 0.5997861 0.5997861 -0.5296351
vn 0.8486531 0.315808 -0.4243266
vn 0.315808 0.8486531 -0.4243266
vn -0.5997861 0.5997861 -0.5296351
vn -0.315808 0.8486531 -0.4243266
vn -0.8486531 0.315808 -0.4243266
vn 0.8486531 -0.315808 -0.4243266
vn 0.5997861 -0.5997861 -0.5296351
vn 0.315808 -0.8486531 -0.4243266
vn -0.3826834 -0.9238795 0
vn 0 0 1
vn 0.3826834 0.9238795 0
vn -0.3826834 0.9238795 0
vn 0.3826834 -0.9238795 0
vn 0 0 -1

vt 0.46875 0.1779412
vt 0.46875 0.1863445
vt 0.46875 0.225
vt 0.46875 0.025
vt 0.46875 0.075
vt 0.46875 0.175
vt 0.34375 0.025
vt 0.34375 0.06054755
vt 0.34375 0.06047953
vt 0.34375 0.1671902
vt 0.34375 0.127479
vt 0.34375 0.225
vt 0.34375 0.1693369
vt 0.34375 0.1669181
vt 0.34375 0.075
vt 0.34375 0.08032833
vt 0.34375 0.1696717
vt 0.34375 0.175
vt 0.34375 0.08568379
vt 0.34375 0.08880506
vt 0.34375 0.09634046
vt 0.34375 0.1038759
vt 0.34375 0.164365
vt 0.34375 0.1643216
vt 0.34375 0.1612438
vt 0.34375 0.1537084
vt 0.34375 0.146173
vt 0.34375 0.1250271
vt 0.34375 0.1174917
vt 0.34375 0.1325625
vt 0.34375 0.1069971
vt 0.34375 0.1143705
vt 0.34375 0.1356838
vt 0.34375 0.1430517
vt 0.59375 0.025
vt 0.59375 0.127479
vt 0.59375 0.06047953
vt 0.59375 0.1669181
vt 0.59375 0.1693369
vt 0.59375 0.225
vt 0.59375 0.1671902
vt 0.59375 0.06054755
vt 0.53125 0.375
vt 0.15625 0.375
vt 0.28125 0.375

usemtl colormap

f 3/2/3 2/2/2 1/1/1
f 6/2/6 5/1/5 4/2/4
f 9/1/9 8/2/8 7/2/7
f 12/2/12 11/2/11 10/1/10
f 11/2/15 14/3/14 13/3/13
f 14/3/14 11/2/15 12/2/16
f 15/4/17 5/1/18 10/1/17
f 5/1/18 15/4/17 16/4/18
f 8/2/21 18/3/20 17/3/19
f 18/3/20 8/2/21 2/2/22
f 9/1/9 2/2/2 8/2/8
f 2/2/2 9/1/9 1/1/1
f 19/3/25 6/2/24 4/2/23
f 6/2/24 19/3/25 20/3/26
f 14/3/27 21/3/27 13/3/27
f 21/3/27 14/3/27 18/3/27
f 18/3/27 14/3/27 20/3/27
f 18/3/27 20/3/27 17/3/27
f 17/3/27 20/3/27 19/3/27
f 17/3/27 19/3/27 22/3/27
f 4/2/4 9/1/9 7/2/7
f 9/1/9 4/2/4 5/1/5
f 22/3/28 8/2/21 17/3/19
f 8/2/21 22/3/28 7/2/29
f 10/1/10 6/2/6 12/2/12
f 6/2/6 10/1/10 5/1/5
f 12/2/16 20/3/26 14/3/14
f 20/3/26 12/2/16 6/2/24
f 23/4/30 1/1/31 9/1/30
f 1/1/31 23/4/30 24/4/31
f 15/4/17 1/1/31 24/4/31
f 1/1/31 15/4/17 10/1/17
f 2/2/22 21/3/32 18/3/20
f 21/3/32 2/2/22 3/2/33
f 19/3/25 7/2/29 22/3/28
f 7/2/29 19/3/25 4/2/23
f 3/2/33 13/3/13 21/3/32
f 13/3/13 3/2/33 11/2/15
f 23/4/34 15/4/34 24/4/34
f 15/4/34 23/4/34 16/4/34
f 5/1/18 23/4/30 9/1/30
f 23/4/30 5/1/18 16/4/18
f 10/1/10 3/2/3 1/1/1
f 3/2/3 10/1/10 11/2/11
f 27/5/36 26/6/35 25/5/35
f 26/6/35 27/5/36 28/6/36
f 31/6/37 30/5/38 29/5/37
f 30/5/38 31/6/37 32/6/38
f 34/6/39 29/5/37 33/5/39
f 29/5/37 34/6/39 31/6/37
f 29/5/27 35/5/27 33/5/27
f 35/5/27 29/5/27 36/5/27
f 36/5/27 29/5/27 30/5/27
f 36/5/27 30/5/27 37/5/27
f 37/5/27 30/5/27 27/5/27
f 37/5/27 27/5/27 25/5/27
f 26/6/35 37/5/40 25/5/35
f 37/5/40 26/6/35 38/6/40
f 32/6/38 27/5/36 30/5/38
f 27/5/36 32/6/38 28/6/36
f 34/6/39 35/5/41 39/6/41
f 35/5/41 34/6/39 33/5/39
f 38/6/40 36/5/42 37/5/40
f 36/5/42 38/6/40 40/6/42
f 40/6/34 34/6/34 39/6/34
f 34/6/34 40/6/34 31/6/34
f 31/6/34 40/6/34 38/6/34
f 31/6/34 38/6/34 32/6/34
f 32/6/34 38/6/34 26/6/34
f 32/6/34 26/6/34 28/6/34
f 40/6/42 35/5/41 36/5/42
f 35/5/41 40/6/42 39/6/41
f 43/7/45 42/8/44 41/7/43
f 46/9/48 45/7/47 44/7/46
f 49/12/50 48/11/49 47/10/49
f 48/11/49 49/12/50 50/13/50
f 44/7/51 51/11/52 45/7/51
f 51/11/52 44/7/51 52/11/52
f 45/7/53 51/11/54 44/7/53
f 52/11/54 44/7/53 51/11/54
f 54/13/56 48/11/55 53/11/55
f 48/11/55 54/13/56 50/13/56
f 53/11/58 48/11/58 54/13/57
f 50/13/57 54/13/57 48/11/58
f 51/11/52 50/13/56 54/13/56
f 50/13/56 51/11/52 52/11/52
f 54/13/57 50/13/57 51/11/54
f 52/11/54 51/11/54 50/13/57
f 48/11/55 43/7/59 53/11/55
f 43/7/59 48/11/55 41/7/59
f 53/11/58 43/7/60 48/11/58
f 41/7/60 48/11/58 43/7/60
f 49/12/50 52/11/61 50/13/50
f 52/11/61 49/12/50 55/14/61
f 44/7/46 55/14/61 46/9/48
f 55/14/61 44/7/46 52/11/61
f 48/11/49 42/8/44 47/10/49
f 42/8/44 48/11/49 41/7/43
f 58/7/45 57/8/44 56/7/43
f 61/9/48 60/7/47 59/7/46
f 64/12/50 63/11/49 62/10/49
f 63/11/49 64/12/50 65/13/50
f 59/7/51 66/11/52 60/7/51
f 66/11/52 59/7/51 67/11/52
f 60/7/53 66/11/54 59/7/53
f 67/11/54 59/7/53 66/11/54
f 69/13/56 63/11/55 68/11/55
f 63/11/55 69/13/56 65/13/56
f 68/11/58 63/11/58 69/13/57
f 65/13/57 69/13/57 63/11/58
f 66/11/52 65/13/56 69/13/56
f 65/13/56 66/11/52 67/11/52
f 69/13/57 65/13/57 66/11/54
f 67/11/54 66/11/54 65/13/57
f 63/11/55 58/7/59 68/11/55
f 58/7/59 63/11/55 56/7/59
f 68/11/58 58/7/60 63/11/58
f 56/7/60 63/11/58 58/7/60
f 64/12/50 67/11/61 65/13/50
f 67/11/61 64/12/50 70/14/61
f 59/7/46 70/14/61 61/9/48
f 70/14/61 59/7/46 67/11/61
f 63/11/49 57/8/44 62/10/49
f 57/8/44 63/11/49 56/7/43
f 73/7/45 72/8/44 71/7/43
f 76/9/48 75/7/47 74/7/46
f 79/12/50 78/11/49 77/10/49
f 78/11/49 79/12/50 80/13/50
f 74/7/51 81/11/52 75/7/51
f 81/11/52 74/7/51 82/11/52
f 75/7/53 81/11/54 74/7/53
f 82/11/54 74/7/53 81/11/54
f 84/13/56 78/11/55 83/11/55
f 78/11/55 84/13/56 80/13/56
f 83/11/58 78/11/58 84/13/57
f 80/13/57 84/13/57 78/11/58
f 81/11/52 80/13/56 84/13/56
f 80/13/56 81/11/52 82/11/52
f 84/13/57 80/13/57 81/11/54
f 82/11/54 81/11/54 80/13/57
f 78/11/55 73/7/59 83/11/55
f 73/7/59 78/11/55 71/7/59
f 83/11/58 73/7/60 78/11/58
f 71/7/60 78/11/58 73/7/60
f 79/12/50 82/11/61 80/13/50
f 82/11/61 79/12/50 85/14/61
f 74/7/46 85/14/61 76/9/48
f 85/14/61 74/7/46 82/11/61
f 78/11/49 72/8/44 77/10/49
f 72/8/44 78/11/49 71/7/43
f 88/16/64 87/16/63 86/15/62
f 91/18/67 90/17/66 89/17/65
f 94/17/70 93/18/69 92/17/68
f 97/15/73 96/16/72 95/16/71
f 98/15/74 88/16/60 86/15/74
f 88/16/60 98/15/74 99/16/60
f 101/16/75 98/15/75 100/15/75
f 98/15/75 101/16/75 99/16/75
f 99/16/75 101/16/75 102/19/75
f 102/19/75 101/16/75 103/20/75
f 104/20/75 99/16/75 102/19/75
f 103/20/75 101/16/75 105/21/75
f 106/21/75 99/16/75 104/20/75
f 105/21/75 101/16/75 107/17/75
f 99/16/75 106/21/75 108/17/75
f 105/21/75 107/17/75 109/22/75
f 108/17/75 107/17/75 110/18/75
f 108/17/75 111/23/75 107/17/75
f 108/17/75 110/18/75 112/18/75
f 108/17/75 106/21/75 113/22/75
f 114/24/75 107/17/75 111/23/75
f 108/17/75 115/24/75 111/23/75
f 116/25/75 107/17/75 114/24/75
f 108/17/75 117/25/75 115/24/75
f 118/26/75 107/17/75 116/25/75
f 108/17/75 119/26/75 117/25/75
f 120/27/75 107/17/75 118/26/75
f 108/17/75 121/27/75 119/26/75
f 108/17/75 113/22/75 122/28/75
f 122/28/75 113/22/75 123/29/75
f 108/17/75 122/28/75 124/30/75
f 108/17/75 124/30/75 121/27/75
f 123/29/75 113/22/75 125/31/75
f 123/29/75 125/31/75 126/32/75
f 125/31/75 127/29/75 126/32/75
f 109/22/75 127/29/75 125/31/75
f 109/22/75 128/28/75 127/29/75
f 109/22/75 107/17/75 128/28/75
f 128/28/75 107/17/75 129/30/75
f 129/30/75 107/17/75 120/27/75
f 121/27/75 124/30/75 130/33/75
f 129/30/75 120/27/75 130/33/75
f 121/27/75 130/33/75 131/34/75
f 130/33/75 120/27/75 131/34/75
f 93/18/77 110/18/76 91/18/76
f 110/18/76 93/18/77 112/18/77
f 99/16/60 94/17/51 88/16/60
f 94/17/51 99/16/60 108/17/51
f 107/17/59 95/16/53 90/17/59
f 95/16/53 107/17/59 101/16/53
f 94/17/51 112/18/77 93/18/77
f 112/18/77 94/17/51 108/17/51
f 101/16/53 97/15/78 95/16/53
f 97/15/78 101/16/53 100/15/78
f 98/15/74 97/15/78 100/15/78
f 97/15/78 98/15/74 86/15/74
f 91/18/76 107/17/59 90/17/59
f 107/17/59 91/18/76 110/18/76
f 92/17/68 91/18/67 89/17/65
f 91/18/67 92/17/68 93/18/69
f 86/15/62 96/16/72 97/15/73
f 96/16/72 86/15/62 87/16/63
f 88/16/64 92/17/68 87/16/63
f 92/17/68 88/16/64 94/17/70
f 89/17/65 95/16/71 96/16/72
f 95/16/71 89/17/65 90/17/66
f 92/17/79 96/16/79 87/16/79
f 96/16/79 92/17/79 89/17/79
f 46/37/79 51/36/79 45/35/79
f 51/36/79 46/37/79 55/38/79
f 51/36/79 55/38/79 54/39/79
f 54/39/79 55/38/79 49/40/79
f 47/41/79 54/39/79 49/40/79
f 47/41/79 53/36/79 54/39/79
f 42/42/79 53/36/79 47/41/79
f 53/36/79 42/42/79 43/35/79
f 61/37/79 66/36/79 60/35/79
f 66/36/79 61/37/79 70/38/79
f 66/36/79 70/38/79 69/39/79
f 69/39/79 70/38/79 64/40/79
f 62/41/79 69/39/79 64/40/79
f 62/41/79 68/36/79 69/39/79
f 57/42/79 68/36/79 62/41/79
f 68/36/79 57/42/79 58/35/79
f 76/37/79 81/36/79 75/35/79
f 81/36/79 76/37/79 85/38/79
f 81/36/79 85/38/79 84/39/79
f 84/39/79 85/38/79 79/40/79
f 77/41/79 84/39/79 79/40/79
f 77/41/79 83/36/79 84/39/79
f 72/42/79 83/36/79 77/41/79
f 83/36/79 72/42/79 73/35/79
f 134/43/75 133/43/75 132/43/75
f 133/43/75 134/43/75 135/43/75
f 133/43/75 135/43/75 136/43/75
f 136/43/75 135/43/75 137/43/75
f 136/43/75 137/43/75 138/43/75
f 138/43/75 137/43/75 139/43/75
f 138/43/75 139/43/75 140/43/75
f 140/43/75 139/43/75 141/43/75
f 144/44/75 143/44/75 142/44/75
f 143/44/75 144/44/75 145/44/75
f 143/44/75 145/44/75 146/44/75
f 146/44/75 145/44/75 147/44/75
f 146/44/75 147/44/75 148/44/75
f 148/44/75 147/44/75 149/44/75
f 152/45/75 151/45/75 150/45/75
f 151/45/75 152/45/75 153/45/75
f 151/45/75 153/45/75 154/45/75
f 154/45/75 153/45/75 155/45/75
f 154/45/75 155/45/75 156/45/75
f 156/45/75 155/45/75 157/45/75

g racing-lights-traffic




usemtl colormap

f 3/2/3 2/2/2 1/1/1
f 6/2/6 5/1/5 4/2/4
f 9/1/9 8/2/8 7/2/7
f 12/2/12 11/2/11 10/1/10
f 11/2/15 14/3/14 13/3/13
f 14/3/14 11/2/15 12/2/16
f 15/4/17 5/1/18 10/1/17
f 5/1/18 15/4/17 16/4/18
f 8/2/21 18/3/20 17/3/19
f 18/3/20 8/2/21 2/2/22
f 9/1/9 2/2/2 8/2/8
f 2/2/2 9/1/9 1/1/1
f 19/3/25 6/2/24 4/2/23
f 6/2/24 19/3/25 20/3/26
f 14/3/27 21/3/27 13/3/27
f 21/3/27 14/3/27 18/3/27
f 18/3/27 14/3/27 20/3/27
f 18/3/27 20/3/27 17/3/27
f 17/3/27 20/3/27 19/3/27
f 17/3/27 19/3/27 22/3/27
f 4/2/4 9/1/9 7/2/7
f 9/1/9 4/2/4 5/1/5
f 22/3/28 8/2/21 17/3/19
f 8/2/21 22/3/28 7/2/29
f 10/1/10 6/2/6 12/2/12
f 6/2/6 10/1/10 5/1/5
f 12/2/16 20/3/26 14/3/14
f 20/3/26 12/2/16 6/2/24
f 23/4/30 1/1/31 9/1/30
f 1/1/31 23/4/30 24/4/31
f 15/4/17 1/1/31 24/4/31
f 1/1/31 15/4/17 10/1/17
f 2/2/22 21/3/32 18/3/20
f 21/3/32 2/2/22 3/2/33
f 19/3/25 7/2/29 22/3/28
f 7/2/29 19/3/25 4/2/23
f 3/2/33 13/3/13 21/3/32
f 13/3/13 3/2/33 11/2/15
f 23/4/34 15/4/34 24/4/34
f 15/4/34 23/4/34 16/4/34
f 5/1/18 23/4/30 9/1/30
f 23/4/30 5/1/18 16/4/18
f 10/1/10 3/2/3 1/1/1
f 3/2/3 10/1/10 11/2/11
f 27/5/36 26/6/35 25/5/35
f 26/6/35 27/5/36 28/6/36
f 31/6/37 30/5/38 29/5/37
f 30/5/38 31/6/37 32/6/38
f 34/6/39 29/5/37 33/5/39
f 29/5/37 34/6/39 31/6/37
f 29/5/27 35/5/27 33/5/27
f 35/5/27 29/5/27 36/5/27
f 36/5/27 29/5/27 30/5/27
f 36/5/27 30/5/27 37/5/27
f 37/5/27 30/5/27 27/5/27
f 37/5/27 27/5/27 25/5/27
f 26/6/35 37/5/40 25/5/35
f 37/5/40 26/6/35 38/6/40
f 32/6/38 27/5/36 30/5/38
f 27/5/36 32/6/38 28/6/36
f 34/6/39 35/5/41 39/6/41
f 35/5/41 34/6/39 33/5/39
f 38/6/40 36/5/42 37/5/40
f 36/5/42 38/6/40 40/6/42
f 40/6/34 34/6/34 39/6/34
f 34/6/34 40/6/34 31/6/34
f 31/6/34 40/6/34 38/6/34
f 31/6/34 38/6/34 32/6/34
f 32/6/34 38/6/34 26/6/34
f 32/6/34 26/6/34 28/6/34
f 40/6/42 35/5/41 36/5/42
f 35/5/41 40/6/42 39/6/41
f 43/7/45 42/8/44 41/7/43
f 46/9/48 45/7/47 44/7/46
f 49/12/50 48/11/49 47/10/49
f 48/11/49 49/12/50 50/13/50
f 44/7/51 51/11/52 45/7/51
f 51/11/52 44/7/51 52/11/52
f 45/7/53 51/11/54 44/7/53
f 52/11/54 44/7/53 51/11/54
f 54/13/56 48/11/55 53/11/55
f 48/11/55 54/13/56 50/13/56
f 53/11/58 48/11/58 54/13/57
f 50/13/57 54/13/57 48/11/58
f 51/11/52 50/13/56 54/13/56
f 50/13/56 51/11/52 52/11/52
f 54/13/57 50/13/57 51/11/54
f 52/11/54 51/11/54 50/13/57
f 48/11/55 43/7/59 53/11/55
f 43/7/59 48/11/55 41/7/59
f 53/11/58 43/7/60 48/11/58
f 41/7/60 48/11/58 43/7/60
f 49/12/50 52/11/61 50/13/50
f 52/11/61 49/12/50 55/14/61
f 44/7/46 55/14/61 46/9/48
f 55/14/61 44/7/46 52/11/61
f 48/11/49 42/8/44 47/10/49
f 42/8/44 48/11/49 41/7/43
f 58/7/45 57/8/44 56/7/43
f 61/9/48 60/7/47 59/7/46
f 64/12/50 63/11/49 62/10/49
f 63/11/49 64/12/50 65/13/50
f 59/7/51 66/11/52 60/7/51
f 66/11/52 59/7/51 67/11/52
f 60/7/53 66/11/54 59/7/53
f 67/11/54 59/7/53 66/11/54
f 69/13/56 63/11/55 68/11/55
f 63/11/55 69/13/56 65/13/56
f 68/11/58 63/11/58 69/13/57
f 65/13/57 69/13/57 63/11/58
f 66/11/52 65/13/56 69/13/56
f 65/13/56 66/11/52 67/11/52
f 69/13/57 65/13/57 66/11/54
f 67/11/54 66/11/54 65/13/57
f 63/11/55 58/7/59 68/11/55
f 58/7/59 63/11/55 56/7/59
f 68/11/58 58/7/60 63/11/58
f 56/7/60 63/11/58 58/7/60
f 64/12/50 67/11/61 65/13/50
f 67/11/61 64/12/50 70/14/61
f 59/7/46 70/14/61 61/9/48
f 70/14/61 59/7/46 67/11/61
f 63/11/49 57/8/44 62/10/49
f 57/8/44 63/11/49 56/7/43
f 73/7/45 72/8/44 71/7/43
f 76/9/48 75/7/47 74/7/46
f 79/12/50 78/11/49 77/10/49
f 78/11/49 79/12/50 80/13/50
f 74/7/51 81/11/52 75/7/51
f 81/11/52 74/7/51 82/11/52
f 75/7/53 81/11/54 74/7/53
f 82/11/54 74/7/53 81/11/54
f 84/13/56 78/11/55 83/11/55
f 78/11/55 84/13/56 80/13/56
f 83/11/58 78/11/58 84/13/57
f 80/13/57 84/13/57 78/11/58
f 81/11/52 80/13/56 84/13/56
f 80/13/56 81/11/52 82/11/52
f 84/13/57 80/13/57 81/11/54
f 82/11/54 81/11/54 80/13/57
f 78/11/55 73/7/59 83/11/55
f 73/7/59 78/11/55 71/7/59
f 83/11/58 73/7/60 78/11/58
f 71/7/60 78/11/58 73/7/60
f 79/12/50 82/11/61 80/13/50
f 82/11/61 79/12/50 85/14/61
f 74/7/46 85/14/61 76/9/48
f 85/14/61 74/7/46 82/11/61
f 78/11/49 72/8/44 77/10/49
f 72/8/44 78/11/49 71/7/43
f 88/16/64 87/16/63 86/15/62
f 91/18/67 90/17/66 89/17/65
f 94/17/70 93/18/69 92/17/68
f 97/15/73 96/16/72 95/16/71
f 98/15/74 88/16/60 86/15/74
f 88/16/60 98/15/74 99/16/60
f 101/16/75 98/15/75 100/15/75
f 98/15/75 101/16/75 99/16/75
f 99/16/75 101/16/75 102/19/75
f 102/19/75 101/16/75 103/20/75
f 104/20/75 99/16/75 102/19/75
f 103/20/75 101/16/75 105/21/75
f 106/21/75 99/16/75 104/20/75
f 105/21/75 101/16/75 107/17/75
f 99/16/75 106/21/75 108/17/75
f 105/21/75 107/17/75 109/22/75
f 108/17/75 107/17/75 110/18/75
f 108/17/75 111/23/75 107/17/75
f 108/17/75 110/18/75 112/18/75
f 108/17/75 106/21/75 113/22/75
f 114/24/75 107/17/75 111/23/75
f 108/17/75 115/24/75 111/23/75
f 116/25/75 107/17/75 114/24/75
f 108/17/75 117/25/75 115/24/75
f 118/26/75 107/17/75 116/25/75
f 108/17/75 119/26/75 117/25/75
f 120/27/75 107/17/75 118/26/75
f 108/17/75 121/27/75 119/26/75
f 108/17/75 113/22/75 122/28/75
f 122/28/75 113/22/75 123/29/75
f 108/17/75 122/28/75 124/30/75
f 108/17/75 124/30/75 121/27/75
f 123/29/75 113/22/75 125/31/75
f 123/29/75 125/31/75 126/32/75
f 125/31/75 127/29/75 126/32/75
f 109/22/75 127/29/75 125/31/75
f 109/22/75 128/28/75 127/29/75
f 109/22/75 107/17/75 128/28/75
f 128/28/75 107/17/75 129/30/75
f 129/30/75 107/17/75 120/27/75
f 121/27/75 124/30/75 130/33/75
f 129/30/75 120/27/75 130/33/75
f 121/27/75 130/33/75 131/34/75
f 130/33/75 120/27/75 131/34/75
f 93/18/77 110/18/76 91/18/76
f 110/18/76 93/18/77 112/18/77
f 99/16/60 94/17/51 88/16/60
f 94/17/51 99/16/60 108/17/51
f 107/17/59 95/16/53 90/17/59
f 95/16/53 107/17/59 101/16/53
f 94/17/51 112/18/77 93/18/77
f 112/18/77 94/17/51 108/17/51
f 101/16/53 97/15/78 95/16/53
f 97/15/78 101/16/53 100/15/78
f 98/15/74 97/15/78 100/15/78
f 97/15/78 98/15/74 86/15/74
f 91/18/76 107/17/59 90/17/59
f 107/17/59 91/18/76 110/18/76
f 92/17/68 91/18/67 89/17/65
f 91/18/67 92/17/68 93/18/69
f 86/15/62 96/16/72 97/15/73
f 96/16/72 86/15/62 87/16/63
f 88/16/64 92/17/68 87/16/63
f 92/17/68 88/16/64 94/17/70
f 89/17/65 95/16/71 96/16/72
f 95/16/71 89/17/65 90/17/66
f 92/17/79 96/16/79 87/16/79
f 96/16/79 92/17/79 89/17/79
f 46/37/79 51/36/79 45/35/79
f 51/36/79 46/37/79 55/38/79
f 51/36/79 55/38/79 54/39/79
f 54/39/79 55/38/79 49/40/79
f 47/41/79 54/39/79 49/40/79
f 47/41/79 53/36/79 54/39/79
f 42/42/79 53/36/79 47/41/79
f 53/36/79 42/42/79 43/35/79
f 61/37/79 66/36/79 60/35/79
f 66/36/79 61/37/79 70/38/79
f 66/36/79 70/38/79 69/39/79
f 69/39/79 70/38/79 64/40/79
f 62/41/79 69/39/79 64/40/79
f 62/41/79 68/36/79 69/39/79
f 57/42/79 68/36/79 62/41/79
f 68/36/79 57/42/79 58/35/79
f 76/37/79 81/36/79 75/35/79
f 81/36/79 76/37/79 85/38/79
f 81/36/79 85/38/79 84/39/79
f 84/39/79 85/38/79 79/40/79
f 77/41/79 84/39/79 79/40/79
f 77/41/79 83/36/79 84/39/79
f 72/42/79 83/36/79 77/41/79
f 83/36/79 72/42/79 73/35/79
f 134/43/75 133/43/75 132/43/75
f 133/43/75 134/43/75 135/43/75
f 133/43/75 135/43/75 136/43/75
f 136/43/75 135/43/75 137/43/75
f 136/43/75 137/43/75 138/43/75
f 138/43/75 137/43/75 139/43/75
f 138/43/75 139/43/75 140/43/75
f 140/43/75 139/43/75 141/43/75
f 144/44/75 143/44/75 142/44/75
f 143/44/75 144/44/75 145/44/75
f 143/44/75 145/44/75 146/44/75
f 146/44/75 145/44/75 147/44/75
f 146/44/75 147/44/75 148/44/75
f 148/44/75 147/44/75 149/44/75
f 152/45/75 151/45/75 150/45/75
f 151/45/75 152/45/75 153/45/75
f 151/45/75 153/45/75 154/45/75
f 154/45/75 153/45/75 155/45/75
f 154/45/75 155/45/75 156/45/75
f 156/45/75 155/45/75 157/45/75

