# Created by Kenney (www.kenney.nl)

mtllib sign-wide-low.mtl

g sign-wide-low

v 0.975 1.15 0.5335938 1 1 1
v 0.975 1.15 0.5835937 1 1 1
v -0.975 1.15 0.5335938 1 1 1
v -0.975 1.15 0.5835937 1 1 1
v 0.975 0.3 0.5835937 1 1 1
v 0.975 0.3 0.5335938 1 1 1
v -0.975 0.3 0.5835937 1 1 1
v -0.975 0.3 0.5335938 1 1 1
v -1 0.325 0.5335938 1 1 1
v -1 1.125 0.5335938 1 1 1
v -1 0.325 0.5835937 1 1 1
v -1 1.125 0.5835937 1 1 1
v 1 1.125 0.5335938 1 1 1
v 1 0.325 0.5335938 1 1 1
v 1 1.125 0.5835937 1 1 1
v 1 0.325 0.5835937 1 1 1
v 0.8125 0.1259534 -0.2881685 1 1 1
v 0.78125 0.1038563 -0.2660715 1 1 1
v 0.78125 0.1701476 -0.2439744 1 1 1
v 0.71875 0.1922447 -0.3544598 1 1 1
v 0.71875 0.2143417 -0.2881685 1 1 1
v 0.6875 0.1701476 -0.3323627 1 1 1
v 0.78125 0.1922447 -0.3544598 1 1 1
v 0.8125 0.1701476 -0.3323627 1 1 1
v 0.78125 0.2143417 -0.2881685 1 1 1
v 0.71875 0.1038563 -0.2660715 1 1 1
v 0.6875 0.1259534 -0.2881685 1 1 1
v 0.71875 0.1701476 -0.2439744 1 1 1
v 0.7850354 0 -0.359221 1 1 1
v 0.7149646 0 -0.359221 1 1 1
v 0.78125 0.7578719 0.34375 1 1 1
v 0.71875 0.7578719 0.34375 1 1 1
v 0.7890625 4.511947E-16 -0.5688016 1 1 1
v 0.7109375 4.511947E-16 -0.5688016 1 1 1
v 0.78125 0.8462604 0.34375 1 1 1
v 0.6740572 0 -0.5120158 1 1 1
v 0.6780754 0 -0.4074578 1 1 1
v 0.8219246 0 -0.4074578 1 1 1
v 0.8259428 0 -0.5120158 1 1 1
v 0.71875 0.8462604 0.34375 1 1 1
v -0.6875 0.1259534 -0.2881685 1 1 1
v -0.71875 0.1038563 -0.2660715 1 1 1
v -0.71875 0.1701476 -0.2439744 1 1 1
v -0.78125 0.1922447 -0.3544598 1 1 1
v -0.78125 0.2143417 -0.2881685 1 1 1
v -0.8125 0.1701476 -0.3323627 1 1 1
v -0.71875 0.1922447 -0.3544598 1 1 1
v -0.6875 0.1701476 -0.3323627 1 1 1
v -0.71875 0.2143417 -0.2881685 1 1 1
v -0.78125 0.1038563 -0.2660715 1 1 1
v -0.8125 0.1259534 -0.2881685 1 1 1
v -0.78125 0.1701476 -0.2439744 1 1 1
v -0.7149646 0 -0.359221 1 1 1
v -0.7850354 0 -0.359221 1 1 1
v -0.71875 0.7578719 0.34375 1 1 1
v -0.78125 0.7578719 0.34375 1 1 1
v -0.7109375 4.511947E-16 -0.5688016 1 1 1
v -0.7890625 4.511947E-16 -0.5688016 1 1 1
v -0.71875 0.8462604 0.34375 1 1 1
v -0.8259428 0 -0.5120158 1 1 1
v -0.8219246 0 -0.4074578 1 1 1
v -0.6780754 0 -0.4074578 1 1 1
v -0.6740572 0 -0.5120158 1 1 1
v -0.78125 0.8462604 0.34375 1 1 1
v 0.78125 0.35 0.34375 1 1 1
v 0.78125 0.2875 0.3125 1 1 1
v 0.8125 0.2875 0.34375 1 1 1
v 0.6875 0.2875 0.40625 1 1 1
v 0.71875 0.35 0.40625 1 1 1
v 0.71875 0.2875 0.4375 1 1 1
v 0.6875 0.2875 0.34375 1 1 1
v 0.71875 0.2875 0.3125 1 1 1
v 0.71875 0.35 0.34375 1 1 1
v 0.78125 0.35 0.40625 1 1 1
v 0.8125 0.2875 0.40625 1 1 1
v 0.78125 0.2875 0.4375 1 1 1
v 0.828125 0 0.4140625 1 1 1
v 0.7890625 0 0.453125 1 1 1
v 0.78125 1.15 0.40625 1 1 1
v 0.71875 1.15 0.40625 1 1 1
v 0.7109375 0 0.296875 1 1 1
v 0.7890625 0 0.296875 1 1 1
v 0.671875 0 0.4140625 1 1 1
v 0.7109375 0 0.453125 1 1 1
v 0.828125 0 0.3359375 1 1 1
v 0.671875 0 0.3359375 1 1 1
v 0.71875 1.15 0.34375 1 1 1
v 0.78125 1.15 0.34375 1 1 1
v -0.71875 0.35 0.34375 1 1 1
v -0.71875 0.2875 0.3125 1 1 1
v -0.6875 0.2875 0.34375 1 1 1
v -0.8125 0.2875 0.40625 1 1 1
v -0.78125 0.35 0.40625 1 1 1
v -0.78125 0.2875 0.4375 1 1 1
v -0.8125 0.2875 0.34375 1 1 1
v -0.78125 0.2875 0.3125 1 1 1
v -0.78125 0.35 0.34375 1 1 1
v -0.71875 0.35 0.40625 1 1 1
v -0.6875 0.2875 0.40625 1 1 1
v -0.71875 0.2875 0.4375 1 1 1
v -0.671875 0 0.4140625 1 1 1
v -0.7109375 0 0.453125 1 1 1
v -0.71875 1.15 0.40625 1 1 1
v -0.78125 1.15 0.40625 1 1 1
v -0.7890625 0 0.296875 1 1 1
v -0.7109375 0 0.296875 1 1 1
v -0.828125 0 0.4140625 1 1 1
v -0.7890625 0 0.453125 1 1 1
v -0.671875 0 0.3359375 1 1 1
v -0.828125 0 0.3359375 1 1 1
v -0.78125 1.15 0.34375 1 1 1
v -0.71875 1.15 0.34375 1 1 1
v 0.6914063 0.5625 0.3476563 1 1 1
v 0.6914063 0.65 0.3476563 1 1 1
v 0.6914063 0.5625 0.4023438 1 1 1
v 0.6914063 0.65 0.4023438 1 1 1
v 0.7773438 0.5625 0.4335938 1 1 1
v 0.7226563 0.5625 0.4335938 1 1 1
v 0.7773438 0.65 0.4335938 1 1 1
v 0.7226563 0.65 0.4335938 1 1 1
v 0.8085938 0.5625 0.4023438 1 1 1
v 0.8085938 0.65 0.4023438 1 1 1
v 0.8085938 0.5625 0.3476563 1 1 1
v 0.7773438 0.5625 0.3164063 1 1 1
v 0.7226563 0.5625 0.3164063 1 1 1
v 0.7226563 0.65 0.3164063 1 1 1
v 0.8085938 0.65 0.3476563 1 1 1
v 0.7773438 0.65 0.3164063 1 1 1
v -0.8085938 0.5625 0.3476563 1 1 1
v -0.8085938 0.65 0.3476563 1 1 1
v -0.8085938 0.5625 0.4023438 1 1 1
v -0.8085938 0.65 0.4023438 1 1 1
v -0.7226563 0.5625 0.4335938 1 1 1
v -0.7773438 0.5625 0.4335938 1 1 1
v -0.7226563 0.65 0.4335938 1 1 1
v -0.7773438 0.65 0.4335938 1 1 1
v -0.6914063 0.5625 0.4023438 1 1 1
v -0.6914063 0.65 0.4023438 1 1 1
v -0.6914063 0.5625 0.3476563 1 1 1
v -0.7226563 0.5625 0.3164063 1 1 1
v -0.7773438 0.5625 0.3164063 1 1 1
v -0.7773438 0.65 0.3164063 1 1 1
v -0.6914063 0.65 0.3476563 1 1 1
v -0.7226563 0.65 0.3164063 1 1 1
v 0.71875 0.475 0.34375 1 1 1
v 0.71875 0.475 0.40625 1 1 1
v -0.71875 0.475 0.34375 1 1 1
v -0.71875 0.475 0.40625 1 1 1
v -0.71875 0.4125 0.40625 1 1 1
v 0.71875 0.4125 0.40625 1 1 1
v 0.71875 0.4125 0.34375 1 1 1
v -0.71875 0.4125 0.34375 1 1 1
v 0.71875 0.3027301 -0.1997802 1 1 1
v 0.71875 0.2585359 -0.155586 1 1 1
v -0.71875 0.3027301 -0.1997802 1 1 1
v -0.71875 0.2585359 -0.155586 1 1 1
v -0.71875 0.2143418 -0.1997802 1 1 1
v 0.71875 0.2143418 -0.1997802 1 1 1
v 0.71875 0.2585359 -0.2439744 1 1 1
v -0.71875 0.2585359 -0.2439744 1 1 1
v -0.8085938 0.975 0.3476563 1 1 1
v -0.8085938 1.0625 0.3476563 1 1 1
v -0.8085938 0.975 0.4023438 1 1 1
v -0.8085938 1.0625 0.4023438 1 1 1
v -0.7226563 0.975 0.4335938 1 1 1
v -0.7773438 0.975 0.4335938 1 1 1
v -0.7226563 1.0625 0.4335938 1 1 1
v -0.7773438 1.0625 0.4335938 1 1 1
v -0.6914063 0.975 0.4023438 1 1 1
v -0.6914063 1.0625 0.4023438 1 1 1
v -0.6914063 0.975 0.3476563 1 1 1
v -0.7226563 0.975 0.3164063 1 1 1
v -0.7773438 0.975 0.3164063 1 1 1
v -0.7773438 1.0625 0.3164063 1 1 1
v -0.6914063 1.0625 0.3476563 1 1 1
v -0.7226563 1.0625 0.3164063 1 1 1
v 0.6914063 0.975 0.3476563 1 1 1
v 0.6914063 1.0625 0.3476563 1 1 1
v 0.6914063 0.975 0.4023438 1 1 1
v 0.6914063 1.0625 0.4023438 1 1 1
v 0.7773438 0.975 0.4335938 1 1 1
v 0.7226563 0.975 0.4335938 1 1 1
v 0.7773438 1.0625 0.4335938 1 1 1
v 0.7226563 1.0625 0.4335938 1 1 1
v 0.8085938 0.975 0.4023438 1 1 1
v 0.8085938 1.0625 0.4023438 1 1 1
v 0.8085938 0.975 0.3476563 1 1 1
v 0.7773438 0.975 0.3164063 1 1 1
v 0.7226563 0.975 0.3164063 1 1 1
v 0.7226563 1.0625 0.3164063 1 1 1
v 0.8085938 1.0625 0.3476563 1 1 1
v 0.7773438 1.0625 0.3164063 1 1 1
v 1 1.125 0.4335937 1 1 1
v 1 0.325 0.4335937 1 1 1
v 1 1.125 0.5335937 1 1 1
v 1 0.325 0.5335937 1 1 1
v 0.975 1.15 0.4335937 1 1 1
v 0.975 1.15 0.5335937 1 1 1
v -0.975 1.15 0.4335937 1 1 1
v -0.975 1.15 0.5335937 1 1 1
v 0.975 0.3 0.5335937 1 1 1
v 0.975 0.3 0.4335937 1 1 1
v -0.975 0.3 0.5335937 1 1 1
v -0.975 0.3 0.4335937 1 1 1
v -1 0.325 0.4335937 1 1 1
v -1 1.125 0.4335937 1 1 1
v -1 0.325 0.5335937 1 1 1
v -1 1.125 0.5335937 1 1 1

vn 0.3826834 0.9238795 0
vn -0.3826834 0.9238795 0
vn 0.3826834 -0.9238795 0
vn -0.3826834 -0.9238795 0
vn -0.9238795 -0.3826834 0
vn -0.9238795 0.3826834 0
vn 0.9238795 0.3826834 0
vn 0.9238795 -0.3826834 0
vn 0 0 1
vn 0.8486531 0.07673417 0.5233542
vn 0.3158081 -0.3000443 0.9001327
vn 0.599786 -0.04960423 0.7986213
vn -0.3158081 0.9001327 -0.3000443
vn -0.599786 0.7986213 -0.04960423
vn -0.8486531 0.5233542 0.07673417
vn 0.3158081 0.9001327 -0.3000443
vn 0.8486531 0.5233542 0.07673417
vn 0.599786 0.7986213 -0.04960423
vn -0.3158081 -0.3000443 0.9001327
vn -0.8486531 0.07673417 0.5233542
vn -0.599786 -0.04960423 0.7986213
vn 0.443555 -0.5894033 0.6751761
vn -0.443555 -0.5894033 0.6751761
vn 0.380995 -0.609598 0.6951497
vn -0.380995 -0.609598 0.6951497
vn 0.7071068 -0.5 0.5
vn -0.7071068 -0.5 0.5
vn 0.8320503 -0.3922322 0.3922322
vn -0.8320503 -0.3922322 0.3922322
vn 0.2828289 0.7191439 -0.6346967
vn 0.380995 0.6951497 -0.609598
vn -0.2828289 0.7191439 -0.6346967
vn -0.380995 0.6951497 -0.609598
vn 0.7071068 0.5 -0.5
vn 0.4472136 0.6324555 -0.6324555
vn -0.8287937 0.4359109 -0.3508314
vn -0.9225959 0.31218 -0.2266283
vn -0.9740189 -0.1129964 0.1962628
vn -0.9225959 -0.2266283 0.31218
vn 0.9740189 -0.1129964 0.1962628
vn 0.9225959 -0.2266283 0.31218
vn 0 -1 0
vn 0.8287937 0.4359109 -0.3508314
vn 0.9225959 0.31218 -0.2266283
vn 0 0.7071068 -0.7071068
vn -1 0 0
vn 0.5997861 0.5296351 -0.5997861
vn 0.315808 0.4243266 -0.8486531
vn 0.8486531 0.4243266 -0.315808
vn -0.8486531 0.4243266 0.315808
vn -0.5997861 0.5296351 0.5997861
vn -0.315808 0.4243266 0.8486531
vn -0.8486531 0.4243266 -0.315808
vn -0.315808 0.4243266 -0.8486531
vn -0.5997861 0.5296351 -0.5997861
vn 0.5997861 0.5296351 0.5997861
vn 0.8486531 0.4243266 0.315808
vn 0.315808 0.4243266 0.8486531
vn 0.9217949 0.06050319 0.3829277
vn 0.3829277 0.06050319 0.9217949
vn 0.9225959 0.0604942 0.380995
vn 0.380995 0.0604942 0.9225959
vn 0.7071068 0 0.7071068
vn -0.7071068 0 0.7071068
vn -0.3829277 0.06050319 -0.9217949
vn 0.3829277 0.06050319 -0.9217949
vn -0.380995 0.0604942 -0.9225959
vn 0.380995 0.0604942 -0.9225959
vn -0.9225959 0.0604942 0.380995
vn -0.380995 0.0604942 0.9225959
vn -0.9217949 0.06050319 0.3829277
vn -0.3829277 0.06050319 0.9217949
vn -0.9217949 0.06050319 -0.3829277
vn -0.9225959 0.0604942 -0.380995
vn -0.7071068 0 -0.7071068
vn 0.7071068 0 -0.7071068
vn 0.9217949 0.06050319 -0.3829277
vn 0.9225959 0.0604942 -0.380995
vn 0 1 0
vn -0.9238795 0 -0.3826834
vn -0.9238795 0 0.3826834
vn 0.3826834 0 0.9238795
vn -0.3826834 0 0.9238795
vn 0.9238795 0 0.3826834
vn -0.3826834 0 -0.9238795
vn 0.9238795 0 -0.3826834
vn 0.3826834 0 -0.9238795
vn 0 0.7071068 0.7071068
vn 0 -0.7071068 0.7071068
vn 0 -0.7071068 -0.7071068
vn 0 0.9999999 5.960464E-08
vn 0 -5.960464E-08 0.9999999
vn 0 -0.9999999 -5.960464E-08
vn 0 5.960464E-08 -0.9999999
vn 0.9238796 0.3826835 0
vn 0.9238796 -0.3826835 0
vn 0.3826835 0.9238796 0
vn -0.3826835 0.9238796 0
vn 0.3826835 -0.9238796 0
vn -0.3826835 -0.9238796 0
vn -0.9238796 -0.3826835 0
vn -0.9238796 0.3826835 0
vn 0 0 -1

vt 0.34375 0.225
vt 0.34375 0.08333332
vt 0.34375 0.08749999
vt 0.34375 0.2208333
vt 0.46875 0.05476705
vt 0.46875 0.04954476
vt 0.46875 0.06521163
vt 0.46875 0.07043393
vt 0.46875 0.07565621
vt 0.46875 0.025
vt 0.46875 0.2041108
vt 0.46875 0.225
vt 0.46875 0.1641304
vt 0.46875 0.175
vt 0.46875 0.075
vt 0.21875 0.1729167
vt 0.21875 0.10625
vt 0.21875 0.175
vt 0.21875 0.1041667

usemtl colormap

f 3/1/2 2/1/1 1/1/1
f 2/1/1 3/1/2 4/1/2
f 7/2/4 6/2/3 5/2/3
f 6/2/3 7/2/4 8/2/4
f 11/3/5 10/4/6 9/3/5
f 10/4/6 11/3/5 12/4/6
f 15/4/7 14/3/8 13/4/7
f 14/3/8 15/4/7 16/3/8
f 1/1/1 15/4/7 13/4/7
f 15/4/7 1/1/1 2/1/1
f 7/2/4 9/3/5 8/2/4
f 9/3/5 7/2/4 11/3/5
f 10/4/6 4/1/2 3/1/2
f 4/1/2 10/4/6 12/4/6
f 16/3/8 6/2/3 14/3/8
f 6/2/3 16/3/8 5/2/3
f 16/3/9 7/2/9 5/2/9
f 7/2/9 16/3/9 11/3/9
f 11/3/9 16/3/9 15/4/9
f 11/3/9 15/4/9 12/4/9
f 12/4/9 15/4/9 2/1/9
f 12/4/9 2/1/9 4/1/9
f 19/7/12 18/6/11 17/5/10
f 22/7/15 21/9/14 20/8/13
f 25/9/18 24/7/17 23/8/16
f 28/7/21 27/5/20 26/6/19
f 18/6/24 30/10/23 29/10/22
f 30/10/23 18/6/24 26/6/25
f 20/8/13 25/9/18 23/8/16
f 25/9/18 20/8/13 21/9/14
f 31/11/28 28/7/27 19/7/26
f 28/7/27 31/11/28 32/11/29
f 34/10/32 23/8/31 33/10/30
f 23/8/31 34/10/32 20/8/33
f 27/5/20 21/9/14 22/7/15
f 21/9/14 27/5/20 28/7/21
f 19/7/12 26/6/19 18/6/11
f 26/6/19 19/7/12 28/7/21
f 35/12/35 19/7/26 25/9/34
f 19/7/26 35/12/35 31/11/28
f 25/9/18 17/5/10 24/7/17
f 17/5/10 25/9/18 19/7/12
f 36/10/36 20/8/33 34/10/32
f 20/8/33 36/10/36 22/7/37
f 30/10/23 27/5/39 37/10/38
f 27/5/39 30/10/23 26/6/25
f 17/5/41 29/10/22 38/10/40
f 29/10/22 17/5/41 18/6/24
f 38/10/42 33/10/42 39/10/42
f 33/10/42 38/10/42 29/10/42
f 33/10/42 29/10/42 34/10/42
f 34/10/42 29/10/42 30/10/42
f 34/10/42 30/10/42 37/10/42
f 34/10/42 37/10/42 36/10/42
f 23/8/31 39/10/43 33/10/30
f 39/10/43 23/8/31 24/7/44
f 24/7/44 38/10/40 39/10/43
f 38/10/40 24/7/44 17/5/41
f 37/10/38 22/7/37 36/10/36
f 22/7/37 37/10/38 27/5/39
f 40/12/45 25/9/34 21/9/45
f 25/9/34 40/12/45 35/12/35
f 28/7/27 40/12/46 21/9/46
f 40/12/46 28/7/27 32/11/29
f 43/7/12 42/6/11 41/5/10
f 46/7/15 45/9/14 44/8/13
f 49/9/18 48/7/17 47/8/16
f 52/7/21 51/5/20 50/6/19
f 42/6/24 54/10/23 53/10/22
f 54/10/23 42/6/24 50/6/25
f 44/8/13 49/9/18 47/8/16
f 49/9/18 44/8/13 45/9/14
f 55/11/28 52/7/27 43/7/26
f 52/7/27 55/11/28 56/11/29
f 58/10/32 47/8/31 57/10/30
f 47/8/31 58/10/32 44/8/33
f 51/5/20 45/9/14 46/7/15
f 45/9/14 51/5/20 52/7/21
f 43/7/12 50/6/19 42/6/11
f 50/6/19 43/7/12 52/7/21
f 59/12/35 43/7/26 49/9/34
f 43/7/26 59/12/35 55/11/28
f 49/9/18 41/5/10 48/7/17
f 41/5/10 49/9/18 43/7/12
f 60/10/36 44/8/33 58/10/32
f 44/8/33 60/10/36 46/7/37
f 54/10/23 51/5/39 61/10/38
f 51/5/39 54/10/23 50/6/25
f 41/5/41 53/10/22 62/10/40
f 53/10/22 41/5/41 42/6/24
f 62/10/42 57/10/42 63/10/42
f 57/10/42 62/10/42 53/10/42
f 57/10/42 53/10/42 58/10/42
f 58/10/42 53/10/42 54/10/42
f 58/10/42 54/10/42 61/10/42
f 58/10/42 61/10/42 60/10/42
f 47/8/31 63/10/43 57/10/30
f 63/10/43 47/8/31 48/7/44
f 48/7/44 62/10/40 63/10/43
f 62/10/40 48/7/44 41/5/41
f 61/10/38 46/7/37 60/10/36
f 46/7/37 61/10/38 51/5/39
f 64/12/45 49/9/34 45/9/45
f 49/9/34 64/12/45 59/12/35
f 52/7/27 64/12/46 45/9/46
f 64/12/46 52/7/27 56/11/29
f 67/14/49 66/14/48 65/13/47
f 70/14/52 69/13/51 68/14/50
f 73/13/55 72/14/54 71/14/53
f 76/14/58 75/14/57 74/13/56
f 75/14/61 78/12/60 77/12/59
f 78/12/60 75/14/61 76/14/62
f 79/10/63 69/13/64 74/13/63
f 69/13/64 79/10/63 80/10/64
f 72/14/67 82/12/66 81/12/65
f 82/12/66 72/14/67 66/14/68
f 73/13/55 66/14/48 72/14/54
f 66/14/48 73/13/55 65/13/47
f 83/12/71 70/14/70 68/14/69
f 70/14/70 83/12/71 84/12/72
f 78/12/42 85/12/42 77/12/42
f 85/12/42 78/12/42 82/12/42
f 82/12/42 78/12/42 84/12/42
f 82/12/42 84/12/42 81/12/42
f 81/12/42 84/12/42 83/12/42
f 81/12/42 83/12/42 86/12/42
f 68/14/50 73/13/55 71/14/53
f 73/13/55 68/14/50 69/13/51
f 86/12/73 72/14/67 81/12/65
f 72/14/67 86/12/73 71/14/74
f 74/13/56 70/14/52 76/14/58
f 70/14/52 74/13/56 69/13/51
f 76/14/62 84/12/72 78/12/60
f 84/12/72 76/14/62 70/14/70
f 87/10/75 65/13/76 73/13/75
f 65/13/76 87/10/75 88/10/76
f 79/10/63 65/13/76 88/10/76
f 65/13/76 79/10/63 74/13/63
f 66/14/68 85/12/77 82/12/66
f 85/12/77 66/14/68 67/14/78
f 83/12/71 71/14/74 86/12/73
f 71/14/74 83/12/71 68/14/69
f 67/14/78 77/12/59 85/12/77
f 77/12/59 67/14/78 75/14/61
f 87/10/79 79/10/79 88/10/79
f 79/10/79 87/10/79 80/10/79
f 69/13/64 87/10/75 73/13/75
f 87/10/75 69/13/64 80/10/64
f 74/13/56 67/14/49 65/13/47
f 67/14/49 74/13/56 75/14/57
f 91/14/49 90/14/48 89/13/47
f 94/14/52 93/13/51 92/14/50
f 97/13/55 96/14/54 95/14/53
f 100/14/58 99/14/57 98/13/56
f 99/14/61 102/12/60 101/12/59
f 102/12/60 99/14/61 100/14/62
f 103/10/63 93/13/64 98/13/63
f 93/13/64 103/10/63 104/10/64
f 96/14/67 106/12/66 105/12/65
f 106/12/66 96/14/67 90/14/68
f 97/13/55 90/14/48 96/14/54
f 90/14/48 97/13/55 89/13/47
f 107/12/71 94/14/70 92/14/69
f 94/14/70 107/12/71 108/12/72
f 102/12/42 109/12/42 101/12/42
f 109/12/42 102/12/42 106/12/42
f 106/12/42 102/12/42 108/12/42
f 106/12/42 108/12/42 105/12/42
f 105/12/42 108/12/42 107/12/42
f 105/12/42 107/12/42 110/12/42
f 92/14/50 97/13/55 95/14/53
f 97/13/55 92/14/50 93/13/51
f 110/12/73 96/14/67 105/12/65
f 96/14/67 110/12/73 95/14/74
f 98/13/56 94/14/52 100/14/58
f 94/14/52 98/13/56 93/13/51
f 100/14/62 108/12/72 102/12/60
f 108/12/72 100/14/62 94/14/70
f 111/10/75 89/13/76 97/13/75
f 89/13/76 111/10/75 112/10/76
f 103/10/63 89/13/76 112/10/76
f 89/13/76 103/10/63 98/13/63
f 90/14/68 109/12/77 106/12/66
f 109/12/77 90/14/68 91/14/78
f 107/12/71 95/14/74 110/12/73
f 95/14/74 107/12/71 92/14/69
f 91/14/78 101/12/59 109/12/77
f 101/12/59 91/14/78 99/14/61
f 111/10/79 103/10/79 112/10/79
f 103/10/79 111/10/79 104/10/79
f 93/13/64 111/10/75 97/13/75
f 111/10/75 93/13/64 104/10/64
f 98/13/56 91/14/49 89/13/47
f 91/14/49 98/13/56 99/14/57
f 115/15/81 114/14/80 113/15/80
f 114/14/80 115/15/81 116/14/81
f 119/14/82 118/15/83 117/15/82
f 118/15/83 119/14/82 120/14/83
f 122/14/84 117/15/82 121/15/84
f 117/15/82 122/14/84 119/14/82
f 117/15/42 123/15/42 121/15/42
f 123/15/42 117/15/42 124/15/42
f 124/15/42 117/15/42 118/15/42
f 124/15/42 118/15/42 125/15/42
f 125/15/42 118/15/42 115/15/42
f 125/15/42 115/15/42 113/15/42
f 114/14/80 125/15/85 113/15/80
f 125/15/85 114/14/80 126/14/85
f 120/14/83 115/15/81 118/15/83
f 115/15/81 120/14/83 116/14/81
f 122/14/84 123/15/86 127/14/86
f 123/15/86 122/14/84 121/15/84
f 126/14/85 124/15/87 125/15/85
f 124/15/87 126/14/85 128/14/87
f 128/14/79 122/14/79 127/14/79
f 122/14/79 128/14/79 119/14/79
f 119/14/79 128/14/79 126/14/79
f 119/14/79 126/14/79 120/14/79
f 120/14/79 126/14/79 114/14/79
f 120/14/79 114/14/79 116/14/79
f 128/14/87 123/15/86 124/15/87
f 123/15/86 128/14/87 127/14/86
f 131/15/81 130/14/80 129/15/80
f 130/14/80 131/15/81 132/14/81
f 135/14/82 134/15/83 133/15/82
f 134/15/83 135/14/82 136/14/83
f 138/14/84 133/15/82 137/15/84
f 133/15/82 138/14/84 135/14/82
f 133/15/42 139/15/42 137/15/42
f 139/15/42 133/15/42 140/15/42
f 140/15/42 133/15/42 134/15/42
f 140/15/42 134/15/42 141/15/42
f 141/15/42 134/15/42 131/15/42
f 141/15/42 131/15/42 129/15/42
f 130/14/80 141/15/85 129/15/80
f 141/15/85 130/14/80 142/14/85
f 136/14/83 131/15/81 134/15/83
f 131/15/81 136/14/83 132/14/81
f 138/14/84 139/15/86 143/14/86
f 139/15/86 138/14/84 137/15/84
f 142/14/85 140/15/87 141/15/85
f 140/15/87 142/14/85 144/14/87
f 144/14/79 138/14/79 143/14/79
f 138/14/79 144/14/79 135/14/79
f 135/14/79 144/14/79 142/14/79
f 135/14/79 142/14/79 136/14/79
f 136/14/79 142/14/79 130/14/79
f 136/14/79 130/14/79 132/14/79
f 144/14/87 139/15/86 140/15/87
f 139/15/86 144/14/87 143/14/86
f 147/14/45 146/14/88 145/14/45
f 146/14/88 147/14/45 148/14/88
f 150/15/89 148/14/88 149/15/89
f 148/14/88 150/15/89 146/14/88
f 149/15/89 151/15/90 150/15/89
f 151/15/90 149/15/89 152/15/90
f 147/14/45 151/15/90 152/15/90
f 151/15/90 147/14/45 145/14/45
f 155/14/91 154/14/92 153/14/91
f 154/14/92 155/14/91 156/14/92
f 158/15/93 156/14/92 157/15/93
f 156/14/92 158/15/93 154/14/92
f 157/15/93 159/15/94 158/15/93
f 159/15/94 157/15/93 160/15/94
f 155/14/91 159/15/94 160/15/94
f 159/15/94 155/14/91 153/14/91
f 163/15/81 162/14/80 161/15/80
f 162/14/80 163/15/81 164/14/81
f 167/14/82 166/15/83 165/15/82
f 166/15/83 167/14/82 168/14/83
f 170/14/84 165/15/82 169/15/84
f 165/15/82 170/14/84 167/14/82
f 165/15/42 171/15/42 169/15/42
f 171/15/42 165/15/42 172/15/42
f 172/15/42 165/15/42 166/15/42
f 172/15/42 166/15/42 173/15/42
f 173/15/42 166/15/42 163/15/42
f 173/15/42 163/15/42 161/15/42
f 162/14/80 173/15/85 161/15/80
f 173/15/85 162/14/80 174/14/85
f 168/14/83 163/15/81 166/15/83
f 163/15/81 168/14/83 164/14/81
f 170/14/84 171/15/86 175/14/86
f 171/15/86 170/14/84 169/15/84
f 174/14/85 172/15/87 173/15/85
f 172/15/87 174/14/85 176/14/87
f 176/14/79 170/14/79 175/14/79
f 170/14/79 176/14/79 167/14/79
f 167/14/79 176/14/79 174/14/79
f 167/14/79 174/14/79 168/14/79
f 168/14/79 174/14/79 162/14/79
f 168/14/79 162/14/79 164/14/79
f 176/14/87 171/15/86 172/15/87
f 171/15/86 176/14/87 175/14/86
f 179/15/81 178/14/80 177/15/80
f 178/14/80 179/15/81 180/14/81
f 183/14/82 182/15/83 181/15/82
f 182/15/83 183/14/82 184/14/83
f 186/14/84 181/15/82 185/15/84
f 181/15/82 186/14/84 183/14/82
f 181/15/42 187/15/42 185/15/42
f 187/15/42 181/15/42 188/15/42
f 188/15/42 181/15/42 182/15/42
f 188/15/42 182/15/42 189/15/42
f 189/15/42 182/15/42 179/15/42
f 189/15/42 179/15/42 177/15/42
f 178/14/80 189/15/85 177/15/80
f 189/15/85 178/14/80 190/14/85
f 184/14/83 179/15/81 182/15/83
f 179/15/81 184/14/83 180/14/81
f 186/14/84 187/15/86 191/14/86
f 187/15/86 186/14/84 185/15/84
f 190/14/85 188/15/87 189/15/85
f 188/15/87 190/14/85 192/14/87
f 192/14/79 186/14/79 191/14/79
f 186/14/79 192/14/79 183/14/79
f 183/14/79 192/14/79 190/14/79
f 183/14/79 190/14/79 184/14/79
f 184/14/79 190/14/79 178/14/79
f 184/14/79 178/14/79 180/14/79
f 192/14/87 187/15/86 188/15/87
f 187/15/86 192/14/87 191/14/86
f 195/16/95 194/17/96 193/16/95
f 194/17/96 195/16/95 196/17/96
f 199/18/98 198/18/97 197/18/97
f 198/18/97 199/18/98 200/18/98
f 203/19/100 202/19/99 201/19/99
f 202/19/99 203/19/100 204/19/100
f 207/17/101 206/16/102 205/17/101
f 206/16/102 207/17/101 208/16/102
f 208/16/102 199/18/98 206/16/102
f 199/18/98 208/16/102 200/18/98
f 198/18/97 193/16/95 197/18/97
f 193/16/95 198/18/97 195/16/95
f 201/19/99 194/17/96 196/17/96
f 194/17/96 201/19/99 202/19/99
f 207/17/101 204/19/100 203/19/100
f 204/19/100 207/17/101 205/17/101
f 205/17/103 202/19/103 204/19/103
f 202/19/103 205/17/103 194/17/103
f 194/17/103 205/17/103 206/16/103
f 194/17/103 206/16/103 193/16/103
f 193/16/103 206/16/103 199/18/103
f 193/16/103 199/18/103 197/18/103

g sign-wide-low




usemtl colormap

f 3/1/2 2/1/1 1/1/1
f 2/1/1 3/1/2 4/1/2
f 7/2/4 6/2/3 5/2/3
f 6/2/3 7/2/4 8/2/4
f 11/3/5 10/4/6 9/3/5
f 10/4/6 11/3/5 12/4/6
f 15/4/7 14/3/8 13/4/7
f 14/3/8 15/4/7 16/3/8
f 1/1/1 15/4/7 13/4/7
f 15/4/7 1/1/1 2/1/1
f 7/2/4 9/3/5 8/2/4
f 9/3/5 7/2/4 11/3/5
f 10/4/6 4/1/2 3/1/2
f 4/1/2 10/4/6 12/4/6
f 16/3/8 6/2/3 14/3/8
f 6/2/3 16/3/8 5/2/3
f 16/3/9 7/2/9 5/2/9
f 7/2/9 16/3/9 11/3/9
f 11/3/9 16/3/9 15/4/9
f 11/3/9 15/4/9 12/4/9
f 12/4/9 15/4/9 2/1/9
f 12/4/9 2/1/9 4/1/9
f 19/7/12 18/6/11 17/5/10
f 22/7/15 21/9/14 20/8/13
f 25/9/18 24/7/17 23/8/16
f 28/7/21 27/5/20 26/6/19
f 18/6/24 30/10/23 29/10/22
f 30/10/23 18/6/24 26/6/25
f 20/8/13 25/9/18 23/8/16
f 25/9/18 20/8/13 21/9/14
f 31/11/28 28/7/27 19/7/26
f 28/7/27 31/11/28 32/11/29
f 34/10/32 23/8/31 33/10/30
f 23/8/31 34/10/32 20/8/33
f 27/5/20 21/9/14 22/7/15
f 21/9/14 27/5/20 28/7/21
f 19/7/12 26/6/19 18/6/11
f 26/6/19 19/7/12 28/7/21
f 35/12/35 19/7/26 25/9/34
f 19/7/26 35/12/35 31/11/28
f 25/9/18 17/5/10 24/7/17
f 17/5/10 25/9/18 19/7/12
f 36/10/36 20/8/33 34/10/32
f 20/8/33 36/10/36 22/7/37
f 30/10/23 27/5/39 37/10/38
f 27/5/39 30/10/23 26/6/25
f 17/5/41 29/10/22 38/10/40
f 29/10/22 17/5/41 18/6/24
f 38/10/42 33/10/42 39/10/42
f 33/10/42 38/10/42 29/10/42
f 33/10/42 29/10/42 34/10/42
f 34/10/42 29/10/42 30/10/42
f 34/10/42 30/10/42 37/10/42
f 34/10/42 37/10/42 36/10/42
f 23/8/31 39/10/43 33/10/30
f 39/10/43 23/8/31 24/7/44
f 24/7/44 38/10/40 39/10/43
f 38/10/40 24/7/44 17/5/41
f 37/10/38 22/7/37 36/10/36
f 22/7/37 37/10/38 27/5/39
f 40/12/45 25/9/34 21/9/45
f 25/9/34 40/12/45 35/12/35
f 28/7/27 40/12/46 21/9/46
f 40/12/46 28/7/27 32/11/29
f 43/7/12 42/6/11 41/5/10
f 46/7/15 45/9/14 44/8/13
f 49/9/18 48/7/17 47/8/16
f 52/7/21 51/5/20 50/6/19
f 42/6/24 54/10/23 53/10/22
f 54/10/23 42/6/24 50/6/25
f 44/8/13 49/9/18 47/8/16
f 49/9/18 44/8/13 45/9/14
f 55/11/28 52/7/27 43/7/26
f 52/7/27 55/11/28 56/11/29
f 58/10/32 47/8/31 57/10/30
f 47/8/31 58/10/32 44/8/33
f 51/5/20 45/9/14 46/7/15
f 45/9/14 51/5/20 52/7/21
f 43/7/12 50/6/19 42/6/11
f 50/6/19 43/7/12 52/7/21
f 59/12/35 43/7/26 49/9/34
f 43/7/26 59/12/35 55/11/28
f 49/9/18 41/5/10 48/7/17
f 41/5/10 49/9/18 43/7/12
f 60/10/36 44/8/33 58/10/32
f 44/8/33 60/10/36 46/7/37
f 54/10/23 51/5/39 61/10/38
f 51/5/39 54/10/23 50/6/25
f 41/5/41 53/10/22 62/10/40
f 53/10/22 41/5/41 42/6/24
f 62/10/42 57/10/42 63/10/42
f 57/10/42 62/10/42 53/10/42
f 57/10/42 53/10/42 58/10/42
f 58/10/42 53/10/42 54/10/42
f 58/10/42 54/10/42 61/10/42
f 58/10/42 61/10/42 60/10/42
f 47/8/31 63/10/43 57/10/30
f 63/10/43 47/8/31 48/7/44
f 48/7/44 62/10/40 63/10/43
f 62/10/40 48/7/44 41/5/41
f 61/10/38 46/7/37 60/10/36
f 46/7/37 61/10/38 51/5/39
f 64/12/45 49/9/34 45/9/45
f 49/9/34 64/12/45 59/12/35
f 52/7/27 64/12/46 45/9/46
f 64/12/46 52/7/27 56/11/29
f 67/14/49 66/14/48 65/13/47
f 70/14/52 69/13/51 68/14/50
f 73/13/55 72/14/54 71/14/53
f 76/14/58 75/14/57 74/13/56
f 75/14/61 78/12/60 77/12/59
f 78/12/60 75/14/61 76/14/62
f 79/10/63 69/13/64 74/13/63
f 69/13/64 79/10/63 80/10/64
f 72/14/67 82/12/66 81/12/65
f 82/12/66 72/14/67 66/14/68
f 73/13/55 66/14/48 72/14/54
f 66/14/48 73/13/55 65/13/47
f 83/12/71 70/14/70 68/14/69
f 70/14/70 83/12/71 84/12/72
f 78/12/42 85/12/42 77/12/42
f 85/12/42 78/12/42 82/12/42
f 82/12/42 78/12/42 84/12/42
f 82/12/42 84/12/42 81/12/42
f 81/12/42 84/12/42 83/12/42
f 81/12/42 83/12/42 86/12/42
f 68/14/50 73/13/55 71/14/53
f 73/13/55 68/14/50 69/13/51
f 86/12/73 72/14/67 81/12/65
f 72/14/67 86/12/73 71/14/74
f 74/13/56 70/14/52 76/14/58
f 70/14/52 74/13/56 69/13/51
f 76/14/62 84/12/72 78/12/60
f 84/12/72 76/14/62 70/14/70
f 87/10/75 65/13/76 73/13/75
f 65/13/76 87/10/75 88/10/76
f 79/10/63 65/13/76 88/10/76
f 65/13/76 79/10/63 74/13/63
f 66/14/68 85/12/77 82/12/66
f 85/12/77 66/14/68 67/14/78
f 83/12/71 71/14/74 86/12/73
f 71/14/74 83/12/71 68/14/69
f 67/14/78 77/12/59 85/12/77
f 77/12/59 67/14/78 75/14/61
f 87/10/79 79/10/79 88/10/79
f 79/10/79 87/10/79 80/10/79
f 69/13/64 87/10/75 73/13/75
f 87/10/75 69/13/64 80/10/64
f 74/13/56 67/14/49 65/13/47
f 67/14/49 74/13/56 75/14/57
f 91/14/49 90/14/48 89/13/47
f 94/14/52 93/13/51 92/14/50
f 97/13/55 96/14/54 95/14/53
f 100/14/58 99/14/57 98/13/56
f 99/14/61 102/12/60 101/12/59
f 102/12/60 99/14/61 100/14/62
f 103/10/63 93/13/64 98/13/63
f 93/13/64 103/10/63 104/10/64
f 96/14/67 106/12/66 105/12/65
f 106/12/66 96/14/67 90/14/68
f 97/13/55 90/14/48 96/14/54
f 90/14/48 97/13/55 89/13/47
f 107/12/71 94/14/70 92/14/69
f 94/14/70 107/12/71 108/12/72
f 102/12/42 109/12/42 101/12/42
f 109/12/42 102/12/42 106/12/42
f 106/12/42 102/12/42 108/12/42
f 106/12/42 108/12/42 105/12/42
f 105/12/42 108/12/42 107/12/42
f 105/12/42 107/12/42 110/12/42
f 92/14/50 97/13/55 95/14/53
f 97/13/55 92/14/50 93/13/51
f 110/12/73 96/14/67 105/12/65
f 96/14/67 110/12/73 95/14/74
f 98/13/56 94/14/52 100/14/58
f 94/14/52 98/13/56 93/13/51
f 100/14/62 108/12/72 102/12/60
f 108/12/72 100/14/62 94/14/70
f 111/10/75 89/13/76 97/13/75
f 89/13/76 111/10/75 112/10/76
f 103/10/63 89/13/76 112/10/76
f 89/13/76 103/10/63 98/13/63
f 90/14/68 109/12/77 106/12/66
f 109/12/77 90/14/68 91/14/78
f 107/12/71 95/14/74 110/12/73
f 95/14/74 107/12/71 92/14/69
f 91/14/78 101/12/59 109/12/77
f 101/12/59 91/14/78 99/14/61
f 111/10/79 103/10/79 112/10/79
f 103/10/79 111/10/79 104/10/79
f 93/13/64 111/10/75 97/13/75
f 111/10/75 93/13/64 104/10/64
f 98/13/56 91/14/49 89/13/47
f 91/14/49 98/13/56 99/14/57
f 115/15/81 114/14/80 113/15/80
f 114/14/80 115/15/81 116/14/81
f 119/14/82 118/15/83 117/15/82
f 118/15/83 119/14/82 120/14/83
f 122/14/84 117/15/82 121/15/84
f 117/15/82 122/14/84 119/14/82
f 117/15/42 123/15/42 121/15/42
f 123/15/42 117/15/42 124/15/42
f 124/15/42 117/15/42 118/15/42
f 124/15/42 118/15/42 125/15/42
f 125/15/42 118/15/42 115/15/42
f 125/15/42 115/15/42 113/15/42
f 114/14/80 125/15/85 113/15/80
f 125/15/85 114/14/80 126/14/85
f 120/14/83 115/15/81 118/15/83
f 115/15/81 120/14/83 116/14/81
f 122/14/84 123/15/86 127/14/86
f 123/15/86 122/14/84 121/15/84
f 126/14/85 124/15/87 125/15/85
f 124/15/87 126/14/85 128/14/87
f 128/14/79 122/14/79 127/14/79
f 122/14/79 128/14/79 119/14/79
f 119/14/79 128/14/79 126/14/79
f 119/14/79 126/14/79 120/14/79
f 120/14/79 126/14/79 114/14/79
f 120/14/79 114/14/79 116/14/79
f 128/14/87 123/15/86 124/15/87
f 123/15/86 128/14/87 127/14/86
f 131/15/81 130/14/80 129/15/80
f 130/14/80 131/15/81 132/14/81
f 135/14/82 134/15/83 133/15/82
f 134/15/83 135/14/82 136/14/83
f 138/14/84 133/15/82 137/15/84
f 133/15/82 138/14/84 135/14/82
f 133/15/42 139/15/42 137/15/42
f 139/15/42 133/15/42 140/15/42
f 140/15/42 133/15/42 134/15/42
f 140/15/42 134/15/42 141/15/42
f 141/15/42 134/15/42 131/15/42
f 141/15/42 131/15/42 129/15/42
f 130/14/80 141/15/85 129/15/80
f 141/15/85 130/14/80 142/14/85
f 136/14/83 131/15/81 134/15/83
f 131/15/81 136/14/83 132/14/81
f 138/14/84 139/15/86 143/14/86
f 139/15/86 138/14/84 137/15/84
f 142/14/85 140/15/87 141/15/85
f 140/15/87 142/14/85 144/14/87
f 144/14/79 138/14/79 143/14/79
f 138/14/79 144/14/79 135/14/79
f 135/14/79 144/14/79 142/14/79
f 135/14/79 142/14/79 136/14/79
f 136/14/79 142/14/79 130/14/79
f 136/14/79 130/14/79 132/14/79
f 144/14/87 139/15/86 140/15/87
f 139/15/86 144/14/87 143/14/86
f 147/14/45 146/14/88 145/14/45
f 146/14/88 147/14/45 148/14/88
f 150/15/89 148/14/88 149/15/89
f 148/14/88 150/15/89 146/14/88
f 149/15/89 151/15/90 150/15/89
f 151/15/90 149/15/89 152/15/90
f 147/14/45 151/15/90 152/15/90
f 151/15/90 147/14/45 145/14/45
f 155/14/91 154/14/92 153/14/91
f 154/14/92 155/14/91 156/14/92
f 158/15/93 156/14/92 157/15/93
f 156/14/92 158/15/93 154/14/92
f 157/15/93 159/15/94 158/15/93
f 159/15/94 157/15/93 160/15/94
f 155/14/91 159/15/94 160/15/94
f 159/15/94 155/14/91 153/14/91
f 163/15/81 162/14/80 161/15/80
f 162/14/80 163/15/81 164/14/81
f 167/14/82 166/15/83 165/15/82
f 166/15/83 167/14/82 168/14/83
f 170/14/84 165/15/82 169/15/84
f 165/15/82 170/14/84 167/14/82
f 165/15/42 171/15/42 169/15/42
f 171/15/42 165/15/42 172/15/42
f 172/15/42 165/15/42 166/15/42
f 172/15/42 166/15/42 173/15/42
f 173/15/42 166/15/42 163/15/42
f 173/15/42 163/15/42 161/15/42
f 162/14/80 173/15/85 161/15/80
f 173/15/85 162/14/80 174/14/85
f 168/14/83 163/15/81 166/15/83
f 163/15/81 168/14/83 164/14/81
f 170/14/84 171/15/86 175/14/86
f 171/15/86 170/14/84 169/15/84
f 174/14/85 172/15/87 173/15/85
f 172/15/87 174/14/85 176/14/87
f 176/14/79 170/14/79 175/14/79
f 170/14/79 176/14/79 167/14/79
f 167/14/79 176/14/79 174/14/79
f 167/14/79 174/14/79 168/14/79
f 168/14/79 174/14/79 162/14/79
f 168/14/79 162/14/79 164/14/79
f 176/14/87 171/15/86 172/15/87
f 171/15/86 176/14/87 175/14/86
f 179/15/81 178/14/80 177/15/80
f 178/14/80 179/15/81 180/14/81
f 183/14/82 182/15/83 181/15/82
f 182/15/83 183/14/82 184/14/83
f 186/14/84 181/15/82 185/15/84
f 181/15/82 186/14/84 183/14/82
f 181/15/42 187/15/42 185/15/42
f 187/15/42 181/15/42 188/15/42
f 188/15/42 181/15/42 182/15/42
f 188/15/42 182/15/42 189/15/42
f 189/15/42 182/15/42 179/15/42
f 189/15/42 179/15/42 177/15/42
f 178/14/80 189/15/85 177/15/80
f 189/15/85 178/14/80 190/14/85
f 184/14/83 179/15/81 182/15/83
f 179/15/81 184/14/83 180/14/81
f 186/14/84 187/15/86 191/14/86
f 187/15/86 186/14/84 185/15/84
f 190/14/85 188/15/87 189/15/85
f 188/15/87 190/14/85 192/14/87
f 192/14/79 186/14/79 191/14/79
f 186/14/79 192/14/79 183/14/79
f 183/14/79 192/14/79 190/14/79
f 183/14/79 190/14/79 184/14/79
f 184/14/79 190/14/79 178/14/79
f 184/14/79 178/14/79 180/14/79
f 192/14/87 187/15/86 188/15/87
f 187/15/86 192/14/87 191/14/86
f 195/16/95 194/17/96 193/16/95
f 194/17/96 195/16/95 196/17/96
f 199/18/98 198/18/97 197/18/97
f 198/18/97 199/18/98 200/18/98
f 203/19/100 202/19/99 201/19/99
f 202/19/99 203/19/100 204/19/100
f 207/17/101 206/16/102 205/17/101
f 206/16/102 207/17/101 208/16/102
f 208/16/102 199/18/98 206/16/102
f 199/18/98 208/16/102 200/18/98
f 198/18/97 193/16/95 197/18/97
f 193/16/95 198/18/97 195/16/95
f 201/19/99 194/17/96 196/17/96
f 194/17/96 201/19/99 202/19/99
f 207/17/101 204/19/100 203/19/100
f 204/19/100 207/17/101 205/17/101
f 205/17/103 202/19/103 204/19/103
f 202/19/103 205/17/103 194/17/103
f 194/17/103 205/17/103 206/16/103
f 194/17/103 206/16/103 193/16/103
f 193/16/103 206/16/103 199/18/103
f 193/16/103 199/18/103 197/18/103

