# Created by Kenney (www.kenney.nl)

mtllib sign-double.mtl

g sign-double

v 0.975 1.65 0.1585937 1 1 1
v 0.975 1.65 0.2085938 1 1 1
v -0.975 1.65 0.1585937 1 1 1
v -0.975 1.65 0.2085938 1 1 1
v 0.975 0.8 0.2085938 1 1 1
v 0.975 0.8 0.1585937 1 1 1
v -0.975 0.8 0.2085938 1 1 1
v -0.975 0.8 0.1585937 1 1 1
v -1 0.825 0.1585937 1 1 1
v -1 1.625 0.1585937 1 1 1
v -1 0.825 0.2085938 1 1 1
v -1 1.625 0.2085938 1 1 1
v 1 1.625 0.1585937 1 1 1
v 1 0.825 0.1585937 1 1 1
v 1 1.625 0.2085938 1 1 1
v 1 0.825 0.2085938 1 1 1
v -0.975 1.65 -0.1585937 1 1 1
v -0.975 1.65 -0.2085938 1 1 1
v 0.975 1.65 -0.1585937 1 1 1
v 0.975 1.65 -0.2085938 1 1 1
v -0.975 0.8 -0.2085938 1 1 1
v -0.975 0.8 -0.1585937 1 1 1
v 0.975 0.8 -0.2085938 1 1 1
v 0.975 0.8 -0.1585937 1 1 1
v 1 0.825 -0.1585937 1 1 1
v 1 1.625 -0.1585937 1 1 1
v 1 0.825 -0.2085938 1 1 1
v 1 1.625 -0.2085938 1 1 1
v -1 1.625 -0.1585937 1 1 1
v -1 0.825 -0.1585937 1 1 1
v -1 1.625 -0.2085938 1 1 1
v -1 0.825 -0.2085938 1 1 1
v 0.78125 0.35 -0.03125 1 1 1
v 0.78125 0.2875 -0.0625 1 1 1
v 0.8125 0.2875 -0.03125 1 1 1
v 0.6875 0.2875 0.03125 1 1 1
v 0.71875 0.35 0.03125 1 1 1
v 0.71875 0.2875 0.0625 1 1 1
v 0.6875 0.2875 -0.03125 1 1 1
v 0.71875 0.2875 -0.0625 1 1 1
v 0.71875 0.35 -0.03125 1 1 1
v 0.78125 0.35 0.03125 1 1 1
v 0.8125 0.2875 0.03125 1 1 1
v 0.78125 0.2875 0.0625 1 1 1
v 0.828125 0 0.0390625 1 1 1
v 0.7890625 0 0.078125 1 1 1
v 0.78125 1.65 0.03125 1 1 1
v 0.71875 1.65 0.03125 1 1 1
v 0.7109375 0 -0.078125 1 1 1
v 0.7890625 0 -0.078125 1 1 1
v 0.671875 0 0.0390625 1 1 1
v 0.7109375 0 0.078125 1 1 1
v 0.828125 0 -0.0390625 1 1 1
v 0.671875 0 -0.0390625 1 1 1
v 0.71875 1.65 -0.03125 1 1 1
v 0.78125 1.65 -0.03125 1 1 1
v -0.71875 0.35 -0.03125 1 1 1
v -0.71875 0.2875 -0.0625 1 1 1
v -0.6875 0.2875 -0.03125 1 1 1
v -0.8125 0.2875 0.03125 1 1 1
v -0.78125 0.35 0.03125 1 1 1
v -0.78125 0.2875 0.0625 1 1 1
v -0.8125 0.2875 -0.03125 1 1 1
v -0.78125 0.2875 -0.0625 1 1 1
v -0.78125 0.35 -0.03125 1 1 1
v -0.71875 0.35 0.03125 1 1 1
v -0.6875 0.2875 0.03125 1 1 1
v -0.71875 0.2875 0.0625 1 1 1
v -0.671875 0 0.0390625 1 1 1
v -0.7109375 0 0.078125 1 1 1
v -0.71875 1.65 0.03125 1 1 1
v -0.78125 1.65 0.03125 1 1 1
v -0.7890625 0 -0.078125 1 1 1
v -0.7109375 0 -0.078125 1 1 1
v -0.828125 0 0.0390625 1 1 1
v -0.7890625 0 0.078125 1 1 1
v -0.671875 0 -0.0390625 1 1 1
v -0.828125 0 -0.0390625 1 1 1
v -0.78125 1.65 -0.03125 1 1 1
v -0.71875 1.65 -0.03125 1 1 1
v 0.71875 0.475 -0.03125 1 1 1
v 0.71875 0.475 0.03125 1 1 1
v -0.71875 0.475 -0.03125 1 1 1
v -0.71875 0.475 0.03125 1 1 1
v -0.71875 0.4125 0.03125 1 1 1
v 0.71875 0.4125 0.03125 1 1 1
v 0.71875 0.4125 -0.03125 1 1 1
v -0.71875 0.4125 -0.03125 1 1 1
v -0.8085938 1.475 -0.02734375 1 1 1
v -0.8085938 1.5625 -0.02734375 1 1 1
v -0.8085938 1.475 0.02734375 1 1 1
v -0.8085938 1.5625 0.02734375 1 1 1
v -0.7226563 1.475 0.05859375 1 1 1
v -0.7773438 1.475 0.05859375 1 1 1
v -0.7226563 1.5625 0.05859375 1 1 1
v -0.7773438 1.5625 0.05859375 1 1 1
v -0.6914063 1.475 0.02734375 1 1 1
v -0.6914063 1.5625 0.02734375 1 1 1
v -0.6914063 1.475 -0.02734375 1 1 1
v -0.7226563 1.475 -0.05859375 1 1 1
v -0.7773438 1.475 -0.05859375 1 1 1
v -0.7773438 1.5625 -0.05859375 1 1 1
v -0.6914063 1.5625 -0.02734375 1 1 1
v -0.7226563 1.5625 -0.05859375 1 1 1
v 0.6914063 1.475 -0.02734375 1 1 1
v 0.6914063 1.5625 -0.02734375 1 1 1
v 0.6914063 1.475 0.02734375 1 1 1
v 0.6914063 1.5625 0.02734375 1 1 1
v 0.7773438 1.475 0.05859375 1 1 1
v 0.7226563 1.475 0.05859375 1 1 1
v 0.7773438 1.5625 0.05859375 1 1 1
v 0.7226563 1.5625 0.05859375 1 1 1
v 0.8085938 1.475 0.02734375 1 1 1
v 0.8085938 1.5625 0.02734375 1 1 1
v 0.8085938 1.475 -0.02734375 1 1 1
v 0.7773438 1.475 -0.05859375 1 1 1
v 0.7226563 1.475 -0.05859375 1 1 1
v 0.7226563 1.5625 -0.05859375 1 1 1
v 0.8085938 1.5625 -0.02734375 1 1 1
v 0.7773438 1.5625 -0.05859375 1 1 1
v 0.6914063 0.8875 -0.02734375 1 1 1
v 0.6914063 0.975 -0.02734375 1 1 1
v 0.6914063 0.8875 0.02734375 1 1 1
v 0.6914063 0.975 0.02734375 1 1 1
v 0.7773438 0.8875 0.05859375 1 1 1
v 0.7226563 0.8875 0.05859375 1 1 1
v 0.7773438 0.975 0.05859375 1 1 1
v 0.7226563 0.975 0.05859375 1 1 1
v 0.8085938 0.8875 0.02734375 1 1 1
v 0.8085938 0.975 0.02734375 1 1 1
v 0.8085938 0.8875 -0.02734375 1 1 1
v 0.7773438 0.8875 -0.05859375 1 1 1
v 0.7226563 0.8875 -0.05859375 1 1 1
v 0.7226563 0.975 -0.05859375 1 1 1
v 0.8085938 0.975 -0.02734375 1 1 1
v 0.7773438 0.975 -0.05859375 1 1 1
v -0.8085938 0.8875 -0.02734375 1 1 1
v -0.8085938 0.975 -0.02734375 1 1 1
v -0.8085938 0.8875 0.02734375 1 1 1
v -0.8085938 0.975 0.02734375 1 1 1
v -0.7226563 0.8875 0.05859375 1 1 1
v -0.7773438 0.8875 0.05859375 1 1 1
v -0.7226563 0.975 0.05859375 1 1 1
v -0.7773438 0.975 0.05859375 1 1 1
v -0.6914063 0.8875 0.02734375 1 1 1
v -0.6914063 0.975 0.02734375 1 1 1
v -0.6914063 0.8875 -0.02734375 1 1 1
v -0.7226563 0.8875 -0.05859375 1 1 1
v -0.7773438 0.8875 -0.05859375 1 1 1
v -0.7773438 0.975 -0.05859375 1 1 1
v -0.6914063 0.975 -0.02734375 1 1 1
v -0.7226563 0.975 -0.05859375 1 1 1
v 1 1.625 0.05859375 1 1 1
v 1 0.825 0.05859375 1 1 1
v 0.975 1.65 0.05859375 1 1 1
v -0.975 1.65 0.05859375 1 1 1
v 0.975 0.8 0.05859375 1 1 1
v -0.975 0.8 0.05859375 1 1 1
v -1 0.825 0.05859375 1 1 1
v -1 1.625 0.05859375 1 1 1
v -1 1.625 -0.05859375 1 1 1
v -1 0.825 -0.05859375 1 1 1
v -0.975 1.65 -0.05859375 1 1 1
v 0.975 1.65 -0.05859375 1 1 1
v -0.975 0.8 -0.05859375 1 1 1
v 0.975 0.8 -0.05859375 1 1 1
v 1 0.825 -0.05859375 1 1 1
v 1 1.625 -0.05859375 1 1 1

vn 0.3826834 0.9238795 0
vn -0.3826834 0.9238795 0
vn 0.3826834 -0.9238795 0
vn -0.3826834 -0.9238795 0
vn -0.9238795 -0.3826834 0
vn -0.9238795 0.3826834 0
vn 0.9238795 0.3826834 0
vn 0.9238795 -0.3826834 0
vn 0 0 1
vn -0.3826834 0.9238795 1.087131E-15
vn 0.3826834 0.9238795 -1.087131E-15
vn -0.3826834 -0.9238795 1.087131E-15
vn 0.3826834 -0.9238795 -1.087131E-15
vn 0.9238795 -0.3826834 -2.624567E-15
vn 0.9238795 0.3826834 -2.624567E-15
vn -0.9238795 0.3826834 2.624567E-15
vn -0.9238795 -0.3826834 2.624567E-15
vn -2.84081E-15 0 -1
vn 0.5997861 0.5296351 -0.5997861
vn 0.315808 0.4243266 -0.8486531
vn 0.8486531 0.4243266 -0.315808
vn -0.8486531 0.4243266 0.315808
vn -0.5997861 0.5296351 0.5997861
vn -0.315808 0.4243266 0.8486531
vn -0.8486531 0.4243266 -0.315808
vn -0.315808 0.4243266 -0.8486531
vn -0.5997861 0.5296351 -0.5997861
vn 0.5997861 0.5296351 0.5997861
vn 0.8486531 0.4243266 0.315808
vn 0.315808 0.4243266 0.8486531
vn 0.9217949 0.06050319 0.3829277
vn 0.3829277 0.06050319 0.9217949
vn 0.9225959 0.0604942 0.380995
vn 0.380995 0.0604942 0.9225959
vn 0.7071068 0 0.7071068
vn -0.7071068 0 0.7071068
vn -0.3829277 0.06050319 -0.9217949
vn 0.3829277 0.06050319 -0.9217949
vn -0.380995 0.0604942 -0.9225959
vn 0.380995 0.0604942 -0.9225959
vn -0.9225959 0.0604942 0.380995
vn -0.380995 0.0604942 0.9225959
vn -0.9217949 0.06050319 0.3829277
vn -0.3829277 0.06050319 0.9217949
vn 0 -1 0
vn -0.9217949 0.06050319 -0.3829277
vn -0.9225959 0.0604942 -0.380995
vn -0.7071068 0 -0.7071068
vn 0.7071068 0 -0.7071068
vn 0.9217949 0.06050319 -0.3829277
vn 0.9225959 0.0604942 -0.380995
vn 0 1 0
vn 0 0.7071068 -0.7071068
vn 0 0.7071068 0.7071068
vn 0 -0.7071068 0.7071068
vn 0 -0.7071068 -0.7071068
vn -0.9238795 0 -0.3826834
vn -0.9238795 0 0.3826834
vn 0.3826834 0 0.9238795
vn -0.3826834 0 0.9238795
vn 0.9238795 0 0.3826834
vn -0.3826834 0 -0.9238795
vn 0.9238795 0 -0.3826834
vn 0.3826834 0 -0.9238795
vn 0.9238796 0.3826835 0
vn 0.9238796 -0.3826835 0
vn 0.3826835 0.9238796 0
vn -0.3826835 0.9238796 0
vn 0.3826835 -0.9238796 0
vn -0.3826835 -0.9238796 0
vn -0.9238796 -0.3826835 0
vn -0.9238796 0.3826835 0
vn 0 0 -1
vn -0.9238796 0.3826835 2.624567E-15
vn -0.9238796 -0.3826835 2.624567E-15
vn -0.3826835 0.9238796 1.087131E-15
vn 0.3826835 0.9238796 -1.087131E-15
vn -0.3826835 -0.9238796 1.087131E-15
vn 0.3826835 -0.9238796 -1.087131E-15
vn 0.9238796 -0.3826835 -2.624567E-15
vn 0.9238796 0.3826835 -2.624567E-15
vn 2.84081E-15 0 1

vt 0.34375 0.225
vt 0.34375 0.08333332
vt 0.34375 0.08749999
vt 0.34375 0.2208333
vt 0.46875 0.1825758
vt 0.46875 0.1901515
vt 0.46875 0.225
vt 0.46875 0.025
vt 0.46875 0.175
vt 0.46875 0.075
vt 0.21875 0.1729167
vt 0.21875 0.10625
vt 0.21875 0.175
vt 0.21875 0.1041667

usemtl colormap

f 3/1/2 2/1/1 1/1/1
f 2/1/1 3/1/2 4/1/2
f 7/2/4 6/2/3 5/2/3
f 6/2/3 7/2/4 8/2/4
f 11/3/5 10/4/6 9/3/5
f 10/4/6 11/3/5 12/4/6
f 15/4/7 14/3/8 13/4/7
f 14/3/8 15/4/7 16/3/8
f 1/1/1 15/4/7 13/4/7
f 15/4/7 1/1/1 2/1/1
f 7/2/4 9/3/5 8/2/4
f 9/3/5 7/2/4 11/3/5
f 10/4/6 4/1/2 3/1/2
f 4/1/2 10/4/6 12/4/6
f 16/3/8 6/2/3 14/3/8
f 6/2/3 16/3/8 5/2/3
f 16/3/9 7/2/9 5/2/9
f 7/2/9 16/3/9 11/3/9
f 11/3/9 16/3/9 15/4/9
f 11/3/9 15/4/9 12/4/9
f 12/4/9 15/4/9 2/1/9
f 12/4/9 2/1/9 4/1/9
f 19/1/11 18/1/10 17/1/10
f 18/1/10 19/1/11 20/1/11
f 23/2/13 22/2/12 21/2/12
f 22/2/12 23/2/13 24/2/13
f 27/3/14 26/4/15 25/3/14
f 26/4/15 27/3/14 28/4/15
f 31/4/16 30/3/17 29/4/16
f 30/3/17 31/4/16 32/3/17
f 17/1/10 31/4/16 29/4/16
f 31/4/16 17/1/10 18/1/10
f 23/2/13 25/3/14 24/2/13
f 25/3/14 23/2/13 27/3/14
f 26/4/15 20/1/11 19/1/11
f 20/1/11 26/4/15 28/4/15
f 32/3/17 22/2/12 30/3/17
f 22/2/12 32/3/17 21/2/12
f 32/3/18 23/2/18 21/2/18
f 23/2/18 32/3/18 27/3/18
f 27/3/18 32/3/18 31/4/18
f 27/3/18 31/4/18 28/4/18
f 28/4/18 31/4/18 18/1/18
f 28/4/18 18/1/18 20/1/18
f 35/6/21 34/6/20 33/5/19
f 38/6/24 37/5/23 36/6/22
f 41/5/27 40/6/26 39/6/25
f 44/6/30 43/6/29 42/5/28
f 43/6/33 46/7/32 45/7/31
f 46/7/32 43/6/33 44/6/34
f 47/8/35 37/5/36 42/5/35
f 37/5/36 47/8/35 48/8/36
f 40/6/39 50/7/38 49/7/37
f 50/7/38 40/6/39 34/6/40
f 41/5/27 34/6/20 40/6/26
f 34/6/20 41/5/27 33/5/19
f 51/7/43 38/6/42 36/6/41
f 38/6/42 51/7/43 52/7/44
f 46/7/45 53/7/45 45/7/45
f 53/7/45 46/7/45 50/7/45
f 50/7/45 46/7/45 52/7/45
f 50/7/45 52/7/45 49/7/45
f 49/7/45 52/7/45 51/7/45
f 49/7/45 51/7/45 54/7/45
f 36/6/22 41/5/27 39/6/25
f 41/5/27 36/6/22 37/5/23
f 54/7/46 40/6/39 49/7/37
f 40/6/39 54/7/46 39/6/47
f 42/5/28 38/6/24 44/6/30
f 38/6/24 42/5/28 37/5/23
f 44/6/34 52/7/44 46/7/32
f 52/7/44 44/6/34 38/6/42
f 55/8/48 33/5/49 41/5/48
f 33/5/49 55/8/48 56/8/49
f 47/8/35 33/5/49 56/8/49
f 33/5/49 47/8/35 42/5/35
f 34/6/40 53/7/50 50/7/38
f 53/7/50 34/6/40 35/6/51
f 51/7/43 39/6/47 54/7/46
f 39/6/47 51/7/43 36/6/41
f 35/6/51 45/7/31 53/7/50
f 45/7/31 35/6/51 43/6/33
f 55/8/52 47/8/52 56/8/52
f 47/8/52 55/8/52 48/8/52
f 37/5/36 55/8/48 41/5/48
f 55/8/48 37/5/36 48/8/36
f 42/5/28 35/6/21 33/5/19
f 35/6/21 42/5/28 43/6/29
f 59/6/21 58/6/20 57/5/19
f 62/6/24 61/5/23 60/6/22
f 65/5/27 64/6/26 63/6/25
f 68/6/30 67/6/29 66/5/28
f 67/6/33 70/7/32 69/7/31
f 70/7/32 67/6/33 68/6/34
f 71/8/35 61/5/36 66/5/35
f 61/5/36 71/8/35 72/8/36
f 64/6/39 74/7/38 73/7/37
f 74/7/38 64/6/39 58/6/40
f 65/5/27 58/6/20 64/6/26
f 58/6/20 65/5/27 57/5/19
f 75/7/43 62/6/42 60/6/41
f 62/6/42 75/7/43 76/7/44
f 70/7/45 77/7/45 69/7/45
f 77/7/45 70/7/45 74/7/45
f 74/7/45 70/7/45 76/7/45
f 74/7/45 76/7/45 73/7/45
f 73/7/45 76/7/45 75/7/45
f 73/7/45 75/7/45 78/7/45
f 60/6/22 65/5/27 63/6/25
f 65/5/27 60/6/22 61/5/23
f 78/7/46 64/6/39 73/7/37
f 64/6/39 78/7/46 63/6/47
f 66/5/28 62/6/24 68/6/30
f 62/6/24 66/5/28 61/5/23
f 68/6/34 76/7/44 70/7/32
f 76/7/44 68/6/34 62/6/42
f 79/8/48 57/5/49 65/5/48
f 57/5/49 79/8/48 80/8/49
f 71/8/35 57/5/49 80/8/49
f 57/5/49 71/8/35 66/5/35
f 58/6/40 77/7/50 74/7/38
f 77/7/50 58/6/40 59/6/51
f 75/7/43 63/6/47 78/7/46
f 63/6/47 75/7/43 60/6/41
f 59/6/51 69/7/31 77/7/50
f 69/7/31 59/6/51 67/6/33
f 79/8/52 71/8/52 80/8/52
f 71/8/52 79/8/52 72/8/52
f 61/5/36 79/8/48 65/5/48
f 79/8/48 61/5/36 72/8/36
f 66/5/28 59/6/21 57/5/19
f 59/6/21 66/5/28 67/6/29
f 83/9/53 82/9/54 81/9/53
f 82/9/54 83/9/53 84/9/54
f 86/10/55 84/9/54 85/10/55
f 84/9/54 86/10/55 82/9/54
f 85/10/55 87/10/56 86/10/55
f 87/10/56 85/10/55 88/10/56
f 83/9/53 87/10/56 88/10/56
f 87/10/56 83/9/53 81/9/53
f 91/10/58 90/9/57 89/10/57
f 90/9/57 91/10/58 92/9/58
f 95/9/59 94/10/60 93/10/59
f 94/10/60 95/9/59 96/9/60
f 98/9/61 93/10/59 97/10/61
f 93/10/59 98/9/61 95/9/59
f 93/10/45 99/10/45 97/10/45
f 99/10/45 93/10/45 100/10/45
f 100/10/45 93/10/45 94/10/45
f 100/10/45 94/10/45 101/10/45
f 101/10/45 94/10/45 91/10/45
f 101/10/45 91/10/45 89/10/45
f 90/9/57 101/10/62 89/10/57
f 101/10/62 90/9/57 102/9/62
f 96/9/60 91/10/58 94/10/60
f 91/10/58 96/9/60 92/9/58
f 98/9/61 99/10/63 103/9/63
f 99/10/63 98/9/61 97/10/61
f 102/9/62 100/10/64 101/10/62
f 100/10/64 102/9/62 104/9/64
f 104/9/52 98/9/52 103/9/52
f 98/9/52 104/9/52 95/9/52
f 95/9/52 104/9/52 102/9/52
f 95/9/52 102/9/52 96/9/52
f 96/9/52 102/9/52 90/9/52
f 96/9/52 90/9/52 92/9/52
f 104/9/64 99/10/63 100/10/64
f 99/10/63 104/9/64 103/9/63
f 107/10/58 106/9/57 105/10/57
f 106/9/57 107/10/58 108/9/58
f 111/9/59 110/10/60 109/10/59
f 110/10/60 111/9/59 112/9/60
f 114/9/61 109/10/59 113/10/61
f 109/10/59 114/9/61 111/9/59
f 109/10/45 115/10/45 113/10/45
f 115/10/45 109/10/45 116/10/45
f 116/10/45 109/10/45 110/10/45
f 116/10/45 110/10/45 117/10/45
f 117/10/45 110/10/45 107/10/45
f 117/10/45 107/10/45 105/10/45
f 106/9/57 117/10/62 105/10/57
f 117/10/62 106/9/57 118/9/62
f 112/9/60 107/10/58 110/10/60
f 107/10/58 112/9/60 108/9/58
f 114/9/61 115/10/63 119/9/63
f 115/10/63 114/9/61 113/10/61
f 118/9/62 116/10/64 117/10/62
f 116/10/64 118/9/62 120/9/64
f 120/9/52 114/9/52 119/9/52
f 114/9/52 120/9/52 111/9/52
f 111/9/52 120/9/52 118/9/52
f 111/9/52 118/9/52 112/9/52
f 112/9/52 118/9/52 106/9/52
f 112/9/52 106/9/52 108/9/52
f 120/9/64 115/10/63 116/10/64
f 115/10/63 120/9/64 119/9/63
f 123/10/58 122/9/57 121/10/57
f 122/9/57 123/10/58 124/9/58
f 127/9/59 126/10/60 125/10/59
f 126/10/60 127/9/59 128/9/60
f 130/9/61 125/10/59 129/10/61
f 125/10/59 130/9/61 127/9/59
f 125/10/45 131/10/45 129/10/45
f 131/10/45 125/10/45 132/10/45
f 132/10/45 125/10/45 126/10/45
f 132/10/45 126/10/45 133/10/45
f 133/10/45 126/10/45 123/10/45
f 133/10/45 123/10/45 121/10/45
f 122/9/57 133/10/62 121/10/57
f 133/10/62 122/9/57 134/9/62
f 128/9/60 123/10/58 126/10/60
f 123/10/58 128/9/60 124/9/58
f 130/9/61 131/10/63 135/9/63
f 131/10/63 130/9/61 129/10/61
f 134/9/62 132/10/64 133/10/62
f 132/10/64 134/9/62 136/9/64
f 136/9/52 130/9/52 135/9/52
f 130/9/52 136/9/52 127/9/52
f 127/9/52 136/9/52 134/9/52
f 127/9/52 134/9/52 128/9/52
f 128/9/52 134/9/52 122/9/52
f 128/9/52 122/9/52 124/9/52
f 136/9/64 131/10/63 132/10/64
f 131/10/63 136/9/64 135/9/63
f 139/10/58 138/9/57 137/10/57
f 138/9/57 139/10/58 140/9/58
f 143/9/59 142/10/60 141/10/59
f 142/10/60 143/9/59 144/9/60
f 146/9/61 141/10/59 145/10/61
f 141/10/59 146/9/61 143/9/59
f 141/10/45 147/10/45 145/10/45
f 147/10/45 141/10/45 148/10/45
f 148/10/45 141/10/45 142/10/45
f 148/10/45 142/10/45 149/10/45
f 149/10/45 142/10/45 139/10/45
f 149/10/45 139/10/45 137/10/45
f 138/9/57 149/10/62 137/10/57
f 149/10/62 138/9/57 150/9/62
f 144/9/60 139/10/58 142/10/60
f 139/10/58 144/9/60 140/9/58
f 146/9/61 147/10/63 151/9/63
f 147/10/63 146/9/61 145/10/61
f 150/9/62 148/10/64 149/10/62
f 148/10/64 150/9/62 152/9/64
f 152/9/52 146/9/52 151/9/52
f 146/9/52 152/9/52 143/9/52
f 143/9/52 152/9/52 150/9/52
f 143/9/52 150/9/52 144/9/52
f 144/9/52 150/9/52 138/9/52
f 144/9/52 138/9/52 140/9/52
f 152/9/64 147/10/63 148/10/64
f 147/10/63 152/9/64 151/9/63
f 13/11/65 154/12/66 153/11/65
f 154/12/66 13/11/65 14/12/66
f 156/13/68 1/13/67 155/13/67
f 1/13/67 156/13/68 3/13/68
f 8/14/70 157/14/69 6/14/69
f 157/14/69 8/14/70 158/14/70
f 9/12/71 160/11/72 159/12/71
f 160/11/72 9/12/71 10/11/72
f 10/11/72 156/13/68 160/11/72
f 156/13/68 10/11/72 3/13/68
f 1/13/67 153/11/65 155/13/67
f 153/11/65 1/13/67 13/11/65
f 6/14/69 154/12/66 14/12/66
f 154/12/66 6/14/69 157/14/69
f 9/12/71 158/14/70 8/14/70
f 158/14/70 9/12/71 159/12/71
f 159/12/73 157/14/73 158/14/73
f 157/14/73 159/12/73 154/12/73
f 154/12/73 159/12/73 160/11/73
f 154/12/73 160/11/73 153/11/73
f 153/11/73 160/11/73 156/13/73
f 153/11/73 156/13/73 155/13/73
f 29/11/74 162/12/75 161/11/74
f 162/12/75 29/11/74 30/12/75
f 164/13/77 17/13/76 163/13/76
f 17/13/76 164/13/77 19/13/77
f 24/14/79 165/14/78 22/14/78
f 165/14/78 24/14/79 166/14/79
f 25/12/80 168/11/81 167/12/80
f 168/11/81 25/12/80 26/11/81
f 26/11/81 164/13/77 168/11/81
f 164/13/77 26/11/81 19/13/77
f 17/13/76 161/11/74 163/13/76
f 161/11/74 17/13/76 29/11/74
f 22/14/78 162/12/75 30/12/75
f 162/12/75 22/14/78 165/14/78
f 25/12/80 166/14/79 24/14/79
f 166/14/79 25/12/80 167/12/80
f 167/12/82 165/14/82 166/14/82
f 165/14/82 167/12/82 162/12/82
f 162/12/82 167/12/82 168/11/82
f 162/12/82 168/11/82 161/11/82
f 161/11/82 168/11/82 164/13/82
f 161/11/82 164/13/82 163/13/82

g sign-double




usemtl colormap

f 3/1/2 2/1/1 1/1/1
f 2/1/1 3/1/2 4/1/2
f 7/2/4 6/2/3 5/2/3
f 6/2/3 7/2/4 8/2/4
f 11/3/5 10/4/6 9/3/5
f 10/4/6 11/3/5 12/4/6
f 15/4/7 14/3/8 13/4/7
f 14/3/8 15/4/7 16/3/8
f 1/1/1 15/4/7 13/4/7
f 15/4/7 1/1/1 2/1/1
f 7/2/4 9/3/5 8/2/4
f 9/3/5 7/2/4 11/3/5
f 10/4/6 4/1/2 3/1/2
f 4/1/2 10/4/6 12/4/6
f 16/3/8 6/2/3 14/3/8
f 6/2/3 16/3/8 5/2/3
f 16/3/9 7/2/9 5/2/9
f 7/2/9 16/3/9 11/3/9
f 11/3/9 16/3/9 15/4/9
f 11/3/9 15/4/9 12/4/9
f 12/4/9 15/4/9 2/1/9
f 12/4/9 2/1/9 4/1/9
f 19/1/11 18/1/10 17/1/10
f 18/1/10 19/1/11 20/1/11
f 23/2/13 22/2/12 21/2/12
f 22/2/12 23/2/13 24/2/13
f 27/3/14 26/4/15 25/3/14
f 26/4/15 27/3/14 28/4/15
f 31/4/16 30/3/17 29/4/16
f 30/3/17 31/4/16 32/3/17
f 17/1/10 31/4/16 29/4/16
f 31/4/16 17/1/10 18/1/10
f 23/2/13 25/3/14 24/2/13
f 25/3/14 23/2/13 27/3/14
f 26/4/15 20/1/11 19/1/11
f 20/1/11 26/4/15 28/4/15
f 32/3/17 22/2/12 30/3/17
f 22/2/12 32/3/17 21/2/12
f 32/3/18 23/2/18 21/2/18
f 23/2/18 32/3/18 27/3/18
f 27/3/18 32/3/18 31/4/18
f 27/3/18 31/4/18 28/4/18
f 28/4/18 31/4/18 18/1/18
f 28/4/18 18/1/18 20/1/18
f 35/6/21 34/6/20 33/5/19
f 38/6/24 37/5/23 36/6/22
f 41/5/27 40/6/26 39/6/25
f 44/6/30 43/6/29 42/5/28
f 43/6/33 46/7/32 45/7/31
f 46/7/32 43/6/33 44/6/34
f 47/8/35 37/5/36 42/5/35
f 37/5/36 47/8/35 48/8/36
f 40/6/39 50/7/38 49/7/37
f 50/7/38 40/6/39 34/6/40
f 41/5/27 34/6/20 40/6/26
f 34/6/20 41/5/27 33/5/19
f 51/7/43 38/6/42 36/6/41
f 38/6/42 51/7/43 52/7/44
f 46/7/45 53/7/45 45/7/45
f 53/7/45 46/7/45 50/7/45
f 50/7/45 46/7/45 52/7/45
f 50/7/45 52/7/45 49/7/45
f 49/7/45 52/7/45 51/7/45
f 49/7/45 51/7/45 54/7/45
f 36/6/22 41/5/27 39/6/25
f 41/5/27 36/6/22 37/5/23
f 54/7/46 40/6/39 49/7/37
f 40/6/39 54/7/46 39/6/47
f 42/5/28 38/6/24 44/6/30
f 38/6/24 42/5/28 37/5/23
f 44/6/34 52/7/44 46/7/32
f 52/7/44 44/6/34 38/6/42
f 55/8/48 33/5/49 41/5/48
f 33/5/49 55/8/48 56/8/49
f 47/8/35 33/5/49 56/8/49
f 33/5/49 47/8/35 42/5/35
f 34/6/40 53/7/50 50/7/38
f 53/7/50 34/6/40 35/6/51
f 51/7/43 39/6/47 54/7/46
f 39/6/47 51/7/43 36/6/41
f 35/6/51 45/7/31 53/7/50
f 45/7/31 35/6/51 43/6/33
f 55/8/52 47/8/52 56/8/52
f 47/8/52 55/8/52 48/8/52
f 37/5/36 55/8/48 41/5/48
f 55/8/48 37/5/36 48/8/36
f 42/5/28 35/6/21 33/5/19
f 35/6/21 42/5/28 43/6/29
f 59/6/21 58/6/20 57/5/19
f 62/6/24 61/5/23 60/6/22
f 65/5/27 64/6/26 63/6/25
f 68/6/30 67/6/29 66/5/28
f 67/6/33 70/7/32 69/7/31
f 70/7/32 67/6/33 68/6/34
f 71/8/35 61/5/36 66/5/35
f 61/5/36 71/8/35 72/8/36
f 64/6/39 74/7/38 73/7/37
f 74/7/38 64/6/39 58/6/40
f 65/5/27 58/6/20 64/6/26
f 58/6/20 65/5/27 57/5/19
f 75/7/43 62/6/42 60/6/41
f 62/6/42 75/7/43 76/7/44
f 70/7/45 77/7/45 69/7/45
f 77/7/45 70/7/45 74/7/45
f 74/7/45 70/7/45 76/7/45
f 74/7/45 76/7/45 73/7/45
f 73/7/45 76/7/45 75/7/45
f 73/7/45 75/7/45 78/7/45
f 60/6/22 65/5/27 63/6/25
f 65/5/27 60/6/22 61/5/23
f 78/7/46 64/6/39 73/7/37
f 64/6/39 78/7/46 63/6/47
f 66/5/28 62/6/24 68/6/30
f 62/6/24 66/5/28 61/5/23
f 68/6/34 76/7/44 70/7/32
f 76/7/44 68/6/34 62/6/42
f 79/8/48 57/5/49 65/5/48
f 57/5/49 79/8/48 80/8/49
f 71/8/35 57/5/49 80/8/49
f 57/5/49 71/8/35 66/5/35
f 58/6/40 77/7/50 74/7/38
f 77/7/50 58/6/40 59/6/51
f 75/7/43 63/6/47 78/7/46
f 63/6/47 75/7/43 60/6/41
f 59/6/51 69/7/31 77/7/50
f 69/7/31 59/6/51 67/6/33
f 79/8/52 71/8/52 80/8/52
f 71/8/52 79/8/52 72/8/52
f 61/5/36 79/8/48 65/5/48
f 79/8/48 61/5/36 72/8/36
f 66/5/28 59/6/21 57/5/19
f 59/6/21 66/5/28 67/6/29
f 83/9/53 82/9/54 81/9/53
f 82/9/54 83/9/53 84/9/54
f 86/10/55 84/9/54 85/10/55
f 84/9/54 86/10/55 82/9/54
f 85/10/55 87/10/56 86/10/55
f 87/10/56 85/10/55 88/10/56
f 83/9/53 87/10/56 88/10/56
f 87/10/56 83/9/53 81/9/53
f 91/10/58 90/9/57 89/10/57
f 90/9/57 91/10/58 92/9/58
f 95/9/59 94/10/60 93/10/59
f 94/10/60 95/9/59 96/9/60
f 98/9/61 93/10/59 97/10/61
f 93/10/59 98/9/61 95/9/59
f 93/10/45 99/10/45 97/10/45
f 99/10/45 93/10/45 100/10/45
f 100/10/45 93/10/45 94/10/45
f 100/10/45 94/10/45 101/10/45
f 101/10/45 94/10/45 91/10/45
f 101/10/45 91/10/45 89/10/45
f 90/9/57 101/10/62 89/10/57
f 101/10/62 90/9/57 102/9/62
f 96/9/60 91/10/58 94/10/60
f 91/10/58 96/9/60 92/9/58
f 98/9/61 99/10/63 103/9/63
f 99/10/63 98/9/61 97/10/61
f 102/9/62 100/10/64 101/10/62
f 100/10/64 102/9/62 104/9/64
f 104/9/52 98/9/52 103/9/52
f 98/9/52 104/9/52 95/9/52
f 95/9/52 104/9/52 102/9/52
f 95/9/52 102/9/52 96/9/52
f 96/9/52 102/9/52 90/9/52
f 96/9/52 90/9/52 92/9/52
f 104/9/64 99/10/63 100/10/64
f 99/10/63 104/9/64 103/9/63
f 107/10/58 106/9/57 105/10/57
f 106/9/57 107/10/58 108/9/58
f 111/9/59 110/10/60 109/10/59
f 110/10/60 111/9/59 112/9/60
f 114/9/61 109/10/59 113/10/61
f 109/10/59 114/9/61 111/9/59
f 109/10/45 115/10/45 113/10/45
f 115/10/45 109/10/45 116/10/45
f 116/10/45 109/10/45 110/10/45
f 116/10/45 110/10/45 117/10/45
f 117/10/45 110/10/45 107/10/45
f 117/10/45 107/10/45 105/10/45
f 106/9/57 117/10/62 105/10/57
f 117/10/62 106/9/57 118/9/62
f 112/9/60 107/10/58 110/10/60
f 107/10/58 112/9/60 108/9/58
f 114/9/61 115/10/63 119/9/63
f 115/10/63 114/9/61 113/10/61
f 118/9/62 116/10/64 117/10/62
f 116/10/64 118/9/62 120/9/64
f 120/9/52 114/9/52 119/9/52
f 114/9/52 120/9/52 111/9/52
f 111/9/52 120/9/52 118/9/52
f 111/9/52 118/9/52 112/9/52
f 112/9/52 118/9/52 106/9/52
f 112/9/52 106/9/52 108/9/52
f 120/9/64 115/10/63 116/10/64
f 115/10/63 120/9/64 119/9/63
f 123/10/58 122/9/57 121/10/57
f 122/9/57 123/10/58 124/9/58
f 127/9/59 126/10/60 125/10/59
f 126/10/60 127/9/59 128/9/60
f 130/9/61 125/10/59 129/10/61
f 125/10/59 130/9/61 127/9/59
f 125/10/45 131/10/45 129/10/45
f 131/10/45 125/10/45 132/10/45
f 132/10/45 125/10/45 126/10/45
f 132/10/45 126/10/45 133/10/45
f 133/10/45 126/10/45 123/10/45
f 133/10/45 123/10/45 121/10/45
f 122/9/57 133/10/62 121/10/57
f 133/10/62 122/9/57 134/9/62
f 128/9/60 123/10/58 126/10/60
f 123/10/58 128/9/60 124/9/58
f 130/9/61 131/10/63 135/9/63
f 131/10/63 130/9/61 129/10/61
f 134/9/62 132/10/64 133/10/62
f 132/10/64 134/9/62 136/9/64
f 136/9/52 130/9/52 135/9/52
f 130/9/52 136/9/52 127/9/52
f 127/9/52 136/9/52 134/9/52
f 127/9/52 134/9/52 128/9/52
f 128/9/52 134/9/52 122/9/52
f 128/9/52 122/9/52 124/9/52
f 136/9/64 131/10/63 132/10/64
f 131/10/63 136/9/64 135/9/63
f 139/10/58 138/9/57 137/10/57
f 138/9/57 139/10/58 140/9/58
f 143/9/59 142/10/60 141/10/59
f 142/10/60 143/9/59 144/9/60
f 146/9/61 141/10/59 145/10/61
f 141/10/59 146/9/61 143/9/59
f 141/10/45 147/10/45 145/10/45
f 147/10/45 141/10/45 148/10/45
f 148/10/45 141/10/45 142/10/45
f 148/10/45 142/10/45 149/10/45
f 149/10/45 142/10/45 139/10/45
f 149/10/45 139/10/45 137/10/45
f 138/9/57 149/10/62 137/10/57
f 149/10/62 138/9/57 150/9/62
f 144/9/60 139/10/58 142/10/60
f 139/10/58 144/9/60 140/9/58
f 146/9/61 147/10/63 151/9/63
f 147/10/63 146/9/61 145/10/61
f 150/9/62 148/10/64 149/10/62
f 148/10/64 150/9/62 152/9/64
f 152/9/52 146/9/52 151/9/52
f 146/9/52 152/9/52 143/9/52
f 143/9/52 152/9/52 150/9/52
f 143/9/52 150/9/52 144/9/52
f 144/9/52 150/9/52 138/9/52
f 144/9/52 138/9/52 140/9/52
f 152/9/64 147/10/63 148/10/64
f 147/10/63 152/9/64 151/9/63
f 13/11/65 154/12/66 153/11/65
f 154/12/66 13/11/65 14/12/66
f 156/13/68 1/13/67 155/13/67
f 1/13/67 156/13/68 3/13/68
f 8/14/70 157/14/69 6/14/69
f 157/14/69 8/14/70 158/14/70
f 9/12/71 160/11/72 159/12/71
f 160/11/72 9/12/71 10/11/72
f 10/11/72 156/13/68 160/11/72
f 156/13/68 10/11/72 3/13/68
f 1/13/67 153/11/65 155/13/67
f 153/11/65 1/13/67 13/11/65
f 6/14/69 154/12/66 14/12/66
f 154/12/66 6/14/69 157/14/69
f 9/12/71 158/14/70 8/14/70
f 158/14/70 9/12/71 159/12/71
f 159/12/73 157/14/73 158/14/73
f 157/14/73 159/12/73 154/12/73
f 154/12/73 159/12/73 160/11/73
f 154/12/73 160/11/73 153/11/73
f 153/11/73 160/11/73 156/13/73
f 153/11/73 156/13/73 155/13/73
f 29/11/74 162/12/75 161/11/74
f 162/12/75 29/11/74 30/12/75
f 164/13/77 17/13/76 163/13/76
f 17/13/76 164/13/77 19/13/77
f 24/14/79 165/14/78 22/14/78
f 165/14/78 24/14/79 166/14/79
f 25/12/80 168/11/81 167/12/80
f 168/11/81 25/12/80 26/11/81
f 26/11/81 164/13/77 168/11/81
f 164/13/77 26/11/81 19/13/77
f 17/13/76 161/11/74 163/13/76
f 161/11/74 17/13/76 29/11/74
f 22/14/78 162/12/75 30/12/75
f 162/12/75 22/14/78 165/14/78
f 25/12/80 166/14/79 24/14/79
f 166/14/79 25/12/80 167/12/80
f 167/12/82 165/14/82 166/14/82
f 165/14/82 167/12/82 162/12/82
f 162/12/82 167/12/82 168/11/82
f 162/12/82 168/11/82 161/11/82
f 161/11/82 168/11/82 164/13/82
f 161/11/82 164/13/82 163/13/82

