# Created by Kenney (www.kenney.nl)

mtllib sign-wide-barrier.mtl

g sign-wide-barrier

v 0.975 0.5 0.1585937 1 1 1
v 0.975 0.5 0.2085938 1 1 1
v -0.975 0.5 0.1585937 1 1 1
v -0.975 0.5 0.2085938 1 1 1
v 0.975 0.04999998 0.2085938 1 1 1
v 0.975 0.04999998 0.1585937 1 1 1
v -0.975 0.04999998 0.2085938 1 1 1
v -0.975 0.04999998 0.1585937 1 1 1
v -1 0.07499999 0.1585937 1 1 1
v -1 0.475 0.1585937 1 1 1
v -1 0.07499999 0.2085938 1 1 1
v -1 0.475 0.2085938 1 1 1
v 1 0.475 0.1585937 1 1 1
v 1 0.07499999 0.1585937 1 1 1
v 1 0.475 0.2085938 1 1 1
v 1 0.07499999 0.2085938 1 1 1
v 0.78125 0.35 -0.03125 1 1 1
v 0.78125 0.2875 -0.0625 1 1 1
v 0.8125 0.2875 -0.03125 1 1 1
v 0.6875 0.2875 0.03125 1 1 1
v 0.71875 0.35 0.03125 1 1 1
v 0.71875 0.2875 0.0625 1 1 1
v 0.6875 0.2875 -0.03125 1 1 1
v 0.71875 0.2875 -0.0625 1 1 1
v 0.71875 0.35 -0.03125 1 1 1
v 0.78125 0.35 0.03125 1 1 1
v 0.8125 0.2875 0.03125 1 1 1
v 0.78125 0.2875 0.0625 1 1 1
v 0.828125 0 0.0390625 1 1 1
v 0.7890625 0 0.078125 1 1 1
v 0.78125 0.5 0.03125 1 1 1
v 0.71875 0.5 0.03125 1 1 1
v 0.7109375 0 -0.078125 1 1 1
v 0.7890625 0 -0.078125 1 1 1
v 0.671875 0 0.0390625 1 1 1
v 0.7109375 0 0.078125 1 1 1
v 0.828125 0 -0.0390625 1 1 1
v 0.671875 0 -0.0390625 1 1 1
v 0.71875 0.5 -0.03125 1 1 1
v 0.78125 0.5 -0.03125 1 1 1
v -0.71875 0.35 -0.03125 1 1 1
v -0.71875 0.2875 -0.0625 1 1 1
v -0.6875 0.2875 -0.03125 1 1 1
v -0.8125 0.2875 0.03125 1 1 1
v -0.78125 0.35 0.03125 1 1 1
v -0.78125 0.2875 0.0625 1 1 1
v -0.8125 0.2875 -0.03125 1 1 1
v -0.78125 0.2875 -0.0625 1 1 1
v -0.78125 0.35 -0.03125 1 1 1
v -0.71875 0.35 0.03125 1 1 1
v -0.6875 0.2875 0.03125 1 1 1
v -0.71875 0.2875 0.0625 1 1 1
v -0.671875 0 0.0390625 1 1 1
v -0.7109375 0 0.078125 1 1 1
v -0.71875 0.5 0.03125 1 1 1
v -0.78125 0.5 0.03125 1 1 1
v -0.7890625 0 -0.078125 1 1 1
v -0.7109375 0 -0.078125 1 1 1
v -0.828125 0 0.0390625 1 1 1
v -0.7890625 0 0.078125 1 1 1
v -0.671875 0 -0.0390625 1 1 1
v -0.828125 0 -0.0390625 1 1 1
v -0.78125 0.5 -0.03125 1 1 1
v -0.71875 0.5 -0.03125 1 1 1
v 0.03125 0.35 -0.03125 1 1 1
v 0.03125 0.2875 -0.0625 1 1 1
v 0.0625 0.2875 -0.03125 1 1 1
v -0.0625 0.2875 0.03125 1 1 1
v -0.03125 0.35 0.03125 1 1 1
v -0.03125 0.2875 0.0625 1 1 1
v -0.0625 0.2875 -0.03125 1 1 1
v -0.03125 0.2875 -0.0625 1 1 1
v -0.03125 0.35 -0.03125 1 1 1
v 0.03125 0.35 0.03125 1 1 1
v 0.0625 0.2875 0.03125 1 1 1
v 0.03125 0.2875 0.0625 1 1 1
v 0.078125 0 0.0390625 1 1 1
v 0.0390625 0 0.078125 1 1 1
v 0.03125 0.5 0.03125 1 1 1
v -0.03125 0.5 0.03125 1 1 1
v -0.0390625 0 -0.078125 1 1 1
v 0.0390625 0 -0.078125 1 1 1
v -0.078125 0 0.0390625 1 1 1
v -0.0390625 0 0.078125 1 1 1
v 0.078125 0 -0.0390625 1 1 1
v -0.078125 0 -0.0390625 1 1 1
v -0.03125 0.5 -0.03125 1 1 1
v 0.03125 0.5 -0.03125 1 1 1
v -0.8085938 0.35 -0.02734375 1 1 1
v -0.8085938 0.4375 -0.02734375 1 1 1
v -0.8085938 0.35 0.02734375 1 1 1
v -0.8085938 0.4375 0.02734375 1 1 1
v -0.7226563 0.35 0.05859375 1 1 1
v -0.7773438 0.35 0.05859375 1 1 1
v -0.7226563 0.4375 0.05859375 1 1 1
v -0.7773438 0.4375 0.05859375 1 1 1
v -0.6914063 0.35 0.02734375 1 1 1
v -0.6914063 0.4375 0.02734375 1 1 1
v -0.6914063 0.35 -0.02734375 1 1 1
v -0.7226563 0.35 -0.05859375 1 1 1
v -0.7773438 0.35 -0.05859375 1 1 1
v -0.7773438 0.4375 -0.05859375 1 1 1
v -0.6914063 0.4375 -0.02734375 1 1 1
v -0.7226563 0.4375 -0.05859375 1 1 1
v 0.6914063 0.35 -0.02734375 1 1 1
v 0.6914063 0.4375 -0.02734375 1 1 1
v 0.6914063 0.35 0.02734375 1 1 1
v 0.6914063 0.4375 0.02734375 1 1 1
v 0.7773438 0.35 0.05859375 1 1 1
v 0.7226563 0.35 0.05859375 1 1 1
v 0.7773438 0.4375 0.05859375 1 1 1
v 0.7226563 0.4375 0.05859375 1 1 1
v 0.8085938 0.35 0.02734375 1 1 1
v 0.8085938 0.4375 0.02734375 1 1 1
v 0.8085938 0.35 -0.02734375 1 1 1
v 0.7773438 0.35 -0.05859375 1 1 1
v 0.7226563 0.35 -0.05859375 1 1 1
v 0.7226563 0.4375 -0.05859375 1 1 1
v 0.8085938 0.4375 -0.02734375 1 1 1
v 0.7773438 0.4375 -0.05859375 1 1 1
v -0.05859375 0.35 -0.02734375 1 1 1
v -0.05859375 0.4375 -0.02734375 1 1 1
v -0.05859375 0.35 0.02734375 1 1 1
v -0.05859375 0.4375 0.02734375 1 1 1
v 0.02734375 0.35 0.05859375 1 1 1
v -0.02734375 0.35 0.05859375 1 1 1
v 0.02734375 0.4375 0.05859375 1 1 1
v -0.02734375 0.4375 0.05859375 1 1 1
v 0.05859375 0.35 0.02734375 1 1 1
v 0.05859375 0.4375 0.02734375 1 1 1
v 0.05859375 0.35 -0.02734375 1 1 1
v 0.02734375 0.35 -0.05859375 1 1 1
v -0.02734375 0.35 -0.05859375 1 1 1
v -0.02734375 0.4375 -0.05859375 1 1 1
v 0.05859375 0.4375 -0.02734375 1 1 1
v 0.02734375 0.4375 -0.05859375 1 1 1
v 1 0.475 0.05859375 1 1 1
v 1 0.07499999 0.05859375 1 1 1
v 0.975 0.5 0.05859375 1 1 1
v -0.975 0.5 0.05859375 1 1 1
v 0.975 0.04999998 0.05859375 1 1 1
v -0.975 0.04999998 0.05859375 1 1 1
v -1 0.07499999 0.05859375 1 1 1
v -1 0.475 0.05859375 1 1 1

vn 0.3826834 0.9238795 0
vn -0.3826834 0.9238795 0
vn 0.3826834 -0.9238795 0
vn -0.3826834 -0.9238795 0
vn -0.9238795 -0.3826834 0
vn -0.9238795 0.3826834 0
vn 0.9238795 0.3826834 0
vn 0.9238795 -0.3826834 0
vn 0 0 1
vn 0.5997861 0.5296351 -0.5997861
vn 0.315808 0.4243266 -0.8486531
vn 0.8486531 0.4243266 -0.315808
vn -0.8486531 0.4243266 0.315808
vn -0.5997861 0.5296351 0.5997861
vn -0.315808 0.4243266 0.8486531
vn -0.8486531 0.4243266 -0.315808
vn -0.315808 0.4243266 -0.8486531
vn -0.5997861 0.5296351 -0.5997861
vn 0.5997861 0.5296351 0.5997861
vn 0.8486531 0.4243266 0.315808
vn 0.315808 0.4243266 0.8486531
vn 0.9217949 0.06050319 0.3829277
vn 0.3829277 0.06050319 0.9217949
vn 0.9225959 0.0604942 0.380995
vn 0.380995 0.0604942 0.9225959
vn 0.7071068 0 0.7071068
vn -0.7071068 0 0.7071068
vn -0.3829277 0.06050319 -0.9217949
vn 0.3829277 0.06050319 -0.9217949
vn -0.380995 0.0604942 -0.9225959
vn 0.380995 0.0604942 -0.9225959
vn -0.9225959 0.0604942 0.380995
vn -0.380995 0.0604942 0.9225959
vn -0.9217949 0.06050319 0.3829277
vn -0.3829277 0.06050319 0.9217949
vn 0 -1 0
vn -0.9217949 0.06050319 -0.3829277
vn -0.9225959 0.0604942 -0.380995
vn -0.7071068 0 -0.7071068
vn 0.7071068 0 -0.7071068
vn 0.9217949 0.06050319 -0.3829277
vn 0.9225959 0.0604942 -0.380995
vn 0 1 0
vn -0.9238795 0 -0.3826834
vn -0.9238795 0 0.3826834
vn 0.3826834 0 0.9238795
vn -0.3826834 0 0.9238795
vn 0.9238795 0 0.3826834
vn -0.3826834 0 -0.9238795
vn 0.9238795 0 -0.3826834
vn 0.3826834 0 -0.9238795
vn 0.9238796 0.3826835 0
vn 0.9238796 -0.3826835 0
vn 0.3826835 0.9238796 0
vn -0.3826835 0.9238796 0
vn 0.3826835 -0.9238796 0
vn -0.3826835 -0.9238796 0
vn -0.9238796 -0.3826835 0
vn -0.9238796 0.3826835 0
vn 0 0 -1

vt 0.34375 0.225
vt 0.34375 0.1125
vt 0.34375 0.11875
vt 0.34375 0.21875
vt 0.46875 0.085
vt 0.46875 0.11
vt 0.46875 0.225
vt 0.46875 0.025
vt 0.46875 0.075
vt 0.46875 0.175
vt 0.21875 0.171875
vt 0.21875 0.121875
vt 0.21875 0.175
vt 0.21875 0.11875

usemtl colormap

f 3/1/2 2/1/1 1/1/1
f 2/1/1 3/1/2 4/1/2
f 7/2/4 6/2/3 5/2/3
f 6/2/3 7/2/4 8/2/4
f 11/3/5 10/4/6 9/3/5
f 10/4/6 11/3/5 12/4/6
f 15/4/7 14/3/8 13/4/7
f 14/3/8 15/4/7 16/3/8
f 1/1/1 15/4/7 13/4/7
f 15/4/7 1/1/1 2/1/1
f 7/2/4 9/3/5 8/2/4
f 9/3/5 7/2/4 11/3/5
f 10/4/6 4/1/2 3/1/2
f 4/1/2 10/4/6 12/4/6
f 16/3/8 6/2/3 14/3/8
f 6/2/3 16/3/8 5/2/3
f 16/3/9 7/2/9 5/2/9
f 7/2/9 16/3/9 11/3/9
f 11/3/9 16/3/9 15/4/9
f 11/3/9 15/4/9 12/4/9
f 12/4/9 15/4/9 2/1/9
f 12/4/9 2/1/9 4/1/9
f 19/6/12 18/6/11 17/5/10
f 22/6/15 21/5/14 20/6/13
f 25/5/18 24/6/17 23/6/16
f 28/6/21 27/6/20 26/5/19
f 27/6/24 30/7/23 29/7/22
f 30/7/23 27/6/24 28/6/25
f 31/8/26 21/5/27 26/5/26
f 21/5/27 31/8/26 32/8/27
f 24/6/30 34/7/29 33/7/28
f 34/7/29 24/6/30 18/6/31
f 25/5/18 18/6/11 24/6/17
f 18/6/11 25/5/18 17/5/10
f 35/7/34 22/6/33 20/6/32
f 22/6/33 35/7/34 36/7/35
f 30/7/36 37/7/36 29/7/36
f 37/7/36 30/7/36 34/7/36
f 34/7/36 30/7/36 36/7/36
f 34/7/36 36/7/36 33/7/36
f 33/7/36 36/7/36 35/7/36
f 33/7/36 35/7/36 38/7/36
f 20/6/13 25/5/18 23/6/16
f 25/5/18 20/6/13 21/5/14
f 38/7/37 24/6/30 33/7/28
f 24/6/30 38/7/37 23/6/38
f 26/5/19 22/6/15 28/6/21
f 22/6/15 26/5/19 21/5/14
f 28/6/25 36/7/35 30/7/23
f 36/7/35 28/6/25 22/6/33
f 39/8/39 17/5/40 25/5/39
f 17/5/40 39/8/39 40/8/40
f 31/8/26 17/5/40 40/8/40
f 17/5/40 31/8/26 26/5/26
f 18/6/31 37/7/41 34/7/29
f 37/7/41 18/6/31 19/6/42
f 35/7/34 23/6/38 38/7/37
f 23/6/38 35/7/34 20/6/32
f 19/6/42 29/7/22 37/7/41
f 29/7/22 19/6/42 27/6/24
f 39/8/43 31/8/43 40/8/43
f 31/8/43 39/8/43 32/8/43
f 21/5/27 39/8/39 25/5/39
f 39/8/39 21/5/27 32/8/27
f 26/5/19 19/6/12 17/5/10
f 19/6/12 26/5/19 27/6/20
f 43/6/12 42/6/11 41/5/10
f 46/6/15 45/5/14 44/6/13
f 49/5/18 48/6/17 47/6/16
f 52/6/21 51/6/20 50/5/19
f 51/6/24 54/7/23 53/7/22
f 54/7/23 51/6/24 52/6/25
f 55/8/26 45/5/27 50/5/26
f 45/5/27 55/8/26 56/8/27
f 48/6/30 58/7/29 57/7/28
f 58/7/29 48/6/30 42/6/31
f 49/5/18 42/6/11 48/6/17
f 42/6/11 49/5/18 41/5/10
f 59/7/34 46/6/33 44/6/32
f 46/6/33 59/7/34 60/7/35
f 54/7/36 61/7/36 53/7/36
f 61/7/36 54/7/36 58/7/36
f 58/7/36 54/7/36 60/7/36
f 58/7/36 60/7/36 57/7/36
f 57/7/36 60/7/36 59/7/36
f 57/7/36 59/7/36 62/7/36
f 44/6/13 49/5/18 47/6/16
f 49/5/18 44/6/13 45/5/14
f 62/7/37 48/6/30 57/7/28
f 48/6/30 62/7/37 47/6/38
f 50/5/19 46/6/15 52/6/21
f 46/6/15 50/5/19 45/5/14
f 52/6/25 60/7/35 54/7/23
f 60/7/35 52/6/25 46/6/33
f 63/8/39 41/5/40 49/5/39
f 41/5/40 63/8/39 64/8/40
f 55/8/26 41/5/40 64/8/40
f 41/5/40 55/8/26 50/5/26
f 42/6/31 61/7/41 58/7/29
f 61/7/41 42/6/31 43/6/42
f 59/7/34 47/6/38 62/7/37
f 47/6/38 59/7/34 44/6/32
f 43/6/42 53/7/22 61/7/41
f 53/7/22 43/6/42 51/6/24
f 63/8/43 55/8/43 64/8/43
f 55/8/43 63/8/43 56/8/43
f 45/5/27 63/8/39 49/5/39
f 63/8/39 45/5/27 56/8/27
f 50/5/19 43/6/12 41/5/10
f 43/6/12 50/5/19 51/6/20
f 67/6/12 66/6/11 65/5/10
f 70/6/15 69/5/14 68/6/13
f 73/5/18 72/6/17 71/6/16
f 76/6/21 75/6/20 74/5/19
f 75/6/24 78/7/23 77/7/22
f 78/7/23 75/6/24 76/6/25
f 79/8/26 69/5/27 74/5/26
f 69/5/27 79/8/26 80/8/27
f 72/6/30 82/7/29 81/7/28
f 82/7/29 72/6/30 66/6/31
f 73/5/18 66/6/11 72/6/17
f 66/6/11 73/5/18 65/5/10
f 83/7/34 70/6/33 68/6/32
f 70/6/33 83/7/34 84/7/35
f 78/7/36 85/7/36 77/7/36
f 85/7/36 78/7/36 82/7/36
f 82/7/36 78/7/36 84/7/36
f 82/7/36 84/7/36 81/7/36
f 81/7/36 84/7/36 83/7/36
f 81/7/36 83/7/36 86/7/36
f 68/6/13 73/5/18 71/6/16
f 73/5/18 68/6/13 69/5/14
f 86/7/37 72/6/30 81/7/28
f 72/6/30 86/7/37 71/6/38
f 74/5/19 70/6/15 76/6/21
f 70/6/15 74/5/19 69/5/14
f 76/6/25 84/7/35 78/7/23
f 84/7/35 76/6/25 70/6/33
f 87/8/39 65/5/40 73/5/39
f 65/5/40 87/8/39 88/8/40
f 79/8/26 65/5/40 88/8/40
f 65/5/40 79/8/26 74/5/26
f 66/6/31 85/7/41 82/7/29
f 85/7/41 66/6/31 67/6/42
f 83/7/34 71/6/38 86/7/37
f 71/6/38 83/7/34 68/6/32
f 67/6/42 77/7/22 85/7/41
f 77/7/22 67/6/42 75/6/24
f 87/8/43 79/8/43 88/8/43
f 79/8/43 87/8/43 80/8/43
f 69/5/27 87/8/39 73/5/39
f 87/8/39 69/5/27 80/8/27
f 74/5/19 67/6/12 65/5/10
f 67/6/12 74/5/19 75/6/20
f 91/9/45 90/10/44 89/9/44
f 90/10/44 91/9/45 92/10/45
f 95/10/46 94/9/47 93/9/46
f 94/9/47 95/10/46 96/10/47
f 98/10/48 93/9/46 97/9/48
f 93/9/46 98/10/48 95/10/46
f 93/9/36 99/9/36 97/9/36
f 99/9/36 93/9/36 100/9/36
f 100/9/36 93/9/36 94/9/36
f 100/9/36 94/9/36 101/9/36
f 101/9/36 94/9/36 91/9/36
f 101/9/36 91/9/36 89/9/36
f 90/10/44 101/9/49 89/9/44
f 101/9/49 90/10/44 102/10/49
f 96/10/47 91/9/45 94/9/47
f 91/9/45 96/10/47 92/10/45
f 98/10/48 99/9/50 103/10/50
f 99/9/50 98/10/48 97/9/48
f 102/10/49 100/9/51 101/9/49
f 100/9/51 102/10/49 104/10/51
f 104/10/43 98/10/43 103/10/43
f 98/10/43 104/10/43 95/10/43
f 95/10/43 104/10/43 102/10/43
f 95/10/43 102/10/43 96/10/43
f 96/10/43 102/10/43 90/10/43
f 96/10/43 90/10/43 92/10/43
f 104/10/51 99/9/50 100/9/51
f 99/9/50 104/10/51 103/10/50
f 107/9/45 106/10/44 105/9/44
f 106/10/44 107/9/45 108/10/45
f 111/10/46 110/9/47 109/9/46
f 110/9/47 111/10/46 112/10/47
f 114/10/48 109/9/46 113/9/48
f 109/9/46 114/10/48 111/10/46
f 109/9/36 115/9/36 113/9/36
f 115/9/36 109/9/36 116/9/36
f 116/9/36 109/9/36 110/9/36
f 116/9/36 110/9/36 117/9/36
f 117/9/36 110/9/36 107/9/36
f 117/9/36 107/9/36 105/9/36
f 106/10/44 117/9/49 105/9/44
f 117/9/49 106/10/44 118/10/49
f 112/10/47 107/9/45 110/9/47
f 107/9/45 112/10/47 108/10/45
f 114/10/48 115/9/50 119/10/50
f 115/9/50 114/10/48 113/9/48
f 118/10/49 116/9/51 117/9/49
f 116/9/51 118/10/49 120/10/51
f 120/10/43 114/10/43 119/10/43
f 114/10/43 120/10/43 111/10/43
f 111/10/43 120/10/43 118/10/43
f 111/10/43 118/10/43 112/10/43
f 112/10/43 118/10/43 106/10/43
f 112/10/43 106/10/43 108/10/43
f 120/10/51 115/9/50 116/9/51
f 115/9/50 120/10/51 119/10/50
f 123/9/45 122/10/44 121/9/44
f 122/10/44 123/9/45 124/10/45
f 127/10/46 126/9/47 125/9/46
f 126/9/47 127/10/46 128/10/47
f 130/10/48 125/9/46 129/9/48
f 125/9/46 130/10/48 127/10/46
f 125/9/36 131/9/36 129/9/36
f 131/9/36 125/9/36 132/9/36
f 132/9/36 125/9/36 126/9/36
f 132/9/36 126/9/36 133/9/36
f 133/9/36 126/9/36 123/9/36
f 133/9/36 123/9/36 121/9/36
f 122/10/44 133/9/49 121/9/44
f 133/9/49 122/10/44 134/10/49
f 128/10/47 123/9/45 126/9/47
f 123/9/45 128/10/47 124/10/45
f 130/10/48 131/9/50 135/10/50
f 131/9/50 130/10/48 129/9/48
f 134/10/49 132/9/51 133/9/49
f 132/9/51 134/10/49 136/10/51
f 136/10/43 130/10/43 135/10/43
f 130/10/43 136/10/43 127/10/43
f 127/10/43 136/10/43 134/10/43
f 127/10/43 134/10/43 128/10/43
f 128/10/43 134/10/43 122/10/43
f 128/10/43 122/10/43 124/10/43
f 136/10/51 131/9/50 132/9/51
f 131/9/50 136/10/51 135/10/50
f 13/11/52 138/12/53 137/11/52
f 138/12/53 13/11/52 14/12/53
f 140/13/55 1/13/54 139/13/54
f 1/13/54 140/13/55 3/13/55
f 8/14/57 141/14/56 6/14/56
f 141/14/56 8/14/57 142/14/57
f 9/12/58 144/11/59 143/12/58
f 144/11/59 9/12/58 10/11/59
f 10/11/59 140/13/55 144/11/59
f 140/13/55 10/11/59 3/13/55
f 1/13/54 137/11/52 139/13/54
f 137/11/52 1/13/54 13/11/52
f 6/14/56 138/12/53 14/12/53
f 138/12/53 6/14/56 141/14/56
f 9/12/58 142/14/57 8/14/57
f 142/14/57 9/12/58 143/12/58
f 143/12/60 141/14/60 142/14/60
f 141/14/60 143/12/60 138/12/60
f 138/12/60 143/12/60 144/11/60
f 138/12/60 144/11/60 137/11/60
f 137/11/60 144/11/60 140/13/60
f 137/11/60 140/13/60 139/13/60

g sign-wide-barrier




usemtl colormap

f 3/1/2 2/1/1 1/1/1
f 2/1/1 3/1/2 4/1/2
f 7/2/4 6/2/3 5/2/3
f 6/2/3 7/2/4 8/2/4
f 11/3/5 10/4/6 9/3/5
f 10/4/6 11/3/5 12/4/6
f 15/4/7 14/3/8 13/4/7
f 14/3/8 15/4/7 16/3/8
f 1/1/1 15/4/7 13/4/7
f 15/4/7 1/1/1 2/1/1
f 7/2/4 9/3/5 8/2/4
f 9/3/5 7/2/4 11/3/5
f 10/4/6 4/1/2 3/1/2
f 4/1/2 10/4/6 12/4/6
f 16/3/8 6/2/3 14/3/8
f 6/2/3 16/3/8 5/2/3
f 16/3/9 7/2/9 5/2/9
f 7/2/9 16/3/9 11/3/9
f 11/3/9 16/3/9 15/4/9
f 11/3/9 15/4/9 12/4/9
f 12/4/9 15/4/9 2/1/9
f 12/4/9 2/1/9 4/1/9
f 19/6/12 18/6/11 17/5/10
f 22/6/15 21/5/14 20/6/13
f 25/5/18 24/6/17 23/6/16
f 28/6/21 27/6/20 26/5/19
f 27/6/24 30/7/23 29/7/22
f 30/7/23 27/6/24 28/6/25
f 31/8/26 21/5/27 26/5/26
f 21/5/27 31/8/26 32/8/27
f 24/6/30 34/7/29 33/7/28
f 34/7/29 24/6/30 18/6/31
f 25/5/18 18/6/11 24/6/17
f 18/6/11 25/5/18 17/5/10
f 35/7/34 22/6/33 20/6/32
f 22/6/33 35/7/34 36/7/35
f 30/7/36 37/7/36 29/7/36
f 37/7/36 30/7/36 34/7/36
f 34/7/36 30/7/36 36/7/36
f 34/7/36 36/7/36 33/7/36
f 33/7/36 36/7/36 35/7/36
f 33/7/36 35/7/36 38/7/36
f 20/6/13 25/5/18 23/6/16
f 25/5/18 20/6/13 21/5/14
f 38/7/37 24/6/30 33/7/28
f 24/6/30 38/7/37 23/6/38
f 26/5/19 22/6/15 28/6/21
f 22/6/15 26/5/19 21/5/14
f 28/6/25 36/7/35 30/7/23
f 36/7/35 28/6/25 22/6/33
f 39/8/39 17/5/40 25/5/39
f 17/5/40 39/8/39 40/8/40
f 31/8/26 17/5/40 40/8/40
f 17/5/40 31/8/26 26/5/26
f 18/6/31 37/7/41 34/7/29
f 37/7/41 18/6/31 19/6/42
f 35/7/34 23/6/38 38/7/37
f 23/6/38 35/7/34 20/6/32
f 19/6/42 29/7/22 37/7/41
f 29/7/22 19/6/42 27/6/24
f 39/8/43 31/8/43 40/8/43
f 31/8/43 39/8/43 32/8/43
f 21/5/27 39/8/39 25/5/39
f 39/8/39 21/5/27 32/8/27
f 26/5/19 19/6/12 17/5/10
f 19/6/12 26/5/19 27/6/20
f 43/6/12 42/6/11 41/5/10
f 46/6/15 45/5/14 44/6/13
f 49/5/18 48/6/17 47/6/16
f 52/6/21 51/6/20 50/5/19
f 51/6/24 54/7/23 53/7/22
f 54/7/23 51/6/24 52/6/25
f 55/8/26 45/5/27 50/5/26
f 45/5/27 55/8/26 56/8/27
f 48/6/30 58/7/29 57/7/28
f 58/7/29 48/6/30 42/6/31
f 49/5/18 42/6/11 48/6/17
f 42/6/11 49/5/18 41/5/10
f 59/7/34 46/6/33 44/6/32
f 46/6/33 59/7/34 60/7/35
f 54/7/36 61/7/36 53/7/36
f 61/7/36 54/7/36 58/7/36
f 58/7/36 54/7/36 60/7/36
f 58/7/36 60/7/36 57/7/36
f 57/7/36 60/7/36 59/7/36
f 57/7/36 59/7/36 62/7/36
f 44/6/13 49/5/18 47/6/16
f 49/5/18 44/6/13 45/5/14
f 62/7/37 48/6/30 57/7/28
f 48/6/30 62/7/37 47/6/38
f 50/5/19 46/6/15 52/6/21
f 46/6/15 50/5/19 45/5/14
f 52/6/25 60/7/35 54/7/23
f 60/7/35 52/6/25 46/6/33
f 63/8/39 41/5/40 49/5/39
f 41/5/40 63/8/39 64/8/40
f 55/8/26 41/5/40 64/8/40
f 41/5/40 55/8/26 50/5/26
f 42/6/31 61/7/41 58/7/29
f 61/7/41 42/6/31 43/6/42
f 59/7/34 47/6/38 62/7/37
f 47/6/38 59/7/34 44/6/32
f 43/6/42 53/7/22 61/7/41
f 53/7/22 43/6/42 51/6/24
f 63/8/43 55/8/43 64/8/43
f 55/8/43 63/8/43 56/8/43
f 45/5/27 63/8/39 49/5/39
f 63/8/39 45/5/27 56/8/27
f 50/5/19 43/6/12 41/5/10
f 43/6/12 50/5/19 51/6/20
f 67/6/12 66/6/11 65/5/10
f 70/6/15 69/5/14 68/6/13
f 73/5/18 72/6/17 71/6/16
f 76/6/21 75/6/20 74/5/19
f 75/6/24 78/7/23 77/7/22
f 78/7/23 75/6/24 76/6/25
f 79/8/26 69/5/27 74/5/26
f 69/5/27 79/8/26 80/8/27
f 72/6/30 82/7/29 81/7/28
f 82/7/29 72/6/30 66/6/31
f 73/5/18 66/6/11 72/6/17
f 66/6/11 73/5/18 65/5/10
f 83/7/34 70/6/33 68/6/32
f 70/6/33 83/7/34 84/7/35
f 78/7/36 85/7/36 77/7/36
f 85/7/36 78/7/36 82/7/36
f 82/7/36 78/7/36 84/7/36
f 82/7/36 84/7/36 81/7/36
f 81/7/36 84/7/36 83/7/36
f 81/7/36 83/7/36 86/7/36
f 68/6/13 73/5/18 71/6/16
f 73/5/18 68/6/13 69/5/14
f 86/7/37 72/6/30 81/7/28
f 72/6/30 86/7/37 71/6/38
f 74/5/19 70/6/15 76/6/21
f 70/6/15 74/5/19 69/5/14
f 76/6/25 84/7/35 78/7/23
f 84/7/35 76/6/25 70/6/33
f 87/8/39 65/5/40 73/5/39
f 65/5/40 87/8/39 88/8/40
f 79/8/26 65/5/40 88/8/40
f 65/5/40 79/8/26 74/5/26
f 66/6/31 85/7/41 82/7/29
f 85/7/41 66/6/31 67/6/42
f 83/7/34 71/6/38 86/7/37
f 71/6/38 83/7/34 68/6/32
f 67/6/42 77/7/22 85/7/41
f 77/7/22 67/6/42 75/6/24
f 87/8/43 79/8/43 88/8/43
f 79/8/43 87/8/43 80/8/43
f 69/5/27 87/8/39 73/5/39
f 87/8/39 69/5/27 80/8/27
f 74/5/19 67/6/12 65/5/10
f 67/6/12 74/5/19 75/6/20
f 91/9/45 90/10/44 89/9/44
f 90/10/44 91/9/45 92/10/45
f 95/10/46 94/9/47 93/9/46
f 94/9/47 95/10/46 96/10/47
f 98/10/48 93/9/46 97/9/48
f 93/9/46 98/10/48 95/10/46
f 93/9/36 99/9/36 97/9/36
f 99/9/36 93/9/36 100/9/36
f 100/9/36 93/9/36 94/9/36
f 100/9/36 94/9/36 101/9/36
f 101/9/36 94/9/36 91/9/36
f 101/9/36 91/9/36 89/9/36
f 90/10/44 101/9/49 89/9/44
f 101/9/49 90/10/44 102/10/49
f 96/10/47 91/9/45 94/9/47
f 91/9/45 96/10/47 92/10/45
f 98/10/48 99/9/50 103/10/50
f 99/9/50 98/10/48 97/9/48
f 102/10/49 100/9/51 101/9/49
f 100/9/51 102/10/49 104/10/51
f 104/10/43 98/10/43 103/10/43
f 98/10/43 104/10/43 95/10/43
f 95/10/43 104/10/43 102/10/43
f 95/10/43 102/10/43 96/10/43
f 96/10/43 102/10/43 90/10/43
f 96/10/43 90/10/43 92/10/43
f 104/10/51 99/9/50 100/9/51
f 99/9/50 104/10/51 103/10/50
f 107/9/45 106/10/44 105/9/44
f 106/10/44 107/9/45 108/10/45
f 111/10/46 110/9/47 109/9/46
f 110/9/47 111/10/46 112/10/47
f 114/10/48 109/9/46 113/9/48
f 109/9/46 114/10/48 111/10/46
f 109/9/36 115/9/36 113/9/36
f 115/9/36 109/9/36 116/9/36
f 116/9/36 109/9/36 110/9/36
f 116/9/36 110/9/36 117/9/36
f 117/9/36 110/9/36 107/9/36
f 117/9/36 107/9/36 105/9/36
f 106/10/44 117/9/49 105/9/44
f 117/9/49 106/10/44 118/10/49
f 112/10/47 107/9/45 110/9/47
f 107/9/45 112/10/47 108/10/45
f 114/10/48 115/9/50 119/10/50
f 115/9/50 114/10/48 113/9/48
f 118/10/49 116/9/51 117/9/49
f 116/9/51 118/10/49 120/10/51
f 120/10/43 114/10/43 119/10/43
f 114/10/43 120/10/43 111/10/43
f 111/10/43 120/10/43 118/10/43
f 111/10/43 118/10/43 112/10/43
f 112/10/43 118/10/43 106/10/43
f 112/10/43 106/10/43 108/10/43
f 120/10/51 115/9/50 116/9/51
f 115/9/50 120/10/51 119/10/50
f 123/9/45 122/10/44 121/9/44
f 122/10/44 123/9/45 124/10/45
f 127/10/46 126/9/47 125/9/46
f 126/9/47 127/10/46 128/10/47
f 130/10/48 125/9/46 129/9/48
f 125/9/46 130/10/48 127/10/46
f 125/9/36 131/9/36 129/9/36
f 131/9/36 125/9/36 132/9/36
f 132/9/36 125/9/36 126/9/36
f 132/9/36 126/9/36 133/9/36
f 133/9/36 126/9/36 123/9/36
f 133/9/36 123/9/36 121/9/36
f 122/10/44 133/9/49 121/9/44
f 133/9/49 122/10/44 134/10/49
f 128/10/47 123/9/45 126/9/47
f 123/9/45 128/10/47 124/10/45
f 130/10/48 131/9/50 135/10/50
f 131/9/50 130/10/48 129/9/48
f 134/10/49 132/9/51 133/9/49
f 132/9/51 134/10/49 136/10/51
f 136/10/43 130/10/43 135/10/43
f 130/10/43 136/10/43 127/10/43
f 127/10/43 136/10/43 134/10/43
f 127/10/43 134/10/43 128/10/43
f 128/10/43 134/10/43 122/10/43
f 128/10/43 122/10/43 124/10/43
f 136/10/51 131/9/50 132/9/51
f 131/9/50 136/10/51 135/10/50
f 13/11/52 138/12/53 137/11/52
f 138/12/53 13/11/52 14/12/53
f 140/13/55 1/13/54 139/13/54
f 1/13/54 140/13/55 3/13/55
f 8/14/57 141/14/56 6/14/56
f 141/14/56 8/14/57 142/14/57
f 9/12/58 144/11/59 143/12/58
f 144/11/59 9/12/58 10/11/59
f 10/11/59 140/13/55 144/11/59
f 140/13/55 10/11/59 3/13/55
f 1/13/54 137/11/52 139/13/54
f 137/11/52 1/13/54 13/11/52
f 6/14/56 138/12/53 14/12/53
f 138/12/53 6/14/56 141/14/56
f 9/12/58 142/14/57 8/14/57
f 142/14/57 9/12/58 143/12/58
f 143/12/60 141/14/60 142/14/60
f 141/14/60 143/12/60 138/12/60
f 138/12/60 143/12/60 144/11/60
f 138/12/60 144/11/60 137/11/60
f 137/11/60 144/11/60 140/13/60
f 137/11/60 140/13/60 139/13/60

