# Created by Kenney (www.kenney.nl)

mtllib tent-roof-large.mtl

g tent-roof-large

v 1.853125 1.2375 1.90625 1 1 1
v 1.853125 1.0875 1.90625 1 1 1
v -0.003125429 1.2375 1.90625 1 1 1
v -0.003125429 1.0875 1.90625 1 1 1
v 1.853125 1.0875 -1.90625 1 1 1
v 1.953125 1.0875 -1.80625 1 1 1
v 1.853125 1.2375 -1.90625 1 1 1
v 1.953125 1.2375 -1.80625 1 1 1
v -0.103125 1.0875 -1.80625 1 1 1
v -0.003124952 1.0875 -1.90625 1 1 1
v -0.103125 1.2375 -1.80625 1 1 1
v -0.003124952 1.2375 -1.90625 1 1 1
v -0.1031255 1.0875 1.80625 1 1 1
v -0.1031255 1.2375 1.80625 1 1 1
v 1.953125 1.0875 1.80625 1 1 1
v 1.953125 1.2375 1.80625 1 1 1
v -1.020313 1.9875 1.80625 1 1 1
v -1.853125 1.2375 1.90625 1 1 1
v -1.953125 1.2375 1.80625 1 1 1
v 0.1031249 1.2375 1.80625 1 1 1
v 0.003124893 1.2375 1.90625 1 1 1
v -0.8296877 1.9875 1.80625 1 1 1
v 0.1031254 1.2375 -1.80625 1 1 1
v -0.8296873 1.9875 -1.80625 1 1 1
v 0.00312537 1.2375 -1.90625 1 1 1
v -1.020312 1.9875 -1.80625 1 1 1
v -1.953125 1.2375 -1.80625 1 1 1
v -1.853125 1.2375 -1.90625 1 1 1
v 0.003124774 1.2375 1.90625 1 1 1
v 0.003124774 1.0875 1.90625 1 1 1
v -1.853125 1.2375 1.90625 1 1 1
v -1.853125 1.0875 1.90625 1 1 1
v 0.00312525 1.0875 -1.90625 1 1 1
v 0.1031252 1.0875 -1.80625 1 1 1
v 0.00312525 1.2375 -1.90625 1 1 1
v 0.1031252 1.2375 -1.80625 1 1 1
v -1.953125 1.0875 -1.80625 1 1 1
v -1.853125 1.0875 -1.90625 1 1 1
v -1.953125 1.2375 -1.80625 1 1 1
v -1.853125 1.2375 -1.90625 1 1 1
v -1.953125 1.0875 1.80625 1 1 1
v -1.953125 1.2375 1.80625 1 1 1
v 0.1031247 1.0875 1.80625 1 1 1
v 0.1031247 1.2375 1.80625 1 1 1
v 0.8296873 1.9875 1.80625 1 1 1
v -0.00312537 1.2375 1.90625 1 1 1
v -0.1031254 1.2375 1.80625 1 1 1
v 1.953125 1.2375 1.80625 1 1 1
v 1.853125 1.2375 1.90625 1 1 1
v 1.020312 1.9875 1.80625 1 1 1
v 1.953125 1.2375 -1.80625 1 1 1
v 1.020313 1.9875 -1.80625 1 1 1
v 1.853125 1.2375 -1.90625 1 1 1
v 0.8296877 1.9875 -1.80625 1 1 1
v -0.1031249 1.2375 -1.80625 1 1 1
v -0.003124893 1.2375 -1.90625 1 1 1
v 0.03125 0.35 0.03125001 1 1 1
v 0.0625 0.2875 0.03125001 1 1 1
v 0.03125 0.2875 0.06250001 1 1 1
v -0.03125 0.2875 -0.06250001 1 1 1
v -0.03125 0.35 -0.03125001 1 1 1
v -0.0625 0.2875 -0.03125001 1 1 1
v 0.03125001 0.2875 -0.0625 1 1 1
v 0.06250001 0.2875 -0.03125 1 1 1
v 0.03125001 0.35 -0.03125 1 1 1
v -0.03125001 0.35 0.03125 1 1 1
v -0.03125001 0.2875 0.0625 1 1 1
v -0.06250001 0.2875 0.03125 1 1 1
v -0.03906251 3.205931E-31 0.078125 1 1 1
v -0.07812501 3.205931E-31 0.03906249 1 1 1
v -0.03125001 1.0875 0.03125 1 1 1
v -0.03125 1.0875 -0.03125001 1 1 1
v 0.07812501 3.205931E-31 -0.03906249 1 1 1
v 0.078125 3.205931E-31 0.03906251 1 1 1
v -0.03906249 3.205931E-31 -0.07812501 1 1 1
v -0.078125 3.205931E-31 -0.03906251 1 1 1
v 0.03906249 3.205931E-31 0.07812501 1 1 1
v 0.03906251 3.205931E-31 -0.078125 1 1 1
v 0.03125001 1.0875 -0.03125 1 1 1
v 0.03125 1.0875 0.03125001 1 1 1
v 1.853125 0.35 0.03125001 1 1 1
v 1.884375 0.2875 0.03125001 1 1 1
v 1.853125 0.2875 0.06250001 1 1 1
v 1.790625 0.2875 -0.06250001 1 1 1
v 1.790625 0.35 -0.03125001 1 1 1
v 1.759375 0.2875 -0.03125001 1 1 1
v 1.853125 0.2875 -0.0625 1 1 1
v 1.884375 0.2875 -0.03125 1 1 1
v 1.853125 0.35 -0.03125 1 1 1
v 1.790625 0.35 0.03125 1 1 1
v 1.790625 0.2875 0.0625 1 1 1
v 1.759375 0.2875 0.03125 1 1 1
v 1.782812 0 0.078125 1 1 1
v 1.74375 0 0.03906249 1 1 1
v 1.790625 1.0875 0.03125 1 1 1
v 1.790625 1.0875 -0.03125001 1 1 1
v 1.9 0 -0.03906249 1 1 1
v 1.9 0 0.03906251 1 1 1
v 1.782812 0 -0.07812501 1 1 1
v 1.74375 0 -0.03906251 1 1 1
v 1.860937 0 0.07812501 1 1 1
v 1.860937 0 -0.078125 1 1 1
v 1.853125 1.0875 -0.03125 1 1 1
v 1.853125 1.0875 0.03125001 1 1 1
v 0.03125 0.35 -1.74375 1 1 1
v 0.0625 0.2875 -1.74375 1 1 1
v 0.03125 0.2875 -1.7125 1 1 1
v -0.03125 0.2875 -1.8375 1 1 1
v -0.03125 0.35 -1.80625 1 1 1
v -0.0625 0.2875 -1.80625 1 1 1
v 0.03125001 0.2875 -1.8375 1 1 1
v 0.06250001 0.2875 -1.80625 1 1 1
v 0.03125001 0.35 -1.80625 1 1 1
v -0.03125001 0.35 -1.74375 1 1 1
v -0.03125001 0.2875 -1.7125 1 1 1
v -0.06250001 0.2875 -1.74375 1 1 1
v -0.03906251 3.205931E-31 -1.696875 1 1 1
v -0.07812501 3.205931E-31 -1.735937 1 1 1
v -0.03125001 1.0875 -1.74375 1 1 1
v -0.03125 1.0875 -1.80625 1 1 1
v 0.07812501 3.205931E-31 -1.814062 1 1 1
v 0.078125 3.205931E-31 -1.735937 1 1 1
v -0.03906249 3.205931E-31 -1.853125 1 1 1
v -0.078125 3.205931E-31 -1.814062 1 1 1
v 0.03906249 3.205931E-31 -1.696875 1 1 1
v 0.03906251 3.205931E-31 -1.853125 1 1 1
v 0.03125001 1.0875 -1.80625 1 1 1
v 0.03125 1.0875 -1.74375 1 1 1
v 1.853125 0.35 1.80625 1 1 1
v 1.884375 0.2875 1.80625 1 1 1
v 1.853125 0.2875 1.8375 1 1 1
v 1.790625 0.2875 1.7125 1 1 1
v 1.790625 0.35 1.74375 1 1 1
v 1.759375 0.2875 1.74375 1 1 1
v 1.853125 0.2875 1.7125 1 1 1
v 1.884375 0.2875 1.74375 1 1 1
v 1.853125 0.35 1.74375 1 1 1
v 1.790625 0.35 1.80625 1 1 1
v 1.790625 0.2875 1.8375 1 1 1
v 1.759375 0.2875 1.80625 1 1 1
v 1.782812 0 1.853125 1 1 1
v 1.74375 0 1.814062 1 1 1
v 1.790625 1.0875 1.80625 1 1 1
v 1.790625 1.0875 1.74375 1 1 1
v 1.9 0 1.735937 1 1 1
v 1.9 0 1.814062 1 1 1
v 1.782812 0 1.696875 1 1 1
v 1.74375 0 1.735937 1 1 1
v 1.860937 0 1.853125 1 1 1
v 1.860937 0 1.696875 1 1 1
v 1.853125 1.0875 1.74375 1 1 1
v 1.853125 1.0875 1.80625 1 1 1
v 0.03125 0.35 1.80625 1 1 1
v 0.0625 0.2875 1.80625 1 1 1
v 0.03125 0.2875 1.8375 1 1 1
v -0.03125 0.2875 1.7125 1 1 1
v -0.03125 0.35 1.74375 1 1 1
v -0.0625 0.2875 1.74375 1 1 1
v 0.03125001 0.2875 1.7125 1 1 1
v 0.06250001 0.2875 1.74375 1 1 1
v 0.03125001 0.35 1.74375 1 1 1
v -0.03125001 0.35 1.80625 1 1 1
v -0.03125001 0.2875 1.8375 1 1 1
v -0.06250001 0.2875 1.80625 1 1 1
v -0.03906251 3.205931E-31 1.853125 1 1 1
v -0.07812501 3.205931E-31 1.814062 1 1 1
v -0.03125001 1.0875 1.80625 1 1 1
v -0.03125 1.0875 1.74375 1 1 1
v 0.07812501 3.205931E-31 1.735937 1 1 1
v 0.078125 3.205931E-31 1.814062 1 1 1
v -0.03906249 3.205931E-31 1.696875 1 1 1
v -0.078125 3.205931E-31 1.735937 1 1 1
v 0.03906249 3.205931E-31 1.853125 1 1 1
v 0.03906251 3.205931E-31 1.696875 1 1 1
v 0.03125001 1.0875 1.74375 1 1 1
v 0.03125 1.0875 1.80625 1 1 1
v 1.853125 0.35 -1.74375 1 1 1
v 1.884375 0.2875 -1.74375 1 1 1
v 1.853125 0.2875 -1.7125 1 1 1
v 1.790625 0.2875 -1.8375 1 1 1
v 1.790625 0.35 -1.80625 1 1 1
v 1.759375 0.2875 -1.80625 1 1 1
v 1.853125 0.2875 -1.8375 1 1 1
v 1.884375 0.2875 -1.80625 1 1 1
v 1.853125 0.35 -1.80625 1 1 1
v 1.790625 0.35 -1.74375 1 1 1
v 1.790625 0.2875 -1.7125 1 1 1
v 1.759375 0.2875 -1.74375 1 1 1
v 1.782812 0 -1.696875 1 1 1
v 1.74375 0 -1.735937 1 1 1
v 1.790625 1.0875 -1.74375 1 1 1
v 1.790625 1.0875 -1.80625 1 1 1
v 1.9 0 -1.814062 1 1 1
v 1.9 0 -1.735937 1 1 1
v 1.782812 0 -1.853125 1 1 1
v 1.74375 0 -1.814062 1 1 1
v 1.860937 0 -1.696875 1 1 1
v 1.860937 0 -1.853125 1 1 1
v 1.853125 1.0875 -1.80625 1 1 1
v 1.853125 1.0875 -1.74375 1 1 1
v -1.790625 0.35 -1.74375 1 1 1
v -1.759375 0.2875 -1.74375 1 1 1
v -1.790625 0.2875 -1.7125 1 1 1
v -1.853125 0.2875 -1.8375 1 1 1
v -1.853125 0.35 -1.80625 1 1 1
v -1.884375 0.2875 -1.80625 1 1 1
v -1.790625 0.2875 -1.8375 1 1 1
v -1.759375 0.2875 -1.80625 1 1 1
v -1.790625 0.35 -1.80625 1 1 1
v -1.853125 0.35 -1.74375 1 1 1
v -1.853125 0.2875 -1.7125 1 1 1
v -1.884375 0.2875 -1.74375 1 1 1
v -1.860937 0 -1.696875 1 1 1
v -1.9 0 -1.735937 1 1 1
v -1.853125 1.0875 -1.74375 1 1 1
v -1.853125 1.0875 -1.80625 1 1 1
v -1.74375 0 -1.814062 1 1 1
v -1.74375 0 -1.735937 1 1 1
v -1.860937 0 -1.853125 1 1 1
v -1.9 0 -1.814062 1 1 1
v -1.782812 0 -1.696875 1 1 1
v -1.782812 0 -1.853125 1 1 1
v -1.790625 1.0875 -1.80625 1 1 1
v -1.790625 1.0875 -1.74375 1 1 1
v -1.790625 0.35 1.80625 1 1 1
v -1.759375 0.2875 1.80625 1 1 1
v -1.790625 0.2875 1.8375 1 1 1
v -1.853125 0.2875 1.7125 1 1 1
v -1.853125 0.35 1.74375 1 1 1
v -1.884375 0.2875 1.74375 1 1 1
v -1.790625 0.2875 1.7125 1 1 1
v -1.759375 0.2875 1.74375 1 1 1
v -1.790625 0.35 1.74375 1 1 1
v -1.853125 0.35 1.80625 1 1 1
v -1.853125 0.2875 1.8375 1 1 1
v -1.884375 0.2875 1.80625 1 1 1
v -1.860937 0 1.853125 1 1 1
v -1.9 0 1.814062 1 1 1
v -1.853125 1.0875 1.80625 1 1 1
v -1.853125 1.0875 1.74375 1 1 1
v -1.74375 0 1.735937 1 1 1
v -1.74375 0 1.814062 1 1 1
v -1.860937 0 1.696875 1 1 1
v -1.9 0 1.735937 1 1 1
v -1.782812 0 1.853125 1 1 1
v -1.782812 0 1.696875 1 1 1
v -1.790625 1.0875 1.74375 1 1 1
v -1.790625 1.0875 1.80625 1 1 1
v -1.790625 0.35 0.03125001 1 1 1
v -1.759375 0.2875 0.03125001 1 1 1
v -1.790625 0.2875 0.06250001 1 1 1
v -1.853125 0.2875 -0.06250001 1 1 1
v -1.853125 0.35 -0.03125001 1 1 1
v -1.884375 0.2875 -0.03125001 1 1 1
v -1.790625 0.2875 -0.0625 1 1 1
v -1.759375 0.2875 -0.03125 1 1 1
v -1.790625 0.35 -0.03125 1 1 1
v -1.853125 0.35 0.03125 1 1 1
v -1.853125 0.2875 0.0625 1 1 1
v -1.884375 0.2875 0.03125 1 1 1
v -1.860937 0 0.078125 1 1 1
v -1.9 0 0.03906249 1 1 1
v -1.853125 1.0875 0.03125 1 1 1
v -1.853125 1.0875 -0.03125001 1 1 1
v -1.74375 0 -0.03906249 1 1 1
v -1.74375 0 0.03906251 1 1 1
v -1.860937 0 -0.07812501 1 1 1
v -1.9 0 -0.03906251 1 1 1
v -1.782812 0 0.07812501 1 1 1
v -1.782812 0 -0.078125 1 1 1
v -1.790625 1.0875 -0.03125 1 1 1
v -1.790625 1.0875 0.03125001 1 1 1
v 0.03125 0.9 1.74375 1 1 1
v 1.790625 0.9 1.74375 1 1 1
v 0.03125 0.9625 1.74375 1 1 1
v 1.790625 0.9625 1.74375 1 1 1
v 1.790625 0.9 1.80625 1 1 1
v 0.03125 0.9 1.80625 1 1 1
v 1.790625 0.9625 1.80625 1 1 1
v 0.03125 0.9625 1.80625 1 1 1
v 1.853125 0.9 1.74375 1 1 1
v 1.853125 0.9 0.03125 1 1 1
v 1.790625 0.9 0.03125 1 1 1
v 1.790625 0.9 -1.74375 1 1 1
v 1.790625 0.9625 -1.74375 1 1 1
v 1.790625 0.9 -0.03125 1 1 1
v 1.790625 0.9625 -0.03125 1 1 1
v 1.853125 0.9625 -0.03125 1 1 1
v 1.853125 0.9625 -1.74375 1 1 1
v 0.03125 0.9 -1.74375 1 1 1
v 0.03125 0.9625 -1.74375 1 1 1
v 1.853125 0.9625 0.03125 1 1 1
v 1.853125 0.9625 1.74375 1 1 1
v 1.853125 0.9 -1.74375 1 1 1
v 1.853125 0.9 -0.03125 1 1 1
v 1.790625 0.9625 -1.80625 1 1 1
v 0.03125 0.9625 -1.80625 1 1 1
v 1.790625 0.9 -1.80625 1 1 1
v 0.03125 0.9 -1.80625 1 1 1
v 1.790625 0.9625 0.03125 1 1 1
v 0.03125 0.9 0.03125 1 1 1
v -0.03125 0.9 1.74375 1 1 1
v -0.03125 0.9 0.03125 1 1 1
v -0.03125 0.9625 -1.74375 1 1 1
v -0.03125 0.9625 -0.03125 1 1 1
v -0.03125 0.9 -1.74375 1 1 1
v -0.03125 0.9 -0.03125 1 1 1
v -0.03125 0.9 1.80625 1 1 1
v -1.790625 0.9 1.80625 1 1 1
v -0.03125 0.9625 1.80625 1 1 1
v -1.790625 0.9625 1.80625 1 1 1
v -1.790625 0.9 1.74375 1 1 1
v -1.790625 0.9625 1.74375 1 1 1
v -0.03125 0.9625 1.74375 1 1 1
v -1.790625 0.9625 -1.74375 1 1 1
v -0.03125 0.9625 -1.80625 1 1 1
v -1.790625 0.9625 -1.80625 1 1 1
v -0.03125 0.9 -1.80625 1 1 1
v -1.790625 0.9 -1.80625 1 1 1
v -1.790625 0.9 -1.74375 1 1 1
v 0.03125 0.9625 -0.03125 1 1 1
v -1.790625 0.9625 -0.03125 1 1 1
v -1.853125 0.9625 -0.03125 1 1 1
v -1.853125 0.9625 -1.74375 1 1 1
v -0.03125 0.9625 0.03125 1 1 1
v -1.853125 0.9625 1.74375 1 1 1
v -1.790625 0.9625 0.03125 1 1 1
v -1.853125 0.9625 0.03125 1 1 1
v 0.03125 0.9 -0.03125 1 1 1
v -1.790625 0.9 0.03125 1 1 1
v -1.853125 0.9 1.74375 1 1 1
v -1.853125 0.9 0.03125 1 1 1
v -1.790625 0.9 -0.03125 1 1 1
v -1.853125 0.9 -0.03125 1 1 1
v -1.853125 0.9 -1.74375 1 1 1
v 0.03125 0.9625 0.03125 1 1 1

vn 0.3826834 0 0.9238797
vn -0.3826836 0 0.9238796
vn 0.3826836 0 -0.9238796
vn 0.9238797 0 -0.3826834
vn -0.9238796 0 -0.3826836
vn -0.3826834 0 -0.9238797
vn -0.9238797 0 0.3826834
vn 0.9238796 0 0.3826836
vn 0 -1 0
vn -0.3412422 0.9397972 0.01830487
vn -0.5309758 0.660401 0.5309757
vn -0.6122586 0.7614965 0.2127496
vn 0.6122586 0.7614965 0.2127498
vn 0.5309757 0.660401 0.5309758
vn 0.3412422 0.9397972 0.01830496
vn 0.6122586 0.7614965 -0.2127496
vn 0.3412422 0.9397972 -0.01830487
vn 0.5309758 0.660401 -0.5309757
vn -0.3412422 0.9397972 -0.01830496
vn -0.6122586 0.7614965 -0.2127498
vn -0.5309757 0.660401 -0.5309758
vn 1.181636E-07 0.1321637 -0.991228
vn -1.181636E-07 0.1321637 0.991228
vn 0.5997861 0.5296351 0.5997862
vn 0.8486532 0.4243266 0.3158081
vn 0.3158079 0.4243266 0.8486533
vn -0.3158079 0.4243266 -0.8486533
vn -0.5997861 0.5296351 -0.5997862
vn -0.8486532 0.4243266 -0.3158081
vn 0.3158081 0.4243266 -0.8486532
vn 0.8486533 0.4243266 -0.3158079
vn 0.5997862 0.5296351 -0.5997861
vn -0.5997862 0.5296351 0.5997861
vn -0.3158081 0.4243266 0.8486532
vn -0.8486533 0.4243266 0.3158079
vn -0.3829279 0.06050319 0.921795
vn -0.9217951 0.06050319 0.3829277
vn -0.3809952 0.0604942 0.9225959
vn -0.922596 0.0604942 0.3809949
vn -0.7071069 0 0.7071068
vn -0.7071068 0 -0.7071069
vn 0.9217951 0.06050319 -0.3829277
vn 0.921795 0.06050319 0.3829279
vn 0.922596 0.0604942 -0.3809949
vn 0.9225959 0.0604942 0.3809952
vn -0.3809949 0.0604942 -0.922596
vn -0.9225959 0.0604942 -0.3809952
vn -0.3829277 0.06050319 -0.9217951
vn -0.921795 0.06050319 -0.3829279
vn 0.3829279 0.06050319 -0.921795
vn 0.3809952 0.0604942 -0.9225959
vn 0.7071069 0 -0.7071068
vn 0.7071068 0 0.7071069
vn 0.3829277 0.06050319 0.9217951
vn 0.3809949 0.0604942 0.922596
vn 0 -0.7071068 -0.7071068
vn 0 0.7071068 -0.7071068
vn 0 -0.7071068 0.7071068
vn 0 0.7071068 0.7071068
vn 0.7071068 -0.7071068 0
vn -0.7071068 -0.7071068 0
vn -0.7071068 0.7071068 0
vn 0.7071068 0.7071068 0
vn 1 0 0

vt 0.21875 0.475
vt 0.21875 0.395
vt 0.21875 0.275
vt 0.21875 0.355
vt 0.46875 0.1606322
vt 0.46875 0.1721264
vt 0.46875 0.225
vt 0.46875 0.025
vt 0.46875 0.075
vt 0.46875 0.175

usemtl colormap

f 3/1/2 2/2/1 1/1/1
f 2/2/1 3/1/2 4/2/2
f 7/1/3 6/2/4 5/2/3
f 6/2/4 7/1/3 8/1/4
f 11/1/5 10/2/6 9/2/5
f 10/2/6 11/1/5 12/1/6
f 10/2/6 7/1/3 5/2/3
f 7/1/3 10/2/6 12/1/6
f 3/1/2 13/2/7 4/2/2
f 13/2/7 3/1/2 14/1/7
f 16/1/8 2/2/1 15/2/8
f 2/2/1 16/1/8 1/1/1
f 8/1/4 15/2/8 6/2/4
f 15/2/8 8/1/4 16/1/8
f 14/1/7 9/2/5 13/2/7
f 9/2/5 14/1/7 11/1/5
f 13/2/9 2/2/9 4/2/9
f 2/2/9 13/2/9 15/2/9
f 15/2/9 13/2/9 9/2/9
f 15/2/9 9/2/9 6/2/9
f 6/2/9 9/2/9 10/2/9
f 6/2/9 10/2/9 5/2/9
f 19/2/12 18/2/11 17/1/10
f 22/1/15 21/2/14 20/2/13
f 25/2/18 24/1/17 23/2/16
f 28/2/21 27/2/20 26/1/19
f 24/1/17 17/1/10 22/1/15
f 17/1/10 24/1/17 26/1/19
f 23/2/16 22/1/15 20/2/13
f 22/1/15 23/2/16 24/1/17
f 26/1/19 19/2/12 17/1/10
f 19/2/12 26/1/19 27/2/20
f 31/1/2 30/2/1 29/1/1
f 30/2/1 31/1/2 32/2/2
f 35/1/3 34/2/4 33/2/3
f 34/2/4 35/1/3 36/1/4
f 39/1/5 38/2/6 37/2/5
f 38/2/6 39/1/5 40/1/6
f 38/2/6 35/1/3 33/2/3
f 35/1/3 38/2/6 40/1/6
f 31/1/2 41/2/7 32/2/2
f 41/2/7 31/1/2 42/1/7
f 44/1/8 30/2/1 43/2/8
f 30/2/1 44/1/8 29/1/1
f 36/1/4 43/2/8 34/2/4
f 43/2/8 36/1/4 44/1/8
f 42/1/7 37/2/5 41/2/7
f 37/2/5 42/1/7 39/1/5
f 41/2/9 30/2/9 32/2/9
f 30/2/9 41/2/9 43/2/9
f 43/2/9 41/2/9 37/2/9
f 43/2/9 37/2/9 34/2/9
f 34/2/9 37/2/9 38/2/9
f 34/2/9 38/2/9 33/2/9
f 47/2/12 46/2/11 45/1/10
f 50/1/15 49/2/14 48/2/13
f 53/2/18 52/1/17 51/2/16
f 56/2/21 55/2/20 54/1/19
f 52/1/17 45/1/10 50/1/15
f 45/1/10 52/1/17 54/1/19
f 51/2/16 50/1/15 48/2/13
f 50/1/15 51/2/16 52/1/17
f 54/1/19 47/2/12 45/1/10
f 47/2/12 54/1/19 55/2/20
f 28/3/22 24/4/22 25/3/22
f 24/4/22 28/3/22 26/4/22
f 22/4/23 18/3/23 21/3/23
f 18/3/23 22/4/23 17/4/23
f 56/3/22 52/4/22 53/3/22
f 52/4/22 56/3/22 54/4/22
f 50/4/23 46/3/23 49/3/23
f 46/3/23 50/4/23 45/4/23
f 59/6/26 58/6/25 57/5/24
f 62/6/29 61/5/28 60/6/27
f 65/5/32 64/6/31 63/6/30
f 68/6/35 67/6/34 66/5/33
f 67/6/38 70/7/37 69/7/36
f 70/7/37 67/6/38 68/6/39
f 71/8/40 61/5/41 66/5/40
f 61/5/41 71/8/40 72/8/41
f 64/6/44 74/7/43 73/7/42
f 74/7/43 64/6/44 58/6/45
f 65/5/32 58/6/25 64/6/31
f 58/6/25 65/5/32 57/5/24
f 75/7/48 62/6/47 60/6/46
f 62/6/47 75/7/48 76/7/49
f 70/7/9 77/7/9 69/7/9
f 77/7/9 70/7/9 74/7/9
f 74/7/9 70/7/9 76/7/9
f 74/7/9 76/7/9 73/7/9
f 73/7/9 76/7/9 75/7/9
f 73/7/9 75/7/9 78/7/9
f 60/6/27 65/5/32 63/6/30
f 65/5/32 60/6/27 61/5/28
f 78/7/50 64/6/44 73/7/42
f 64/6/44 78/7/50 63/6/51
f 66/5/33 62/6/29 68/6/35
f 62/6/29 66/5/33 61/5/28
f 68/6/39 76/7/49 70/7/37
f 76/7/49 68/6/39 62/6/47
f 79/8/52 57/5/53 65/5/52
f 57/5/53 79/8/52 80/8/53
f 71/8/40 57/5/53 80/8/53
f 57/5/53 71/8/40 66/5/40
f 58/6/45 77/7/54 74/7/43
f 77/7/54 58/6/45 59/6/55
f 75/7/48 63/6/51 78/7/50
f 63/6/51 75/7/48 60/6/46
f 59/6/55 69/7/36 77/7/54
f 69/7/36 59/6/55 67/6/38
f 61/5/41 79/8/52 65/5/52
f 79/8/52 61/5/41 72/8/41
f 66/5/33 59/6/26 57/5/24
f 59/6/26 66/5/33 67/6/34
f 83/6/26 82/6/25 81/5/24
f 86/6/29 85/5/28 84/6/27
f 89/5/32 88/6/31 87/6/30
f 92/6/35 91/6/34 90/5/33
f 91/6/38 94/7/37 93/7/36
f 94/7/37 91/6/38 92/6/39
f 95/8/40 85/5/41 90/5/40
f 85/5/41 95/8/40 96/8/41
f 88/6/44 98/7/43 97/7/42
f 98/7/43 88/6/44 82/6/45
f 89/5/32 82/6/25 88/6/31
f 82/6/25 89/5/32 81/5/24
f 99/7/48 86/6/47 84/6/46
f 86/6/47 99/7/48 100/7/49
f 94/7/9 101/7/9 93/7/9
f 101/7/9 94/7/9 98/7/9
f 98/7/9 94/7/9 100/7/9
f 98/7/9 100/7/9 97/7/9
f 97/7/9 100/7/9 99/7/9
f 97/7/9 99/7/9 102/7/9
f 84/6/27 89/5/32 87/6/30
f 89/5/32 84/6/27 85/5/28
f 102/7/50 88/6/44 97/7/42
f 88/6/44 102/7/50 87/6/51
f 90/5/33 86/6/29 92/6/35
f 86/6/29 90/5/33 85/5/28
f 92/6/39 100/7/49 94/7/37
f 100/7/49 92/6/39 86/6/47
f 103/8/52 81/5/53 89/5/52
f 81/5/53 103/8/52 104/8/53
f 95/8/40 81/5/53 104/8/53
f 81/5/53 95/8/40 90/5/40
f 82/6/45 101/7/54 98/7/43
f 101/7/54 82/6/45 83/6/55
f 99/7/48 87/6/51 102/7/50
f 87/6/51 99/7/48 84/6/46
f 83/6/55 93/7/36 101/7/54
f 93/7/36 83/6/55 91/6/38
f 85/5/41 103/8/52 89/5/52
f 103/8/52 85/5/41 96/8/41
f 90/5/33 83/6/26 81/5/24
f 83/6/26 90/5/33 91/6/34
f 107/6/26 106/6/25 105/5/24
f 110/6/29 109/5/28 108/6/27
f 113/5/32 112/6/31 111/6/30
f 116/6/35 115/6/34 114/5/33
f 115/6/38 118/7/37 117/7/36
f 118/7/37 115/6/38 116/6/39
f 119/8/40 109/5/41 114/5/40
f 109/5/41 119/8/40 120/8/41
f 112/6/44 122/7/43 121/7/42
f 122/7/43 112/6/44 106/6/45
f 113/5/32 106/6/25 112/6/31
f 106/6/25 113/5/32 105/5/24
f 123/7/48 110/6/47 108/6/46
f 110/6/47 123/7/48 124/7/49
f 118/7/9 125/7/9 117/7/9
f 125/7/9 118/7/9 122/7/9
f 122/7/9 118/7/9 124/7/9
f 122/7/9 124/7/9 121/7/9
f 121/7/9 124/7/9 123/7/9
f 121/7/9 123/7/9 126/7/9
f 108/6/27 113/5/32 111/6/30
f 113/5/32 108/6/27 109/5/28
f 126/7/50 112/6/44 121/7/42
f 112/6/44 126/7/50 111/6/51
f 114/5/33 110/6/29 116/6/35
f 110/6/29 114/5/33 109/5/28
f 116/6/39 124/7/49 118/7/37
f 124/7/49 116/6/39 110/6/47
f 127/8/52 105/5/53 113/5/52
f 105/5/53 127/8/52 128/8/53
f 119/8/40 105/5/53 128/8/53
f 105/5/53 119/8/40 114/5/40
f 106/6/45 125/7/54 122/7/43
f 125/7/54 106/6/45 107/6/55
f 123/7/48 111/6/51 126/7/50
f 111/6/51 123/7/48 108/6/46
f 107/6/55 117/7/36 125/7/54
f 117/7/36 107/6/55 115/6/38
f 109/5/41 127/8/52 113/5/52
f 127/8/52 109/5/41 120/8/41
f 114/5/33 107/6/26 105/5/24
f 107/6/26 114/5/33 115/6/34
f 131/6/26 130/6/25 129/5/24
f 134/6/29 133/5/28 132/6/27
f 137/5/32 136/6/31 135/6/30
f 140/6/35 139/6/34 138/5/33
f 139/6/38 142/7/37 141/7/36
f 142/7/37 139/6/38 140/6/39
f 143/8/40 133/5/41 138/5/40
f 133/5/41 143/8/40 144/8/41
f 136/6/44 146/7/43 145/7/42
f 146/7/43 136/6/44 130/6/45
f 137/5/32 130/6/25 136/6/31
f 130/6/25 137/5/32 129/5/24
f 147/7/48 134/6/47 132/6/46
f 134/6/47 147/7/48 148/7/49
f 142/7/9 149/7/9 141/7/9
f 149/7/9 142/7/9 146/7/9
f 146/7/9 142/7/9 148/7/9
f 146/7/9 148/7/9 145/7/9
f 145/7/9 148/7/9 147/7/9
f 145/7/9 147/7/9 150/7/9
f 132/6/27 137/5/32 135/6/30
f 137/5/32 132/6/27 133/5/28
f 150/7/50 136/6/44 145/7/42
f 136/6/44 150/7/50 135/6/51
f 138/5/33 134/6/29 140/6/35
f 134/6/29 138/5/33 133/5/28
f 140/6/39 148/7/49 142/7/37
f 148/7/49 140/6/39 134/6/47
f 151/8/52 129/5/53 137/5/52
f 129/5/53 151/8/52 152/8/53
f 143/8/40 129/5/53 152/8/53
f 129/5/53 143/8/40 138/5/40
f 130/6/45 149/7/54 146/7/43
f 149/7/54 130/6/45 131/6/55
f 147/7/48 135/6/51 150/7/50
f 135/6/51 147/7/48 132/6/46
f 131/6/55 141/7/36 149/7/54
f 141/7/36 131/6/55 139/6/38
f 133/5/41 151/8/52 137/5/52
f 151/8/52 133/5/41 144/8/41
f 138/5/33 131/6/26 129/5/24
f 131/6/26 138/5/33 139/6/34
f 155/6/26 154/6/25 153/5/24
f 158/6/29 157/5/28 156/6/27
f 161/5/32 160/6/31 159/6/30
f 164/6/35 163/6/34 162/5/33
f 163/6/38 166/7/37 165/7/36
f 166/7/37 163/6/38 164/6/39
f 167/8/40 157/5/41 162/5/40
f 157/5/41 167/8/40 168/8/41
f 160/6/44 170/7/43 169/7/42
f 170/7/43 160/6/44 154/6/45
f 161/5/32 154/6/25 160/6/31
f 154/6/25 161/5/32 153/5/24
f 171/7/48 158/6/47 156/6/46
f 158/6/47 171/7/48 172/7/49
f 166/7/9 173/7/9 165/7/9
f 173/7/9 166/7/9 170/7/9
f 170/7/9 166/7/9 172/7/9
f 170/7/9 172/7/9 169/7/9
f 169/7/9 172/7/9 171/7/9
f 169/7/9 171/7/9 174/7/9
f 156/6/27 161/5/32 159/6/30
f 161/5/32 156/6/27 157/5/28
f 174/7/50 160/6/44 169/7/42
f 160/6/44 174/7/50 159/6/51
f 162/5/33 158/6/29 164/6/35
f 158/6/29 162/5/33 157/5/28
f 164/6/39 172/7/49 166/7/37
f 172/7/49 164/6/39 158/6/47
f 175/8/52 153/5/53 161/5/52
f 153/5/53 175/8/52 176/8/53
f 167/8/40 153/5/53 176/8/53
f 153/5/53 167/8/40 162/5/40
f 154/6/45 173/7/54 170/7/43
f 173/7/54 154/6/45 155/6/55
f 171/7/48 159/6/51 174/7/50
f 159/6/51 171/7/48 156/6/46
f 155/6/55 165/7/36 173/7/54
f 165/7/36 155/6/55 163/6/38
f 157/5/41 175/8/52 161/5/52
f 175/8/52 157/5/41 168/8/41
f 162/5/33 155/6/26 153/5/24
f 155/6/26 162/5/33 163/6/34
f 179/6/26 178/6/25 177/5/24
f 182/6/29 181/5/28 180/6/27
f 185/5/32 184/6/31 183/6/30
f 188/6/35 187/6/34 186/5/33
f 187/6/38 190/7/37 189/7/36
f 190/7/37 187/6/38 188/6/39
f 191/8/40 181/5/41 186/5/40
f 181/5/41 191/8/40 192/8/41
f 184/6/44 194/7/43 193/7/42
f 194/7/43 184/6/44 178/6/45
f 185/5/32 178/6/25 184/6/31
f 178/6/25 185/5/32 177/5/24
f 195/7/48 182/6/47 180/6/46
f 182/6/47 195/7/48 196/7/49
f 190/7/9 197/7/9 189/7/9
f 197/7/9 190/7/9 194/7/9
f 194/7/9 190/7/9 196/7/9
f 194/7/9 196/7/9 193/7/9
f 193/7/9 196/7/9 195/7/9
f 193/7/9 195/7/9 198/7/9
f 180/6/27 185/5/32 183/6/30
f 185/5/32 180/6/27 181/5/28
f 198/7/50 184/6/44 193/7/42
f 184/6/44 198/7/50 183/6/51
f 186/5/33 182/6/29 188/6/35
f 182/6/29 186/5/33 181/5/28
f 188/6/39 196/7/49 190/7/37
f 196/7/49 188/6/39 182/6/47
f 199/8/52 177/5/53 185/5/52
f 177/5/53 199/8/52 200/8/53
f 191/8/40 177/5/53 200/8/53
f 177/5/53 191/8/40 186/5/40
f 178/6/45 197/7/54 194/7/43
f 197/7/54 178/6/45 179/6/55
f 195/7/48 183/6/51 198/7/50
f 183/6/51 195/7/48 180/6/46
f 179/6/55 189/7/36 197/7/54
f 189/7/36 179/6/55 187/6/38
f 181/5/41 199/8/52 185/5/52
f 199/8/52 181/5/41 192/8/41
f 186/5/33 179/6/26 177/5/24
f 179/6/26 186/5/33 187/6/34
f 203/6/26 202/6/25 201/5/24
f 206/6/29 205/5/28 204/6/27
f 209/5/32 208/6/31 207/6/30
f 212/6/35 211/6/34 210/5/33
f 211/6/38 214/7/37 213/7/36
f 214/7/37 211/6/38 212/6/39
f 215/8/40 205/5/41 210/5/40
f 205/5/41 215/8/40 216/8/41
f 208/6/44 218/7/43 217/7/42
f 218/7/43 208/6/44 202/6/45
f 209/5/32 202/6/25 208/6/31
f 202/6/25 209/5/32 201/5/24
f 219/7/48 206/6/47 204/6/46
f 206/6/47 219/7/48 220/7/49
f 214/7/9 221/7/9 213/7/9
f 221/7/9 214/7/9 218/7/9
f 218/7/9 214/7/9 220/7/9
f 218/7/9 220/7/9 217/7/9
f 217/7/9 220/7/9 219/7/9
f 217/7/9 219/7/9 222/7/9
f 204/6/27 209/5/32 207/6/30
f 209/5/32 204/6/27 205/5/28
f 222/7/50 208/6/44 217/7/42
f 208/6/44 222/7/50 207/6/51
f 210/5/33 206/6/29 212/6/35
f 206/6/29 210/5/33 205/5/28
f 212/6/39 220/7/49 214/7/37
f 220/7/49 212/6/39 206/6/47
f 223/8/52 201/5/53 209/5/52
f 201/5/53 223/8/52 224/8/53
f 215/8/40 201/5/53 224/8/53
f 201/5/53 215/8/40 210/5/40
f 202/6/45 221/7/54 218/7/43
f 221/7/54 202/6/45 203/6/55
f 219/7/48 207/6/51 222/7/50
f 207/6/51 219/7/48 204/6/46
f 203/6/55 213/7/36 221/7/54
f 213/7/36 203/6/55 211/6/38
f 205/5/41 223/8/52 209/5/52
f 223/8/52 205/5/41 216/8/41
f 210/5/33 203/6/26 201/5/24
f 203/6/26 210/5/33 211/6/34
f 227/6/26 226/6/25 225/5/24
f 230/6/29 229/5/28 228/6/27
f 233/5/32 232/6/31 231/6/30
f 236/6/35 235/6/34 234/5/33
f 235/6/38 238/7/37 237/7/36
f 238/7/37 235/6/38 236/6/39
f 239/8/40 229/5/41 234/5/40
f 229/5/41 239/8/40 240/8/41
f 232/6/44 242/7/43 241/7/42
f 242/7/43 232/6/44 226/6/45
f 233/5/32 226/6/25 232/6/31
f 226/6/25 233/5/32 225/5/24
f 243/7/48 230/6/47 228/6/46
f 230/6/47 243/7/48 244/7/49
f 238/7/9 245/7/9 237/7/9
f 245/7/9 238/7/9 242/7/9
f 242/7/9 238/7/9 244/7/9
f 242/7/9 244/7/9 241/7/9
f 241/7/9 244/7/9 243/7/9
f 241/7/9 243/7/9 246/7/9
f 228/6/27 233/5/32 231/6/30
f 233/5/32 228/6/27 229/5/28
f 246/7/50 232/6/44 241/7/42
f 232/6/44 246/7/50 231/6/51
f 234/5/33 230/6/29 236/6/35
f 230/6/29 234/5/33 229/5/28
f 236/6/39 244/7/49 238/7/37
f 244/7/49 236/6/39 230/6/47
f 247/8/52 225/5/53 233/5/52
f 225/5/53 247/8/52 248/8/53
f 239/8/40 225/5/53 248/8/53
f 225/5/53 239/8/40 234/5/40
f 226/6/45 245/7/54 242/7/43
f 245/7/54 226/6/45 227/6/55
f 243/7/48 231/6/51 246/7/50
f 231/6/51 243/7/48 228/6/46
f 227/6/55 237/7/36 245/7/54
f 237/7/36 227/6/55 235/6/38
f 229/5/41 247/8/52 233/5/52
f 247/8/52 229/5/41 240/8/41
f 234/5/33 227/6/26 225/5/24
f 227/6/26 234/5/33 235/6/34
f 251/6/26 250/6/25 249/5/24
f 254/6/29 253/5/28 252/6/27
f 257/5/32 256/6/31 255/6/30
f 260/6/35 259/6/34 258/5/33
f 259/6/38 262/7/37 261/7/36
f 262/7/37 259/6/38 260/6/39
f 263/8/40 253/5/41 258/5/40
f 253/5/41 263/8/40 264/8/41
f 256/6/44 266/7/43 265/7/42
f 266/7/43 256/6/44 250/6/45
f 257/5/32 250/6/25 256/6/31
f 250/6/25 257/5/32 249/5/24
f 267/7/48 254/6/47 252/6/46
f 254/6/47 267/7/48 268/7/49
f 262/7/9 269/7/9 261/7/9
f 269/7/9 262/7/9 266/7/9
f 266/7/9 262/7/9 268/7/9
f 266/7/9 268/7/9 265/7/9
f 265/7/9 268/7/9 267/7/9
f 265/7/9 267/7/9 270/7/9
f 252/6/27 257/5/32 255/6/30
f 257/5/32 252/6/27 253/5/28
f 270/7/50 256/6/44 265/7/42
f 256/6/44 270/7/50 255/6/51
f 258/5/33 254/6/29 260/6/35
f 254/6/29 258/5/33 253/5/28
f 260/6/39 268/7/49 262/7/37
f 268/7/49 260/6/39 254/6/47
f 271/8/52 249/5/53 257/5/52
f 249/5/53 271/8/52 272/8/53
f 263/8/40 249/5/53 272/8/53
f 249/5/53 263/8/40 258/5/40
f 250/6/45 269/7/54 266/7/43
f 269/7/54 250/6/45 251/6/55
f 267/7/48 255/6/51 270/7/50
f 255/6/51 267/7/48 252/6/46
f 251/6/55 261/7/36 269/7/54
f 261/7/36 251/6/55 259/6/38
f 253/5/41 271/8/52 257/5/52
f 271/8/52 253/5/41 264/8/41
f 258/5/33 251/6/26 249/5/24
f 251/6/26 258/5/33 259/6/34
f 275/10/57 274/9/56 273/9/56
f 274/9/56 275/10/57 276/10/57
f 278/9/58 274/9/56 277/9/58
f 274/9/56 278/9/58 273/9/56
f 279/10/59 278/9/58 277/9/58
f 278/9/58 279/10/59 280/10/59
f 274/9/61 282/9/60 281/9/60
f 282/9/60 274/9/61 283/9/61
f 286/9/61 285/10/62 284/9/61
f 285/10/62 286/9/61 287/10/62
f 289/10/63 287/10/62 288/10/63
f 287/10/62 289/10/63 285/10/62
f 276/10/57 280/10/59 279/10/59
f 280/10/59 276/10/57 275/10/57
f 284/9/58 291/10/59 290/9/58
f 291/10/59 284/9/58 285/10/59
f 293/10/63 282/9/60 292/10/63
f 282/9/60 293/10/63 281/9/60
f 288/10/63 294/9/60 289/10/63
f 294/9/60 288/10/63 295/9/60
f 286/9/61 294/9/60 295/9/60
f 294/9/60 286/9/61 284/9/61
f 296/10/57 291/10/59 285/10/59
f 291/10/59 296/10/57 297/10/57
f 290/9/58 298/9/56 284/9/58
f 298/9/56 290/9/58 299/9/56
f 292/10/63 276/10/62 293/10/63
f 276/10/62 292/10/63 300/10/62
f 274/9/61 300/10/62 283/9/61
f 300/10/62 274/9/61 276/10/62
f 299/9/56 296/10/57 298/9/56
f 296/10/57 299/9/56 297/10/57
f 302/9/61 301/9/9 273/9/9
f 301/9/9 302/9/61 303/9/61
f 306/9/61 305/10/62 304/10/62
f 305/10/62 306/9/61 307/9/61
f 310/10/59 309/9/58 308/9/58
f 309/9/58 310/10/59 311/10/59
f 313/10/57 302/9/56 312/9/56
f 302/9/56 313/10/57 314/10/57
f 309/9/58 302/9/56 308/9/58
f 302/9/56 309/9/58 312/9/56
f 316/10/57 315/10/59 304/10/59
f 315/10/59 316/10/57 317/10/57
f 319/9/56 316/10/57 318/9/56
f 316/10/57 319/9/56 317/10/57
f 306/9/58 315/10/59 320/9/58
f 315/10/59 306/9/58 304/10/59
f 291/10/63 305/10/62 321/10/63
f 305/10/62 291/10/63 304/10/62
f 314/10/57 311/10/59 310/10/59
f 311/10/59 314/10/57 313/10/57
f 315/10/63 323/10/62 322/10/63
f 323/10/62 315/10/63 324/10/62
f 320/9/58 318/9/56 306/9/58
f 318/9/56 320/9/58 319/9/56
f 302/9/61 325/10/62 303/9/61
f 325/10/62 302/9/61 314/10/62
f 327/10/63 326/10/62 313/10/63
f 326/10/62 327/10/63 328/10/62
f 307/9/61 290/9/60 329/9/60
f 290/9/60 307/9/61 306/9/61
f 331/9/61 330/9/9 312/9/9
f 330/9/9 331/9/61 332/9/61
f 334/9/61 320/9/60 333/9/60
f 320/9/60 334/9/61 335/9/61
f 336/10/63 314/10/62 275/10/63
f 314/10/62 336/10/63 325/10/62
f 275/10/63 301/9/64 336/10/63
f 301/9/64 275/10/63 273/9/64
f 322/10/63 320/9/60 315/10/63
f 320/9/60 322/10/63 333/9/60
f 331/9/61 328/10/62 332/9/61
f 328/10/62 331/9/61 326/10/62
f 313/10/63 330/9/64 327/10/63
f 330/9/64 313/10/63 312/9/64
f 321/10/63 290/9/60 291/10/63
f 290/9/60 321/10/63 329/9/60
f 335/9/61 323/10/62 324/10/62
f 323/10/62 335/9/61 334/9/61

g tent-roof-large




usemtl colormap

f 3/1/2 2/2/1 1/1/1
f 2/2/1 3/1/2 4/2/2
f 7/1/3 6/2/4 5/2/3
f 6/2/4 7/1/3 8/1/4
f 11/1/5 10/2/6 9/2/5
f 10/2/6 11/1/5 12/1/6
f 10/2/6 7/1/3 5/2/3
f 7/1/3 10/2/6 12/1/6
f 3/1/2 13/2/7 4/2/2
f 13/2/7 3/1/2 14/1/7
f 16/1/8 2/2/1 15/2/8
f 2/2/1 16/1/8 1/1/1
f 8/1/4 15/2/8 6/2/4
f 15/2/8 8/1/4 16/1/8
f 14/1/7 9/2/5 13/2/7
f 9/2/5 14/1/7 11/1/5
f 13/2/9 2/2/9 4/2/9
f 2/2/9 13/2/9 15/2/9
f 15/2/9 13/2/9 9/2/9
f 15/2/9 9/2/9 6/2/9
f 6/2/9 9/2/9 10/2/9
f 6/2/9 10/2/9 5/2/9
f 19/2/12 18/2/11 17/1/10
f 22/1/15 21/2/14 20/2/13
f 25/2/18 24/1/17 23/2/16
f 28/2/21 27/2/20 26/1/19
f 24/1/17 17/1/10 22/1/15
f 17/1/10 24/1/17 26/1/19
f 23/2/16 22/1/15 20/2/13
f 22/1/15 23/2/16 24/1/17
f 26/1/19 19/2/12 17/1/10
f 19/2/12 26/1/19 27/2/20
f 31/1/2 30/2/1 29/1/1
f 30/2/1 31/1/2 32/2/2
f 35/1/3 34/2/4 33/2/3
f 34/2/4 35/1/3 36/1/4
f 39/1/5 38/2/6 37/2/5
f 38/2/6 39/1/5 40/1/6
f 38/2/6 35/1/3 33/2/3
f 35/1/3 38/2/6 40/1/6
f 31/1/2 41/2/7 32/2/2
f 41/2/7 31/1/2 42/1/7
f 44/1/8 30/2/1 43/2/8
f 30/2/1 44/1/8 29/1/1
f 36/1/4 43/2/8 34/2/4
f 43/2/8 36/1/4 44/1/8
f 42/1/7 37/2/5 41/2/7
f 37/2/5 42/1/7 39/1/5
f 41/2/9 30/2/9 32/2/9
f 30/2/9 41/2/9 43/2/9
f 43/2/9 41/2/9 37/2/9
f 43/2/9 37/2/9 34/2/9
f 34/2/9 37/2/9 38/2/9
f 34/2/9 38/2/9 33/2/9
f 47/2/12 46/2/11 45/1/10
f 50/1/15 49/2/14 48/2/13
f 53/2/18 52/1/17 51/2/16
f 56/2/21 55/2/20 54/1/19
f 52/1/17 45/1/10 50/1/15
f 45/1/10 52/1/17 54/1/19
f 51/2/16 50/1/15 48/2/13
f 50/1/15 51/2/16 52/1/17
f 54/1/19 47/2/12 45/1/10
f 47/2/12 54/1/19 55/2/20
f 28/3/22 24/4/22 25/3/22
f 24/4/22 28/3/22 26/4/22
f 22/4/23 18/3/23 21/3/23
f 18/3/23 22/4/23 17/4/23
f 56/3/22 52/4/22 53/3/22
f 52/4/22 56/3/22 54/4/22
f 50/4/23 46/3/23 49/3/23
f 46/3/23 50/4/23 45/4/23
f 59/6/26 58/6/25 57/5/24
f 62/6/29 61/5/28 60/6/27
f 65/5/32 64/6/31 63/6/30
f 68/6/35 67/6/34 66/5/33
f 67/6/38 70/7/37 69/7/36
f 70/7/37 67/6/38 68/6/39
f 71/8/40 61/5/41 66/5/40
f 61/5/41 71/8/40 72/8/41
f 64/6/44 74/7/43 73/7/42
f 74/7/43 64/6/44 58/6/45
f 65/5/32 58/6/25 64/6/31
f 58/6/25 65/5/32 57/5/24
f 75/7/48 62/6/47 60/6/46
f 62/6/47 75/7/48 76/7/49
f 70/7/9 77/7/9 69/7/9
f 77/7/9 70/7/9 74/7/9
f 74/7/9 70/7/9 76/7/9
f 74/7/9 76/7/9 73/7/9
f 73/7/9 76/7/9 75/7/9
f 73/7/9 75/7/9 78/7/9
f 60/6/27 65/5/32 63/6/30
f 65/5/32 60/6/27 61/5/28
f 78/7/50 64/6/44 73/7/42
f 64/6/44 78/7/50 63/6/51
f 66/5/33 62/6/29 68/6/35
f 62/6/29 66/5/33 61/5/28
f 68/6/39 76/7/49 70/7/37
f 76/7/49 68/6/39 62/6/47
f 79/8/52 57/5/53 65/5/52
f 57/5/53 79/8/52 80/8/53
f 71/8/40 57/5/53 80/8/53
f 57/5/53 71/8/40 66/5/40
f 58/6/45 77/7/54 74/7/43
f 77/7/54 58/6/45 59/6/55
f 75/7/48 63/6/51 78/7/50
f 63/6/51 75/7/48 60/6/46
f 59/6/55 69/7/36 77/7/54
f 69/7/36 59/6/55 67/6/38
f 61/5/41 79/8/52 65/5/52
f 79/8/52 61/5/41 72/8/41
f 66/5/33 59/6/26 57/5/24
f 59/6/26 66/5/33 67/6/34
f 83/6/26 82/6/25 81/5/24
f 86/6/29 85/5/28 84/6/27
f 89/5/32 88/6/31 87/6/30
f 92/6/35 91/6/34 90/5/33
f 91/6/38 94/7/37 93/7/36
f 94/7/37 91/6/38 92/6/39
f 95/8/40 85/5/41 90/5/40
f 85/5/41 95/8/40 96/8/41
f 88/6/44 98/7/43 97/7/42
f 98/7/43 88/6/44 82/6/45
f 89/5/32 82/6/25 88/6/31
f 82/6/25 89/5/32 81/5/24
f 99/7/48 86/6/47 84/6/46
f 86/6/47 99/7/48 100/7/49
f 94/7/9 101/7/9 93/7/9
f 101/7/9 94/7/9 98/7/9
f 98/7/9 94/7/9 100/7/9
f 98/7/9 100/7/9 97/7/9
f 97/7/9 100/7/9 99/7/9
f 97/7/9 99/7/9 102/7/9
f 84/6/27 89/5/32 87/6/30
f 89/5/32 84/6/27 85/5/28
f 102/7/50 88/6/44 97/7/42
f 88/6/44 102/7/50 87/6/51
f 90/5/33 86/6/29 92/6/35
f 86/6/29 90/5/33 85/5/28
f 92/6/39 100/7/49 94/7/37
f 100/7/49 92/6/39 86/6/47
f 103/8/52 81/5/53 89/5/52
f 81/5/53 103/8/52 104/8/53
f 95/8/40 81/5/53 104/8/53
f 81/5/53 95/8/40 90/5/40
f 82/6/45 101/7/54 98/7/43
f 101/7/54 82/6/45 83/6/55
f 99/7/48 87/6/51 102/7/50
f 87/6/51 99/7/48 84/6/46
f 83/6/55 93/7/36 101/7/54
f 93/7/36 83/6/55 91/6/38
f 85/5/41 103/8/52 89/5/52
f 103/8/52 85/5/41 96/8/41
f 90/5/33 83/6/26 81/5/24
f 83/6/26 90/5/33 91/6/34
f 107/6/26 106/6/25 105/5/24
f 110/6/29 109/5/28 108/6/27
f 113/5/32 112/6/31 111/6/30
f 116/6/35 115/6/34 114/5/33
f 115/6/38 118/7/37 117/7/36
f 118/7/37 115/6/38 116/6/39
f 119/8/40 109/5/41 114/5/40
f 109/5/41 119/8/40 120/8/41
f 112/6/44 122/7/43 121/7/42
f 122/7/43 112/6/44 106/6/45
f 113/5/32 106/6/25 112/6/31
f 106/6/25 113/5/32 105/5/24
f 123/7/48 110/6/47 108/6/46
f 110/6/47 123/7/48 124/7/49
f 118/7/9 125/7/9 117/7/9
f 125/7/9 118/7/9 122/7/9
f 122/7/9 118/7/9 124/7/9
f 122/7/9 124/7/9 121/7/9
f 121/7/9 124/7/9 123/7/9
f 121/7/9 123/7/9 126/7/9
f 108/6/27 113/5/32 111/6/30
f 113/5/32 108/6/27 109/5/28
f 126/7/50 112/6/44 121/7/42
f 112/6/44 126/7/50 111/6/51
f 114/5/33 110/6/29 116/6/35
f 110/6/29 114/5/33 109/5/28
f 116/6/39 124/7/49 118/7/37
f 124/7/49 116/6/39 110/6/47
f 127/8/52 105/5/53 113/5/52
f 105/5/53 127/8/52 128/8/53
f 119/8/40 105/5/53 128/8/53
f 105/5/53 119/8/40 114/5/40
f 106/6/45 125/7/54 122/7/43
f 125/7/54 106/6/45 107/6/55
f 123/7/48 111/6/51 126/7/50
f 111/6/51 123/7/48 108/6/46
f 107/6/55 117/7/36 125/7/54
f 117/7/36 107/6/55 115/6/38
f 109/5/41 127/8/52 113/5/52
f 127/8/52 109/5/41 120/8/41
f 114/5/33 107/6/26 105/5/24
f 107/6/26 114/5/33 115/6/34
f 131/6/26 130/6/25 129/5/24
f 134/6/29 133/5/28 132/6/27
f 137/5/32 136/6/31 135/6/30
f 140/6/35 139/6/34 138/5/33
f 139/6/38 142/7/37 141/7/36
f 142/7/37 139/6/38 140/6/39
f 143/8/40 133/5/41 138/5/40
f 133/5/41 143/8/40 144/8/41
f 136/6/44 146/7/43 145/7/42
f 146/7/43 136/6/44 130/6/45
f 137/5/32 130/6/25 136/6/31
f 130/6/25 137/5/32 129/5/24
f 147/7/48 134/6/47 132/6/46
f 134/6/47 147/7/48 148/7/49
f 142/7/9 149/7/9 141/7/9
f 149/7/9 142/7/9 146/7/9
f 146/7/9 142/7/9 148/7/9
f 146/7/9 148/7/9 145/7/9
f 145/7/9 148/7/9 147/7/9
f 145/7/9 147/7/9 150/7/9
f 132/6/27 137/5/32 135/6/30
f 137/5/32 132/6/27 133/5/28
f 150/7/50 136/6/44 145/7/42
f 136/6/44 150/7/50 135/6/51
f 138/5/33 134/6/29 140/6/35
f 134/6/29 138/5/33 133/5/28
f 140/6/39 148/7/49 142/7/37
f 148/7/49 140/6/39 134/6/47
f 151/8/52 129/5/53 137/5/52
f 129/5/53 151/8/52 152/8/53
f 143/8/40 129/5/53 152/8/53
f 129/5/53 143/8/40 138/5/40
f 130/6/45 149/7/54 146/7/43
f 149/7/54 130/6/45 131/6/55
f 147/7/48 135/6/51 150/7/50
f 135/6/51 147/7/48 132/6/46
f 131/6/55 141/7/36 149/7/54
f 141/7/36 131/6/55 139/6/38
f 133/5/41 151/8/52 137/5/52
f 151/8/52 133/5/41 144/8/41
f 138/5/33 131/6/26 129/5/24
f 131/6/26 138/5/33 139/6/34
f 155/6/26 154/6/25 153/5/24
f 158/6/29 157/5/28 156/6/27
f 161/5/32 160/6/31 159/6/30
f 164/6/35 163/6/34 162/5/33
f 163/6/38 166/7/37 165/7/36
f 166/7/37 163/6/38 164/6/39
f 167/8/40 157/5/41 162/5/40
f 157/5/41 167/8/40 168/8/41
f 160/6/44 170/7/43 169/7/42
f 170/7/43 160/6/44 154/6/45
f 161/5/32 154/6/25 160/6/31
f 154/6/25 161/5/32 153/5/24
f 171/7/48 158/6/47 156/6/46
f 158/6/47 171/7/48 172/7/49
f 166/7/9 173/7/9 165/7/9
f 173/7/9 166/7/9 170/7/9
f 170/7/9 166/7/9 172/7/9
f 170/7/9 172/7/9 169/7/9
f 169/7/9 172/7/9 171/7/9
f 169/7/9 171/7/9 174/7/9
f 156/6/27 161/5/32 159/6/30
f 161/5/32 156/6/27 157/5/28
f 174/7/50 160/6/44 169/7/42
f 160/6/44 174/7/50 159/6/51
f 162/5/33 158/6/29 164/6/35
f 158/6/29 162/5/33 157/5/28
f 164/6/39 172/7/49 166/7/37
f 172/7/49 164/6/39 158/6/47
f 175/8/52 153/5/53 161/5/52
f 153/5/53 175/8/52 176/8/53
f 167/8/40 153/5/53 176/8/53
f 153/5/53 167/8/40 162/5/40
f 154/6/45 173/7/54 170/7/43
f 173/7/54 154/6/45 155/6/55
f 171/7/48 159/6/51 174/7/50
f 159/6/51 171/7/48 156/6/46
f 155/6/55 165/7/36 173/7/54
f 165/7/36 155/6/55 163/6/38
f 157/5/41 175/8/52 161/5/52
f 175/8/52 157/5/41 168/8/41
f 162/5/33 155/6/26 153/5/24
f 155/6/26 162/5/33 163/6/34
f 179/6/26 178/6/25 177/5/24
f 182/6/29 181/5/28 180/6/27
f 185/5/32 184/6/31 183/6/30
f 188/6/35 187/6/34 186/5/33
f 187/6/38 190/7/37 189/7/36
f 190/7/37 187/6/38 188/6/39
f 191/8/40 181/5/41 186/5/40
f 181/5/41 191/8/40 192/8/41
f 184/6/44 194/7/43 193/7/42
f 194/7/43 184/6/44 178/6/45
f 185/5/32 178/6/25 184/6/31
f 178/6/25 185/5/32 177/5/24
f 195/7/48 182/6/47 180/6/46
f 182/6/47 195/7/48 196/7/49
f 190/7/9 197/7/9 189/7/9
f 197/7/9 190/7/9 194/7/9
f 194/7/9 190/7/9 196/7/9
f 194/7/9 196/7/9 193/7/9
f 193/7/9 196/7/9 195/7/9
f 193/7/9 195/7/9 198/7/9
f 180/6/27 185/5/32 183/6/30
f 185/5/32 180/6/27 181/5/28
f 198/7/50 184/6/44 193/7/42
f 184/6/44 198/7/50 183/6/51
f 186/5/33 182/6/29 188/6/35
f 182/6/29 186/5/33 181/5/28
f 188/6/39 196/7/49 190/7/37
f 196/7/49 188/6/39 182/6/47
f 199/8/52 177/5/53 185/5/52
f 177/5/53 199/8/52 200/8/53
f 191/8/40 177/5/53 200/8/53
f 177/5/53 191/8/40 186/5/40
f 178/6/45 197/7/54 194/7/43
f 197/7/54 178/6/45 179/6/55
f 195/7/48 183/6/51 198/7/50
f 183/6/51 195/7/48 180/6/46
f 179/6/55 189/7/36 197/7/54
f 189/7/36 179/6/55 187/6/38
f 181/5/41 199/8/52 185/5/52
f 199/8/52 181/5/41 192/8/41
f 186/5/33 179/6/26 177/5/24
f 179/6/26 186/5/33 187/6/34
f 203/6/26 202/6/25 201/5/24
f 206/6/29 205/5/28 204/6/27
f 209/5/32 208/6/31 207/6/30
f 212/6/35 211/6/34 210/5/33
f 211/6/38 214/7/37 213/7/36
f 214/7/37 211/6/38 212/6/39
f 215/8/40 205/5/41 210/5/40
f 205/5/41 215/8/40 216/8/41
f 208/6/44 218/7/43 217/7/42
f 218/7/43 208/6/44 202/6/45
f 209/5/32 202/6/25 208/6/31
f 202/6/25 209/5/32 201/5/24
f 219/7/48 206/6/47 204/6/46
f 206/6/47 219/7/48 220/7/49
f 214/7/9 221/7/9 213/7/9
f 221/7/9 214/7/9 218/7/9
f 218/7/9 214/7/9 220/7/9
f 218/7/9 220/7/9 217/7/9
f 217/7/9 220/7/9 219/7/9
f 217/7/9 219/7/9 222/7/9
f 204/6/27 209/5/32 207/6/30
f 209/5/32 204/6/27 205/5/28
f 222/7/50 208/6/44 217/7/42
f 208/6/44 222/7/50 207/6/51
f 210/5/33 206/6/29 212/6/35
f 206/6/29 210/5/33 205/5/28
f 212/6/39 220/7/49 214/7/37
f 220/7/49 212/6/39 206/6/47
f 223/8/52 201/5/53 209/5/52
f 201/5/53 223/8/52 224/8/53
f 215/8/40 201/5/53 224/8/53
f 201/5/53 215/8/40 210/5/40
f 202/6/45 221/7/54 218/7/43
f 221/7/54 202/6/45 203/6/55
f 219/7/48 207/6/51 222/7/50
f 207/6/51 219/7/48 204/6/46
f 203/6/55 213/7/36 221/7/54
f 213/7/36 203/6/55 211/6/38
f 205/5/41 223/8/52 209/5/52
f 223/8/52 205/5/41 216/8/41
f 210/5/33 203/6/26 201/5/24
f 203/6/26 210/5/33 211/6/34
f 227/6/26 226/6/25 225/5/24
f 230/6/29 229/5/28 228/6/27
f 233/5/32 232/6/31 231/6/30
f 236/6/35 235/6/34 234/5/33
f 235/6/38 238/7/37 237/7/36
f 238/7/37 235/6/38 236/6/39
f 239/8/40 229/5/41 234/5/40
f 229/5/41 239/8/40 240/8/41
f 232/6/44 242/7/43 241/7/42
f 242/7/43 232/6/44 226/6/45
f 233/5/32 226/6/25 232/6/31
f 226/6/25 233/5/32 225/5/24
f 243/7/48 230/6/47 228/6/46
f 230/6/47 243/7/48 244/7/49
f 238/7/9 245/7/9 237/7/9
f 245/7/9 238/7/9 242/7/9
f 242/7/9 238/7/9 244/7/9
f 242/7/9 244/7/9 241/7/9
f 241/7/9 244/7/9 243/7/9
f 241/7/9 243/7/9 246/7/9
f 228/6/27 233/5/32 231/6/30
f 233/5/32 228/6/27 229/5/28
f 246/7/50 232/6/44 241/7/42
f 232/6/44 246/7/50 231/6/51
f 234/5/33 230/6/29 236/6/35
f 230/6/29 234/5/33 229/5/28
f 236/6/39 244/7/49 238/7/37
f 244/7/49 236/6/39 230/6/47
f 247/8/52 225/5/53 233/5/52
f 225/5/53 247/8/52 248/8/53
f 239/8/40 225/5/53 248/8/53
f 225/5/53 239/8/40 234/5/40
f 226/6/45 245/7/54 242/7/43
f 245/7/54 226/6/45 227/6/55
f 243/7/48 231/6/51 246/7/50
f 231/6/51 243/7/48 228/6/46
f 227/6/55 237/7/36 245/7/54
f 237/7/36 227/6/55 235/6/38
f 229/5/41 247/8/52 233/5/52
f 247/8/52 229/5/41 240/8/41
f 234/5/33 227/6/26 225/5/24
f 227/6/26 234/5/33 235/6/34
f 251/6/26 250/6/25 249/5/24
f 254/6/29 253/5/28 252/6/27
f 257/5/32 256/6/31 255/6/30
f 260/6/35 259/6/34 258/5/33
f 259/6/38 262/7/37 261/7/36
f 262/7/37 259/6/38 260/6/39
f 263/8/40 253/5/41 258/5/40
f 253/5/41 263/8/40 264/8/41
f 256/6/44 266/7/43 265/7/42
f 266/7/43 256/6/44 250/6/45
f 257/5/32 250/6/25 256/6/31
f 250/6/25 257/5/32 249/5/24
f 267/7/48 254/6/47 252/6/46
f 254/6/47 267/7/48 268/7/49
f 262/7/9 269/7/9 261/7/9
f 269/7/9 262/7/9 266/7/9
f 266/7/9 262/7/9 268/7/9
f 266/7/9 268/7/9 265/7/9
f 265/7/9 268/7/9 267/7/9
f 265/7/9 267/7/9 270/7/9
f 252/6/27 257/5/32 255/6/30
f 257/5/32 252/6/27 253/5/28
f 270/7/50 256/6/44 265/7/42
f 256/6/44 270/7/50 255/6/51
f 258/5/33 254/6/29 260/6/35
f 254/6/29 258/5/33 253/5/28
f 260/6/39 268/7/49 262/7/37
f 268/7/49 260/6/39 254/6/47
f 271/8/52 249/5/53 257/5/52
f 249/5/53 271/8/52 272/8/53
f 263/8/40 249/5/53 272/8/53
f 249/5/53 263/8/40 258/5/40
f 250/6/45 269/7/54 266/7/43
f 269/7/54 250/6/45 251/6/55
f 267/7/48 255/6/51 270/7/50
f 255/6/51 267/7/48 252/6/46
f 251/6/55 261/7/36 269/7/54
f 261/7/36 251/6/55 259/6/38
f 253/5/41 271/8/52 257/5/52
f 271/8/52 253/5/41 264/8/41
f 258/5/33 251/6/26 249/5/24
f 251/6/26 258/5/33 259/6/34
f 275/10/57 274/9/56 273/9/56
f 274/9/56 275/10/57 276/10/57
f 278/9/58 274/9/56 277/9/58
f 274/9/56 278/9/58 273/9/56
f 279/10/59 278/9/58 277/9/58
f 278/9/58 279/10/59 280/10/59
f 274/9/61 282/9/60 281/9/60
f 282/9/60 274/9/61 283/9/61
f 286/9/61 285/10/62 284/9/61
f 285/10/62 286/9/61 287/10/62
f 289/10/63 287/10/62 288/10/63
f 287/10/62 289/10/63 285/10/62
f 276/10/57 280/10/59 279/10/59
f 280/10/59 276/10/57 275/10/57
f 284/9/58 291/10/59 290/9/58
f 291/10/59 284/9/58 285/10/59
f 293/10/63 282/9/60 292/10/63
f 282/9/60 293/10/63 281/9/60
f 288/10/63 294/9/60 289/10/63
f 294/9/60 288/10/63 295/9/60
f 286/9/61 294/9/60 295/9/60
f 294/9/60 286/9/61 284/9/61
f 296/10/57 291/10/59 285/10/59
f 291/10/59 296/10/57 297/10/57
f 290/9/58 298/9/56 284/9/58
f 298/9/56 290/9/58 299/9/56
f 292/10/63 276/10/62 293/10/63
f 276/10/62 292/10/63 300/10/62
f 274/9/61 300/10/62 283/9/61
f 300/10/62 274/9/61 276/10/62
f 299/9/56 296/10/57 298/9/56
f 296/10/57 299/9/56 297/10/57
f 302/9/61 301/9/9 273/9/9
f 301/9/9 302/9/61 303/9/61
f 306/9/61 305/10/62 304/10/62
f 305/10/62 306/9/61 307/9/61
f 310/10/59 309/9/58 308/9/58
f 309/9/58 310/10/59 311/10/59
f 313/10/57 302/9/56 312/9/56
f 302/9/56 313/10/57 314/10/57
f 309/9/58 302/9/56 308/9/58
f 302/9/56 309/9/58 312/9/56
f 316/10/57 315/10/59 304/10/59
f 315/10/59 316/10/57 317/10/57
f 319/9/56 316/10/57 318/9/56
f 316/10/57 319/9/56 317/10/57
f 306/9/58 315/10/59 320/9/58
f 315/10/59 306/9/58 304/10/59
f 291/10/63 305/10/62 321/10/63
f 305/10/62 291/10/63 304/10/62
f 314/10/57 311/10/59 310/10/59
f 311/10/59 314/10/57 313/10/57
f 315/10/63 323/10/62 322/10/63
f 323/10/62 315/10/63 324/10/62
f 320/9/58 318/9/56 306/9/58
f 318/9/56 320/9/58 319/9/56
f 302/9/61 325/10/62 303/9/61
f 325/10/62 302/9/61 314/10/62
f 327/10/63 326/10/62 313/10/63
f 326/10/62 327/10/63 328/10/62
f 307/9/61 290/9/60 329/9/60
f 290/9/60 307/9/61 306/9/61
f 331/9/61 330/9/9 312/9/9
f 330/9/9 331/9/61 332/9/61
f 334/9/61 320/9/60 333/9/60
f 320/9/60 334/9/61 335/9/61
f 336/10/63 314/10/62 275/10/63
f 314/10/62 336/10/63 325/10/62
f 275/10/63 301/9/64 336/10/63
f 301/9/64 275/10/63 273/9/64
f 322/10/63 320/9/60 315/10/63
f 320/9/60 322/10/63 333/9/60
f 331/9/61 328/10/62 332/9/61
f 328/10/62 331/9/61 326/10/62
f 313/10/63 330/9/64 327/10/63
f 330/9/64 313/10/63 312/9/64
f 321/10/63 290/9/60 291/10/63
f 290/9/60 321/10/63 329/9/60
f 335/9/61 323/10/62 324/10/62
f 323/10/62 335/9/61 334/9/61

