# Created by Kenney (www.kenney.nl)

mtllib tent-closed-wide.mtl

g tent-closed-wide

v 1.90625 1.0875 -0.853125 1 1 1
v 1.90625 1.0875 0.853125 1 1 1
v 1.90625 1.2375 -0.853125 1 1 1
v 1.90625 1.2375 0.853125 1 1 1
v -1.90625 1.0875 -0.853125 1 1 1
v -1.80625 1.0875 -0.9531249 1 1 1
v -1.90625 1.2375 -0.853125 1 1 1
v -1.80625 1.2375 -0.9531249 1 1 1
v -1.80625 1.0875 0.9531249 1 1 1
v -1.90625 1.0875 0.853125 1 1 1
v -1.80625 1.2375 0.9531249 1 1 1
v -1.90625 1.2375 0.853125 1 1 1
v 1.80625 1.0875 0.9531249 1 1 1
v 1.80625 1.2375 0.9531249 1 1 1
v 1.80625 1.0875 -0.9531249 1 1 1
v 1.80625 1.2375 -0.9531249 1 1 1
v 1.80625 1.2375 -0.9531249 1 1 1
v 1.85625 1.2375 -0.9031249 1 1 1
v 1.015625 1.9875 -0.06249994 1 1 1
v -1.80625 1.2375 -0.9531249 1 1 1
v -1.015625 1.9875 -0.06249994 1 1 1
v -1.85625 1.2375 -0.9031249 1 1 1
v -1.015625 1.9875 0.06250006 1 1 1
v -1.80625 1.2375 0.9531249 1 1 1
v -1.85625 1.2375 0.9031251 1 1 1
v 1.85625 1.2375 0.9031251 1 1 1
v 1.80625 1.2375 0.9531249 1 1 1
v 1.015625 1.9875 0.06250006 1 1 1
v -1.015625 1.9875 0.0625 1 1 1
v -1.85625 1.2375 0.903125 1 1 1
v -1.90625 1.2375 0.8531249 1 1 1
v 1.90625 1.2375 0.8531249 1 1 1
v 1.85625 1.2375 0.903125 1 1 1
v 1.015625 1.9875 0.0625 1 1 1
v 1.85625 1.2375 -0.903125 1 1 1
v 1.90625 1.2375 -0.853125 1 1 1
v 1.015625 1.9875 -0.06249994 1 1 1
v -1.85625 1.2375 -0.903125 1 1 1
v -1.015625 1.9875 -0.06249994 1 1 1
v -1.90625 1.2375 -0.853125 1 1 1
v 1.775 1.0875 -0.790625 1 1 1
v 1.775 8.121504E-15 -0.790625 1 1 1
v 1.775 1.0875 0.790625 1 1 1
v 1.775 8.121504E-15 0.790625 1 1 1
v -1.74375 1.0875 -0.8218749 1 1 1
v -1.74375 2.447305E-31 -0.8218749 1 1 1
v 1.74375 1.0875 -0.8218752 1 1 1
v 1.74375 -6.569375E-31 -0.8218752 1 1 1
v -1.775 1.0875 -0.790625 1 1 1
v -1.775 -2.454499E-14 -0.790625 1 1 1
v -1.775 1.0875 0.790625 1 1 1
v -1.775 -2.454499E-14 0.790625 1 1 1
v 1.4125 1.0875 0.8218749 1 1 1
v 1.4125 0.9 0.8218749 1 1 1
v 1.74375 1.0875 0.8218748 1 1 1
v 1.41801 0.7853019 0.8218749 1 1 1
v 1.427905 0.6708986 0.8218749 1 1 1
v 1.442172 0.556958 0.8218749 1 1 1
v 1.46079 0.4436468 0.8218749 1 1 1
v 1.483731 0.3311314 0.8218749 1 1 1
v 1.510961 0.2195763 0.8218749 1 1 1
v 1.60169 0.05457263 0.8218749 1 1 1
v 1.660938 4.511947E-16 0.8218748 1 1 1
v 1.74375 -6.726233E-44 0.8218748 1 1 1
v -1.74375 1.0875 0.8218753 1 1 1
v -1.74375 8.301981E-15 0.8218753 1 1 1
v -1.4125 1.0875 0.8218752 1 1 1
v -1.660938 8.753176E-15 0.8218753 1 1 1
v -1.60169 0.05457263 0.8218752 1 1 1
v -1.510961 0.2195763 0.8218752 1 1 1
v -1.483731 0.3311314 0.8218752 1 1 1
v -1.46079 0.4436468 0.8218752 1 1 1
v -1.442172 0.556958 0.8218752 1 1 1
v -1.427905 0.6708986 0.8218752 1 1 1
v -1.41801 0.7853019 0.8218752 1 1 1
v -1.4125 0.9 0.8218752 1 1 1
v 1.74375 0.8765625 0.665625 1 1 1
v 1.80625 0.8765625 0.665625 1 1 1
v 1.74375 0.8765625 0.603125 1 1 1
v 1.80625 0.8765625 0.603125 1 1 1
v 1.716406 0.9664062 0.665625 1 1 1
v 1.716406 0.9664062 0.603125 1 1 1
v 1.74375 0.99375 0.665625 1 1 1
v 1.74375 0.99375 0.603125 1 1 1
v 1.833594 0.9039062 0.665625 1 1 1
v 1.833594 0.9664062 0.665625 1 1 1
v 1.833594 0.9039062 0.603125 1 1 1
v 1.833594 0.9664062 0.603125 1 1 1
v 1.80625 0.99375 0.665625 1 1 1
v 1.80625 0.99375 0.603125 1 1 1
v 1.716406 0.9039062 0.665625 1 1 1
v 1.716406 0.9039062 0.603125 1 1 1
v 1.74375 0.8765625 -0.603125 1 1 1
v 1.80625 0.8765625 -0.603125 1 1 1
v 1.74375 0.8765625 -0.665625 1 1 1
v 1.80625 0.8765625 -0.665625 1 1 1
v 1.716406 0.9664062 -0.603125 1 1 1
v 1.716406 0.9664062 -0.665625 1 1 1
v 1.74375 0.99375 -0.603125 1 1 1
v 1.74375 0.99375 -0.665625 1 1 1
v 1.833594 0.9039062 -0.603125 1 1 1
v 1.833594 0.9664062 -0.603125 1 1 1
v 1.833594 0.9039062 -0.665625 1 1 1
v 1.833594 0.9664062 -0.665625 1 1 1
v 1.80625 0.99375 -0.603125 1 1 1
v 1.80625 0.99375 -0.665625 1 1 1
v 1.716406 0.9039062 -0.603125 1 1 1
v 1.716406 0.9039062 -0.665625 1 1 1
v -1.80625 0.8765625 0.665625 1 1 1
v -1.74375 0.8765625 0.665625 1 1 1
v -1.80625 0.8765625 0.603125 1 1 1
v -1.74375 0.8765625 0.603125 1 1 1
v -1.833594 0.9664062 0.665625 1 1 1
v -1.833594 0.9664062 0.603125 1 1 1
v -1.80625 0.99375 0.665625 1 1 1
v -1.80625 0.99375 0.603125 1 1 1
v -1.716406 0.9039062 0.665625 1 1 1
v -1.716406 0.9664062 0.665625 1 1 1
v -1.716406 0.9039062 0.603125 1 1 1
v -1.716406 0.9664062 0.603125 1 1 1
v -1.74375 0.99375 0.665625 1 1 1
v -1.74375 0.99375 0.603125 1 1 1
v -1.833594 0.9039062 0.665625 1 1 1
v -1.833594 0.9039062 0.603125 1 1 1
v -1.80625 0.8765625 -0.603125 1 1 1
v -1.74375 0.8765625 -0.603125 1 1 1
v -1.80625 0.8765625 -0.665625 1 1 1
v -1.74375 0.8765625 -0.665625 1 1 1
v -1.833594 0.9664062 -0.603125 1 1 1
v -1.833594 0.9664062 -0.665625 1 1 1
v -1.80625 0.99375 -0.603125 1 1 1
v -1.80625 0.99375 -0.665625 1 1 1
v -1.716406 0.9039062 -0.603125 1 1 1
v -1.716406 0.9664062 -0.603125 1 1 1
v -1.716406 0.9039062 -0.665625 1 1 1
v -1.716406 0.9664062 -0.665625 1 1 1
v -1.74375 0.99375 -0.603125 1 1 1
v -1.74375 0.99375 -0.665625 1 1 1
v -1.833594 0.9039062 -0.603125 1 1 1
v -1.833594 0.9039062 -0.665625 1 1 1
v -1.80625 0.1265625 0.665625 1 1 1
v -1.74375 0.1265625 0.665625 1 1 1
v -1.80625 0.1265625 0.603125 1 1 1
v -1.74375 0.1265625 0.603125 1 1 1
v -1.833594 0.2164063 0.665625 1 1 1
v -1.833594 0.2164063 0.603125 1 1 1
v -1.80625 0.24375 0.665625 1 1 1
v -1.80625 0.24375 0.603125 1 1 1
v -1.716406 0.1539063 0.665625 1 1 1
v -1.716406 0.2164063 0.665625 1 1 1
v -1.716406 0.1539063 0.603125 1 1 1
v -1.716406 0.2164063 0.603125 1 1 1
v -1.74375 0.24375 0.665625 1 1 1
v -1.74375 0.24375 0.603125 1 1 1
v -1.833594 0.1539063 0.665625 1 1 1
v -1.833594 0.1539063 0.603125 1 1 1
v 1.74375 0.1265625 0.665625 1 1 1
v 1.80625 0.1265625 0.665625 1 1 1
v 1.74375 0.1265625 0.603125 1 1 1
v 1.80625 0.1265625 0.603125 1 1 1
v 1.716406 0.2164063 0.665625 1 1 1
v 1.716406 0.2164063 0.603125 1 1 1
v 1.74375 0.24375 0.665625 1 1 1
v 1.74375 0.24375 0.603125 1 1 1
v 1.833594 0.1539063 0.665625 1 1 1
v 1.833594 0.2164063 0.665625 1 1 1
v 1.833594 0.1539063 0.603125 1 1 1
v 1.833594 0.2164063 0.603125 1 1 1
v 1.80625 0.24375 0.665625 1 1 1
v 1.80625 0.24375 0.603125 1 1 1
v 1.716406 0.1539063 0.665625 1 1 1
v 1.716406 0.1539063 0.603125 1 1 1
v 1.74375 0.1265625 -0.603125 1 1 1
v 1.80625 0.1265625 -0.603125 1 1 1
v 1.74375 0.1265625 -0.665625 1 1 1
v 1.80625 0.1265625 -0.665625 1 1 1
v 1.716406 0.2164063 -0.603125 1 1 1
v 1.716406 0.2164063 -0.665625 1 1 1
v 1.74375 0.24375 -0.603125 1 1 1
v 1.74375 0.24375 -0.665625 1 1 1
v 1.833594 0.1539063 -0.603125 1 1 1
v 1.833594 0.2164063 -0.603125 1 1 1
v 1.833594 0.1539063 -0.665625 1 1 1
v 1.833594 0.2164063 -0.665625 1 1 1
v 1.80625 0.24375 -0.603125 1 1 1
v 1.80625 0.24375 -0.665625 1 1 1
v 1.716406 0.1539063 -0.603125 1 1 1
v 1.716406 0.1539063 -0.665625 1 1 1
v -1.80625 0.1265625 -0.603125 1 1 1
v -1.74375 0.1265625 -0.603125 1 1 1
v -1.80625 0.1265625 -0.665625 1 1 1
v -1.74375 0.1265625 -0.665625 1 1 1
v -1.833594 0.2164063 -0.603125 1 1 1
v -1.833594 0.2164063 -0.665625 1 1 1
v -1.80625 0.24375 -0.603125 1 1 1
v -1.80625 0.24375 -0.665625 1 1 1
v -1.716406 0.1539063 -0.603125 1 1 1
v -1.716406 0.2164063 -0.603125 1 1 1
v -1.716406 0.1539063 -0.665625 1 1 1
v -1.716406 0.2164063 -0.665625 1 1 1
v -1.74375 0.24375 -0.603125 1 1 1
v -1.74375 0.24375 -0.665625 1 1 1
v -1.833594 0.1539063 -0.603125 1 1 1
v -1.833594 0.1539063 -0.665625 1 1 1
v 1.80625 0.35 -0.853125 1 1 1
v 1.80625 0.2875 -0.884375 1 1 1
v 1.8375 0.2875 -0.853125 1 1 1
v 1.7125 0.2875 -0.790625 1 1 1
v 1.74375 0.35 -0.790625 1 1 1
v 1.74375 0.2875 -0.759375 1 1 1
v 1.7125 0.2875 -0.853125 1 1 1
v 1.74375 0.2875 -0.884375 1 1 1
v 1.74375 0.35 -0.853125 1 1 1
v 1.80625 0.35 -0.790625 1 1 1
v 1.8375 0.2875 -0.790625 1 1 1
v 1.80625 0.2875 -0.759375 1 1 1
v 1.853125 0 -0.7828125 1 1 1
v 1.814062 0 -0.74375 1 1 1
v 1.80625 1.0875 -0.790625 1 1 1
v 1.74375 1.0875 -0.790625 1 1 1
v 1.735937 0 -0.9 1 1 1
v 1.814062 0 -0.9 1 1 1
v 1.696875 0 -0.7828125 1 1 1
v 1.735937 0 -0.74375 1 1 1
v 1.853125 0 -0.8609375 1 1 1
v 1.696875 0 -0.8609375 1 1 1
v 1.74375 1.0875 -0.853125 1 1 1
v 1.80625 1.0875 -0.853125 1 1 1
v -1.74375 0.35 -0.853125 1 1 1
v -1.74375 0.2875 -0.884375 1 1 1
v -1.7125 0.2875 -0.853125 1 1 1
v -1.8375 0.2875 -0.790625 1 1 1
v -1.80625 0.35 -0.790625 1 1 1
v -1.80625 0.2875 -0.759375 1 1 1
v -1.8375 0.2875 -0.853125 1 1 1
v -1.80625 0.2875 -0.884375 1 1 1
v -1.80625 0.35 -0.853125 1 1 1
v -1.74375 0.35 -0.790625 1 1 1
v -1.7125 0.2875 -0.790625 1 1 1
v -1.74375 0.2875 -0.759375 1 1 1
v -1.696875 0 -0.7828125 1 1 1
v -1.735937 0 -0.74375 1 1 1
v -1.74375 1.0875 -0.790625 1 1 1
v -1.80625 1.0875 -0.790625 1 1 1
v -1.814062 0 -0.9 1 1 1
v -1.735937 0 -0.9 1 1 1
v -1.853125 0 -0.7828125 1 1 1
v -1.814062 0 -0.74375 1 1 1
v -1.696875 0 -0.8609375 1 1 1
v -1.853125 0 -0.8609375 1 1 1
v -1.80625 1.0875 -0.853125 1 1 1
v -1.74375 1.0875 -0.853125 1 1 1
v -1.74375 0.35 0.790625 1 1 1
v -1.74375 0.2875 0.759375 1 1 1
v -1.7125 0.2875 0.790625 1 1 1
v -1.8375 0.2875 0.853125 1 1 1
v -1.80625 0.35 0.853125 1 1 1
v -1.80625 0.2875 0.884375 1 1 1
v -1.8375 0.2875 0.790625 1 1 1
v -1.80625 0.2875 0.759375 1 1 1
v -1.80625 0.35 0.790625 1 1 1
v -1.74375 0.35 0.853125 1 1 1
v -1.7125 0.2875 0.853125 1 1 1
v -1.74375 0.2875 0.884375 1 1 1
v -1.696875 0 0.8609375 1 1 1
v -1.735937 0 0.9 1 1 1
v -1.74375 1.0875 0.853125 1 1 1
v -1.80625 1.0875 0.853125 1 1 1
v -1.814062 0 0.74375 1 1 1
v -1.735937 0 0.74375 1 1 1
v -1.853125 0 0.8609375 1 1 1
v -1.814062 0 0.9 1 1 1
v -1.696875 0 0.7828125 1 1 1
v -1.853125 0 0.7828125 1 1 1
v -1.80625 1.0875 0.790625 1 1 1
v -1.74375 1.0875 0.790625 1 1 1
v 1.80625 0.35 0.790625 1 1 1
v 1.80625 0.2875 0.759375 1 1 1
v 1.8375 0.2875 0.790625 1 1 1
v 1.7125 0.2875 0.853125 1 1 1
v 1.74375 0.35 0.853125 1 1 1
v 1.74375 0.2875 0.884375 1 1 1
v 1.7125 0.2875 0.790625 1 1 1
v 1.74375 0.2875 0.759375 1 1 1
v 1.74375 0.35 0.790625 1 1 1
v 1.80625 0.35 0.853125 1 1 1
v 1.8375 0.2875 0.853125 1 1 1
v 1.80625 0.2875 0.884375 1 1 1
v 1.853125 0 0.8609375 1 1 1
v 1.814062 0 0.9 1 1 1
v 1.80625 1.0875 0.853125 1 1 1
v 1.74375 1.0875 0.853125 1 1 1
v 1.735937 0 0.74375 1 1 1
v 1.814062 0 0.74375 1 1 1
v 1.696875 0 0.8609375 1 1 1
v 1.735937 0 0.9 1 1 1
v 1.853125 0 0.7828125 1 1 1
v 1.696875 0 0.7828125 1 1 1
v 1.74375 1.0875 0.790625 1 1 1
v 1.80625 1.0875 0.790625 1 1 1
v 1.74375 0.15 -0.790625 1 1 1
v 1.74375 0.15 -0.853125 1 1 1
v -1.74375 0.15 -0.790625 1 1 1
v -1.74375 0.15 -0.853125 1 1 1
v -1.74375 0.2125 -0.790625 1 1 1
v 1.74375 0.2125 -0.790625 1 1 1
v -1.74375 0.2125 -0.853125 1 1 1
v 1.74375 0.2125 -0.853125 1 1 1
v 1.80625 0.2125 0.790625 1 1 1
v 1.74375 0.2125 0.790625 1 1 1
v 1.80625 0.2125 -0.790625 1 1 1
v 1.80625 0.15 -0.790625 1 1 1
v 1.80625 0.15 0.790625 1 1 1
v 1.74375 0.15 0.790625 1 1 1
v -1.74375 0.2125 0.790625 1 1 1
v -1.80625 0.2125 0.790625 1 1 1
v -1.80625 0.2125 -0.790625 1 1 1
v -1.80625 0.15 -0.790625 1 1 1
v -1.80625 0.15 0.790625 1 1 1
v -1.74375 0.15 0.790625 1 1 1
v 1.74375 0.9 -0.790625 1 1 1
v 1.74375 0.9 -0.853125 1 1 1
v -1.74375 0.9 -0.790625 1 1 1
v -1.74375 0.9 -0.853125 1 1 1
v -1.74375 0.9625 -0.790625 1 1 1
v 1.74375 0.9625 -0.790625 1 1 1
v -1.74375 0.9625 -0.853125 1 1 1
v 1.74375 0.9625 -0.853125 1 1 1
v 1.80625 0.9625 0.790625 1 1 1
v 1.74375 0.9625 0.790625 1 1 1
v 1.80625 0.9625 -0.790625 1 1 1
v 1.80625 0.9 -0.790625 1 1 1
v 1.80625 0.9 0.790625 1 1 1
v 1.74375 0.9 0.790625 1 1 1
v -1.74375 0.9625 0.790625 1 1 1
v -1.80625 0.9625 0.790625 1 1 1
v -1.80625 0.9625 -0.790625 1 1 1
v -1.80625 0.9 -0.790625 1 1 1
v -1.80625 0.9 0.790625 1 1 1
v -1.74375 0.9 0.790625 1 1 1
v 1.74375 0.9625 0.853125 1 1 1
v -1.74375 0.9625 0.853125 1 1 1
v -1.74375 0.9 0.853125 1 1 1
v 1.74375 0.9 0.853125 1 1 1

vn 0.9238795 0 -0.3826834
vn 0.9238795 0 0.3826834
vn -0.9238795 0 -0.3826834
vn -0.3826834 0 -0.9238795
vn -0.3826834 0 0.9238795
vn -0.9238795 0 0.3826834
vn 0.3826834 0 0.9238795
vn 0.3826834 0 -0.9238795
vn 0 -1 0
vn 0.2362194 0.8363866 -0.4946291
vn 0.3772894 0.8457572 -0.3772894
vn 0.008572472 0.7686196 -0.6396487
vn -0.2362194 0.8363866 -0.4946291
vn -0.008572472 0.7686196 -0.6396487
vn -0.3772894 0.8457572 -0.3772894
vn -0.008572472 0.7686196 0.6396487
vn -0.2362194 0.8363866 0.4946291
vn -0.3772894 0.8457572 0.3772894
vn 0.3772894 0.8457572 0.3772894
vn 0.2362194 0.8363866 0.4946291
vn 0.008572472 0.7686196 0.6396487
vn 0 1 0
vn -0.6396487 0.7686196 0.008572472
vn -0.4946291 0.8363866 0.2362194
vn 0.4946291 0.8363866 0.2362194
vn 0.6396487 0.7686196 0.008572472
vn 0.4946291 0.8363866 -0.2362194
vn 0.6396487 0.7686196 -0.008572472
vn -0.6396487 0.7686196 -0.008572472
vn -0.4946291 0.8363866 -0.2362194
vn 1 0 0
vn -1 0 0
vn -1.192093E-07 -9.860762E-32 -1
vn 1.192093E-07 9.860762E-32 1
vn -0.3826835 -0.9238795 -4.561942E-08
vn 0.3826835 -0.9238795 4.561942E-08
vn -0.9238796 0.3826834 -1.10135E-07
vn -0.3826835 0.9238795 -4.561942E-08
vn 0.9238796 -0.3826834 1.10135E-07
vn 0.9238796 0.3826834 1.10135E-07
vn 0.3826835 0.9238795 4.561942E-08
vn -0.9238796 -0.3826834 -1.10135E-07
vn -1.192093E-07 0 1
vn 1.192093E-07 0 -1
vn 0.5997861 0.5296351 -0.5997861
vn 0.315808 0.4243266 -0.8486531
vn 0.8486531 0.4243266 -0.315808
vn -0.8486531 0.4243266 0.315808
vn -0.5997861 0.5296351 0.5997861
vn -0.315808 0.4243266 0.8486531
vn -0.8486531 0.4243266 -0.315808
vn -0.315808 0.4243266 -0.8486531
vn -0.5997861 0.5296351 -0.5997861
vn 0.5997861 0.5296351 0.5997861
vn 0.8486531 0.4243266 0.315808
vn 0.315808 0.4243266 0.8486531
vn 0.9217949 0.06050319 0.3829277
vn 0.3829277 0.06050319 0.9217949
vn 0.9225959 0.0604942 0.380995
vn 0.380995 0.0604942 0.9225959
vn 0.7071068 0 0.7071068
vn -0.7071068 0 0.7071068
vn -0.3829277 0.06050319 -0.9217949
vn 0.3829277 0.06050319 -0.9217949
vn -0.380995 0.0604942 -0.9225959
vn 0.380995 0.0604942 -0.9225959
vn -0.9225959 0.0604942 0.380995
vn -0.380995 0.0604942 0.9225959
vn -0.9217949 0.06050319 0.3829277
vn -0.3829277 0.06050319 0.9217949
vn -0.9217949 0.06050319 -0.3829277
vn -0.9225959 0.0604942 -0.380995
vn -0.7071068 0 -0.7071068
vn 0.7071068 0 -0.7071068
vn 0.9217949 0.06050319 -0.3829277
vn 0.9225959 0.0604942 -0.380995
vn 0 -0.7071068 0.7071068
vn 0 -0.7071068 -0.7071068
vn 0 0.7071068 0.7071068
vn 0 0.7071068 -0.7071068
vn 0.7071068 0.7071068 0
vn -0.7071068 0.7071068 0
vn 0.7071068 -0.7071068 0
vn -0.7071068 -0.7071068 0

vt 0.21875 0.395
vt 0.21875 0.475
vt 0.21875 0.355
vt 0.21875 0.275
vt 0.21875 0.325
vt 0.21875 0.425
vt 0.21875 0.3422414
vt 0.21875 0.3527883
vt 0.21875 0.3633082
vt 0.21875 0.3737855
vt 0.21875 0.3842049
vt 0.21875 0.3945511
vt 0.21875 0.4048091
vt 0.21875 0.4199818
vt 0.21875 0.4016666
vt 0.21875 0.3483333
vt 0.46875 0.1606322
vt 0.46875 0.1721264
vt 0.46875 0.225
vt 0.46875 0.025
vt 0.46875 0.075
vt 0.46875 0.175

usemtl colormap

f 3/2/1 2/1/2 1/1/1
f 2/1/2 3/2/1 4/2/2
f 7/2/3 6/1/4 5/1/3
f 6/1/4 7/2/3 8/2/4
f 11/2/5 10/1/6 9/1/5
f 10/1/6 11/2/5 12/2/6
f 10/1/6 7/2/3 5/1/3
f 7/2/3 10/1/6 12/2/6
f 4/2/2 13/1/7 2/1/2
f 13/1/7 4/2/2 14/2/7
f 16/2/8 1/1/1 15/1/8
f 1/1/1 16/2/8 3/2/1
f 8/2/4 15/1/8 6/1/4
f 15/1/8 8/2/4 16/2/8
f 14/2/7 9/1/5 13/1/7
f 9/1/5 14/2/7 11/2/5
f 13/1/9 1/1/9 2/1/9
f 1/1/9 13/1/9 15/1/9
f 15/1/9 13/1/9 9/1/9
f 15/1/9 9/1/9 6/1/9
f 6/1/9 9/1/9 10/1/9
f 6/1/9 10/1/9 5/1/9
f 19/2/12 18/1/11 17/1/10
f 22/1/15 21/2/14 20/1/13
f 25/1/18 24/1/17 23/2/16
f 28/2/21 27/1/20 26/1/19
f 20/1/13 19/2/12 17/1/10
f 19/2/12 20/1/13 21/2/14
f 28/2/21 24/1/17 27/1/20
f 24/1/17 28/2/21 23/2/16
f 21/2/22 28/2/22 19/2/22
f 28/2/22 21/2/22 23/2/22
f 31/4/24 30/4/18 29/3/23
f 34/3/26 33/4/19 32/4/25
f 37/3/28 36/4/27 35/4/11
f 40/4/30 39/3/29 38/4/15
f 40/4/30 29/3/23 39/3/29
f 29/3/23 40/4/30 31/4/24
f 37/3/28 32/4/25 36/4/27
f 32/4/25 37/3/28 34/3/26
f 43/5/31 42/6/31 41/5/31
f 42/6/31 43/5/31 44/6/31
f 41/5/32 42/6/32 43/5/32
f 44/6/32 43/5/32 42/6/32
f 47/5/33 46/6/33 45/5/33
f 46/6/33 47/5/33 48/6/33
f 45/5/34 46/6/34 47/5/34
f 48/6/34 47/5/34 46/6/34
f 51/5/31 50/6/31 49/5/31
f 50/6/31 51/5/31 52/6/31
f 49/5/32 50/6/32 51/5/32
f 52/6/32 51/5/32 50/6/32
f 55/5/33 54/7/33 53/5/33
f 54/7/33 55/5/33 56/8/33
f 56/8/33 55/5/33 57/9/33
f 57/9/33 55/5/33 58/10/33
f 58/10/33 55/5/33 59/11/33
f 59/11/33 55/5/33 60/12/33
f 60/12/33 55/5/33 61/13/33
f 61/13/33 55/5/33 62/14/33
f 62/14/33 55/5/33 63/6/33
f 63/6/33 55/5/33 64/6/33
f 53/5/34 54/7/34 55/5/34
f 56/8/34 55/5/34 54/7/34
f 57/9/34 55/5/34 56/8/34
f 58/10/34 55/5/34 57/9/34
f 59/11/34 55/5/34 58/10/34
f 60/12/34 55/5/34 59/11/34
f 61/13/34 55/5/34 60/12/34
f 62/14/34 55/5/34 61/13/34
f 63/6/34 55/5/34 62/14/34
f 64/6/34 55/5/34 63/6/34
f 67/5/33 66/6/33 65/5/33
f 66/6/33 67/5/33 68/6/33
f 68/6/33 67/5/33 69/14/33
f 69/14/33 67/5/33 70/13/33
f 70/13/33 67/5/33 71/12/33
f 71/12/33 67/5/33 72/11/33
f 72/11/33 67/5/33 73/10/33
f 73/10/33 67/5/33 74/9/33
f 74/9/33 67/5/33 75/8/33
f 75/8/33 67/5/33 76/7/33
f 65/5/34 66/6/34 67/5/34
f 68/6/34 67/5/34 66/6/34
f 69/14/34 67/5/34 68/6/34
f 70/13/34 67/5/34 69/14/34
f 71/12/34 67/5/34 70/13/34
f 72/11/34 67/5/34 71/12/34
f 73/10/34 67/5/34 72/11/34
f 74/9/34 67/5/34 73/10/34
f 75/8/34 67/5/34 74/9/34
f 76/7/34 67/5/34 75/8/34
f 79/5/35 78/5/36 77/5/35
f 78/5/36 79/5/35 80/5/36
f 83/6/38 82/15/37 81/15/37
f 82/15/37 83/6/38 84/6/38
f 87/16/39 86/15/40 85/16/39
f 86/15/40 87/16/39 88/15/40
f 88/15/40 89/6/41 86/15/40
f 89/6/41 88/15/40 90/6/41
f 80/5/36 85/16/39 78/5/36
f 85/16/39 80/5/36 87/16/39
f 91/16/42 79/5/35 77/5/35
f 79/5/35 91/16/42 92/16/42
f 89/6/43 85/16/43 86/15/43
f 85/16/43 89/6/43 78/5/43
f 78/5/43 89/6/43 83/6/43
f 78/5/43 83/6/43 77/5/43
f 77/5/43 83/6/43 91/16/43
f 91/16/43 83/6/43 81/15/43
f 81/15/37 92/16/42 91/16/42
f 92/16/42 81/15/37 82/15/37
f 90/6/41 83/6/38 89/6/41
f 83/6/38 90/6/41 84/6/38
f 80/5/44 88/15/44 87/16/44
f 88/15/44 80/5/44 90/6/44
f 90/6/44 80/5/44 84/6/44
f 84/6/44 80/5/44 79/5/44
f 84/6/44 79/5/44 92/16/44
f 84/6/44 92/16/44 82/15/44
f 95/5/35 94/5/36 93/5/35
f 94/5/36 95/5/35 96/5/36
f 99/6/38 98/15/37 97/15/37
f 98/15/37 99/6/38 100/6/38
f 103/16/39 102/15/40 101/16/39
f 102/15/40 103/16/39 104/15/40
f 104/15/40 105/6/41 102/15/40
f 105/6/41 104/15/40 106/6/41
f 96/5/36 101/16/39 94/5/36
f 101/16/39 96/5/36 103/16/39
f 107/16/42 95/5/35 93/5/35
f 95/5/35 107/16/42 108/16/42
f 105/6/43 101/16/43 102/15/43
f 101/16/43 105/6/43 94/5/43
f 94/5/43 105/6/43 99/6/43
f 94/5/43 99/6/43 93/5/43
f 93/5/43 99/6/43 107/16/43
f 107/16/43 99/6/43 97/15/43
f 97/15/37 108/16/42 107/16/42
f 108/16/42 97/15/37 98/15/37
f 106/6/41 99/6/38 105/6/41
f 99/6/38 106/6/41 100/6/38
f 96/5/44 104/15/44 103/16/44
f 104/15/44 96/5/44 106/6/44
f 106/6/44 96/5/44 100/6/44
f 100/6/44 96/5/44 95/5/44
f 100/6/44 95/5/44 108/16/44
f 100/6/44 108/16/44 98/15/44
f 111/5/35 110/5/36 109/5/35
f 110/5/36 111/5/35 112/5/36
f 115/6/38 114/15/37 113/15/37
f 114/15/37 115/6/38 116/6/38
f 119/16/39 118/15/40 117/16/39
f 118/15/40 119/16/39 120/15/40
f 120/15/40 121/6/41 118/15/40
f 121/6/41 120/15/40 122/6/41
f 112/5/36 117/16/39 110/5/36
f 117/16/39 112/5/36 119/16/39
f 123/16/42 111/5/35 109/5/35
f 111/5/35 123/16/42 124/16/42
f 121/6/43 117/16/43 118/15/43
f 117/16/43 121/6/43 110/5/43
f 110/5/43 121/6/43 115/6/43
f 110/5/43 115/6/43 109/5/43
f 109/5/43 115/6/43 123/16/43
f 123/16/43 115/6/43 113/15/43
f 113/15/37 124/16/42 123/16/42
f 124/16/42 113/15/37 114/15/37
f 122/6/41 115/6/38 121/6/41
f 115/6/38 122/6/41 116/6/38
f 112/5/44 120/15/44 119/16/44
f 120/15/44 112/5/44 122/6/44
f 122/6/44 112/5/44 116/6/44
f 116/6/44 112/5/44 111/5/44
f 116/6/44 111/5/44 124/16/44
f 116/6/44 124/16/44 114/15/44
f 127/5/35 126/5/36 125/5/35
f 126/5/36 127/5/35 128/5/36
f 131/6/38 130/15/37 129/15/37
f 130/15/37 131/6/38 132/6/38
f 135/16/39 134/15/40 133/16/39
f 134/15/40 135/16/39 136/15/40
f 136/15/40 137/6/41 134/15/40
f 137/6/41 136/15/40 138/6/41
f 128/5/36 133/16/39 126/5/36
f 133/16/39 128/5/36 135/16/39
f 139/16/42 127/5/35 125/5/35
f 127/5/35 139/16/42 140/16/42
f 137/6/43 133/16/43 134/15/43
f 133/16/43 137/6/43 126/5/43
f 126/5/43 137/6/43 131/6/43
f 126/5/43 131/6/43 125/5/43
f 125/5/43 131/6/43 139/16/43
f 139/16/43 131/6/43 129/15/43
f 129/15/37 140/16/42 139/16/42
f 140/16/42 129/15/37 130/15/37
f 138/6/41 131/6/38 137/6/41
f 131/6/38 138/6/41 132/6/38
f 128/5/44 136/15/44 135/16/44
f 136/15/44 128/5/44 138/6/44
f 138/6/44 128/5/44 132/6/44
f 132/6/44 128/5/44 127/5/44
f 132/6/44 127/5/44 140/16/44
f 132/6/44 140/16/44 130/15/44
f 143/5/35 142/5/36 141/5/35
f 142/5/36 143/5/35 144/5/36
f 147/6/38 146/15/37 145/15/37
f 146/15/37 147/6/38 148/6/38
f 151/16/39 150/15/40 149/16/39
f 150/15/40 151/16/39 152/15/40
f 152/15/40 153/6/41 150/15/40
f 153/6/41 152/15/40 154/6/41
f 144/5/36 149/16/39 142/5/36
f 149/16/39 144/5/36 151/16/39
f 155/16/42 143/5/35 141/5/35
f 143/5/35 155/16/42 156/16/42
f 153/6/43 149/16/43 150/15/43
f 149/16/43 153/6/43 142/5/43
f 142/5/43 153/6/43 147/6/43
f 142/5/43 147/6/43 141/5/43
f 141/5/43 147/6/43 155/16/43
f 155/16/43 147/6/43 145/15/43
f 145/15/37 156/16/42 155/16/42
f 156/16/42 145/15/37 146/15/37
f 154/6/41 147/6/38 153/6/41
f 147/6/38 154/6/41 148/6/38
f 144/5/44 152/15/44 151/16/44
f 152/15/44 144/5/44 154/6/44
f 154/6/44 144/5/44 148/6/44
f 148/6/44 144/5/44 143/5/44
f 148/6/44 143/5/44 156/16/44
f 148/6/44 156/16/44 146/15/44
f 159/5/35 158/5/36 157/5/35
f 158/5/36 159/5/35 160/5/36
f 163/6/38 162/15/37 161/15/37
f 162/15/37 163/6/38 164/6/38
f 167/16/39 166/15/40 165/16/39
f 166/15/40 167/16/39 168/15/40
f 168/15/40 169/6/41 166/15/40
f 169/6/41 168/15/40 170/6/41
f 160/5/36 165/16/39 158/5/36
f 165/16/39 160/5/36 167/16/39
f 171/16/42 159/5/35 157/5/35
f 159/5/35 171/16/42 172/16/42
f 169/6/43 165/16/43 166/15/43
f 165/16/43 169/6/43 158/5/43
f 158/5/43 169/6/43 163/6/43
f 158/5/43 163/6/43 157/5/43
f 157/5/43 163/6/43 161/15/43
f 157/5/43 161/15/43 171/16/43
f 161/15/37 172/16/42 171/16/42
f 172/16/42 161/15/37 162/15/37
f 169/6/41 164/6/38 163/6/38
f 164/6/38 169/6/41 170/6/41
f 160/5/44 168/15/44 167/16/44
f 168/15/44 160/5/44 170/6/44
f 170/6/44 160/5/44 159/5/44
f 170/6/44 159/5/44 164/6/44
f 164/6/44 159/5/44 172/16/44
f 164/6/44 172/16/44 162/15/44
f 175/5/35 174/5/36 173/5/35
f 174/5/36 175/5/35 176/5/36
f 179/6/38 178/15/37 177/15/37
f 178/15/37 179/6/38 180/6/38
f 183/16/39 182/15/40 181/16/39
f 182/15/40 183/16/39 184/15/40
f 184/15/40 185/6/41 182/15/40
f 185/6/41 184/15/40 186/6/41
f 176/5/36 181/16/39 174/5/36
f 181/16/39 176/5/36 183/16/39
f 187/16/42 175/5/35 173/5/35
f 175/5/35 187/16/42 188/16/42
f 185/6/43 181/16/43 182/15/43
f 181/16/43 185/6/43 174/5/43
f 174/5/43 185/6/43 179/6/43
f 174/5/43 179/6/43 173/5/43
f 173/5/43 179/6/43 187/16/43
f 187/16/43 179/6/43 177/15/43
f 177/15/37 188/16/42 187/16/42
f 188/16/42 177/15/37 178/15/37
f 186/6/41 179/6/38 185/6/41
f 179/6/38 186/6/41 180/6/38
f 176/5/44 184/15/44 183/16/44
f 184/15/44 176/5/44 186/6/44
f 186/6/44 176/5/44 180/6/44
f 180/6/44 176/5/44 175/5/44
f 180/6/44 175/5/44 188/16/44
f 180/6/44 188/16/44 178/15/44
f 191/5/35 190/5/36 189/5/35
f 190/5/36 191/5/35 192/5/36
f 195/6/38 194/15/37 193/15/37
f 194/15/37 195/6/38 196/6/38
f 199/16/39 198/15/40 197/16/39
f 198/15/40 199/16/39 200/15/40
f 200/15/40 201/6/41 198/15/40
f 201/6/41 200/15/40 202/6/41
f 192/5/36 197/16/39 190/5/36
f 197/16/39 192/5/36 199/16/39
f 203/16/42 191/5/35 189/5/35
f 191/5/35 203/16/42 204/16/42
f 201/6/43 197/16/43 198/15/43
f 197/16/43 201/6/43 190/5/43
f 190/5/43 201/6/43 195/6/43
f 190/5/43 195/6/43 189/5/43
f 189/5/43 195/6/43 203/16/43
f 203/16/43 195/6/43 193/15/43
f 193/15/37 204/16/42 203/16/42
f 204/16/42 193/15/37 194/15/37
f 202/6/41 195/6/38 201/6/41
f 195/6/38 202/6/41 196/6/38
f 192/5/44 200/15/44 199/16/44
f 200/15/44 192/5/44 202/6/44
f 202/6/44 192/5/44 196/6/44
f 196/6/44 192/5/44 191/5/44
f 196/6/44 191/5/44 204/16/44
f 196/6/44 204/16/44 194/15/44
f 207/18/47 206/18/46 205/17/45
f 210/18/50 209/17/49 208/18/48
f 213/17/53 212/18/52 211/18/51
f 216/18/56 215/18/55 214/17/54
f 215/18/59 218/19/58 217/19/57
f 218/19/58 215/18/59 216/18/60
f 219/20/61 209/17/62 214/17/61
f 209/17/62 219/20/61 220/20/62
f 212/18/65 222/19/64 221/19/63
f 222/19/64 212/18/65 206/18/66
f 213/17/53 206/18/46 212/18/52
f 206/18/46 213/17/53 205/17/45
f 223/19/69 210/18/68 208/18/67
f 210/18/68 223/19/69 224/19/70
f 218/19/9 225/19/9 217/19/9
f 225/19/9 218/19/9 222/19/9
f 222/19/9 218/19/9 224/19/9
f 222/19/9 224/19/9 221/19/9
f 221/19/9 224/19/9 223/19/9
f 221/19/9 223/19/9 226/19/9
f 208/18/48 213/17/53 211/18/51
f 213/17/53 208/18/48 209/17/49
f 226/19/71 212/18/65 221/19/63
f 212/18/65 226/19/71 211/18/72
f 214/17/54 210/18/50 216/18/56
f 210/18/50 214/17/54 209/17/49
f 216/18/60 224/19/70 218/19/58
f 224/19/70 216/18/60 210/18/68
f 227/20/73 205/17/74 213/17/73
f 205/17/74 227/20/73 228/20/74
f 219/20/61 205/17/74 228/20/74
f 205/17/74 219/20/61 214/17/61
f 206/18/66 225/19/75 222/19/64
f 225/19/75 206/18/66 207/18/76
f 223/19/69 211/18/72 226/19/71
f 211/18/72 223/19/69 208/18/67
f 207/18/76 217/19/57 225/19/75
f 217/19/57 207/18/76 215/18/59
f 209/17/62 227/20/73 213/17/73
f 227/20/73 209/17/62 220/20/62
f 214/17/54 207/18/47 205/17/45
f 207/18/47 214/17/54 215/18/55
f 231/18/47 230/18/46 229/17/45
f 234/18/50 233/17/49 232/18/48
f 237/17/53 236/18/52 235/18/51
f 240/18/56 239/18/55 238/17/54
f 239/18/59 242/19/58 241/19/57
f 242/19/58 239/18/59 240/18/60
f 243/20/61 233/17/62 238/17/61
f 233/17/62 243/20/61 244/20/62
f 236/18/65 246/19/64 245/19/63
f 246/19/64 236/18/65 230/18/66
f 237/17/53 230/18/46 236/18/52
f 230/18/46 237/17/53 229/17/45
f 247/19/69 234/18/68 232/18/67
f 234/18/68 247/19/69 248/19/70
f 242/19/9 249/19/9 241/19/9
f 249/19/9 242/19/9 246/19/9
f 246/19/9 242/19/9 248/19/9
f 246/19/9 248/19/9 245/19/9
f 245/19/9 248/19/9 247/19/9
f 245/19/9 247/19/9 250/19/9
f 232/18/48 237/17/53 235/18/51
f 237/17/53 232/18/48 233/17/49
f 250/19/71 236/18/65 245/19/63
f 236/18/65 250/19/71 235/18/72
f 238/17/54 234/18/50 240/18/56
f 234/18/50 238/17/54 233/17/49
f 240/18/60 248/19/70 242/19/58
f 248/19/70 240/18/60 234/18/68
f 251/20/73 229/17/74 237/17/73
f 229/17/74 251/20/73 252/20/74
f 243/20/61 229/17/74 252/20/74
f 229/17/74 243/20/61 238/17/61
f 230/18/66 249/19/75 246/19/64
f 249/19/75 230/18/66 231/18/76
f 247/19/69 235/18/72 250/19/71
f 235/18/72 247/19/69 232/18/67
f 231/18/76 241/19/57 249/19/75
f 241/19/57 231/18/76 239/18/59
f 233/17/62 251/20/73 237/17/73
f 251/20/73 233/17/62 244/20/62
f 238/17/54 231/18/47 229/17/45
f 231/18/47 238/17/54 239/18/55
f 255/18/47 254/18/46 253/17/45
f 258/18/50 257/17/49 256/18/48
f 261/17/53 260/18/52 259/18/51
f 264/18/56 263/18/55 262/17/54
f 263/18/59 266/19/58 265/19/57
f 266/19/58 263/18/59 264/18/60
f 267/20/61 257/17/62 262/17/61
f 257/17/62 267/20/61 268/20/62
f 260/18/65 270/19/64 269/19/63
f 270/19/64 260/18/65 254/18/66
f 261/17/53 254/18/46 260/18/52
f 254/18/46 261/17/53 253/17/45
f 271/19/69 258/18/68 256/18/67
f 258/18/68 271/19/69 272/19/70
f 266/19/9 273/19/9 265/19/9
f 273/19/9 266/19/9 270/19/9
f 270/19/9 266/19/9 272/19/9
f 270/19/9 272/19/9 269/19/9
f 269/19/9 272/19/9 271/19/9
f 269/19/9 271/19/9 274/19/9
f 256/18/48 261/17/53 259/18/51
f 261/17/53 256/18/48 257/17/49
f 274/19/71 260/18/65 269/19/63
f 260/18/65 274/19/71 259/18/72
f 262/17/54 258/18/50 264/18/56
f 258/18/50 262/17/54 257/17/49
f 264/18/60 272/19/70 266/19/58
f 272/19/70 264/18/60 258/18/68
f 275/20/73 253/17/74 261/17/73
f 253/17/74 275/20/73 276/20/74
f 267/20/61 253/17/74 276/20/74
f 253/17/74 267/20/61 262/17/61
f 254/18/66 273/19/75 270/19/64
f 273/19/75 254/18/66 255/18/76
f 271/19/69 259/18/72 274/19/71
f 259/18/72 271/19/69 256/18/67
f 255/18/76 265/19/57 273/19/75
f 265/19/57 255/18/76 263/18/59
f 257/17/62 275/20/73 261/17/73
f 275/20/73 257/17/62 268/20/62
f 262/17/54 255/18/47 253/17/45
f 255/18/47 262/17/54 263/18/55
f 279/18/47 278/18/46 277/17/45
f 282/18/50 281/17/49 280/18/48
f 285/17/53 284/18/52 283/18/51
f 288/18/56 287/18/55 286/17/54
f 287/18/59 290/19/58 289/19/57
f 290/19/58 287/18/59 288/18/60
f 291/20/61 281/17/62 286/17/61
f 281/17/62 291/20/61 292/20/62
f 284/18/65 294/19/64 293/19/63
f 294/19/64 284/18/65 278/18/66
f 285/17/53 278/18/46 284/18/52
f 278/18/46 285/17/53 277/17/45
f 295/19/69 282/18/68 280/18/67
f 282/18/68 295/19/69 296/19/70
f 290/19/9 297/19/9 289/19/9
f 297/19/9 290/19/9 294/19/9
f 294/19/9 290/19/9 296/19/9
f 294/19/9 296/19/9 293/19/9
f 293/19/9 296/19/9 295/19/9
f 293/19/9 295/19/9 298/19/9
f 280/18/48 285/17/53 283/18/51
f 285/17/53 280/18/48 281/17/49
f 298/19/71 284/18/65 293/19/63
f 284/18/65 298/19/71 283/18/72
f 286/17/54 282/18/50 288/18/56
f 282/18/50 286/17/54 281/17/49
f 288/18/60 296/19/70 290/19/58
f 296/19/70 288/18/60 282/18/68
f 299/20/73 277/17/74 285/17/73
f 277/17/74 299/20/73 300/20/74
f 291/20/61 277/17/74 300/20/74
f 277/17/74 291/20/61 286/17/61
f 278/18/66 297/19/75 294/19/64
f 297/19/75 278/18/66 279/18/76
f 295/19/69 283/18/72 298/19/71
f 283/18/72 295/19/69 280/18/67
f 279/18/76 289/19/57 297/19/75
f 289/19/57 279/18/76 287/18/59
f 281/17/62 299/20/73 285/17/73
f 299/20/73 281/17/62 292/20/62
f 286/17/54 279/18/47 277/17/45
f 279/18/47 286/17/54 287/18/55
f 303/21/77 302/21/78 301/21/77
f 302/21/78 303/21/77 304/21/78
f 301/21/77 305/22/79 303/21/77
f 305/22/79 301/21/77 306/22/79
f 307/22/80 302/21/78 304/21/78
f 302/21/78 307/22/80 308/22/80
f 307/22/80 306/22/79 308/22/80
f 306/22/79 307/22/80 305/22/79
f 311/22/81 310/22/82 309/22/81
f 310/22/82 311/22/81 306/22/82
f 309/22/81 312/21/83 311/22/81
f 312/21/83 309/22/81 313/21/83
f 314/21/84 306/22/82 301/21/84
f 306/22/82 314/21/84 310/22/82
f 314/21/84 312/21/83 313/21/83
f 312/21/83 314/21/84 301/21/84
f 305/22/81 316/22/82 315/22/81
f 316/22/82 305/22/81 317/22/82
f 318/21/84 316/22/82 317/22/82
f 316/22/82 318/21/84 319/21/84
f 315/22/81 303/21/83 305/22/81
f 303/21/83 315/22/81 320/21/83
f 319/21/84 303/21/83 320/21/83
f 303/21/83 319/21/84 318/21/84
f 323/21/77 322/21/78 321/21/77
f 322/21/78 323/21/77 324/21/78
f 321/21/77 325/22/79 323/21/77
f 325/22/79 321/21/77 326/22/79
f 327/22/80 322/21/78 324/21/78
f 322/21/78 327/22/80 328/22/80
f 327/22/80 326/22/79 328/22/80
f 326/22/79 327/22/80 325/22/79
f 331/22/81 330/22/82 329/22/81
f 330/22/82 331/22/81 326/22/82
f 329/22/81 332/21/83 331/22/81
f 332/21/83 329/22/81 333/21/83
f 334/21/84 326/22/82 321/21/84
f 326/22/82 334/21/84 330/22/82
f 334/21/84 332/21/83 333/21/83
f 332/21/83 334/21/84 321/21/84
f 325/22/81 336/22/82 335/22/81
f 336/22/82 325/22/81 337/22/82
f 338/21/84 336/22/82 337/22/82
f 336/22/82 338/21/84 339/21/84
f 335/22/81 323/21/83 325/22/81
f 323/21/83 335/22/81 340/21/83
f 339/21/84 323/21/83 340/21/83
f 323/21/83 339/21/84 338/21/84
f 335/22/80 341/22/79 330/22/80
f 341/22/79 335/22/80 342/22/79
f 344/21/77 342/22/79 343/21/77
f 342/22/79 344/21/77 341/22/79
f 343/21/77 334/21/78 344/21/77
f 334/21/78 343/21/77 340/21/78
f 335/22/80 334/21/78 340/21/78
f 334/21/78 335/22/80 330/22/80

g tent-closed-wide




usemtl colormap

f 3/2/1 2/1/2 1/1/1
f 2/1/2 3/2/1 4/2/2
f 7/2/3 6/1/4 5/1/3
f 6/1/4 7/2/3 8/2/4
f 11/2/5 10/1/6 9/1/5
f 10/1/6 11/2/5 12/2/6
f 10/1/6 7/2/3 5/1/3
f 7/2/3 10/1/6 12/2/6
f 4/2/2 13/1/7 2/1/2
f 13/1/7 4/2/2 14/2/7
f 16/2/8 1/1/1 15/1/8
f 1/1/1 16/2/8 3/2/1
f 8/2/4 15/1/8 6/1/4
f 15/1/8 8/2/4 16/2/8
f 14/2/7 9/1/5 13/1/7
f 9/1/5 14/2/7 11/2/5
f 13/1/9 1/1/9 2/1/9
f 1/1/9 13/1/9 15/1/9
f 15/1/9 13/1/9 9/1/9
f 15/1/9 9/1/9 6/1/9
f 6/1/9 9/1/9 10/1/9
f 6/1/9 10/1/9 5/1/9
f 19/2/12 18/1/11 17/1/10
f 22/1/15 21/2/14 20/1/13
f 25/1/18 24/1/17 23/2/16
f 28/2/21 27/1/20 26/1/19
f 20/1/13 19/2/12 17/1/10
f 19/2/12 20/1/13 21/2/14
f 28/2/21 24/1/17 27/1/20
f 24/1/17 28/2/21 23/2/16
f 21/2/22 28/2/22 19/2/22
f 28/2/22 21/2/22 23/2/22
f 31/4/24 30/4/18 29/3/23
f 34/3/26 33/4/19 32/4/25
f 37/3/28 36/4/27 35/4/11
f 40/4/30 39/3/29 38/4/15
f 40/4/30 29/3/23 39/3/29
f 29/3/23 40/4/30 31/4/24
f 37/3/28 32/4/25 36/4/27
f 32/4/25 37/3/28 34/3/26
f 43/5/31 42/6/31 41/5/31
f 42/6/31 43/5/31 44/6/31
f 41/5/32 42/6/32 43/5/32
f 44/6/32 43/5/32 42/6/32
f 47/5/33 46/6/33 45/5/33
f 46/6/33 47/5/33 48/6/33
f 45/5/34 46/6/34 47/5/34
f 48/6/34 47/5/34 46/6/34
f 51/5/31 50/6/31 49/5/31
f 50/6/31 51/5/31 52/6/31
f 49/5/32 50/6/32 51/5/32
f 52/6/32 51/5/32 50/6/32
f 55/5/33 54/7/33 53/5/33
f 54/7/33 55/5/33 56/8/33
f 56/8/33 55/5/33 57/9/33
f 57/9/33 55/5/33 58/10/33
f 58/10/33 55/5/33 59/11/33
f 59/11/33 55/5/33 60/12/33
f 60/12/33 55/5/33 61/13/33
f 61/13/33 55/5/33 62/14/33
f 62/14/33 55/5/33 63/6/33
f 63/6/33 55/5/33 64/6/33
f 53/5/34 54/7/34 55/5/34
f 56/8/34 55/5/34 54/7/34
f 57/9/34 55/5/34 56/8/34
f 58/10/34 55/5/34 57/9/34
f 59/11/34 55/5/34 58/10/34
f 60/12/34 55/5/34 59/11/34
f 61/13/34 55/5/34 60/12/34
f 62/14/34 55/5/34 61/13/34
f 63/6/34 55/5/34 62/14/34
f 64/6/34 55/5/34 63/6/34
f 67/5/33 66/6/33 65/5/33
f 66/6/33 67/5/33 68/6/33
f 68/6/33 67/5/33 69/14/33
f 69/14/33 67/5/33 70/13/33
f 70/13/33 67/5/33 71/12/33
f 71/12/33 67/5/33 72/11/33
f 72/11/33 67/5/33 73/10/33
f 73/10/33 67/5/33 74/9/33
f 74/9/33 67/5/33 75/8/33
f 75/8/33 67/5/33 76/7/33
f 65/5/34 66/6/34 67/5/34
f 68/6/34 67/5/34 66/6/34
f 69/14/34 67/5/34 68/6/34
f 70/13/34 67/5/34 69/14/34
f 71/12/34 67/5/34 70/13/34
f 72/11/34 67/5/34 71/12/34
f 73/10/34 67/5/34 72/11/34
f 74/9/34 67/5/34 73/10/34
f 75/8/34 67/5/34 74/9/34
f 76/7/34 67/5/34 75/8/34
f 79/5/35 78/5/36 77/5/35
f 78/5/36 79/5/35 80/5/36
f 83/6/38 82/15/37 81/15/37
f 82/15/37 83/6/38 84/6/38
f 87/16/39 86/15/40 85/16/39
f 86/15/40 87/16/39 88/15/40
f 88/15/40 89/6/41 86/15/40
f 89/6/41 88/15/40 90/6/41
f 80/5/36 85/16/39 78/5/36
f 85/16/39 80/5/36 87/16/39
f 91/16/42 79/5/35 77/5/35
f 79/5/35 91/16/42 92/16/42
f 89/6/43 85/16/43 86/15/43
f 85/16/43 89/6/43 78/5/43
f 78/5/43 89/6/43 83/6/43
f 78/5/43 83/6/43 77/5/43
f 77/5/43 83/6/43 91/16/43
f 91/16/43 83/6/43 81/15/43
f 81/15/37 92/16/42 91/16/42
f 92/16/42 81/15/37 82/15/37
f 90/6/41 83/6/38 89/6/41
f 83/6/38 90/6/41 84/6/38
f 80/5/44 88/15/44 87/16/44
f 88/15/44 80/5/44 90/6/44
f 90/6/44 80/5/44 84/6/44
f 84/6/44 80/5/44 79/5/44
f 84/6/44 79/5/44 92/16/44
f 84/6/44 92/16/44 82/15/44
f 95/5/35 94/5/36 93/5/35
f 94/5/36 95/5/35 96/5/36
f 99/6/38 98/15/37 97/15/37
f 98/15/37 99/6/38 100/6/38
f 103/16/39 102/15/40 101/16/39
f 102/15/40 103/16/39 104/15/40
f 104/15/40 105/6/41 102/15/40
f 105/6/41 104/15/40 106/6/41
f 96/5/36 101/16/39 94/5/36
f 101/16/39 96/5/36 103/16/39
f 107/16/42 95/5/35 93/5/35
f 95/5/35 107/16/42 108/16/42
f 105/6/43 101/16/43 102/15/43
f 101/16/43 105/6/43 94/5/43
f 94/5/43 105/6/43 99/6/43
f 94/5/43 99/6/43 93/5/43
f 93/5/43 99/6/43 107/16/43
f 107/16/43 99/6/43 97/15/43
f 97/15/37 108/16/42 107/16/42
f 108/16/42 97/15/37 98/15/37
f 106/6/41 99/6/38 105/6/41
f 99/6/38 106/6/41 100/6/38
f 96/5/44 104/15/44 103/16/44
f 104/15/44 96/5/44 106/6/44
f 106/6/44 96/5/44 100/6/44
f 100/6/44 96/5/44 95/5/44
f 100/6/44 95/5/44 108/16/44
f 100/6/44 108/16/44 98/15/44
f 111/5/35 110/5/36 109/5/35
f 110/5/36 111/5/35 112/5/36
f 115/6/38 114/15/37 113/15/37
f 114/15/37 115/6/38 116/6/38
f 119/16/39 118/15/40 117/16/39
f 118/15/40 119/16/39 120/15/40
f 120/15/40 121/6/41 118/15/40
f 121/6/41 120/15/40 122/6/41
f 112/5/36 117/16/39 110/5/36
f 117/16/39 112/5/36 119/16/39
f 123/16/42 111/5/35 109/5/35
f 111/5/35 123/16/42 124/16/42
f 121/6/43 117/16/43 118/15/43
f 117/16/43 121/6/43 110/5/43
f 110/5/43 121/6/43 115/6/43
f 110/5/43 115/6/43 109/5/43
f 109/5/43 115/6/43 123/16/43
f 123/16/43 115/6/43 113/15/43
f 113/15/37 124/16/42 123/16/42
f 124/16/42 113/15/37 114/15/37
f 122/6/41 115/6/38 121/6/41
f 115/6/38 122/6/41 116/6/38
f 112/5/44 120/15/44 119/16/44
f 120/15/44 112/5/44 122/6/44
f 122/6/44 112/5/44 116/6/44
f 116/6/44 112/5/44 111/5/44
f 116/6/44 111/5/44 124/16/44
f 116/6/44 124/16/44 114/15/44
f 127/5/35 126/5/36 125/5/35
f 126/5/36 127/5/35 128/5/36
f 131/6/38 130/15/37 129/15/37
f 130/15/37 131/6/38 132/6/38
f 135/16/39 134/15/40 133/16/39
f 134/15/40 135/16/39 136/15/40
f 136/15/40 137/6/41 134/15/40
f 137/6/41 136/15/40 138/6/41
f 128/5/36 133/16/39 126/5/36
f 133/16/39 128/5/36 135/16/39
f 139/16/42 127/5/35 125/5/35
f 127/5/35 139/16/42 140/16/42
f 137/6/43 133/16/43 134/15/43
f 133/16/43 137/6/43 126/5/43
f 126/5/43 137/6/43 131/6/43
f 126/5/43 131/6/43 125/5/43
f 125/5/43 131/6/43 139/16/43
f 139/16/43 131/6/43 129/15/43
f 129/15/37 140/16/42 139/16/42
f 140/16/42 129/15/37 130/15/37
f 138/6/41 131/6/38 137/6/41
f 131/6/38 138/6/41 132/6/38
f 128/5/44 136/15/44 135/16/44
f 136/15/44 128/5/44 138/6/44
f 138/6/44 128/5/44 132/6/44
f 132/6/44 128/5/44 127/5/44
f 132/6/44 127/5/44 140/16/44
f 132/6/44 140/16/44 130/15/44
f 143/5/35 142/5/36 141/5/35
f 142/5/36 143/5/35 144/5/36
f 147/6/38 146/15/37 145/15/37
f 146/15/37 147/6/38 148/6/38
f 151/16/39 150/15/40 149/16/39
f 150/15/40 151/16/39 152/15/40
f 152/15/40 153/6/41 150/15/40
f 153/6/41 152/15/40 154/6/41
f 144/5/36 149/16/39 142/5/36
f 149/16/39 144/5/36 151/16/39
f 155/16/42 143/5/35 141/5/35
f 143/5/35 155/16/42 156/16/42
f 153/6/43 149/16/43 150/15/43
f 149/16/43 153/6/43 142/5/43
f 142/5/43 153/6/43 147/6/43
f 142/5/43 147/6/43 141/5/43
f 141/5/43 147/6/43 155/16/43
f 155/16/43 147/6/43 145/15/43
f 145/15/37 156/16/42 155/16/42
f 156/16/42 145/15/37 146/15/37
f 154/6/41 147/6/38 153/6/41
f 147/6/38 154/6/41 148/6/38
f 144/5/44 152/15/44 151/16/44
f 152/15/44 144/5/44 154/6/44
f 154/6/44 144/5/44 148/6/44
f 148/6/44 144/5/44 143/5/44
f 148/6/44 143/5/44 156/16/44
f 148/6/44 156/16/44 146/15/44
f 159/5/35 158/5/36 157/5/35
f 158/5/36 159/5/35 160/5/36
f 163/6/38 162/15/37 161/15/37
f 162/15/37 163/6/38 164/6/38
f 167/16/39 166/15/40 165/16/39
f 166/15/40 167/16/39 168/15/40
f 168/15/40 169/6/41 166/15/40
f 169/6/41 168/15/40 170/6/41
f 160/5/36 165/16/39 158/5/36
f 165/16/39 160/5/36 167/16/39
f 171/16/42 159/5/35 157/5/35
f 159/5/35 171/16/42 172/16/42
f 169/6/43 165/16/43 166/15/43
f 165/16/43 169/6/43 158/5/43
f 158/5/43 169/6/43 163/6/43
f 158/5/43 163/6/43 157/5/43
f 157/5/43 163/6/43 161/15/43
f 157/5/43 161/15/43 171/16/43
f 161/15/37 172/16/42 171/16/42
f 172/16/42 161/15/37 162/15/37
f 169/6/41 164/6/38 163/6/38
f 164/6/38 169/6/41 170/6/41
f 160/5/44 168/15/44 167/16/44
f 168/15/44 160/5/44 170/6/44
f 170/6/44 160/5/44 159/5/44
f 170/6/44 159/5/44 164/6/44
f 164/6/44 159/5/44 172/16/44
f 164/6/44 172/16/44 162/15/44
f 175/5/35 174/5/36 173/5/35
f 174/5/36 175/5/35 176/5/36
f 179/6/38 178/15/37 177/15/37
f 178/15/37 179/6/38 180/6/38
f 183/16/39 182/15/40 181/16/39
f 182/15/40 183/16/39 184/15/40
f 184/15/40 185/6/41 182/15/40
f 185/6/41 184/15/40 186/6/41
f 176/5/36 181/16/39 174/5/36
f 181/16/39 176/5/36 183/16/39
f 187/16/42 175/5/35 173/5/35
f 175/5/35 187/16/42 188/16/42
f 185/6/43 181/16/43 182/15/43
f 181/16/43 185/6/43 174/5/43
f 174/5/43 185/6/43 179/6/43
f 174/5/43 179/6/43 173/5/43
f 173/5/43 179/6/43 187/16/43
f 187/16/43 179/6/43 177/15/43
f 177/15/37 188/16/42 187/16/42
f 188/16/42 177/15/37 178/15/37
f 186/6/41 179/6/38 185/6/41
f 179/6/38 186/6/41 180/6/38
f 176/5/44 184/15/44 183/16/44
f 184/15/44 176/5/44 186/6/44
f 186/6/44 176/5/44 180/6/44
f 180/6/44 176/5/44 175/5/44
f 180/6/44 175/5/44 188/16/44
f 180/6/44 188/16/44 178/15/44
f 191/5/35 190/5/36 189/5/35
f 190/5/36 191/5/35 192/5/36
f 195/6/38 194/15/37 193/15/37
f 194/15/37 195/6/38 196/6/38
f 199/16/39 198/15/40 197/16/39
f 198/15/40 199/16/39 200/15/40
f 200/15/40 201/6/41 198/15/40
f 201/6/41 200/15/40 202/6/41
f 192/5/36 197/16/39 190/5/36
f 197/16/39 192/5/36 199/16/39
f 203/16/42 191/5/35 189/5/35
f 191/5/35 203/16/42 204/16/42
f 201/6/43 197/16/43 198/15/43
f 197/16/43 201/6/43 190/5/43
f 190/5/43 201/6/43 195/6/43
f 190/5/43 195/6/43 189/5/43
f 189/5/43 195/6/43 203/16/43
f 203/16/43 195/6/43 193/15/43
f 193/15/37 204/16/42 203/16/42
f 204/16/42 193/15/37 194/15/37
f 202/6/41 195/6/38 201/6/41
f 195/6/38 202/6/41 196/6/38
f 192/5/44 200/15/44 199/16/44
f 200/15/44 192/5/44 202/6/44
f 202/6/44 192/5/44 196/6/44
f 196/6/44 192/5/44 191/5/44
f 196/6/44 191/5/44 204/16/44
f 196/6/44 204/16/44 194/15/44
f 207/18/47 206/18/46 205/17/45
f 210/18/50 209/17/49 208/18/48
f 213/17/53 212/18/52 211/18/51
f 216/18/56 215/18/55 214/17/54
f 215/18/59 218/19/58 217/19/57
f 218/19/58 215/18/59 216/18/60
f 219/20/61 209/17/62 214/17/61
f 209/17/62 219/20/61 220/20/62
f 212/18/65 222/19/64 221/19/63
f 222/19/64 212/18/65 206/18/66
f 213/17/53 206/18/46 212/18/52
f 206/18/46 213/17/53 205/17/45
f 223/19/69 210/18/68 208/18/67
f 210/18/68 223/19/69 224/19/70
f 218/19/9 225/19/9 217/19/9
f 225/19/9 218/19/9 222/19/9
f 222/19/9 218/19/9 224/19/9
f 222/19/9 224/19/9 221/19/9
f 221/19/9 224/19/9 223/19/9
f 221/19/9 223/19/9 226/19/9
f 208/18/48 213/17/53 211/18/51
f 213/17/53 208/18/48 209/17/49
f 226/19/71 212/18/65 221/19/63
f 212/18/65 226/19/71 211/18/72
f 214/17/54 210/18/50 216/18/56
f 210/18/50 214/17/54 209/17/49
f 216/18/60 224/19/70 218/19/58
f 224/19/70 216/18/60 210/18/68
f 227/20/73 205/17/74 213/17/73
f 205/17/74 227/20/73 228/20/74
f 219/20/61 205/17/74 228/20/74
f 205/17/74 219/20/61 214/17/61
f 206/18/66 225/19/75 222/19/64
f 225/19/75 206/18/66 207/18/76
f 223/19/69 211/18/72 226/19/71
f 211/18/72 223/19/69 208/18/67
f 207/18/76 217/19/57 225/19/75
f 217/19/57 207/18/76 215/18/59
f 209/17/62 227/20/73 213/17/73
f 227/20/73 209/17/62 220/20/62
f 214/17/54 207/18/47 205/17/45
f 207/18/47 214/17/54 215/18/55
f 231/18/47 230/18/46 229/17/45
f 234/18/50 233/17/49 232/18/48
f 237/17/53 236/18/52 235/18/51
f 240/18/56 239/18/55 238/17/54
f 239/18/59 242/19/58 241/19/57
f 242/19/58 239/18/59 240/18/60
f 243/20/61 233/17/62 238/17/61
f 233/17/62 243/20/61 244/20/62
f 236/18/65 246/19/64 245/19/63
f 246/19/64 236/18/65 230/18/66
f 237/17/53 230/18/46 236/18/52
f 230/18/46 237/17/53 229/17/45
f 247/19/69 234/18/68 232/18/67
f 234/18/68 247/19/69 248/19/70
f 242/19/9 249/19/9 241/19/9
f 249/19/9 242/19/9 246/19/9
f 246/19/9 242/19/9 248/19/9
f 246/19/9 248/19/9 245/19/9
f 245/19/9 248/19/9 247/19/9
f 245/19/9 247/19/9 250/19/9
f 232/18/48 237/17/53 235/18/51
f 237/17/53 232/18/48 233/17/49
f 250/19/71 236/18/65 245/19/63
f 236/18/65 250/19/71 235/18/72
f 238/17/54 234/18/50 240/18/56
f 234/18/50 238/17/54 233/17/49
f 240/18/60 248/19/70 242/19/58
f 248/19/70 240/18/60 234/18/68
f 251/20/73 229/17/74 237/17/73
f 229/17/74 251/20/73 252/20/74
f 243/20/61 229/17/74 252/20/74
f 229/17/74 243/20/61 238/17/61
f 230/18/66 249/19/75 246/19/64
f 249/19/75 230/18/66 231/18/76
f 247/19/69 235/18/72 250/19/71
f 235/18/72 247/19/69 232/18/67
f 231/18/76 241/19/57 249/19/75
f 241/19/57 231/18/76 239/18/59
f 233/17/62 251/20/73 237/17/73
f 251/20/73 233/17/62 244/20/62
f 238/17/54 231/18/47 229/17/45
f 231/18/47 238/17/54 239/18/55
f 255/18/47 254/18/46 253/17/45
f 258/18/50 257/17/49 256/18/48
f 261/17/53 260/18/52 259/18/51
f 264/18/56 263/18/55 262/17/54
f 263/18/59 266/19/58 265/19/57
f 266/19/58 263/18/59 264/18/60
f 267/20/61 257/17/62 262/17/61
f 257/17/62 267/20/61 268/20/62
f 260/18/65 270/19/64 269/19/63
f 270/19/64 260/18/65 254/18/66
f 261/17/53 254/18/46 260/18/52
f 254/18/46 261/17/53 253/17/45
f 271/19/69 258/18/68 256/18/67
f 258/18/68 271/19/69 272/19/70
f 266/19/9 273/19/9 265/19/9
f 273/19/9 266/19/9 270/19/9
f 270/19/9 266/19/9 272/19/9
f 270/19/9 272/19/9 269/19/9
f 269/19/9 272/19/9 271/19/9
f 269/19/9 271/19/9 274/19/9
f 256/18/48 261/17/53 259/18/51
f 261/17/53 256/18/48 257/17/49
f 274/19/71 260/18/65 269/19/63
f 260/18/65 274/19/71 259/18/72
f 262/17/54 258/18/50 264/18/56
f 258/18/50 262/17/54 257/17/49
f 264/18/60 272/19/70 266/19/58
f 272/19/70 264/18/60 258/18/68
f 275/20/73 253/17/74 261/17/73
f 253/17/74 275/20/73 276/20/74
f 267/20/61 253/17/74 276/20/74
f 253/17/74 267/20/61 262/17/61
f 254/18/66 273/19/75 270/19/64
f 273/19/75 254/18/66 255/18/76
f 271/19/69 259/18/72 274/19/71
f 259/18/72 271/19/69 256/18/67
f 255/18/76 265/19/57 273/19/75
f 265/19/57 255/18/76 263/18/59
f 257/17/62 275/20/73 261/17/73
f 275/20/73 257/17/62 268/20/62
f 262/17/54 255/18/47 253/17/45
f 255/18/47 262/17/54 263/18/55
f 279/18/47 278/18/46 277/17/45
f 282/18/50 281/17/49 280/18/48
f 285/17/53 284/18/52 283/18/51
f 288/18/56 287/18/55 286/17/54
f 287/18/59 290/19/58 289/19/57
f 290/19/58 287/18/59 288/18/60
f 291/20/61 281/17/62 286/17/61
f 281/17/62 291/20/61 292/20/62
f 284/18/65 294/19/64 293/19/63
f 294/19/64 284/18/65 278/18/66
f 285/17/53 278/18/46 284/18/52
f 278/18/46 285/17/53 277/17/45
f 295/19/69 282/18/68 280/18/67
f 282/18/68 295/19/69 296/19/70
f 290/19/9 297/19/9 289/19/9
f 297/19/9 290/19/9 294/19/9
f 294/19/9 290/19/9 296/19/9
f 294/19/9 296/19/9 293/19/9
f 293/19/9 296/19/9 295/19/9
f 293/19/9 295/19/9 298/19/9
f 280/18/48 285/17/53 283/18/51
f 285/17/53 280/18/48 281/17/49
f 298/19/71 284/18/65 293/19/63
f 284/18/65 298/19/71 283/18/72
f 286/17/54 282/18/50 288/18/56
f 282/18/50 286/17/54 281/17/49
f 288/18/60 296/19/70 290/19/58
f 296/19/70 288/18/60 282/18/68
f 299/20/73 277/17/74 285/17/73
f 277/17/74 299/20/73 300/20/74
f 291/20/61 277/17/74 300/20/74
f 277/17/74 291/20/61 286/17/61
f 278/18/66 297/19/75 294/19/64
f 297/19/75 278/18/66 279/18/76
f 295/19/69 283/18/72 298/19/71
f 283/18/72 295/19/69 280/18/67
f 279/18/76 289/19/57 297/19/75
f 289/19/57 279/18/76 287/18/59
f 281/17/62 299/20/73 285/17/73
f 299/20/73 281/17/62 292/20/62
f 286/17/54 279/18/47 277/17/45
f 279/18/47 286/17/54 287/18/55
f 303/21/77 302/21/78 301/21/77
f 302/21/78 303/21/77 304/21/78
f 301/21/77 305/22/79 303/21/77
f 305/22/79 301/21/77 306/22/79
f 307/22/80 302/21/78 304/21/78
f 302/21/78 307/22/80 308/22/80
f 307/22/80 306/22/79 308/22/80
f 306/22/79 307/22/80 305/22/79
f 311/22/81 310/22/82 309/22/81
f 310/22/82 311/22/81 306/22/82
f 309/22/81 312/21/83 311/22/81
f 312/21/83 309/22/81 313/21/83
f 314/21/84 306/22/82 301/21/84
f 306/22/82 314/21/84 310/22/82
f 314/21/84 312/21/83 313/21/83
f 312/21/83 314/21/84 301/21/84
f 305/22/81 316/22/82 315/22/81
f 316/22/82 305/22/81 317/22/82
f 318/21/84 316/22/82 317/22/82
f 316/22/82 318/21/84 319/21/84
f 315/22/81 303/21/83 305/22/81
f 303/21/83 315/22/81 320/21/83
f 319/21/84 303/21/83 320/21/83
f 303/21/83 319/21/84 318/21/84
f 323/21/77 322/21/78 321/21/77
f 322/21/78 323/21/77 324/21/78
f 321/21/77 325/22/79 323/21/77
f 325/22/79 321/21/77 326/22/79
f 327/22/80 322/21/78 324/21/78
f 322/21/78 327/22/80 328/22/80
f 327/22/80 326/22/79 328/22/80
f 326/22/79 327/22/80 325/22/79
f 331/22/81 330/22/82 329/22/81
f 330/22/82 331/22/81 326/22/82
f 329/22/81 332/21/83 331/22/81
f 332/21/83 329/22/81 333/21/83
f 334/21/84 326/22/82 321/21/84
f 326/22/82 334/21/84 330/22/82
f 334/21/84 332/21/83 333/21/83
f 332/21/83 334/21/84 321/21/84
f 325/22/81 336/22/82 335/22/81
f 336/22/82 325/22/81 337/22/82
f 338/21/84 336/22/82 337/22/82
f 336/22/82 338/21/84 339/21/84
f 335/22/81 323/21/83 325/22/81
f 323/21/83 335/22/81 340/21/83
f 339/21/84 323/21/83 340/21/83
f 323/21/83 339/21/84 338/21/84
f 335/22/80 341/22/79 330/22/80
f 341/22/79 335/22/80 342/22/79
f 344/21/77 342/22/79 343/21/77
f 342/22/79 344/21/77 341/22/79
f 343/21/77 334/21/78 344/21/77
f 334/21/78 343/21/77 340/21/78
f 335/22/80 334/21/78 340/21/78
f 334/21/78 335/22/80 330/22/80

