# Created by Kenney (www.kenney.nl)

mtllib tent-open-wide.mtl

g tent-open-wide

v 1.90625 1.0875 -0.853125 1 1 1
v 1.90625 1.0875 0.853125 1 1 1
v 1.90625 1.2375 -0.853125 1 1 1
v 1.90625 1.2375 0.853125 1 1 1
v -1.90625 1.0875 -0.853125 1 1 1
v -1.80625 1.0875 -0.9531249 1 1 1
v -1.90625 1.2375 -0.853125 1 1 1
v -1.80625 1.2375 -0.9531249 1 1 1
v -1.80625 1.0875 0.9531249 1 1 1
v -1.90625 1.0875 0.853125 1 1 1
v -1.80625 1.2375 0.9531249 1 1 1
v -1.90625 1.2375 0.853125 1 1 1
v 1.80625 1.0875 0.9531249 1 1 1
v 1.80625 1.2375 0.9531249 1 1 1
v 1.80625 1.0875 -0.9531249 1 1 1
v 1.80625 1.2375 -0.9531249 1 1 1
v 1.80625 1.2375 -0.9531249 1 1 1
v 1.85625 1.2375 -0.9031249 1 1 1
v 1.015625 1.9875 -0.06249994 1 1 1
v -1.80625 1.2375 -0.9531249 1 1 1
v -1.015625 1.9875 -0.06249994 1 1 1
v -1.85625 1.2375 -0.9031249 1 1 1
v -1.015625 1.9875 0.06250006 1 1 1
v -1.80625 1.2375 0.9531249 1 1 1
v -1.85625 1.2375 0.9031251 1 1 1
v 1.85625 1.2375 0.9031251 1 1 1
v 1.80625 1.2375 0.9531249 1 1 1
v 1.015625 1.9875 0.06250006 1 1 1
v -1.015625 1.9875 0.0625 1 1 1
v -1.85625 1.2375 0.903125 1 1 1
v -1.90625 1.2375 0.8531249 1 1 1
v 1.90625 1.2375 0.8531249 1 1 1
v 1.85625 1.2375 0.903125 1 1 1
v 1.015625 1.9875 0.0625 1 1 1
v 1.85625 1.2375 -0.903125 1 1 1
v 1.90625 1.2375 -0.853125 1 1 1
v 1.015625 1.9875 -0.06249994 1 1 1
v -1.85625 1.2375 -0.903125 1 1 1
v -1.015625 1.9875 -0.06249994 1 1 1
v -1.90625 1.2375 -0.853125 1 1 1
v 1.80625 0.35 0.790625 1 1 1
v 1.80625 0.2875 0.759375 1 1 1
v 1.8375 0.2875 0.790625 1 1 1
v 1.7125 0.2875 0.853125 1 1 1
v 1.74375 0.35 0.853125 1 1 1
v 1.74375 0.2875 0.884375 1 1 1
v 1.7125 0.2875 0.790625 1 1 1
v 1.74375 0.2875 0.759375 1 1 1
v 1.74375 0.35 0.790625 1 1 1
v 1.80625 0.35 0.853125 1 1 1
v 1.8375 0.2875 0.853125 1 1 1
v 1.80625 0.2875 0.884375 1 1 1
v 1.853125 0 0.8609375 1 1 1
v 1.814062 0 0.9 1 1 1
v 1.80625 1.0875 0.853125 1 1 1
v 1.74375 1.0875 0.853125 1 1 1
v 1.735937 0 0.74375 1 1 1
v 1.814062 0 0.74375 1 1 1
v 1.696875 0 0.8609375 1 1 1
v 1.735937 0 0.9 1 1 1
v 1.853125 0 0.7828125 1 1 1
v 1.696875 0 0.7828125 1 1 1
v 1.74375 1.0875 0.790625 1 1 1
v 1.80625 1.0875 0.790625 1 1 1
v -1.74375 0.35 0.790625 1 1 1
v -1.74375 0.2875 0.759375 1 1 1
v -1.7125 0.2875 0.790625 1 1 1
v -1.8375 0.2875 0.853125 1 1 1
v -1.80625 0.35 0.853125 1 1 1
v -1.80625 0.2875 0.884375 1 1 1
v -1.8375 0.2875 0.790625 1 1 1
v -1.80625 0.2875 0.759375 1 1 1
v -1.80625 0.35 0.790625 1 1 1
v -1.74375 0.35 0.853125 1 1 1
v -1.7125 0.2875 0.853125 1 1 1
v -1.74375 0.2875 0.884375 1 1 1
v -1.696875 0 0.8609375 1 1 1
v -1.735937 0 0.9 1 1 1
v -1.74375 1.0875 0.853125 1 1 1
v -1.80625 1.0875 0.853125 1 1 1
v -1.814062 0 0.74375 1 1 1
v -1.735937 0 0.74375 1 1 1
v -1.853125 0 0.8609375 1 1 1
v -1.814062 0 0.9 1 1 1
v -1.696875 0 0.7828125 1 1 1
v -1.853125 0 0.7828125 1 1 1
v -1.80625 1.0875 0.790625 1 1 1
v -1.74375 1.0875 0.790625 1 1 1
v 1.80625 0.35 -0.853125 1 1 1
v 1.80625 0.2875 -0.884375 1 1 1
v 1.8375 0.2875 -0.853125 1 1 1
v 1.7125 0.2875 -0.790625 1 1 1
v 1.74375 0.35 -0.790625 1 1 1
v 1.74375 0.2875 -0.759375 1 1 1
v 1.7125 0.2875 -0.853125 1 1 1
v 1.74375 0.2875 -0.884375 1 1 1
v 1.74375 0.35 -0.853125 1 1 1
v 1.80625 0.35 -0.790625 1 1 1
v 1.8375 0.2875 -0.790625 1 1 1
v 1.80625 0.2875 -0.759375 1 1 1
v 1.853125 0 -0.7828125 1 1 1
v 1.814062 0 -0.74375 1 1 1
v 1.80625 1.0875 -0.790625 1 1 1
v 1.74375 1.0875 -0.790625 1 1 1
v 1.735937 0 -0.9 1 1 1
v 1.814062 0 -0.9 1 1 1
v 1.696875 0 -0.7828125 1 1 1
v 1.735937 0 -0.74375 1 1 1
v 1.853125 0 -0.8609375 1 1 1
v 1.696875 0 -0.8609375 1 1 1
v 1.74375 1.0875 -0.853125 1 1 1
v 1.80625 1.0875 -0.853125 1 1 1
v -1.74375 0.35 -0.853125 1 1 1
v -1.74375 0.2875 -0.884375 1 1 1
v -1.7125 0.2875 -0.853125 1 1 1
v -1.8375 0.2875 -0.790625 1 1 1
v -1.80625 0.35 -0.790625 1 1 1
v -1.80625 0.2875 -0.759375 1 1 1
v -1.8375 0.2875 -0.853125 1 1 1
v -1.80625 0.2875 -0.884375 1 1 1
v -1.80625 0.35 -0.853125 1 1 1
v -1.74375 0.35 -0.790625 1 1 1
v -1.7125 0.2875 -0.790625 1 1 1
v -1.74375 0.2875 -0.759375 1 1 1
v -1.696875 0 -0.7828125 1 1 1
v -1.735937 0 -0.74375 1 1 1
v -1.74375 1.0875 -0.790625 1 1 1
v -1.80625 1.0875 -0.790625 1 1 1
v -1.814062 0 -0.9 1 1 1
v -1.735937 0 -0.9 1 1 1
v -1.853125 0 -0.7828125 1 1 1
v -1.814062 0 -0.74375 1 1 1
v -1.696875 0 -0.8609375 1 1 1
v -1.853125 0 -0.8609375 1 1 1
v -1.80625 1.0875 -0.853125 1 1 1
v -1.74375 1.0875 -0.853125 1 1 1
v 1.74375 0.9 -0.790625 1 1 1
v 1.74375 0.9 -0.853125 1 1 1
v -1.74375 0.9 -0.790625 1 1 1
v -1.74375 0.9 -0.853125 1 1 1
v -1.74375 0.9625 -0.790625 1 1 1
v 1.74375 0.9625 -0.790625 1 1 1
v -1.74375 0.9625 -0.853125 1 1 1
v 1.74375 0.9625 -0.853125 1 1 1
v 1.80625 0.9625 0.790625 1 1 1
v 1.74375 0.9625 0.790625 1 1 1
v 1.80625 0.9625 -0.790625 1 1 1
v 1.80625 0.9 -0.790625 1 1 1
v 1.80625 0.9 0.790625 1 1 1
v 1.74375 0.9 0.790625 1 1 1
v -1.74375 0.9625 0.790625 1 1 1
v -1.80625 0.9625 0.790625 1 1 1
v -1.80625 0.9625 -0.790625 1 1 1
v -1.80625 0.9 -0.790625 1 1 1
v -1.80625 0.9 0.790625 1 1 1
v -1.74375 0.9 0.790625 1 1 1
v 1.74375 0.9625 0.853125 1 1 1
v -1.74375 0.9625 0.853125 1 1 1
v -1.74375 0.9 0.853125 1 1 1
v 1.74375 0.9 0.853125 1 1 1

vn 0.9238795 0 -0.3826834
vn 0.9238795 0 0.3826834
vn -0.9238795 0 -0.3826834
vn -0.3826834 0 -0.9238795
vn -0.3826834 0 0.9238795
vn -0.9238795 0 0.3826834
vn 0.3826834 0 0.9238795
vn 0.3826834 0 -0.9238795
vn 0 -1 0
vn 0.2362194 0.8363866 -0.4946291
vn 0.3772894 0.8457572 -0.3772894
vn 0.008572472 0.7686196 -0.6396487
vn -0.2362194 0.8363866 -0.4946291
vn -0.008572472 0.7686196 -0.6396487
vn -0.3772894 0.8457572 -0.3772894
vn -0.008572472 0.7686196 0.6396487
vn -0.2362194 0.8363866 0.4946291
vn -0.3772894 0.8457572 0.3772894
vn 0.3772894 0.8457572 0.3772894
vn 0.2362194 0.8363866 0.4946291
vn 0.008572472 0.7686196 0.6396487
vn 0 1 0
vn -0.6396487 0.7686196 0.008572472
vn -0.4946291 0.8363866 0.2362194
vn 0.4946291 0.8363866 0.2362194
vn 0.6396487 0.7686196 0.008572472
vn 0.4946291 0.8363866 -0.2362194
vn 0.6396487 0.7686196 -0.008572472
vn -0.6396487 0.7686196 -0.008572472
vn -0.4946291 0.8363866 -0.2362194
vn 0.5997861 0.5296351 -0.5997861
vn 0.315808 0.4243266 -0.8486531
vn 0.8486531 0.4243266 -0.315808
vn -0.8486531 0.4243266 0.315808
vn -0.5997861 0.5296351 0.5997861
vn -0.315808 0.4243266 0.8486531
vn -0.8486531 0.4243266 -0.315808
vn -0.315808 0.4243266 -0.8486531
vn -0.5997861 0.5296351 -0.5997861
vn 0.5997861 0.5296351 0.5997861
vn 0.8486531 0.4243266 0.315808
vn 0.315808 0.4243266 0.8486531
vn 0.9217949 0.06050319 0.3829277
vn 0.3829277 0.06050319 0.9217949
vn 0.9225959 0.0604942 0.380995
vn 0.380995 0.0604942 0.9225959
vn 0.7071068 0 0.7071068
vn -0.7071068 0 0.7071068
vn -0.3829277 0.06050319 -0.9217949
vn 0.3829277 0.06050319 -0.9217949
vn -0.380995 0.0604942 -0.9225959
vn 0.380995 0.0604942 -0.9225959
vn -0.9225959 0.0604942 0.380995
vn -0.380995 0.0604942 0.9225959
vn -0.9217949 0.06050319 0.3829277
vn -0.3829277 0.06050319 0.9217949
vn -0.9217949 0.06050319 -0.3829277
vn -0.9225959 0.0604942 -0.380995
vn -0.7071068 0 -0.7071068
vn 0.7071068 0 -0.7071068
vn 0.9217949 0.06050319 -0.3829277
vn 0.9225959 0.0604942 -0.380995
vn 0 -0.7071068 0.7071068
vn 0 -0.7071068 -0.7071068
vn 0 0.7071068 0.7071068
vn 0 0.7071068 -0.7071068
vn 0.7071068 0.7071068 0
vn -0.7071068 0.7071068 0
vn 0.7071068 -0.7071068 0
vn -0.7071068 -0.7071068 0

vt 0.34375 0.395
vt 0.34375 0.475
vt 0.34375 0.355
vt 0.34375 0.275
vt 0.46875 0.1606322
vt 0.46875 0.1721264
vt 0.46875 0.225
vt 0.46875 0.025
vt 0.46875 0.075
vt 0.46875 0.175

usemtl colormap

f 3/2/1 2/1/2 1/1/1
f 2/1/2 3/2/1 4/2/2
f 7/2/3 6/1/4 5/1/3
f 6/1/4 7/2/3 8/2/4
f 11/2/5 10/1/6 9/1/5
f 10/1/6 11/2/5 12/2/6
f 10/1/6 7/2/3 5/1/3
f 7/2/3 10/1/6 12/2/6
f 4/2/2 13/1/7 2/1/2
f 13/1/7 4/2/2 14/2/7
f 16/2/8 1/1/1 15/1/8
f 1/1/1 16/2/8 3/2/1
f 8/2/4 15/1/8 6/1/4
f 15/1/8 8/2/4 16/2/8
f 14/2/7 9/1/5 13/1/7
f 9/1/5 14/2/7 11/2/5
f 13/1/9 1/1/9 2/1/9
f 1/1/9 13/1/9 15/1/9
f 15/1/9 13/1/9 9/1/9
f 15/1/9 9/1/9 6/1/9
f 6/1/9 9/1/9 10/1/9
f 6/1/9 10/1/9 5/1/9
f 19/2/12 18/1/11 17/1/10
f 22/1/15 21/2/14 20/1/13
f 25/1/18 24/1/17 23/2/16
f 28/2/21 27/1/20 26/1/19
f 20/1/13 19/2/12 17/1/10
f 19/2/12 20/1/13 21/2/14
f 28/2/21 24/1/17 27/1/20
f 24/1/17 28/2/21 23/2/16
f 21/2/22 28/2/22 19/2/22
f 28/2/22 21/2/22 23/2/22
f 31/4/24 30/4/18 29/3/23
f 34/3/26 33/4/19 32/4/25
f 37/3/28 36/4/27 35/4/11
f 40/4/30 39/3/29 38/4/15
f 40/4/30 29/3/23 39/3/29
f 29/3/23 40/4/30 31/4/24
f 37/3/28 32/4/25 36/4/27
f 32/4/25 37/3/28 34/3/26
f 43/6/33 42/6/32 41/5/31
f 46/6/36 45/5/35 44/6/34
f 49/5/39 48/6/38 47/6/37
f 52/6/42 51/6/41 50/5/40
f 51/6/45 54/7/44 53/7/43
f 54/7/44 51/6/45 52/6/46
f 55/8/47 45/5/48 50/5/47
f 45/5/48 55/8/47 56/8/48
f 48/6/51 58/7/50 57/7/49
f 58/7/50 48/6/51 42/6/52
f 49/5/39 42/6/32 48/6/38
f 42/6/32 49/5/39 41/5/31
f 59/7/55 46/6/54 44/6/53
f 46/6/54 59/7/55 60/7/56
f 54/7/9 61/7/9 53/7/9
f 61/7/9 54/7/9 58/7/9
f 58/7/9 54/7/9 60/7/9
f 58/7/9 60/7/9 57/7/9
f 57/7/9 60/7/9 59/7/9
f 57/7/9 59/7/9 62/7/9
f 44/6/34 49/5/39 47/6/37
f 49/5/39 44/6/34 45/5/35
f 62/7/57 48/6/51 57/7/49
f 48/6/51 62/7/57 47/6/58
f 50/5/40 46/6/36 52/6/42
f 46/6/36 50/5/40 45/5/35
f 52/6/46 60/7/56 54/7/44
f 60/7/56 52/6/46 46/6/54
f 63/8/59 41/5/60 49/5/59
f 41/5/60 63/8/59 64/8/60
f 55/8/47 41/5/60 64/8/60
f 41/5/60 55/8/47 50/5/47
f 42/6/52 61/7/61 58/7/50
f 61/7/61 42/6/52 43/6/62
f 59/7/55 47/6/58 62/7/57
f 47/6/58 59/7/55 44/6/53
f 43/6/62 53/7/43 61/7/61
f 53/7/43 43/6/62 51/6/45
f 45/5/48 63/8/59 49/5/59
f 63/8/59 45/5/48 56/8/48
f 50/5/40 43/6/33 41/5/31
f 43/6/33 50/5/40 51/6/41
f 67/6/33 66/6/32 65/5/31
f 70/6/36 69/5/35 68/6/34
f 73/5/39 72/6/38 71/6/37
f 76/6/42 75/6/41 74/5/40
f 75/6/45 78/7/44 77/7/43
f 78/7/44 75/6/45 76/6/46
f 79/8/47 69/5/48 74/5/47
f 69/5/48 79/8/47 80/8/48
f 72/6/51 82/7/50 81/7/49
f 82/7/50 72/6/51 66/6/52
f 73/5/39 66/6/32 72/6/38
f 66/6/32 73/5/39 65/5/31
f 83/7/55 70/6/54 68/6/53
f 70/6/54 83/7/55 84/7/56
f 78/7/9 85/7/9 77/7/9
f 85/7/9 78/7/9 82/7/9
f 82/7/9 78/7/9 84/7/9
f 82/7/9 84/7/9 81/7/9
f 81/7/9 84/7/9 83/7/9
f 81/7/9 83/7/9 86/7/9
f 68/6/34 73/5/39 71/6/37
f 73/5/39 68/6/34 69/5/35
f 86/7/57 72/6/51 81/7/49
f 72/6/51 86/7/57 71/6/58
f 74/5/40 70/6/36 76/6/42
f 70/6/36 74/5/40 69/5/35
f 76/6/46 84/7/56 78/7/44
f 84/7/56 76/6/46 70/6/54
f 87/8/59 65/5/60 73/5/59
f 65/5/60 87/8/59 88/8/60
f 79/8/47 65/5/60 88/8/60
f 65/5/60 79/8/47 74/5/47
f 66/6/52 85/7/61 82/7/50
f 85/7/61 66/6/52 67/6/62
f 83/7/55 71/6/58 86/7/57
f 71/6/58 83/7/55 68/6/53
f 67/6/62 77/7/43 85/7/61
f 77/7/43 67/6/62 75/6/45
f 69/5/48 87/8/59 73/5/59
f 87/8/59 69/5/48 80/8/48
f 74/5/40 67/6/33 65/5/31
f 67/6/33 74/5/40 75/6/41
f 91/6/33 90/6/32 89/5/31
f 94/6/36 93/5/35 92/6/34
f 97/5/39 96/6/38 95/6/37
f 100/6/42 99/6/41 98/5/40
f 99/6/45 102/7/44 101/7/43
f 102/7/44 99/6/45 100/6/46
f 103/8/47 93/5/48 98/5/47
f 93/5/48 103/8/47 104/8/48
f 96/6/51 106/7/50 105/7/49
f 106/7/50 96/6/51 90/6/52
f 97/5/39 90/6/32 96/6/38
f 90/6/32 97/5/39 89/5/31
f 107/7/55 94/6/54 92/6/53
f 94/6/54 107/7/55 108/7/56
f 102/7/9 109/7/9 101/7/9
f 109/7/9 102/7/9 106/7/9
f 106/7/9 102/7/9 108/7/9
f 106/7/9 108/7/9 105/7/9
f 105/7/9 108/7/9 107/7/9
f 105/7/9 107/7/9 110/7/9
f 92/6/34 97/5/39 95/6/37
f 97/5/39 92/6/34 93/5/35
f 110/7/57 96/6/51 105/7/49
f 96/6/51 110/7/57 95/6/58
f 98/5/40 94/6/36 100/6/42
f 94/6/36 98/5/40 93/5/35
f 100/6/46 108/7/56 102/7/44
f 108/7/56 100/6/46 94/6/54
f 111/8/59 89/5/60 97/5/59
f 89/5/60 111/8/59 112/8/60
f 103/8/47 89/5/60 112/8/60
f 89/5/60 103/8/47 98/5/47
f 90/6/52 109/7/61 106/7/50
f 109/7/61 90/6/52 91/6/62
f 107/7/55 95/6/58 110/7/57
f 95/6/58 107/7/55 92/6/53
f 91/6/62 101/7/43 109/7/61
f 101/7/43 91/6/62 99/6/45
f 93/5/48 111/8/59 97/5/59
f 111/8/59 93/5/48 104/8/48
f 98/5/40 91/6/33 89/5/31
f 91/6/33 98/5/40 99/6/41
f 115/6/33 114/6/32 113/5/31
f 118/6/36 117/5/35 116/6/34
f 121/5/39 120/6/38 119/6/37
f 124/6/42 123/6/41 122/5/40
f 123/6/45 126/7/44 125/7/43
f 126/7/44 123/6/45 124/6/46
f 127/8/47 117/5/48 122/5/47
f 117/5/48 127/8/47 128/8/48
f 120/6/51 130/7/50 129/7/49
f 130/7/50 120/6/51 114/6/52
f 121/5/39 114/6/32 120/6/38
f 114/6/32 121/5/39 113/5/31
f 131/7/55 118/6/54 116/6/53
f 118/6/54 131/7/55 132/7/56
f 126/7/9 133/7/9 125/7/9
f 133/7/9 126/7/9 130/7/9
f 130/7/9 126/7/9 132/7/9
f 130/7/9 132/7/9 129/7/9
f 129/7/9 132/7/9 131/7/9
f 129/7/9 131/7/9 134/7/9
f 116/6/34 121/5/39 119/6/37
f 121/5/39 116/6/34 117/5/35
f 134/7/57 120/6/51 129/7/49
f 120/6/51 134/7/57 119/6/58
f 122/5/40 118/6/36 124/6/42
f 118/6/36 122/5/40 117/5/35
f 124/6/46 132/7/56 126/7/44
f 132/7/56 124/6/46 118/6/54
f 135/8/59 113/5/60 121/5/59
f 113/5/60 135/8/59 136/8/60
f 127/8/47 113/5/60 136/8/60
f 113/5/60 127/8/47 122/5/47
f 114/6/52 133/7/61 130/7/50
f 133/7/61 114/6/52 115/6/62
f 131/7/55 119/6/58 134/7/57
f 119/6/58 131/7/55 116/6/53
f 115/6/62 125/7/43 133/7/61
f 125/7/43 115/6/62 123/6/45
f 117/5/48 135/8/59 121/5/59
f 135/8/59 117/5/48 128/8/48
f 122/5/40 115/6/33 113/5/31
f 115/6/33 122/5/40 123/6/41
f 139/9/63 138/9/64 137/9/63
f 138/9/64 139/9/63 140/9/64
f 137/9/63 141/10/65 139/9/63
f 141/10/65 137/9/63 142/10/65
f 143/10/66 138/9/64 140/9/64
f 138/9/64 143/10/66 144/10/66
f 143/10/66 142/10/65 144/10/66
f 142/10/65 143/10/66 141/10/65
f 147/10/67 146/10/68 145/10/67
f 146/10/68 147/10/67 142/10/68
f 145/10/67 148/9/69 147/10/67
f 148/9/69 145/10/67 149/9/69
f 150/9/70 142/10/68 137/9/70
f 142/10/68 150/9/70 146/10/68
f 150/9/70 148/9/69 149/9/69
f 148/9/69 150/9/70 137/9/70
f 141/10/67 152/10/68 151/10/67
f 152/10/68 141/10/67 153/10/68
f 154/9/70 152/10/68 153/10/68
f 152/10/68 154/9/70 155/9/70
f 151/10/67 139/9/69 141/10/67
f 139/9/69 151/10/67 156/9/69
f 155/9/70 139/9/69 156/9/69
f 139/9/69 155/9/70 154/9/70
f 151/10/66 157/10/65 146/10/66
f 157/10/65 151/10/66 158/10/65
f 160/9/63 158/10/65 159/9/63
f 158/10/65 160/9/63 157/10/65
f 159/9/63 150/9/64 160/9/63
f 150/9/64 159/9/63 156/9/64
f 151/10/66 150/9/64 156/9/64
f 150/9/64 151/10/66 146/10/66

g tent-open-wide




usemtl colormap

f 3/2/1 2/1/2 1/1/1
f 2/1/2 3/2/1 4/2/2
f 7/2/3 6/1/4 5/1/3
f 6/1/4 7/2/3 8/2/4
f 11/2/5 10/1/6 9/1/5
f 10/1/6 11/2/5 12/2/6
f 10/1/6 7/2/3 5/1/3
f 7/2/3 10/1/6 12/2/6
f 4/2/2 13/1/7 2/1/2
f 13/1/7 4/2/2 14/2/7
f 16/2/8 1/1/1 15/1/8
f 1/1/1 16/2/8 3/2/1
f 8/2/4 15/1/8 6/1/4
f 15/1/8 8/2/4 16/2/8
f 14/2/7 9/1/5 13/1/7
f 9/1/5 14/2/7 11/2/5
f 13/1/9 1/1/9 2/1/9
f 1/1/9 13/1/9 15/1/9
f 15/1/9 13/1/9 9/1/9
f 15/1/9 9/1/9 6/1/9
f 6/1/9 9/1/9 10/1/9
f 6/1/9 10/1/9 5/1/9
f 19/2/12 18/1/11 17/1/10
f 22/1/15 21/2/14 20/1/13
f 25/1/18 24/1/17 23/2/16
f 28/2/21 27/1/20 26/1/19
f 20/1/13 19/2/12 17/1/10
f 19/2/12 20/1/13 21/2/14
f 28/2/21 24/1/17 27/1/20
f 24/1/17 28/2/21 23/2/16
f 21/2/22 28/2/22 19/2/22
f 28/2/22 21/2/22 23/2/22
f 31/4/24 30/4/18 29/3/23
f 34/3/26 33/4/19 32/4/25
f 37/3/28 36/4/27 35/4/11
f 40/4/30 39/3/29 38/4/15
f 40/4/30 29/3/23 39/3/29
f 29/3/23 40/4/30 31/4/24
f 37/3/28 32/4/25 36/4/27
f 32/4/25 37/3/28 34/3/26
f 43/6/33 42/6/32 41/5/31
f 46/6/36 45/5/35 44/6/34
f 49/5/39 48/6/38 47/6/37
f 52/6/42 51/6/41 50/5/40
f 51/6/45 54/7/44 53/7/43
f 54/7/44 51/6/45 52/6/46
f 55/8/47 45/5/48 50/5/47
f 45/5/48 55/8/47 56/8/48
f 48/6/51 58/7/50 57/7/49
f 58/7/50 48/6/51 42/6/52
f 49/5/39 42/6/32 48/6/38
f 42/6/32 49/5/39 41/5/31
f 59/7/55 46/6/54 44/6/53
f 46/6/54 59/7/55 60/7/56
f 54/7/9 61/7/9 53/7/9
f 61/7/9 54/7/9 58/7/9
f 58/7/9 54/7/9 60/7/9
f 58/7/9 60/7/9 57/7/9
f 57/7/9 60/7/9 59/7/9
f 57/7/9 59/7/9 62/7/9
f 44/6/34 49/5/39 47/6/37
f 49/5/39 44/6/34 45/5/35
f 62/7/57 48/6/51 57/7/49
f 48/6/51 62/7/57 47/6/58
f 50/5/40 46/6/36 52/6/42
f 46/6/36 50/5/40 45/5/35
f 52/6/46 60/7/56 54/7/44
f 60/7/56 52/6/46 46/6/54
f 63/8/59 41/5/60 49/5/59
f 41/5/60 63/8/59 64/8/60
f 55/8/47 41/5/60 64/8/60
f 41/5/60 55/8/47 50/5/47
f 42/6/52 61/7/61 58/7/50
f 61/7/61 42/6/52 43/6/62
f 59/7/55 47/6/58 62/7/57
f 47/6/58 59/7/55 44/6/53
f 43/6/62 53/7/43 61/7/61
f 53/7/43 43/6/62 51/6/45
f 45/5/48 63/8/59 49/5/59
f 63/8/59 45/5/48 56/8/48
f 50/5/40 43/6/33 41/5/31
f 43/6/33 50/5/40 51/6/41
f 67/6/33 66/6/32 65/5/31
f 70/6/36 69/5/35 68/6/34
f 73/5/39 72/6/38 71/6/37
f 76/6/42 75/6/41 74/5/40
f 75/6/45 78/7/44 77/7/43
f 78/7/44 75/6/45 76/6/46
f 79/8/47 69/5/48 74/5/47
f 69/5/48 79/8/47 80/8/48
f 72/6/51 82/7/50 81/7/49
f 82/7/50 72/6/51 66/6/52
f 73/5/39 66/6/32 72/6/38
f 66/6/32 73/5/39 65/5/31
f 83/7/55 70/6/54 68/6/53
f 70/6/54 83/7/55 84/7/56
f 78/7/9 85/7/9 77/7/9
f 85/7/9 78/7/9 82/7/9
f 82/7/9 78/7/9 84/7/9
f 82/7/9 84/7/9 81/7/9
f 81/7/9 84/7/9 83/7/9
f 81/7/9 83/7/9 86/7/9
f 68/6/34 73/5/39 71/6/37
f 73/5/39 68/6/34 69/5/35
f 86/7/57 72/6/51 81/7/49
f 72/6/51 86/7/57 71/6/58
f 74/5/40 70/6/36 76/6/42
f 70/6/36 74/5/40 69/5/35
f 76/6/46 84/7/56 78/7/44
f 84/7/56 76/6/46 70/6/54
f 87/8/59 65/5/60 73/5/59
f 65/5/60 87/8/59 88/8/60
f 79/8/47 65/5/60 88/8/60
f 65/5/60 79/8/47 74/5/47
f 66/6/52 85/7/61 82/7/50
f 85/7/61 66/6/52 67/6/62
f 83/7/55 71/6/58 86/7/57
f 71/6/58 83/7/55 68/6/53
f 67/6/62 77/7/43 85/7/61
f 77/7/43 67/6/62 75/6/45
f 69/5/48 87/8/59 73/5/59
f 87/8/59 69/5/48 80/8/48
f 74/5/40 67/6/33 65/5/31
f 67/6/33 74/5/40 75/6/41
f 91/6/33 90/6/32 89/5/31
f 94/6/36 93/5/35 92/6/34
f 97/5/39 96/6/38 95/6/37
f 100/6/42 99/6/41 98/5/40
f 99/6/45 102/7/44 101/7/43
f 102/7/44 99/6/45 100/6/46
f 103/8/47 93/5/48 98/5/47
f 93/5/48 103/8/47 104/8/48
f 96/6/51 106/7/50 105/7/49
f 106/7/50 96/6/51 90/6/52
f 97/5/39 90/6/32 96/6/38
f 90/6/32 97/5/39 89/5/31
f 107/7/55 94/6/54 92/6/53
f 94/6/54 107/7/55 108/7/56
f 102/7/9 109/7/9 101/7/9
f 109/7/9 102/7/9 106/7/9
f 106/7/9 102/7/9 108/7/9
f 106/7/9 108/7/9 105/7/9
f 105/7/9 108/7/9 107/7/9
f 105/7/9 107/7/9 110/7/9
f 92/6/34 97/5/39 95/6/37
f 97/5/39 92/6/34 93/5/35
f 110/7/57 96/6/51 105/7/49
f 96/6/51 110/7/57 95/6/58
f 98/5/40 94/6/36 100/6/42
f 94/6/36 98/5/40 93/5/35
f 100/6/46 108/7/56 102/7/44
f 108/7/56 100/6/46 94/6/54
f 111/8/59 89/5/60 97/5/59
f 89/5/60 111/8/59 112/8/60
f 103/8/47 89/5/60 112/8/60
f 89/5/60 103/8/47 98/5/47
f 90/6/52 109/7/61 106/7/50
f 109/7/61 90/6/52 91/6/62
f 107/7/55 95/6/58 110/7/57
f 95/6/58 107/7/55 92/6/53
f 91/6/62 101/7/43 109/7/61
f 101/7/43 91/6/62 99/6/45
f 93/5/48 111/8/59 97/5/59
f 111/8/59 93/5/48 104/8/48
f 98/5/40 91/6/33 89/5/31
f 91/6/33 98/5/40 99/6/41
f 115/6/33 114/6/32 113/5/31
f 118/6/36 117/5/35 116/6/34
f 121/5/39 120/6/38 119/6/37
f 124/6/42 123/6/41 122/5/40
f 123/6/45 126/7/44 125/7/43
f 126/7/44 123/6/45 124/6/46
f 127/8/47 117/5/48 122/5/47
f 117/5/48 127/8/47 128/8/48
f 120/6/51 130/7/50 129/7/49
f 130/7/50 120/6/51 114/6/52
f 121/5/39 114/6/32 120/6/38
f 114/6/32 121/5/39 113/5/31
f 131/7/55 118/6/54 116/6/53
f 118/6/54 131/7/55 132/7/56
f 126/7/9 133/7/9 125/7/9
f 133/7/9 126/7/9 130/7/9
f 130/7/9 126/7/9 132/7/9
f 130/7/9 132/7/9 129/7/9
f 129/7/9 132/7/9 131/7/9
f 129/7/9 131/7/9 134/7/9
f 116/6/34 121/5/39 119/6/37
f 121/5/39 116/6/34 117/5/35
f 134/7/57 120/6/51 129/7/49
f 120/6/51 134/7/57 119/6/58
f 122/5/40 118/6/36 124/6/42
f 118/6/36 122/5/40 117/5/35
f 124/6/46 132/7/56 126/7/44
f 132/7/56 124/6/46 118/6/54
f 135/8/59 113/5/60 121/5/59
f 113/5/60 135/8/59 136/8/60
f 127/8/47 113/5/60 136/8/60
f 113/5/60 127/8/47 122/5/47
f 114/6/52 133/7/61 130/7/50
f 133/7/61 114/6/52 115/6/62
f 131/7/55 119/6/58 134/7/57
f 119/6/58 131/7/55 116/6/53
f 115/6/62 125/7/43 133/7/61
f 125/7/43 115/6/62 123/6/45
f 117/5/48 135/8/59 121/5/59
f 135/8/59 117/5/48 128/8/48
f 122/5/40 115/6/33 113/5/31
f 115/6/33 122/5/40 123/6/41
f 139/9/63 138/9/64 137/9/63
f 138/9/64 139/9/63 140/9/64
f 137/9/63 141/10/65 139/9/63
f 141/10/65 137/9/63 142/10/65
f 143/10/66 138/9/64 140/9/64
f 138/9/64 143/10/66 144/10/66
f 143/10/66 142/10/65 144/10/66
f 142/10/65 143/10/66 141/10/65
f 147/10/67 146/10/68 145/10/67
f 146/10/68 147/10/67 142/10/68
f 145/10/67 148/9/69 147/10/67
f 148/9/69 145/10/67 149/9/69
f 150/9/70 142/10/68 137/9/70
f 142/10/68 150/9/70 146/10/68
f 150/9/70 148/9/69 149/9/69
f 148/9/69 150/9/70 137/9/70
f 141/10/67 152/10/68 151/10/67
f 152/10/68 141/10/67 153/10/68
f 154/9/70 152/10/68 153/10/68
f 152/10/68 154/9/70 155/9/70
f 151/10/67 139/9/69 141/10/67
f 139/9/69 151/10/67 156/9/69
f 155/9/70 139/9/69 156/9/69
f 139/9/69 155/9/70 154/9/70
f 151/10/66 157/10/65 146/10/66
f 157/10/65 151/10/66 158/10/65
f 160/9/63 158/10/65 159/9/63
f 158/10/65 160/9/63 157/10/65
f 159/9/63 150/9/64 160/9/63
f 150/9/64 159/9/63 156/9/64
f 151/10/66 150/9/64 156/9/64
f 150/9/64 151/10/66 146/10/66

