# Created by Kenney (www.kenney.nl)

mtllib tent-roof.mtl

g tent-roof

v 0.8531249 1.2375 1.90625 1 1 1
v 0.0953123 1.9875 1.80625 1 1 1
v 0.9531248 1.2375 1.80625 1 1 1
v -0.09531273 1.9875 1.80625 1 1 1
v -0.8531253 1.2375 1.90625 1 1 1
v -0.9531253 1.2375 1.80625 1 1 1
v 0.9531253 1.2375 -1.80625 1 1 1
v 0.09531273 1.9875 -1.80625 1 1 1
v 0.8531253 1.2375 -1.90625 1 1 1
v -0.0953123 1.9875 -1.80625 1 1 1
v -0.9531248 1.2375 -1.80625 1 1 1
v -0.8531249 1.2375 -1.90625 1 1 1
v 0.8531247 1.2375 1.90625 1 1 1
v 0.8531247 1.0875 1.90625 1 1 1
v -0.8531255 1.2375 1.90625 1 1 1
v -0.8531255 1.0875 1.90625 1 1 1
v 0.8531252 1.0875 -1.90625 1 1 1
v 0.9531252 1.0875 -1.80625 1 1 1
v 0.8531252 1.2375 -1.90625 1 1 1
v 0.9531252 1.2375 -1.80625 1 1 1
v -0.9531249 1.0875 -1.80625 1 1 1
v -0.853125 1.0875 -1.90625 1 1 1
v -0.9531249 1.2375 -1.80625 1 1 1
v -0.853125 1.2375 -1.90625 1 1 1
v -0.9531254 1.0875 1.80625 1 1 1
v -0.9531254 1.2375 1.80625 1 1 1
v 0.9531247 1.0875 1.80625 1 1 1
v 0.9531247 1.2375 1.80625 1 1 1
v 0.853125 1.2375 1.90625 1 1 1
v -0.853125 1.2375 1.90625 1 1 1
v 0.0953125 1.9875 1.80625 1 1 1
v -0.0953125 1.9875 1.80625 1 1 1
v -0.853125 1.2375 -1.90625 1 1 1
v 0.853125 1.2375 -1.90625 1 1 1
v -0.0953125 1.9875 -1.80625 1 1 1
v 0.0953125 1.9875 -1.80625 1 1 1
v -0.790625 0.35 0.03125001 1 1 1
v -0.759375 0.2875 0.03125001 1 1 1
v -0.790625 0.2875 0.06250001 1 1 1
v -0.853125 0.2875 -0.06250001 1 1 1
v -0.853125 0.35 -0.03125001 1 1 1
v -0.884375 0.2875 -0.03125001 1 1 1
v -0.790625 0.2875 -0.0625 1 1 1
v -0.759375 0.2875 -0.03125 1 1 1
v -0.790625 0.35 -0.03125 1 1 1
v -0.853125 0.35 0.03125 1 1 1
v -0.853125 0.2875 0.0625 1 1 1
v -0.884375 0.2875 0.03125 1 1 1
v -0.8609375 0 0.078125 1 1 1
v -0.9 0 0.03906249 1 1 1
v -0.853125 1.0875 0.03125 1 1 1
v -0.853125 1.0875 -0.03125001 1 1 1
v -0.74375 0 -0.03906249 1 1 1
v -0.74375 0 0.03906251 1 1 1
v -0.8609375 0 -0.07812501 1 1 1
v -0.9 0 -0.03906251 1 1 1
v -0.7828125 0 0.07812501 1 1 1
v -0.7828125 0 -0.078125 1 1 1
v -0.790625 1.0875 -0.03125 1 1 1
v -0.790625 1.0875 0.03125001 1 1 1
v 0.853125 0.35 0.03125001 1 1 1
v 0.884375 0.2875 0.03125001 1 1 1
v 0.853125 0.2875 0.06250001 1 1 1
v 0.790625 0.2875 -0.06250001 1 1 1
v 0.790625 0.35 -0.03125001 1 1 1
v 0.759375 0.2875 -0.03125001 1 1 1
v 0.853125 0.2875 -0.0625 1 1 1
v 0.884375 0.2875 -0.03125 1 1 1
v 0.853125 0.35 -0.03125 1 1 1
v 0.790625 0.35 0.03125 1 1 1
v 0.790625 0.2875 0.0625 1 1 1
v 0.759375 0.2875 0.03125 1 1 1
v 0.7828125 0 0.078125 1 1 1
v 0.74375 0 0.03906249 1 1 1
v 0.790625 1.0875 0.03125 1 1 1
v 0.790625 1.0875 -0.03125001 1 1 1
v 0.9 0 -0.03906249 1 1 1
v 0.9 0 0.03906251 1 1 1
v 0.7828125 0 -0.07812501 1 1 1
v 0.74375 0 -0.03906251 1 1 1
v 0.8609375 0 0.07812501 1 1 1
v 0.8609375 0 -0.078125 1 1 1
v 0.853125 1.0875 -0.03125 1 1 1
v 0.853125 1.0875 0.03125001 1 1 1
v -0.790625 0.35 -1.74375 1 1 1
v -0.759375 0.2875 -1.74375 1 1 1
v -0.790625 0.2875 -1.7125 1 1 1
v -0.853125 0.2875 -1.8375 1 1 1
v -0.853125 0.35 -1.80625 1 1 1
v -0.884375 0.2875 -1.80625 1 1 1
v -0.790625 0.2875 -1.8375 1 1 1
v -0.759375 0.2875 -1.80625 1 1 1
v -0.790625 0.35 -1.80625 1 1 1
v -0.853125 0.35 -1.74375 1 1 1
v -0.853125 0.2875 -1.7125 1 1 1
v -0.884375 0.2875 -1.74375 1 1 1
v -0.8609375 0 -1.696875 1 1 1
v -0.9 0 -1.735937 1 1 1
v -0.853125 1.0875 -1.74375 1 1 1
v -0.853125 1.0875 -1.80625 1 1 1
v -0.74375 0 -1.814062 1 1 1
v -0.74375 0 -1.735937 1 1 1
v -0.8609375 0 -1.853125 1 1 1
v -0.9 0 -1.814062 1 1 1
v -0.7828125 0 -1.696875 1 1 1
v -0.7828125 0 -1.853125 1 1 1
v -0.790625 1.0875 -1.80625 1 1 1
v -0.790625 1.0875 -1.74375 1 1 1
v 0.853125 0.35 1.80625 1 1 1
v 0.884375 0.2875 1.80625 1 1 1
v 0.853125 0.2875 1.8375 1 1 1
v 0.790625 0.2875 1.7125 1 1 1
v 0.790625 0.35 1.74375 1 1 1
v 0.759375 0.2875 1.74375 1 1 1
v 0.853125 0.2875 1.7125 1 1 1
v 0.884375 0.2875 1.74375 1 1 1
v 0.853125 0.35 1.74375 1 1 1
v 0.790625 0.35 1.80625 1 1 1
v 0.790625 0.2875 1.8375 1 1 1
v 0.759375 0.2875 1.80625 1 1 1
v 0.7828125 0 1.853125 1 1 1
v 0.74375 0 1.814062 1 1 1
v 0.790625 1.0875 1.80625 1 1 1
v 0.790625 1.0875 1.74375 1 1 1
v 0.9 0 1.735937 1 1 1
v 0.9 0 1.814062 1 1 1
v 0.7828125 0 1.696875 1 1 1
v 0.74375 0 1.735937 1 1 1
v 0.8609375 0 1.853125 1 1 1
v 0.8609375 0 1.696875 1 1 1
v 0.853125 1.0875 1.74375 1 1 1
v 0.853125 1.0875 1.80625 1 1 1
v -0.790625 0.35 1.80625 1 1 1
v -0.759375 0.2875 1.80625 1 1 1
v -0.790625 0.2875 1.8375 1 1 1
v -0.853125 0.2875 1.7125 1 1 1
v -0.853125 0.35 1.74375 1 1 1
v -0.884375 0.2875 1.74375 1 1 1
v -0.790625 0.2875 1.7125 1 1 1
v -0.759375 0.2875 1.74375 1 1 1
v -0.790625 0.35 1.74375 1 1 1
v -0.853125 0.35 1.80625 1 1 1
v -0.853125 0.2875 1.8375 1 1 1
v -0.884375 0.2875 1.80625 1 1 1
v -0.8609375 0 1.853125 1 1 1
v -0.9 0 1.814062 1 1 1
v -0.853125 1.0875 1.80625 1 1 1
v -0.853125 1.0875 1.74375 1 1 1
v -0.74375 0 1.735937 1 1 1
v -0.74375 0 1.814062 1 1 1
v -0.8609375 0 1.696875 1 1 1
v -0.9 0 1.735937 1 1 1
v -0.7828125 0 1.853125 1 1 1
v -0.7828125 0 1.696875 1 1 1
v -0.790625 1.0875 1.74375 1 1 1
v -0.790625 1.0875 1.80625 1 1 1
v 0.853125 0.35 -1.74375 1 1 1
v 0.884375 0.2875 -1.74375 1 1 1
v 0.853125 0.2875 -1.7125 1 1 1
v 0.790625 0.2875 -1.8375 1 1 1
v 0.790625 0.35 -1.80625 1 1 1
v 0.759375 0.2875 -1.80625 1 1 1
v 0.853125 0.2875 -1.8375 1 1 1
v 0.884375 0.2875 -1.80625 1 1 1
v 0.853125 0.35 -1.80625 1 1 1
v 0.790625 0.35 -1.74375 1 1 1
v 0.790625 0.2875 -1.7125 1 1 1
v 0.759375 0.2875 -1.74375 1 1 1
v 0.7828125 0 -1.696875 1 1 1
v 0.74375 0 -1.735937 1 1 1
v 0.790625 1.0875 -1.74375 1 1 1
v 0.790625 1.0875 -1.80625 1 1 1
v 0.9 0 -1.814062 1 1 1
v 0.9 0 -1.735937 1 1 1
v 0.7828125 0 -1.853125 1 1 1
v 0.74375 0 -1.814062 1 1 1
v 0.8609375 0 -1.696875 1 1 1
v 0.8609375 0 -1.853125 1 1 1
v 0.853125 1.0875 -1.80625 1 1 1
v 0.853125 1.0875 -1.74375 1 1 1
v 0.7906248 0.9 1.74375 1 1 1
v 0.8531248 0.9 1.74375 1 1 1
v 0.790625 0.9 0.0312503 1 1 1
v 0.853125 0.9 0.0312503 1 1 1
v 0.7906252 0.9 -1.74375 1 1 1
v 0.7906252 0.9625 -1.74375 1 1 1
v 0.790625 0.9 -0.0312497 1 1 1
v 0.790625 0.9625 -0.0312497 1 1 1
v 0.853125 0.9625 -0.0312497 1 1 1
v 0.8531252 0.9625 -1.74375 1 1 1
v -0.7906255 0.9625 1.80625 1 1 1
v -0.7906254 0.9625 1.74375 1 1 1
v 0.7906247 0.9625 1.80625 1 1 1
v 0.7906248 0.9625 1.74375 1 1 1
v 0.7906247 0.9 1.80625 1 1 1
v -0.7906255 0.9 1.80625 1 1 1
v -0.7906254 0.9 1.74375 1 1 1
v -0.790625 0.9625 -1.74375 1 1 1
v -0.790625 0.9625 -1.80625 1 1 1
v 0.7906252 0.9625 -1.80625 1 1 1
v 0.7906252 0.9 -1.80625 1 1 1
v -0.790625 0.9 -1.80625 1 1 1
v -0.790625 0.9 -1.74375 1 1 1
v -0.7906252 0.9625 -0.03124994 1 1 1
v -0.8531252 0.9625 -0.03124994 1 1 1
v -0.853125 0.9625 -1.74375 1 1 1
v -0.853125 0.9 -1.74375 1 1 1
v -0.8531252 0.9 -0.03124994 1 1 1
v -0.8531254 0.9 1.74375 1 1 1
v -0.8531252 0.9 0.03125006 1 1 1
v -0.7906252 0.9 0.03125006 1 1 1
v 0.853125 0.9625 0.0312503 1 1 1
v 0.8531248 0.9625 1.74375 1 1 1
v 0.8531252 0.9 -1.74375 1 1 1
v 0.853125 0.9 -0.0312497 1 1 1
v 0.790625 0.9625 0.0312503 1 1 1
v -0.7906252 0.9 -0.03124994 1 1 1
v -0.7906252 0.9625 0.03125006 1 1 1
v -0.8531254 0.9625 1.74375 1 1 1
v -0.8531252 0.9625 0.03125006 1 1 1

vn 0.5498022 0.6288363 0.5498023
vn 0.3616179 0.9321047 0.02033147
vn 0.6414781 0.7336904 0.224063
vn -0.3616179 0.9321047 0.02033139
vn -0.5498023 0.6288363 0.5498022
vn -0.6414781 0.7336904 0.2240628
vn 0.6414781 0.7336904 -0.2240628
vn 0.3616179 0.9321047 -0.02033139
vn 0.5498023 0.6288363 -0.5498022
vn -0.3616179 0.9321047 -0.02033147
vn -0.6414781 0.7336904 -0.224063
vn -0.5498022 0.6288363 -0.5498023
vn 0.3826834 0 0.9238797
vn -0.3826836 0 0.9238796
vn 0.3826836 0 -0.9238796
vn 0.9238797 0 -0.3826834
vn -0.9238796 0 -0.3826836
vn -0.3826834 0 -0.9238797
vn -0.9238797 0 0.3826834
vn 0.9238796 0 0.3826836
vn 0 -1 0
vn 0 0.1321637 0.9912279
vn 0 0.1321637 -0.9912279
vn 0.5997861 0.5296351 0.5997862
vn 0.8486532 0.4243266 0.3158081
vn 0.3158079 0.4243266 0.8486533
vn -0.3158079 0.4243266 -0.8486533
vn -0.5997861 0.5296351 -0.5997862
vn -0.8486532 0.4243266 -0.3158081
vn 0.3158081 0.4243266 -0.8486532
vn 0.8486533 0.4243266 -0.3158079
vn 0.5997862 0.5296351 -0.5997861
vn -0.5997862 0.5296351 0.5997861
vn -0.3158081 0.4243266 0.8486532
vn -0.8486533 0.4243266 0.3158079
vn -0.3829279 0.06050319 0.921795
vn -0.9217951 0.06050319 0.3829277
vn -0.3809952 0.0604942 0.9225959
vn -0.922596 0.0604942 0.3809949
vn -0.7071069 0 0.7071068
vn -0.7071068 0 -0.7071069
vn 0.9217951 0.06050319 -0.3829277
vn 0.921795 0.06050319 0.3829279
vn 0.922596 0.0604942 -0.3809949
vn 0.9225959 0.0604942 0.3809952
vn -0.3809949 0.0604942 -0.922596
vn -0.9225959 0.0604942 -0.3809952
vn -0.3829277 0.06050319 -0.9217951
vn -0.921795 0.06050319 -0.3829279
vn 0.3829279 0.06050319 -0.921795
vn 0.3809952 0.0604942 -0.9225959
vn 0.7071069 0 -0.7071068
vn 0.7071068 0 0.7071069
vn 0.3829277 0.06050319 0.9217951
vn 0.3809949 0.0604942 0.922596
vn -0.7071068 -0.7071068 -8.42937E-08
vn 0.7071068 -0.7071068 8.42937E-08
vn -0.7071068 0.7071068 -8.42937E-08
vn 0.7071068 0.7071068 8.42937E-08
vn -8.42937E-08 0.7071068 0.7071068
vn 8.42937E-08 0.7071068 -0.7071068
vn -8.42937E-08 -0.7071068 0.7071068
vn 8.42937E-08 -0.7071068 -0.7071068
vn 1 0 1.192093E-07

vt 0.21875 0.395
vt 0.21875 0.475
vt 0.21875 0.275
vt 0.21875 0.355
vt 0.46875 0.1606322
vt 0.46875 0.1721264
vt 0.46875 0.225
vt 0.46875 0.025
vt 0.46875 0.075
vt 0.46875 0.175

usemtl colormap

f 3/1/3 2/2/2 1/1/1
f 6/1/6 5/1/5 4/2/4
f 9/1/9 8/2/8 7/1/7
f 12/1/12 11/1/11 10/2/10
f 3/1/3 8/2/8 2/2/2
f 8/2/8 3/1/3 7/1/7
f 10/2/10 6/1/6 4/2/4
f 6/1/6 10/2/10 11/1/11
f 8/2/8 4/2/4 2/2/2
f 4/2/4 8/2/8 10/2/10
f 15/2/14 14/1/13 13/2/13
f 14/1/13 15/2/14 16/1/14
f 19/2/15 18/1/16 17/1/15
f 18/1/16 19/2/15 20/2/16
f 23/2/17 22/1/18 21/1/17
f 22/1/18 23/2/17 24/2/18
f 22/1/18 19/2/15 17/1/15
f 19/2/15 22/1/18 24/2/18
f 15/2/14 25/1/19 16/1/14
f 25/1/19 15/2/14 26/2/19
f 28/2/20 14/1/13 27/1/20
f 14/1/13 28/2/20 13/2/13
f 20/2/16 27/1/20 18/1/16
f 27/1/20 20/2/16 28/2/20
f 26/2/19 21/1/17 25/1/19
f 21/1/17 26/2/19 23/2/17
f 25/1/21 14/1/21 16/1/21
f 14/1/21 25/1/21 27/1/21
f 27/1/21 25/1/21 21/1/21
f 27/1/21 21/1/21 18/1/21
f 18/1/21 21/1/21 22/1/21
f 18/1/21 22/1/21 17/1/21
f 31/4/22 30/3/22 29/3/22
f 30/3/22 31/4/22 32/4/22
f 35/4/23 34/3/23 33/3/23
f 34/3/23 35/4/23 36/4/23
f 39/6/26 38/6/25 37/5/24
f 42/6/29 41/5/28 40/6/27
f 45/5/32 44/6/31 43/6/30
f 48/6/35 47/6/34 46/5/33
f 47/6/38 50/7/37 49/7/36
f 50/7/37 47/6/38 48/6/39
f 51/8/40 41/5/41 46/5/40
f 41/5/41 51/8/40 52/8/41
f 44/6/44 54/7/43 53/7/42
f 54/7/43 44/6/44 38/6/45
f 45/5/32 38/6/25 44/6/31
f 38/6/25 45/5/32 37/5/24
f 55/7/48 42/6/47 40/6/46
f 42/6/47 55/7/48 56/7/49
f 50/7/21 57/7/21 49/7/21
f 57/7/21 50/7/21 54/7/21
f 54/7/21 50/7/21 56/7/21
f 54/7/21 56/7/21 53/7/21
f 53/7/21 56/7/21 55/7/21
f 53/7/21 55/7/21 58/7/21
f 40/6/27 45/5/32 43/6/30
f 45/5/32 40/6/27 41/5/28
f 58/7/50 44/6/44 53/7/42
f 44/6/44 58/7/50 43/6/51
f 46/5/33 42/6/29 48/6/35
f 42/6/29 46/5/33 41/5/28
f 48/6/39 56/7/49 50/7/37
f 56/7/49 48/6/39 42/6/47
f 59/8/52 37/5/53 45/5/52
f 37/5/53 59/8/52 60/8/53
f 51/8/40 37/5/53 60/8/53
f 37/5/53 51/8/40 46/5/40
f 38/6/45 57/7/54 54/7/43
f 57/7/54 38/6/45 39/6/55
f 55/7/48 43/6/51 58/7/50
f 43/6/51 55/7/48 40/6/46
f 39/6/55 49/7/36 57/7/54
f 49/7/36 39/6/55 47/6/38
f 41/5/41 59/8/52 45/5/52
f 59/8/52 41/5/41 52/8/41
f 46/5/33 39/6/26 37/5/24
f 39/6/26 46/5/33 47/6/34
f 63/6/26 62/6/25 61/5/24
f 66/6/29 65/5/28 64/6/27
f 69/5/32 68/6/31 67/6/30
f 72/6/35 71/6/34 70/5/33
f 71/6/38 74/7/37 73/7/36
f 74/7/37 71/6/38 72/6/39
f 75/8/40 65/5/41 70/5/40
f 65/5/41 75/8/40 76/8/41
f 68/6/44 78/7/43 77/7/42
f 78/7/43 68/6/44 62/6/45
f 69/5/32 62/6/25 68/6/31
f 62/6/25 69/5/32 61/5/24
f 79/7/48 66/6/47 64/6/46
f 66/6/47 79/7/48 80/7/49
f 74/7/21 81/7/21 73/7/21
f 81/7/21 74/7/21 78/7/21
f 78/7/21 74/7/21 80/7/21
f 78/7/21 80/7/21 77/7/21
f 77/7/21 80/7/21 79/7/21
f 77/7/21 79/7/21 82/7/21
f 64/6/27 69/5/32 67/6/30
f 69/5/32 64/6/27 65/5/28
f 82/7/50 68/6/44 77/7/42
f 68/6/44 82/7/50 67/6/51
f 70/5/33 66/6/29 72/6/35
f 66/6/29 70/5/33 65/5/28
f 72/6/39 80/7/49 74/7/37
f 80/7/49 72/6/39 66/6/47
f 83/8/52 61/5/53 69/5/52
f 61/5/53 83/8/52 84/8/53
f 75/8/40 61/5/53 84/8/53
f 61/5/53 75/8/40 70/5/40
f 62/6/45 81/7/54 78/7/43
f 81/7/54 62/6/45 63/6/55
f 79/7/48 67/6/51 82/7/50
f 67/6/51 79/7/48 64/6/46
f 63/6/55 73/7/36 81/7/54
f 73/7/36 63/6/55 71/6/38
f 65/5/41 83/8/52 69/5/52
f 83/8/52 65/5/41 76/8/41
f 70/5/33 63/6/26 61/5/24
f 63/6/26 70/5/33 71/6/34
f 87/6/26 86/6/25 85/5/24
f 90/6/29 89/5/28 88/6/27
f 93/5/32 92/6/31 91/6/30
f 96/6/35 95/6/34 94/5/33
f 95/6/38 98/7/37 97/7/36
f 98/7/37 95/6/38 96/6/39
f 99/8/40 89/5/41 94/5/40
f 89/5/41 99/8/40 100/8/41
f 92/6/44 102/7/43 101/7/42
f 102/7/43 92/6/44 86/6/45
f 93/5/32 86/6/25 92/6/31
f 86/6/25 93/5/32 85/5/24
f 103/7/48 90/6/47 88/6/46
f 90/6/47 103/7/48 104/7/49
f 98/7/21 105/7/21 97/7/21
f 105/7/21 98/7/21 102/7/21
f 102/7/21 98/7/21 104/7/21
f 102/7/21 104/7/21 101/7/21
f 101/7/21 104/7/21 103/7/21
f 101/7/21 103/7/21 106/7/21
f 88/6/27 93/5/32 91/6/30
f 93/5/32 88/6/27 89/5/28
f 106/7/50 92/6/44 101/7/42
f 92/6/44 106/7/50 91/6/51
f 94/5/33 90/6/29 96/6/35
f 90/6/29 94/5/33 89/5/28
f 96/6/39 104/7/49 98/7/37
f 104/7/49 96/6/39 90/6/47
f 107/8/52 85/5/53 93/5/52
f 85/5/53 107/8/52 108/8/53
f 99/8/40 85/5/53 108/8/53
f 85/5/53 99/8/40 94/5/40
f 86/6/45 105/7/54 102/7/43
f 105/7/54 86/6/45 87/6/55
f 103/7/48 91/6/51 106/7/50
f 91/6/51 103/7/48 88/6/46
f 87/6/55 97/7/36 105/7/54
f 97/7/36 87/6/55 95/6/38
f 89/5/41 107/8/52 93/5/52
f 107/8/52 89/5/41 100/8/41
f 94/5/33 87/6/26 85/5/24
f 87/6/26 94/5/33 95/6/34
f 111/6/26 110/6/25 109/5/24
f 114/6/29 113/5/28 112/6/27
f 117/5/32 116/6/31 115/6/30
f 120/6/35 119/6/34 118/5/33
f 119/6/38 122/7/37 121/7/36
f 122/7/37 119/6/38 120/6/39
f 123/8/40 113/5/41 118/5/40
f 113/5/41 123/8/40 124/8/41
f 116/6/44 126/7/43 125/7/42
f 126/7/43 116/6/44 110/6/45
f 117/5/32 110/6/25 116/6/31
f 110/6/25 117/5/32 109/5/24
f 127/7/48 114/6/47 112/6/46
f 114/6/47 127/7/48 128/7/49
f 122/7/21 129/7/21 121/7/21
f 129/7/21 122/7/21 126/7/21
f 126/7/21 122/7/21 128/7/21
f 126/7/21 128/7/21 125/7/21
f 125/7/21 128/7/21 127/7/21
f 125/7/21 127/7/21 130/7/21
f 112/6/27 117/5/32 115/6/30
f 117/5/32 112/6/27 113/5/28
f 130/7/50 116/6/44 125/7/42
f 116/6/44 130/7/50 115/6/51
f 118/5/33 114/6/29 120/6/35
f 114/6/29 118/5/33 113/5/28
f 120/6/39 128/7/49 122/7/37
f 128/7/49 120/6/39 114/6/47
f 131/8/52 109/5/53 117/5/52
f 109/5/53 131/8/52 132/8/53
f 123/8/40 109/5/53 132/8/53
f 109/5/53 123/8/40 118/5/40
f 110/6/45 129/7/54 126/7/43
f 129/7/54 110/6/45 111/6/55
f 127/7/48 115/6/51 130/7/50
f 115/6/51 127/7/48 112/6/46
f 111/6/55 121/7/36 129/7/54
f 121/7/36 111/6/55 119/6/38
f 113/5/41 131/8/52 117/5/52
f 131/8/52 113/5/41 124/8/41
f 118/5/33 111/6/26 109/5/24
f 111/6/26 118/5/33 119/6/34
f 135/6/26 134/6/25 133/5/24
f 138/6/29 137/5/28 136/6/27
f 141/5/32 140/6/31 139/6/30
f 144/6/35 143/6/34 142/5/33
f 143/6/38 146/7/37 145/7/36
f 146/7/37 143/6/38 144/6/39
f 147/8/40 137/5/41 142/5/40
f 137/5/41 147/8/40 148/8/41
f 140/6/44 150/7/43 149/7/42
f 150/7/43 140/6/44 134/6/45
f 141/5/32 134/6/25 140/6/31
f 134/6/25 141/5/32 133/5/24
f 151/7/48 138/6/47 136/6/46
f 138/6/47 151/7/48 152/7/49
f 146/7/21 153/7/21 145/7/21
f 153/7/21 146/7/21 150/7/21
f 150/7/21 146/7/21 152/7/21
f 150/7/21 152/7/21 149/7/21
f 149/7/21 152/7/21 151/7/21
f 149/7/21 151/7/21 154/7/21
f 136/6/27 141/5/32 139/6/30
f 141/5/32 136/6/27 137/5/28
f 154/7/50 140/6/44 149/7/42
f 140/6/44 154/7/50 139/6/51
f 142/5/33 138/6/29 144/6/35
f 138/6/29 142/5/33 137/5/28
f 144/6/39 152/7/49 146/7/37
f 152/7/49 144/6/39 138/6/47
f 155/8/52 133/5/53 141/5/52
f 133/5/53 155/8/52 156/8/53
f 147/8/40 133/5/53 156/8/53
f 133/5/53 147/8/40 142/5/40
f 134/6/45 153/7/54 150/7/43
f 153/7/54 134/6/45 135/6/55
f 151/7/48 139/6/51 154/7/50
f 139/6/51 151/7/48 136/6/46
f 135/6/55 145/7/36 153/7/54
f 145/7/36 135/6/55 143/6/38
f 137/5/41 155/8/52 141/5/52
f 155/8/52 137/5/41 148/8/41
f 142/5/33 135/6/26 133/5/24
f 135/6/26 142/5/33 143/6/34
f 159/6/26 158/6/25 157/5/24
f 162/6/29 161/5/28 160/6/27
f 165/5/32 164/6/31 163/6/30
f 168/6/35 167/6/34 166/5/33
f 167/6/38 170/7/37 169/7/36
f 170/7/37 167/6/38 168/6/39
f 171/8/40 161/5/41 166/5/40
f 161/5/41 171/8/40 172/8/41
f 164/6/44 174/7/43 173/7/42
f 174/7/43 164/6/44 158/6/45
f 165/5/32 158/6/25 164/6/31
f 158/6/25 165/5/32 157/5/24
f 175/7/48 162/6/47 160/6/46
f 162/6/47 175/7/48 176/7/49
f 170/7/21 177/7/21 169/7/21
f 177/7/21 170/7/21 174/7/21
f 174/7/21 170/7/21 176/7/21
f 174/7/21 176/7/21 173/7/21
f 173/7/21 176/7/21 175/7/21
f 173/7/21 175/7/21 178/7/21
f 160/6/27 165/5/32 163/6/30
f 165/5/32 160/6/27 161/5/28
f 178/7/50 164/6/44 173/7/42
f 164/6/44 178/7/50 163/6/51
f 166/5/33 162/6/29 168/6/35
f 162/6/29 166/5/33 161/5/28
f 168/6/39 176/7/49 170/7/37
f 176/7/49 168/6/39 162/6/47
f 179/8/52 157/5/53 165/5/52
f 157/5/53 179/8/52 180/8/53
f 171/8/40 157/5/53 180/8/53
f 157/5/53 171/8/40 166/5/40
f 158/6/45 177/7/54 174/7/43
f 177/7/54 158/6/45 159/6/55
f 175/7/48 163/6/51 178/7/50
f 163/6/51 175/7/48 160/6/46
f 159/6/55 169/7/36 177/7/54
f 169/7/36 159/6/55 167/6/38
f 161/5/41 179/8/52 165/5/52
f 179/8/52 161/5/41 172/8/41
f 166/5/33 159/6/26 157/5/24
f 159/6/26 166/5/33 167/6/34
f 183/9/56 182/9/57 181/9/56
f 182/9/57 183/9/56 184/9/57
f 187/9/56 186/10/58 185/9/56
f 186/10/58 187/9/56 188/10/58
f 190/10/59 188/10/58 189/10/59
f 188/10/58 190/10/59 186/10/58
f 193/10/60 192/10/61 191/10/60
f 192/10/61 193/10/60 194/10/61
f 191/10/60 195/9/62 193/10/60
f 195/9/62 191/10/60 196/9/62
f 197/9/63 194/10/61 181/9/63
f 194/10/61 197/9/63 192/10/61
f 197/9/63 195/9/62 196/9/62
f 195/9/62 197/9/63 181/9/63
f 186/10/60 199/10/61 198/10/60
f 199/10/61 186/10/60 200/10/61
f 202/9/63 200/10/61 201/9/63
f 200/10/61 202/9/63 199/10/61
f 198/10/60 185/9/62 186/10/60
f 185/9/62 198/10/60 203/9/62
f 202/9/63 185/9/62 203/9/62
f 185/9/62 202/9/63 201/9/63
f 198/10/59 205/10/58 204/10/59
f 205/10/58 198/10/59 206/10/58
f 208/9/56 206/10/58 207/9/56
f 206/10/58 208/9/56 205/10/58
f 210/9/56 197/9/21 209/9/56
f 197/9/21 210/9/56 211/9/21
f 212/10/59 182/9/57 184/9/57
f 182/9/57 212/10/59 213/10/59
f 190/10/59 215/9/57 214/9/57
f 215/9/57 190/10/59 189/10/59
f 185/9/56 215/9/57 187/9/56
f 215/9/57 185/9/56 214/9/57
f 212/10/59 194/10/58 213/10/59
f 194/10/58 212/10/59 216/10/58
f 181/9/56 216/10/58 183/9/56
f 216/10/58 181/9/56 194/10/58
f 198/10/59 217/9/57 203/9/57
f 217/9/57 198/10/59 204/10/59
f 218/10/59 197/9/64 211/9/64
f 197/9/64 218/10/59 192/10/59
f 208/9/56 203/9/57 217/9/57
f 203/9/57 208/9/56 207/9/56
f 192/10/59 220/10/58 219/10/58
f 220/10/58 192/10/59 218/10/59
f 209/9/56 220/10/58 210/9/56
f 220/10/58 209/9/56 219/10/58

g tent-roof




usemtl colormap

f 3/1/3 2/2/2 1/1/1
f 6/1/6 5/1/5 4/2/4
f 9/1/9 8/2/8 7/1/7
f 12/1/12 11/1/11 10/2/10
f 3/1/3 8/2/8 2/2/2
f 8/2/8 3/1/3 7/1/7
f 10/2/10 6/1/6 4/2/4
f 6/1/6 10/2/10 11/1/11
f 8/2/8 4/2/4 2/2/2
f 4/2/4 8/2/8 10/2/10
f 15/2/14 14/1/13 13/2/13
f 14/1/13 15/2/14 16/1/14
f 19/2/15 18/1/16 17/1/15
f 18/1/16 19/2/15 20/2/16
f 23/2/17 22/1/18 21/1/17
f 22/1/18 23/2/17 24/2/18
f 22/1/18 19/2/15 17/1/15
f 19/2/15 22/1/18 24/2/18
f 15/2/14 25/1/19 16/1/14
f 25/1/19 15/2/14 26/2/19
f 28/2/20 14/1/13 27/1/20
f 14/1/13 28/2/20 13/2/13
f 20/2/16 27/1/20 18/1/16
f 27/1/20 20/2/16 28/2/20
f 26/2/19 21/1/17 25/1/19
f 21/1/17 26/2/19 23/2/17
f 25/1/21 14/1/21 16/1/21
f 14/1/21 25/1/21 27/1/21
f 27/1/21 25/1/21 21/1/21
f 27/1/21 21/1/21 18/1/21
f 18/1/21 21/1/21 22/1/21
f 18/1/21 22/1/21 17/1/21
f 31/4/22 30/3/22 29/3/22
f 30/3/22 31/4/22 32/4/22
f 35/4/23 34/3/23 33/3/23
f 34/3/23 35/4/23 36/4/23
f 39/6/26 38/6/25 37/5/24
f 42/6/29 41/5/28 40/6/27
f 45/5/32 44/6/31 43/6/30
f 48/6/35 47/6/34 46/5/33
f 47/6/38 50/7/37 49/7/36
f 50/7/37 47/6/38 48/6/39
f 51/8/40 41/5/41 46/5/40
f 41/5/41 51/8/40 52/8/41
f 44/6/44 54/7/43 53/7/42
f 54/7/43 44/6/44 38/6/45
f 45/5/32 38/6/25 44/6/31
f 38/6/25 45/5/32 37/5/24
f 55/7/48 42/6/47 40/6/46
f 42/6/47 55/7/48 56/7/49
f 50/7/21 57/7/21 49/7/21
f 57/7/21 50/7/21 54/7/21
f 54/7/21 50/7/21 56/7/21
f 54/7/21 56/7/21 53/7/21
f 53/7/21 56/7/21 55/7/21
f 53/7/21 55/7/21 58/7/21
f 40/6/27 45/5/32 43/6/30
f 45/5/32 40/6/27 41/5/28
f 58/7/50 44/6/44 53/7/42
f 44/6/44 58/7/50 43/6/51
f 46/5/33 42/6/29 48/6/35
f 42/6/29 46/5/33 41/5/28
f 48/6/39 56/7/49 50/7/37
f 56/7/49 48/6/39 42/6/47
f 59/8/52 37/5/53 45/5/52
f 37/5/53 59/8/52 60/8/53
f 51/8/40 37/5/53 60/8/53
f 37/5/53 51/8/40 46/5/40
f 38/6/45 57/7/54 54/7/43
f 57/7/54 38/6/45 39/6/55
f 55/7/48 43/6/51 58/7/50
f 43/6/51 55/7/48 40/6/46
f 39/6/55 49/7/36 57/7/54
f 49/7/36 39/6/55 47/6/38
f 41/5/41 59/8/52 45/5/52
f 59/8/52 41/5/41 52/8/41
f 46/5/33 39/6/26 37/5/24
f 39/6/26 46/5/33 47/6/34
f 63/6/26 62/6/25 61/5/24
f 66/6/29 65/5/28 64/6/27
f 69/5/32 68/6/31 67/6/30
f 72/6/35 71/6/34 70/5/33
f 71/6/38 74/7/37 73/7/36
f 74/7/37 71/6/38 72/6/39
f 75/8/40 65/5/41 70/5/40
f 65/5/41 75/8/40 76/8/41
f 68/6/44 78/7/43 77/7/42
f 78/7/43 68/6/44 62/6/45
f 69/5/32 62/6/25 68/6/31
f 62/6/25 69/5/32 61/5/24
f 79/7/48 66/6/47 64/6/46
f 66/6/47 79/7/48 80/7/49
f 74/7/21 81/7/21 73/7/21
f 81/7/21 74/7/21 78/7/21
f 78/7/21 74/7/21 80/7/21
f 78/7/21 80/7/21 77/7/21
f 77/7/21 80/7/21 79/7/21
f 77/7/21 79/7/21 82/7/21
f 64/6/27 69/5/32 67/6/30
f 69/5/32 64/6/27 65/5/28
f 82/7/50 68/6/44 77/7/42
f 68/6/44 82/7/50 67/6/51
f 70/5/33 66/6/29 72/6/35
f 66/6/29 70/5/33 65/5/28
f 72/6/39 80/7/49 74/7/37
f 80/7/49 72/6/39 66/6/47
f 83/8/52 61/5/53 69/5/52
f 61/5/53 83/8/52 84/8/53
f 75/8/40 61/5/53 84/8/53
f 61/5/53 75/8/40 70/5/40
f 62/6/45 81/7/54 78/7/43
f 81/7/54 62/6/45 63/6/55
f 79/7/48 67/6/51 82/7/50
f 67/6/51 79/7/48 64/6/46
f 63/6/55 73/7/36 81/7/54
f 73/7/36 63/6/55 71/6/38
f 65/5/41 83/8/52 69/5/52
f 83/8/52 65/5/41 76/8/41
f 70/5/33 63/6/26 61/5/24
f 63/6/26 70/5/33 71/6/34
f 87/6/26 86/6/25 85/5/24
f 90/6/29 89/5/28 88/6/27
f 93/5/32 92/6/31 91/6/30
f 96/6/35 95/6/34 94/5/33
f 95/6/38 98/7/37 97/7/36
f 98/7/37 95/6/38 96/6/39
f 99/8/40 89/5/41 94/5/40
f 89/5/41 99/8/40 100/8/41
f 92/6/44 102/7/43 101/7/42
f 102/7/43 92/6/44 86/6/45
f 93/5/32 86/6/25 92/6/31
f 86/6/25 93/5/32 85/5/24
f 103/7/48 90/6/47 88/6/46
f 90/6/47 103/7/48 104/7/49
f 98/7/21 105/7/21 97/7/21
f 105/7/21 98/7/21 102/7/21
f 102/7/21 98/7/21 104/7/21
f 102/7/21 104/7/21 101/7/21
f 101/7/21 104/7/21 103/7/21
f 101/7/21 103/7/21 106/7/21
f 88/6/27 93/5/32 91/6/30
f 93/5/32 88/6/27 89/5/28
f 106/7/50 92/6/44 101/7/42
f 92/6/44 106/7/50 91/6/51
f 94/5/33 90/6/29 96/6/35
f 90/6/29 94/5/33 89/5/28
f 96/6/39 104/7/49 98/7/37
f 104/7/49 96/6/39 90/6/47
f 107/8/52 85/5/53 93/5/52
f 85/5/53 107/8/52 108/8/53
f 99/8/40 85/5/53 108/8/53
f 85/5/53 99/8/40 94/5/40
f 86/6/45 105/7/54 102/7/43
f 105/7/54 86/6/45 87/6/55
f 103/7/48 91/6/51 106/7/50
f 91/6/51 103/7/48 88/6/46
f 87/6/55 97/7/36 105/7/54
f 97/7/36 87/6/55 95/6/38
f 89/5/41 107/8/52 93/5/52
f 107/8/52 89/5/41 100/8/41
f 94/5/33 87/6/26 85/5/24
f 87/6/26 94/5/33 95/6/34
f 111/6/26 110/6/25 109/5/24
f 114/6/29 113/5/28 112/6/27
f 117/5/32 116/6/31 115/6/30
f 120/6/35 119/6/34 118/5/33
f 119/6/38 122/7/37 121/7/36
f 122/7/37 119/6/38 120/6/39
f 123/8/40 113/5/41 118/5/40
f 113/5/41 123/8/40 124/8/41
f 116/6/44 126/7/43 125/7/42
f 126/7/43 116/6/44 110/6/45
f 117/5/32 110/6/25 116/6/31
f 110/6/25 117/5/32 109/5/24
f 127/7/48 114/6/47 112/6/46
f 114/6/47 127/7/48 128/7/49
f 122/7/21 129/7/21 121/7/21
f 129/7/21 122/7/21 126/7/21
f 126/7/21 122/7/21 128/7/21
f 126/7/21 128/7/21 125/7/21
f 125/7/21 128/7/21 127/7/21
f 125/7/21 127/7/21 130/7/21
f 112/6/27 117/5/32 115/6/30
f 117/5/32 112/6/27 113/5/28
f 130/7/50 116/6/44 125/7/42
f 116/6/44 130/7/50 115/6/51
f 118/5/33 114/6/29 120/6/35
f 114/6/29 118/5/33 113/5/28
f 120/6/39 128/7/49 122/7/37
f 128/7/49 120/6/39 114/6/47
f 131/8/52 109/5/53 117/5/52
f 109/5/53 131/8/52 132/8/53
f 123/8/40 109/5/53 132/8/53
f 109/5/53 123/8/40 118/5/40
f 110/6/45 129/7/54 126/7/43
f 129/7/54 110/6/45 111/6/55
f 127/7/48 115/6/51 130/7/50
f 115/6/51 127/7/48 112/6/46
f 111/6/55 121/7/36 129/7/54
f 121/7/36 111/6/55 119/6/38
f 113/5/41 131/8/52 117/5/52
f 131/8/52 113/5/41 124/8/41
f 118/5/33 111/6/26 109/5/24
f 111/6/26 118/5/33 119/6/34
f 135/6/26 134/6/25 133/5/24
f 138/6/29 137/5/28 136/6/27
f 141/5/32 140/6/31 139/6/30
f 144/6/35 143/6/34 142/5/33
f 143/6/38 146/7/37 145/7/36
f 146/7/37 143/6/38 144/6/39
f 147/8/40 137/5/41 142/5/40
f 137/5/41 147/8/40 148/8/41
f 140/6/44 150/7/43 149/7/42
f 150/7/43 140/6/44 134/6/45
f 141/5/32 134/6/25 140/6/31
f 134/6/25 141/5/32 133/5/24
f 151/7/48 138/6/47 136/6/46
f 138/6/47 151/7/48 152/7/49
f 146/7/21 153/7/21 145/7/21
f 153/7/21 146/7/21 150/7/21
f 150/7/21 146/7/21 152/7/21
f 150/7/21 152/7/21 149/7/21
f 149/7/21 152/7/21 151/7/21
f 149/7/21 151/7/21 154/7/21
f 136/6/27 141/5/32 139/6/30
f 141/5/32 136/6/27 137/5/28
f 154/7/50 140/6/44 149/7/42
f 140/6/44 154/7/50 139/6/51
f 142/5/33 138/6/29 144/6/35
f 138/6/29 142/5/33 137/5/28
f 144/6/39 152/7/49 146/7/37
f 152/7/49 144/6/39 138/6/47
f 155/8/52 133/5/53 141/5/52
f 133/5/53 155/8/52 156/8/53
f 147/8/40 133/5/53 156/8/53
f 133/5/53 147/8/40 142/5/40
f 134/6/45 153/7/54 150/7/43
f 153/7/54 134/6/45 135/6/55
f 151/7/48 139/6/51 154/7/50
f 139/6/51 151/7/48 136/6/46
f 135/6/55 145/7/36 153/7/54
f 145/7/36 135/6/55 143/6/38
f 137/5/41 155/8/52 141/5/52
f 155/8/52 137/5/41 148/8/41
f 142/5/33 135/6/26 133/5/24
f 135/6/26 142/5/33 143/6/34
f 159/6/26 158/6/25 157/5/24
f 162/6/29 161/5/28 160/6/27
f 165/5/32 164/6/31 163/6/30
f 168/6/35 167/6/34 166/5/33
f 167/6/38 170/7/37 169/7/36
f 170/7/37 167/6/38 168/6/39
f 171/8/40 161/5/41 166/5/40
f 161/5/41 171/8/40 172/8/41
f 164/6/44 174/7/43 173/7/42
f 174/7/43 164/6/44 158/6/45
f 165/5/32 158/6/25 164/6/31
f 158/6/25 165/5/32 157/5/24
f 175/7/48 162/6/47 160/6/46
f 162/6/47 175/7/48 176/7/49
f 170/7/21 177/7/21 169/7/21
f 177/7/21 170/7/21 174/7/21
f 174/7/21 170/7/21 176/7/21
f 174/7/21 176/7/21 173/7/21
f 173/7/21 176/7/21 175/7/21
f 173/7/21 175/7/21 178/7/21
f 160/6/27 165/5/32 163/6/30
f 165/5/32 160/6/27 161/5/28
f 178/7/50 164/6/44 173/7/42
f 164/6/44 178/7/50 163/6/51
f 166/5/33 162/6/29 168/6/35
f 162/6/29 166/5/33 161/5/28
f 168/6/39 176/7/49 170/7/37
f 176/7/49 168/6/39 162/6/47
f 179/8/52 157/5/53 165/5/52
f 157/5/53 179/8/52 180/8/53
f 171/8/40 157/5/53 180/8/53
f 157/5/53 171/8/40 166/5/40
f 158/6/45 177/7/54 174/7/43
f 177/7/54 158/6/45 159/6/55
f 175/7/48 163/6/51 178/7/50
f 163/6/51 175/7/48 160/6/46
f 159/6/55 169/7/36 177/7/54
f 169/7/36 159/6/55 167/6/38
f 161/5/41 179/8/52 165/5/52
f 179/8/52 161/5/41 172/8/41
f 166/5/33 159/6/26 157/5/24
f 159/6/26 166/5/33 167/6/34
f 183/9/56 182/9/57 181/9/56
f 182/9/57 183/9/56 184/9/57
f 187/9/56 186/10/58 185/9/56
f 186/10/58 187/9/56 188/10/58
f 190/10/59 188/10/58 189/10/59
f 188/10/58 190/10/59 186/10/58
f 193/10/60 192/10/61 191/10/60
f 192/10/61 193/10/60 194/10/61
f 191/10/60 195/9/62 193/10/60
f 195/9/62 191/10/60 196/9/62
f 197/9/63 194/10/61 181/9/63
f 194/10/61 197/9/63 192/10/61
f 197/9/63 195/9/62 196/9/62
f 195/9/62 197/9/63 181/9/63
f 186/10/60 199/10/61 198/10/60
f 199/10/61 186/10/60 200/10/61
f 202/9/63 200/10/61 201/9/63
f 200/10/61 202/9/63 199/10/61
f 198/10/60 185/9/62 186/10/60
f 185/9/62 198/10/60 203/9/62
f 202/9/63 185/9/62 203/9/62
f 185/9/62 202/9/63 201/9/63
f 198/10/59 205/10/58 204/10/59
f 205/10/58 198/10/59 206/10/58
f 208/9/56 206/10/58 207/9/56
f 206/10/58 208/9/56 205/10/58
f 210/9/56 197/9/21 209/9/56
f 197/9/21 210/9/56 211/9/21
f 212/10/59 182/9/57 184/9/57
f 182/9/57 212/10/59 213/10/59
f 190/10/59 215/9/57 214/9/57
f 215/9/57 190/10/59 189/10/59
f 185/9/56 215/9/57 187/9/56
f 215/9/57 185/9/56 214/9/57
f 212/10/59 194/10/58 213/10/59
f 194/10/58 212/10/59 216/10/58
f 181/9/56 216/10/58 183/9/56
f 216/10/58 181/9/56 194/10/58
f 198/10/59 217/9/57 203/9/57
f 217/9/57 198/10/59 204/10/59
f 218/10/59 197/9/64 211/9/64
f 197/9/64 218/10/59 192/10/59
f 208/9/56 203/9/57 217/9/57
f 203/9/57 208/9/56 207/9/56
f 192/10/59 220/10/58 219/10/58
f 220/10/58 192/10/59 218/10/59
f 209/9/56 220/10/58 210/9/56
f 220/10/58 209/9/56 219/10/58

