# Created by Kenney (www.kenney.nl)

mtllib track-straight.mtl

g track-straight

v 2 0 -2 1 1 1
v 2 0 2 1 1 1
v 1.8 0 -2 1 1 1
v 1.8 0 2 1 1 1
v 1.8 0 -1.666667 1 1 1
v 1.8 0 -1 1 1 1
v 1.8 0 -0.3333333 1 1 1
v 1.8 0 0.3333333 1 1 1
v 1.8 0 1 1 1 1
v 1.8 0 1.666667 1 1 1
v -1.8 0 -2 1 1 1
v -1.8 0 -1.666667 1 1 1
v -2 0 -2 1 1 1
v -1.8 0 -1 1 1 1
v -1.8 0 -0.3333333 1 1 1
v -1.8 0 0.3333333 1 1 1
v -1.8 0 1 1 1 1
v -1.8 0 1.666667 1 1 1
v -1.8 0 2 1 1 1
v -2 0 2 1 1 1
v 1.2 0 -2 1 1 1
v 1.2 0 2 1 1 1
v -1.2 0 -2 1 1 1
v -1.2 0 2 1 1 1
v 1.6 0 -2 1 1 1
v 1.6 0 -1.666667 1 1 1
v 1.3 0 -2 1 1 1
v 1.6 0 -1 1 1 1
v 1.6 0 -0.3333333 1 1 1
v 1.6 0 0.3333333 1 1 1
v 1.6 0 1 1 1 1
v 1.6 0 1.666667 1 1 1
v 1.6 0 2 1 1 1
v 1.3 0 2 1 1 1
v -1.3 0 -2 1 1 1
v -1.3 0 2 1 1 1
v -1.6 0 -2 1 1 1
v -1.6 0 2 1 1 1
v -1.6 0 -1.666667 1 1 1
v -1.6 0 -1 1 1 1
v -1.6 0 -0.3333333 1 1 1
v -1.6 0 0.3333333 1 1 1
v -1.6 0 1 1 1 1
v -1.6 0 1.666667 1 1 1
v -1.44 0.04 -2 1 1 1
v -1.44 0.04 2 1 1 1
v -1.56 0.04 -2 1 1 1
v -1.56 0.04 2 1 1 1
v -1.4 0 2 1 1 1
v -1.6 0 2 1 1 1
v -1.6 0 -2 1 1 1
v -1.4 0 -2 1 1 1
v 1.56 0.04 -2 1 1 1
v 1.56 0.04 2 1 1 1
v 1.44 0.04 -2 1 1 1
v 1.44 0.04 2 1 1 1
v 1.6 0 2 1 1 1
v 1.4 0 2 1 1 1
v 1.4 0 -2 1 1 1
v 1.6 0 -2 1 1 1
v 1.96 0.3 -2 1 1 1
v 1.96 0.3 2 1 1 1
v 1.84 0.3 -2 1 1 1
v 1.84 0.3 2 1 1 1
v 1.8 0 2 1 1 1
v 1.8 0 -2 1 1 1
v -1.84 0.3 -2 1 1 1
v -1.84 0.3 2 1 1 1
v -1.96 0.3 -2 1 1 1
v -1.96 0.3 2 1 1 1
v -1.8 0 2 1 1 1
v -1.8 0 -2 1 1 1

vn 0 1 0
vn 0.3826834 0.9238795 0
vn -0.3826834 0.9238795 0
vn 0 0 1
vn 0 0 -1
vn 0.7071068 0.7071068 0
vn -0.7071068 0.7071068 0
vn 0.6587247 0.7523842 0
vn -0.6587247 0.7523842 0
vn -0.9912279 0.1321637 0
vn 0.9912279 0.1321637 0

vt 0.09375 0.025
vt 0.34375 0.025
vt 0.34375 0.475
vt 0.34375 0.275
vt 0.21875 0.025
vt 0.59375 0.275
vt 0.46875 0.225
vt 0.46875 0.145
vt 0.59375 0.145

usemtl colormap

f 3/1/1 2/1/1 1/1/1
f 2/1/1 3/1/1 4/1/1
f 4/1/1 3/1/1 5/1/1
f 4/1/1 5/1/1 6/1/1
f 4/1/1 6/1/1 7/1/1
f 4/1/1 7/1/1 8/1/1
f 4/1/1 8/1/1 9/1/1
f 4/1/1 9/1/1 10/1/1
f 13/1/1 12/1/1 11/1/1
f 12/1/1 13/1/1 14/1/1
f 14/1/1 13/1/1 15/1/1
f 15/1/1 13/1/1 16/1/1
f 16/1/1 13/1/1 17/1/1
f 17/1/1 13/1/1 18/1/1
f 18/1/1 13/1/1 19/1/1
f 19/1/1 13/1/1 20/1/1
f 23/2/1 22/2/1 21/2/1
f 22/2/1 23/2/1 24/2/1
f 27/2/1 26/2/1 25/2/1
f 26/2/1 27/2/1 28/2/1
f 28/2/1 27/2/1 29/2/1
f 29/2/1 27/2/1 30/2/1
f 30/2/1 27/2/1 31/2/1
f 31/2/1 27/2/1 32/2/1
f 32/2/1 27/2/1 33/2/1
f 33/2/1 27/2/1 34/2/1
f 37/2/1 36/2/1 35/2/1
f 36/2/1 37/2/1 38/2/1
f 38/2/1 37/2/1 39/2/1
f 38/2/1 39/2/1 40/2/1
f 38/2/1 40/2/1 41/2/1
f 38/2/1 41/2/1 42/2/1
f 38/2/1 42/2/1 43/2/1
f 38/2/1 43/2/1 44/2/1
f 47/3/3 46/3/2 45/3/2
f 46/3/2 47/3/3 48/3/3
f 46/3/4 50/4/4 49/4/4
f 50/4/4 46/3/4 48/3/4
f 47/3/5 52/4/5 51/4/5
f 52/4/5 47/3/5 45/3/5
f 45/3/2 49/4/6 52/4/6
f 49/4/6 45/3/2 46/3/2
f 50/4/7 47/3/3 51/4/7
f 47/3/3 50/4/7 48/3/3
f 55/3/3 54/3/2 53/3/2
f 54/3/2 55/3/3 56/3/3
f 54/3/4 58/4/4 57/4/4
f 58/4/4 54/3/4 56/3/4
f 55/3/5 60/4/5 59/4/5
f 60/4/5 55/3/5 53/3/5
f 53/3/2 57/4/6 60/4/6
f 57/4/6 53/3/2 54/3/2
f 58/4/7 55/3/3 59/4/7
f 55/3/3 58/4/7 56/3/3
f 35/5/1 24/5/1 23/5/1
f 24/5/1 35/5/1 36/5/1
f 21/5/1 34/5/1 27/5/1
f 34/5/1 21/5/1 22/5/1
f 30/6/1 9/6/1 8/6/1
f 9/6/1 30/6/1 31/6/1
f 32/6/1 4/6/1 10/6/1
f 4/6/1 32/6/1 33/6/1
f 25/6/1 5/6/1 3/6/1
f 5/6/1 25/6/1 26/6/1
f 28/6/1 7/6/1 6/6/1
f 7/6/1 28/6/1 29/6/1
f 16/6/1 43/6/1 42/6/1
f 43/6/1 16/6/1 17/6/1
f 11/6/1 39/6/1 37/6/1
f 39/6/1 11/6/1 12/6/1
f 14/6/1 41/6/1 40/6/1
f 41/6/1 14/6/1 15/6/1
f 18/6/1 38/6/1 44/6/1
f 38/6/1 18/6/1 19/6/1
f 63/7/9 62/7/8 61/7/8
f 62/7/8 63/7/9 64/7/9
f 62/7/4 65/8/4 2/8/4
f 65/8/4 62/7/4 64/7/4
f 65/8/10 63/7/9 66/8/10
f 63/7/9 65/8/10 64/7/9
f 63/7/5 1/8/5 66/8/5
f 1/8/5 63/7/5 61/7/5
f 62/7/8 1/8/11 61/7/8
f 1/8/11 62/7/8 2/8/11
f 69/7/9 68/7/8 67/7/8
f 68/7/8 69/7/9 70/7/9
f 68/7/4 20/8/4 71/8/4
f 20/8/4 68/7/4 70/7/4
f 20/8/10 69/7/9 13/8/10
f 69/7/9 20/8/10 70/7/9
f 69/7/5 72/8/5 13/8/5
f 72/8/5 69/7/5 67/7/5
f 68/7/8 72/8/11 67/7/8
f 72/8/11 68/7/8 71/8/11
f 26/9/1 6/9/1 5/9/1
f 6/9/1 26/9/1 28/9/1
f 29/9/1 8/9/1 7/9/1
f 8/9/1 29/9/1 30/9/1
f 31/9/1 10/9/1 9/9/1
f 10/9/1 31/9/1 32/9/1
f 12/9/1 40/9/1 39/9/1
f 40/9/1 12/9/1 14/9/1
f 17/9/1 44/9/1 43/9/1
f 44/9/1 17/9/1 18/9/1
f 15/9/1 42/9/1 41/9/1
f 42/9/1 15/9/1 16/9/1

g track-straight




usemtl colormap

f 3/1/1 2/1/1 1/1/1
f 2/1/1 3/1/1 4/1/1
f 4/1/1 3/1/1 5/1/1
f 4/1/1 5/1/1 6/1/1
f 4/1/1 6/1/1 7/1/1
f 4/1/1 7/1/1 8/1/1
f 4/1/1 8/1/1 9/1/1
f 4/1/1 9/1/1 10/1/1
f 13/1/1 12/1/1 11/1/1
f 12/1/1 13/1/1 14/1/1
f 14/1/1 13/1/1 15/1/1
f 15/1/1 13/1/1 16/1/1
f 16/1/1 13/1/1 17/1/1
f 17/1/1 13/1/1 18/1/1
f 18/1/1 13/1/1 19/1/1
f 19/1/1 13/1/1 20/1/1
f 23/2/1 22/2/1 21/2/1
f 22/2/1 23/2/1 24/2/1
f 27/2/1 26/2/1 25/2/1
f 26/2/1 27/2/1 28/2/1
f 28/2/1 27/2/1 29/2/1
f 29/2/1 27/2/1 30/2/1
f 30/2/1 27/2/1 31/2/1
f 31/2/1 27/2/1 32/2/1
f 32/2/1 27/2/1 33/2/1
f 33/2/1 27/2/1 34/2/1
f 37/2/1 36/2/1 35/2/1
f 36/2/1 37/2/1 38/2/1
f 38/2/1 37/2/1 39/2/1
f 38/2/1 39/2/1 40/2/1
f 38/2/1 40/2/1 41/2/1
f 38/2/1 41/2/1 42/2/1
f 38/2/1 42/2/1 43/2/1
f 38/2/1 43/2/1 44/2/1
f 47/3/3 46/3/2 45/3/2
f 46/3/2 47/3/3 48/3/3
f 46/3/4 50/4/4 49/4/4
f 50/4/4 46/3/4 48/3/4
f 47/3/5 52/4/5 51/4/5
f 52/4/5 47/3/5 45/3/5
f 45/3/2 49/4/6 52/4/6
f 49/4/6 45/3/2 46/3/2
f 50/4/7 47/3/3 51/4/7
f 47/3/3 50/4/7 48/3/3
f 55/3/3 54/3/2 53/3/2
f 54/3/2 55/3/3 56/3/3
f 54/3/4 58/4/4 57/4/4
f 58/4/4 54/3/4 56/3/4
f 55/3/5 60/4/5 59/4/5
f 60/4/5 55/3/5 53/3/5
f 53/3/2 57/4/6 60/4/6
f 57/4/6 53/3/2 54/3/2
f 58/4/7 55/3/3 59/4/7
f 55/3/3 58/4/7 56/3/3
f 35/5/1 24/5/1 23/5/1
f 24/5/1 35/5/1 36/5/1
f 21/5/1 34/5/1 27/5/1
f 34/5/1 21/5/1 22/5/1
f 30/6/1 9/6/1 8/6/1
f 9/6/1 30/6/1 31/6/1
f 32/6/1 4/6/1 10/6/1
f 4/6/1 32/6/1 33/6/1
f 25/6/1 5/6/1 3/6/1
f 5/6/1 25/6/1 26/6/1
f 28/6/1 7/6/1 6/6/1
f 7/6/1 28/6/1 29/6/1
f 16/6/1 43/6/1 42/6/1
f 43/6/1 16/6/1 17/6/1
f 11/6/1 39/6/1 37/6/1
f 39/6/1 11/6/1 12/6/1
f 14/6/1 41/6/1 40/6/1
f 41/6/1 14/6/1 15/6/1
f 18/6/1 38/6/1 44/6/1
f 38/6/1 18/6/1 19/6/1
f 63/7/9 62/7/8 61/7/8
f 62/7/8 63/7/9 64/7/9
f 62/7/4 65/8/4 2/8/4
f 65/8/4 62/7/4 64/7/4
f 65/8/10 63/7/9 66/8/10
f 63/7/9 65/8/10 64/7/9
f 63/7/5 1/8/5 66/8/5
f 1/8/5 63/7/5 61/7/5
f 62/7/8 1/8/11 61/7/8
f 1/8/11 62/7/8 2/8/11
f 69/7/9 68/7/8 67/7/8
f 68/7/8 69/7/9 70/7/9
f 68/7/4 20/8/4 71/8/4
f 20/8/4 68/7/4 70/7/4
f 20/8/10 69/7/9 13/8/10
f 69/7/9 20/8/10 70/7/9
f 69/7/5 72/8/5 13/8/5
f 72/8/5 69/7/5 67/7/5
f 68/7/8 72/8/11 67/7/8
f 72/8/11 68/7/8 71/8/11
f 26/9/1 6/9/1 5/9/1
f 6/9/1 26/9/1 28/9/1
f 29/9/1 8/9/1 7/9/1
f 8/9/1 29/9/1 30/9/1
f 31/9/1 10/9/1 9/9/1
f 10/9/1 31/9/1 32/9/1
f 12/9/1 40/9/1 39/9/1
f 40/9/1 12/9/1 14/9/1
f 17/9/1 44/9/1 43/9/1
f 44/9/1 17/9/1 18/9/1
f 15/9/1 42/9/1 41/9/1
f 42/9/1 15/9/1 16/9/1

