# Created by Kenney (www.kenney.nl)

mtllib track-spline.mtl

g track-spline

v 1.8 0 -0.5 1 1 1
v 1.8 0 0 1 1 1
v 1.6 0 -0.5 1 1 1
v 1.6 0 0 1 1 1
v -1.6 0 -0.5 1 1 1
v -1.6 0 0 1 1 1
v -1.8 0 -0.5 1 1 1
v -1.8 0 0 1 1 1
v -1.44 0.04 0 1 1 1
v -1.44 0.04 0.5 1 1 1
v -1.56 0.04 0 1 1 1
v -1.56 0.04 0.5 1 1 1
v -1.6 0 0.5 1 1 1
v -1.4 0 0 1 1 1
v -1.4 0 0.5 1 1 1
v -1.44 0.04 -0.5 1 1 1
v -1.56 0.04 -0.5 1 1 1
v -1.4 0 -0.5 1 1 1
v 1.56 0.04 -0.5 1 1 1
v 1.56 0.04 0 1 1 1
v 1.44 0.04 -0.5 1 1 1
v 1.44 0.04 0 1 1 1
v 1.4 0 -0.5 1 1 1
v 1.4 0 0 1 1 1
v 1.56 0.04 0.5 1 1 1
v 1.44 0.04 0.5 1 1 1
v 1.4 0 0.5 1 1 1
v 1.6 0 0.5 1 1 1
v -1.3 0 0 1 1 1
v -1.3 0 0.5 1 1 1
v 1.2 0 0 1 1 1
v 1.2 0 0.5 1 1 1
v -1.2 0 0 1 1 1
v -1.2 0 0.5 1 1 1
v 1.3 0 0 1 1 1
v 1.3 0 0.5 1 1 1
v -1.3 0 -0.5 1 1 1
v 1.2 0 -0.5 1 1 1
v -1.2 0 -0.5 1 1 1
v 1.3 0 -0.5 1 1 1
v 1.96 0.3 -0.5 1 1 1
v 1.96 0.3 0 1 1 1
v 1.84 0.3 -0.5 1 1 1
v 1.84 0.3 0 1 1 1
v 1.8 0 -0.5 1 1 1
v 1.8 0 0 1 1 1
v 2 0 -0.5 1 1 1
v 2 0 0 1 1 1
v 1.96 0.3 0.5 1 1 1
v 1.84 0.3 0.5 1 1 1
v 1.8 0 0.5 1 1 1
v 2 0 0.5 1 1 1
v -1.84 0.3 -0.5 1 1 1
v -1.84 0.3 0 1 1 1
v -1.96 0.3 -0.5 1 1 1
v -1.96 0.3 0 1 1 1
v -2 0 -0.5 1 1 1
v -2 0 0 1 1 1
v -1.8 0 -0.5 1 1 1
v -1.8 0 0 1 1 1
v -1.84 0.3 0.5 1 1 1
v -1.96 0.3 0.5 1 1 1
v -2 0 0.5 1 1 1
v -1.8 0 0.5 1 1 1
v 1.8 0 0.5 1 1 1
v -1.8 0 0.5 1 1 1

vn 0 1 0
vn 0.3826834 0.9238795 0
vn -0.3826834 0.9238795 0
vn -0.7071068 0.7071068 0
vn 0.7071068 0.7071068 0
vn 0.6587246 0.7523841 0
vn -0.6587246 0.7523841 0
vn -0.9912279 0.1321637 0
vn 0.9912279 0.1321637 0

vt 0.59375 0.275
vt 0.34375 0.475
vt 0.34375 0.275
vt 0.34375 0.025
vt 0.21875 0.025
vt 0.46875 0.225
vt 0.46875 0.145
vt 0.59375 0.145

usemtl colormap

f 3/1/1 2/1/1 1/1/1
f 2/1/1 3/1/1 4/1/1
f 7/1/1 6/1/1 5/1/1
f 6/1/1 7/1/1 8/1/1
f 11/2/3 10/2/2 9/2/2
f 10/2/2 11/2/3 12/2/3
f 13/3/4 11/2/3 6/3/4
f 11/2/3 13/3/4 12/2/3
f 9/2/2 15/3/5 14/3/5
f 15/3/5 9/2/2 10/2/2
f 17/2/3 9/2/2 16/2/2
f 9/2/2 17/2/3 11/2/3
f 6/3/4 17/2/3 5/3/4
f 17/2/3 6/3/4 11/2/3
f 16/2/2 14/3/5 18/3/5
f 14/3/5 16/2/2 9/2/2
f 21/2/3 20/2/2 19/2/2
f 20/2/2 21/2/3 22/2/3
f 24/3/4 21/2/3 23/3/4
f 21/2/3 24/3/4 22/2/3
f 19/2/2 4/3/5 3/3/5
f 4/3/5 19/2/2 20/2/2
f 22/2/3 25/2/2 20/2/2
f 25/2/2 22/2/3 26/2/3
f 27/3/4 22/2/3 24/3/4
f 22/2/3 27/3/4 26/2/3
f 20/2/2 28/3/5 4/3/5
f 28/3/5 20/2/2 25/2/2
f 6/4/1 30/4/1 29/4/1
f 30/4/1 6/4/1 13/4/1
f 33/4/1 32/4/1 31/4/1
f 32/4/1 33/4/1 34/4/1
f 35/4/1 28/4/1 4/4/1
f 28/4/1 35/4/1 36/4/1
f 5/4/1 29/4/1 37/4/1
f 29/4/1 5/4/1 6/4/1
f 39/4/1 31/4/1 38/4/1
f 31/4/1 39/4/1 33/4/1
f 40/4/1 4/4/1 3/4/1
f 4/4/1 40/4/1 35/4/1
f 29/5/1 34/5/1 33/5/1
f 34/5/1 29/5/1 30/5/1
f 31/5/1 36/5/1 35/5/1
f 36/5/1 31/5/1 32/5/1
f 37/5/1 33/5/1 39/5/1
f 33/5/1 37/5/1 29/5/1
f 38/5/1 35/5/1 40/5/1
f 35/5/1 38/5/1 31/5/1
f 43/6/7 42/6/6 41/6/6
f 42/6/6 43/6/7 44/6/7
f 46/7/8 43/6/7 45/7/8
f 43/6/7 46/7/8 44/6/7
f 42/6/6 47/7/9 41/6/6
f 47/7/9 42/6/6 48/7/9
f 44/6/7 49/6/6 42/6/6
f 49/6/6 44/6/7 50/6/7
f 51/7/8 44/6/7 46/7/8
f 44/6/7 51/7/8 50/6/7
f 49/6/6 48/7/9 42/6/6
f 48/7/9 49/6/6 52/7/9
f 55/6/7 54/6/6 53/6/6
f 54/6/6 55/6/7 56/6/7
f 58/7/8 55/6/7 57/7/8
f 55/6/7 58/7/8 56/6/7
f 54/6/6 59/7/9 53/6/6
f 59/7/9 54/6/6 60/7/9
f 56/6/7 61/6/6 54/6/6
f 61/6/6 56/6/7 62/6/7
f 63/7/8 56/6/7 58/7/8
f 56/6/7 63/7/8 62/6/7
f 61/6/6 60/7/9 54/6/6
f 60/7/9 61/6/6 64/7/9
f 4/8/1 65/8/1 2/8/1
f 65/8/1 4/8/1 28/8/1
f 8/8/1 13/8/1 6/8/1
f 13/8/1 8/8/1 66/8/1

g track-spline




usemtl colormap

f 3/1/1 2/1/1 1/1/1
f 2/1/1 3/1/1 4/1/1
f 7/1/1 6/1/1 5/1/1
f 6/1/1 7/1/1 8/1/1
f 11/2/3 10/2/2 9/2/2
f 10/2/2 11/2/3 12/2/3
f 13/3/4 11/2/3 6/3/4
f 11/2/3 13/3/4 12/2/3
f 9/2/2 15/3/5 14/3/5
f 15/3/5 9/2/2 10/2/2
f 17/2/3 9/2/2 16/2/2
f 9/2/2 17/2/3 11/2/3
f 6/3/4 17/2/3 5/3/4
f 17/2/3 6/3/4 11/2/3
f 16/2/2 14/3/5 18/3/5
f 14/3/5 16/2/2 9/2/2
f 21/2/3 20/2/2 19/2/2
f 20/2/2 21/2/3 22/2/3
f 24/3/4 21/2/3 23/3/4
f 21/2/3 24/3/4 22/2/3
f 19/2/2 4/3/5 3/3/5
f 4/3/5 19/2/2 20/2/2
f 22/2/3 25/2/2 20/2/2
f 25/2/2 22/2/3 26/2/3
f 27/3/4 22/2/3 24/3/4
f 22/2/3 27/3/4 26/2/3
f 20/2/2 28/3/5 4/3/5
f 28/3/5 20/2/2 25/2/2
f 6/4/1 30/4/1 29/4/1
f 30/4/1 6/4/1 13/4/1
f 33/4/1 32/4/1 31/4/1
f 32/4/1 33/4/1 34/4/1
f 35/4/1 28/4/1 4/4/1
f 28/4/1 35/4/1 36/4/1
f 5/4/1 29/4/1 37/4/1
f 29/4/1 5/4/1 6/4/1
f 39/4/1 31/4/1 38/4/1
f 31/4/1 39/4/1 33/4/1
f 40/4/1 4/4/1 3/4/1
f 4/4/1 40/4/1 35/4/1
f 29/5/1 34/5/1 33/5/1
f 34/5/1 29/5/1 30/5/1
f 31/5/1 36/5/1 35/5/1
f 36/5/1 31/5/1 32/5/1
f 37/5/1 33/5/1 39/5/1
f 33/5/1 37/5/1 29/5/1
f 38/5/1 35/5/1 40/5/1
f 35/5/1 38/5/1 31/5/1
f 43/6/7 42/6/6 41/6/6
f 42/6/6 43/6/7 44/6/7
f 46/7/8 43/6/7 45/7/8
f 43/6/7 46/7/8 44/6/7
f 42/6/6 47/7/9 41/6/6
f 47/7/9 42/6/6 48/7/9
f 44/6/7 49/6/6 42/6/6
f 49/6/6 44/6/7 50/6/7
f 51/7/8 44/6/7 46/7/8
f 44/6/7 51/7/8 50/6/7
f 49/6/6 48/7/9 42/6/6
f 48/7/9 49/6/6 52/7/9
f 55/6/7 54/6/6 53/6/6
f 54/6/6 55/6/7 56/6/7
f 58/7/8 55/6/7 57/7/8
f 55/6/7 58/7/8 56/6/7
f 54/6/6 59/7/9 53/6/6
f 59/7/9 54/6/6 60/7/9
f 56/6/7 61/6/6 54/6/6
f 61/6/6 56/6/7 62/6/7
f 63/7/8 56/6/7 58/7/8
f 56/6/7 63/7/8 62/6/7
f 61/6/6 60/7/9 54/6/6
f 60/7/9 61/6/6 64/7/9
f 4/8/1 65/8/1 2/8/1
f 65/8/1 4/8/1 28/8/1
f 8/8/1 13/8/1 6/8/1
f 13/8/1 8/8/1 66/8/1

