# Created by Kenney (www.kenney.nl)

mtllib track-road-straight.mtl

g track-road-straight

v 1.8 0 0 1 1 1
v 1.8 0 0.4981065 1 1 1
v 1.6 0 0 1 1 1
v 1.6 0 0.4981065 1 1 1
v -1.6 0 0 1 1 1
v -1.6 0 0.4981065 1 1 1
v -1.8 0 0 1 1 1
v -1.8 0 0.4981065 1 1 1
v -1.44 0.03999996 0.4981065 1 1 1
v -1.44 0.03999996 0.9987755 1 1 1
v -1.56 0.03999996 0.4981065 1 1 1
v -1.56 0.03999996 0.9987755 1 1 1
v -1.6 0 0.9987755 1 1 1
v -1.4 0 0.4981065 1 1 1
v -1.4 0 0.9987755 1 1 1
v -1.44 0.03999996 0 1 1 1
v -1.56 0.03999996 0 1 1 1
v -1.4 0 0 1 1 1
v 1.56 0.03999996 0 1 1 1
v 1.56 0.03999996 0.4981065 1 1 1
v 1.44 0.03999996 0 1 1 1
v 1.44 0.03999996 0.4981065 1 1 1
v 1.4 0 0 1 1 1
v 1.4 0 0.4981065 1 1 1
v 1.56 0.03999996 0.9987755 1 1 1
v 1.44 0.03999996 0.9987755 1 1 1
v 1.4 0 0.9987755 1 1 1
v 1.6 0 0.9987755 1 1 1
v -1.3 0 0.4981065 1 1 1
v -1.3 0 0.9987755 1 1 1
v 1.2 0 0.4981065 1 1 1
v 1.2 0 0.9987755 1 1 1
v -1.2 0 0.4981065 1 1 1
v -1.2 0 0.9987755 1 1 1
v 1.3 0 0.4981065 1 1 1
v 1.3 0 0.9987755 1 1 1
v -1.3 0 0 1 1 1
v 1.2 0 0 1 1 1
v -1.2 0 0 1 1 1
v 1.3 0 0 1 1 1
v 1.96 0.3 0 1 1 1
v 1.96 0.3 0.4981065 1 1 1
v 1.84 0.3 0 1 1 1
v 1.84 0.3 0.4981065 1 1 1
v 2 0 0 1 1 1
v 2 0 0.4981065 1 1 1
v 1.96 0.3 0.9987755 1 1 1
v 1.84 0.3 0.9987755 1 1 1
v 1.8 0 0.9987755 1 1 1
v 2 0 0.9987755 1 1 1
v -1.84 0.3 0 1 1 1
v -1.84 0.3 0.4981065 1 1 1
v -1.96 0.3 0 1 1 1
v -1.96 0.3 0.4981065 1 1 1
v -2 0 0 1 1 1
v -2 0 0.4981065 1 1 1
v -1.8 0 0 1 1 1
v -1.8 0 0.4981065 1 1 1
v -1.84 0.3 0.9987755 1 1 1
v -1.96 0.3 0.9987755 1 1 1
v -2 0 0.9987755 1 1 1
v -1.8 0 0.9987755 1 1 1
v -1.8 0 0.9987755 1 1 1
v 1.8 0 1.499881 1 1 1
v 1.6 0 1.499881 1 1 1
v -1.6 0 1.499881 1 1 1
v -1.8 0 1.499881 1 1 1
v -1.44 0.03999996 1.499881 1 1 1
v -1.44 0.03999996 2 1 1 1
v -1.56 0.03999996 1.499881 1 1 1
v -1.56 0.03999996 2 1 1 1
v -1.6 0 2 1 1 1
v -1.4 0 1.499881 1 1 1
v -1.4 0 2 1 1 1
v 1.56 0.03999996 1.499881 1 1 1
v 1.44 0.03999996 1.499881 1 1 1
v 1.4 0 1.499881 1 1 1
v 1.56 0.03999996 2 1 1 1
v 1.44 0.03999996 2 1 1 1
v 1.4 0 2 1 1 1
v 1.6 0 2 1 1 1
v -1.3 0 1.499881 1 1 1
v -1.3 0 2 1 1 1
v 1.2 0 1.499881 1 1 1
v 1.2 0 2 1 1 1
v -1.2 0 1.499881 1 1 1
v -1.2 0 2 1 1 1
v 1.3 0 1.499881 1 1 1
v 1.3 0 2 1 1 1
v 1.96 0.3 1.499881 1 1 1
v 1.84 0.3 1.499881 1 1 1
v 2 0 1.499881 1 1 1
v 1.96 0.3 2 1 1 1
v 1.84 0.3 2 1 1 1
v 1.8 0 2 1 1 1
v 2 0 2 1 1 1
v -1.84 0.3 1.499881 1 1 1
v -1.96 0.3 1.499881 1 1 1
v -2 0 1.499881 1 1 1
v -1.8 0 1.499881 1 1 1
v -1.84 0.3 2 1 1 1
v -1.96 0.3 2 1 1 1
v -2 0 2 1 1 1
v -1.8 0 2 1 1 1
v -1.8 0 2 1 1 1
v 1.8 0 2.500119 1 1 1
v 1.6 0 2.500119 1 1 1
v -1.6 0 2.500119 1 1 1
v -1.8 0 2.500119 1 1 1
v -1.44 0.03999996 2.500119 1 1 1
v -1.44 0.03999996 3.001224 1 1 1
v -1.56 0.03999996 2.500119 1 1 1
v -1.56 0.03999996 3.001224 1 1 1
v -1.6 0 3.001224 1 1 1
v -1.4 0 2.500119 1 1 1
v -1.4 0 3.001224 1 1 1
v 1.56 0.03999996 2.500119 1 1 1
v 1.44 0.03999996 2.500119 1 1 1
v 1.4 0 2.500119 1 1 1
v 1.56 0.03999996 3.001224 1 1 1
v 1.44 0.03999996 3.001224 1 1 1
v 1.4 0 3.001224 1 1 1
v 1.6 0 3.001224 1 1 1
v -1.3 0 2.500119 1 1 1
v -1.3 0 3.001224 1 1 1
v 1.2 0 2.500119 1 1 1
v 1.2 0 3.001224 1 1 1
v -1.2 0 2.500119 1 1 1
v -1.2 0 3.001224 1 1 1
v 1.3 0 2.500119 1 1 1
v 1.3 0 3.001224 1 1 1
v 1.96 0.3 2.500119 1 1 1
v 1.84 0.3 2.500119 1 1 1
v 2 0 2.500119 1 1 1
v 1.96 0.3 3.001224 1 1 1
v 1.84 0.3 3.001224 1 1 1
v 1.8 0 3.001224 1 1 1
v 2 0 3.001224 1 1 1
v -1.84 0.3 2.500119 1 1 1
v -1.96 0.3 2.500119 1 1 1
v -2 0 2.500119 1 1 1
v -1.8 0 2.500119 1 1 1
v -1.84 0.3 3.001224 1 1 1
v -1.96 0.3 3.001224 1 1 1
v -2 0 3.001224 1 1 1
v -1.8 0 3.001224 1 1 1
v -1.8 0 3.001224 1 1 1
v 1.8 0 3.501894 1 1 1
v 1.6 0 3.501894 1 1 1
v -1.6 0 3.501894 1 1 1
v -1.8 0 3.501894 1 1 1
v -1.44 0.03999996 3.501894 1 1 1
v -1.44 0.03999996 4 1 1 1
v -1.56 0.03999996 3.501894 1 1 1
v -1.56 0.03999996 4 1 1 1
v -1.6 0 4 1 1 1
v -1.4 0 3.501894 1 1 1
v -1.4 0 4 1 1 1
v 1.56 0.03999996 3.501894 1 1 1
v 1.44 0.03999996 3.501894 1 1 1
v 1.4 0 3.501894 1 1 1
v 1.56 0.03999996 4 1 1 1
v 1.44 0.03999996 4 1 1 1
v 1.4 0 4 1 1 1
v 1.6 0 4 1 1 1
v -1.3 0 3.501894 1 1 1
v -1.3 0 4 1 1 1
v 1.2 0 3.501894 1 1 1
v 1.2 0 4 1 1 1
v -1.2 0 3.501894 1 1 1
v -1.2 0 4 1 1 1
v 1.3 0 3.501894 1 1 1
v 1.3 0 4 1 1 1
v 1.96 0.3 3.501894 1 1 1
v 1.84 0.3 3.501894 1 1 1
v 2 0 3.501894 1 1 1
v 1.96 0.3 4 1 1 1
v 1.84 0.3 4 1 1 1
v 1.8 0 4 1 1 1
v 2 0 4 1 1 1
v -1.84 0.3 3.501894 1 1 1
v -1.96 0.3 3.501894 1 1 1
v -2 0 3.501894 1 1 1
v -1.8 0 3.501894 1 1 1
v -1.84 0.3 4 1 1 1
v -1.96 0.3 4 1 1 1
v -2 0 4 1 1 1
v -1.8 0 4 1 1 1
v -1.8 0 4 1 1 1

vn 0 1 0
vn 0.3826834 0.9238795 0
vn -0.3826834 0.9238795 0
vn -0.7071068 0.7071068 0
vn 0.7071068 0.7071068 0
vn 0.6587246 0.7523841 0
vn -0.6587246 0.7523841 0
vn -0.9912279 0.1321637 0
vn 0.9912279 0.1321637 0

vt 0.59375 0.275
vt 0.34375 0.475
vt 0.34375 0.275
vt 0.34375 0.025
vt 0.21875 0.025
vt 0.46875 0.225
vt 0.46875 0.145
vt 0.59375 0.145

usemtl colormap

f 3/1/1 2/1/1 1/1/1
f 2/1/1 3/1/1 4/1/1
f 7/1/1 6/1/1 5/1/1
f 6/1/1 7/1/1 8/1/1
f 11/2/3 10/2/2 9/2/2
f 10/2/2 11/2/3 12/2/3
f 13/3/4 11/2/3 6/3/4
f 11/2/3 13/3/4 12/2/3
f 9/2/2 15/3/5 14/3/5
f 15/3/5 9/2/2 10/2/2
f 17/2/3 9/2/2 16/2/2
f 9/2/2 17/2/3 11/2/3
f 6/3/4 17/2/3 5/3/4
f 17/2/3 6/3/4 11/2/3
f 16/2/2 14/3/5 18/3/5
f 14/3/5 16/2/2 9/2/2
f 21/2/3 20/2/2 19/2/2
f 20/2/2 21/2/3 22/2/3
f 24/3/4 21/2/3 23/3/4
f 21/2/3 24/3/4 22/2/3
f 19/2/2 4/3/5 3/3/5
f 4/3/5 19/2/2 20/2/2
f 22/2/3 25/2/2 20/2/2
f 25/2/2 22/2/3 26/2/3
f 27/3/4 22/2/3 24/3/4
f 22/2/3 27/3/4 26/2/3
f 20/2/2 28/3/5 4/3/5
f 28/3/5 20/2/2 25/2/2
f 6/4/1 30/4/1 29/4/1
f 30/4/1 6/4/1 13/4/1
f 33/4/1 32/4/1 31/4/1
f 32/4/1 33/4/1 34/4/1
f 35/4/1 28/4/1 4/4/1
f 28/4/1 35/4/1 36/4/1
f 5/4/1 29/4/1 37/4/1
f 29/4/1 5/4/1 6/4/1
f 39/4/1 31/4/1 38/4/1
f 31/4/1 39/4/1 33/4/1
f 40/4/1 4/4/1 3/4/1
f 4/4/1 40/4/1 35/4/1
f 29/5/1 34/5/1 33/5/1
f 34/5/1 29/5/1 30/5/1
f 31/5/1 36/5/1 35/5/1
f 36/5/1 31/5/1 32/5/1
f 37/5/1 33/5/1 39/5/1
f 33/5/1 37/5/1 29/5/1
f 38/5/1 35/5/1 40/5/1
f 35/5/1 38/5/1 31/5/1
f 43/6/7 42/6/6 41/6/6
f 42/6/6 43/6/7 44/6/7
f 2/7/8 43/6/7 1/7/8
f 43/6/7 2/7/8 44/6/7
f 42/6/6 45/7/9 41/6/6
f 45/7/9 42/6/6 46/7/9
f 44/6/7 47/6/6 42/6/6
f 47/6/6 44/6/7 48/6/7
f 49/7/8 44/6/7 2/7/8
f 44/6/7 49/7/8 48/6/7
f 47/6/6 46/7/9 42/6/6
f 46/7/9 47/6/6 50/7/9
f 53/6/7 52/6/6 51/6/6
f 52/6/6 53/6/7 54/6/7
f 56/7/8 53/6/7 55/7/8
f 53/6/7 56/7/8 54/6/7
f 52/6/6 57/7/9 51/6/6
f 57/7/9 52/6/6 58/7/9
f 54/6/7 59/6/6 52/6/6
f 59/6/6 54/6/7 60/6/7
f 61/7/8 54/6/7 56/7/8
f 54/6/7 61/7/8 60/6/7
f 59/6/6 58/7/9 52/6/6
f 58/7/9 59/6/6 62/7/9
f 4/8/1 49/8/1 2/8/1
f 49/8/1 4/8/1 28/8/1
f 8/8/1 13/8/1 6/8/1
f 13/8/1 8/8/1 63/8/1
f 28/1/1 64/1/1 49/1/1
f 64/1/1 28/1/1 65/1/1
f 63/1/1 66/1/1 13/1/1
f 66/1/1 63/1/1 67/1/1
f 70/2/3 69/2/2 68/2/2
f 69/2/2 70/2/3 71/2/3
f 72/3/4 70/2/3 66/3/4
f 70/2/3 72/3/4 71/2/3
f 68/2/2 74/3/5 73/3/5
f 74/3/5 68/2/2 69/2/2
f 12/2/3 68/2/2 10/2/2
f 68/2/2 12/2/3 70/2/3
f 66/3/4 12/2/3 13/3/4
f 12/2/3 66/3/4 70/2/3
f 10/2/2 73/3/5 15/3/5
f 73/3/5 10/2/2 68/2/2
f 26/2/3 75/2/2 25/2/2
f 75/2/2 26/2/3 76/2/3
f 77/3/4 26/2/3 27/3/4
f 26/2/3 77/3/4 76/2/3
f 25/2/2 65/3/5 28/3/5
f 65/3/5 25/2/2 75/2/2
f 76/2/3 78/2/2 75/2/2
f 78/2/2 76/2/3 79/2/3
f 80/3/4 76/2/3 77/3/4
f 76/2/3 80/3/4 79/2/3
f 75/2/2 81/3/5 65/3/5
f 81/3/5 75/2/2 78/2/2
f 66/4/1 83/4/1 82/4/1
f 83/4/1 66/4/1 72/4/1
f 86/4/1 85/4/1 84/4/1
f 85/4/1 86/4/1 87/4/1
f 88/4/1 81/4/1 65/4/1
f 81/4/1 88/4/1 89/4/1
f 13/4/1 82/4/1 30/4/1
f 82/4/1 13/4/1 66/4/1
f 34/4/1 84/4/1 32/4/1
f 84/4/1 34/4/1 86/4/1
f 36/4/1 65/4/1 28/4/1
f 65/4/1 36/4/1 88/4/1
f 82/5/1 87/5/1 86/5/1
f 87/5/1 82/5/1 83/5/1
f 84/5/1 89/5/1 88/5/1
f 89/5/1 84/5/1 85/5/1
f 30/5/1 86/5/1 34/5/1
f 86/5/1 30/5/1 82/5/1
f 32/5/1 88/5/1 36/5/1
f 88/5/1 32/5/1 84/5/1
f 48/6/7 90/6/6 47/6/6
f 90/6/6 48/6/7 91/6/7
f 64/7/8 48/6/7 49/7/8
f 48/6/7 64/7/8 91/6/7
f 90/6/6 50/7/9 47/6/6
f 50/7/9 90/6/6 92/7/9
f 91/6/7 93/6/6 90/6/6
f 93/6/6 91/6/7 94/6/7
f 95/7/8 91/6/7 64/7/8
f 91/6/7 95/7/8 94/6/7
f 93/6/6 92/7/9 90/6/6
f 92/7/9 93/6/6 96/7/9
f 60/6/7 97/6/6 59/6/6
f 97/6/6 60/6/7 98/6/7
f 99/7/8 60/6/7 61/7/8
f 60/6/7 99/7/8 98/6/7
f 97/6/6 62/7/9 59/6/6
f 62/7/9 97/6/6 100/7/9
f 98/6/7 101/6/6 97/6/6
f 101/6/6 98/6/7 102/6/7
f 103/7/8 98/6/7 99/7/8
f 98/6/7 103/7/8 102/6/7
f 101/6/6 100/7/9 97/6/6
f 100/7/9 101/6/6 104/7/9
f 65/8/1 95/8/1 64/8/1
f 95/8/1 65/8/1 81/8/1
f 67/8/1 72/8/1 66/8/1
f 72/8/1 67/8/1 105/8/1
f 81/1/1 106/1/1 95/1/1
f 106/1/1 81/1/1 107/1/1
f 105/1/1 108/1/1 72/1/1
f 108/1/1 105/1/1 109/1/1
f 112/2/3 111/2/2 110/2/2
f 111/2/2 112/2/3 113/2/3
f 114/3/4 112/2/3 108/3/4
f 112/2/3 114/3/4 113/2/3
f 110/2/2 116/3/5 115/3/5
f 116/3/5 110/2/2 111/2/2
f 71/2/3 110/2/2 69/2/2
f 110/2/2 71/2/3 112/2/3
f 108/3/4 71/2/3 72/3/4
f 71/2/3 108/3/4 112/2/3
f 69/2/2 115/3/5 74/3/5
f 115/3/5 69/2/2 110/2/2
f 79/2/3 117/2/2 78/2/2
f 117/2/2 79/2/3 118/2/3
f 119/3/4 79/2/3 80/3/4
f 79/2/3 119/3/4 118/2/3
f 78/2/2 107/3/5 81/3/5
f 107/3/5 78/2/2 117/2/2
f 118/2/3 120/2/2 117/2/2
f 120/2/2 118/2/3 121/2/3
f 122/3/4 118/2/3 119/3/4
f 118/2/3 122/3/4 121/2/3
f 117/2/2 123/3/5 107/3/5
f 123/3/5 117/2/2 120/2/2
f 108/4/1 125/4/1 124/4/1
f 125/4/1 108/4/1 114/4/1
f 128/4/1 127/4/1 126/4/1
f 127/4/1 128/4/1 129/4/1
f 130/4/1 123/4/1 107/4/1
f 123/4/1 130/4/1 131/4/1
f 72/4/1 124/4/1 83/4/1
f 124/4/1 72/4/1 108/4/1
f 87/4/1 126/4/1 85/4/1
f 126/4/1 87/4/1 128/4/1
f 89/4/1 107/4/1 81/4/1
f 107/4/1 89/4/1 130/4/1
f 124/5/1 129/5/1 128/5/1
f 129/5/1 124/5/1 125/5/1
f 126/5/1 131/5/1 130/5/1
f 131/5/1 126/5/1 127/5/1
f 83/5/1 128/5/1 87/5/1
f 128/5/1 83/5/1 124/5/1
f 85/5/1 130/5/1 89/5/1
f 130/5/1 85/5/1 126/5/1
f 94/6/7 132/6/6 93/6/6
f 132/6/6 94/6/7 133/6/7
f 106/7/8 94/6/7 95/7/8
f 94/6/7 106/7/8 133/6/7
f 132/6/6 96/7/9 93/6/6
f 96/7/9 132/6/6 134/7/9
f 133/6/7 135/6/6 132/6/6
f 135/6/6 133/6/7 136/6/7
f 137/7/8 133/6/7 106/7/8
f 133/6/7 137/7/8 136/6/7
f 135/6/6 134/7/9 132/6/6
f 134/7/9 135/6/6 138/7/9
f 102/6/7 139/6/6 101/6/6
f 139/6/6 102/6/7 140/6/7
f 141/7/8 102/6/7 103/7/8
f 102/6/7 141/7/8 140/6/7
f 139/6/6 104/7/9 101/6/6
f 104/7/9 139/6/6 142/7/9
f 140/6/7 143/6/6 139/6/6
f 143/6/6 140/6/7 144/6/7
f 145/7/8 140/6/7 141/7/8
f 140/6/7 145/7/8 144/6/7
f 143/6/6 142/7/9 139/6/6
f 142/7/9 143/6/6 146/7/9
f 107/8/1 137/8/1 106/8/1
f 137/8/1 107/8/1 123/8/1
f 109/8/1 114/8/1 108/8/1
f 114/8/1 109/8/1 147/8/1
f 123/1/1 148/1/1 137/1/1
f 148/1/1 123/1/1 149/1/1
f 147/1/1 150/1/1 114/1/1
f 150/1/1 147/1/1 151/1/1
f 154/2/3 153/2/2 152/2/2
f 153/2/2 154/2/3 155/2/3
f 156/3/4 154/2/3 150/3/4
f 154/2/3 156/3/4 155/2/3
f 152/2/2 158/3/5 157/3/5
f 158/3/5 152/2/2 153/2/2
f 113/2/3 152/2/2 111/2/2
f 152/2/2 113/2/3 154/2/3
f 150/3/4 113/2/3 114/3/4
f 113/2/3 150/3/4 154/2/3
f 111/2/2 157/3/5 116/3/5
f 157/3/5 111/2/2 152/2/2
f 121/2/3 159/2/2 120/2/2
f 159/2/2 121/2/3 160/2/3
f 161/3/4 121/2/3 122/3/4
f 121/2/3 161/3/4 160/2/3
f 120/2/2 149/3/5 123/3/5
f 149/3/5 120/2/2 159/2/2
f 160/2/3 162/2/2 159/2/2
f 162/2/2 160/2/3 163/2/3
f 164/3/4 160/2/3 161/3/4
f 160/2/3 164/3/4 163/2/3
f 159/2/2 165/3/5 149/3/5
f 165/3/5 159/2/2 162/2/2
f 150/4/1 167/4/1 166/4/1
f 167/4/1 150/4/1 156/4/1
f 170/4/1 169/4/1 168/4/1
f 169/4/1 170/4/1 171/4/1
f 172/4/1 165/4/1 149/4/1
f 165/4/1 172/4/1 173/4/1
f 114/4/1 166/4/1 125/4/1
f 166/4/1 114/4/1 150/4/1
f 129/4/1 168/4/1 127/4/1
f 168/4/1 129/4/1 170/4/1
f 131/4/1 149/4/1 123/4/1
f 149/4/1 131/4/1 172/4/1
f 166/5/1 171/5/1 170/5/1
f 171/5/1 166/5/1 167/5/1
f 168/5/1 173/5/1 172/5/1
f 173/5/1 168/5/1 169/5/1
f 125/5/1 170/5/1 129/5/1
f 170/5/1 125/5/1 166/5/1
f 127/5/1 172/5/1 131/5/1
f 172/5/1 127/5/1 168/5/1
f 136/6/7 174/6/6 135/6/6
f 174/6/6 136/6/7 175/6/7
f 148/7/8 136/6/7 137/7/8
f 136/6/7 148/7/8 175/6/7
f 174/6/6 138/7/9 135/6/6
f 138/7/9 174/6/6 176/7/9
f 175/6/7 177/6/6 174/6/6
f 177/6/6 175/6/7 178/6/7
f 179/7/8 175/6/7 148/7/8
f 175/6/7 179/7/8 178/6/7
f 177/6/6 176/7/9 174/6/6
f 176/7/9 177/6/6 180/7/9
f 144/6/7 181/6/6 143/6/6
f 181/6/6 144/6/7 182/6/7
f 183/7/8 144/6/7 145/7/8
f 144/6/7 183/7/8 182/6/7
f 181/6/6 146/7/9 143/6/6
f 146/7/9 181/6/6 184/7/9
f 182/6/7 185/6/6 181/6/6
f 185/6/6 182/6/7 186/6/7
f 187/7/8 182/6/7 183/7/8
f 182/6/7 187/7/8 186/6/7
f 185/6/6 184/7/9 181/6/6
f 184/7/9 185/6/6 188/7/9
f 149/8/1 179/8/1 148/8/1
f 179/8/1 149/8/1 165/8/1
f 151/8/1 156/8/1 150/8/1
f 156/8/1 151/8/1 189/8/1

g track-road-straight




usemtl colormap

f 3/1/1 2/1/1 1/1/1
f 2/1/1 3/1/1 4/1/1
f 7/1/1 6/1/1 5/1/1
f 6/1/1 7/1/1 8/1/1
f 11/2/3 10/2/2 9/2/2
f 10/2/2 11/2/3 12/2/3
f 13/3/4 11/2/3 6/3/4
f 11/2/3 13/3/4 12/2/3
f 9/2/2 15/3/5 14/3/5
f 15/3/5 9/2/2 10/2/2
f 17/2/3 9/2/2 16/2/2
f 9/2/2 17/2/3 11/2/3
f 6/3/4 17/2/3 5/3/4
f 17/2/3 6/3/4 11/2/3
f 16/2/2 14/3/5 18/3/5
f 14/3/5 16/2/2 9/2/2
f 21/2/3 20/2/2 19/2/2
f 20/2/2 21/2/3 22/2/3
f 24/3/4 21/2/3 23/3/4
f 21/2/3 24/3/4 22/2/3
f 19/2/2 4/3/5 3/3/5
f 4/3/5 19/2/2 20/2/2
f 22/2/3 25/2/2 20/2/2
f 25/2/2 22/2/3 26/2/3
f 27/3/4 22/2/3 24/3/4
f 22/2/3 27/3/4 26/2/3
f 20/2/2 28/3/5 4/3/5
f 28/3/5 20/2/2 25/2/2
f 6/4/1 30/4/1 29/4/1
f 30/4/1 6/4/1 13/4/1
f 33/4/1 32/4/1 31/4/1
f 32/4/1 33/4/1 34/4/1
f 35/4/1 28/4/1 4/4/1
f 28/4/1 35/4/1 36/4/1
f 5/4/1 29/4/1 37/4/1
f 29/4/1 5/4/1 6/4/1
f 39/4/1 31/4/1 38/4/1
f 31/4/1 39/4/1 33/4/1
f 40/4/1 4/4/1 3/4/1
f 4/4/1 40/4/1 35/4/1
f 29/5/1 34/5/1 33/5/1
f 34/5/1 29/5/1 30/5/1
f 31/5/1 36/5/1 35/5/1
f 36/5/1 31/5/1 32/5/1
f 37/5/1 33/5/1 39/5/1
f 33/5/1 37/5/1 29/5/1
f 38/5/1 35/5/1 40/5/1
f 35/5/1 38/5/1 31/5/1
f 43/6/7 42/6/6 41/6/6
f 42/6/6 43/6/7 44/6/7
f 2/7/8 43/6/7 1/7/8
f 43/6/7 2/7/8 44/6/7
f 42/6/6 45/7/9 41/6/6
f 45/7/9 42/6/6 46/7/9
f 44/6/7 47/6/6 42/6/6
f 47/6/6 44/6/7 48/6/7
f 49/7/8 44/6/7 2/7/8
f 44/6/7 49/7/8 48/6/7
f 47/6/6 46/7/9 42/6/6
f 46/7/9 47/6/6 50/7/9
f 53/6/7 52/6/6 51/6/6
f 52/6/6 53/6/7 54/6/7
f 56/7/8 53/6/7 55/7/8
f 53/6/7 56/7/8 54/6/7
f 52/6/6 57/7/9 51/6/6
f 57/7/9 52/6/6 58/7/9
f 54/6/7 59/6/6 52/6/6
f 59/6/6 54/6/7 60/6/7
f 61/7/8 54/6/7 56/7/8
f 54/6/7 61/7/8 60/6/7
f 59/6/6 58/7/9 52/6/6
f 58/7/9 59/6/6 62/7/9
f 4/8/1 49/8/1 2/8/1
f 49/8/1 4/8/1 28/8/1
f 8/8/1 13/8/1 6/8/1
f 13/8/1 8/8/1 63/8/1
f 28/1/1 64/1/1 49/1/1
f 64/1/1 28/1/1 65/1/1
f 63/1/1 66/1/1 13/1/1
f 66/1/1 63/1/1 67/1/1
f 70/2/3 69/2/2 68/2/2
f 69/2/2 70/2/3 71/2/3
f 72/3/4 70/2/3 66/3/4
f 70/2/3 72/3/4 71/2/3
f 68/2/2 74/3/5 73/3/5
f 74/3/5 68/2/2 69/2/2
f 12/2/3 68/2/2 10/2/2
f 68/2/2 12/2/3 70/2/3
f 66/3/4 12/2/3 13/3/4
f 12/2/3 66/3/4 70/2/3
f 10/2/2 73/3/5 15/3/5
f 73/3/5 10/2/2 68/2/2
f 26/2/3 75/2/2 25/2/2
f 75/2/2 26/2/3 76/2/3
f 77/3/4 26/2/3 27/3/4
f 26/2/3 77/3/4 76/2/3
f 25/2/2 65/3/5 28/3/5
f 65/3/5 25/2/2 75/2/2
f 76/2/3 78/2/2 75/2/2
f 78/2/2 76/2/3 79/2/3
f 80/3/4 76/2/3 77/3/4
f 76/2/3 80/3/4 79/2/3
f 75/2/2 81/3/5 65/3/5
f 81/3/5 75/2/2 78/2/2
f 66/4/1 83/4/1 82/4/1
f 83/4/1 66/4/1 72/4/1
f 86/4/1 85/4/1 84/4/1
f 85/4/1 86/4/1 87/4/1
f 88/4/1 81/4/1 65/4/1
f 81/4/1 88/4/1 89/4/1
f 13/4/1 82/4/1 30/4/1
f 82/4/1 13/4/1 66/4/1
f 34/4/1 84/4/1 32/4/1
f 84/4/1 34/4/1 86/4/1
f 36/4/1 65/4/1 28/4/1
f 65/4/1 36/4/1 88/4/1
f 82/5/1 87/5/1 86/5/1
f 87/5/1 82/5/1 83/5/1
f 84/5/1 89/5/1 88/5/1
f 89/5/1 84/5/1 85/5/1
f 30/5/1 86/5/1 34/5/1
f 86/5/1 30/5/1 82/5/1
f 32/5/1 88/5/1 36/5/1
f 88/5/1 32/5/1 84/5/1
f 48/6/7 90/6/6 47/6/6
f 90/6/6 48/6/7 91/6/7
f 64/7/8 48/6/7 49/7/8
f 48/6/7 64/7/8 91/6/7
f 90/6/6 50/7/9 47/6/6
f 50/7/9 90/6/6 92/7/9
f 91/6/7 93/6/6 90/6/6
f 93/6/6 91/6/7 94/6/7
f 95/7/8 91/6/7 64/7/8
f 91/6/7 95/7/8 94/6/7
f 93/6/6 92/7/9 90/6/6
f 92/7/9 93/6/6 96/7/9
f 60/6/7 97/6/6 59/6/6
f 97/6/6 60/6/7 98/6/7
f 99/7/8 60/6/7 61/7/8
f 60/6/7 99/7/8 98/6/7
f 97/6/6 62/7/9 59/6/6
f 62/7/9 97/6/6 100/7/9
f 98/6/7 101/6/6 97/6/6
f 101/6/6 98/6/7 102/6/7
f 103/7/8 98/6/7 99/7/8
f 98/6/7 103/7/8 102/6/7
f 101/6/6 100/7/9 97/6/6
f 100/7/9 101/6/6 104/7/9
f 65/8/1 95/8/1 64/8/1
f 95/8/1 65/8/1 81/8/1
f 67/8/1 72/8/1 66/8/1
f 72/8/1 67/8/1 105/8/1
f 81/1/1 106/1/1 95/1/1
f 106/1/1 81/1/1 107/1/1
f 105/1/1 108/1/1 72/1/1
f 108/1/1 105/1/1 109/1/1
f 112/2/3 111/2/2 110/2/2
f 111/2/2 112/2/3 113/2/3
f 114/3/4 112/2/3 108/3/4
f 112/2/3 114/3/4 113/2/3
f 110/2/2 116/3/5 115/3/5
f 116/3/5 110/2/2 111/2/2
f 71/2/3 110/2/2 69/2/2
f 110/2/2 71/2/3 112/2/3
f 108/3/4 71/2/3 72/3/4
f 71/2/3 108/3/4 112/2/3
f 69/2/2 115/3/5 74/3/5
f 115/3/5 69/2/2 110/2/2
f 79/2/3 117/2/2 78/2/2
f 117/2/2 79/2/3 118/2/3
f 119/3/4 79/2/3 80/3/4
f 79/2/3 119/3/4 118/2/3
f 78/2/2 107/3/5 81/3/5
f 107/3/5 78/2/2 117/2/2
f 118/2/3 120/2/2 117/2/2
f 120/2/2 118/2/3 121/2/3
f 122/3/4 118/2/3 119/3/4
f 118/2/3 122/3/4 121/2/3
f 117/2/2 123/3/5 107/3/5
f 123/3/5 117/2/2 120/2/2
f 108/4/1 125/4/1 124/4/1
f 125/4/1 108/4/1 114/4/1
f 128/4/1 127/4/1 126/4/1
f 127/4/1 128/4/1 129/4/1
f 130/4/1 123/4/1 107/4/1
f 123/4/1 130/4/1 131/4/1
f 72/4/1 124/4/1 83/4/1
f 124/4/1 72/4/1 108/4/1
f 87/4/1 126/4/1 85/4/1
f 126/4/1 87/4/1 128/4/1
f 89/4/1 107/4/1 81/4/1
f 107/4/1 89/4/1 130/4/1
f 124/5/1 129/5/1 128/5/1
f 129/5/1 124/5/1 125/5/1
f 126/5/1 131/5/1 130/5/1
f 131/5/1 126/5/1 127/5/1
f 83/5/1 128/5/1 87/5/1
f 128/5/1 83/5/1 124/5/1
f 85/5/1 130/5/1 89/5/1
f 130/5/1 85/5/1 126/5/1
f 94/6/7 132/6/6 93/6/6
f 132/6/6 94/6/7 133/6/7
f 106/7/8 94/6/7 95/7/8
f 94/6/7 106/7/8 133/6/7
f 132/6/6 96/7/9 93/6/6
f 96/7/9 132/6/6 134/7/9
f 133/6/7 135/6/6 132/6/6
f 135/6/6 133/6/7 136/6/7
f 137/7/8 133/6/7 106/7/8
f 133/6/7 137/7/8 136/6/7
f 135/6/6 134/7/9 132/6/6
f 134/7/9 135/6/6 138/7/9
f 102/6/7 139/6/6 101/6/6
f 139/6/6 102/6/7 140/6/7
f 141/7/8 102/6/7 103/7/8
f 102/6/7 141/7/8 140/6/7
f 139/6/6 104/7/9 101/6/6
f 104/7/9 139/6/6 142/7/9
f 140/6/7 143/6/6 139/6/6
f 143/6/6 140/6/7 144/6/7
f 145/7/8 140/6/7 141/7/8
f 140/6/7 145/7/8 144/6/7
f 143/6/6 142/7/9 139/6/6
f 142/7/9 143/6/6 146/7/9
f 107/8/1 137/8/1 106/8/1
f 137/8/1 107/8/1 123/8/1
f 109/8/1 114/8/1 108/8/1
f 114/8/1 109/8/1 147/8/1
f 123/1/1 148/1/1 137/1/1
f 148/1/1 123/1/1 149/1/1
f 147/1/1 150/1/1 114/1/1
f 150/1/1 147/1/1 151/1/1
f 154/2/3 153/2/2 152/2/2
f 153/2/2 154/2/3 155/2/3
f 156/3/4 154/2/3 150/3/4
f 154/2/3 156/3/4 155/2/3
f 152/2/2 158/3/5 157/3/5
f 158/3/5 152/2/2 153/2/2
f 113/2/3 152/2/2 111/2/2
f 152/2/2 113/2/3 154/2/3
f 150/3/4 113/2/3 114/3/4
f 113/2/3 150/3/4 154/2/3
f 111/2/2 157/3/5 116/3/5
f 157/3/5 111/2/2 152/2/2
f 121/2/3 159/2/2 120/2/2
f 159/2/2 121/2/3 160/2/3
f 161/3/4 121/2/3 122/3/4
f 121/2/3 161/3/4 160/2/3
f 120/2/2 149/3/5 123/3/5
f 149/3/5 120/2/2 159/2/2
f 160/2/3 162/2/2 159/2/2
f 162/2/2 160/2/3 163/2/3
f 164/3/4 160/2/3 161/3/4
f 160/2/3 164/3/4 163/2/3
f 159/2/2 165/3/5 149/3/5
f 165/3/5 159/2/2 162/2/2
f 150/4/1 167/4/1 166/4/1
f 167/4/1 150/4/1 156/4/1
f 170/4/1 169/4/1 168/4/1
f 169/4/1 170/4/1 171/4/1
f 172/4/1 165/4/1 149/4/1
f 165/4/1 172/4/1 173/4/1
f 114/4/1 166/4/1 125/4/1
f 166/4/1 114/4/1 150/4/1
f 129/4/1 168/4/1 127/4/1
f 168/4/1 129/4/1 170/4/1
f 131/4/1 149/4/1 123/4/1
f 149/4/1 131/4/1 172/4/1
f 166/5/1 171/5/1 170/5/1
f 171/5/1 166/5/1 167/5/1
f 168/5/1 173/5/1 172/5/1
f 173/5/1 168/5/1 169/5/1
f 125/5/1 170/5/1 129/5/1
f 170/5/1 125/5/1 166/5/1
f 127/5/1 172/5/1 131/5/1
f 172/5/1 127/5/1 168/5/1
f 136/6/7 174/6/6 135/6/6
f 174/6/6 136/6/7 175/6/7
f 148/7/8 136/6/7 137/7/8
f 136/6/7 148/7/8 175/6/7
f 174/6/6 138/7/9 135/6/6
f 138/7/9 174/6/6 176/7/9
f 175/6/7 177/6/6 174/6/6
f 177/6/6 175/6/7 178/6/7
f 179/7/8 175/6/7 148/7/8
f 175/6/7 179/7/8 178/6/7
f 177/6/6 176/7/9 174/6/6
f 176/7/9 177/6/6 180/7/9
f 144/6/7 181/6/6 143/6/6
f 181/6/6 144/6/7 182/6/7
f 183/7/8 144/6/7 145/7/8
f 144/6/7 183/7/8 182/6/7
f 181/6/6 146/7/9 143/6/6
f 146/7/9 181/6/6 184/7/9
f 182/6/7 185/6/6 181/6/6
f 185/6/6 182/6/7 186/6/7
f 187/7/8 182/6/7 183/7/8
f 182/6/7 187/7/8 186/6/7
f 185/6/6 184/7/9 181/6/6
f 184/7/9 185/6/6 188/7/9
f 149/8/1 179/8/1 148/8/1
f 179/8/1 149/8/1 165/8/1
f 151/8/1 156/8/1 150/8/1
f 156/8/1 151/8/1 189/8/1

