# Created by Kenney (www.kenney.nl)

mtllib track-road-corner-large.mtl

g track-road-corner-large

v 1.8 0 1.001358E-05 1 1 1
v 1.750237 0 0.6951365 1 1 1
v 1.6 0 9.536743E-06 1 1 1
v 1.55224 0 0.6668987 1 1 1
v -1.6 0 2.861023E-06 1 1 1
v -1.615705 0 0.2150965 1 1 1
v -1.8 0 2.384186E-06 1 1 1
v -1.813701 0 0.1868589 1 1 1
v -1.457307 0.03999996 0.2376866 1 1 1
v -1.510217 0.03999996 0.4882624 1 1 1
v -1.576105 0.03999996 0.2207441 1 1 1
v -1.625838 0.03999996 0.4561427 1 1 1
v -1.664379 0 0.4454362 1 1 1
v -1.417708 0 0.2433343 1 1 1
v -1.471676 0 0.4989691 1 1 1
v -1.44 0.03999996 3.33786E-06 1 1 1
v -1.56 0.03999996 2.861023E-06 1 1 1
v -1.4 0 3.33786E-06 1 1 1
v 1.56 0.03999996 9.298325E-06 1 1 1
v 1.512641 0.03999996 0.6612513 1 1 1
v 1.44 0.03999996 9.059906E-06 1 1 1
v 1.393843 0.03999996 0.6443086 1 1 1
v 1.4 0 9.059906E-06 1 1 1
v 1.354244 0 0.6386611 1 1 1
v 1.38032 0.03999996 1.291256 1 1 1
v 1.264698 0.03999996 1.259136 1 1 1
v 1.226158 0 1.24843 1 1 1
v 1.41886 0 1.301963 1 1 1
v -1.31871 0 0.257453 1 1 1
v -1.375325 0 0.5257354 1 1 1
v 1.156247 0 0.6104236 1 1 1
v 1.033455 0 1.194897 1 1 1
v -1.219712 0 0.2715719 1 1 1
v -1.278974 0 0.5525019 1 1 1
v 1.255245 0 0.6245422 1 1 1
v 1.129806 0 1.221663 1 1 1
v -1.3 0 3.576279E-06 1 1 1
v 1.2 0 8.583069E-06 1 1 1
v -1.2 0 3.814697E-06 1 1 1
v 1.3 0 8.821487E-06 1 1 1
v 1.96 0.3 1.0252E-05 1 1 1
v 1.908634 0.3 0.7177265 1 1 1
v 1.84 0.3 1.001358E-05 1 1 1
v 1.789836 0.3 0.700784 1 1 1
v 2 0 1.0252E-05 1 1 1
v 1.948233 0 0.7233741 1 1 1
v 1.765724 0.3 1.398322 1 1 1
v 1.650103 0.3 1.366202 1 1 1
v 1.611562 0 1.355495 1 1 1
v 1.804265 0 1.409028 1 1 1
v -1.84 0.3 2.384186E-06 1 1 1
v -1.8533 0.3 0.1812115 1 1 1
v -1.96 0.3 2.145767E-06 1 1 1
v -1.972098 0.3 0.1642687 1 1 1
v -2 0 2.145767E-06 1 1 1
v -2.011698 0 0.1586213 1 1 1
v -1.8 0 2.384186E-06 1 1 1
v -1.813701 0 0.1868589 1 1 1
v -1.895622 0.3 0.3811967 1 1 1
v -2.011243 0.3 0.349077 1 1 1
v -2.049784 0 0.3383703 1 1 1
v -1.857081 0 0.3919034 1 1 1
v -1.857081 0 0.3919034 1 1 1
v 1.399474 0 1.973925 1 1 1
v 1.214383 0 1.898155 1 1 1
v -1.747081 0 0.685828 1 1 1
v -1.932172 0 0.6100576 1 1 1
v -1.599007 0.03999996 0.7464445 1 1 1
v -1.722256 0.03999996 1.005842 1 1 1
v -1.710062 0.03999996 0.7009821 1 1 1
v -1.827775 0.03999996 0.9486966 1 1 1
v -1.862949 0 0.9296482 1 1 1
v -1.561989 0 0.7615986 1 1 1
v -1.687082 0 1.02489 1 1 1
v 1.177364 0.03999996 1.883001 1 1 1
v 1.06631 0.03999996 1.837538 1 1 1
v 1.029291 0 1.822384 1 1 1
v 0.9157383 0.03999996 2.434473 1 1 1
v 0.8102186 0.03999996 2.377328 1 1 1
v 0.7750452 0 2.358279 1 1 1
v 0.9509115 0 2.453521 1 1 1
v -1.469443 0 0.7994838 1 1 1
v -1.599149 0 1.072511 1 1 1
v 0.8441999 0 1.746614 1 1 1
v 0.599179 0 2.263037 1 1 1
v -1.376898 0 0.837369 1 1 1
v -1.511216 0 1.120132 1 1 1
v 0.9367454 0 1.784499 1 1 1
v 0.6871121 0 2.310658 1 1 1
v 1.547547 0.3 2.034541 1 1 1
v 1.436492 0.3 1.989079 1 1 1
v 1.399474 0 1.973925 1 1 1
v 1.584565 0 2.049695 1 1 1
v 1.267471 0.3 2.624957 1 1 1
v 1.161951 0.3 2.567812 1 1 1
v 1.126778 0 2.548764 1 1 1
v 1.302644 0 2.644006 1 1 1
v -1.96919 0.3 0.5949035 1 1 1
v -2.080245 0.3 0.5494413 1 1 1
v -2.117263 0 0.5342872 1 1 1
v -1.932172 0 0.6100578 1 1 1
v -2.073988 0.3 0.8153577 1 1 1
v -2.179508 0.3 0.7582123 1 1 1
v -2.214681 0 0.7391639 1 1 1
v -2.038815 0 0.8344061 1 1 1
v 1.126778 0 2.548764 1 1 1
v -2.038815 0 0.8344059 1 1 1
v 0.8027794 0 3.080909 1 1 1
v 0.6373453 0 2.968519 1 1 1
v -2.009602 0 1.170279 1 1 1
v -2.175036 0 1.057889 1 1 1
v -1.877255 0.03999996 1.26019 1 1 1
v -2.06054 0.03999996 1.503836 1 1 1
v -1.976515 0.03999996 1.192757 1 1 1
v -2.152915 0.03999996 1.427242 1 1 1
v -2.183707 0 1.40171 1 1 1
v -1.844168 0 1.282669 1 1 1
v -2.029748 0 1.529368 1 1 1
v 0.6042583 0.03999996 2.946041 1 1 1
v 0.504998 0.03999996 2.878607 1 1 1
v 0.471911 0 2.856129 1 1 1
v 0.2488496 0.03999996 3.418705 1 1 1
v 0.1564739 0.03999996 3.34211 1 1 1
v 0.1256821 0 3.316578 1 1 1
v 0.2796414 0 3.444236 1 1 1
v -1.761451 0 1.338864 1 1 1
v -1.952769 0 1.593197 1 1 1
v 0.3064768 0 2.743739 1 1 1
v -0.02827716 0 3.18892 1 1 1
v -1.678734 0 1.395059 1 1 1
v -1.875789 0 1.657026 1 1 1
v 0.3891938 0 2.799934 1 1 1
v 0.04870248 0 3.252749 1 1 1
v 0.9351265 0.3 3.170821 1 1 1
v 0.8358662 0.3 3.103387 1 1 1
v 0.8027792 0 3.080909 1 1 1
v 0.9682136 0 3.193299 1 1 1
v 0.5567682 0.3 3.67402 1 1 1
v 0.4643924 0.3 3.597425 1 1 1
v 0.4336007 0 3.571894 1 1 1
v 0.5875599 0 3.699552 1 1 1
v -2.208123 0.3 1.03541 1 1 1
v -2.307384 0.3 0.9679766 1 1 1
v -2.34047 0 0.9454985 1 1 1
v -2.175036 0 1.057889 1 1 1
v -2.368459 0.3 1.248521 1 1 1
v -2.460834 0.3 1.171926 1 1 1
v -2.491626 0 1.146395 1 1 1
v -2.337667 0 1.274052 1 1 1
v 0.02279091 0 4.022793 1 1 1
v -0.1186302 0 3.881371 1 1 1
v -2.381371 0 1.618629 1 1 1
v -2.522793 0 1.477208 1 1 1
v -2.268234 0.03999996 1.731766 1 1 1
v -2.496164 0.03999996 1.93946 1 1 1
v -2.353087 0.03999996 1.646914 1 1 1
v -2.572759 0.03999996 1.847085 1 1 1
v -2.59829 0 1.816293 1 1 1
v -2.23995 0 1.760051 1 1 1
v -2.470632 0 1.970252 1 1 1
v -0.1469147 0.03999996 3.853087 1 1 1
v -0.2317674 0.03999996 3.768234 1 1 1
v -0.2600515 0 3.73995 1 1 1
v -0.5812972 0.03999996 4.248851 1 1 1
v -0.6578918 0.03999996 4.156475 1 1 1
v -0.6834235 0 4.125683 1 1 1
v -0.5557655 0 4.279643 1 1 1
v -2.16924 0 1.830762 1 1 1
v -2.406804 0 2.047232 1 1 1
v -0.4014729 0 3.598529 1 1 1
v -0.8110812 0 3.971724 1 1 1
v -2.098529 0 1.901472 1 1 1
v -2.342975 0 2.124212 1 1 1
v -0.3307624 0 3.66924 1 1 1
v -0.7472523 0 4.048703 1 1 1
v 0.1359279 0.3 4.13593 1 1 1
v 0.05107522 0.3 4.051077 1 1 1
v 0.1642122 0 4.164214 1 1 1
v -0.3259817 0.3 4.556769 1 1 1
v -0.4025763 0.3 4.464394 1 1 1
v -0.4281079 0 4.433602 1 1 1
v -0.3004501 0 4.587561 1 1 1
v -2.551077 0.3 1.448924 1 1 1
v -2.63593 0.3 1.364071 1 1 1
v -2.664214 0 1.335787 1 1 1
v -2.522793 0 1.477208 1 1 1
v -2.75148 0.3 1.631542 1 1 1
v -2.828074 0.3 1.539166 1 1 1
v -2.853606 0 1.508374 1 1 1
v -2.725948 0 1.662334 1 1 1
v -2.725948 0 1.662333 1 1 1
v -0.9190924 0 4.80278 1 1 1
v -1.031482 0 4.637346 1 1 1
v -2.829722 0 1.990398 1 1 1
v -2.942112 0 1.824964 1 1 1
v -2.73981 0.03999996 2.122746 1 1 1
v -2.994159 0.03999996 2.277744 1 1 1
v -2.807244 0.03999996 2.023485 1 1 1
v -3.051304 0.03999996 2.172225 1 1 1
v -3.070353 0 2.137051 1 1 1
v -2.717332 0 2.155833 1 1 1
v -2.975111 0 2.312918 1 1 1
v -1.05396 0.03999996 4.604259 1 1 1
v -1.121394 0.03999996 4.504999 1 1 1
v -1.143872 0 4.471911 1 1 1
v -1.565528 0.03999996 4.915738 1 1 1
v -1.622673 0.03999996 4.810219 1 1 1
v -1.641721 0 4.775045 1 1 1
v -1.546479 0 4.950912 1 1 1
v -2.661137 0 2.23855 1 1 1
v -2.927489 0 2.400851 1 1 1
v -1.256262 0 4.306478 1 1 1
v -1.736964 0 4.599179 1 1 1
v -2.604942 0 2.321267 1 1 1
v -2.879868 0 2.488784 1 1 1
v -1.200067 0 4.389194 1 1 1
v -1.689342 0 4.687112 1 1 1
v -0.8291805 0.3 4.935127 1 1 1
v -0.8966143 0.3 4.835867 1 1 1
v -0.8067024 0 4.968214 1 1 1
v -1.375044 0.3 5.267471 1 1 1
v -1.432189 0.3 5.161951 1 1 1
v -1.451237 0 5.126778 1 1 1
v -1.355995 0 5.302644 1 1 1
v -2.96459 0.3 1.791877 1 1 1
v -3.032024 0.3 1.692617 1 1 1
v -3.054502 0 1.65953 1 1 1
v -2.942112 0 1.824964 1 1 1
v -3.184643 0.3 1.926012 1 1 1
v -3.241788 0.3 1.820492 1 1 1
v -3.260837 0 1.785319 1 1 1
v -3.165595 0 1.961185 1 1 1
v -3.165595 0 1.961185 1 1 1
v -2.026075 0 5.399474 1 1 1
v -2.101846 0 5.214383 1 1 1
v -3.314172 0 2.252919 1 1 1
v -3.389943 0 2.067828 1 1 1
v -3.253556 0.03999996 2.400993 1 1 1
v -3.511739 0.03999996 2.489783 1 1 1
v -3.299018 0.03999996 2.289938 1 1 1
v -3.543858 0.03999996 2.374162 1 1 1
v -3.554565 0 2.335621 1 1 1
v -3.238402 0 2.438011 1 1 1
v -3.501032 0 2.528324 1 1 1
v -2.117 0.03999996 5.177364 1 1 1
v -2.162462 0.03999996 5.06631 1 1 1
v -2.177616 0 5.029291 1 1 1
v -2.708745 0.03999996 5.38032 1 1 1
v -2.740865 0.03999996 5.264698 1 1 1
v -2.751571 0 5.226158 1 1 1
v -2.698038 0 5.41886 1 1 1
v -3.200517 0 2.530557 1 1 1
v -3.474266 0 2.624675 1 1 1
v -2.253386 0 4.8442 1 1 1
v -2.805104 0 5.033455 1 1 1
v -3.162632 0 2.623102 1 1 1
v -3.447499 0 2.721026 1 1 1
v -2.215501 0 4.936746 1 1 1
v -2.778337 0 5.129807 1 1 1
v -1.965459 0.3 5.547547 1 1 1
v -2.010921 0.3 5.436492 1 1 1
v -2.026076 0 5.399474 1 1 1
v -1.950305 0 5.584566 1 1 1
v -2.601679 0.3 5.765724 1 1 1
v -2.633799 0.3 5.650103 1 1 1
v -2.644505 0 5.611562 1 1 1
v -2.590972 0 5.804265 1 1 1
v -3.405097 0.3 2.03081 1 1 1
v -3.450559 0.3 1.919755 1 1 1
v -3.465713 0 1.882737 1 1 1
v -3.389942 0 2.067828 1 1 1
v -3.618804 0.3 2.104378 1 1 1
v -3.650924 0.3 1.988757 1 1 1
v -3.661631 0 1.950217 1 1 1
v -3.608098 0 2.142919 1 1 1
v -2.644505 0 5.611562 1 1 1
v -3.608098 0 2.142919 1 1 1
v -3.304864 0 5.750237 1 1 1
v -3.333102 0 5.55224 1 1 1
v -3.784904 0 2.384295 1 1 1
v -3.813142 0 2.186299 1 1 1
v -3.762314 0.03999996 2.542693 1 1 1
v -3.999997 0.03999996 2.56 1 1 1
v -3.779257 0.03999996 2.423895 1 1 1
v -3.999998 0.03999996 2.44 1 1 1
v -3.999998 0 2.4 1 1 1
v -3.756666 0 2.582292 1 1 1
v -3.999997 0 2.6 1 1 1
v -3.338749 0.03999996 5.512641 1 1 1
v -3.355692 0.03999996 5.393843 1 1 1
v -3.361339 0 5.354244 1 1 1
v -3.99999 0.03999996 5.559999 1 1 1
v -3.999991 0.03999996 5.44 1 1 1
v -3.999991 0 5.4 1 1 1
v -3.99999 0 5.6 1 1 1
v -3.742548 0 2.68129 1 1 1
v -3.999997 0 2.7 1 1 1
v -3.389577 0 5.156247 1 1 1
v -3.999991 0 5.2 1 1 1
v -3.728429 0 2.780288 1 1 1
v -3.999997 0 2.8 1 1 1
v -3.375458 0 5.255246 1 1 1
v -3.999991 0 5.3 1 1 1
v -3.282274 0.3 5.908634 1 1 1
v -3.299216 0.3 5.789836 1 1 1
v -3.276626 0 5.948234 1 1 1
v -3.99999 0.3 5.96 1 1 1
v -3.99999 0.3 5.84 1 1 1
v -3.99999 0 5.8 1 1 1
v -3.99999 0 6 1 1 1
v -3.818789 0.3 2.1467 1 1 1
v -3.835732 0.3 2.027902 1 1 1
v -3.84138 0 1.988302 1 1 1
v -3.999998 0.3 2.16 1 1 1
v -3.999999 0.3 2.04 1 1 1
v -3.999999 0 2 1 1 1
v -3.999998 0 2.2 1 1 1

vn 0 1 0
vn 0.37885 0.9238795 0.05403039
vn 0.3687201 0.9238795 0.1024308
vn -0.37885 0.9238795 -0.05403039
vn -0.3687201 0.9238795 -0.1024308
vn -0.7000235 0.7071068 -0.09983514
vn -0.681306 0.7071068 -0.1892674
vn 0.7000235 0.7071068 0.09983514
vn 0.681306 0.7071068 0.1892674
vn 0.3826834 0.9238795 7.900578E-07
vn -0.3826834 0.9238795 -7.900578E-07
vn -0.7071068 0.7071068 -1.459836E-06
vn 0.7071068 0.7071068 1.459836E-06
vn 0.6587246 0.7523841 1.35995E-06
vn 0.652126 0.7523841 0.09300415
vn -0.6587246 0.7523841 -1.35995E-06
vn -0.652126 0.7523841 -0.09300415
vn -0.9912279 0.1321637 -2.04641E-06
vn -0.9812986 0.1321637 -0.1399497
vn 0.9912279 0.1321637 2.04641E-06
vn 0.9812986 0.1321637 0.1399497
vn 0.6346892 0.7523841 0.1763172
vn -0.6346892 0.7523841 -0.1763172
vn -0.9550602 0.1321637 -0.2653165
vn 0.9550602 0.1321637 0.2653165
vn 0.3541571 0.9238795 0.1449804
vn 0.3365055 0.9238795 0.1822378
vn -0.3541571 0.9238795 -0.1449804
vn -0.3365055 0.9238795 -0.1822378
vn -0.6543971 0.7071068 -0.2678889
vn -0.6217811 0.7071068 -0.3367316
vn 0.6543971 0.7071068 0.2678889
vn 0.6217811 0.7071068 0.3367316
vn 0.6096215 0.7523841 0.2495592
vn -0.6096215 0.7523841 -0.2495592
vn -0.9173391 0.1321637 -0.3755288
vn 0.9173391 0.1321637 0.3755288
vn 0.5792372 0.7523841 0.3136916
vn -0.5792372 0.7523841 -0.3136916
vn -0.8716177 0.1321637 -0.4720331
vn 0.8716177 0.1321637 0.4720331
vn 0.3165447 0.9238795 0.215049
vn 0.2945884 0.9238795 0.2442627
vn -0.3165447 0.9238795 -0.215049
vn -0.2945884 0.9238795 -0.2442627
vn -0.5848982 0.7071068 -0.3973588
vn -0.5443283 0.7071068 -0.4513387
vn 0.5848982 0.7071068 0.3973588
vn 0.5443283 0.7071068 0.4513387
vn 0.5448779 0.7523841 0.3701704
vn -0.5448779 0.7523841 -0.3701704
vn -0.819915 0.1321637 -0.5570208
vn 0.819915 0.1321637 0.5570208
vn 0.5070839 0.7523841 0.4204569
vn -0.5070839 0.7523841 -0.4204569
vn -0.7630438 0.1321637 -0.6326903
vn 0.7630438 0.1321637 0.6326903
vn 0.270598 0.9238795 0.2705981
vn 0.2442626 0.9238795 0.2945885
vn -0.270598 0.9238795 -0.2705981
vn -0.2442626 0.9238795 -0.2945885
vn -0.4999999 0.7071068 -0.5000001
vn -0.4513384 0.7071068 -0.5443285
vn 0.4999999 0.7071068 0.5000001
vn 0.4513384 0.7071068 0.5443285
vn 0.4657885 0.7523841 0.4657887
vn -0.4657885 0.7523841 -0.4657887
vn -0.7009039 0.1321637 -0.7009041
vn 0.7009039 0.1321637 0.7009041
vn 0.4204566 0.7523841 0.5070841
vn -0.4204566 0.7523841 -0.5070841
vn -0.6326898 0.1321637 -0.7630441
vn 0.6326898 0.1321637 0.7630441
vn 0.215049 0.9238795 0.3165447
vn 0.1822378 0.9238795 0.3365055
vn -0.215049 0.9238795 -0.3165447
vn -0.1822378 0.9238795 -0.3365055
vn -0.3973587 0.7071068 -0.5848983
vn -0.3367316 0.7071068 -0.6217812
vn 0.3973587 0.7071068 0.5848983
vn 0.3367316 0.7071068 0.6217812
vn 0.3701703 0.7523841 0.5448779
vn -0.3701703 0.7523841 -0.5448779
vn -0.5570205 0.1321637 -0.8199152
vn 0.5570205 0.1321637 0.8199152
vn 0.3136915 0.7523841 0.5792372
vn -0.3136915 0.7523841 -0.5792372
vn -0.472033 0.1321637 -0.8716177
vn 0.472033 0.1321637 0.8716177
vn 0.1449804 0.9238795 0.3541572
vn 0.1024308 0.9238795 0.3687201
vn -0.1449804 0.9238795 -0.3541572
vn -0.1024308 0.9238795 -0.3687201
vn -0.2678888 0.7071068 -0.6543971
vn -0.1892675 0.7071068 -0.6813059
vn 0.2678888 0.7071068 0.6543971
vn 0.1892675 0.7071068 0.6813059
vn 0.2495591 0.7523841 0.6096215
vn -0.2495591 0.7523841 -0.6096215
vn -0.3755286 0.1321637 -0.9173391
vn 0.3755286 0.1321637 0.9173391
vn 0.1763173 0.7523841 0.6346892
vn -0.1763173 0.7523841 -0.6346892
vn -0.2653167 0.1321637 -0.9550601
vn 0.2653167 0.1321637 0.9550601
vn 0.05403042 0.9238795 0.37885
vn 8.34465E-07 0.9238795 0.3826834
vn -0.05403042 0.9238795 -0.37885
vn -8.34465E-07 0.9238795 -0.3826834
vn -0.09983522 0.7071068 -0.7000235
vn -1.549721E-06 0.7071068 -0.7071067
vn 0.09983522 0.7071068 0.7000235
vn 1.549721E-06 0.7071068 0.7071067
vn 0.09300417 0.7523841 0.6521261
vn -0.09300417 0.7523841 -0.6521261
vn -0.1399498 0.1321637 -0.9812986
vn 0.1399498 0.1321637 0.9812986
vn 1.430511E-06 0.7523841 0.6587245
vn -1.430511E-06 0.7523841 -0.6587245
vn -2.145767E-06 0.1321637 -0.9912279
vn 2.145767E-06 0.1321637 0.9912279

vt 0.59375 0.275
vt 0.34375 0.475
vt 0.34375 0.275
vt 0.34375 0.025
vt 0.21875 0.025
vt 0.46875 0.225
vt 0.46875 0.145
vt 0.59375 0.145

usemtl colormap

f 3/1/1 2/1/1 1/1/1
f 2/1/1 3/1/1 4/1/1
f 7/1/1 6/1/1 5/1/1
f 6/1/1 7/1/1 8/1/1
f 11/2/4 10/2/3 9/2/2
f 10/2/3 11/2/4 12/2/5
f 13/3/7 11/2/4 6/3/6
f 11/2/4 13/3/7 12/2/5
f 9/2/2 15/3/9 14/3/8
f 15/3/9 9/2/2 10/2/3
f 17/2/11 9/2/2 16/2/10
f 9/2/2 17/2/11 11/2/4
f 6/3/6 17/2/11 5/3/12
f 17/2/11 6/3/6 11/2/4
f 16/2/10 14/3/8 18/3/13
f 14/3/8 16/2/10 9/2/2
f 21/2/11 20/2/2 19/2/10
f 20/2/2 21/2/11 22/2/4
f 24/3/6 21/2/11 23/3/12
f 21/2/11 24/3/6 22/2/4
f 19/2/10 4/3/8 3/3/13
f 4/3/8 19/2/10 20/2/2
f 22/2/4 25/2/3 20/2/2
f 25/2/3 22/2/4 26/2/5
f 27/3/7 22/2/4 24/3/6
f 22/2/4 27/3/7 26/2/5
f 20/2/2 28/3/9 4/3/8
f 28/3/9 20/2/2 25/2/3
f 6/4/1 30/4/1 29/4/1
f 30/4/1 6/4/1 13/4/1
f 33/4/1 32/4/1 31/4/1
f 32/4/1 33/4/1 34/4/1
f 35/4/1 28/4/1 4/4/1
f 28/4/1 35/4/1 36/4/1
f 5/4/1 29/4/1 37/4/1
f 29/4/1 5/4/1 6/4/1
f 39/4/1 31/4/1 38/4/1
f 31/4/1 39/4/1 33/4/1
f 40/4/1 4/4/1 3/4/1
f 4/4/1 40/4/1 35/4/1
f 29/5/1 34/5/1 33/5/1
f 34/5/1 29/5/1 30/5/1
f 31/5/1 36/5/1 35/5/1
f 36/5/1 31/5/1 32/5/1
f 37/5/1 33/5/1 39/5/1
f 33/5/1 37/5/1 29/5/1
f 38/5/1 35/5/1 40/5/1
f 35/5/1 38/5/1 31/5/1
f 43/6/16 42/6/15 41/6/14
f 42/6/15 43/6/16 44/6/17
f 2/7/19 43/6/16 1/7/18
f 43/6/16 2/7/19 44/6/17
f 42/6/15 45/7/20 41/6/14
f 45/7/20 42/6/15 46/7/21
f 44/6/17 47/6/22 42/6/15
f 47/6/22 44/6/17 48/6/23
f 49/7/24 44/6/17 2/7/19
f 44/6/17 49/7/24 48/6/23
f 47/6/22 46/7/21 42/6/15
f 46/7/21 47/6/22 50/7/25
f 53/6/16 52/6/15 51/6/14
f 52/6/15 53/6/16 54/6/17
f 56/7/19 53/6/16 55/7/18
f 53/6/16 56/7/19 54/6/17
f 52/6/15 57/7/20 51/6/14
f 57/7/20 52/6/15 58/7/21
f 54/6/17 59/6/22 52/6/15
f 59/6/22 54/6/17 60/6/23
f 61/7/24 54/6/17 56/7/19
f 54/6/17 61/7/24 60/6/23
f 59/6/22 58/7/21 52/6/15
f 58/7/21 59/6/22 62/7/25
f 4/8/1 49/8/1 2/8/1
f 49/8/1 4/8/1 28/8/1
f 8/8/1 13/8/1 6/8/1
f 13/8/1 8/8/1 63/8/1
f 28/1/1 64/1/1 49/1/1
f 64/1/1 28/1/1 65/1/1
f 63/1/1 66/1/1 13/1/1
f 66/1/1 63/1/1 67/1/1
f 70/2/28 69/2/27 68/2/26
f 69/2/27 70/2/28 71/2/29
f 72/3/31 70/2/28 66/3/30
f 70/2/28 72/3/31 71/2/29
f 68/2/26 74/3/33 73/3/32
f 74/3/33 68/2/26 69/2/27
f 12/2/5 68/2/26 10/2/3
f 68/2/26 12/2/5 70/2/28
f 66/3/30 12/2/5 13/3/7
f 12/2/5 66/3/30 70/2/28
f 10/2/3 73/3/32 15/3/9
f 73/3/32 10/2/3 68/2/26
f 26/2/5 75/2/26 25/2/3
f 75/2/26 26/2/5 76/2/28
f 77/3/30 26/2/5 27/3/7
f 26/2/5 77/3/30 76/2/28
f 25/2/3 65/3/32 28/3/9
f 65/3/32 25/2/3 75/2/26
f 76/2/28 78/2/27 75/2/26
f 78/2/27 76/2/28 79/2/29
f 80/3/31 76/2/28 77/3/30
f 76/2/28 80/3/31 79/2/29
f 75/2/26 81/3/33 65/3/32
f 81/3/33 75/2/26 78/2/27
f 66/4/1 83/4/1 82/4/1
f 83/4/1 66/4/1 72/4/1
f 86/4/1 85/4/1 84/4/1
f 85/4/1 86/4/1 87/4/1
f 88/4/1 81/4/1 65/4/1
f 81/4/1 88/4/1 89/4/1
f 13/4/1 82/4/1 30/4/1
f 82/4/1 13/4/1 66/4/1
f 34/4/1 84/4/1 32/4/1
f 84/4/1 34/4/1 86/4/1
f 36/4/1 65/4/1 28/4/1
f 65/4/1 36/4/1 88/4/1
f 82/5/1 87/5/1 86/5/1
f 87/5/1 82/5/1 83/5/1
f 84/5/1 89/5/1 88/5/1
f 89/5/1 84/5/1 85/5/1
f 30/5/1 86/5/1 34/5/1
f 86/5/1 30/5/1 82/5/1
f 32/5/1 88/5/1 36/5/1
f 88/5/1 32/5/1 84/5/1
f 48/6/23 90/6/34 47/6/22
f 90/6/34 48/6/23 91/6/35
f 92/7/36 48/6/23 49/7/24
f 48/6/23 92/7/36 91/6/35
f 90/6/34 50/7/25 47/6/22
f 50/7/25 90/6/34 93/7/37
f 91/6/35 94/6/38 90/6/34
f 94/6/38 91/6/35 95/6/39
f 96/7/40 91/6/35 92/7/36
f 91/6/35 96/7/40 95/6/39
f 94/6/38 93/7/37 90/6/34
f 93/7/37 94/6/38 97/7/41
f 60/6/23 98/6/34 59/6/22
f 98/6/34 60/6/23 99/6/35
f 100/7/36 60/6/23 61/7/24
f 60/6/23 100/7/36 99/6/35
f 98/6/34 62/7/25 59/6/22
f 62/7/25 98/6/34 101/7/37
f 99/6/35 102/6/38 98/6/34
f 102/6/38 99/6/35 103/6/39
f 104/7/40 99/6/35 100/7/36
f 99/6/35 104/7/40 103/6/39
f 102/6/38 101/7/37 98/6/34
f 101/7/37 102/6/38 105/7/41
f 65/8/1 106/8/1 64/8/1
f 106/8/1 65/8/1 81/8/1
f 67/8/1 72/8/1 66/8/1
f 72/8/1 67/8/1 107/8/1
f 81/1/1 108/1/1 106/1/1
f 108/1/1 81/1/1 109/1/1
f 107/1/1 110/1/1 72/1/1
f 110/1/1 107/1/1 111/1/1
f 114/2/44 113/2/43 112/2/42
f 113/2/43 114/2/44 115/2/45
f 116/3/47 114/2/44 110/3/46
f 114/2/44 116/3/47 115/2/45
f 112/2/42 118/3/49 117/3/48
f 118/3/49 112/2/42 113/2/43
f 71/2/29 112/2/42 69/2/27
f 112/2/42 71/2/29 114/2/44
f 110/3/46 71/2/29 72/3/31
f 71/2/29 110/3/46 114/2/44
f 69/2/27 117/3/48 74/3/33
f 117/3/48 69/2/27 112/2/42
f 79/2/29 119/2/42 78/2/27
f 119/2/42 79/2/29 120/2/44
f 121/3/46 79/2/29 80/3/31
f 79/2/29 121/3/46 120/2/44
f 78/2/27 109/3/48 81/3/33
f 109/3/48 78/2/27 119/2/42
f 120/2/44 122/2/43 119/2/42
f 122/2/43 120/2/44 123/2/45
f 124/3/47 120/2/44 121/3/46
f 120/2/44 124/3/47 123/2/45
f 119/2/42 125/3/49 109/3/48
f 125/3/49 119/2/42 122/2/43
f 110/4/1 127/4/1 126/4/1
f 127/4/1 110/4/1 116/4/1
f 130/4/1 129/4/1 128/4/1
f 129/4/1 130/4/1 131/4/1
f 132/4/1 125/4/1 109/4/1
f 125/4/1 132/4/1 133/4/1
f 72/4/1 126/4/1 83/4/1
f 126/4/1 72/4/1 110/4/1
f 87/4/1 128/4/1 85/4/1
f 128/4/1 87/4/1 130/4/1
f 89/4/1 109/4/1 81/4/1
f 109/4/1 89/4/1 132/4/1
f 126/5/1 131/5/1 130/5/1
f 131/5/1 126/5/1 127/5/1
f 128/5/1 133/5/1 132/5/1
f 133/5/1 128/5/1 129/5/1
f 83/5/1 130/5/1 87/5/1
f 130/5/1 83/5/1 126/5/1
f 85/5/1 132/5/1 89/5/1
f 132/5/1 85/5/1 128/5/1
f 95/6/39 134/6/50 94/6/38
f 134/6/50 95/6/39 135/6/51
f 136/7/52 95/6/39 96/7/40
f 95/6/39 136/7/52 135/6/51
f 134/6/50 97/7/41 94/6/38
f 97/7/41 134/6/50 137/7/53
f 135/6/51 138/6/54 134/6/50
f 138/6/54 135/6/51 139/6/55
f 140/7/56 135/6/51 136/7/52
f 135/6/51 140/7/56 139/6/55
f 138/6/54 137/7/53 134/6/50
f 137/7/53 138/6/54 141/7/57
f 103/6/39 142/6/50 102/6/38
f 142/6/50 103/6/39 143/6/51
f 144/7/52 103/6/39 104/7/40
f 103/6/39 144/7/52 143/6/51
f 142/6/50 105/7/41 102/6/38
f 105/7/41 142/6/50 145/7/53
f 143/6/51 146/6/54 142/6/50
f 146/6/54 143/6/51 147/6/55
f 148/7/56 143/6/51 144/7/52
f 143/6/51 148/7/56 147/6/55
f 146/6/54 145/7/53 142/6/50
f 145/7/53 146/6/54 149/7/57
f 109/8/1 140/8/1 108/8/1
f 140/8/1 109/8/1 125/8/1
f 111/8/1 116/8/1 110/8/1
f 116/8/1 111/8/1 149/8/1
f 125/1/1 150/1/1 140/1/1
f 150/1/1 125/1/1 151/1/1
f 149/1/1 152/1/1 116/1/1
f 152/1/1 149/1/1 153/1/1
f 156/2/60 155/2/59 154/2/58
f 155/2/59 156/2/60 157/2/61
f 158/3/63 156/2/60 152/3/62
f 156/2/60 158/3/63 157/2/61
f 154/2/58 160/3/65 159/3/64
f 160/3/65 154/2/58 155/2/59
f 115/2/45 154/2/58 113/2/43
f 154/2/58 115/2/45 156/2/60
f 152/3/62 115/2/45 116/3/47
f 115/2/45 152/3/62 156/2/60
f 113/2/43 159/3/64 118/3/49
f 159/3/64 113/2/43 154/2/58
f 123/2/45 161/2/58 122/2/43
f 161/2/58 123/2/45 162/2/60
f 163/3/62 123/2/45 124/3/47
f 123/2/45 163/3/62 162/2/60
f 122/2/43 151/3/64 125/3/49
f 151/3/64 122/2/43 161/2/58
f 162/2/60 164/2/59 161/2/58
f 164/2/59 162/2/60 165/2/61
f 166/3/63 162/2/60 163/3/62
f 162/2/60 166/3/63 165/2/61
f 161/2/58 167/3/65 151/3/64
f 167/3/65 161/2/58 164/2/59
f 152/4/1 169/4/1 168/4/1
f 169/4/1 152/4/1 158/4/1
f 172/4/1 171/4/1 170/4/1
f 171/4/1 172/4/1 173/4/1
f 174/4/1 167/4/1 151/4/1
f 167/4/1 174/4/1 175/4/1
f 116/4/1 168/4/1 127/4/1
f 168/4/1 116/4/1 152/4/1
f 131/4/1 170/4/1 129/4/1
f 170/4/1 131/4/1 172/4/1
f 133/4/1 151/4/1 125/4/1
f 151/4/1 133/4/1 174/4/1
f 168/5/1 173/5/1 172/5/1
f 173/5/1 168/5/1 169/5/1
f 170/5/1 175/5/1 174/5/1
f 175/5/1 170/5/1 171/5/1
f 127/5/1 172/5/1 131/5/1
f 172/5/1 127/5/1 168/5/1
f 129/5/1 174/5/1 133/5/1
f 174/5/1 129/5/1 170/5/1
f 139/6/55 176/6/66 138/6/54
f 176/6/66 139/6/55 177/6/67
f 150/7/68 139/6/55 140/7/56
f 139/6/55 150/7/68 177/6/67
f 176/6/66 141/7/57 138/6/54
f 141/7/57 176/6/66 178/7/69
f 177/6/67 179/6/70 176/6/66
f 179/6/70 177/6/67 180/6/71
f 181/7/72 177/6/67 150/7/68
f 177/6/67 181/7/72 180/6/71
f 179/6/70 178/7/69 176/6/66
f 178/7/69 179/6/70 182/7/73
f 147/6/55 183/6/66 146/6/54
f 183/6/66 147/6/55 184/6/67
f 185/7/68 147/6/55 148/7/56
f 147/6/55 185/7/68 184/6/67
f 183/6/66 149/7/57 146/6/54
f 149/7/57 183/6/66 186/7/69
f 184/6/67 187/6/70 183/6/66
f 187/6/70 184/6/67 188/6/71
f 189/7/72 184/6/67 185/7/68
f 184/6/67 189/7/72 188/6/71
f 187/6/70 186/7/69 183/6/66
f 186/7/69 187/6/70 190/7/73
f 151/8/1 181/8/1 150/8/1
f 181/8/1 151/8/1 167/8/1
f 153/8/1 158/8/1 152/8/1
f 158/8/1 153/8/1 191/8/1
f 167/1/1 192/1/1 181/1/1
f 192/1/1 167/1/1 193/1/1
f 191/1/1 194/1/1 158/1/1
f 194/1/1 191/1/1 195/1/1
f 198/2/76 197/2/75 196/2/74
f 197/2/75 198/2/76 199/2/77
f 200/3/79 198/2/76 194/3/78
f 198/2/76 200/3/79 199/2/77
f 196/2/74 202/3/81 201/3/80
f 202/3/81 196/2/74 197/2/75
f 157/2/61 196/2/74 155/2/59
f 196/2/74 157/2/61 198/2/76
f 194/3/78 157/2/61 158/3/63
f 157/2/61 194/3/78 198/2/76
f 155/2/59 201/3/80 160/3/65
f 201/3/80 155/2/59 196/2/74
f 165/2/61 203/2/74 164/2/59
f 203/2/74 165/2/61 204/2/76
f 205/3/78 165/2/61 166/3/63
f 165/2/61 205/3/78 204/2/76
f 164/2/59 193/3/80 167/3/65
f 193/3/80 164/2/59 203/2/74
f 204/2/76 206/2/75 203/2/74
f 206/2/75 204/2/76 207/2/77
f 208/3/79 204/2/76 205/3/78
f 204/2/76 208/3/79 207/2/77
f 203/2/74 209/3/81 193/3/80
f 209/3/81 203/2/74 206/2/75
f 194/4/1 211/4/1 210/4/1
f 211/4/1 194/4/1 200/4/1
f 214/4/1 213/4/1 212/4/1
f 213/4/1 214/4/1 215/4/1
f 216/4/1 209/4/1 193/4/1
f 209/4/1 216/4/1 217/4/1
f 158/4/1 210/4/1 169/4/1
f 210/4/1 158/4/1 194/4/1
f 173/4/1 212/4/1 171/4/1
f 212/4/1 173/4/1 214/4/1
f 175/4/1 193/4/1 167/4/1
f 193/4/1 175/4/1 216/4/1
f 210/5/1 215/5/1 214/5/1
f 215/5/1 210/5/1 211/5/1
f 212/5/1 217/5/1 216/5/1
f 217/5/1 212/5/1 213/5/1
f 169/5/1 214/5/1 173/5/1
f 214/5/1 169/5/1 210/5/1
f 171/5/1 216/5/1 175/5/1
f 216/5/1 171/5/1 212/5/1
f 180/6/71 218/6/82 179/6/70
f 218/6/82 180/6/71 219/6/83
f 192/7/84 180/6/71 181/7/72
f 180/6/71 192/7/84 219/6/83
f 218/6/82 182/7/73 179/6/70
f 182/7/73 218/6/82 220/7/85
f 219/6/83 221/6/86 218/6/82
f 221/6/86 219/6/83 222/6/87
f 223/7/88 219/6/83 192/7/84
f 219/6/83 223/7/88 222/6/87
f 221/6/86 220/7/85 218/6/82
f 220/7/85 221/6/86 224/7/89
f 188/6/71 225/6/82 187/6/70
f 225/6/82 188/6/71 226/6/83
f 227/7/84 188/6/71 189/7/72
f 188/6/71 227/7/84 226/6/83
f 225/6/82 190/7/73 187/6/70
f 190/7/73 225/6/82 228/7/85
f 226/6/83 229/6/86 225/6/82
f 229/6/86 226/6/83 230/6/87
f 231/7/88 226/6/83 227/7/84
f 226/6/83 231/7/88 230/6/87
f 229/6/86 228/7/85 225/6/82
f 228/7/85 229/6/86 232/7/89
f 193/8/1 223/8/1 192/8/1
f 223/8/1 193/8/1 209/8/1
f 195/8/1 200/8/1 194/8/1
f 200/8/1 195/8/1 233/8/1
f 209/1/1 234/1/1 223/1/1
f 234/1/1 209/1/1 235/1/1
f 233/1/1 236/1/1 200/1/1
f 236/1/1 233/1/1 237/1/1
f 240/2/92 239/2/91 238/2/90
f 239/2/91 240/2/92 241/2/93
f 242/3/95 240/2/92 236/3/94
f 240/2/92 242/3/95 241/2/93
f 238/2/90 244/3/97 243/3/96
f 244/3/97 238/2/90 239/2/91
f 199/2/77 238/2/90 197/2/75
f 238/2/90 199/2/77 240/2/92
f 236/3/94 199/2/77 200/3/79
f 199/2/77 236/3/94 240/2/92
f 197/2/75 243/3/96 202/3/81
f 243/3/96 197/2/75 238/2/90
f 207/2/77 245/2/90 206/2/75
f 245/2/90 207/2/77 246/2/92
f 247/3/94 207/2/77 208/3/79
f 207/2/77 247/3/94 246/2/92
f 206/2/75 235/3/96 209/3/81
f 235/3/96 206/2/75 245/2/90
f 246/2/92 248/2/91 245/2/90
f 248/2/91 246/2/92 249/2/93
f 250/3/95 246/2/92 247/3/94
f 246/2/92 250/3/95 249/2/93
f 245/2/90 251/3/97 235/3/96
f 251/3/97 245/2/90 248/2/91
f 236/4/1 253/4/1 252/4/1
f 253/4/1 236/4/1 242/4/1
f 256/4/1 255/4/1 254/4/1
f 255/4/1 256/4/1 257/4/1
f 258/4/1 251/4/1 235/4/1
f 251/4/1 258/4/1 259/4/1
f 200/4/1 252/4/1 211/4/1
f 252/4/1 200/4/1 236/4/1
f 215/4/1 254/4/1 213/4/1
f 254/4/1 215/4/1 256/4/1
f 217/4/1 235/4/1 209/4/1
f 235/4/1 217/4/1 258/4/1
f 252/5/1 257/5/1 256/5/1
f 257/5/1 252/5/1 253/5/1
f 254/5/1 259/5/1 258/5/1
f 259/5/1 254/5/1 255/5/1
f 211/5/1 256/5/1 215/5/1
f 256/5/1 211/5/1 252/5/1
f 213/5/1 258/5/1 217/5/1
f 258/5/1 213/5/1 254/5/1
f 222/6/87 260/6/98 221/6/86
f 260/6/98 222/6/87 261/6/99
f 262/7/100 222/6/87 223/7/88
f 222/6/87 262/7/100 261/6/99
f 260/6/98 224/7/89 221/6/86
f 224/7/89 260/6/98 263/7/101
f 261/6/99 264/6/102 260/6/98
f 264/6/102 261/6/99 265/6/103
f 266/7/104 261/6/99 262/7/100
f 261/6/99 266/7/104 265/6/103
f 264/6/102 263/7/101 260/6/98
f 263/7/101 264/6/102 267/7/105
f 230/6/87 268/6/98 229/6/86
f 268/6/98 230/6/87 269/6/99
f 270/7/100 230/6/87 231/7/88
f 230/6/87 270/7/100 269/6/99
f 268/6/98 232/7/89 229/6/86
f 232/7/89 268/6/98 271/7/101
f 269/6/99 272/6/102 268/6/98
f 272/6/102 269/6/99 273/6/103
f 274/7/104 269/6/99 270/7/100
f 269/6/99 274/7/104 273/6/103
f 272/6/102 271/7/101 268/6/98
f 271/7/101 272/6/102 275/7/105
f 235/8/1 276/8/1 234/8/1
f 276/8/1 235/8/1 251/8/1
f 237/8/1 242/8/1 236/8/1
f 242/8/1 237/8/1 277/8/1
f 251/1/1 278/1/1 276/1/1
f 278/1/1 251/1/1 279/1/1
f 277/1/1 280/1/1 242/1/1
f 280/1/1 277/1/1 281/1/1
f 284/2/108 283/2/107 282/2/106
f 283/2/107 284/2/108 285/2/109
f 286/3/111 284/2/108 280/3/110
f 284/2/108 286/3/111 285/2/109
f 282/2/106 288/3/113 287/3/112
f 288/3/113 282/2/106 283/2/107
f 241/2/93 282/2/106 239/2/91
f 282/2/106 241/2/93 284/2/108
f 280/3/110 241/2/93 242/3/95
f 241/2/93 280/3/110 284/2/108
f 239/2/91 287/3/112 244/3/97
f 287/3/112 239/2/91 282/2/106
f 249/2/93 289/2/106 248/2/91
f 289/2/106 249/2/93 290/2/108
f 291/3/110 249/2/93 250/3/95
f 249/2/93 291/3/110 290/2/108
f 248/2/91 279/3/112 251/3/97
f 279/3/112 248/2/91 289/2/106
f 290/2/108 292/2/107 289/2/106
f 292/2/107 290/2/108 293/2/109
f 294/3/111 290/2/108 291/3/110
f 290/2/108 294/3/111 293/2/109
f 289/2/106 295/3/113 279/3/112
f 295/3/113 289/2/106 292/2/107
f 280/4/1 297/4/1 296/4/1
f 297/4/1 280/4/1 286/4/1
f 300/4/1 299/4/1 298/4/1
f 299/4/1 300/4/1 301/4/1
f 302/4/1 295/4/1 279/4/1
f 295/4/1 302/4/1 303/4/1
f 242/4/1 296/4/1 253/4/1
f 296/4/1 242/4/1 280/4/1
f 257/4/1 298/4/1 255/4/1
f 298/4/1 257/4/1 300/4/1
f 259/4/1 279/4/1 251/4/1
f 279/4/1 259/4/1 302/4/1
f 296/5/1 301/5/1 300/5/1
f 301/5/1 296/5/1 297/5/1
f 298/5/1 303/5/1 302/5/1
f 303/5/1 298/5/1 299/5/1
f 253/5/1 300/5/1 257/5/1
f 300/5/1 253/5/1 296/5/1
f 255/5/1 302/5/1 259/5/1
f 302/5/1 255/5/1 298/5/1
f 265/6/103 304/6/114 264/6/102
f 304/6/114 265/6/103 305/6/115
f 278/7/116 265/6/103 266/7/104
f 265/6/103 278/7/116 305/6/115
f 304/6/114 267/7/105 264/6/102
f 267/7/105 304/6/114 306/7/117
f 305/6/115 307/6/118 304/6/114
f 307/6/118 305/6/115 308/6/119
f 309/7/120 305/6/115 278/7/116
f 305/6/115 309/7/120 308/6/119
f 307/6/118 306/7/117 304/6/114
f 306/7/117 307/6/118 310/7/121
f 273/6/103 311/6/114 272/6/102
f 311/6/114 273/6/103 312/6/115
f 313/7/116 273/6/103 274/7/104
f 273/6/103 313/7/116 312/6/115
f 311/6/114 275/7/105 272/6/102
f 275/7/105 311/6/114 281/7/117
f 312/6/115 314/6/118 311/6/114
f 314/6/118 312/6/115 315/6/119
f 316/7/120 312/6/115 313/7/116
f 312/6/115 316/7/120 315/6/119
f 314/6/118 281/7/117 311/6/114
f 281/7/117 314/6/118 317/7/121
f 279/8/1 309/8/1 278/8/1
f 309/8/1 279/8/1 295/8/1
f 281/8/1 286/8/1 280/8/1
f 286/8/1 281/8/1 317/8/1

g track-road-corner-large




usemtl colormap

f 3/1/1 2/1/1 1/1/1
f 2/1/1 3/1/1 4/1/1
f 7/1/1 6/1/1 5/1/1
f 6/1/1 7/1/1 8/1/1
f 11/2/4 10/2/3 9/2/2
f 10/2/3 11/2/4 12/2/5
f 13/3/7 11/2/4 6/3/6
f 11/2/4 13/3/7 12/2/5
f 9/2/2 15/3/9 14/3/8
f 15/3/9 9/2/2 10/2/3
f 17/2/11 9/2/2 16/2/10
f 9/2/2 17/2/11 11/2/4
f 6/3/6 17/2/11 5/3/12
f 17/2/11 6/3/6 11/2/4
f 16/2/10 14/3/8 18/3/13
f 14/3/8 16/2/10 9/2/2
f 21/2/11 20/2/2 19/2/10
f 20/2/2 21/2/11 22/2/4
f 24/3/6 21/2/11 23/3/12
f 21/2/11 24/3/6 22/2/4
f 19/2/10 4/3/8 3/3/13
f 4/3/8 19/2/10 20/2/2
f 22/2/4 25/2/3 20/2/2
f 25/2/3 22/2/4 26/2/5
f 27/3/7 22/2/4 24/3/6
f 22/2/4 27/3/7 26/2/5
f 20/2/2 28/3/9 4/3/8
f 28/3/9 20/2/2 25/2/3
f 6/4/1 30/4/1 29/4/1
f 30/4/1 6/4/1 13/4/1
f 33/4/1 32/4/1 31/4/1
f 32/4/1 33/4/1 34/4/1
f 35/4/1 28/4/1 4/4/1
f 28/4/1 35/4/1 36/4/1
f 5/4/1 29/4/1 37/4/1
f 29/4/1 5/4/1 6/4/1
f 39/4/1 31/4/1 38/4/1
f 31/4/1 39/4/1 33/4/1
f 40/4/1 4/4/1 3/4/1
f 4/4/1 40/4/1 35/4/1
f 29/5/1 34/5/1 33/5/1
f 34/5/1 29/5/1 30/5/1
f 31/5/1 36/5/1 35/5/1
f 36/5/1 31/5/1 32/5/1
f 37/5/1 33/5/1 39/5/1
f 33/5/1 37/5/1 29/5/1
f 38/5/1 35/5/1 40/5/1
f 35/5/1 38/5/1 31/5/1
f 43/6/16 42/6/15 41/6/14
f 42/6/15 43/6/16 44/6/17
f 2/7/19 43/6/16 1/7/18
f 43/6/16 2/7/19 44/6/17
f 42/6/15 45/7/20 41/6/14
f 45/7/20 42/6/15 46/7/21
f 44/6/17 47/6/22 42/6/15
f 47/6/22 44/6/17 48/6/23
f 49/7/24 44/6/17 2/7/19
f 44/6/17 49/7/24 48/6/23
f 47/6/22 46/7/21 42/6/15
f 46/7/21 47/6/22 50/7/25
f 53/6/16 52/6/15 51/6/14
f 52/6/15 53/6/16 54/6/17
f 56/7/19 53/6/16 55/7/18
f 53/6/16 56/7/19 54/6/17
f 52/6/15 57/7/20 51/6/14
f 57/7/20 52/6/15 58/7/21
f 54/6/17 59/6/22 52/6/15
f 59/6/22 54/6/17 60/6/23
f 61/7/24 54/6/17 56/7/19
f 54/6/17 61/7/24 60/6/23
f 59/6/22 58/7/21 52/6/15
f 58/7/21 59/6/22 62/7/25
f 4/8/1 49/8/1 2/8/1
f 49/8/1 4/8/1 28/8/1
f 8/8/1 13/8/1 6/8/1
f 13/8/1 8/8/1 63/8/1
f 28/1/1 64/1/1 49/1/1
f 64/1/1 28/1/1 65/1/1
f 63/1/1 66/1/1 13/1/1
f 66/1/1 63/1/1 67/1/1
f 70/2/28 69/2/27 68/2/26
f 69/2/27 70/2/28 71/2/29
f 72/3/31 70/2/28 66/3/30
f 70/2/28 72/3/31 71/2/29
f 68/2/26 74/3/33 73/3/32
f 74/3/33 68/2/26 69/2/27
f 12/2/5 68/2/26 10/2/3
f 68/2/26 12/2/5 70/2/28
f 66/3/30 12/2/5 13/3/7
f 12/2/5 66/3/30 70/2/28
f 10/2/3 73/3/32 15/3/9
f 73/3/32 10/2/3 68/2/26
f 26/2/5 75/2/26 25/2/3
f 75/2/26 26/2/5 76/2/28
f 77/3/30 26/2/5 27/3/7
f 26/2/5 77/3/30 76/2/28
f 25/2/3 65/3/32 28/3/9
f 65/3/32 25/2/3 75/2/26
f 76/2/28 78/2/27 75/2/26
f 78/2/27 76/2/28 79/2/29
f 80/3/31 76/2/28 77/3/30
f 76/2/28 80/3/31 79/2/29
f 75/2/26 81/3/33 65/3/32
f 81/3/33 75/2/26 78/2/27
f 66/4/1 83/4/1 82/4/1
f 83/4/1 66/4/1 72/4/1
f 86/4/1 85/4/1 84/4/1
f 85/4/1 86/4/1 87/4/1
f 88/4/1 81/4/1 65/4/1
f 81/4/1 88/4/1 89/4/1
f 13/4/1 82/4/1 30/4/1
f 82/4/1 13/4/1 66/4/1
f 34/4/1 84/4/1 32/4/1
f 84/4/1 34/4/1 86/4/1
f 36/4/1 65/4/1 28/4/1
f 65/4/1 36/4/1 88/4/1
f 82/5/1 87/5/1 86/5/1
f 87/5/1 82/5/1 83/5/1
f 84/5/1 89/5/1 88/5/1
f 89/5/1 84/5/1 85/5/1
f 30/5/1 86/5/1 34/5/1
f 86/5/1 30/5/1 82/5/1
f 32/5/1 88/5/1 36/5/1
f 88/5/1 32/5/1 84/5/1
f 48/6/23 90/6/34 47/6/22
f 90/6/34 48/6/23 91/6/35
f 92/7/36 48/6/23 49/7/24
f 48/6/23 92/7/36 91/6/35
f 90/6/34 50/7/25 47/6/22
f 50/7/25 90/6/34 93/7/37
f 91/6/35 94/6/38 90/6/34
f 94/6/38 91/6/35 95/6/39
f 96/7/40 91/6/35 92/7/36
f 91/6/35 96/7/40 95/6/39
f 94/6/38 93/7/37 90/6/34
f 93/7/37 94/6/38 97/7/41
f 60/6/23 98/6/34 59/6/22
f 98/6/34 60/6/23 99/6/35
f 100/7/36 60/6/23 61/7/24
f 60/6/23 100/7/36 99/6/35
f 98/6/34 62/7/25 59/6/22
f 62/7/25 98/6/34 101/7/37
f 99/6/35 102/6/38 98/6/34
f 102/6/38 99/6/35 103/6/39
f 104/7/40 99/6/35 100/7/36
f 99/6/35 104/7/40 103/6/39
f 102/6/38 101/7/37 98/6/34
f 101/7/37 102/6/38 105/7/41
f 65/8/1 106/8/1 64/8/1
f 106/8/1 65/8/1 81/8/1
f 67/8/1 72/8/1 66/8/1
f 72/8/1 67/8/1 107/8/1
f 81/1/1 108/1/1 106/1/1
f 108/1/1 81/1/1 109/1/1
f 107/1/1 110/1/1 72/1/1
f 110/1/1 107/1/1 111/1/1
f 114/2/44 113/2/43 112/2/42
f 113/2/43 114/2/44 115/2/45
f 116/3/47 114/2/44 110/3/46
f 114/2/44 116/3/47 115/2/45
f 112/2/42 118/3/49 117/3/48
f 118/3/49 112/2/42 113/2/43
f 71/2/29 112/2/42 69/2/27
f 112/2/42 71/2/29 114/2/44
f 110/3/46 71/2/29 72/3/31
f 71/2/29 110/3/46 114/2/44
f 69/2/27 117/3/48 74/3/33
f 117/3/48 69/2/27 112/2/42
f 79/2/29 119/2/42 78/2/27
f 119/2/42 79/2/29 120/2/44
f 121/3/46 79/2/29 80/3/31
f 79/2/29 121/3/46 120/2/44
f 78/2/27 109/3/48 81/3/33
f 109/3/48 78/2/27 119/2/42
f 120/2/44 122/2/43 119/2/42
f 122/2/43 120/2/44 123/2/45
f 124/3/47 120/2/44 121/3/46
f 120/2/44 124/3/47 123/2/45
f 119/2/42 125/3/49 109/3/48
f 125/3/49 119/2/42 122/2/43
f 110/4/1 127/4/1 126/4/1
f 127/4/1 110/4/1 116/4/1
f 130/4/1 129/4/1 128/4/1
f 129/4/1 130/4/1 131/4/1
f 132/4/1 125/4/1 109/4/1
f 125/4/1 132/4/1 133/4/1
f 72/4/1 126/4/1 83/4/1
f 126/4/1 72/4/1 110/4/1
f 87/4/1 128/4/1 85/4/1
f 128/4/1 87/4/1 130/4/1
f 89/4/1 109/4/1 81/4/1
f 109/4/1 89/4/1 132/4/1
f 126/5/1 131/5/1 130/5/1
f 131/5/1 126/5/1 127/5/1
f 128/5/1 133/5/1 132/5/1
f 133/5/1 128/5/1 129/5/1
f 83/5/1 130/5/1 87/5/1
f 130/5/1 83/5/1 126/5/1
f 85/5/1 132/5/1 89/5/1
f 132/5/1 85/5/1 128/5/1
f 95/6/39 134/6/50 94/6/38
f 134/6/50 95/6/39 135/6/51
f 136/7/52 95/6/39 96/7/40
f 95/6/39 136/7/52 135/6/51
f 134/6/50 97/7/41 94/6/38
f 97/7/41 134/6/50 137/7/53
f 135/6/51 138/6/54 134/6/50
f 138/6/54 135/6/51 139/6/55
f 140/7/56 135/6/51 136/7/52
f 135/6/51 140/7/56 139/6/55
f 138/6/54 137/7/53 134/6/50
f 137/7/53 138/6/54 141/7/57
f 103/6/39 142/6/50 102/6/38
f 142/6/50 103/6/39 143/6/51
f 144/7/52 103/6/39 104/7/40
f 103/6/39 144/7/52 143/6/51
f 142/6/50 105/7/41 102/6/38
f 105/7/41 142/6/50 145/7/53
f 143/6/51 146/6/54 142/6/50
f 146/6/54 143/6/51 147/6/55
f 148/7/56 143/6/51 144/7/52
f 143/6/51 148/7/56 147/6/55
f 146/6/54 145/7/53 142/6/50
f 145/7/53 146/6/54 149/7/57
f 109/8/1 140/8/1 108/8/1
f 140/8/1 109/8/1 125/8/1
f 111/8/1 116/8/1 110/8/1
f 116/8/1 111/8/1 149/8/1
f 125/1/1 150/1/1 140/1/1
f 150/1/1 125/1/1 151/1/1
f 149/1/1 152/1/1 116/1/1
f 152/1/1 149/1/1 153/1/1
f 156/2/60 155/2/59 154/2/58
f 155/2/59 156/2/60 157/2/61
f 158/3/63 156/2/60 152/3/62
f 156/2/60 158/3/63 157/2/61
f 154/2/58 160/3/65 159/3/64
f 160/3/65 154/2/58 155/2/59
f 115/2/45 154/2/58 113/2/43
f 154/2/58 115/2/45 156/2/60
f 152/3/62 115/2/45 116/3/47
f 115/2/45 152/3/62 156/2/60
f 113/2/43 159/3/64 118/3/49
f 159/3/64 113/2/43 154/2/58
f 123/2/45 161/2/58 122/2/43
f 161/2/58 123/2/45 162/2/60
f 163/3/62 123/2/45 124/3/47
f 123/2/45 163/3/62 162/2/60
f 122/2/43 151/3/64 125/3/49
f 151/3/64 122/2/43 161/2/58
f 162/2/60 164/2/59 161/2/58
f 164/2/59 162/2/60 165/2/61
f 166/3/63 162/2/60 163/3/62
f 162/2/60 166/3/63 165/2/61
f 161/2/58 167/3/65 151/3/64
f 167/3/65 161/2/58 164/2/59
f 152/4/1 169/4/1 168/4/1
f 169/4/1 152/4/1 158/4/1
f 172/4/1 171/4/1 170/4/1
f 171/4/1 172/4/1 173/4/1
f 174/4/1 167/4/1 151/4/1
f 167/4/1 174/4/1 175/4/1
f 116/4/1 168/4/1 127/4/1
f 168/4/1 116/4/1 152/4/1
f 131/4/1 170/4/1 129/4/1
f 170/4/1 131/4/1 172/4/1
f 133/4/1 151/4/1 125/4/1
f 151/4/1 133/4/1 174/4/1
f 168/5/1 173/5/1 172/5/1
f 173/5/1 168/5/1 169/5/1
f 170/5/1 175/5/1 174/5/1
f 175/5/1 170/5/1 171/5/1
f 127/5/1 172/5/1 131/5/1
f 172/5/1 127/5/1 168/5/1
f 129/5/1 174/5/1 133/5/1
f 174/5/1 129/5/1 170/5/1
f 139/6/55 176/6/66 138/6/54
f 176/6/66 139/6/55 177/6/67
f 150/7/68 139/6/55 140/7/56
f 139/6/55 150/7/68 177/6/67
f 176/6/66 141/7/57 138/6/54
f 141/7/57 176/6/66 178/7/69
f 177/6/67 179/6/70 176/6/66
f 179/6/70 177/6/67 180/6/71
f 181/7/72 177/6/67 150/7/68
f 177/6/67 181/7/72 180/6/71
f 179/6/70 178/7/69 176/6/66
f 178/7/69 179/6/70 182/7/73
f 147/6/55 183/6/66 146/6/54
f 183/6/66 147/6/55 184/6/67
f 185/7/68 147/6/55 148/7/56
f 147/6/55 185/7/68 184/6/67
f 183/6/66 149/7/57 146/6/54
f 149/7/57 183/6/66 186/7/69
f 184/6/67 187/6/70 183/6/66
f 187/6/70 184/6/67 188/6/71
f 189/7/72 184/6/67 185/7/68
f 184/6/67 189/7/72 188/6/71
f 187/6/70 186/7/69 183/6/66
f 186/7/69 187/6/70 190/7/73
f 151/8/1 181/8/1 150/8/1
f 181/8/1 151/8/1 167/8/1
f 153/8/1 158/8/1 152/8/1
f 158/8/1 153/8/1 191/8/1
f 167/1/1 192/1/1 181/1/1
f 192/1/1 167/1/1 193/1/1
f 191/1/1 194/1/1 158/1/1
f 194/1/1 191/1/1 195/1/1
f 198/2/76 197/2/75 196/2/74
f 197/2/75 198/2/76 199/2/77
f 200/3/79 198/2/76 194/3/78
f 198/2/76 200/3/79 199/2/77
f 196/2/74 202/3/81 201/3/80
f 202/3/81 196/2/74 197/2/75
f 157/2/61 196/2/74 155/2/59
f 196/2/74 157/2/61 198/2/76
f 194/3/78 157/2/61 158/3/63
f 157/2/61 194/3/78 198/2/76
f 155/2/59 201/3/80 160/3/65
f 201/3/80 155/2/59 196/2/74
f 165/2/61 203/2/74 164/2/59
f 203/2/74 165/2/61 204/2/76
f 205/3/78 165/2/61 166/3/63
f 165/2/61 205/3/78 204/2/76
f 164/2/59 193/3/80 167/3/65
f 193/3/80 164/2/59 203/2/74
f 204/2/76 206/2/75 203/2/74
f 206/2/75 204/2/76 207/2/77
f 208/3/79 204/2/76 205/3/78
f 204/2/76 208/3/79 207/2/77
f 203/2/74 209/3/81 193/3/80
f 209/3/81 203/2/74 206/2/75
f 194/4/1 211/4/1 210/4/1
f 211/4/1 194/4/1 200/4/1
f 214/4/1 213/4/1 212/4/1
f 213/4/1 214/4/1 215/4/1
f 216/4/1 209/4/1 193/4/1
f 209/4/1 216/4/1 217/4/1
f 158/4/1 210/4/1 169/4/1
f 210/4/1 158/4/1 194/4/1
f 173/4/1 212/4/1 171/4/1
f 212/4/1 173/4/1 214/4/1
f 175/4/1 193/4/1 167/4/1
f 193/4/1 175/4/1 216/4/1
f 210/5/1 215/5/1 214/5/1
f 215/5/1 210/5/1 211/5/1
f 212/5/1 217/5/1 216/5/1
f 217/5/1 212/5/1 213/5/1
f 169/5/1 214/5/1 173/5/1
f 214/5/1 169/5/1 210/5/1
f 171/5/1 216/5/1 175/5/1
f 216/5/1 171/5/1 212/5/1
f 180/6/71 218/6/82 179/6/70
f 218/6/82 180/6/71 219/6/83
f 192/7/84 180/6/71 181/7/72
f 180/6/71 192/7/84 219/6/83
f 218/6/82 182/7/73 179/6/70
f 182/7/73 218/6/82 220/7/85
f 219/6/83 221/6/86 218/6/82
f 221/6/86 219/6/83 222/6/87
f 223/7/88 219/6/83 192/7/84
f 219/6/83 223/7/88 222/6/87
f 221/6/86 220/7/85 218/6/82
f 220/7/85 221/6/86 224/7/89
f 188/6/71 225/6/82 187/6/70
f 225/6/82 188/6/71 226/6/83
f 227/7/84 188/6/71 189/7/72
f 188/6/71 227/7/84 226/6/83
f 225/6/82 190/7/73 187/6/70
f 190/7/73 225/6/82 228/7/85
f 226/6/83 229/6/86 225/6/82
f 229/6/86 226/6/83 230/6/87
f 231/7/88 226/6/83 227/7/84
f 226/6/83 231/7/88 230/6/87
f 229/6/86 228/7/85 225/6/82
f 228/7/85 229/6/86 232/7/89
f 193/8/1 223/8/1 192/8/1
f 223/8/1 193/8/1 209/8/1
f 195/8/1 200/8/1 194/8/1
f 200/8/1 195/8/1 233/8/1
f 209/1/1 234/1/1 223/1/1
f 234/1/1 209/1/1 235/1/1
f 233/1/1 236/1/1 200/1/1
f 236/1/1 233/1/1 237/1/1
f 240/2/92 239/2/91 238/2/90
f 239/2/91 240/2/92 241/2/93
f 242/3/95 240/2/92 236/3/94
f 240/2/92 242/3/95 241/2/93
f 238/2/90 244/3/97 243/3/96
f 244/3/97 238/2/90 239/2/91
f 199/2/77 238/2/90 197/2/75
f 238/2/90 199/2/77 240/2/92
f 236/3/94 199/2/77 200/3/79
f 199/2/77 236/3/94 240/2/92
f 197/2/75 243/3/96 202/3/81
f 243/3/96 197/2/75 238/2/90
f 207/2/77 245/2/90 206/2/75
f 245/2/90 207/2/77 246/2/92
f 247/3/94 207/2/77 208/3/79
f 207/2/77 247/3/94 246/2/92
f 206/2/75 235/3/96 209/3/81
f 235/3/96 206/2/75 245/2/90
f 246/2/92 248/2/91 245/2/90
f 248/2/91 246/2/92 249/2/93
f 250/3/95 246/2/92 247/3/94
f 246/2/92 250/3/95 249/2/93
f 245/2/90 251/3/97 235/3/96
f 251/3/97 245/2/90 248/2/91
f 236/4/1 253/4/1 252/4/1
f 253/4/1 236/4/1 242/4/1
f 256/4/1 255/4/1 254/4/1
f 255/4/1 256/4/1 257/4/1
f 258/4/1 251/4/1 235/4/1
f 251/4/1 258/4/1 259/4/1
f 200/4/1 252/4/1 211/4/1
f 252/4/1 200/4/1 236/4/1
f 215/4/1 254/4/1 213/4/1
f 254/4/1 215/4/1 256/4/1
f 217/4/1 235/4/1 209/4/1
f 235/4/1 217/4/1 258/4/1
f 252/5/1 257/5/1 256/5/1
f 257/5/1 252/5/1 253/5/1
f 254/5/1 259/5/1 258/5/1
f 259/5/1 254/5/1 255/5/1
f 211/5/1 256/5/1 215/5/1
f 256/5/1 211/5/1 252/5/1
f 213/5/1 258/5/1 217/5/1
f 258/5/1 213/5/1 254/5/1
f 222/6/87 260/6/98 221/6/86
f 260/6/98 222/6/87 261/6/99
f 262/7/100 222/6/87 223/7/88
f 222/6/87 262/7/100 261/6/99
f 260/6/98 224/7/89 221/6/86
f 224/7/89 260/6/98 263/7/101
f 261/6/99 264/6/102 260/6/98
f 264/6/102 261/6/99 265/6/103
f 266/7/104 261/6/99 262/7/100
f 261/6/99 266/7/104 265/6/103
f 264/6/102 263/7/101 260/6/98
f 263/7/101 264/6/102 267/7/105
f 230/6/87 268/6/98 229/6/86
f 268/6/98 230/6/87 269/6/99
f 270/7/100 230/6/87 231/7/88
f 230/6/87 270/7/100 269/6/99
f 268/6/98 232/7/89 229/6/86
f 232/7/89 268/6/98 271/7/101
f 269/6/99 272/6/102 268/6/98
f 272/6/102 269/6/99 273/6/103
f 274/7/104 269/6/99 270/7/100
f 269/6/99 274/7/104 273/6/103
f 272/6/102 271/7/101 268/6/98
f 271/7/101 272/6/102 275/7/105
f 235/8/1 276/8/1 234/8/1
f 276/8/1 235/8/1 251/8/1
f 237/8/1 242/8/1 236/8/1
f 242/8/1 237/8/1 277/8/1
f 251/1/1 278/1/1 276/1/1
f 278/1/1 251/1/1 279/1/1
f 277/1/1 280/1/1 242/1/1
f 280/1/1 277/1/1 281/1/1
f 284/2/108 283/2/107 282/2/106
f 283/2/107 284/2/108 285/2/109
f 286/3/111 284/2/108 280/3/110
f 284/2/108 286/3/111 285/2/109
f 282/2/106 288/3/113 287/3/112
f 288/3/113 282/2/106 283/2/107
f 241/2/93 282/2/106 239/2/91
f 282/2/106 241/2/93 284/2/108
f 280/3/110 241/2/93 242/3/95
f 241/2/93 280/3/110 284/2/108
f 239/2/91 287/3/112 244/3/97
f 287/3/112 239/2/91 282/2/106
f 249/2/93 289/2/106 248/2/91
f 289/2/106 249/2/93 290/2/108
f 291/3/110 249/2/93 250/3/95
f 249/2/93 291/3/110 290/2/108
f 248/2/91 279/3/112 251/3/97
f 279/3/112 248/2/91 289/2/106
f 290/2/108 292/2/107 289/2/106
f 292/2/107 290/2/108 293/2/109
f 294/3/111 290/2/108 291/3/110
f 290/2/108 294/3/111 293/2/109
f 289/2/106 295/3/113 279/3/112
f 295/3/113 289/2/106 292/2/107
f 280/4/1 297/4/1 296/4/1
f 297/4/1 280/4/1 286/4/1
f 300/4/1 299/4/1 298/4/1
f 299/4/1 300/4/1 301/4/1
f 302/4/1 295/4/1 279/4/1
f 295/4/1 302/4/1 303/4/1
f 242/4/1 296/4/1 253/4/1
f 296/4/1 242/4/1 280/4/1
f 257/4/1 298/4/1 255/4/1
f 298/4/1 257/4/1 300/4/1
f 259/4/1 279/4/1 251/4/1
f 279/4/1 259/4/1 302/4/1
f 296/5/1 301/5/1 300/5/1
f 301/5/1 296/5/1 297/5/1
f 298/5/1 303/5/1 302/5/1
f 303/5/1 298/5/1 299/5/1
f 253/5/1 300/5/1 257/5/1
f 300/5/1 253/5/1 296/5/1
f 255/5/1 302/5/1 259/5/1
f 302/5/1 255/5/1 298/5/1
f 265/6/103 304/6/114 264/6/102
f 304/6/114 265/6/103 305/6/115
f 278/7/116 265/6/103 266/7/104
f 265/6/103 278/7/116 305/6/115
f 304/6/114 267/7/105 264/6/102
f 267/7/105 304/6/114 306/7/117
f 305/6/115 307/6/118 304/6/114
f 307/6/118 305/6/115 308/6/119
f 309/7/120 305/6/115 278/7/116
f 305/6/115 309/7/120 308/6/119
f 307/6/118 306/7/117 304/6/114
f 306/7/117 307/6/118 310/7/121
f 273/6/103 311/6/114 272/6/102
f 311/6/114 273/6/103 312/6/115
f 313/7/116 273/6/103 274/7/104
f 273/6/103 313/7/116 312/6/115
f 311/6/114 275/7/105 272/6/102
f 275/7/105 311/6/114 281/7/117
f 312/6/115 314/6/118 311/6/114
f 314/6/118 312/6/115 315/6/119
f 316/7/120 312/6/115 313/7/116
f 312/6/115 316/7/120 315/6/119
f 314/6/118 281/7/117 311/6/114
f 281/7/117 314/6/118 317/7/121
f 279/8/1 309/8/1 278/8/1
f 309/8/1 279/8/1 295/8/1
f 281/8/1 286/8/1 280/8/1
f 286/8/1 281/8/1 317/8/1

