# Created by Kenney (www.kenney.nl)

mtllib track-road-corner-larger.mtl

g track-road-corner-larger

v 1.8 0 1.621246E-05 1 1 1
v 1.775904 0 0.6158957 1 1 1
v 1.6 0 1.573563E-05 1 1 1
v 1.576509 0 0.6003571 1 1 1
v -1.6 0 9.059906E-06 1 1 1
v -1.613818 0 0.3517346 1 1 1
v -1.8 0 8.583069E-06 1 1 1
v -1.813214 0 0.3361957 1 1 1
v -1.454302 0.03999996 0.3641658 1 1 1
v -1.496803 0.03999996 0.7311683 1 1 1
v -1.573939 0.03999996 0.3548424 1 1 1
v -1.615419 0.03999996 0.7129941 1 1 1
v -1.654958 0 0.7069359 1 1 1
v -1.414423 0 0.3672736 1 1 1
v -1.457265 0 0.737227 1 1 1
v -1.44 0.03999996 9.298325E-06 1 1 1
v -1.56 0.03999996 9.059906E-06 1 1 1
v -1.4 0 9.536743E-06 1 1 1
v 1.56 0.03999996 1.549721E-05 1 1 1
v 1.53663 0.03999996 0.597249 1 1 1
v 1.44 0.03999996 1.525879E-05 1 1 1
v 1.416992 0.03999996 0.5879259 1 1 1
v 1.4 0 1.525879E-05 1 1 1
v 1.377113 0 0.5848181 1 1 1
v 1.46859 0.03999996 1.18553 1 1 1
v 1.349974 0.03999996 1.167356 1 1 1
v 1.310436 0 1.161297 1 1 1
v 1.508128 0 1.191588 1 1 1
v -1.314725 0 0.3750429 1 1 1
v -1.358418 0 0.7523723 1 1 1
v 1.177718 0 0.5692792 1 1 1
v 1.112743 0 1.131007 1 1 1
v -1.215027 0 0.3828125 1 1 1
v -1.259572 0 0.7675176 1 1 1
v 1.277416 0 0.5770485 1 1 1
v 1.211589 0 1.146152 1 1 1
v -1.3 0 9.775162E-06 1 1 1
v 1.2 0 1.478195E-05 1 1 1
v -1.2 0 1.001358E-05 1 1 1
v 1.3 0 1.502037E-05 1 1 1
v 1.96 0.3 1.645088E-05 1 1 1
v 1.93542 0.3 0.6283269 1 1 1
v 1.84 0.3 1.621246E-05 1 1 1
v 1.815783 0.3 0.6190038 1 1 1
v 1.775904 0 0.6158957 1 1 1
v 2 0 1.645088E-05 1 1 1
v 1.9753 0 0.6314349 1 1 1
v 1.863975 0.3 1.246112 1 1 1
v 1.74536 0.3 1.227937 1 1 1
v 1.705821 0 1.221879 1 1 1
v 1.903514 0 1.25217 1 1 1
v -1.84 0.3 8.583069E-06 1 1 1
v -1.853093 0.3 0.3330879 1 1 1
v -1.96 0.3 8.34465E-06 1 1 1
v -1.97273 0.3 0.3237648 1 1 1
v -2 0 8.34465E-06 1 1 1
v -2.012609 0 0.3206568 1 1 1
v -1.8 0 8.583069E-06 1 1 1
v -1.813213 0 0.3361957 1 1 1
v -1.892189 0.3 0.6705871 1 1 1
v -2.010804 0.3 0.6524124 1 1 1
v -2.050343 0 0.6463542 1 1 1
v -1.85265 0 0.6766453 1 1 1
v 1.705821 0 1.221879 1 1 1
v -1.85265 0 0.6766453 1 1 1
v 1.593261 0 1.814826 1 1 1
v 1.3982 0 1.770657 1 1 1
v -1.722787 0 1.063946 1 1 1
v -1.917849 0 1.019777 1 1 1
v -1.566738 0.03999996 1.099282 1 1 1
v -1.663144 0.03999996 1.466714 1 1 1
v -1.683775 0.03999996 1.07278 1 1 1
v -1.778141 0.03999996 1.432426 1 1 1
v -1.816473 0 1.420996 1 1 1
v -1.527726 0 1.108116 1 1 1
v -1.624811 0 1.478144 1 1 1
v 1.359187 0.03999996 1.761823 1 1 1
v 1.24215 0.03999996 1.735321 1 1 1
v 1.203138 0 1.726487 1 1 1
v 1.21178 0.03999996 2.323926 1 1 1
v 1.096783 0.03999996 2.289637 1 1 1
v 1.058451 0 2.278208 1 1 1
v 1.250113 0 2.335355 1 1 1
v -1.430195 0 1.1302 1 1 1
v -1.52898 0 1.506717 1 1 1
v 1.008076 0 1.682318 1 1 1
v 0.8667896 0 2.22106 1 1 1
v -1.332664 0 1.152285 1 1 1
v -1.43315 0 1.535291 1 1 1
v 1.105607 0 1.704402 1 1 1
v 0.9626203 0 2.249634 1 1 1
v 1.74931 0.3 1.850161 1 1 1
v 1.632274 0.3 1.82366 1 1 1
v 1.593261 0 1.814826 1 1 1
v 1.788323 0 1.858995 1 1 1
v 1.595104 0.3 2.438221 1 1 1
v 1.480107 0.3 2.403932 1 1 1
v 1.441774 0 2.392503 1 1 1
v 1.633436 0 2.44965 1 1 1
v -1.956861 0.3 1.010943 1 1 1
v -2.073898 0.3 0.9844413 1 1 1
v -2.112911 0 0.9756074 1 1 1
v -1.917849 0 1.019777 1 1 1
v -2.046467 0.3 1.352419 1 1 1
v -2.161464 0.3 1.318131 1 1 1
v -2.199796 0 1.306702 1 1 1
v -2.008134 0 1.363849 1 1 1
v 1.254736 0 2.953401 1 1 1
v 1.067105 0 2.88416 1 1 1
v -1.935002 0 1.776297 1 1 1
v -2.122633 0 1.707056 1 1 1
v -1.784896 0.03999996 1.83169 1 1 1
v -1.93076 0.03999996 2.192509 1 1 1
v -1.897475 0.03999996 1.790145 1 1 1
v -2.040611 0.03999996 2.144211 1 1 1
v -2.077228 0 2.128112 1 1 1
v -1.74737 0 1.845539 1 1 1
v -1.894143 0 2.208609 1 1 1
v 1.029578 0.03999996 2.870311 1 1 1
v 0.9169993 0.03999996 2.828766 1 1 1
v 0.879473 0 2.814918 1 1 1
v 0.8155212 0.03999996 3.399961 1 1 1
v 0.7056701 0.03999996 3.351663 1 1 1
v 0.6690531 0 3.335564 1 1 1
v 0.8521385 0 3.41606 1 1 1
v -1.653554 0 1.880159 1 1 1
v -1.8026 0 2.248857 1 1 1
v 0.6918414 0 2.745677 1 1 1
v 0.4859676 0 3.255067 1 1 1
v -1.559738 0 1.91478 1 1 1
v -1.711057 0 2.289105 1 1 1
v 0.7856572 0 2.780297 1 1 1
v 0.5775104 0 3.295315 1 1 1
v 1.404841 0.3 3.008793 1 1 1
v 1.292263 0.3 2.967249 1 1 1
v 1.442368 0 3.022642 1 1 1
v 1.181692 0.3 3.560955 1 1 1
v 1.071841 0.3 3.512657 1 1 1
v 1.035224 0 3.496557 1 1 1
v 1.218309 0 3.577054 1 1 1
v -2.16016 0.3 1.693208 1 1 1
v -2.272738 0.3 1.651663 1 1 1
v -2.310265 0 1.637815 1 1 1
v -2.122633 0 1.707056 1 1 1
v -2.296931 0.3 2.031516 1 1 1
v -2.406782 0.3 1.983218 1 1 1
v -2.443399 0 1.967118 1 1 1
v -2.260313 0 2.047615 1 1 1
v -2.260314 0 2.047615 1 1 1
v 0.7859533 0 4.021396 1 1 1
v 0.6078429 0 3.930419 1 1 1
v -2.241922 0 2.474796 1 1 1
v -2.420033 0 2.38382 1 1 1
v -2.099434 0.03999996 2.547577 1 1 1
v -2.289559 0.03999996 2.895354 1 1 1
v -2.2063 0.03999996 2.492991 1 1 1
v -2.393222 0.03999996 2.834905 1 1 1
v -2.427776 0 2.814755 1 1 1
v -2.063812 0 2.565773 1 1 1
v -2.255005 0 2.915504 1 1 1
v 0.5722208 0.03999996 3.912224 1 1 1
v 0.4653547 0.03999996 3.857638 1 1 1
v 0.4297326 0 3.839443 1 1 1
v 0.3019989 0.03999996 4.406588 1 1 1
v 0.1983366 0.03999996 4.346138 1 1 1
v 0.1637824 0 4.325988 1 1 1
v 0.3365529 0 4.426737 1 1 1
v -1.974757 0 2.611261 1 1 1
v -2.16862 0 2.965878 1 1 1
v 0.2516222 0 3.748466 1 1 1
v -0.008988142 0 4.22524 1 1 1
v -1.885702 0 2.656749 1 1 1
v -2.082235 0 3.016253 1 1 1
v 0.3406773 0 3.793954 1 1 1
v 0.07739711 0 4.275614 1 1 1
v 0.9284413 0.3 4.094176 1 1 1
v 0.8215752 0.3 4.039591 1 1 1
v 0.785953 0 4.021395 1 1 1
v 0.9640634 0 4.112372 1 1 1
v 0.6475399 0.3 4.608085 1 1 1
v 0.5438776 0.3 4.547636 1 1 1
v 0.5093234 0 4.527486 1 1 1
v 0.6820939 0 4.628234 1 1 1
v -2.455655 0.3 2.365624 1 1 1
v -2.562521 0.3 2.311038 1 1 1
v -2.598143 0 2.292843 1 1 1
v -2.6351 0.3 2.693857 1 1 1
v -2.738762 0.3 2.633407 1 1 1
v -2.773317 0 2.613257 1 1 1
v -2.600546 0 2.714006 1 1 1
v 0.5093234 0 4.527486 1 1 1
v -2.600546 0 2.714006 1 1 1
v 0.2073159 0 5.014669 1 1 1
v 0.04020882 0 4.904783 1 1 1
v -2.633508 0 3.14659 1 1 1
v -2.800615 0 3.036703 1 1 1
v -2.499822 0.03999996 3.234499 1 1 1
v -2.729019 0.03999996 3.563873 1 1 1
v -2.600086 0.03999996 3.168567 1 1 1
v -2.825703 0.03999996 3.492795 1 1 1
v -2.857931 0 3.469102 1 1 1
v -2.4664 0 3.256477 1 1 1
v -2.69679 0 3.587565 1 1 1
v 0.0067873 0.03999996 4.882804 1 1 1
v -0.09347701 0.03999996 4.816873 1 1 1
v -0.1268985 0 4.794895 1 1 1
v -0.3119025 0.03999996 5.340822 1 1 1
v -0.408587 0.03999996 5.269744 1 1 1
v -0.4408153 0 5.246051 1 1 1
v -0.2796743 0 5.364515 1 1 1
v -2.382847 0 3.311421 1 1 1
v -2.61622 0 3.646797 1 1 1
v -0.2940056 0 4.685009 1 1 1
v -0.6019564 0 5.127588 1 1 1
v -2.299293 0 3.366364 1 1 1
v -2.535649 0 3.706028 1 1 1
v -0.2104523 0 4.739952 1 1 1
v -0.5213859 0 5.186821 1 1 1
v 0.3410017 0.3 5.102579 1 1 1
v 0.2407374 0.3 5.036647 1 1 1
v 0.3744233 0 5.124557 1 1 1
v 0.01037955 0.3 5.577749 1 1 1
v -0.0863049 0.3 5.506671 1 1 1
v -0.1185334 0 5.482978 1 1 1
v 0.04260778 0 5.601442 1 1 1
v -2.834036 0.3 3.014726 1 1 1
v -2.934301 0.3 2.948793 1 1 1
v -2.967722 0 2.926816 1 1 1
v -3.051301 0.3 3.326946 1 1 1
v -3.147985 0.3 3.255868 1 1 1
v -3.180213 0 3.232175 1 1 1
v -3.019073 0 3.350639 1 1 1
v -0.4669023 0 5.932262 1 1 1
v -0.6217805 0 5.805721 1 1 1
v -3.099833 0 3.781058 1 1 1
v -3.254712 0 3.654517 1 1 1
v -2.975931 0.03999996 3.882291 1 1 1
v -3.239382 0.03999996 4.188624 1 1 1
v -3.068858 0.03999996 3.806367 1 1 1
v -3.328369 0.03999996 4.108118 1 1 1
v -3.358031 0 4.081282 1 1 1
v -2.944955 0 3.9076 1 1 1
v -3.20972 0 4.21546 1 1 1
v -0.6527562 0.03999996 5.780412 1 1 1
v -0.7456832 0.03999996 5.704487 1 1 1
v -0.7766589 0 5.679179 1 1 1
v -1.01471 0.03999996 6.201293 1 1 1
v -1.103696 0.03999996 6.120786 1 1 1
v -1.133359 0 6.09395 1 1 1
v -0.9850472 0 6.228128 1 1 1
v -2.867516 0 3.97087 1 1 1
v -3.135564 0 4.282549 1 1 1
v -0.9315372 0 5.552638 1 1 1
v -1.28167 0 5.959772 1 1 1
v -2.790077 0 4.034141 1 1 1
v -3.061409 0 4.349638 1 1 1
v -0.8540981 0 5.615908 1 1 1
v -1.207515 0 6.026861 1 1 1
v -0.3429998 0.3 6.033494 1 1 1
v -0.4359267 0.3 5.95757 1 1 1
v -0.4669024 0 5.932262 1 1 1
v -0.3120239 0 6.058803 1 1 1
v -0.7180867 0.3 6.469648 1 1 1
v -0.8070736 0.3 6.389141 1 1 1
v -0.836736 0 6.362306 1 1 1
v -0.6884243 0 6.496484 1 1 1
v -3.285687 0.3 3.629209 1 1 1
v -3.378614 0.3 3.553284 1 1 1
v -3.40959 0 3.527976 1 1 1
v -3.536005 0.3 3.920269 1 1 1
v -3.624992 0.3 3.839762 1 1 1
v -3.654654 0 3.812927 1 1 1
v -3.506343 0 3.947104 1 1 1
v -0.8367358 0 6.362306 1 1 1
v -3.506343 0 3.947104 1 1 1
v -1.227208 0 6.772792 1 1 1
v -1.368629 0 6.63137 1 1 1
v -3.631371 0 4.368629 1 1 1
v -3.772792 0 4.227207 1 1 1
v -3.518234 0.03999996 4.481766 1 1 1
v -3.811375 0.03999996 4.760618 1 1 1
v -3.603086 0.03999996 4.396913 1 1 1
v -3.891882 0.03999996 4.67163 1 1 1
v -3.918717 0 4.641968 1 1 1
v -3.489949 0 4.51005 1 1 1
v -3.784539 0 4.79028 1 1 1
v -1.396914 0.03999996 6.603086 1 1 1
v -1.481766 0.03999996 6.518234 1 1 1
v -1.510051 0 6.48995 1 1 1
v -1.798707 0.03999996 6.98529 1 1 1
v -1.879214 0.03999996 6.896303 1 1 1
v -1.906049 0 6.866641 1 1 1
v -1.771872 0 7.014952 1 1 1
v -3.419239 0 4.580761 1 1 1
v -3.717451 0 4.864436 1 1 1
v -1.651472 0 6.348527 1 1 1
v -2.040227 0 6.71833 1 1 1
v -3.348528 0 4.651472 1 1 1
v -3.650362 0 4.938591 1 1 1
v -1.580761 0 6.419239 1 1 1
v -1.973138 0 6.792485 1 1 1
v -1.114071 0.3 6.885929 1 1 1
v -1.198924 0.3 6.801076 1 1 1
v -1.085787 0 6.914213 1 1 1
v -1.530352 0.3 7.281913 1 1 1
v -1.610858 0.3 7.192926 1 1 1
v -1.637694 0 7.163263 1 1 1
v -1.503516 0 7.311574 1 1 1
v -3.801076 0.3 4.198923 1 1 1
v -3.885929 0.3 4.11407 1 1 1
v -3.914213 0 4.085786 1 1 1
v -4.079731 0.3 4.463995 1 1 1
v -4.160237 0.3 4.375008 1 1 1
v -4.187073 0 4.345345 1 1 1
v -4.052895 0 4.493657 1 1 1
v -1.637694 0 7.163264 1 1 1
v -4.052895 0 4.493657 1 1 1
v -2.067738 0 7.533096 1 1 1
v -2.194279 0 7.378218 1 1 1
v -4.21894 0 4.900165 1 1 1
v -4.345482 0 4.745286 1 1 1
v -4.117707 0.03999996 5.024068 1 1 1
v -4.436126 0.03999996 5.27098 1 1 1
v -4.193632 0.03999996 4.93114 1 1 1
v -4.507204 0.03999996 5.174295 1 1 1
v -4.530897 0 5.142067 1 1 1
v -4.092399 0 5.055044 1 1 1
v -4.412433 0 5.303209 1 1 1
v -2.219587 0.03999996 7.347242 1 1 1
v -2.295512 0.03999996 7.254316 1 1 1
v -2.32082 0 7.223341 1 1 1
v -2.659177 0.03999996 7.688097 1 1 1
v -2.730255 0.03999996 7.591413 1 1 1
v -2.753947 0 7.559185 1 1 1
v -2.635484 0 7.720325 1 1 1
v -4.029128 0 5.132482 1 1 1
v -4.353202 0 5.383779 1 1 1
v -2.447362 0 7.068462 1 1 1
v -2.872411 0 7.398042 1 1 1
v -3.965858 0 5.209922 1 1 1
v -4.29397 0 5.464349 1 1 1
v -2.384091 0 7.1459 1 1 1
v -2.813179 0 7.478613 1 1 1
v -1.966505 0.3 7.656999 1 1 1
v -2.042429 0.3 7.564072 1 1 1
v -1.941196 0 7.687974 1 1 1
v -2.422251 0.3 8.01038 1 1 1
v -2.493329 0.3 7.913694 1 1 1
v -2.517021 0 7.881465 1 1 1
v -2.398558 0 8.042608 1 1 1
v -4.37079 0.3 4.714311 1 1 1
v -4.446714 0.3 4.621384 1 1 1
v -4.472023 0 4.590408 1 1 1
v -4.673052 0.3 4.948698 1 1 1
v -4.74413 0.3 4.852014 1 1 1
v -4.767823 0 4.819786 1 1 1
v -4.64936 0 4.980926 1 1 1
v -2.985331 0 8.207317 1 1 1
v -3.095218 0 8.040209 1 1 1
v -4.85341 0 5.366493 1 1 1
v -4.963297 0 5.199385 1 1 1
v -4.7655 0.03999996 5.500178 1 1 1
v -5.104645 0.03999996 5.710439 1 1 1
v -4.831432 0.03999996 5.399913 1 1 1
v -5.165094 0.03999996 5.606778 1 1 1
v -5.185244 0 5.572223 1 1 1
v -4.743523 0 5.533599 1 1 1
v -5.084495 0 5.744995 1 1 1
v -3.117195 0.03999996 8.006788 1 1 1
v -3.183127 0.03999996 7.906523 1 1 1
v -3.205105 0 7.873102 1 1 1
v -3.593411 0.03999996 8.301998 1 1 1
v -3.65386 0.03999996 8.198336 1 1 1
v -3.67401 0 8.163782 1 1 1
v -3.573261 0 8.336552 1 1 1
v -4.68858 0 5.617153 1 1 1
v -5.034121 0 5.831379 1 1 1
v -3.314992 0 7.705995 1 1 1
v -3.774759 0 7.99101 1 1 1
v -4.633636 0 5.700706 1 1 1
v -4.983746 0 5.917764 1 1 1
v -3.260048 0 7.789548 1 1 1
v -3.724385 0 8.077396 1 1 1
v -2.897421 0.3 8.341002 1 1 1
v -2.963353 0.3 8.240738 1 1 1
v -2.985331 0 8.207315 1 1 1
v -2.875444 0 8.374424 1 1 1
v -3.391913 0.3 8.647539 1 1 1
v -3.452363 0.3 8.543877 1 1 1
v -3.472512 0 8.509323 1 1 1
v -3.371763 0 8.682093 1 1 1
v -4.985274 0.3 5.165964 1 1 1
v -5.051207 0.3 5.0657 1 1 1
v -5.073184 0 5.032278 1 1 1
v -5.306142 0.3 5.364898 1 1 1
v -5.366591 0.3 5.261237 1 1 1
v -5.386742 0 5.226682 1 1 1
v -5.285993 0 5.399454 1 1 1
v -3.978606 0 8.785954 1 1 1
v -4.069582 0 8.607843 1 1 1
v -5.525204 0 5.758077 1 1 1
v -5.61618 0 5.579967 1 1 1
v -5.452423 0.03999996 5.900566 1 1 1
v -5.807491 0.03999996 6.06924 1 1 1
v -5.507009 0.03999996 5.7937 1 1 1
v -5.855789 0.03999996 5.959389 1 1 1
v -5.871889 0 5.922772 1 1 1
v -5.434228 0 5.936188 1 1 1
v -5.791391 0 6.105857 1 1 1
v -4.087778 0.03999996 8.572222 1 1 1
v -4.142364 0.03999996 8.465355 1 1 1
v -4.160559 0 8.429733 1 1 1
v -4.600039 0.03999996 8.815521 1 1 1
v -4.648336 0.03999996 8.705669 1 1 1
v -4.664436 0 8.669054 1 1 1
v -4.583939 0 8.852139 1 1 1
v -5.38874 0 6.025243 1 1 1
v -5.751143 0 6.197401 1 1 1
v -4.251535 0 8.251623 1 1 1
v -4.744933 0 8.485968 1 1 1
v -5.343252 0 6.114298 1 1 1
v -5.710895 0 6.288943 1 1 1
v -4.206047 0 8.340677 1 1 1
v -4.704684 0 8.577511 1 1 1
v -3.905825 0.3 8.928442 1 1 1
v -3.960411 0.3 8.821575 1 1 1
v -3.88763 0 8.964064 1 1 1
v -4.439045 0.3 9.181692 1 1 1
v -4.487343 0.3 9.07184 1 1 1
v -4.503442 0 9.035223 1 1 1
v -4.422945 0 9.218309 1 1 1
v -5.634376 0.3 5.544345 1 1 1
v -5.688962 0.3 5.437479 1 1 1
v -5.707157 0 5.401857 1 1 1
v -5.968485 0.3 5.703069 1 1 1
v -6.016783 0.3 5.593218 1 1 1
v -6.032882 0 5.556602 1 1 1
v -5.952385 0 5.739686 1 1 1
v -5.0466 0 9.254736 1 1 1
v -5.115841 0 9.067104 1 1 1
v -6.223703 0 6.064998 1 1 1
v -6.292944 0 5.877367 1 1 1
v -6.16831 0.03999996 6.215104 1 1 1
v -6.533285 0.03999996 6.336856 1 1 1
v -6.209855 0.03999996 6.102525 1 1 1
v -6.567574 0.03999996 6.221859 1 1 1
v -6.579003 0 6.183527 1 1 1
v -6.154462 0 6.25263 1 1 1
v -6.521856 0 6.375188 1 1 1
v -5.129689 0.03999996 9.029579 1 1 1
v -5.171234 0.03999996 8.917 1 1 1
v -5.185082 0 8.879473 1 1 1
v -5.676074 0.03999996 9.211781 1 1 1
v -5.710362 0.03999996 9.096783 1 1 1
v -5.721791 0 9.058451 1 1 1
v -5.664644 0 9.250113 1 1 1
v -6.119841 0 6.346447 1 1 1
v -6.493282 0 6.471019 1 1 1
v -5.254324 0 8.691841 1 1 1
v -5.778939 0 8.866789 1 1 1
v -6.08522 0 6.440261 1 1 1
v -6.464708 0 6.56685 1 1 1
v -5.219703 0 8.785658 1 1 1
v -5.750365 0 8.96262 1 1 1
v -4.991207 0.3 9.404842 1 1 1
v -5.032752 0.3 9.292263 1 1 1
v -4.977358 0 9.442368 1 1 1
v -5.561779 0.3 9.595102 1 1 1
v -5.596067 0.3 9.480106 1 1 1
v -5.607496 0 9.441774 1 1 1
v -5.550349 0 9.633436 1 1 1
v -6.306793 0.3 5.83984 1 1 1
v -6.348337 0.3 5.727262 1 1 1
v -6.362185 0 5.689735 1 1 1
v -6.64758 0.3 5.953533 1 1 1
v -6.681869 0.3 5.838536 1 1 1
v -6.693298 0 5.800203 1 1 1
v -6.636151 0 5.991865 1 1 1
v -6.185173 0 9.593262 1 1 1
v -6.229342 0 9.398199 1 1 1
v -6.936053 0 6.277212 1 1 1
v -6.980223 0 6.082151 1 1 1
v -6.900718 0.03999996 6.433261 1 1 1
v -7.268831 0.03999996 6.503196 1 1 1
v -6.927219 0.03999996 6.316225 1 1 1
v -7.287005 0.03999996 6.384581 1 1 1
v -7.293064 0 6.345043 1 1 1
v -6.891884 0 6.472274 1 1 1
v -7.262773 0 6.542736 1 1 1
v -6.238176 0.03999996 9.359186 1 1 1
v -6.264678 0.03999996 9.242149 1 1 1
v -6.273511 0 9.203138 1 1 1
v -6.814468 0.03999996 9.46859 1 1 1
v -6.832644 0.03999996 9.349974 1 1 1
v -6.838701 0 9.310436 1 1 1
v -6.808411 0 9.508129 1 1 1
v -6.8698 0 6.569805 1 1 1
v -7.247627 0 6.641582 1 1 1
v -6.317681 0 9.008076 1 1 1
v -6.868992 0 9.112743 1 1 1
v -6.847714 0 6.667335 1 1 1
v -7.232482 0 6.740428 1 1 1
v -6.295596 0 9.105606 1 1 1
v -6.853847 0 9.21159 1 1 1
v -6.149837 0.3 9.74931 1 1 1
v -6.176339 0.3 9.632273 1 1 1
v -6.141003 0 9.788322 1 1 1
v -6.753887 0.3 9.863976 1 1 1
v -6.772061 0.3 9.745359 1 1 1
v -6.77812 0 9.70582 1 1 1
v -6.747828 0 9.903513 1 1 1
v -6.989057 0.3 6.043138 1 1 1
v -7.015558 0.3 5.926101 1 1 1
v -7.024392 0 5.887089 1 1 1
v -7.329412 0.3 6.10781 1 1 1
v -7.347588 0.3 5.989195 1 1 1
v -7.353645 0 5.949657 1 1 1
v -7.323355 0 6.14735 1 1 1
v -6.77812 0 9.705822 1 1 1
v -7.384104 0 9.775906 1 1 1
v -7.399643 0 9.576509 1 1 1
v -7.648266 0 6.386181 1 1 1
v -7.663804 0 6.186786 1 1 1
v -7.635835 0.03999996 6.545698 1 1 1
v -7.99999 0.03999996 6.56 1 1 1
v -7.645158 0.03999996 6.426061 1 1 1
v -7.999991 0.03999996 6.44 1 1 1
v -7.999991 0 6.4 1 1 1
v -7.632727 0 6.585577 1 1 1
v -7.99999 0 6.6 1 1 1
v -7.402751 0.03999996 9.536631 1 1 1
v -7.412074 0.03999996 9.416992 1 1 1
v -7.415182 0 9.377113 1 1 1
v -7.999984 0.03999996 9.559999 1 1 1
v -7.999984 0.03999996 9.440001 1 1 1
v -7.999984 0 9.4 1 1 1
v -7.999984 0 9.6 1 1 1
v -7.624957 0 6.685275 1 1 1
v -7.99999 0 6.7 1 1 1
v -7.430721 0 9.177719 1 1 1
v -7.999985 0 9.200001 1 1 1
v -7.617188 0 6.784973 1 1 1
v -7.99999 0 6.800001 1 1 1
v -7.422952 0 9.277416 1 1 1
v -7.999985 0 9.300001 1 1 1
v -7.371673 0.3 9.935421 1 1 1
v -7.380997 0.3 9.815784 1 1 1
v -7.384104 0 9.775904 1 1 1
v -7.368566 0 9.9753 1 1 1
v -7.999983 0.3 9.959999 1 1 1
v -7.999983 0.3 9.84 1 1 1
v -7.999983 0 9.799999 1 1 1
v -7.999983 0 10 1 1 1
v -7.666912 0.3 6.146907 1 1 1
v -7.676235 0.3 6.02727 1 1 1
v -7.679343 0 5.98739 1 1 1
v -7.999991 0.3 6.16 1 1 1
v -7.999992 0.3 6.04 1 1 1
v -7.999992 0 6 1 1 1
v -7.999991 0 6.2 1 1 1

vn 0 1 0
vn 0.3815266 0.9238795 0.02973238
vn 0.3782689 0.9238795 0.05795889
vn -0.3815266 0.9238795 -0.02973238
vn -0.3782689 0.9238795 -0.05795889
vn -0.7049693 0.7071068 -0.05493828
vn -0.6989498 0.7071068 -0.1070941
vn 0.7049693 0.7071068 0.05493828
vn 0.6989498 0.7071068 0.1070941
vn 0.3826834 0.9238795 7.900573E-07
vn -0.3826834 0.9238795 -7.900573E-07
vn -0.7071068 0.7071068 -1.459836E-06
vn 0.7071068 0.7071068 1.459836E-06
vn 0.6587246 0.7523841 1.35995E-06
vn 0.6567335 0.7523841 0.05117926
vn -0.6587246 0.7523841 -1.35995E-06
vn -0.6567335 0.7523841 -0.05117926
vn -0.9912279 0.1321637 -2.046409E-06
vn -0.9882317 0.1321637 -0.07701292
vn 0.9912279 0.1321637 2.046409E-06
vn 0.9882317 0.1321637 0.07701292
vn 0.6511258 0.7523841 0.0997664
vn -0.6511258 0.7523841 -0.0997664
vn -0.9797934 0.1321637 -0.1501253
vn 0.9797934 0.1321637 0.1501253
vn 0.3732344 0.9238795 0.08451446
vn 0.3667286 0.9238795 0.1093469
vn -0.3732344 0.9238795 -0.08451446
vn -0.3667286 0.9238795 -0.1093469
vn -0.6896473 0.7071068 -0.1561624
vn -0.6776261 0.7071068 -0.2020467
vn 0.6896473 0.7071068 0.1561624
vn 0.6776261 0.7071068 0.2020467
vn 0.6424597 0.7523841 0.1454773
vn -0.6424597 0.7523841 -0.1454773
vn -0.966753 0.1321637 -0.2189097
vn 0.966753 0.1321637 0.2189097
vn 0.6312611 0.7523841 0.1882221
vn -0.6312611 0.7523841 -0.1882221
vn -0.9499017 0.1321637 -0.2832307
vn 0.9499017 0.1321637 0.2832307
vn 0.3590176 0.9238795 0.1324876
vn 0.3503188 0.9238795 0.1540239
vn -0.3590176 0.9238795 -0.1324876
vn -0.3503188 0.9238795 -0.1540239
vn -0.663378 0.7071068 -0.2448052
vn -0.6473047 0.7071068 -0.2845992
vn 0.663378 0.7071068 0.2448052
vn 0.6473047 0.7071068 0.2845992
vn 0.6179879 0.7523841 0.228055
vn -0.6179879 0.7523841 -0.228055
vn -0.9299286 0.1321637 -0.3431699
vn 0.9299286 0.1321637 0.3431699
vn 0.6030143 0.7523841 0.2651261
vn -0.6030143 0.7523841 -0.2651261
vn -0.9073968 0.1321637 -0.3989534
vn 0.9073968 0.1321637 0.3989534
vn 0.3407994 0.9238795 0.1740758
vn 0.3305821 0.9238795 0.1927747
vn -0.3407994 0.9238795 -0.1740758
vn -0.3305821 0.9238795 -0.1927747
vn -0.6297151 0.7071068 -0.3216502
vn -0.6108361 0.7071068 -0.3562011
vn 0.6297151 0.7071068 0.3216502
vn 0.6108361 0.7071068 0.3562011
vn 0.5866283 0.7523841 0.299642
vn -0.5866283 0.7523841 -0.299642
vn -0.8827397 0.1321637 -0.4508919
vn 0.8827397 0.1321637 0.4508919
vn 0.569041 0.7523841 0.3318289
vn -0.569041 0.7523841 -0.3318289
vn -0.856275 0.1321637 -0.4993255
vn 0.856275 0.1321637 0.4993255
vn 0.3197459 0.9238795 0.2102597
vn 0.3083301 0.9238795 0.2266697
vn -0.3197459 0.9238795 -0.2102597
vn -0.3083301 0.9238795 -0.2266697
vn -0.5908134 0.7071068 -0.3885093
vn -0.5697197 0.7071068 -0.418831
vn 0.5908134 0.7071068 0.3885093
vn 0.5697197 0.7071068 0.418831
vn 0.5503883 0.7523841 0.3619265
vn -0.5503883 0.7523841 -0.3619265
vn -0.828207 0.1321637 -0.5446154
vn 0.828207 0.1321637 0.5446154
vn 0.5307379 0.7523841 0.3901735
vn -0.5307379 0.7523841 -0.3901735
vn -0.7986377 0.1321637 -0.5871207
vn 0.7986377 0.1321637 0.5871207
vn 0.2963468 0.9238795 0.2421264
vn 0.2837818 0.9238795 0.2567382
vn -0.2963468 0.9238795 -0.2421264
vn -0.2837818 0.9238795 -0.2567382
vn -0.5475775 0.7071068 -0.4473912
vn -0.5243604 0.7071068 -0.4743904
vn 0.5475775 0.7071068 0.4473912
vn 0.5243604 0.7071068 0.4743904
vn 0.5101107 0.7523841 0.4167795
vn -0.5101107 0.7523841 -0.4167795
vn -0.7675985 0.1321637 -0.6271566
vn 0.7675985 0.1321637 0.6271566
vn 0.4884822 0.7523841 0.4419313
vn -0.4884822 0.7523841 -0.4419313
vn -0.7350525 0.1321637 -0.6650043
vn 0.7350525 0.1321637 0.6650043
vn 0.270598 0.9238795 0.2705981
vn 0.2567382 0.9238795 0.2837818
vn -0.270598 0.9238795 -0.2705981
vn -0.2567382 0.9238795 -0.2837818
vn -0.5 0.7071068 -0.5
vn -0.4743904 0.7071068 -0.5243603
vn 0.5 0.7071068 0.5
vn 0.4743904 0.7071068 0.5243603
vn 0.4657886 0.7523841 0.4657886
vn -0.4657886 0.7523841 -0.4657886
vn -0.700904 0.1321637 -0.700904
vn 0.700904 0.1321637 0.700904
vn 0.4419313 0.7523841 0.4884821
vn -0.4419313 0.7523841 -0.4884821
vn -0.6650043 0.1321637 -0.7350525
vn 0.6650043 0.1321637 0.7350525
vn 0.2421263 0.9238795 0.2963468
vn 0.2266697 0.9238795 0.3083301
vn -0.2421263 0.9238795 -0.2963468
vn -0.2266697 0.9238795 -0.3083301
vn -0.4473912 0.7071068 -0.5475776
vn -0.4188309 0.7071068 -0.5697199
vn 0.4473912 0.7071068 0.5475776
vn 0.4188309 0.7071068 0.5697199
vn 0.4167795 0.7523841 0.5101108
vn -0.4167795 0.7523841 -0.5101108
vn -0.6271565 0.1321637 -0.7675986
vn 0.6271565 0.1321637 0.7675986
vn 0.3901733 0.7523841 0.5307381
vn -0.3901733 0.7523841 -0.5307381
vn -0.5871205 0.1321637 -0.7986379
vn 0.5871205 0.1321637 0.7986379
vn 0.2102597 0.9238795 0.3197459
vn 0.1927747 0.9238795 0.3305821
vn -0.2102597 0.9238795 -0.3197459
vn -0.1927747 0.9238795 -0.3305821
vn -0.3885092 0.7071068 -0.5908135
vn -0.3562012 0.7071068 -0.610836
vn 0.3885092 0.7071068 0.5908135
vn 0.3562012 0.7071068 0.610836
vn 0.3619264 0.7523841 0.5503884
vn -0.3619264 0.7523841 -0.5503884
vn -0.5446154 0.1321637 -0.8282071
vn 0.5446154 0.1321637 0.8282071
vn 0.3318289 0.7523841 0.569041
vn -0.3318289 0.7523841 -0.569041
vn -0.4993257 0.1321637 -0.8562748
vn 0.4993257 0.1321637 0.8562748
vn 0.1740758 0.9238795 0.3407994
vn 0.154024 0.9238795 0.3503187
vn -0.1740758 0.9238795 -0.3407994
vn -0.154024 0.9238795 -0.3503187
vn -0.3216501 0.7071068 -0.6297151
vn -0.2845993 0.7071068 -0.6473045
vn 0.3216501 0.7071068 0.6297151
vn 0.2845993 0.7071068 0.6473045
vn 0.2996419 0.7523841 0.5866284
vn -0.2996419 0.7523841 -0.5866284
vn -0.4508916 0.1321637 -0.8827398
vn 0.4508916 0.1321637 0.8827398
vn 0.2651262 0.7523841 0.6030142
vn -0.2651262 0.7523841 -0.6030142
vn -0.3989536 0.1321637 -0.9073967
vn 0.3989536 0.1321637 0.9073967
vn 0.1324877 0.9238795 0.3590176
vn 0.109347 0.9238795 0.3667286
vn -0.1324877 0.9238795 -0.3590176
vn -0.109347 0.9238795 -0.3667286
vn -0.2448052 0.7071068 -0.663378
vn -0.2020469 0.7071068 -0.6776261
vn 0.2448052 0.7071068 0.663378
vn 0.2020469 0.7071068 0.6776261
vn 0.228055 0.7523841 0.6179878
vn -0.228055 0.7523841 -0.6179878
vn -0.34317 0.1321637 -0.9299285
vn 0.34317 0.1321637 0.9299285
vn 0.1882223 0.7523841 0.6312611
vn -0.1882223 0.7523841 -0.6312611
vn -0.2832309 0.1321637 -0.9499016
vn 0.2832309 0.1321637 0.9499016
vn 0.08451465 0.9238795 0.3732343
vn 0.05795899 0.9238795 0.3782689
vn -0.08451465 0.9238795 -0.3732343
vn -0.05795899 0.9238795 -0.3782689
vn -0.1561627 0.7071068 -0.6896471
vn -0.1070942 0.7071068 -0.6989498
vn 0.1561627 0.7071068 0.6896471
vn 0.1070942 0.7071068 0.6989498
vn 0.1454777 0.7523841 0.6424596
vn -0.1454777 0.7523841 -0.6424596
vn -0.2189101 0.1321637 -0.9667528
vn 0.2189101 0.1321637 0.9667528
vn 0.09976655 0.7523841 0.6511257
vn -0.09976655 0.7523841 -0.6511257
vn -0.1501256 0.1321637 -0.9797933
vn 0.1501256 0.1321637 0.9797933
vn 0.02973241 0.9238795 0.3815267
vn 9.23872E-07 0.9238795 0.3826834
vn -0.02973241 0.9238795 -0.3815267
vn -9.23872E-07 0.9238795 -0.3826834
vn -0.05493832 0.7071068 -0.7049694
vn -1.66893E-06 0.7071068 -0.7071067
vn 0.05493832 0.7071068 0.7049694
vn 1.66893E-06 0.7071068 0.7071067
vn 0.05117929 0.7523841 0.6567335
vn -0.05117929 0.7523841 -0.6567335
vn -0.07701296 0.1321637 -0.9882318
vn 0.07701296 0.1321637 0.9882318
vn 1.609325E-06 0.7523841 0.6587245
vn -1.609325E-06 0.7523841 -0.6587245
vn -2.324581E-06 0.1321637 -0.9912279
vn 2.324581E-06 0.1321637 0.9912279

vt 0.59375 0.275
vt 0.34375 0.475
vt 0.34375 0.275
vt 0.34375 0.025
vt 0.21875 0.025
vt 0.46875 0.225
vt 0.46875 0.145
vt 0.59375 0.145

usemtl colormap

f 3/1/1 2/1/1 1/1/1
f 2/1/1 3/1/1 4/1/1
f 7/1/1 6/1/1 5/1/1
f 6/1/1 7/1/1 8/1/1
f 11/2/4 10/2/3 9/2/2
f 10/2/3 11/2/4 12/2/5
f 13/3/7 11/2/4 6/3/6
f 11/2/4 13/3/7 12/2/5
f 9/2/2 15/3/9 14/3/8
f 15/3/9 9/2/2 10/2/3
f 17/2/11 9/2/2 16/2/10
f 9/2/2 17/2/11 11/2/4
f 6/3/6 17/2/11 5/3/12
f 17/2/11 6/3/6 11/2/4
f 16/2/10 14/3/8 18/3/13
f 14/3/8 16/2/10 9/2/2
f 21/2/11 20/2/2 19/2/10
f 20/2/2 21/2/11 22/2/4
f 24/3/6 21/2/11 23/3/12
f 21/2/11 24/3/6 22/2/4
f 19/2/10 4/3/8 3/3/13
f 4/3/8 19/2/10 20/2/2
f 22/2/4 25/2/3 20/2/2
f 25/2/3 22/2/4 26/2/5
f 27/3/7 22/2/4 24/3/6
f 22/2/4 27/3/7 26/2/5
f 20/2/2 28/3/9 4/3/8
f 28/3/9 20/2/2 25/2/3
f 6/4/1 30/4/1 29/4/1
f 30/4/1 6/4/1 13/4/1
f 33/4/1 32/4/1 31/4/1
f 32/4/1 33/4/1 34/4/1
f 35/4/1 28/4/1 4/4/1
f 28/4/1 35/4/1 36/4/1
f 5/4/1 29/4/1 37/4/1
f 29/4/1 5/4/1 6/4/1
f 39/4/1 31/4/1 38/4/1
f 31/4/1 39/4/1 33/4/1
f 40/4/1 4/4/1 3/4/1
f 4/4/1 40/4/1 35/4/1
f 29/5/1 34/5/1 33/5/1
f 34/5/1 29/5/1 30/5/1
f 31/5/1 36/5/1 35/5/1
f 36/5/1 31/5/1 32/5/1
f 37/5/1 33/5/1 39/5/1
f 33/5/1 37/5/1 29/5/1
f 38/5/1 35/5/1 40/5/1
f 35/5/1 38/5/1 31/5/1
f 43/6/16 42/6/15 41/6/14
f 42/6/15 43/6/16 44/6/17
f 45/7/19 43/6/16 1/7/18
f 43/6/16 45/7/19 44/6/17
f 42/6/15 46/7/20 41/6/14
f 46/7/20 42/6/15 47/7/21
f 44/6/17 48/6/22 42/6/15
f 48/6/22 44/6/17 49/6/23
f 50/7/24 44/6/17 45/7/19
f 44/6/17 50/7/24 49/6/23
f 48/6/22 47/7/21 42/6/15
f 47/7/21 48/6/22 51/7/25
f 54/6/16 53/6/15 52/6/14
f 53/6/15 54/6/16 55/6/17
f 57/7/19 54/6/16 56/7/18
f 54/6/16 57/7/19 55/6/17
f 53/6/15 58/7/20 52/6/14
f 58/7/20 53/6/15 59/7/21
f 55/6/17 60/6/22 53/6/15
f 60/6/22 55/6/17 61/6/23
f 62/7/24 55/6/17 57/7/19
f 55/6/17 62/7/24 61/6/23
f 60/6/22 59/7/21 53/6/15
f 59/7/21 60/6/22 63/7/25
f 4/8/1 64/8/1 2/8/1
f 64/8/1 4/8/1 28/8/1
f 8/8/1 13/8/1 6/8/1
f 13/8/1 8/8/1 65/8/1
f 28/1/1 66/1/1 64/1/1
f 66/1/1 28/1/1 67/1/1
f 65/1/1 68/1/1 13/1/1
f 68/1/1 65/1/1 69/1/1
f 72/2/28 71/2/27 70/2/26
f 71/2/27 72/2/28 73/2/29
f 74/3/31 72/2/28 68/3/30
f 72/2/28 74/3/31 73/2/29
f 70/2/26 76/3/33 75/3/32
f 76/3/33 70/2/26 71/2/27
f 12/2/5 70/2/26 10/2/3
f 70/2/26 12/2/5 72/2/28
f 68/3/30 12/2/5 13/3/7
f 12/2/5 68/3/30 72/2/28
f 10/2/3 75/3/32 15/3/9
f 75/3/32 10/2/3 70/2/26
f 26/2/5 77/2/26 25/2/3
f 77/2/26 26/2/5 78/2/28
f 79/3/30 26/2/5 27/3/7
f 26/2/5 79/3/30 78/2/28
f 25/2/3 67/3/32 28/3/9
f 67/3/32 25/2/3 77/2/26
f 78/2/28 80/2/27 77/2/26
f 80/2/27 78/2/28 81/2/29
f 82/3/31 78/2/28 79/3/30
f 78/2/28 82/3/31 81/2/29
f 77/2/26 83/3/33 67/3/32
f 83/3/33 77/2/26 80/2/27
f 68/4/1 85/4/1 84/4/1
f 85/4/1 68/4/1 74/4/1
f 88/4/1 87/4/1 86/4/1
f 87/4/1 88/4/1 89/4/1
f 90/4/1 83/4/1 67/4/1
f 83/4/1 90/4/1 91/4/1
f 13/4/1 84/4/1 30/4/1
f 84/4/1 13/4/1 68/4/1
f 34/4/1 86/4/1 32/4/1
f 86/4/1 34/4/1 88/4/1
f 36/4/1 67/4/1 28/4/1
f 67/4/1 36/4/1 90/4/1
f 84/5/1 89/5/1 88/5/1
f 89/5/1 84/5/1 85/5/1
f 86/5/1 91/5/1 90/5/1
f 91/5/1 86/5/1 87/5/1
f 30/5/1 88/5/1 34/5/1
f 88/5/1 30/5/1 84/5/1
f 32/5/1 90/5/1 36/5/1
f 90/5/1 32/5/1 86/5/1
f 49/6/23 92/6/34 48/6/22
f 92/6/34 49/6/23 93/6/35
f 94/7/36 49/6/23 50/7/24
f 49/6/23 94/7/36 93/6/35
f 92/6/34 51/7/25 48/6/22
f 51/7/25 92/6/34 95/7/37
f 93/6/35 96/6/38 92/6/34
f 96/6/38 93/6/35 97/6/39
f 98/7/40 93/6/35 94/7/36
f 93/6/35 98/7/40 97/6/39
f 96/6/38 95/7/37 92/6/34
f 95/7/37 96/6/38 99/7/41
f 61/6/23 100/6/34 60/6/22
f 100/6/34 61/6/23 101/6/35
f 102/7/36 61/6/23 62/7/24
f 61/6/23 102/7/36 101/6/35
f 100/6/34 63/7/25 60/6/22
f 63/7/25 100/6/34 103/7/37
f 101/6/35 104/6/38 100/6/34
f 104/6/38 101/6/35 105/6/39
f 106/7/40 101/6/35 102/7/36
f 101/6/35 106/7/40 105/6/39
f 104/6/38 103/7/37 100/6/34
f 103/7/37 104/6/38 107/7/41
f 67/8/1 98/8/1 66/8/1
f 98/8/1 67/8/1 83/8/1
f 69/8/1 74/8/1 68/8/1
f 74/8/1 69/8/1 107/8/1
f 83/1/1 108/1/1 98/1/1
f 108/1/1 83/1/1 109/1/1
f 107/1/1 110/1/1 74/1/1
f 110/1/1 107/1/1 111/1/1
f 114/2/44 113/2/43 112/2/42
f 113/2/43 114/2/44 115/2/45
f 116/3/47 114/2/44 110/3/46
f 114/2/44 116/3/47 115/2/45
f 112/2/42 118/3/49 117/3/48
f 118/3/49 112/2/42 113/2/43
f 73/2/29 112/2/42 71/2/27
f 112/2/42 73/2/29 114/2/44
f 110/3/46 73/2/29 74/3/31
f 73/2/29 110/3/46 114/2/44
f 71/2/27 117/3/48 76/3/33
f 117/3/48 71/2/27 112/2/42
f 81/2/29 119/2/42 80/2/27
f 119/2/42 81/2/29 120/2/44
f 121/3/46 81/2/29 82/3/31
f 81/2/29 121/3/46 120/2/44
f 80/2/27 109/3/48 83/3/33
f 109/3/48 80/2/27 119/2/42
f 120/2/44 122/2/43 119/2/42
f 122/2/43 120/2/44 123/2/45
f 124/3/47 120/2/44 121/3/46
f 120/2/44 124/3/47 123/2/45
f 119/2/42 125/3/49 109/3/48
f 125/3/49 119/2/42 122/2/43
f 110/4/1 127/4/1 126/4/1
f 127/4/1 110/4/1 116/4/1
f 130/4/1 129/4/1 128/4/1
f 129/4/1 130/4/1 131/4/1
f 132/4/1 125/4/1 109/4/1
f 125/4/1 132/4/1 133/4/1
f 74/4/1 126/4/1 85/4/1
f 126/4/1 74/4/1 110/4/1
f 89/4/1 128/4/1 87/4/1
f 128/4/1 89/4/1 130/4/1
f 91/4/1 109/4/1 83/4/1
f 109/4/1 91/4/1 132/4/1
f 126/5/1 131/5/1 130/5/1
f 131/5/1 126/5/1 127/5/1
f 128/5/1 133/5/1 132/5/1
f 133/5/1 128/5/1 129/5/1
f 85/5/1 130/5/1 89/5/1
f 130/5/1 85/5/1 126/5/1
f 87/5/1 132/5/1 91/5/1
f 132/5/1 87/5/1 128/5/1
f 97/6/39 134/6/50 96/6/38
f 134/6/50 97/6/39 135/6/51
f 108/7/52 97/6/39 98/7/40
f 97/6/39 108/7/52 135/6/51
f 134/6/50 99/7/41 96/6/38
f 99/7/41 134/6/50 136/7/53
f 135/6/51 137/6/54 134/6/50
f 137/6/54 135/6/51 138/6/55
f 139/7/56 135/6/51 108/7/52
f 135/6/51 139/7/56 138/6/55
f 137/6/54 136/7/53 134/6/50
f 136/7/53 137/6/54 140/7/57
f 105/6/39 141/6/50 104/6/38
f 141/6/50 105/6/39 142/6/51
f 143/7/52 105/6/39 106/7/40
f 105/6/39 143/7/52 142/6/51
f 141/6/50 107/7/41 104/6/38
f 107/7/41 141/6/50 144/7/53
f 142/6/51 145/6/54 141/6/50
f 145/6/54 142/6/51 146/6/55
f 147/7/56 142/6/51 143/7/52
f 142/6/51 147/7/56 146/6/55
f 145/6/54 144/7/53 141/6/50
f 144/7/53 145/6/54 148/7/57
f 109/8/1 139/8/1 108/8/1
f 139/8/1 109/8/1 125/8/1
f 111/8/1 116/8/1 110/8/1
f 116/8/1 111/8/1 149/8/1
f 125/1/1 150/1/1 139/1/1
f 150/1/1 125/1/1 151/1/1
f 149/1/1 152/1/1 116/1/1
f 152/1/1 149/1/1 153/1/1
f 156/2/60 155/2/59 154/2/58
f 155/2/59 156/2/60 157/2/61
f 158/3/63 156/2/60 152/3/62
f 156/2/60 158/3/63 157/2/61
f 154/2/58 160/3/65 159/3/64
f 160/3/65 154/2/58 155/2/59
f 115/2/45 154/2/58 113/2/43
f 154/2/58 115/2/45 156/2/60
f 152/3/62 115/2/45 116/3/47
f 115/2/45 152/3/62 156/2/60
f 113/2/43 159/3/64 118/3/49
f 159/3/64 113/2/43 154/2/58
f 123/2/45 161/2/58 122/2/43
f 161/2/58 123/2/45 162/2/60
f 163/3/62 123/2/45 124/3/47
f 123/2/45 163/3/62 162/2/60
f 122/2/43 151/3/64 125/3/49
f 151/3/64 122/2/43 161/2/58
f 162/2/60 164/2/59 161/2/58
f 164/2/59 162/2/60 165/2/61
f 166/3/63 162/2/60 163/3/62
f 162/2/60 166/3/63 165/2/61
f 161/2/58 167/3/65 151/3/64
f 167/3/65 161/2/58 164/2/59
f 152/4/1 169/4/1 168/4/1
f 169/4/1 152/4/1 158/4/1
f 172/4/1 171/4/1 170/4/1
f 171/4/1 172/4/1 173/4/1
f 174/4/1 167/4/1 151/4/1
f 167/4/1 174/4/1 175/4/1
f 116/4/1 168/4/1 127/4/1
f 168/4/1 116/4/1 152/4/1
f 131/4/1 170/4/1 129/4/1
f 170/4/1 131/4/1 172/4/1
f 133/4/1 151/4/1 125/4/1
f 151/4/1 133/4/1 174/4/1
f 168/5/1 173/5/1 172/5/1
f 173/5/1 168/5/1 169/5/1
f 170/5/1 175/5/1 174/5/1
f 175/5/1 170/5/1 171/5/1
f 127/5/1 172/5/1 131/5/1
f 172/5/1 127/5/1 168/5/1
f 129/5/1 174/5/1 133/5/1
f 174/5/1 129/5/1 170/5/1
f 138/6/55 176/6/66 137/6/54
f 176/6/66 138/6/55 177/6/67
f 178/7/68 138/6/55 139/7/56
f 138/6/55 178/7/68 177/6/67
f 176/6/66 140/7/57 137/6/54
f 140/7/57 176/6/66 179/7/69
f 177/6/67 180/6/70 176/6/66
f 180/6/70 177/6/67 181/6/71
f 182/7/72 177/6/67 178/7/68
f 177/6/67 182/7/72 181/6/71
f 180/6/70 179/7/69 176/6/66
f 179/7/69 180/6/70 183/7/73
f 146/6/55 184/6/66 145/6/54
f 184/6/66 146/6/55 185/6/67
f 186/7/68 146/6/55 147/7/56
f 146/6/55 186/7/68 185/6/67
f 184/6/66 148/7/57 145/6/54
f 148/7/57 184/6/66 153/7/69
f 185/6/67 187/6/70 184/6/66
f 187/6/70 185/6/67 188/6/71
f 189/7/72 185/6/67 186/7/68
f 185/6/67 189/7/72 188/6/71
f 187/6/70 153/7/69 184/6/66
f 153/7/69 187/6/70 190/7/73
f 151/8/1 191/8/1 150/8/1
f 191/8/1 151/8/1 167/8/1
f 153/8/1 158/8/1 152/8/1
f 158/8/1 153/8/1 192/8/1
f 167/1/1 193/1/1 191/1/1
f 193/1/1 167/1/1 194/1/1
f 192/1/1 195/1/1 158/1/1
f 195/1/1 192/1/1 196/1/1
f 199/2/76 198/2/75 197/2/74
f 198/2/75 199/2/76 200/2/77
f 201/3/79 199/2/76 195/3/78
f 199/2/76 201/3/79 200/2/77
f 197/2/74 203/3/81 202/3/80
f 203/3/81 197/2/74 198/2/75
f 157/2/61 197/2/74 155/2/59
f 197/2/74 157/2/61 199/2/76
f 195/3/78 157/2/61 158/3/63
f 157/2/61 195/3/78 199/2/76
f 155/2/59 202/3/80 160/3/65
f 202/3/80 155/2/59 197/2/74
f 165/2/61 204/2/74 164/2/59
f 204/2/74 165/2/61 205/2/76
f 206/3/78 165/2/61 166/3/63
f 165/2/61 206/3/78 205/2/76
f 164/2/59 194/3/80 167/3/65
f 194/3/80 164/2/59 204/2/74
f 205/2/76 207/2/75 204/2/74
f 207/2/75 205/2/76 208/2/77
f 209/3/79 205/2/76 206/3/78
f 205/2/76 209/3/79 208/2/77
f 204/2/74 210/3/81 194/3/80
f 210/3/81 204/2/74 207/2/75
f 195/4/1 212/4/1 211/4/1
f 212/4/1 195/4/1 201/4/1
f 215/4/1 214/4/1 213/4/1
f 214/4/1 215/4/1 216/4/1
f 217/4/1 210/4/1 194/4/1
f 210/4/1 217/4/1 218/4/1
f 158/4/1 211/4/1 169/4/1
f 211/4/1 158/4/1 195/4/1
f 173/4/1 213/4/1 171/4/1
f 213/4/1 173/4/1 215/4/1
f 175/4/1 194/4/1 167/4/1
f 194/4/1 175/4/1 217/4/1
f 211/5/1 216/5/1 215/5/1
f 216/5/1 211/5/1 212/5/1
f 213/5/1 218/5/1 217/5/1
f 218/5/1 213/5/1 214/5/1
f 169/5/1 215/5/1 173/5/1
f 215/5/1 169/5/1 211/5/1
f 171/5/1 217/5/1 175/5/1
f 217/5/1 171/5/1 213/5/1
f 181/6/71 219/6/82 180/6/70
f 219/6/82 181/6/71 220/6/83
f 193/7/84 181/6/71 182/7/72
f 181/6/71 193/7/84 220/6/83
f 219/6/82 183/7/73 180/6/70
f 183/7/73 219/6/82 221/7/85
f 220/6/83 222/6/86 219/6/82
f 222/6/86 220/6/83 223/6/87
f 224/7/88 220/6/83 193/7/84
f 220/6/83 224/7/88 223/6/87
f 222/6/86 221/7/85 219/6/82
f 221/7/85 222/6/86 225/7/89
f 188/6/71 226/6/82 187/6/70
f 226/6/82 188/6/71 227/6/83
f 228/7/84 188/6/71 189/7/72
f 188/6/71 228/7/84 227/6/83
f 226/6/82 190/7/73 187/6/70
f 190/7/73 226/6/82 196/7/85
f 227/6/83 229/6/86 226/6/82
f 229/6/86 227/6/83 230/6/87
f 231/7/88 227/6/83 228/7/84
f 227/6/83 231/7/88 230/6/87
f 229/6/86 196/7/85 226/6/82
f 196/7/85 229/6/86 232/7/89
f 194/8/1 224/8/1 193/8/1
f 224/8/1 194/8/1 210/8/1
f 196/8/1 201/8/1 195/8/1
f 201/8/1 196/8/1 232/8/1
f 210/1/1 233/1/1 224/1/1
f 233/1/1 210/1/1 234/1/1
f 232/1/1 235/1/1 201/1/1
f 235/1/1 232/1/1 236/1/1
f 239/2/92 238/2/91 237/2/90
f 238/2/91 239/2/92 240/2/93
f 241/3/95 239/2/92 235/3/94
f 239/2/92 241/3/95 240/2/93
f 237/2/90 243/3/97 242/3/96
f 243/3/97 237/2/90 238/2/91
f 200/2/77 237/2/90 198/2/75
f 237/2/90 200/2/77 239/2/92
f 235/3/94 200/2/77 201/3/79
f 200/2/77 235/3/94 239/2/92
f 198/2/75 242/3/96 203/3/81
f 242/3/96 198/2/75 237/2/90
f 208/2/77 244/2/90 207/2/75
f 244/2/90 208/2/77 245/2/92
f 246/3/94 208/2/77 209/3/79
f 208/2/77 246/3/94 245/2/92
f 207/2/75 234/3/96 210/3/81
f 234/3/96 207/2/75 244/2/90
f 245/2/92 247/2/91 244/2/90
f 247/2/91 245/2/92 248/2/93
f 249/3/95 245/2/92 246/3/94
f 245/2/92 249/3/95 248/2/93
f 244/2/90 250/3/97 234/3/96
f 250/3/97 244/2/90 247/2/91
f 235/4/1 252/4/1 251/4/1
f 252/4/1 235/4/1 241/4/1
f 255/4/1 254/4/1 253/4/1
f 254/4/1 255/4/1 256/4/1
f 257/4/1 250/4/1 234/4/1
f 250/4/1 257/4/1 258/4/1
f 201/4/1 251/4/1 212/4/1
f 251/4/1 201/4/1 235/4/1
f 216/4/1 253/4/1 214/4/1
f 253/4/1 216/4/1 255/4/1
f 218/4/1 234/4/1 210/4/1
f 234/4/1 218/4/1 257/4/1
f 251/5/1 256/5/1 255/5/1
f 256/5/1 251/5/1 252/5/1
f 253/5/1 258/5/1 257/5/1
f 258/5/1 253/5/1 254/5/1
f 212/5/1 255/5/1 216/5/1
f 255/5/1 212/5/1 251/5/1
f 214/5/1 257/5/1 218/5/1
f 257/5/1 214/5/1 253/5/1
f 223/6/87 259/6/98 222/6/86
f 259/6/98 223/6/87 260/6/99
f 261/7/100 223/6/87 224/7/88
f 223/6/87 261/7/100 260/6/99
f 259/6/98 225/7/89 222/6/86
f 225/7/89 259/6/98 262/7/101
f 260/6/99 263/6/102 259/6/98
f 263/6/102 260/6/99 264/6/103
f 265/7/104 260/6/99 261/7/100
f 260/6/99 265/7/104 264/6/103
f 263/6/102 262/7/101 259/6/98
f 262/7/101 263/6/102 266/7/105
f 230/6/87 267/6/98 229/6/86
f 267/6/98 230/6/87 268/6/99
f 269/7/100 230/6/87 231/7/88
f 230/6/87 269/7/100 268/6/99
f 267/6/98 232/7/89 229/6/86
f 232/7/89 267/6/98 236/7/101
f 268/6/99 270/6/102 267/6/98
f 270/6/102 268/6/99 271/6/103
f 272/7/104 268/6/99 269/7/100
f 268/6/99 272/7/104 271/6/103
f 270/6/102 236/7/101 267/6/98
f 236/7/101 270/6/102 273/7/105
f 234/8/1 274/8/1 233/8/1
f 274/8/1 234/8/1 250/8/1
f 236/8/1 241/8/1 235/8/1
f 241/8/1 236/8/1 275/8/1
f 250/1/1 276/1/1 274/1/1
f 276/1/1 250/1/1 277/1/1
f 275/1/1 278/1/1 241/1/1
f 278/1/1 275/1/1 279/1/1
f 282/2/108 281/2/107 280/2/106
f 281/2/107 282/2/108 283/2/109
f 284/3/111 282/2/108 278/3/110
f 282/2/108 284/3/111 283/2/109
f 280/2/106 286/3/113 285/3/112
f 286/3/113 280/2/106 281/2/107
f 240/2/93 280/2/106 238/2/91
f 280/2/106 240/2/93 282/2/108
f 278/3/110 240/2/93 241/3/95
f 240/2/93 278/3/110 282/2/108
f 238/2/91 285/3/112 243/3/97
f 285/3/112 238/2/91 280/2/106
f 248/2/93 287/2/106 247/2/91
f 287/2/106 248/2/93 288/2/108
f 289/3/110 248/2/93 249/3/95
f 248/2/93 289/3/110 288/2/108
f 247/2/91 277/3/112 250/3/97
f 277/3/112 247/2/91 287/2/106
f 288/2/108 290/2/107 287/2/106
f 290/2/107 288/2/108 291/2/109
f 292/3/111 288/2/108 289/3/110
f 288/2/108 292/3/111 291/2/109
f 287/2/106 293/3/113 277/3/112
f 293/3/113 287/2/106 290/2/107
f 278/4/1 295/4/1 294/4/1
f 295/4/1 278/4/1 284/4/1
f 298/4/1 297/4/1 296/4/1
f 297/4/1 298/4/1 299/4/1
f 300/4/1 293/4/1 277/4/1
f 293/4/1 300/4/1 301/4/1
f 241/4/1 294/4/1 252/4/1
f 294/4/1 241/4/1 278/4/1
f 256/4/1 296/4/1 254/4/1
f 296/4/1 256/4/1 298/4/1
f 258/4/1 277/4/1 250/4/1
f 277/4/1 258/4/1 300/4/1
f 294/5/1 299/5/1 298/5/1
f 299/5/1 294/5/1 295/5/1
f 296/5/1 301/5/1 300/5/1
f 301/5/1 296/5/1 297/5/1
f 252/5/1 298/5/1 256/5/1
f 298/5/1 252/5/1 294/5/1
f 254/5/1 300/5/1 258/5/1
f 300/5/1 254/5/1 296/5/1
f 264/6/103 302/6/114 263/6/102
f 302/6/114 264/6/103 303/6/115
f 276/7/116 264/6/103 265/7/104
f 264/6/103 276/7/116 303/6/115
f 302/6/114 266/7/105 263/6/102
f 266/7/105 302/6/114 304/7/117
f 303/6/115 305/6/118 302/6/114
f 305/6/118 303/6/115 306/6/119
f 307/7/120 303/6/115 276/7/116
f 303/6/115 307/7/120 306/6/119
f 305/6/118 304/7/117 302/6/114
f 304/7/117 305/6/118 308/7/121
f 271/6/103 309/6/114 270/6/102
f 309/6/114 271/6/103 310/6/115
f 311/7/116 271/6/103 272/7/104
f 271/6/103 311/7/116 310/6/115
f 309/6/114 273/7/105 270/6/102
f 273/7/105 309/6/114 279/7/117
f 310/6/115 312/6/118 309/6/114
f 312/6/118 310/6/115 313/6/119
f 314/7/120 310/6/115 311/7/116
f 310/6/115 314/7/120 313/6/119
f 312/6/118 279/7/117 309/6/114
f 279/7/117 312/6/118 315/7/121
f 277/8/1 316/8/1 276/8/1
f 316/8/1 277/8/1 293/8/1
f 279/8/1 284/8/1 278/8/1
f 284/8/1 279/8/1 317/8/1
f 293/1/1 318/1/1 316/1/1
f 318/1/1 293/1/1 319/1/1
f 317/1/1 320/1/1 284/1/1
f 320/1/1 317/1/1 321/1/1
f 324/2/124 323/2/123 322/2/122
f 323/2/123 324/2/124 325/2/125
f 326/3/127 324/2/124 320/3/126
f 324/2/124 326/3/127 325/2/125
f 322/2/122 328/3/129 327/3/128
f 328/3/129 322/2/122 323/2/123
f 283/2/109 322/2/122 281/2/107
f 322/2/122 283/2/109 324/2/124
f 320/3/126 283/2/109 284/3/111
f 283/2/109 320/3/126 324/2/124
f 281/2/107 327/3/128 286/3/113
f 327/3/128 281/2/107 322/2/122
f 291/2/109 329/2/122 290/2/107
f 329/2/122 291/2/109 330/2/124
f 331/3/126 291/2/109 292/3/111
f 291/2/109 331/3/126 330/2/124
f 290/2/107 319/3/128 293/3/113
f 319/3/128 290/2/107 329/2/122
f 330/2/124 332/2/123 329/2/122
f 332/2/123 330/2/124 333/2/125
f 334/3/127 330/2/124 331/3/126
f 330/2/124 334/3/127 333/2/125
f 329/2/122 335/3/129 319/3/128
f 335/3/129 329/2/122 332/2/123
f 320/4/1 337/4/1 336/4/1
f 337/4/1 320/4/1 326/4/1
f 340/4/1 339/4/1 338/4/1
f 339/4/1 340/4/1 341/4/1
f 342/4/1 335/4/1 319/4/1
f 335/4/1 342/4/1 343/4/1
f 284/4/1 336/4/1 295/4/1
f 336/4/1 284/4/1 320/4/1
f 299/4/1 338/4/1 297/4/1
f 338/4/1 299/4/1 340/4/1
f 301/4/1 319/4/1 293/4/1
f 319/4/1 301/4/1 342/4/1
f 336/5/1 341/5/1 340/5/1
f 341/5/1 336/5/1 337/5/1
f 338/5/1 343/5/1 342/5/1
f 343/5/1 338/5/1 339/5/1
f 295/5/1 340/5/1 299/5/1
f 340/5/1 295/5/1 336/5/1
f 297/5/1 342/5/1 301/5/1
f 342/5/1 297/5/1 338/5/1
f 306/6/119 344/6/130 305/6/118
f 344/6/130 306/6/119 345/6/131
f 318/7/132 306/6/119 307/7/120
f 306/6/119 318/7/132 345/6/131
f 344/6/130 308/7/121 305/6/118
f 308/7/121 344/6/130 346/7/133
f 345/6/131 347/6/134 344/6/130
f 347/6/134 345/6/131 348/6/135
f 349/7/136 345/6/131 318/7/132
f 345/6/131 349/7/136 348/6/135
f 347/6/134 346/7/133 344/6/130
f 346/7/133 347/6/134 350/7/137
f 313/6/119 351/6/130 312/6/118
f 351/6/130 313/6/119 352/6/131
f 353/7/132 313/6/119 314/7/120
f 313/6/119 353/7/132 352/6/131
f 351/6/130 315/7/121 312/6/118
f 315/7/121 351/6/130 321/7/133
f 352/6/131 354/6/134 351/6/130
f 354/6/134 352/6/131 355/6/135
f 356/7/136 352/6/131 353/7/132
f 352/6/131 356/7/136 355/6/135
f 354/6/134 321/7/133 351/6/130
f 321/7/133 354/6/134 357/7/137
f 319/8/1 349/8/1 318/8/1
f 349/8/1 319/8/1 335/8/1
f 321/8/1 326/8/1 320/8/1
f 326/8/1 321/8/1 357/8/1
f 335/1/1 358/1/1 349/1/1
f 358/1/1 335/1/1 359/1/1
f 357/1/1 360/1/1 326/1/1
f 360/1/1 357/1/1 361/1/1
f 364/2/140 363/2/139 362/2/138
f 363/2/139 364/2/140 365/2/141
f 366/3/143 364/2/140 360/3/142
f 364/2/140 366/3/143 365/2/141
f 362/2/138 368/3/145 367/3/144
f 368/3/145 362/2/138 363/2/139
f 325/2/125 362/2/138 323/2/123
f 362/2/138 325/2/125 364/2/140
f 360/3/142 325/2/125 326/3/127
f 325/2/125 360/3/142 364/2/140
f 323/2/123 367/3/144 328/3/129
f 367/3/144 323/2/123 362/2/138
f 333/2/125 369/2/138 332/2/123
f 369/2/138 333/2/125 370/2/140
f 371/3/142 333/2/125 334/3/127
f 333/2/125 371/3/142 370/2/140
f 332/2/123 359/3/144 335/3/129
f 359/3/144 332/2/123 369/2/138
f 370/2/140 372/2/139 369/2/138
f 372/2/139 370/2/140 373/2/141
f 374/3/143 370/2/140 371/3/142
f 370/2/140 374/3/143 373/2/141
f 369/2/138 375/3/145 359/3/144
f 375/3/145 369/2/138 372/2/139
f 360/4/1 377/4/1 376/4/1
f 377/4/1 360/4/1 366/4/1
f 380/4/1 379/4/1 378/4/1
f 379/4/1 380/4/1 381/4/1
f 382/4/1 375/4/1 359/4/1
f 375/4/1 382/4/1 383/4/1
f 326/4/1 376/4/1 337/4/1
f 376/4/1 326/4/1 360/4/1
f 341/4/1 378/4/1 339/4/1
f 378/4/1 341/4/1 380/4/1
f 343/4/1 359/4/1 335/4/1
f 359/4/1 343/4/1 382/4/1
f 376/5/1 381/5/1 380/5/1
f 381/5/1 376/5/1 377/5/1
f 378/5/1 383/5/1 382/5/1
f 383/5/1 378/5/1 379/5/1
f 337/5/1 380/5/1 341/5/1
f 380/5/1 337/5/1 376/5/1
f 339/5/1 382/5/1 343/5/1
f 382/5/1 339/5/1 378/5/1
f 348/6/135 384/6/146 347/6/134
f 384/6/146 348/6/135 385/6/147
f 386/7/148 348/6/135 349/7/136
f 348/6/135 386/7/148 385/6/147
f 384/6/146 350/7/137 347/6/134
f 350/7/137 384/6/146 387/7/149
f 385/6/147 388/6/150 384/6/146
f 388/6/150 385/6/147 389/6/151
f 390/7/152 385/6/147 386/7/148
f 385/6/147 390/7/152 389/6/151
f 388/6/150 387/7/149 384/6/146
f 387/7/149 388/6/150 391/7/153
f 355/6/135 392/6/146 354/6/134
f 392/6/146 355/6/135 393/6/147
f 394/7/148 355/6/135 356/7/136
f 355/6/135 394/7/148 393/6/147
f 392/6/146 357/7/137 354/6/134
f 357/7/137 392/6/146 361/7/149
f 393/6/147 395/6/150 392/6/146
f 395/6/150 393/6/147 396/6/151
f 397/7/152 393/6/147 394/7/148
f 393/6/147 397/7/152 396/6/151
f 395/6/150 361/7/149 392/6/146
f 361/7/149 395/6/150 398/7/153
f 359/8/1 390/8/1 358/8/1
f 390/8/1 359/8/1 375/8/1
f 361/8/1 366/8/1 360/8/1
f 366/8/1 361/8/1 398/8/1
f 375/1/1 399/1/1 390/1/1
f 399/1/1 375/1/1 400/1/1
f 398/1/1 401/1/1 366/1/1
f 401/1/1 398/1/1 402/1/1
f 405/2/156 404/2/155 403/2/154
f 404/2/155 405/2/156 406/2/157
f 407/3/159 405/2/156 401/3/158
f 405/2/156 407/3/159 406/2/157
f 403/2/154 409/3/161 408/3/160
f 409/3/161 403/2/154 404/2/155
f 365/2/141 403/2/154 363/2/139
f 403/2/154 365/2/141 405/2/156
f 401/3/158 365/2/141 366/3/143
f 365/2/141 401/3/158 405/2/156
f 363/2/139 408/3/160 368/3/145
f 408/3/160 363/2/139 403/2/154
f 373/2/141 410/2/154 372/2/139
f 410/2/154 373/2/141 411/2/156
f 412/3/158 373/2/141 374/3/143
f 373/2/141 412/3/158 411/2/156
f 372/2/139 400/3/160 375/3/145
f 400/3/160 372/2/139 410/2/154
f 411/2/156 413/2/155 410/2/154
f 413/2/155 411/2/156 414/2/157
f 415/3/159 411/2/156 412/3/158
f 411/2/156 415/3/159 414/2/157
f 410/2/154 416/3/161 400/3/160
f 416/3/161 410/2/154 413/2/155
f 401/4/1 418/4/1 417/4/1
f 418/4/1 401/4/1 407/4/1
f 421/4/1 420/4/1 419/4/1
f 420/4/1 421/4/1 422/4/1
f 423/4/1 416/4/1 400/4/1
f 416/4/1 423/4/1 424/4/1
f 366/4/1 417/4/1 377/4/1
f 417/4/1 366/4/1 401/4/1
f 381/4/1 419/4/1 379/4/1
f 419/4/1 381/4/1 421/4/1
f 383/4/1 400/4/1 375/4/1
f 400/4/1 383/4/1 423/4/1
f 417/5/1 422/5/1 421/5/1
f 422/5/1 417/5/1 418/5/1
f 419/5/1 424/5/1 423/5/1
f 424/5/1 419/5/1 420/5/1
f 377/5/1 421/5/1 381/5/1
f 421/5/1 377/5/1 417/5/1
f 379/5/1 423/5/1 383/5/1
f 423/5/1 379/5/1 419/5/1
f 389/6/151 425/6/162 388/6/150
f 425/6/162 389/6/151 426/6/163
f 399/7/164 389/6/151 390/7/152
f 389/6/151 399/7/164 426/6/163
f 425/6/162 391/7/153 388/6/150
f 391/7/153 425/6/162 427/7/165
f 426/6/163 428/6/166 425/6/162
f 428/6/166 426/6/163 429/6/167
f 430/7/168 426/6/163 399/7/164
f 426/6/163 430/7/168 429/6/167
f 428/6/166 427/7/165 425/6/162
f 427/7/165 428/6/166 431/7/169
f 396/6/151 432/6/162 395/6/150
f 432/6/162 396/6/151 433/6/163
f 434/7/164 396/6/151 397/7/152
f 396/6/151 434/7/164 433/6/163
f 432/6/162 398/7/153 395/6/150
f 398/7/153 432/6/162 402/7/165
f 433/6/163 435/6/166 432/6/162
f 435/6/166 433/6/163 436/6/167
f 437/7/168 433/6/163 434/7/164
f 433/6/163 437/7/168 436/6/167
f 435/6/166 402/7/165 432/6/162
f 402/7/165 435/6/166 438/7/169
f 400/8/1 430/8/1 399/8/1
f 430/8/1 400/8/1 416/8/1
f 402/8/1 407/8/1 401/8/1
f 407/8/1 402/8/1 438/8/1
f 416/1/1 439/1/1 430/1/1
f 439/1/1 416/1/1 440/1/1
f 438/1/1 441/1/1 407/1/1
f 441/1/1 438/1/1 442/1/1
f 445/2/172 444/2/171 443/2/170
f 444/2/171 445/2/172 446/2/173
f 447/3/175 445/2/172 441/3/174
f 445/2/172 447/3/175 446/2/173
f 443/2/170 449/3/177 448/3/176
f 449/3/177 443/2/170 444/2/171
f 406/2/157 443/2/170 404/2/155
f 443/2/170 406/2/157 445/2/172
f 441/3/174 406/2/157 407/3/159
f 406/2/157 441/3/174 445/2/172
f 404/2/155 448/3/176 409/3/161
f 448/3/176 404/2/155 443/2/170
f 414/2/157 450/2/170 413/2/155
f 450/2/170 414/2/157 451/2/172
f 452/3/174 414/2/157 415/3/159
f 414/2/157 452/3/174 451/2/172
f 413/2/155 440/3/176 416/3/161
f 440/3/176 413/2/155 450/2/170
f 451/2/172 453/2/171 450/2/170
f 453/2/171 451/2/172 454/2/173
f 455/3/175 451/2/172 452/3/174
f 451/2/172 455/3/175 454/2/173
f 450/2/170 456/3/177 440/3/176
f 456/3/177 450/2/170 453/2/171
f 441/4/1 458/4/1 457/4/1
f 458/4/1 441/4/1 447/4/1
f 461/4/1 460/4/1 459/4/1
f 460/4/1 461/4/1 462/4/1
f 463/4/1 456/4/1 440/4/1
f 456/4/1 463/4/1 464/4/1
f 407/4/1 457/4/1 418/4/1
f 457/4/1 407/4/1 441/4/1
f 422/4/1 459/4/1 420/4/1
f 459/4/1 422/4/1 461/4/1
f 424/4/1 440/4/1 416/4/1
f 440/4/1 424/4/1 463/4/1
f 457/5/1 462/5/1 461/5/1
f 462/5/1 457/5/1 458/5/1
f 459/5/1 464/5/1 463/5/1
f 464/5/1 459/5/1 460/5/1
f 418/5/1 461/5/1 422/5/1
f 461/5/1 418/5/1 457/5/1
f 420/5/1 463/5/1 424/5/1
f 463/5/1 420/5/1 459/5/1
f 429/6/167 465/6/178 428/6/166
f 465/6/178 429/6/167 466/6/179
f 439/7/180 429/6/167 430/7/168
f 429/6/167 439/7/180 466/6/179
f 465/6/178 431/7/169 428/6/166
f 431/7/169 465/6/178 467/7/181
f 466/6/179 468/6/182 465/6/178
f 468/6/182 466/6/179 469/6/183
f 470/7/184 466/6/179 439/7/180
f 466/6/179 470/7/184 469/6/183
f 468/6/182 467/7/181 465/6/178
f 467/7/181 468/6/182 471/7/185
f 436/6/167 472/6/178 435/6/166
f 472/6/178 436/6/167 473/6/179
f 474/7/180 436/6/167 437/7/168
f 436/6/167 474/7/180 473/6/179
f 472/6/178 438/7/169 435/6/166
f 438/7/169 472/6/178 442/7/181
f 473/6/179 475/6/182 472/6/178
f 475/6/182 473/6/179 476/6/183
f 477/7/184 473/6/179 474/7/180
f 473/6/179 477/7/184 476/6/183
f 475/6/182 442/7/181 472/6/178
f 442/7/181 475/6/182 478/7/185
f 440/8/1 470/8/1 439/8/1
f 470/8/1 440/8/1 456/8/1
f 442/8/1 447/8/1 441/8/1
f 447/8/1 442/8/1 478/8/1
f 456/1/1 479/1/1 470/1/1
f 479/1/1 456/1/1 480/1/1
f 478/1/1 481/1/1 447/1/1
f 481/1/1 478/1/1 482/1/1
f 485/2/188 484/2/187 483/2/186
f 484/2/187 485/2/188 486/2/189
f 487/3/191 485/2/188 481/3/190
f 485/2/188 487/3/191 486/2/189
f 483/2/186 489/3/193 488/3/192
f 489/3/193 483/2/186 484/2/187
f 446/2/173 483/2/186 444/2/171
f 483/2/186 446/2/173 485/2/188
f 481/3/190 446/2/173 447/3/175
f 446/2/173 481/3/190 485/2/188
f 444/2/171 488/3/192 449/3/177
f 488/3/192 444/2/171 483/2/186
f 454/2/173 490/2/186 453/2/171
f 490/2/186 454/2/173 491/2/188
f 492/3/190 454/2/173 455/3/175
f 454/2/173 492/3/190 491/2/188
f 453/2/171 480/3/192 456/3/177
f 480/3/192 453/2/171 490/2/186
f 491/2/188 493/2/187 490/2/186
f 493/2/187 491/2/188 494/2/189
f 495/3/191 491/2/188 492/3/190
f 491/2/188 495/3/191 494/2/189
f 490/2/186 496/3/193 480/3/192
f 496/3/193 490/2/186 493/2/187
f 481/4/1 498/4/1 497/4/1
f 498/4/1 481/4/1 487/4/1
f 501/4/1 500/4/1 499/4/1
f 500/4/1 501/4/1 502/4/1
f 503/4/1 496/4/1 480/4/1
f 496/4/1 503/4/1 504/4/1
f 447/4/1 497/4/1 458/4/1
f 497/4/1 447/4/1 481/4/1
f 462/4/1 499/4/1 460/4/1
f 499/4/1 462/4/1 501/4/1
f 464/4/1 480/4/1 456/4/1
f 480/4/1 464/4/1 503/4/1
f 497/5/1 502/5/1 501/5/1
f 502/5/1 497/5/1 498/5/1
f 499/5/1 504/5/1 503/5/1
f 504/5/1 499/5/1 500/5/1
f 458/5/1 501/5/1 462/5/1
f 501/5/1 458/5/1 497/5/1
f 460/5/1 503/5/1 464/5/1
f 503/5/1 460/5/1 499/5/1
f 469/6/183 505/6/194 468/6/182
f 505/6/194 469/6/183 506/6/195
f 479/7/196 469/6/183 470/7/184
f 469/6/183 479/7/196 506/6/195
f 505/6/194 471/7/185 468/6/182
f 471/7/185 505/6/194 507/7/197
f 506/6/195 508/6/198 505/6/194
f 508/6/198 506/6/195 509/6/199
f 510/7/200 506/6/195 479/7/196
f 506/6/195 510/7/200 509/6/199
f 508/6/198 507/7/197 505/6/194
f 507/7/197 508/6/198 511/7/201
f 476/6/183 512/6/194 475/6/182
f 512/6/194 476/6/183 513/6/195
f 514/7/196 476/6/183 477/7/184
f 476/6/183 514/7/196 513/6/195
f 512/6/194 478/7/185 475/6/182
f 478/7/185 512/6/194 482/7/197
f 513/6/195 515/6/198 512/6/194
f 515/6/198 513/6/195 516/6/199
f 517/7/200 513/6/195 514/7/196
f 513/6/195 517/7/200 516/6/199
f 515/6/198 482/7/197 512/6/194
f 482/7/197 515/6/198 518/7/201
f 480/8/1 519/8/1 479/8/1
f 519/8/1 480/8/1 496/8/1
f 482/8/1 487/8/1 481/8/1
f 487/8/1 482/8/1 518/8/1
f 496/1/1 520/1/1 519/1/1
f 520/1/1 496/1/1 521/1/1
f 518/1/1 522/1/1 487/1/1
f 522/1/1 518/1/1 523/1/1
f 526/2/204 525/2/203 524/2/202
f 525/2/203 526/2/204 527/2/205
f 528/3/207 526/2/204 522/3/206
f 526/2/204 528/3/207 527/2/205
f 524/2/202 530/3/209 529/3/208
f 530/3/209 524/2/202 525/2/203
f 486/2/189 524/2/202 484/2/187
f 524/2/202 486/2/189 526/2/204
f 522/3/206 486/2/189 487/3/191
f 486/2/189 522/3/206 526/2/204
f 484/2/187 529/3/208 489/3/193
f 529/3/208 484/2/187 524/2/202
f 494/2/189 531/2/202 493/2/187
f 531/2/202 494/2/189 532/2/204
f 533/3/206 494/2/189 495/3/191
f 494/2/189 533/3/206 532/2/204
f 493/2/187 521/3/208 496/3/193
f 521/3/208 493/2/187 531/2/202
f 532/2/204 534/2/203 531/2/202
f 534/2/203 532/2/204 535/2/205
f 536/3/207 532/2/204 533/3/206
f 532/2/204 536/3/207 535/2/205
f 531/2/202 537/3/209 521/3/208
f 537/3/209 531/2/202 534/2/203
f 522/4/1 539/4/1 538/4/1
f 539/4/1 522/4/1 528/4/1
f 542/4/1 541/4/1 540/4/1
f 541/4/1 542/4/1 543/4/1
f 544/4/1 537/4/1 521/4/1
f 537/4/1 544/4/1 545/4/1
f 487/4/1 538/4/1 498/4/1
f 538/4/1 487/4/1 522/4/1
f 502/4/1 540/4/1 500/4/1
f 540/4/1 502/4/1 542/4/1
f 504/4/1 521/4/1 496/4/1
f 521/4/1 504/4/1 544/4/1
f 538/5/1 543/5/1 542/5/1
f 543/5/1 538/5/1 539/5/1
f 540/5/1 545/5/1 544/5/1
f 545/5/1 540/5/1 541/5/1
f 498/5/1 542/5/1 502/5/1
f 542/5/1 498/5/1 538/5/1
f 500/5/1 544/5/1 504/5/1
f 544/5/1 500/5/1 540/5/1
f 509/6/199 546/6/210 508/6/198
f 546/6/210 509/6/199 547/6/211
f 548/7/212 509/6/199 510/7/200
f 509/6/199 548/7/212 547/6/211
f 546/6/210 511/7/201 508/6/198
f 511/7/201 546/6/210 549/7/213
f 547/6/211 550/6/214 546/6/210
f 550/6/214 547/6/211 551/6/215
f 552/7/216 547/6/211 548/7/212
f 547/6/211 552/7/216 551/6/215
f 550/6/214 549/7/213 546/6/210
f 549/7/213 550/6/214 553/7/217
f 516/6/199 554/6/210 515/6/198
f 554/6/210 516/6/199 555/6/211
f 556/7/212 516/6/199 517/7/200
f 516/6/199 556/7/212 555/6/211
f 554/6/210 518/7/201 515/6/198
f 518/7/201 554/6/210 523/7/213
f 555/6/211 557/6/214 554/6/210
f 557/6/214 555/6/211 558/6/215
f 559/7/216 555/6/211 556/7/212
f 555/6/211 559/7/216 558/6/215
f 557/6/214 523/7/213 554/6/210
f 523/7/213 557/6/214 560/7/217
f 521/8/1 552/8/1 520/8/1
f 552/8/1 521/8/1 537/8/1
f 523/8/1 528/8/1 522/8/1
f 528/8/1 523/8/1 560/8/1

g track-road-corner-larger




usemtl colormap

f 3/1/1 2/1/1 1/1/1
f 2/1/1 3/1/1 4/1/1
f 7/1/1 6/1/1 5/1/1
f 6/1/1 7/1/1 8/1/1
f 11/2/4 10/2/3 9/2/2
f 10/2/3 11/2/4 12/2/5
f 13/3/7 11/2/4 6/3/6
f 11/2/4 13/3/7 12/2/5
f 9/2/2 15/3/9 14/3/8
f 15/3/9 9/2/2 10/2/3
f 17/2/11 9/2/2 16/2/10
f 9/2/2 17/2/11 11/2/4
f 6/3/6 17/2/11 5/3/12
f 17/2/11 6/3/6 11/2/4
f 16/2/10 14/3/8 18/3/13
f 14/3/8 16/2/10 9/2/2
f 21/2/11 20/2/2 19/2/10
f 20/2/2 21/2/11 22/2/4
f 24/3/6 21/2/11 23/3/12
f 21/2/11 24/3/6 22/2/4
f 19/2/10 4/3/8 3/3/13
f 4/3/8 19/2/10 20/2/2
f 22/2/4 25/2/3 20/2/2
f 25/2/3 22/2/4 26/2/5
f 27/3/7 22/2/4 24/3/6
f 22/2/4 27/3/7 26/2/5
f 20/2/2 28/3/9 4/3/8
f 28/3/9 20/2/2 25/2/3
f 6/4/1 30/4/1 29/4/1
f 30/4/1 6/4/1 13/4/1
f 33/4/1 32/4/1 31/4/1
f 32/4/1 33/4/1 34/4/1
f 35/4/1 28/4/1 4/4/1
f 28/4/1 35/4/1 36/4/1
f 5/4/1 29/4/1 37/4/1
f 29/4/1 5/4/1 6/4/1
f 39/4/1 31/4/1 38/4/1
f 31/4/1 39/4/1 33/4/1
f 40/4/1 4/4/1 3/4/1
f 4/4/1 40/4/1 35/4/1
f 29/5/1 34/5/1 33/5/1
f 34/5/1 29/5/1 30/5/1
f 31/5/1 36/5/1 35/5/1
f 36/5/1 31/5/1 32/5/1
f 37/5/1 33/5/1 39/5/1
f 33/5/1 37/5/1 29/5/1
f 38/5/1 35/5/1 40/5/1
f 35/5/1 38/5/1 31/5/1
f 43/6/16 42/6/15 41/6/14
f 42/6/15 43/6/16 44/6/17
f 45/7/19 43/6/16 1/7/18
f 43/6/16 45/7/19 44/6/17
f 42/6/15 46/7/20 41/6/14
f 46/7/20 42/6/15 47/7/21
f 44/6/17 48/6/22 42/6/15
f 48/6/22 44/6/17 49/6/23
f 50/7/24 44/6/17 45/7/19
f 44/6/17 50/7/24 49/6/23
f 48/6/22 47/7/21 42/6/15
f 47/7/21 48/6/22 51/7/25
f 54/6/16 53/6/15 52/6/14
f 53/6/15 54/6/16 55/6/17
f 57/7/19 54/6/16 56/7/18
f 54/6/16 57/7/19 55/6/17
f 53/6/15 58/7/20 52/6/14
f 58/7/20 53/6/15 59/7/21
f 55/6/17 60/6/22 53/6/15
f 60/6/22 55/6/17 61/6/23
f 62/7/24 55/6/17 57/7/19
f 55/6/17 62/7/24 61/6/23
f 60/6/22 59/7/21 53/6/15
f 59/7/21 60/6/22 63/7/25
f 4/8/1 64/8/1 2/8/1
f 64/8/1 4/8/1 28/8/1
f 8/8/1 13/8/1 6/8/1
f 13/8/1 8/8/1 65/8/1
f 28/1/1 66/1/1 64/1/1
f 66/1/1 28/1/1 67/1/1
f 65/1/1 68/1/1 13/1/1
f 68/1/1 65/1/1 69/1/1
f 72/2/28 71/2/27 70/2/26
f 71/2/27 72/2/28 73/2/29
f 74/3/31 72/2/28 68/3/30
f 72/2/28 74/3/31 73/2/29
f 70/2/26 76/3/33 75/3/32
f 76/3/33 70/2/26 71/2/27
f 12/2/5 70/2/26 10/2/3
f 70/2/26 12/2/5 72/2/28
f 68/3/30 12/2/5 13/3/7
f 12/2/5 68/3/30 72/2/28
f 10/2/3 75/3/32 15/3/9
f 75/3/32 10/2/3 70/2/26
f 26/2/5 77/2/26 25/2/3
f 77/2/26 26/2/5 78/2/28
f 79/3/30 26/2/5 27/3/7
f 26/2/5 79/3/30 78/2/28
f 25/2/3 67/3/32 28/3/9
f 67/3/32 25/2/3 77/2/26
f 78/2/28 80/2/27 77/2/26
f 80/2/27 78/2/28 81/2/29
f 82/3/31 78/2/28 79/3/30
f 78/2/28 82/3/31 81/2/29
f 77/2/26 83/3/33 67/3/32
f 83/3/33 77/2/26 80/2/27
f 68/4/1 85/4/1 84/4/1
f 85/4/1 68/4/1 74/4/1
f 88/4/1 87/4/1 86/4/1
f 87/4/1 88/4/1 89/4/1
f 90/4/1 83/4/1 67/4/1
f 83/4/1 90/4/1 91/4/1
f 13/4/1 84/4/1 30/4/1
f 84/4/1 13/4/1 68/4/1
f 34/4/1 86/4/1 32/4/1
f 86/4/1 34/4/1 88/4/1
f 36/4/1 67/4/1 28/4/1
f 67/4/1 36/4/1 90/4/1
f 84/5/1 89/5/1 88/5/1
f 89/5/1 84/5/1 85/5/1
f 86/5/1 91/5/1 90/5/1
f 91/5/1 86/5/1 87/5/1
f 30/5/1 88/5/1 34/5/1
f 88/5/1 30/5/1 84/5/1
f 32/5/1 90/5/1 36/5/1
f 90/5/1 32/5/1 86/5/1
f 49/6/23 92/6/34 48/6/22
f 92/6/34 49/6/23 93/6/35
f 94/7/36 49/6/23 50/7/24
f 49/6/23 94/7/36 93/6/35
f 92/6/34 51/7/25 48/6/22
f 51/7/25 92/6/34 95/7/37
f 93/6/35 96/6/38 92/6/34
f 96/6/38 93/6/35 97/6/39
f 98/7/40 93/6/35 94/7/36
f 93/6/35 98/7/40 97/6/39
f 96/6/38 95/7/37 92/6/34
f 95/7/37 96/6/38 99/7/41
f 61/6/23 100/6/34 60/6/22
f 100/6/34 61/6/23 101/6/35
f 102/7/36 61/6/23 62/7/24
f 61/6/23 102/7/36 101/6/35
f 100/6/34 63/7/25 60/6/22
f 63/7/25 100/6/34 103/7/37
f 101/6/35 104/6/38 100/6/34
f 104/6/38 101/6/35 105/6/39
f 106/7/40 101/6/35 102/7/36
f 101/6/35 106/7/40 105/6/39
f 104/6/38 103/7/37 100/6/34
f 103/7/37 104/6/38 107/7/41
f 67/8/1 98/8/1 66/8/1
f 98/8/1 67/8/1 83/8/1
f 69/8/1 74/8/1 68/8/1
f 74/8/1 69/8/1 107/8/1
f 83/1/1 108/1/1 98/1/1
f 108/1/1 83/1/1 109/1/1
f 107/1/1 110/1/1 74/1/1
f 110/1/1 107/1/1 111/1/1
f 114/2/44 113/2/43 112/2/42
f 113/2/43 114/2/44 115/2/45
f 116/3/47 114/2/44 110/3/46
f 114/2/44 116/3/47 115/2/45
f 112/2/42 118/3/49 117/3/48
f 118/3/49 112/2/42 113/2/43
f 73/2/29 112/2/42 71/2/27
f 112/2/42 73/2/29 114/2/44
f 110/3/46 73/2/29 74/3/31
f 73/2/29 110/3/46 114/2/44
f 71/2/27 117/3/48 76/3/33
f 117/3/48 71/2/27 112/2/42
f 81/2/29 119/2/42 80/2/27
f 119/2/42 81/2/29 120/2/44
f 121/3/46 81/2/29 82/3/31
f 81/2/29 121/3/46 120/2/44
f 80/2/27 109/3/48 83/3/33
f 109/3/48 80/2/27 119/2/42
f 120/2/44 122/2/43 119/2/42
f 122/2/43 120/2/44 123/2/45
f 124/3/47 120/2/44 121/3/46
f 120/2/44 124/3/47 123/2/45
f 119/2/42 125/3/49 109/3/48
f 125/3/49 119/2/42 122/2/43
f 110/4/1 127/4/1 126/4/1
f 127/4/1 110/4/1 116/4/1
f 130/4/1 129/4/1 128/4/1
f 129/4/1 130/4/1 131/4/1
f 132/4/1 125/4/1 109/4/1
f 125/4/1 132/4/1 133/4/1
f 74/4/1 126/4/1 85/4/1
f 126/4/1 74/4/1 110/4/1
f 89/4/1 128/4/1 87/4/1
f 128/4/1 89/4/1 130/4/1
f 91/4/1 109/4/1 83/4/1
f 109/4/1 91/4/1 132/4/1
f 126/5/1 131/5/1 130/5/1
f 131/5/1 126/5/1 127/5/1
f 128/5/1 133/5/1 132/5/1
f 133/5/1 128/5/1 129/5/1
f 85/5/1 130/5/1 89/5/1
f 130/5/1 85/5/1 126/5/1
f 87/5/1 132/5/1 91/5/1
f 132/5/1 87/5/1 128/5/1
f 97/6/39 134/6/50 96/6/38
f 134/6/50 97/6/39 135/6/51
f 108/7/52 97/6/39 98/7/40
f 97/6/39 108/7/52 135/6/51
f 134/6/50 99/7/41 96/6/38
f 99/7/41 134/6/50 136/7/53
f 135/6/51 137/6/54 134/6/50
f 137/6/54 135/6/51 138/6/55
f 139/7/56 135/6/51 108/7/52
f 135/6/51 139/7/56 138/6/55
f 137/6/54 136/7/53 134/6/50
f 136/7/53 137/6/54 140/7/57
f 105/6/39 141/6/50 104/6/38
f 141/6/50 105/6/39 142/6/51
f 143/7/52 105/6/39 106/7/40
f 105/6/39 143/7/52 142/6/51
f 141/6/50 107/7/41 104/6/38
f 107/7/41 141/6/50 144/7/53
f 142/6/51 145/6/54 141/6/50
f 145/6/54 142/6/51 146/6/55
f 147/7/56 142/6/51 143/7/52
f 142/6/51 147/7/56 146/6/55
f 145/6/54 144/7/53 141/6/50
f 144/7/53 145/6/54 148/7/57
f 109/8/1 139/8/1 108/8/1
f 139/8/1 109/8/1 125/8/1
f 111/8/1 116/8/1 110/8/1
f 116/8/1 111/8/1 149/8/1
f 125/1/1 150/1/1 139/1/1
f 150/1/1 125/1/1 151/1/1
f 149/1/1 152/1/1 116/1/1
f 152/1/1 149/1/1 153/1/1
f 156/2/60 155/2/59 154/2/58
f 155/2/59 156/2/60 157/2/61
f 158/3/63 156/2/60 152/3/62
f 156/2/60 158/3/63 157/2/61
f 154/2/58 160/3/65 159/3/64
f 160/3/65 154/2/58 155/2/59
f 115/2/45 154/2/58 113/2/43
f 154/2/58 115/2/45 156/2/60
f 152/3/62 115/2/45 116/3/47
f 115/2/45 152/3/62 156/2/60
f 113/2/43 159/3/64 118/3/49
f 159/3/64 113/2/43 154/2/58
f 123/2/45 161/2/58 122/2/43
f 161/2/58 123/2/45 162/2/60
f 163/3/62 123/2/45 124/3/47
f 123/2/45 163/3/62 162/2/60
f 122/2/43 151/3/64 125/3/49
f 151/3/64 122/2/43 161/2/58
f 162/2/60 164/2/59 161/2/58
f 164/2/59 162/2/60 165/2/61
f 166/3/63 162/2/60 163/3/62
f 162/2/60 166/3/63 165/2/61
f 161/2/58 167/3/65 151/3/64
f 167/3/65 161/2/58 164/2/59
f 152/4/1 169/4/1 168/4/1
f 169/4/1 152/4/1 158/4/1
f 172/4/1 171/4/1 170/4/1
f 171/4/1 172/4/1 173/4/1
f 174/4/1 167/4/1 151/4/1
f 167/4/1 174/4/1 175/4/1
f 116/4/1 168/4/1 127/4/1
f 168/4/1 116/4/1 152/4/1
f 131/4/1 170/4/1 129/4/1
f 170/4/1 131/4/1 172/4/1
f 133/4/1 151/4/1 125/4/1
f 151/4/1 133/4/1 174/4/1
f 168/5/1 173/5/1 172/5/1
f 173/5/1 168/5/1 169/5/1
f 170/5/1 175/5/1 174/5/1
f 175/5/1 170/5/1 171/5/1
f 127/5/1 172/5/1 131/5/1
f 172/5/1 127/5/1 168/5/1
f 129/5/1 174/5/1 133/5/1
f 174/5/1 129/5/1 170/5/1
f 138/6/55 176/6/66 137/6/54
f 176/6/66 138/6/55 177/6/67
f 178/7/68 138/6/55 139/7/56
f 138/6/55 178/7/68 177/6/67
f 176/6/66 140/7/57 137/6/54
f 140/7/57 176/6/66 179/7/69
f 177/6/67 180/6/70 176/6/66
f 180/6/70 177/6/67 181/6/71
f 182/7/72 177/6/67 178/7/68
f 177/6/67 182/7/72 181/6/71
f 180/6/70 179/7/69 176/6/66
f 179/7/69 180/6/70 183/7/73
f 146/6/55 184/6/66 145/6/54
f 184/6/66 146/6/55 185/6/67
f 186/7/68 146/6/55 147/7/56
f 146/6/55 186/7/68 185/6/67
f 184/6/66 148/7/57 145/6/54
f 148/7/57 184/6/66 153/7/69
f 185/6/67 187/6/70 184/6/66
f 187/6/70 185/6/67 188/6/71
f 189/7/72 185/6/67 186/7/68
f 185/6/67 189/7/72 188/6/71
f 187/6/70 153/7/69 184/6/66
f 153/7/69 187/6/70 190/7/73
f 151/8/1 191/8/1 150/8/1
f 191/8/1 151/8/1 167/8/1
f 153/8/1 158/8/1 152/8/1
f 158/8/1 153/8/1 192/8/1
f 167/1/1 193/1/1 191/1/1
f 193/1/1 167/1/1 194/1/1
f 192/1/1 195/1/1 158/1/1
f 195/1/1 192/1/1 196/1/1
f 199/2/76 198/2/75 197/2/74
f 198/2/75 199/2/76 200/2/77
f 201/3/79 199/2/76 195/3/78
f 199/2/76 201/3/79 200/2/77
f 197/2/74 203/3/81 202/3/80
f 203/3/81 197/2/74 198/2/75
f 157/2/61 197/2/74 155/2/59
f 197/2/74 157/2/61 199/2/76
f 195/3/78 157/2/61 158/3/63
f 157/2/61 195/3/78 199/2/76
f 155/2/59 202/3/80 160/3/65
f 202/3/80 155/2/59 197/2/74
f 165/2/61 204/2/74 164/2/59
f 204/2/74 165/2/61 205/2/76
f 206/3/78 165/2/61 166/3/63
f 165/2/61 206/3/78 205/2/76
f 164/2/59 194/3/80 167/3/65
f 194/3/80 164/2/59 204/2/74
f 205/2/76 207/2/75 204/2/74
f 207/2/75 205/2/76 208/2/77
f 209/3/79 205/2/76 206/3/78
f 205/2/76 209/3/79 208/2/77
f 204/2/74 210/3/81 194/3/80
f 210/3/81 204/2/74 207/2/75
f 195/4/1 212/4/1 211/4/1
f 212/4/1 195/4/1 201/4/1
f 215/4/1 214/4/1 213/4/1
f 214/4/1 215/4/1 216/4/1
f 217/4/1 210/4/1 194/4/1
f 210/4/1 217/4/1 218/4/1
f 158/4/1 211/4/1 169/4/1
f 211/4/1 158/4/1 195/4/1
f 173/4/1 213/4/1 171/4/1
f 213/4/1 173/4/1 215/4/1
f 175/4/1 194/4/1 167/4/1
f 194/4/1 175/4/1 217/4/1
f 211/5/1 216/5/1 215/5/1
f 216/5/1 211/5/1 212/5/1
f 213/5/1 218/5/1 217/5/1
f 218/5/1 213/5/1 214/5/1
f 169/5/1 215/5/1 173/5/1
f 215/5/1 169/5/1 211/5/1
f 171/5/1 217/5/1 175/5/1
f 217/5/1 171/5/1 213/5/1
f 181/6/71 219/6/82 180/6/70
f 219/6/82 181/6/71 220/6/83
f 193/7/84 181/6/71 182/7/72
f 181/6/71 193/7/84 220/6/83
f 219/6/82 183/7/73 180/6/70
f 183/7/73 219/6/82 221/7/85
f 220/6/83 222/6/86 219/6/82
f 222/6/86 220/6/83 223/6/87
f 224/7/88 220/6/83 193/7/84
f 220/6/83 224/7/88 223/6/87
f 222/6/86 221/7/85 219/6/82
f 221/7/85 222/6/86 225/7/89
f 188/6/71 226/6/82 187/6/70
f 226/6/82 188/6/71 227/6/83
f 228/7/84 188/6/71 189/7/72
f 188/6/71 228/7/84 227/6/83
f 226/6/82 190/7/73 187/6/70
f 190/7/73 226/6/82 196/7/85
f 227/6/83 229/6/86 226/6/82
f 229/6/86 227/6/83 230/6/87
f 231/7/88 227/6/83 228/7/84
f 227/6/83 231/7/88 230/6/87
f 229/6/86 196/7/85 226/6/82
f 196/7/85 229/6/86 232/7/89
f 194/8/1 224/8/1 193/8/1
f 224/8/1 194/8/1 210/8/1
f 196/8/1 201/8/1 195/8/1
f 201/8/1 196/8/1 232/8/1
f 210/1/1 233/1/1 224/1/1
f 233/1/1 210/1/1 234/1/1
f 232/1/1 235/1/1 201/1/1
f 235/1/1 232/1/1 236/1/1
f 239/2/92 238/2/91 237/2/90
f 238/2/91 239/2/92 240/2/93
f 241/3/95 239/2/92 235/3/94
f 239/2/92 241/3/95 240/2/93
f 237/2/90 243/3/97 242/3/96
f 243/3/97 237/2/90 238/2/91
f 200/2/77 237/2/90 198/2/75
f 237/2/90 200/2/77 239/2/92
f 235/3/94 200/2/77 201/3/79
f 200/2/77 235/3/94 239/2/92
f 198/2/75 242/3/96 203/3/81
f 242/3/96 198/2/75 237/2/90
f 208/2/77 244/2/90 207/2/75
f 244/2/90 208/2/77 245/2/92
f 246/3/94 208/2/77 209/3/79
f 208/2/77 246/3/94 245/2/92
f 207/2/75 234/3/96 210/3/81
f 234/3/96 207/2/75 244/2/90
f 245/2/92 247/2/91 244/2/90
f 247/2/91 245/2/92 248/2/93
f 249/3/95 245/2/92 246/3/94
f 245/2/92 249/3/95 248/2/93
f 244/2/90 250/3/97 234/3/96
f 250/3/97 244/2/90 247/2/91
f 235/4/1 252/4/1 251/4/1
f 252/4/1 235/4/1 241/4/1
f 255/4/1 254/4/1 253/4/1
f 254/4/1 255/4/1 256/4/1
f 257/4/1 250/4/1 234/4/1
f 250/4/1 257/4/1 258/4/1
f 201/4/1 251/4/1 212/4/1
f 251/4/1 201/4/1 235/4/1
f 216/4/1 253/4/1 214/4/1
f 253/4/1 216/4/1 255/4/1
f 218/4/1 234/4/1 210/4/1
f 234/4/1 218/4/1 257/4/1
f 251/5/1 256/5/1 255/5/1
f 256/5/1 251/5/1 252/5/1
f 253/5/1 258/5/1 257/5/1
f 258/5/1 253/5/1 254/5/1
f 212/5/1 255/5/1 216/5/1
f 255/5/1 212/5/1 251/5/1
f 214/5/1 257/5/1 218/5/1
f 257/5/1 214/5/1 253/5/1
f 223/6/87 259/6/98 222/6/86
f 259/6/98 223/6/87 260/6/99
f 261/7/100 223/6/87 224/7/88
f 223/6/87 261/7/100 260/6/99
f 259/6/98 225/7/89 222/6/86
f 225/7/89 259/6/98 262/7/101
f 260/6/99 263/6/102 259/6/98
f 263/6/102 260/6/99 264/6/103
f 265/7/104 260/6/99 261/7/100
f 260/6/99 265/7/104 264/6/103
f 263/6/102 262/7/101 259/6/98
f 262/7/101 263/6/102 266/7/105
f 230/6/87 267/6/98 229/6/86
f 267/6/98 230/6/87 268/6/99
f 269/7/100 230/6/87 231/7/88
f 230/6/87 269/7/100 268/6/99
f 267/6/98 232/7/89 229/6/86
f 232/7/89 267/6/98 236/7/101
f 268/6/99 270/6/102 267/6/98
f 270/6/102 268/6/99 271/6/103
f 272/7/104 268/6/99 269/7/100
f 268/6/99 272/7/104 271/6/103
f 270/6/102 236/7/101 267/6/98
f 236/7/101 270/6/102 273/7/105
f 234/8/1 274/8/1 233/8/1
f 274/8/1 234/8/1 250/8/1
f 236/8/1 241/8/1 235/8/1
f 241/8/1 236/8/1 275/8/1
f 250/1/1 276/1/1 274/1/1
f 276/1/1 250/1/1 277/1/1
f 275/1/1 278/1/1 241/1/1
f 278/1/1 275/1/1 279/1/1
f 282/2/108 281/2/107 280/2/106
f 281/2/107 282/2/108 283/2/109
f 284/3/111 282/2/108 278/3/110
f 282/2/108 284/3/111 283/2/109
f 280/2/106 286/3/113 285/3/112
f 286/3/113 280/2/106 281/2/107
f 240/2/93 280/2/106 238/2/91
f 280/2/106 240/2/93 282/2/108
f 278/3/110 240/2/93 241/3/95
f 240/2/93 278/3/110 282/2/108
f 238/2/91 285/3/112 243/3/97
f 285/3/112 238/2/91 280/2/106
f 248/2/93 287/2/106 247/2/91
f 287/2/106 248/2/93 288/2/108
f 289/3/110 248/2/93 249/3/95
f 248/2/93 289/3/110 288/2/108
f 247/2/91 277/3/112 250/3/97
f 277/3/112 247/2/91 287/2/106
f 288/2/108 290/2/107 287/2/106
f 290/2/107 288/2/108 291/2/109
f 292/3/111 288/2/108 289/3/110
f 288/2/108 292/3/111 291/2/109
f 287/2/106 293/3/113 277/3/112
f 293/3/113 287/2/106 290/2/107
f 278/4/1 295/4/1 294/4/1
f 295/4/1 278/4/1 284/4/1
f 298/4/1 297/4/1 296/4/1
f 297/4/1 298/4/1 299/4/1
f 300/4/1 293/4/1 277/4/1
f 293/4/1 300/4/1 301/4/1
f 241/4/1 294/4/1 252/4/1
f 294/4/1 241/4/1 278/4/1
f 256/4/1 296/4/1 254/4/1
f 296/4/1 256/4/1 298/4/1
f 258/4/1 277/4/1 250/4/1
f 277/4/1 258/4/1 300/4/1
f 294/5/1 299/5/1 298/5/1
f 299/5/1 294/5/1 295/5/1
f 296/5/1 301/5/1 300/5/1
f 301/5/1 296/5/1 297/5/1
f 252/5/1 298/5/1 256/5/1
f 298/5/1 252/5/1 294/5/1
f 254/5/1 300/5/1 258/5/1
f 300/5/1 254/5/1 296/5/1
f 264/6/103 302/6/114 263/6/102
f 302/6/114 264/6/103 303/6/115
f 276/7/116 264/6/103 265/7/104
f 264/6/103 276/7/116 303/6/115
f 302/6/114 266/7/105 263/6/102
f 266/7/105 302/6/114 304/7/117
f 303/6/115 305/6/118 302/6/114
f 305/6/118 303/6/115 306/6/119
f 307/7/120 303/6/115 276/7/116
f 303/6/115 307/7/120 306/6/119
f 305/6/118 304/7/117 302/6/114
f 304/7/117 305/6/118 308/7/121
f 271/6/103 309/6/114 270/6/102
f 309/6/114 271/6/103 310/6/115
f 311/7/116 271/6/103 272/7/104
f 271/6/103 311/7/116 310/6/115
f 309/6/114 273/7/105 270/6/102
f 273/7/105 309/6/114 279/7/117
f 310/6/115 312/6/118 309/6/114
f 312/6/118 310/6/115 313/6/119
f 314/7/120 310/6/115 311/7/116
f 310/6/115 314/7/120 313/6/119
f 312/6/118 279/7/117 309/6/114
f 279/7/117 312/6/118 315/7/121
f 277/8/1 316/8/1 276/8/1
f 316/8/1 277/8/1 293/8/1
f 279/8/1 284/8/1 278/8/1
f 284/8/1 279/8/1 317/8/1
f 293/1/1 318/1/1 316/1/1
f 318/1/1 293/1/1 319/1/1
f 317/1/1 320/1/1 284/1/1
f 320/1/1 317/1/1 321/1/1
f 324/2/124 323/2/123 322/2/122
f 323/2/123 324/2/124 325/2/125
f 326/3/127 324/2/124 320/3/126
f 324/2/124 326/3/127 325/2/125
f 322/2/122 328/3/129 327/3/128
f 328/3/129 322/2/122 323/2/123
f 283/2/109 322/2/122 281/2/107
f 322/2/122 283/2/109 324/2/124
f 320/3/126 283/2/109 284/3/111
f 283/2/109 320/3/126 324/2/124
f 281/2/107 327/3/128 286/3/113
f 327/3/128 281/2/107 322/2/122
f 291/2/109 329/2/122 290/2/107
f 329/2/122 291/2/109 330/2/124
f 331/3/126 291/2/109 292/3/111
f 291/2/109 331/3/126 330/2/124
f 290/2/107 319/3/128 293/3/113
f 319/3/128 290/2/107 329/2/122
f 330/2/124 332/2/123 329/2/122
f 332/2/123 330/2/124 333/2/125
f 334/3/127 330/2/124 331/3/126
f 330/2/124 334/3/127 333/2/125
f 329/2/122 335/3/129 319/3/128
f 335/3/129 329/2/122 332/2/123
f 320/4/1 337/4/1 336/4/1
f 337/4/1 320/4/1 326/4/1
f 340/4/1 339/4/1 338/4/1
f 339/4/1 340/4/1 341/4/1
f 342/4/1 335/4/1 319/4/1
f 335/4/1 342/4/1 343/4/1
f 284/4/1 336/4/1 295/4/1
f 336/4/1 284/4/1 320/4/1
f 299/4/1 338/4/1 297/4/1
f 338/4/1 299/4/1 340/4/1
f 301/4/1 319/4/1 293/4/1
f 319/4/1 301/4/1 342/4/1
f 336/5/1 341/5/1 340/5/1
f 341/5/1 336/5/1 337/5/1
f 338/5/1 343/5/1 342/5/1
f 343/5/1 338/5/1 339/5/1
f 295/5/1 340/5/1 299/5/1
f 340/5/1 295/5/1 336/5/1
f 297/5/1 342/5/1 301/5/1
f 342/5/1 297/5/1 338/5/1
f 306/6/119 344/6/130 305/6/118
f 344/6/130 306/6/119 345/6/131
f 318/7/132 306/6/119 307/7/120
f 306/6/119 318/7/132 345/6/131
f 344/6/130 308/7/121 305/6/118
f 308/7/121 344/6/130 346/7/133
f 345/6/131 347/6/134 344/6/130
f 347/6/134 345/6/131 348/6/135
f 349/7/136 345/6/131 318/7/132
f 345/6/131 349/7/136 348/6/135
f 347/6/134 346/7/133 344/6/130
f 346/7/133 347/6/134 350/7/137
f 313/6/119 351/6/130 312/6/118
f 351/6/130 313/6/119 352/6/131
f 353/7/132 313/6/119 314/7/120
f 313/6/119 353/7/132 352/6/131
f 351/6/130 315/7/121 312/6/118
f 315/7/121 351/6/130 321/7/133
f 352/6/131 354/6/134 351/6/130
f 354/6/134 352/6/131 355/6/135
f 356/7/136 352/6/131 353/7/132
f 352/6/131 356/7/136 355/6/135
f 354/6/134 321/7/133 351/6/130
f 321/7/133 354/6/134 357/7/137
f 319/8/1 349/8/1 318/8/1
f 349/8/1 319/8/1 335/8/1
f 321/8/1 326/8/1 320/8/1
f 326/8/1 321/8/1 357/8/1
f 335/1/1 358/1/1 349/1/1
f 358/1/1 335/1/1 359/1/1
f 357/1/1 360/1/1 326/1/1
f 360/1/1 357/1/1 361/1/1
f 364/2/140 363/2/139 362/2/138
f 363/2/139 364/2/140 365/2/141
f 366/3/143 364/2/140 360/3/142
f 364/2/140 366/3/143 365/2/141
f 362/2/138 368/3/145 367/3/144
f 368/3/145 362/2/138 363/2/139
f 325/2/125 362/2/138 323/2/123
f 362/2/138 325/2/125 364/2/140
f 360/3/142 325/2/125 326/3/127
f 325/2/125 360/3/142 364/2/140
f 323/2/123 367/3/144 328/3/129
f 367/3/144 323/2/123 362/2/138
f 333/2/125 369/2/138 332/2/123
f 369/2/138 333/2/125 370/2/140
f 371/3/142 333/2/125 334/3/127
f 333/2/125 371/3/142 370/2/140
f 332/2/123 359/3/144 335/3/129
f 359/3/144 332/2/123 369/2/138
f 370/2/140 372/2/139 369/2/138
f 372/2/139 370/2/140 373/2/141
f 374/3/143 370/2/140 371/3/142
f 370/2/140 374/3/143 373/2/141
f 369/2/138 375/3/145 359/3/144
f 375/3/145 369/2/138 372/2/139
f 360/4/1 377/4/1 376/4/1
f 377/4/1 360/4/1 366/4/1
f 380/4/1 379/4/1 378/4/1
f 379/4/1 380/4/1 381/4/1
f 382/4/1 375/4/1 359/4/1
f 375/4/1 382/4/1 383/4/1
f 326/4/1 376/4/1 337/4/1
f 376/4/1 326/4/1 360/4/1
f 341/4/1 378/4/1 339/4/1
f 378/4/1 341/4/1 380/4/1
f 343/4/1 359/4/1 335/4/1
f 359/4/1 343/4/1 382/4/1
f 376/5/1 381/5/1 380/5/1
f 381/5/1 376/5/1 377/5/1
f 378/5/1 383/5/1 382/5/1
f 383/5/1 378/5/1 379/5/1
f 337/5/1 380/5/1 341/5/1
f 380/5/1 337/5/1 376/5/1
f 339/5/1 382/5/1 343/5/1
f 382/5/1 339/5/1 378/5/1
f 348/6/135 384/6/146 347/6/134
f 384/6/146 348/6/135 385/6/147
f 386/7/148 348/6/135 349/7/136
f 348/6/135 386/7/148 385/6/147
f 384/6/146 350/7/137 347/6/134
f 350/7/137 384/6/146 387/7/149
f 385/6/147 388/6/150 384/6/146
f 388/6/150 385/6/147 389/6/151
f 390/7/152 385/6/147 386/7/148
f 385/6/147 390/7/152 389/6/151
f 388/6/150 387/7/149 384/6/146
f 387/7/149 388/6/150 391/7/153
f 355/6/135 392/6/146 354/6/134
f 392/6/146 355/6/135 393/6/147
f 394/7/148 355/6/135 356/7/136
f 355/6/135 394/7/148 393/6/147
f 392/6/146 357/7/137 354/6/134
f 357/7/137 392/6/146 361/7/149
f 393/6/147 395/6/150 392/6/146
f 395/6/150 393/6/147 396/6/151
f 397/7/152 393/6/147 394/7/148
f 393/6/147 397/7/152 396/6/151
f 395/6/150 361/7/149 392/6/146
f 361/7/149 395/6/150 398/7/153
f 359/8/1 390/8/1 358/8/1
f 390/8/1 359/8/1 375/8/1
f 361/8/1 366/8/1 360/8/1
f 366/8/1 361/8/1 398/8/1
f 375/1/1 399/1/1 390/1/1
f 399/1/1 375/1/1 400/1/1
f 398/1/1 401/1/1 366/1/1
f 401/1/1 398/1/1 402/1/1
f 405/2/156 404/2/155 403/2/154
f 404/2/155 405/2/156 406/2/157
f 407/3/159 405/2/156 401/3/158
f 405/2/156 407/3/159 406/2/157
f 403/2/154 409/3/161 408/3/160
f 409/3/161 403/2/154 404/2/155
f 365/2/141 403/2/154 363/2/139
f 403/2/154 365/2/141 405/2/156
f 401/3/158 365/2/141 366/3/143
f 365/2/141 401/3/158 405/2/156
f 363/2/139 408/3/160 368/3/145
f 408/3/160 363/2/139 403/2/154
f 373/2/141 410/2/154 372/2/139
f 410/2/154 373/2/141 411/2/156
f 412/3/158 373/2/141 374/3/143
f 373/2/141 412/3/158 411/2/156
f 372/2/139 400/3/160 375/3/145
f 400/3/160 372/2/139 410/2/154
f 411/2/156 413/2/155 410/2/154
f 413/2/155 411/2/156 414/2/157
f 415/3/159 411/2/156 412/3/158
f 411/2/156 415/3/159 414/2/157
f 410/2/154 416/3/161 400/3/160
f 416/3/161 410/2/154 413/2/155
f 401/4/1 418/4/1 417/4/1
f 418/4/1 401/4/1 407/4/1
f 421/4/1 420/4/1 419/4/1
f 420/4/1 421/4/1 422/4/1
f 423/4/1 416/4/1 400/4/1
f 416/4/1 423/4/1 424/4/1
f 366/4/1 417/4/1 377/4/1
f 417/4/1 366/4/1 401/4/1
f 381/4/1 419/4/1 379/4/1
f 419/4/1 381/4/1 421/4/1
f 383/4/1 400/4/1 375/4/1
f 400/4/1 383/4/1 423/4/1
f 417/5/1 422/5/1 421/5/1
f 422/5/1 417/5/1 418/5/1
f 419/5/1 424/5/1 423/5/1
f 424/5/1 419/5/1 420/5/1
f 377/5/1 421/5/1 381/5/1
f 421/5/1 377/5/1 417/5/1
f 379/5/1 423/5/1 383/5/1
f 423/5/1 379/5/1 419/5/1
f 389/6/151 425/6/162 388/6/150
f 425/6/162 389/6/151 426/6/163
f 399/7/164 389/6/151 390/7/152
f 389/6/151 399/7/164 426/6/163
f 425/6/162 391/7/153 388/6/150
f 391/7/153 425/6/162 427/7/165
f 426/6/163 428/6/166 425/6/162
f 428/6/166 426/6/163 429/6/167
f 430/7/168 426/6/163 399/7/164
f 426/6/163 430/7/168 429/6/167
f 428/6/166 427/7/165 425/6/162
f 427/7/165 428/6/166 431/7/169
f 396/6/151 432/6/162 395/6/150
f 432/6/162 396/6/151 433/6/163
f 434/7/164 396/6/151 397/7/152
f 396/6/151 434/7/164 433/6/163
f 432/6/162 398/7/153 395/6/150
f 398/7/153 432/6/162 402/7/165
f 433/6/163 435/6/166 432/6/162
f 435/6/166 433/6/163 436/6/167
f 437/7/168 433/6/163 434/7/164
f 433/6/163 437/7/168 436/6/167
f 435/6/166 402/7/165 432/6/162
f 402/7/165 435/6/166 438/7/169
f 400/8/1 430/8/1 399/8/1
f 430/8/1 400/8/1 416/8/1
f 402/8/1 407/8/1 401/8/1
f 407/8/1 402/8/1 438/8/1
f 416/1/1 439/1/1 430/1/1
f 439/1/1 416/1/1 440/1/1
f 438/1/1 441/1/1 407/1/1
f 441/1/1 438/1/1 442/1/1
f 445/2/172 444/2/171 443/2/170
f 444/2/171 445/2/172 446/2/173
f 447/3/175 445/2/172 441/3/174
f 445/2/172 447/3/175 446/2/173
f 443/2/170 449/3/177 448/3/176
f 449/3/177 443/2/170 444/2/171
f 406/2/157 443/2/170 404/2/155
f 443/2/170 406/2/157 445/2/172
f 441/3/174 406/2/157 407/3/159
f 406/2/157 441/3/174 445/2/172
f 404/2/155 448/3/176 409/3/161
f 448/3/176 404/2/155 443/2/170
f 414/2/157 450/2/170 413/2/155
f 450/2/170 414/2/157 451/2/172
f 452/3/174 414/2/157 415/3/159
f 414/2/157 452/3/174 451/2/172
f 413/2/155 440/3/176 416/3/161
f 440/3/176 413/2/155 450/2/170
f 451/2/172 453/2/171 450/2/170
f 453/2/171 451/2/172 454/2/173
f 455/3/175 451/2/172 452/3/174
f 451/2/172 455/3/175 454/2/173
f 450/2/170 456/3/177 440/3/176
f 456/3/177 450/2/170 453/2/171
f 441/4/1 458/4/1 457/4/1
f 458/4/1 441/4/1 447/4/1
f 461/4/1 460/4/1 459/4/1
f 460/4/1 461/4/1 462/4/1
f 463/4/1 456/4/1 440/4/1
f 456/4/1 463/4/1 464/4/1
f 407/4/1 457/4/1 418/4/1
f 457/4/1 407/4/1 441/4/1
f 422/4/1 459/4/1 420/4/1
f 459/4/1 422/4/1 461/4/1
f 424/4/1 440/4/1 416/4/1
f 440/4/1 424/4/1 463/4/1
f 457/5/1 462/5/1 461/5/1
f 462/5/1 457/5/1 458/5/1
f 459/5/1 464/5/1 463/5/1
f 464/5/1 459/5/1 460/5/1
f 418/5/1 461/5/1 422/5/1
f 461/5/1 418/5/1 457/5/1
f 420/5/1 463/5/1 424/5/1
f 463/5/1 420/5/1 459/5/1
f 429/6/167 465/6/178 428/6/166
f 465/6/178 429/6/167 466/6/179
f 439/7/180 429/6/167 430/7/168
f 429/6/167 439/7/180 466/6/179
f 465/6/178 431/7/169 428/6/166
f 431/7/169 465/6/178 467/7/181
f 466/6/179 468/6/182 465/6/178
f 468/6/182 466/6/179 469/6/183
f 470/7/184 466/6/179 439/7/180
f 466/6/179 470/7/184 469/6/183
f 468/6/182 467/7/181 465/6/178
f 467/7/181 468/6/182 471/7/185
f 436/6/167 472/6/178 435/6/166
f 472/6/178 436/6/167 473/6/179
f 474/7/180 436/6/167 437/7/168
f 436/6/167 474/7/180 473/6/179
f 472/6/178 438/7/169 435/6/166
f 438/7/169 472/6/178 442/7/181
f 473/6/179 475/6/182 472/6/178
f 475/6/182 473/6/179 476/6/183
f 477/7/184 473/6/179 474/7/180
f 473/6/179 477/7/184 476/6/183
f 475/6/182 442/7/181 472/6/178
f 442/7/181 475/6/182 478/7/185
f 440/8/1 470/8/1 439/8/1
f 470/8/1 440/8/1 456/8/1
f 442/8/1 447/8/1 441/8/1
f 447/8/1 442/8/1 478/8/1
f 456/1/1 479/1/1 470/1/1
f 479/1/1 456/1/1 480/1/1
f 478/1/1 481/1/1 447/1/1
f 481/1/1 478/1/1 482/1/1
f 485/2/188 484/2/187 483/2/186
f 484/2/187 485/2/188 486/2/189
f 487/3/191 485/2/188 481/3/190
f 485/2/188 487/3/191 486/2/189
f 483/2/186 489/3/193 488/3/192
f 489/3/193 483/2/186 484/2/187
f 446/2/173 483/2/186 444/2/171
f 483/2/186 446/2/173 485/2/188
f 481/3/190 446/2/173 447/3/175
f 446/2/173 481/3/190 485/2/188
f 444/2/171 488/3/192 449/3/177
f 488/3/192 444/2/171 483/2/186
f 454/2/173 490/2/186 453/2/171
f 490/2/186 454/2/173 491/2/188
f 492/3/190 454/2/173 455/3/175
f 454/2/173 492/3/190 491/2/188
f 453/2/171 480/3/192 456/3/177
f 480/3/192 453/2/171 490/2/186
f 491/2/188 493/2/187 490/2/186
f 493/2/187 491/2/188 494/2/189
f 495/3/191 491/2/188 492/3/190
f 491/2/188 495/3/191 494/2/189
f 490/2/186 496/3/193 480/3/192
f 496/3/193 490/2/186 493/2/187
f 481/4/1 498/4/1 497/4/1
f 498/4/1 481/4/1 487/4/1
f 501/4/1 500/4/1 499/4/1
f 500/4/1 501/4/1 502/4/1
f 503/4/1 496/4/1 480/4/1
f 496/4/1 503/4/1 504/4/1
f 447/4/1 497/4/1 458/4/1
f 497/4/1 447/4/1 481/4/1
f 462/4/1 499/4/1 460/4/1
f 499/4/1 462/4/1 501/4/1
f 464/4/1 480/4/1 456/4/1
f 480/4/1 464/4/1 503/4/1
f 497/5/1 502/5/1 501/5/1
f 502/5/1 497/5/1 498/5/1
f 499/5/1 504/5/1 503/5/1
f 504/5/1 499/5/1 500/5/1
f 458/5/1 501/5/1 462/5/1
f 501/5/1 458/5/1 497/5/1
f 460/5/1 503/5/1 464/5/1
f 503/5/1 460/5/1 499/5/1
f 469/6/183 505/6/194 468/6/182
f 505/6/194 469/6/183 506/6/195
f 479/7/196 469/6/183 470/7/184
f 469/6/183 479/7/196 506/6/195
f 505/6/194 471/7/185 468/6/182
f 471/7/185 505/6/194 507/7/197
f 506/6/195 508/6/198 505/6/194
f 508/6/198 506/6/195 509/6/199
f 510/7/200 506/6/195 479/7/196
f 506/6/195 510/7/200 509/6/199
f 508/6/198 507/7/197 505/6/194
f 507/7/197 508/6/198 511/7/201
f 476/6/183 512/6/194 475/6/182
f 512/6/194 476/6/183 513/6/195
f 514/7/196 476/6/183 477/7/184
f 476/6/183 514/7/196 513/6/195
f 512/6/194 478/7/185 475/6/182
f 478/7/185 512/6/194 482/7/197
f 513/6/195 515/6/198 512/6/194
f 515/6/198 513/6/195 516/6/199
f 517/7/200 513/6/195 514/7/196
f 513/6/195 517/7/200 516/6/199
f 515/6/198 482/7/197 512/6/194
f 482/7/197 515/6/198 518/7/201
f 480/8/1 519/8/1 479/8/1
f 519/8/1 480/8/1 496/8/1
f 482/8/1 487/8/1 481/8/1
f 487/8/1 482/8/1 518/8/1
f 496/1/1 520/1/1 519/1/1
f 520/1/1 496/1/1 521/1/1
f 518/1/1 522/1/1 487/1/1
f 522/1/1 518/1/1 523/1/1
f 526/2/204 525/2/203 524/2/202
f 525/2/203 526/2/204 527/2/205
f 528/3/207 526/2/204 522/3/206
f 526/2/204 528/3/207 527/2/205
f 524/2/202 530/3/209 529/3/208
f 530/3/209 524/2/202 525/2/203
f 486/2/189 524/2/202 484/2/187
f 524/2/202 486/2/189 526/2/204
f 522/3/206 486/2/189 487/3/191
f 486/2/189 522/3/206 526/2/204
f 484/2/187 529/3/208 489/3/193
f 529/3/208 484/2/187 524/2/202
f 494/2/189 531/2/202 493/2/187
f 531/2/202 494/2/189 532/2/204
f 533/3/206 494/2/189 495/3/191
f 494/2/189 533/3/206 532/2/204
f 493/2/187 521/3/208 496/3/193
f 521/3/208 493/2/187 531/2/202
f 532/2/204 534/2/203 531/2/202
f 534/2/203 532/2/204 535/2/205
f 536/3/207 532/2/204 533/3/206
f 532/2/204 536/3/207 535/2/205
f 531/2/202 537/3/209 521/3/208
f 537/3/209 531/2/202 534/2/203
f 522/4/1 539/4/1 538/4/1
f 539/4/1 522/4/1 528/4/1
f 542/4/1 541/4/1 540/4/1
f 541/4/1 542/4/1 543/4/1
f 544/4/1 537/4/1 521/4/1
f 537/4/1 544/4/1 545/4/1
f 487/4/1 538/4/1 498/4/1
f 538/4/1 487/4/1 522/4/1
f 502/4/1 540/4/1 500/4/1
f 540/4/1 502/4/1 542/4/1
f 504/4/1 521/4/1 496/4/1
f 521/4/1 504/4/1 544/4/1
f 538/5/1 543/5/1 542/5/1
f 543/5/1 538/5/1 539/5/1
f 540/5/1 545/5/1 544/5/1
f 545/5/1 540/5/1 541/5/1
f 498/5/1 542/5/1 502/5/1
f 542/5/1 498/5/1 538/5/1
f 500/5/1 544/5/1 504/5/1
f 544/5/1 500/5/1 540/5/1
f 509/6/199 546/6/210 508/6/198
f 546/6/210 509/6/199 547/6/211
f 548/7/212 509/6/199 510/7/200
f 509/6/199 548/7/212 547/6/211
f 546/6/210 511/7/201 508/6/198
f 511/7/201 546/6/210 549/7/213
f 547/6/211 550/6/214 546/6/210
f 550/6/214 547/6/211 551/6/215
f 552/7/216 547/6/211 548/7/212
f 547/6/211 552/7/216 551/6/215
f 550/6/214 549/7/213 546/6/210
f 549/7/213 550/6/214 553/7/217
f 516/6/199 554/6/210 515/6/198
f 554/6/210 516/6/199 555/6/211
f 556/7/212 516/6/199 517/7/200
f 516/6/199 556/7/212 555/6/211
f 554/6/210 518/7/201 515/6/198
f 518/7/201 554/6/210 523/7/213
f 555/6/211 557/6/214 554/6/210
f 557/6/214 555/6/211 558/6/215
f 559/7/216 555/6/211 556/7/212
f 555/6/211 559/7/216 558/6/215
f 557/6/214 523/7/213 554/6/210
f 523/7/213 557/6/214 560/7/217
f 521/8/1 552/8/1 520/8/1
f 552/8/1 521/8/1 537/8/1
f 523/8/1 528/8/1 522/8/1
f 528/8/1 523/8/1 560/8/1

