# Created by Kenney (www.kenney.nl)

mtllib tree-tall.mtl

g tree-tall

v -0.07740698 0.102172 -0.07740698 1 1 1
v -0.06465031 0.29192 -0.06465031 1 1 1
v -0.10947 0.102172 7.219114E-16 1 1 1
v -0.09142935 0.29192 7.219114E-16 1 1 1
v -0.07740698 0.102172 0.07740698 1 1 1
v -0.06465031 0.29192 0.06465031 1 1 1
v 0 0.102172 0.10947 1 1 1
v 0 0.29192 0.09142935 1 1 1
v 0.1628914 0 4.511947E-16 1 1 1
v 0.1151816 0 -0.1151816 1 1 1
v 0.1151816 0 0.1151816 1 1 1
v 0 0 0.1628914 1 1 1
v 0 0 -0.1628914 1 1 1
v -0.1151816 0 0.1151816 1 1 1
v -0.1151816 0 -0.1151816 1 1 1
v -0.1628914 0 4.511947E-16 1 1 1
v 0.09142935 0.29192 7.219114E-16 1 1 1
v 0.10947 0.102172 7.219114E-16 1 1 1
v 0.06465031 0.29192 0.06465031 1 1 1
v 0.07740698 0.102172 0.07740698 1 1 1
v 0.07740698 0.102172 -0.07740698 1 1 1
v 0.06465031 0.29192 -0.06465031 1 1 1
v 0 0.102172 -0.10947 1 1 1
v 0 0.29192 -0.09142935 1 1 1
v -0.3069 0.58792 -1.534062E-15 1 1 1
v -0.2170111 0.58792 0.2170111 1 1 1
v -0.231693 0.36592 -4.511947E-16 1 1 1
v -0.1638317 0.36592 0.1638317 1 1 1
v -0.1638317 0.36592 -0.1638317 1 1 1
v 2.910205E-15 0.36592 -0.231693 1 1 1
v -0.2170111 0.58792 -0.2170111 1 1 1
v 3.632117E-15 0.58792 -0.3069 1 1 1
v 0.1638317 0.36592 -0.1638317 1 1 1
v 0.2170111 0.58792 -0.2170111 1 1 1
v 0.3069 0.58792 -1.534062E-15 1 1 1
v 0.231693 0.36592 -4.511947E-16 1 1 1
v 0.2170111 0.58792 0.2170111 1 1 1
v 0.1638317 0.36592 0.1638317 1 1 1
v 0.1166726 0.29192 0.1166726 1 1 1
v 3.632117E-15 0.29192 0.165 1 1 1
v 2.910205E-15 0.36592 0.231693 1 1 1
v 3.632117E-15 0.58792 0.3069 1 1 1
v -0.165 0.29192 9.926282E-16 1 1 1
v -0.1166726 0.29192 0.1166726 1 1 1
v 3.632117E-15 0.29192 -0.165 1 1 1
v 0.1166726 0.29192 -0.1166726 1 1 1
v 0.165 0.29192 9.926282E-16 1 1 1
v -0.1166726 0.29192 -0.1166726 1 1 1
v 0.09599832 0.8429622 2.707168E-16 1 1 1
v 0.06788106 0.8429622 0.06788106 1 1 1
v 0.06788106 0.8429622 -0.06788106 1 1 1
v 2.910205E-15 0.8429622 -0.09599832 1 1 1
v 2.910205E-15 0.8429622 0.09599832 1 1 1
v -0.06788106 0.8429622 -0.06788106 1 1 1
v -0.06788106 0.8429622 0.06788106 1 1 1
v -0.09599832 0.8429622 2.707168E-16 1 1 1
v 0.2323159 0.7503734 -1.804779E-15 1 1 1
v 0.1642722 0.7503734 0.1642722 1 1 1
v -0.1642722 0.7503734 0.1642722 1 1 1
v -0.2323159 0.7503734 -1.804779E-15 1 1 1
v -0.1642722 0.7503734 -0.1642722 1 1 1
v 0.1642722 0.7503734 -0.1642722 1 1 1
v 1.466382E-15 0.7503734 -0.2323159 1 1 1
v 1.466382E-15 0.7503734 0.2323159 1 1 1
v -0.333232 1.044294 -2.351554E-15 1 1 1
v -0.2356306 1.044294 0.2356306 1 1 1
v -0.2515723 0.7185544 -1.175777E-15 1 1 1
v -0.1778885 0.7185544 0.1778885 1 1 1
v -0.1778885 0.7185544 -0.1778885 1 1 1
v 2.255973E-17 0.7185544 -0.2515723 1 1 1
v -0.2356306 1.044294 -0.2356306 1 1 1
v 8.064112E-16 1.044294 -0.333232 1 1 1
v 0.1778885 0.7185544 -0.1778885 1 1 1
v 0.2356306 1.044294 -0.2356306 1 1 1
v 0.333232 1.044294 -2.351554E-15 1 1 1
v 0.2515723 0.7185544 -1.175777E-15 1 1 1
v 0.2356306 1.044294 0.2356306 1 1 1
v 0.1778885 0.7185544 0.1778885 1 1 1
v 0.1266831 0.6099744 0.1266831 1 1 1
v 8.064112E-16 0.6099744 0.179157 1 1 1
v 2.255973E-17 0.7185544 0.2515723 1 1 1
v 8.064112E-16 1.044294 0.333232 1 1 1
v -0.179157 0.6099744 3.919257E-16 1 1 1
v -0.1266831 0.6099744 0.1266831 1 1 1
v 8.064112E-16 0.6099744 -0.179157 1 1 1
v 0.1266831 0.6099744 -0.1266831 1 1 1
v 0.179157 0.6099744 3.919257E-16 1 1 1
v -0.1266831 0.6099744 -0.1266831 1 1 1
v 0.104235 1.418517 -3.919257E-16 1 1 1
v 0.07370526 1.418517 0.07370526 1 1 1
v 0.07370526 1.418517 -0.07370526 1 1 1
v 2.255973E-17 1.418517 -0.104235 1 1 1
v 2.255973E-17 1.418517 0.104235 1 1 1
v -0.07370526 1.418517 -0.07370526 1 1 1
v -0.07370526 1.418517 0.07370526 1 1 1
v -0.104235 1.418517 -3.919257E-16 1 1 1
v 0.2522486 1.282662 -2.645499E-15 1 1 1
v 0.1783667 1.282662 0.1783667 1 1 1
v -0.1783667 1.282662 0.1783667 1 1 1
v -0.2522486 1.282662 -2.645499E-15 1 1 1
v -0.1783667 1.282662 -0.1783667 1 1 1
v 0.1783667 1.282662 -0.1783667 1 1 1
v -1.545143E-15 1.282662 -0.2522486 1 1 1
v -1.545143E-15 1.282662 0.2522486 1 1 1
v -0.2430955 1.397103 -1.535E-15 1 1 1
v -0.1718945 1.397103 0.1718945 1 1 1
v -0.183524 0.9767354 -6.772612E-16 1 1 1
v -0.1297711 0.9767354 0.1297711 1 1 1
v -0.1297711 0.9767354 -0.1297711 1 1 1
v 3.632117E-15 0.9767354 -0.183524 1 1 1
v -0.1718945 1.397103 -0.1718945 1 1 1
v 4.203943E-15 1.397103 -0.2430955 1 1 1
v 0.1297711 0.9767354 -0.1297711 1 1 1
v 0.1718945 1.397103 -0.1718945 1 1 1
v 0.2430955 1.397103 -1.535E-15 1 1 1
v 0.183524 0.9767354 -6.772612E-16 1 1 1
v 0.1718945 1.397103 0.1718945 1 1 1
v 0.1297711 0.9767354 0.1297711 1 1 1
v 0.09241638 0.8366129 0.09241638 1 1 1
v 4.203943E-15 0.8366129 0.1306965 1 1 1
v 3.632117E-15 0.9767354 0.183524 1 1 1
v 4.203943E-15 1.397103 0.2430955 1 1 1
v -0.1306965 0.8366129 4.663908E-16 1 1 1
v -0.09241638 0.8366129 0.09241638 1 1 1
v 4.203943E-15 0.8366129 -0.1306965 1 1 1
v 0.09241638 0.8366129 -0.09241638 1 1 1
v 0.1306965 0.8366129 4.663908E-16 1 1 1
v -0.09241638 0.8366129 -0.09241638 1 1 1
v 0.07604027 1.880037 -1.054352E-16 1 1 1
v 0.05376859 1.880037 0.05376859 1 1 1
v 0.05376859 1.880037 -0.05376859 1 1 1
v 3.632117E-15 1.880037 -0.07604027 1 1 1
v 3.632117E-15 1.880037 0.07604027 1 1 1
v -0.05376859 1.880037 -0.05376859 1 1 1
v -0.05376859 1.880037 0.05376859 1 1 1
v -0.07604027 1.880037 -1.054352E-16 1 1 1
v 0.1840174 1.704716 -1.749435E-15 1 1 1
v 0.13012 1.704716 0.13012 1 1 1
v -0.13012 1.704716 0.13012 1 1 1
v -0.1840174 1.704716 -1.749435E-15 1 1 1
v -0.13012 1.704716 -0.13012 1 1 1
v 0.13012 1.704716 -0.13012 1 1 1
v 2.488465E-15 1.704716 -0.1840174 1 1 1
v 2.488465E-15 1.704716 0.1840174 1 1 1

vn -0.6749857 0.2979743 -0.6749857
vn -0.7039323 0.09465008 -0.7039323
vn -0.9545739 0.2979743 0
vn -0.9955106 0.09465008 0
vn -0.6749857 0.2979743 0.6749857
vn -0.7039323 0.09465008 0.7039323
vn 0 0.2979743 0.9545739
vn 0 0.09465008 0.9955106
vn 0 -1 0
vn 0.9955106 0.09465008 0
vn 0.9545739 0.2979743 0
vn 0.7039323 0.09465008 0.7039323
vn 0.6749857 0.2979743 0.6749857
vn 0.6749857 0.2979743 -0.6749857
vn 0.7039323 0.09465008 -0.7039323
vn 0 0.2979743 -0.9545739
vn 0 0.09465008 -0.9955106
vn -0.6266226 0.4633446 -0.6266226
vn -0.8861782 0.4633446 0
vn 0 0.4633446 -0.8861782
vn 0.6266226 0.4633446 -0.6266226
vn -0.6266226 0.4633446 0.6266226
vn 0 0.4633446 0.8861782
vn 0.6266226 0.4633446 0.6266226
vn 0.8861782 0.4633446 0
vn -0.9986566 0.05181878 0
vn -0.7061568 0.05181878 0.7061568
vn -0.8677247 -0.4970451 0
vn -0.6135741 -0.4970451 0.6135741
vn -0.6135741 -0.4970451 -0.6135741
vn 0 -0.4970451 -0.8677247
vn -0.7061568 0.05181878 -0.7061568
vn 0 0.05181878 -0.9986566
vn 0.6135741 -0.4970451 -0.6135741
vn 0.7061568 0.05181878 -0.7061568
vn 0.9986566 0.05181878 0
vn 0.8677247 -0.4970451 0
vn 0.7061568 0.05181878 0.7061568
vn 0.6135741 -0.4970451 0.6135741
vn 0.52526 -0.6694803 0.52526
vn 0 -0.6694804 0.7428298
vn 0 -0.4970451 0.8677247
vn 0 0.05181878 0.9986566
vn -0.7428298 -0.6694804 0
vn -0.52526 -0.6694803 0.52526
vn 0 -0.6694804 -0.7428298
vn 0.52526 -0.6694803 -0.52526
vn -0.52526 -0.6694803 -0.52526
vn 0.3374908 0.9413288 0
vn 0.238642 0.9413288 0.238642
vn 0.238642 0.9413288 -0.238642
vn 0 0.9413288 -0.3374908
vn 0 0.9413288 0.3374908
vn -0.238642 0.9413288 -0.238642
vn -0.238642 0.9413288 0.238642
vn -0.3374908 0.9413288 0
vn 0.7428298 -0.6694804 0
vn 0.7721579 0.6354306 0
vn 0.5459982 0.6354306 0.5459982
vn -0.5459982 0.6354306 0.5459982
vn -0.7721579 0.6354306 0
vn -0.5459982 0.6354306 -0.5459982
vn 0.5459982 0.6354306 -0.5459982
vn 0 0.6354306 -0.7721579
vn 0 0.6354306 0.7721579
vn -0.9992636 0.03836921 0
vn -0.7065861 0.03836921 0.7065861
vn -0.9207009 -0.390269 0
vn -0.6510338 -0.390269 0.6510338
vn -0.6510338 -0.390269 -0.6510338
vn 0 -0.390269 -0.9207009
vn -0.7065861 0.03836921 -0.7065861
vn 0 0.03836921 -0.9992636
vn 0.6510338 -0.390269 -0.6510338
vn 0.7065861 0.03836921 -0.7065861
vn 0.9992636 0.03836921 0
vn 0.9207009 -0.390269 0
vn 0.7065861 0.03836921 0.7065861
vn 0.6510338 -0.390269 0.6510338
vn 0.5882769 -0.5548518 0.5882769
vn 0 -0.5548518 0.8319491
vn 0 -0.390269 0.9207009
vn 0 0.03836921 0.9992636
vn -0.8319491 -0.5548518 0
vn -0.5882769 -0.5548518 0.5882769
vn 0 -0.5548518 -0.8319491
vn 0.5882769 -0.5548518 -0.5882769
vn -0.5882769 -0.5548518 -0.5882769
vn 0.4360155 0.8999391 0
vn 0.3083095 0.8999391 0.3083095
vn 0.3083095 0.8999391 -0.3083095
vn 0 0.8999391 -0.4360155
vn 0 0.8999391 0.4360155
vn -0.3083095 0.8999391 -0.3083095
vn -0.3083095 0.8999391 0.3083095
vn -0.4360155 0.8999391 0
vn 0.8319491 -0.5548518 0
vn 0.8540956 0.520116 0
vn 0.6039369 0.520116 0.6039369
vn -0.6039369 0.520116 0.6039369
vn -0.8540956 0.520116 0
vn -0.6039369 0.520116 -0.6039369
vn 0.6039369 0.520116 -0.6039369
vn 0 0.520116 -0.8540956
vn 0 0.520116 0.8540956
vn -0.9997645 0.02170065 0
vn -0.7069402 0.02170064 0.7069402
vn -0.9724718 -0.2330208 0
vn -0.6876413 -0.2330208 0.6876413
vn -0.6876413 -0.2330208 -0.6876413
vn 0 -0.2330208 -0.9724718
vn -0.7069402 0.02170064 -0.7069402
vn 0 0.02170065 -0.9997645
vn 0.6876413 -0.2330208 -0.6876413
vn 0.7069402 0.02170064 -0.7069402
vn 0.9997645 0.02170065 0
vn 0.9724718 -0.2330208 0
vn 0.7069402 0.02170064 0.7069402
vn 0.6876413 -0.2330208 0.6876413
vn 0.6616465 -0.3527715 0.6616465
vn 0 -0.3527715 0.9357095
vn 0 -0.2330208 0.9724718
vn 0 0.02170065 0.9997645
vn -0.9357095 -0.3527715 0
vn -0.6616465 -0.3527715 0.6616465
vn 0 -0.3527715 -0.9357095
vn 0.6616465 -0.3527715 -0.6616465
vn -0.6616465 -0.3527715 -0.6616465
vn 0.6507598 0.7592837 0
vn 0.4601566 0.7592837 0.4601566
vn 0.4601566 0.7592837 -0.4601566
vn 0 0.7592837 -0.6507598
vn 0 0.7592837 0.6507598
vn -0.4601566 0.7592837 -0.4601566
vn -0.4601566 0.7592837 0.4601566
vn -0.6507598 0.7592837 0
vn 0.9357095 -0.3527715 0
vn 0.9455431 0.3254972 0
vn 0.6685999 0.3254971 0.6685999
vn -0.6685999 0.3254971 0.6685999
vn -0.9455431 0.3254972 0
vn -0.6685999 0.3254971 -0.6685999
vn 0.6685999 0.3254971 -0.6685999
vn 0 0.3254972 -0.9455431
vn 0 0.3254972 0.9455431

vt 0.71875 0.155
vt 0.71875 0.025
vt 0.71875 0.225
vt 0.21875 0.3787164
vt 0.21875 0.3384291
vt 0.21875 0.325
vt 0.21875 0.425
vt 0.21875 0.4081975

usemtl colormap

f 3/1/3 2/2/2 1/1/1
f 2/2/2 3/1/3 4/2/4
f 5/1/5 4/2/4 3/1/3
f 4/2/4 5/1/5 6/2/6
f 8/2/8 5/1/5 7/1/7
f 5/1/5 8/2/8 6/2/6
f 11/3/9 10/3/9 9/3/9
f 10/3/9 11/3/9 12/3/9
f 10/3/9 12/3/9 13/3/9
f 13/3/9 12/3/9 14/3/9
f 13/3/9 14/3/9 15/3/9
f 15/3/9 14/3/9 16/3/9
f 19/2/12 18/1/11 17/2/10
f 18/1/11 19/2/12 20/1/13
f 19/2/12 7/1/7 20/1/13
f 7/1/7 19/2/12 8/2/8
f 22/2/15 18/1/11 21/1/14
f 18/1/11 22/2/15 17/2/10
f 2/2/2 23/1/16 1/1/1
f 23/1/16 2/2/2 24/2/17
f 24/2/17 21/1/14 23/1/16
f 21/1/14 24/2/17 22/2/15
f 16/3/19 1/1/1 15/3/18
f 1/1/1 16/3/19 3/1/3
f 23/1/16 10/3/21 13/3/20
f 10/3/21 23/1/16 21/1/14
f 1/1/1 13/3/20 15/3/18
f 13/3/20 1/1/1 23/1/16
f 14/3/22 3/1/3 16/3/19
f 3/1/3 14/3/22 5/1/5
f 7/1/7 14/3/22 12/3/23
f 14/3/22 7/1/7 5/1/5
f 20/1/13 12/3/23 11/3/24
f 12/3/23 20/1/13 7/1/7
f 21/1/14 9/3/25 10/3/21
f 9/3/25 21/1/14 18/1/11
f 18/1/11 11/3/24 9/3/25
f 11/3/24 18/1/11 20/1/13
f 27/5/28 26/4/27 25/4/26
f 26/4/27 27/5/28 28/5/29
f 31/4/32 30/5/31 29/5/30
f 30/5/31 31/4/32 32/4/33
f 32/4/33 33/5/34 30/5/31
f 33/5/34 32/4/33 34/4/35
f 37/4/38 36/5/37 35/4/36
f 36/5/37 37/4/38 38/5/39
f 35/4/36 33/5/34 34/4/35
f 33/5/34 35/4/36 36/5/37
f 38/5/39 40/6/41 39/6/40
f 40/6/41 38/5/39 41/5/42
f 29/5/30 25/4/26 31/4/32
f 25/4/26 29/5/30 27/5/28
f 42/4/43 28/5/29 41/5/42
f 28/5/29 42/4/43 26/4/27
f 43/6/44 28/5/29 27/5/28
f 28/5/29 43/6/44 44/6/45
f 30/5/31 46/6/47 45/6/46
f 46/6/47 30/5/31 33/5/34
f 41/5/42 44/6/45 40/6/41
f 44/6/45 41/5/42 28/5/29
f 39/6/9 46/6/9 47/6/9
f 46/6/9 39/6/9 40/6/9
f 46/6/9 40/6/9 45/6/9
f 45/6/9 40/6/9 44/6/9
f 45/6/9 44/6/9 48/6/9
f 48/6/9 44/6/9 43/6/9
f 29/5/30 45/6/46 48/6/48
f 45/6/46 29/5/30 30/5/31
f 51/7/51 50/7/50 49/7/49
f 50/7/50 51/7/51 52/7/52
f 50/7/50 52/7/52 53/7/53
f 53/7/53 52/7/52 54/7/54
f 53/7/53 54/7/54 55/7/55
f 55/7/55 54/7/54 56/7/56
f 37/4/38 41/5/42 38/5/39
f 41/5/42 37/4/38 42/4/43
f 38/5/39 47/6/57 36/5/37
f 47/6/57 38/5/39 39/6/40
f 48/6/48 27/5/28 29/5/30
f 27/5/28 48/6/48 43/6/44
f 36/5/37 46/6/47 33/5/34
f 46/6/47 36/5/37 47/6/57
f 49/7/49 58/8/59 57/8/58
f 58/8/59 49/7/49 50/7/50
f 56/7/56 59/8/60 55/7/55
f 59/8/60 56/7/56 60/8/61
f 61/8/62 56/7/56 54/7/54
f 56/7/56 61/8/62 60/8/61
f 62/8/63 49/7/49 57/8/58
f 49/7/49 62/8/63 51/7/51
f 63/8/64 54/7/54 52/7/52
f 54/7/54 63/8/64 61/8/62
f 55/7/55 64/8/65 53/7/53
f 64/8/65 55/7/55 59/8/60
f 63/8/64 51/7/51 62/8/63
f 51/7/51 63/8/64 52/7/52
f 50/7/50 64/8/65 58/8/59
f 64/8/65 50/7/50 53/7/53
f 62/8/63 35/4/36 34/4/35
f 35/4/36 62/8/63 57/8/58
f 64/8/65 26/4/27 42/4/43
f 26/4/27 64/8/65 59/8/60
f 58/8/59 35/4/36 57/8/58
f 35/4/36 58/8/59 37/4/38
f 63/8/64 34/4/35 32/4/33
f 34/4/35 63/8/64 62/8/63
f 61/8/62 32/4/33 31/4/32
f 32/4/33 61/8/62 63/8/64
f 25/4/26 59/8/60 60/8/61
f 59/8/60 25/4/26 26/4/27
f 25/4/26 61/8/62 31/4/32
f 61/8/62 25/4/26 60/8/61
f 58/8/59 42/4/43 37/4/38
f 42/4/43 58/8/59 64/8/65
f 67/5/68 66/4/67 65/4/66
f 66/4/67 67/5/68 68/5/69
f 71/4/72 70/5/71 69/5/70
f 70/5/71 71/4/72 72/4/73
f 72/4/73 73/5/74 70/5/71
f 73/5/74 72/4/73 74/4/75
f 77/4/78 76/5/77 75/4/76
f 76/5/77 77/4/78 78/5/79
f 75/4/76 73/5/74 74/4/75
f 73/5/74 75/4/76 76/5/77
f 78/5/79 80/6/81 79/6/80
f 80/6/81 78/5/79 81/5/82
f 69/5/70 65/4/66 71/4/72
f 65/4/66 69/5/70 67/5/68
f 82/4/83 68/5/69 81/5/82
f 68/5/69 82/4/83 66/4/67
f 83/6/84 68/5/69 67/5/68
f 68/5/69 83/6/84 84/6/85
f 70/5/71 86/6/87 85/6/86
f 86/6/87 70/5/71 73/5/74
f 81/5/82 84/6/85 80/6/81
f 84/6/85 81/5/82 68/5/69
f 79/6/9 86/6/9 87/6/9
f 86/6/9 79/6/9 80/6/9
f 86/6/9 80/6/9 85/6/9
f 85/6/9 80/6/9 84/6/9
f 85/6/9 84/6/9 88/6/9
f 88/6/9 84/6/9 83/6/9
f 69/5/70 85/6/86 88/6/88
f 85/6/86 69/5/70 70/5/71
f 91/7/91 90/7/90 89/7/89
f 90/7/90 91/7/91 92/7/92
f 90/7/90 92/7/92 93/7/93
f 93/7/93 92/7/92 94/7/94
f 93/7/93 94/7/94 95/7/95
f 95/7/95 94/7/94 96/7/96
f 77/4/78 81/5/82 78/5/79
f 81/5/82 77/4/78 82/4/83
f 78/5/79 87/6/97 76/5/77
f 87/6/97 78/5/79 79/6/80
f 88/6/88 67/5/68 69/5/70
f 67/5/68 88/6/88 83/6/84
f 76/5/77 86/6/87 73/5/74
f 86/6/87 76/5/77 87/6/97
f 89/7/89 98/8/99 97/8/98
f 98/8/99 89/7/89 90/7/90
f 96/7/96 99/8/100 95/7/95
f 99/8/100 96/7/96 100/8/101
f 101/8/102 96/7/96 94/7/94
f 96/7/96 101/8/102 100/8/101
f 102/8/103 89/7/89 97/8/98
f 89/7/89 102/8/103 91/7/91
f 103/8/104 94/7/94 92/7/92
f 94/7/94 103/8/104 101/8/102
f 95/7/95 104/8/105 93/7/93
f 104/8/105 95/7/95 99/8/100
f 103/8/104 91/7/91 102/8/103
f 91/7/91 103/8/104 92/7/92
f 90/7/90 104/8/105 98/8/99
f 104/8/105 90/7/90 93/7/93
f 102/8/103 75/4/76 74/4/75
f 75/4/76 102/8/103 97/8/98
f 104/8/105 66/4/67 82/4/83
f 66/4/67 104/8/105 99/8/100
f 98/8/99 75/4/76 97/8/98
f 75/4/76 98/8/99 77/4/78
f 103/8/104 74/4/75 72/4/73
f 74/4/75 103/8/104 102/8/103
f 101/8/102 72/4/73 71/4/72
f 72/4/73 101/8/102 103/8/104
f 65/4/66 99/8/100 100/8/101
f 99/8/100 65/4/66 66/4/67
f 65/4/66 101/8/102 71/4/72
f 101/8/102 65/4/66 100/8/101
f 98/8/99 82/4/83 77/4/78
f 82/4/83 98/8/99 104/8/105
f 107/5/108 106/4/107 105/4/106
f 106/4/107 107/5/108 108/5/109
f 111/4/112 110/5/111 109/5/110
f 110/5/111 111/4/112 112/4/113
f 112/4/113 113/5/114 110/5/111
f 113/5/114 112/4/113 114/4/115
f 117/4/118 116/5/117 115/4/116
f 116/5/117 117/4/118 118/5/119
f 115/4/116 113/5/114 114/4/115
f 113/5/114 115/4/116 116/5/117
f 118/5/119 120/6/121 119/6/120
f 120/6/121 118/5/119 121/5/122
f 109/5/110 105/4/106 111/4/112
f 105/4/106 109/5/110 107/5/108
f 122/4/123 108/5/109 121/5/122
f 108/5/109 122/4/123 106/4/107
f 123/6/124 108/5/109 107/5/108
f 108/5/109 123/6/124 124/6/125
f 110/5/111 126/6/127 125/6/126
f 126/6/127 110/5/111 113/5/114
f 121/5/122 124/6/125 120/6/121
f 124/6/125 121/5/122 108/5/109
f 119/6/9 126/6/9 127/6/9
f 126/6/9 119/6/9 120/6/9
f 126/6/9 120/6/9 125/6/9
f 125/6/9 120/6/9 124/6/9
f 125/6/9 124/6/9 128/6/9
f 128/6/9 124/6/9 123/6/9
f 109/5/110 125/6/126 128/6/128
f 125/6/126 109/5/110 110/5/111
f 131/7/131 130/7/130 129/7/129
f 130/7/130 131/7/131 132/7/132
f 130/7/130 132/7/132 133/7/133
f 133/7/133 132/7/132 134/7/134
f 133/7/133 134/7/134 135/7/135
f 135/7/135 134/7/134 136/7/136
f 117/4/118 121/5/122 118/5/119
f 121/5/122 117/4/118 122/4/123
f 118/5/119 127/6/137 116/5/117
f 127/6/137 118/5/119 119/6/120
f 128/6/128 107/5/108 109/5/110
f 107/5/108 128/6/128 123/6/124
f 116/5/117 126/6/127 113/5/114
f 126/6/127 116/5/117 127/6/137
f 129/7/129 138/8/139 137/8/138
f 138/8/139 129/7/129 130/7/130
f 136/7/136 139/8/140 135/7/135
f 139/8/140 136/7/136 140/8/141
f 141/8/142 136/7/136 134/7/134
f 136/7/136 141/8/142 140/8/141
f 142/8/143 129/7/129 137/8/138
f 129/7/129 142/8/143 131/7/131
f 143/8/144 134/7/134 132/7/132
f 134/7/134 143/8/144 141/8/142
f 135/7/135 144/8/145 133/7/133
f 144/8/145 135/7/135 139/8/140
f 143/8/144 131/7/131 142/8/143
f 131/7/131 143/8/144 132/7/132
f 130/7/130 144/8/145 138/8/139
f 144/8/145 130/7/130 133/7/133
f 142/8/143 115/4/116 114/4/115
f 115/4/116 142/8/143 137/8/138
f 144/8/145 106/4/107 122/4/123
f 106/4/107 144/8/145 139/8/140
f 138/8/139 115/4/116 137/8/138
f 115/4/116 138/8/139 117/4/118
f 143/8/144 114/4/115 112/4/113
f 114/4/115 143/8/144 142/8/143
f 141/8/142 112/4/113 111/4/112
f 112/4/113 141/8/142 143/8/144
f 105/4/106 139/8/140 140/8/141
f 139/8/140 105/4/106 106/4/107
f 105/4/106 141/8/142 111/4/112
f 141/8/142 105/4/106 140/8/141
f 138/8/139 122/4/123 117/4/118
f 122/4/123 138/8/139 144/8/145

g tree-tall




usemtl colormap

f 3/1/3 2/2/2 1/1/1
f 2/2/2 3/1/3 4/2/4
f 5/1/5 4/2/4 3/1/3
f 4/2/4 5/1/5 6/2/6
f 8/2/8 5/1/5 7/1/7
f 5/1/5 8/2/8 6/2/6
f 11/3/9 10/3/9 9/3/9
f 10/3/9 11/3/9 12/3/9
f 10/3/9 12/3/9 13/3/9
f 13/3/9 12/3/9 14/3/9
f 13/3/9 14/3/9 15/3/9
f 15/3/9 14/3/9 16/3/9
f 19/2/12 18/1/11 17/2/10
f 18/1/11 19/2/12 20/1/13
f 19/2/12 7/1/7 20/1/13
f 7/1/7 19/2/12 8/2/8
f 22/2/15 18/1/11 21/1/14
f 18/1/11 22/2/15 17/2/10
f 2/2/2 23/1/16 1/1/1
f 23/1/16 2/2/2 24/2/17
f 24/2/17 21/1/14 23/1/16
f 21/1/14 24/2/17 22/2/15
f 16/3/19 1/1/1 15/3/18
f 1/1/1 16/3/19 3/1/3
f 23/1/16 10/3/21 13/3/20
f 10/3/21 23/1/16 21/1/14
f 1/1/1 13/3/20 15/3/18
f 13/3/20 1/1/1 23/1/16
f 14/3/22 3/1/3 16/3/19
f 3/1/3 14/3/22 5/1/5
f 7/1/7 14/3/22 12/3/23
f 14/3/22 7/1/7 5/1/5
f 20/1/13 12/3/23 11/3/24
f 12/3/23 20/1/13 7/1/7
f 21/1/14 9/3/25 10/3/21
f 9/3/25 21/1/14 18/1/11
f 18/1/11 11/3/24 9/3/25
f 11/3/24 18/1/11 20/1/13
f 27/5/28 26/4/27 25/4/26
f 26/4/27 27/5/28 28/5/29
f 31/4/32 30/5/31 29/5/30
f 30/5/31 31/4/32 32/4/33
f 32/4/33 33/5/34 30/5/31
f 33/5/34 32/4/33 34/4/35
f 37/4/38 36/5/37 35/4/36
f 36/5/37 37/4/38 38/5/39
f 35/4/36 33/5/34 34/4/35
f 33/5/34 35/4/36 36/5/37
f 38/5/39 40/6/41 39/6/40
f 40/6/41 38/5/39 41/5/42
f 29/5/30 25/4/26 31/4/32
f 25/4/26 29/5/30 27/5/28
f 42/4/43 28/5/29 41/5/42
f 28/5/29 42/4/43 26/4/27
f 43/6/44 28/5/29 27/5/28
f 28/5/29 43/6/44 44/6/45
f 30/5/31 46/6/47 45/6/46
f 46/6/47 30/5/31 33/5/34
f 41/5/42 44/6/45 40/6/41
f 44/6/45 41/5/42 28/5/29
f 39/6/9 46/6/9 47/6/9
f 46/6/9 39/6/9 40/6/9
f 46/6/9 40/6/9 45/6/9
f 45/6/9 40/6/9 44/6/9
f 45/6/9 44/6/9 48/6/9
f 48/6/9 44/6/9 43/6/9
f 29/5/30 45/6/46 48/6/48
f 45/6/46 29/5/30 30/5/31
f 51/7/51 50/7/50 49/7/49
f 50/7/50 51/7/51 52/7/52
f 50/7/50 52/7/52 53/7/53
f 53/7/53 52/7/52 54/7/54
f 53/7/53 54/7/54 55/7/55
f 55/7/55 54/7/54 56/7/56
f 37/4/38 41/5/42 38/5/39
f 41/5/42 37/4/38 42/4/43
f 38/5/39 47/6/57 36/5/37
f 47/6/57 38/5/39 39/6/40
f 48/6/48 27/5/28 29/5/30
f 27/5/28 48/6/48 43/6/44
f 36/5/37 46/6/47 33/5/34
f 46/6/47 36/5/37 47/6/57
f 49/7/49 58/8/59 57/8/58
f 58/8/59 49/7/49 50/7/50
f 56/7/56 59/8/60 55/7/55
f 59/8/60 56/7/56 60/8/61
f 61/8/62 56/7/56 54/7/54
f 56/7/56 61/8/62 60/8/61
f 62/8/63 49/7/49 57/8/58
f 49/7/49 62/8/63 51/7/51
f 63/8/64 54/7/54 52/7/52
f 54/7/54 63/8/64 61/8/62
f 55/7/55 64/8/65 53/7/53
f 64/8/65 55/7/55 59/8/60
f 63/8/64 51/7/51 62/8/63
f 51/7/51 63/8/64 52/7/52
f 50/7/50 64/8/65 58/8/59
f 64/8/65 50/7/50 53/7/53
f 62/8/63 35/4/36 34/4/35
f 35/4/36 62/8/63 57/8/58
f 64/8/65 26/4/27 42/4/43
f 26/4/27 64/8/65 59/8/60
f 58/8/59 35/4/36 57/8/58
f 35/4/36 58/8/59 37/4/38
f 63/8/64 34/4/35 32/4/33
f 34/4/35 63/8/64 62/8/63
f 61/8/62 32/4/33 31/4/32
f 32/4/33 61/8/62 63/8/64
f 25/4/26 59/8/60 60/8/61
f 59/8/60 25/4/26 26/4/27
f 25/4/26 61/8/62 31/4/32
f 61/8/62 25/4/26 60/8/61
f 58/8/59 42/4/43 37/4/38
f 42/4/43 58/8/59 64/8/65
f 67/5/68 66/4/67 65/4/66
f 66/4/67 67/5/68 68/5/69
f 71/4/72 70/5/71 69/5/70
f 70/5/71 71/4/72 72/4/73
f 72/4/73 73/5/74 70/5/71
f 73/5/74 72/4/73 74/4/75
f 77/4/78 76/5/77 75/4/76
f 76/5/77 77/4/78 78/5/79
f 75/4/76 73/5/74 74/4/75
f 73/5/74 75/4/76 76/5/77
f 78/5/79 80/6/81 79/6/80
f 80/6/81 78/5/79 81/5/82
f 69/5/70 65/4/66 71/4/72
f 65/4/66 69/5/70 67/5/68
f 82/4/83 68/5/69 81/5/82
f 68/5/69 82/4/83 66/4/67
f 83/6/84 68/5/69 67/5/68
f 68/5/69 83/6/84 84/6/85
f 70/5/71 86/6/87 85/6/86
f 86/6/87 70/5/71 73/5/74
f 81/5/82 84/6/85 80/6/81
f 84/6/85 81/5/82 68/5/69
f 79/6/9 86/6/9 87/6/9
f 86/6/9 79/6/9 80/6/9
f 86/6/9 80/6/9 85/6/9
f 85/6/9 80/6/9 84/6/9
f 85/6/9 84/6/9 88/6/9
f 88/6/9 84/6/9 83/6/9
f 69/5/70 85/6/86 88/6/88
f 85/6/86 69/5/70 70/5/71
f 91/7/91 90/7/90 89/7/89
f 90/7/90 91/7/91 92/7/92
f 90/7/90 92/7/92 93/7/93
f 93/7/93 92/7/92 94/7/94
f 93/7/93 94/7/94 95/7/95
f 95/7/95 94/7/94 96/7/96
f 77/4/78 81/5/82 78/5/79
f 81/5/82 77/4/78 82/4/83
f 78/5/79 87/6/97 76/5/77
f 87/6/97 78/5/79 79/6/80
f 88/6/88 67/5/68 69/5/70
f 67/5/68 88/6/88 83/6/84
f 76/5/77 86/6/87 73/5/74
f 86/6/87 76/5/77 87/6/97
f 89/7/89 98/8/99 97/8/98
f 98/8/99 89/7/89 90/7/90
f 96/7/96 99/8/100 95/7/95
f 99/8/100 96/7/96 100/8/101
f 101/8/102 96/7/96 94/7/94
f 96/7/96 101/8/102 100/8/101
f 102/8/103 89/7/89 97/8/98
f 89/7/89 102/8/103 91/7/91
f 103/8/104 94/7/94 92/7/92
f 94/7/94 103/8/104 101/8/102
f 95/7/95 104/8/105 93/7/93
f 104/8/105 95/7/95 99/8/100
f 103/8/104 91/7/91 102/8/103
f 91/7/91 103/8/104 92/7/92
f 90/7/90 104/8/105 98/8/99
f 104/8/105 90/7/90 93/7/93
f 102/8/103 75/4/76 74/4/75
f 75/4/76 102/8/103 97/8/98
f 104/8/105 66/4/67 82/4/83
f 66/4/67 104/8/105 99/8/100
f 98/8/99 75/4/76 97/8/98
f 75/4/76 98/8/99 77/4/78
f 103/8/104 74/4/75 72/4/73
f 74/4/75 103/8/104 102/8/103
f 101/8/102 72/4/73 71/4/72
f 72/4/73 101/8/102 103/8/104
f 65/4/66 99/8/100 100/8/101
f 99/8/100 65/4/66 66/4/67
f 65/4/66 101/8/102 71/4/72
f 101/8/102 65/4/66 100/8/101
f 98/8/99 82/4/83 77/4/78
f 82/4/83 98/8/99 104/8/105
f 107/5/108 106/4/107 105/4/106
f 106/4/107 107/5/108 108/5/109
f 111/4/112 110/5/111 109/5/110
f 110/5/111 111/4/112 112/4/113
f 112/4/113 113/5/114 110/5/111
f 113/5/114 112/4/113 114/4/115
f 117/4/118 116/5/117 115/4/116
f 116/5/117 117/4/118 118/5/119
f 115/4/116 113/5/114 114/4/115
f 113/5/114 115/4/116 116/5/117
f 118/5/119 120/6/121 119/6/120
f 120/6/121 118/5/119 121/5/122
f 109/5/110 105/4/106 111/4/112
f 105/4/106 109/5/110 107/5/108
f 122/4/123 108/5/109 121/5/122
f 108/5/109 122/4/123 106/4/107
f 123/6/124 108/5/109 107/5/108
f 108/5/109 123/6/124 124/6/125
f 110/5/111 126/6/127 125/6/126
f 126/6/127 110/5/111 113/5/114
f 121/5/122 124/6/125 120/6/121
f 124/6/125 121/5/122 108/5/109
f 119/6/9 126/6/9 127/6/9
f 126/6/9 119/6/9 120/6/9
f 126/6/9 120/6/9 125/6/9
f 125/6/9 120/6/9 124/6/9
f 125/6/9 124/6/9 128/6/9
f 128/6/9 124/6/9 123/6/9
f 109/5/110 125/6/126 128/6/128
f 125/6/126 109/5/110 110/5/111
f 131/7/131 130/7/130 129/7/129
f 130/7/130 131/7/131 132/7/132
f 130/7/130 132/7/132 133/7/133
f 133/7/133 132/7/132 134/7/134
f 133/7/133 134/7/134 135/7/135
f 135/7/135 134/7/134 136/7/136
f 117/4/118 121/5/122 118/5/119
f 121/5/122 117/4/118 122/4/123
f 118/5/119 127/6/137 116/5/117
f 127/6/137 118/5/119 119/6/120
f 128/6/128 107/5/108 109/5/110
f 107/5/108 128/6/128 123/6/124
f 116/5/117 126/6/127 113/5/114
f 126/6/127 116/5/117 127/6/137
f 129/7/129 138/8/139 137/8/138
f 138/8/139 129/7/129 130/7/130
f 136/7/136 139/8/140 135/7/135
f 139/8/140 136/7/136 140/8/141
f 141/8/142 136/7/136 134/7/134
f 136/7/136 141/8/142 140/8/141
f 142/8/143 129/7/129 137/8/138
f 129/7/129 142/8/143 131/7/131
f 143/8/144 134/7/134 132/7/132
f 134/7/134 143/8/144 141/8/142
f 135/7/135 144/8/145 133/7/133
f 144/8/145 135/7/135 139/8/140
f 143/8/144 131/7/131 142/8/143
f 131/7/131 143/8/144 132/7/132
f 130/7/130 144/8/145 138/8/139
f 144/8/145 130/7/130 133/7/133
f 142/8/143 115/4/116 114/4/115
f 115/4/116 142/8/143 137/8/138
f 144/8/145 106/4/107 122/4/123
f 106/4/107 144/8/145 139/8/140
f 138/8/139 115/4/116 137/8/138
f 115/4/116 138/8/139 117/4/118
f 143/8/144 114/4/115 112/4/113
f 114/4/115 143/8/144 142/8/143
f 141/8/142 112/4/113 111/4/112
f 112/4/113 141/8/142 143/8/144
f 105/4/106 139/8/140 140/8/141
f 139/8/140 105/4/106 106/4/107
f 105/4/106 141/8/142 111/4/112
f 141/8/142 105/4/106 140/8/141
f 138/8/139 122/4/123 117/4/118
f 122/4/123 138/8/139 144/8/145

