# Created by Kenney (www.kenney.nl)

mtllib axe-double-long.mtl

g axe-double-long

v 0.16875 2.923081 -0.09375 1 1 1
v 0.16875 2.773081 -0.09375 1 1 1
v 0.16875 2.923081 0.09375 1 1 1
v 0.16875 2.773081 0.09375 1 1 1
v 0.09375 2.773081 0.16875 1 1 1
v -0.09375 2.773081 0.16875 1 1 1
v 0.09375 2.923081 0.16875 1 1 1
v -0.09375 2.923081 0.16875 1 1 1
v -0.09375 2.773081 -0.16875 1 1 1
v 0.09375 2.773081 -0.16875 1 1 1
v -0.09375 2.923081 -0.16875 1 1 1
v 0.09375 2.923081 -0.16875 1 1 1
v -0.16875 2.773081 -0.09375 1 1 1
v -0.16875 2.923081 -0.09375 1 1 1
v -0.16875 2.773081 0.09375 1 1 1
v -0.16875 2.923081 0.09375 1 1 1
v 0.1265625 2.623081 0.0703125 1 1 1
v 0.1265625 2.623081 -0.0703125 1 1 1
v 0.0703125 2.623081 0.1265625 1 1 1
v 0.0703125 2.623081 -0.1265625 1 1 1
v -0.0703125 2.623081 0.1265625 1 1 1
v -0.0703125 2.623081 -0.1265625 1 1 1
v -0.1265625 2.623081 0.0703125 1 1 1
v -0.1265625 2.623081 -0.0703125 1 1 1
v -0.16875 0.673081 -0.09375 1 1 1
v -0.16875 0.823081 -0.09375 1 1 1
v -0.16875 0.673081 0.09375 1 1 1
v -0.16875 0.823081 0.09375 1 1 1
v -0.09375 0.823081 0.16875 1 1 1
v 0.09375 0.823081 0.16875 1 1 1
v -0.09375001 0.673081 0.16875 1 1 1
v 0.09374999 0.673081 0.16875 1 1 1
v 0.09375 0.823081 -0.16875 1 1 1
v -0.09375 0.823081 -0.16875 1 1 1
v 0.09374999 0.673081 -0.16875 1 1 1
v -0.09375001 0.673081 -0.16875 1 1 1
v 0.16875 0.823081 -0.09375 1 1 1
v 0.16875 0.673081 -0.09375 1 1 1
v 0.16875 0.823081 0.09375 1 1 1
v 0.16875 0.673081 0.09375 1 1 1
v -0.1265625 0.973081 0.0703125 1 1 1
v -0.1265625 0.973081 -0.0703125 1 1 1
v -0.0703125 0.973081 0.1265625 1 1 1
v -0.0703125 0.973081 -0.1265625 1 1 1
v 0.0703125 0.973081 0.1265625 1 1 1
v 0.0703125 0.973081 -0.1265625 1 1 1
v 0.1265625 0.973081 0.0703125 1 1 1
v 0.1265625 0.973081 -0.0703125 1 1 1
v -0.225 3.698081 -0.125 1 1 1
v -0.225 3.698081 0.125 1 1 1
v -0.2249999 4.098081 -0.125 1 1 1
v -0.2249999 4.098081 0.125 1 1 1
v -0.5249999 4.198081 -0.09375 1 1 1
v -0.525 3.598081 -0.09375 1 1 1
v -0.5249999 4.198081 0.09375 1 1 1
v -0.525 3.598081 0.09375 1 1 1
v 0.4748121 3.898081 0.1293815 1 1 1
v 0.4238355 3.56282 0.125 1 1 1
v 0.8698978 3.585249 0.125 1 1 1
v 0.9463239 3.898081 0.125 1 1 1
v 0.8698979 4.210913 0.125 1 1 1
v 0.4238356 4.233342 0.125 1 1 1
v 0.4238355 3.56282 -0.125 1 1 1
v 0.4748121 3.898081 -0.1206185 1 1 1
v 0.8698978 3.585249 -0.125 1 1 1
v 0.9463239 3.898081 -0.125 1 1 1
v 0.8698979 4.210913 -0.125 1 1 1
v 0.4238356 4.233342 -0.125 1 1 1
v 0.2623101 3.188233 0.125 1 1 1
v 0.2623101 3.188233 -0.125 1 1 1
v 0.2623102 4.607929 0.125 1 1 1
v 0.2623102 4.607929 -0.125 1 1 1
v 0.6578379 3.342895 0.125 1 1 1
v 0.657838 4.453268 0.125 1 1 1
v 0.6578379 3.342895 -0.125 1 1 1
v 0.657838 4.453268 -0.125 1 1 1
v -0.4748121 3.898081 0.1293815 1 1 1
v -0.4238355 3.56282 0.125 1 1 1
v -0.8698978 3.585249 0.125 1 1 1
v -0.9463239 3.898081 0.125 1 1 1
v -0.8698979 4.210913 0.125 1 1 1
v -0.4238356 4.233342 0.125 1 1 1
v -0.4238355 3.56282 -0.125 1 1 1
v -0.4748121 3.898081 -0.1206185 1 1 1
v -0.8698978 3.585249 -0.125 1 1 1
v -0.9463239 3.898081 -0.125 1 1 1
v -0.8698979 4.210913 -0.125 1 1 1
v -0.4238356 4.233342 -0.125 1 1 1
v -0.2623101 3.188233 0.125 1 1 1
v -0.2623101 3.188233 -0.125 1 1 1
v -0.2623102 4.607929 0.125 1 1 1
v -0.2623102 4.607929 -0.125 1 1 1
v -0.6578379 3.342895 0.125 1 1 1
v -0.657838 4.453268 0.125 1 1 1
v -0.6578379 3.342895 -0.125 1 1 1
v -0.657838 4.453268 -0.125 1 1 1
v 0.225 3.698081 -0.125 1 1 1
v 0.225 3.698081 0.125 1 1 1
v 0.2249999 4.098081 -0.125 1 1 1
v 0.2249999 4.098081 0.125 1 1 1
v 0.5249999 4.198081 -0.09375 1 1 1
v 0.525 3.598081 -0.09375 1 1 1
v 0.5249999 4.198081 0.09375 1 1 1
v 0.525 3.598081 0.09375 1 1 1
v 0.225 4.098081 -0.125 1 1 1
v 0.225 3.698081 -0.125 1 1 1
v 0.225 4.098081 0.125 1 1 1
v 0.225 3.698081 0.125 1 1 1
v 0.125 3.698081 0.225 1 1 1
v -0.125 3.698081 0.225 1 1 1
v 0.125 4.098081 0.225 1 1 1
v -0.125 4.098081 0.225 1 1 1
v -0.125 3.698081 -0.225 1 1 1
v 0.125 3.698081 -0.225 1 1 1
v -0.125 4.098081 -0.225 1 1 1
v 0.125 4.098081 -0.225 1 1 1
v -0.225 3.698081 -0.125 1 1 1
v -0.225 4.098081 -0.125 1 1 1
v -0.225 3.698081 0.125 1 1 1
v -0.225 4.098081 0.125 1 1 1
v 0.3750001 4.698081 0 1 1 1
v 0.3749999 3.098081 0 1 1 1
v 0.9688253 3.726832 -0.0625 1 1 1
v 1.05227 3.80504 -1.353584E-16 1 1 1
v 0.9688253 3.726832 0.0625 1 1 1
v 1.006809 3.618958 -1.353584E-16 1 1 1
v 1.075 3.898081 -1.353584E-16 1 1 1
v 0.9840793 3.525918 -1.353584E-16 1 1 1
v 0.7318007 4.558563 -9.023893E-17 1 1 1
v 0.9840794 4.270244 -1.353584E-16 1 1 1
v 0.7318006 3.237599 -9.023893E-17 1 1 1
v -0.3750001 4.698081 0 1 1 1
v -0.3749999 3.098081 0 1 1 1
v -0.9210097 4.342324 -1.353584E-16 1 1 1
v -0.810904 4.373247 -0.0625 1 1 1
v -0.810904 4.373247 0.0625 1 1 1
v -0.7948704 4.486483 -9.023893E-17 1 1 1
v -0.5067371 3.216702 -0.0625 1 1 1
v -0.5067371 3.216702 0.0625 1 1 1
v -0.4642001 3.132961 -2.255973E-17 1 1 1
v -0.6426004 3.20272 -6.76792E-17 1 1 1
v -0.9840793 3.525918 -1.353584E-16 1 1 1
v -1.075 3.898081 -1.353584E-16 1 1 1
v -0.7318007 4.558563 -9.023893E-17 1 1 1
v -0.9840794 4.270244 -1.353584E-16 1 1 1
v -0.7318006 3.237599 -9.023893E-17 1 1 1
v 0.09375 4.298081 -0.09375 1 1 1
v 0.09375 0.348081 -0.09375 1 1 1
v 0.09375 4.298081 0.09375 1 1 1
v 0.09375 0.348081 0.09375 1 1 1
v 0.0004819674 0 0.09375 1 1 1
v -0.1713768 0.04604942 0.09375 1 1 1
v -0.2201736 0.1626521 0.09375 1 1 1
v -0.09375 0.3853551 0.09375 1 1 1
v -0.09375 4.298081 0.09375 1 1 1
v -0.09375 0.3853551 -0.09375 1 1 1
v -0.09375 4.298081 -0.09375 1 1 1
v 0.0004819674 0 -0.09375 1 1 1
v -0.1713768 0.04604942 -0.09375 1 1 1
v -0.2201736 0.1626521 -0.09375 1 1 1
v 0.09375 4.498081 -0.09375 1 1 1
v 0.09375 4.498081 0.09375 1 1 1
v -0.09375 4.498081 -0.09375 1 1 1
v -0.09375 4.498081 0.09375 1 1 1
v -0.125 4.398081 -0.125 1 1 1
v 0.125 4.398081 -0.125 1 1 1
v -0.125 4.398081 0.125 1 1 1
v 0.125 4.398081 0.125 1 1 1
v -0.0703125 1.123081 -0.1265625 1 1 1
v 0.0703125 1.123081 -0.1265625 1 1 1
v -0.0703125 2.473081 -0.1265625 1 1 1
v 0.0703125 2.473081 -0.1265625 1 1 1
v -0.1265625 1.123081 0.0703125 1 1 1
v -0.1265625 2.473081 0.0703125 1 1 1
v -0.0703125 1.123081 0.1265625 1 1 1
v -0.0703125 2.473081 0.1265625 1 1 1
v 0.1265625 2.473081 -0.0703125 1 1 1
v 0.1265625 1.123081 -0.0703125 1 1 1
v 0.1265625 1.123081 0.0703125 1 1 1
v 0.0703125 1.123081 0.1265625 1 1 1
v -0.1265625 1.123081 -0.0703125 1 1 1
v 0.1265625 2.473081 0.0703125 1 1 1
v 0.0703125 2.473081 0.1265625 1 1 1
v -0.1265625 2.473081 -0.0703125 1 1 1
v 0.16875 2.623081 -0.09375 1 1 1
v 0.16875 2.473081 -0.09375 1 1 1
v 0.16875 2.623081 0.09375 1 1 1
v 0.16875 2.473081 0.09375 1 1 1
v 0.09375 2.473081 0.16875 1 1 1
v -0.09375 2.473081 0.16875 1 1 1
v 0.09375 2.623081 0.16875 1 1 1
v -0.09375 2.623081 0.16875 1 1 1
v -0.09375 2.473081 -0.16875 1 1 1
v 0.09375 2.473081 -0.16875 1 1 1
v -0.09375 2.623081 -0.16875 1 1 1
v 0.09375 2.623081 -0.16875 1 1 1
v -0.16875 2.473081 -0.09375 1 1 1
v -0.16875 2.623081 -0.09375 1 1 1
v -0.16875 2.473081 0.09375 1 1 1
v -0.16875 2.623081 0.09375 1 1 1
v 0.16875 1.123081 -0.09375 1 1 1
v 0.16875 0.973081 -0.09375 1 1 1
v 0.16875 1.123081 0.09375 1 1 1
v 0.16875 0.973081 0.09375 1 1 1
v 0.09375 0.973081 0.16875 1 1 1
v -0.09375 0.973081 0.16875 1 1 1
v 0.09375 1.123081 0.16875 1 1 1
v -0.09375 1.123081 0.16875 1 1 1
v -0.09375 0.973081 -0.16875 1 1 1
v 0.09375 0.973081 -0.16875 1 1 1
v -0.09375 1.123081 -0.16875 1 1 1
v 0.09375 1.123081 -0.16875 1 1 1
v -0.16875 0.973081 -0.09375 1 1 1
v -0.16875 1.123081 -0.09375 1 1 1
v -0.16875 0.973081 0.09375 1 1 1
v -0.16875 1.123081 0.09375 1 1 1
v 0.16875 1.601652 -0.09375 1 1 1
v 0.16875 1.415938 -0.09375 1 1 1
v 0.16875 1.601652 0.09375 1 1 1
v 0.16875 1.415938 0.09375 1 1 1
v 0.09375 1.415938 0.16875 1 1 1
v -0.09375 1.415938 0.16875 1 1 1
v 0.09375 1.601652 0.16875 1 1 1
v -0.09375 1.601652 0.16875 1 1 1
v -0.09375 1.415938 -0.16875 1 1 1
v 0.09375 1.415938 -0.16875 1 1 1
v -0.09375 1.601652 -0.16875 1 1 1
v 0.09375 1.601652 -0.16875 1 1 1
v -0.16875 1.415938 -0.09375 1 1 1
v -0.16875 1.601652 -0.09375 1 1 1
v -0.16875 1.415938 0.09375 1 1 1
v -0.16875 1.601652 0.09375 1 1 1
v 0.1265625 1.315938 0.0703125 1 1 1
v 0.1265625 1.315938 -0.0703125 1 1 1
v 0.0703125 1.315938 0.1265625 1 1 1
v 0.0703125 1.315938 -0.1265625 1 1 1
v -0.0703125 1.315938 -0.1265625 1 1 1
v -0.0703125 1.315938 0.1265625 1 1 1
v -0.1265625 1.315938 -0.0703125 1 1 1
v -0.1265625 1.315938 0.0703125 1 1 1
v 0.1265625 1.701652 0.0703125 1 1 1
v 0.0703125 1.701652 0.1265625 1 1 1
v -0.0703125 1.701652 0.1265625 1 1 1
v -0.1265625 1.701652 0.0703125 1 1 1
v -0.0703125 1.701652 -0.1265625 1 1 1
v -0.1265625 1.701652 -0.0703125 1 1 1
v 0.1265625 1.701652 -0.0703125 1 1 1
v 0.0703125 1.701652 -0.1265625 1 1 1
v 0.16875 2.180224 -0.09375 1 1 1
v 0.16875 1.99451 -0.09375 1 1 1
v 0.16875 2.180224 0.09375 1 1 1
v 0.16875 1.99451 0.09375 1 1 1
v 0.09375 1.99451 0.16875 1 1 1
v -0.09375 1.99451 0.16875 1 1 1
v 0.09375 2.180224 0.16875 1 1 1
v -0.09375 2.180224 0.16875 1 1 1
v -0.09375 1.99451 -0.16875 1 1 1
v 0.09375 1.99451 -0.16875 1 1 1
v -0.09375 2.180224 -0.16875 1 1 1
v 0.09375 2.180224 -0.16875 1 1 1
v -0.16875 1.99451 -0.09375 1 1 1
v -0.16875 2.180224 -0.09375 1 1 1
v -0.16875 1.99451 0.09375 1 1 1
v -0.16875 2.180224 0.09375 1 1 1
v 0.1265625 1.89451 0.0703125 1 1 1
v 0.1265625 1.89451 -0.0703125 1 1 1
v 0.0703125 1.89451 0.1265625 1 1 1
v 0.0703125 1.89451 -0.1265625 1 1 1
v -0.0703125 1.89451 -0.1265625 1 1 1
v -0.0703125 1.89451 0.1265625 1 1 1
v -0.1265625 1.89451 -0.0703125 1 1 1
v -0.1265625 1.89451 0.0703125 1 1 1
v 0.1265625 2.280224 0.0703125 1 1 1
v 0.0703125 2.280224 0.1265625 1 1 1
v -0.0703125 2.280224 0.1265625 1 1 1
v -0.1265625 2.280224 0.0703125 1 1 1
v -0.0703125 2.280224 -0.1265625 1 1 1
v -0.1265625 2.280224 -0.0703125 1 1 1
v 0.1265625 2.280224 -0.0703125 1 1 1
v 0.0703125 2.280224 -0.1265625 1 1 1

vn 0.9238795 0 -0.3826834
vn 0.9238795 0 0.3826834
vn 0.3826834 0 0.9238795
vn -0.3826834 0 0.9238795
vn -0.3826834 0 -0.9238795
vn 0.3826834 0 -0.9238795
vn -0.9238795 0 -0.3826834
vn -0.9238795 0 0.3826834
vn 0 1 0
vn 0 -1 0
vn -0.3561203 -0.3041444 -0.8835579
vn 0.3561203 -0.3041444 -0.8835579
vn -0.3712388 -0.3046964 -0.8771214
vn 0.3712388 -0.3046964 -0.8771214
vn 0.8771214 -0.3046964 -0.3712388
vn 0.8835579 -0.3041444 -0.3561203
vn 0.8771214 -0.3046964 0.3712388
vn 0.8835579 -0.3041444 0.3561203
vn 0.3561203 -0.3041444 0.8835579
vn 0.3712388 -0.3046964 0.8771214
vn -0.8835579 -0.3041444 0.3561203
vn -0.8771214 -0.3046964 0.3712388
vn -0.3561203 -0.3041444 0.8835579
vn -0.3712388 -0.3046964 0.8771214
vn -0.8771214 -0.3046964 -0.3712388
vn -0.8835579 -0.3041444 -0.3561203
vn -0.9238795 1.376686E-08 -0.3826834
vn -0.9238795 1.376686E-08 0.3826834
vn -0.3826834 5.702419E-09 0.9238795
vn 0.3826834 -5.702419E-09 0.9238795
vn 0.3826834 -5.702419E-09 -0.9238795
vn -0.3826834 5.702419E-09 -0.9238795
vn 0.9238795 -1.376686E-08 -0.3826834
vn 0.9238795 -1.376686E-08 0.3826834
vn -1.490114E-08 -1 0
vn 1.490114E-08 1 0
vn 0.3561203 0.3041444 -0.8835579
vn -0.3561203 0.3041444 -0.8835579
vn 0.3712388 0.3046964 -0.8771214
vn -0.3712388 0.3046964 -0.8771214
vn -0.8771214 0.3046964 -0.3712388
vn -0.8835579 0.3041444 -0.3561203
vn -0.8771214 0.3046964 0.3712388
vn -0.8835579 0.3041444 0.3561203
vn -0.3561203 0.3041444 0.8835579
vn -0.3712388 0.3046964 0.8771214
vn 0.8835579 0.3041444 0.3561203
vn 0.8771214 0.3046964 0.3712388
vn 0.3561203 0.3041444 0.8835579
vn 0.3712388 0.3046964 0.8771214
vn 0.8771214 0.3046964 -0.3712388
vn 0.8835579 0.3041444 -0.3561203
vn 1 -1.192093E-07 0
vn -0.1036061 1.235081E-08 -0.9946185
vn 0.3162279 0.9486834 0
vn -0.1036061 1.235081E-08 0.9946185
vn 0.3162277 -0.9486835 0
vn 0.004019419 -4.79152E-10 0.9999919
vn 0.0002669157 -0.005308408 0.9999859
vn 0.376901 -0.1969604 0.9050703
vn 0.4266145 -5.08564E-08 0.9044336
vn 0.3769011 0.1969604 0.9050703
vn 0.0002669169 0.005308408 0.9999859
vn -0.0002669157 0.005308408 -0.9999859
vn -0.004019419 4.79152E-10 -0.9999919
vn 0.3738492 -0.1931418 -0.9071566
vn 0.4194329 -5.000029E-08 -0.9077864
vn 0.3738492 0.1931417 -0.9071566
vn -0.0002669169 -0.005308408 -0.9999859
vn -1 1.192093E-07 0
vn -0.9614748 0.2748935 0
vn -0.961183 0.275912 0
vn -0.961475 -0.2748933 0
vn -0.9611831 -0.2759117 0
vn -0.9182659 0.3959648 0
vn -0.918266 -0.3959646 0
vn -0.1052477 -0.6610975 0.7428816
vn 0.2431546 -0.3461611 0.9061171
vn -0.1052475 0.6610975 0.7428816
vn 0.2431547 0.346161 0.9061171
vn -0.1052477 -0.6610975 -0.7428816
vn 0.2431546 -0.3461611 -0.9061171
vn -0.1052475 0.6610975 -0.7428816
vn 0.2431547 0.346161 -0.9061171
vn -0.004019419 -4.79152E-10 0.9999919
vn -0.0002669157 -0.005308408 0.9999859
vn -0.376901 -0.1969604 0.9050703
vn -0.4266145 -5.08564E-08 0.9044336
vn -0.3769011 0.1969604 0.9050703
vn -0.0002669169 0.005308408 0.9999859
vn 0.0002669157 0.005308408 -0.9999859
vn 0.004019419 4.79152E-10 -0.9999919
vn -0.3738492 -0.1931418 -0.9071566
vn -0.4194329 -5.000029E-08 -0.9077864
vn -0.3738492 0.1931417 -0.9071566
vn 0.0002669169 -0.005308408 -0.9999859
vn 1 1.192093E-07 0
vn 0.9614748 0.2748935 0
vn 0.961183 0.275912 0
vn 0.961475 -0.2748933 0
vn 0.9611831 -0.2759117 0
vn 0.9182659 0.3959648 0
vn 0.918266 -0.3959646 0
vn 0.1052477 -0.6610975 0.7428816
vn -0.2431546 -0.3461611 0.9061171
vn 0.1052475 0.6610975 0.7428816
vn -0.2431547 0.346161 0.9061171
vn 0.1052477 -0.6610975 -0.7428816
vn -0.2431546 -0.3461611 -0.9061171
vn 0.1052475 0.6610975 -0.7428816
vn -0.2431547 0.346161 -0.9061171
vn -1 -1.192093E-07 0
vn 0.1036061 1.235081E-08 -0.9946185
vn -0.3162279 0.9486834 0
vn 0.1036061 1.235081E-08 0.9946185
vn -0.3162277 -0.9486835 0
vn 0.03156874 0.9995017 0
vn 0.0315685 -0.9995017 0
vn 0.6838422 -0.7296299 0
vn 0.943234 0.3321296 0
vn 0.6869052 -0.1678133 0.7071068
vn 0.6967865 -8.306341E-08 0.7172786
vn 0.6182967 -0.3212794 0.7172786
vn 0.6182967 -0.3212794 -0.7172786
vn 0.6869052 -0.1678133 -0.7071068
vn 0.6967865 -8.306341E-08 -0.7172786
vn 0.400511 0.5701774 -0.7172786
vn 0.6182969 0.3212793 -0.7172786
vn 0.6182969 0.3212793 0.7172786
vn 0.400511 0.5701774 0.7172786
vn 0.4005109 -0.5701776 -0.7172786
vn 0.4005109 -0.5701776 0.7172786
vn -0.03156874 0.9995017 0
vn -0.0315685 -0.9995017 0
vn -0.2703879 0.9627516 0
vn -0.9901239 0.140196 0
vn -0.8915715 -0.4528801 0
vn 0.1023731 -0.9947462 0
vn -0.6182967 -0.3212794 0.7172786
vn -0.6967865 -8.306341E-08 0.7172786
vn -0.6182967 -0.3212794 -0.7172786
vn -0.6967865 -8.306341E-08 -0.7172786
vn -0.400511 0.5701774 -0.7172786
vn -0.5321522 0.4656331 -0.7071068
vn -0.6182969 0.3212793 -0.7172786
vn -0.6182969 0.3212793 0.7172786
vn -0.400511 0.5701774 0.7172786
vn -0.2575102 -0.6585503 -0.7071068
vn -0.4005109 -0.5701776 -0.7172786
vn -0.5321522 0.4656331 0.7071068
vn -0.4005109 -0.5701776 0.7172786
vn -0.2575102 -0.6585503 0.7071068
vn 1 0 0
vn 0.9914449 -0.1305262 0
vn 0 0 1
vn -0.9668621 0.2552991 0
vn -1 0 0
vn 0 0 -1
vn -0.9982014 0.05995033 0
vn -0.6579755 -0.7530394 0
vn 0.9659258 -0.258819 0
vn -0.258819 -0.9659258 0
vn 0 0.298275 -0.95448
vn -0.95448 0.298275 0
vn 0 0.298275 0.95448
vn 0.95448 0.298275 0
vn -0.95448 -0.298275 0
vn 0.95448 -0.298275 0
vn 0 -0.298275 -0.95448
vn 0 -0.298275 0.95448
vn 0.9238796 0 -0.3826835
vn 0.9238796 0 0.3826835
vn 0.3826835 0 0.9238796
vn -0.3826835 0 0.9238796
vn -0.3826835 0 -0.9238796
vn 0.3826835 0 -0.9238796
vn -0.9238796 0 -0.3826835
vn -0.9238796 0 0.3826835
vn 0.8268077 -0.4329659 0.3590674
vn 0.8268077 -0.4329659 -0.3590674
vn 0.8437096 -0.4309524 0.3200532
vn 0.8437096 -0.4309524 -0.3200532
vn 0.3590674 -0.4329659 0.8268077
vn 0.3200532 -0.4309525 0.8437096
vn 0.3590674 -0.4329659 -0.8268077
vn 0.3200532 -0.4309525 -0.8437096
vn -0.3590674 -0.4329659 -0.8268077
vn -0.3200532 -0.4309525 -0.8437096
vn -0.3590674 -0.4329659 0.8268077
vn -0.3200532 -0.4309525 0.8437096
vn -0.8437096 -0.4309524 -0.3200532
vn -0.8268077 -0.4329659 -0.3590674
vn -0.8437096 -0.4309524 0.3200532
vn -0.8268077 -0.4329659 0.3590674
vn 0.8268077 0.4329659 0.3590674
vn 0.3590674 0.4329659 0.8268077
vn 0.8437096 0.4309524 0.3200532
vn 0.3200532 0.4309525 0.8437096
vn -0.3200532 0.4309525 0.8437096
vn -0.3590674 0.4329659 0.8268077
vn -0.8437096 0.4309524 0.3200532
vn -0.8268077 0.4329659 0.3590674
vn -0.3200532 0.4309525 -0.8437096
vn -0.8437096 0.4309524 -0.3200532
vn -0.3590674 0.4329659 -0.8268077
vn -0.8268077 0.4329659 -0.3590674
vn 0.8268077 0.4329659 -0.3590674
vn 0.8437096 0.4309524 -0.3200532
vn 0.3590674 0.4329659 -0.8268077
vn 0.3200532 0.4309525 -0.8437096

vt 0.46875 0.225
vt 0.46875 0.125
vt 0.46875 0.025
vt 0.46875 0.02500001
vt 0.46875 0.0916249
vt 0.46875 0.08029678
vt 0.46875 0.1794217
vt 0.46875 0.1964053
vt 0.46875 0.04440225
vt 0.46875 0.1322973
vt 0.46875 0.175
vt 0.46875 0.075
vt 0.71875 0.06944445
vt 0.71875 0.04440225
vt 0.71875 0.2014056
vt 0.71875 0.2199488
vt 0.71875 0.2098465
vt 0.71875 0.225
vt 0.71875 0.1964053
vt 0.71875 0.2047954
vt 0.71875 0.1794217
vt 0.71875 0.1322973
vt 0.71875 0.1487335
vt 0.71875 0.1907799
vt 0.71875 0.166312
vt 0.71875 0.1627489
vt 0.71875 0.09871937
vt 0.71875 0.0892667
vt 0.71875 0.1289112
vt 0.96875 0.225
vt 0.96875 0.025
vt 0.96875 0.0268873
vt 0.96875 0.175
vt 0.96875 0.125
vt 0.96875 0.075
vt 0.21875 0.475
vt 0.21875 0.275
vt 0.21875 0.425
vt 0.21875 0.325
vt 0.21875 0.3990741
vt 0.21875 0.3509259
vt 0.84375 0.075

usemtl colormap

f 3/1/2 2/2/1 1/1/1
f 2/2/1 3/1/2 4/2/2
f 7/1/3 6/2/4 5/2/3
f 6/2/4 7/1/3 8/1/4
f 11/1/5 10/2/6 9/2/5
f 10/2/6 11/1/5 12/1/6
f 15/2/8 14/1/7 13/2/7
f 14/1/7 15/2/8 16/1/8
f 13/2/7 11/1/5 9/2/5
f 11/1/5 13/2/7 14/1/7
f 7/1/3 4/2/2 3/1/2
f 4/2/2 7/1/3 5/2/3
f 6/2/4 16/1/8 15/2/8
f 16/1/8 6/2/4 8/1/4
f 1/1/1 10/2/6 12/1/6
f 10/2/6 1/1/1 2/2/1
f 12/1/9 3/1/9 1/1/9
f 3/1/9 12/1/9 7/1/9
f 7/1/9 12/1/9 11/1/9
f 7/1/9 11/1/9 8/1/9
f 8/1/9 11/1/9 14/1/9
f 8/1/9 14/1/9 16/1/9
f 19/3/10 18/3/10 17/3/10
f 18/3/10 19/3/10 20/3/10
f 20/3/10 19/3/10 21/3/10
f 20/3/10 21/3/10 22/3/10
f 22/3/10 21/3/10 23/3/10
f 22/3/10 23/3/10 24/3/10
f 9/2/13 20/3/12 22/3/11
f 20/3/12 9/2/13 10/2/14
f 2/2/15 20/3/12 10/2/14
f 20/3/12 2/2/15 18/3/16
f 4/2/17 18/3/16 2/2/15
f 18/3/16 4/2/17 17/3/18
f 4/2/17 19/3/19 17/3/18
f 19/3/19 4/2/17 5/2/20
f 21/3/23 15/2/22 23/3/21
f 15/2/22 21/3/23 6/2/24
f 5/2/20 21/3/23 19/3/19
f 21/3/23 5/2/20 6/2/24
f 22/3/11 13/2/25 9/2/13
f 13/2/25 22/3/11 24/3/26
f 24/3/26 15/2/22 13/2/25
f 15/2/22 24/3/26 23/3/21
f 27/1/28 26/2/27 25/1/27
f 26/2/27 27/1/28 28/2/28
f 31/1/29 30/2/30 29/2/29
f 30/2/30 31/1/29 32/1/30
f 35/1/31 34/2/32 33/2/31
f 34/2/32 35/1/31 36/1/32
f 39/2/34 38/1/33 37/2/33
f 38/1/33 39/2/34 40/1/34
f 37/2/33 35/1/31 33/2/31
f 35/1/31 37/2/33 38/1/33
f 31/1/29 28/2/28 27/1/28
f 28/2/28 31/1/29 29/2/29
f 30/2/30 40/1/34 39/2/34
f 40/1/34 30/2/30 32/1/30
f 25/1/27 34/2/32 36/1/32
f 34/2/32 25/1/27 26/2/27
f 36/1/35 27/1/35 25/1/35
f 27/1/35 36/1/35 31/1/35
f 31/1/35 36/1/35 35/1/35
f 31/1/35 35/1/35 32/1/35
f 32/1/35 35/1/35 38/1/35
f 32/1/35 38/1/35 40/1/35
f 43/3/36 42/3/36 41/3/36
f 42/3/36 43/3/36 44/3/36
f 44/3/36 43/3/36 45/3/36
f 44/3/36 45/3/36 46/3/36
f 46/3/36 45/3/36 47/3/36
f 46/3/36 47/3/36 48/3/36
f 33/2/39 44/3/38 46/3/37
f 44/3/38 33/2/39 34/2/40
f 26/2/41 44/3/38 34/2/40
f 44/3/38 26/2/41 42/3/42
f 28/2/43 42/3/42 26/2/41
f 42/3/42 28/2/43 41/3/44
f 28/2/43 43/3/45 41/3/44
f 43/3/45 28/2/43 29/2/46
f 45/3/49 39/2/48 47/3/47
f 39/2/48 45/3/49 30/2/50
f 29/2/46 45/3/49 43/3/45
f 45/3/49 29/2/46 30/2/50
f 46/3/37 37/2/51 33/2/39
f 37/2/51 46/3/37 48/3/52
f 48/3/52 39/2/48 37/2/51
f 39/2/48 48/3/52 47/3/47
f 51/1/53 50/1/53 49/1/53
f 50/1/53 51/1/53 52/1/53
f 51/1/54 54/4/54 53/3/54
f 54/4/54 51/1/54 49/1/54
f 53/3/55 52/1/55 51/1/55
f 52/1/55 53/3/55 55/3/55
f 56/4/56 52/1/56 55/3/56
f 52/1/56 56/4/56 50/1/56
f 50/1/57 54/4/57 49/1/57
f 54/4/57 50/1/57 56/4/57
f 67/7/68 68/6/69 76/10/84
f 72/9/83 76/10/84 68/6/69
f 65/7/66 75/10/82 63/6/64
f 70/9/81 63/6/64 75/10/82
f 61/7/62 74/10/80 62/6/63
f 71/9/79 62/6/63 74/10/80
f 59/7/60 58/6/59 73/10/78
f 69/9/77 73/10/78 58/6/59
f 68/6/74 62/6/73 72/9/76
f 71/9/76 72/9/76 62/6/73
f 70/9/75 69/9/75 63/6/72
f 58/6/71 63/6/72 69/9/75
f 64/5/70 57/5/70 68/6/74
f 62/6/73 68/6/74 57/5/70
f 63/6/72 58/6/71 64/5/70
f 57/5/70 64/5/70 58/6/71
f 64/5/65 68/6/69 67/7/68
f 64/5/65 67/7/68 66/8/67
f 65/7/66 64/5/65 66/8/67
f 63/6/64 64/5/65 65/7/66
f 62/6/63 57/5/58 61/7/62
f 61/7/62 57/5/58 60/8/61
f 57/5/58 59/7/60 60/8/61
f 57/5/58 58/6/59 59/7/60
f 79/7/87 78/6/86 77/5/85
f 80/8/88 79/7/87 77/5/85
f 80/8/88 77/5/85 81/7/89
f 81/7/89 77/5/85 82/6/90
f 85/7/93 84/5/92 83/6/91
f 86/8/94 84/5/92 85/7/93
f 86/8/94 87/7/95 84/5/92
f 87/7/95 88/6/96 84/5/92
f 78/6/98 84/5/97 77/5/97
f 84/5/97 78/6/98 83/6/99
f 77/5/97 88/6/101 82/6/100
f 88/6/101 77/5/97 84/5/97
f 89/9/102 83/6/99 78/6/98
f 83/6/99 89/9/102 90/9/102
f 82/6/100 92/9/103 91/9/103
f 92/9/103 82/6/100 88/6/101
f 78/6/86 93/10/105 89/9/104
f 93/10/105 78/6/86 79/7/87
f 94/10/107 82/6/90 91/9/106
f 82/6/90 94/10/107 81/7/89
f 95/10/109 83/6/91 90/9/108
f 83/6/91 95/10/109 85/7/93
f 88/6/96 96/10/111 92/9/110
f 96/10/111 88/6/96 87/7/95
f 104/4/116 98/1/116 102/4/116
f 97/1/116 102/4/116 98/1/116
f 98/1/115 104/4/115 100/1/115
f 103/3/115 100/1/115 104/4/115
f 103/3/114 101/3/114 100/1/114
f 99/1/114 100/1/114 101/3/114
f 97/1/113 99/1/113 102/4/113
f 101/3/113 102/4/113 99/1/113
f 100/1/112 99/1/112 98/1/112
f 97/1/112 98/1/112 99/1/112
f 107/11/2 106/12/1 105/11/1
f 106/12/1 107/11/2 108/12/2
f 111/11/3 110/12/4 109/12/3
f 110/12/4 111/11/3 112/11/4
f 115/11/5 114/12/6 113/12/5
f 114/12/6 115/11/5 116/11/6
f 119/12/8 118/11/7 117/12/7
f 118/11/7 119/12/8 120/11/8
f 117/12/7 115/11/5 113/12/5
f 115/11/5 117/12/7 118/11/7
f 107/11/2 109/12/3 108/12/2
f 109/12/3 107/11/2 111/11/3
f 110/12/4 120/11/8 119/12/8
f 120/11/8 110/12/4 112/11/4
f 105/11/1 114/12/6 116/11/6
f 114/12/6 105/11/1 106/12/1
f 109/12/10 106/12/10 108/12/10
f 106/12/10 109/12/10 114/12/10
f 114/12/10 109/12/10 110/12/10
f 114/12/10 110/12/10 113/12/10
f 113/12/10 110/12/10 119/12/10
f 113/12/10 119/12/10 117/12/10
f 116/11/9 107/11/9 105/11/9
f 107/11/9 116/11/9 111/11/9
f 111/11/9 116/11/9 115/11/9
f 111/11/9 115/11/9 112/11/9
f 112/11/9 115/11/9 118/11/9
f 112/11/9 118/11/9 120/11/9
f 128/20/123 59/21/60 131/23/132
f 73/22/78 131/23/132 59/21/60
f 128/20/124 131/23/131 65/21/66
f 75/22/82 65/21/66 131/23/131
f 130/20/129 129/23/130 61/21/62
f 74/22/80 61/21/62 129/23/130
f 127/18/126 66/19/67 130/20/128
f 67/21/68 130/20/128 66/19/67
f 131/23/132 73/22/78 122/13/118
f 69/14/77 122/13/118 73/22/78
f 131/23/131 122/13/118 75/22/82
f 70/14/81 75/22/82 122/13/118
f 129/23/127 76/22/84 121/13/117
f 72/14/83 121/13/117 76/22/84
f 129/23/130 121/13/117 74/22/80
f 71/14/79 74/22/80 121/13/117
f 127/18/122 130/20/129 60/19/61
f 61/21/62 60/19/61 130/20/129
f 130/20/128 67/21/68 129/23/127
f 76/22/84 129/23/127 67/21/68
f 124/16/125 123/15/125 127/18/126
f 66/19/67 127/18/126 123/15/125
f 126/17/125 128/20/124 123/15/125
f 123/15/125 128/20/124 66/19/67
f 65/21/66 66/19/67 128/20/124
f 59/21/60 128/20/123 60/19/61
f 126/17/121 125/15/121 128/20/123
f 125/15/121 60/19/61 128/20/123
f 60/19/61 125/15/121 127/18/122
f 124/16/121 127/18/122 125/15/121
f 123/15/120 125/15/120 126/17/120
f 123/15/119 124/16/119 125/15/119
f 70/14/81 122/13/118 69/14/77
f 121/13/117 72/14/83 71/14/79
f 91/14/106 92/14/110 132/13/133
f 89/14/104 133/13/134 90/14/108
f 136/25/135 135/25/135 134/24/135
f 136/25/136 137/26/136 135/25/136
f 140/28/137 139/27/137 138/27/137
f 139/27/138 141/29/138 138/27/138
f 80/19/88 142/20/139 79/21/87
f 142/20/139 80/19/88 143/18/140
f 142/20/141 86/19/94 85/21/93
f 86/19/94 142/20/141 143/18/142
f 87/21/95 144/23/143 96/22/111
f 144/23/143 87/21/95 135/25/144
f 144/23/143 135/25/144 137/26/144
f 135/25/144 87/21/95 134/24/144
f 134/24/144 87/21/95 145/20/145
f 145/20/146 80/19/88 81/21/89
f 80/19/88 145/20/146 143/18/140
f 132/13/133 94/22/107 91/14/106
f 94/22/107 132/13/133 144/23/147
f 96/22/111 132/13/133 92/14/110
f 132/13/133 96/22/111 144/23/143
f 138/27/148 133/13/134 140/28/148
f 138/27/148 90/14/108 133/13/134
f 90/14/108 138/27/148 95/22/109
f 95/22/109 138/27/148 141/29/148
f 95/22/109 141/29/148 146/23/149
f 86/19/94 145/20/145 87/21/95
f 145/20/145 86/19/94 143/18/142
f 144/23/147 81/21/89 94/22/107
f 81/21/89 144/23/147 136/25/150
f 136/25/150 144/23/147 137/26/150
f 81/21/89 136/25/150 134/24/150
f 81/21/89 134/24/150 145/20/146
f 146/23/149 85/21/93 95/22/109
f 85/21/93 146/23/149 142/20/141
f 79/21/87 146/23/151 93/22/105
f 146/23/151 79/21/87 142/20/139
f 133/13/134 139/27/152 140/28/152
f 89/14/104 139/27/152 133/13/134
f 139/27/152 89/14/104 93/22/105
f 139/27/152 93/22/105 141/29/152
f 141/29/152 93/22/105 146/23/151
f 149/30/153 148/31/154 147/30/153
f 148/31/154 149/30/153 150/31/154
f 150/31/155 152/31/155 151/31/155
f 152/31/155 150/31/155 153/31/155
f 153/31/155 150/31/155 154/32/155
f 154/32/155 150/31/155 149/30/155
f 154/32/155 149/30/155 155/30/155
f 154/32/156 157/30/157 156/32/156
f 157/30/157 154/32/156 155/30/157
f 157/30/9 149/30/9 147/30/9
f 149/30/9 157/30/9 155/30/9
f 159/31/158 148/31/158 158/31/158
f 148/31/158 159/31/158 160/31/158
f 148/31/158 160/31/158 156/32/158
f 148/31/158 156/32/158 147/30/158
f 147/30/158 156/32/158 157/30/158
f 153/31/159 156/32/156 160/31/159
f 156/32/156 153/31/159 154/32/156
f 152/31/160 160/31/159 159/31/160
f 160/31/159 152/31/160 153/31/159
f 150/31/154 158/31/161 148/31/154
f 158/31/161 150/31/154 151/31/161
f 152/31/160 158/31/162 151/31/162
f 158/31/162 152/31/160 159/31/160
f 163/33/9 162/33/9 161/33/9
f 162/33/9 163/33/9 164/33/9
f 163/33/163 166/34/163 165/34/163
f 166/34/163 163/33/163 161/33/163
f 167/34/164 163/33/164 165/34/164
f 163/33/164 167/34/164 164/33/164
f 162/33/165 167/34/165 168/34/165
f 167/34/165 162/33/165 164/33/165
f 161/33/166 168/34/166 166/34/166
f 168/34/166 161/33/166 162/33/166
f 157/35/167 167/34/167 165/34/167
f 167/34/167 157/35/167 155/35/167
f 168/34/168 147/35/168 166/34/168
f 147/35/168 168/34/168 149/35/168
f 165/34/169 147/35/169 157/35/169
f 147/35/169 165/34/169 166/34/169
f 168/34/170 155/35/170 149/35/170
f 155/35/170 168/34/170 167/34/170
f 171/37/5 170/36/6 169/36/5
f 170/36/6 171/37/5 172/37/6
f 175/36/4 174/37/8 173/36/8
f 174/37/8 175/36/4 176/37/4
f 177/37/1 170/36/6 172/37/6
f 170/36/6 177/37/1 178/36/1
f 180/36/10 178/36/10 179/36/10
f 178/36/10 180/36/10 170/36/10
f 170/36/10 180/36/10 175/36/10
f 170/36/10 175/36/10 169/36/10
f 169/36/10 175/36/10 173/36/10
f 169/36/10 173/36/10 181/36/10
f 182/37/2 178/36/1 177/37/1
f 178/36/1 182/37/2 179/36/2
f 172/37/9 182/37/9 177/37/9
f 182/37/9 172/37/9 183/37/9
f 183/37/9 172/37/9 171/37/9
f 183/37/9 171/37/9 176/37/9
f 176/37/9 171/37/9 184/37/9
f 176/37/9 184/37/9 174/37/9
f 173/36/8 184/37/7 181/36/7
f 184/37/7 173/36/8 174/37/8
f 183/37/3 175/36/4 180/36/3
f 175/36/4 183/37/3 176/37/4
f 183/37/3 179/36/2 182/37/2
f 179/36/2 183/37/3 180/36/3
f 181/36/7 171/37/5 169/36/5
f 171/37/5 181/36/7 184/37/7
f 187/38/2 186/39/1 185/38/1
f 186/39/1 187/38/2 188/39/2
f 191/38/3 190/39/4 189/39/3
f 190/39/4 191/38/3 192/38/4
f 195/38/5 194/39/6 193/39/5
f 194/39/6 195/38/5 196/38/6
f 199/39/8 198/38/7 197/39/7
f 198/38/7 199/39/8 200/38/8
f 197/39/7 195/38/5 193/39/5
f 195/38/5 197/39/7 198/38/7
f 187/38/2 189/39/3 188/39/2
f 189/39/3 187/38/2 191/38/3
f 190/39/4 200/38/8 199/39/8
f 200/38/8 190/39/4 192/38/4
f 185/38/1 194/39/6 196/38/6
f 194/39/6 185/38/1 186/39/1
f 189/39/10 186/39/10 188/39/10
f 186/39/10 189/39/10 194/39/10
f 194/39/10 189/39/10 190/39/10
f 194/39/10 190/39/10 193/39/10
f 193/39/10 190/39/10 199/39/10
f 193/39/10 199/39/10 197/39/10
f 196/38/9 187/38/9 185/38/9
f 187/38/9 196/38/9 191/38/9
f 191/38/9 196/38/9 195/38/9
f 191/38/9 195/38/9 192/38/9
f 192/38/9 195/38/9 198/38/9
f 192/38/9 198/38/9 200/38/9
f 203/38/2 202/39/1 201/38/1
f 202/39/1 203/38/2 204/39/2
f 207/38/3 206/39/4 205/39/3
f 206/39/4 207/38/3 208/38/4
f 211/38/5 210/39/6 209/39/5
f 210/39/6 211/38/5 212/38/6
f 215/39/8 214/38/7 213/39/7
f 214/38/7 215/39/8 216/38/8
f 213/39/7 211/38/5 209/39/5
f 211/38/5 213/39/7 214/38/7
f 203/38/2 205/39/3 204/39/2
f 205/39/3 203/38/2 207/38/3
f 206/39/4 216/38/8 215/39/8
f 216/38/8 206/39/4 208/38/4
f 201/38/1 210/39/6 212/38/6
f 210/39/6 201/38/1 202/39/1
f 205/39/10 202/39/10 204/39/10
f 202/39/10 205/39/10 210/39/10
f 210/39/10 205/39/10 206/39/10
f 210/39/10 206/39/10 209/39/10
f 209/39/10 206/39/10 215/39/10
f 209/39/10 215/39/10 213/39/10
f 212/38/9 203/38/9 201/38/9
f 203/38/9 212/38/9 207/38/9
f 207/38/9 212/38/9 211/38/9
f 207/38/9 211/38/9 208/38/9
f 208/38/9 211/38/9 214/38/9
f 208/38/9 214/38/9 216/38/9
f 219/40/172 218/41/171 217/40/171
f 218/41/171 219/40/172 220/41/172
f 223/40/173 222/41/174 221/41/173
f 222/41/174 223/40/173 224/40/174
f 227/40/175 226/41/176 225/41/175
f 226/41/176 227/40/175 228/40/176
f 231/41/178 230/40/177 229/41/177
f 230/40/177 231/41/178 232/40/178
f 229/41/177 227/40/175 225/41/175
f 227/40/175 229/41/177 230/40/177
f 219/40/172 221/41/173 220/41/172
f 221/41/173 219/40/172 223/40/173
f 222/41/174 232/40/178 231/41/178
f 232/40/178 222/41/174 224/40/174
f 217/40/171 226/41/176 228/40/176
f 226/41/176 217/40/171 218/41/171
f 233/39/181 218/41/180 220/41/179
f 218/41/180 233/39/181 234/39/182
f 221/41/183 233/39/181 220/41/179
f 233/39/181 221/41/183 235/39/184
f 234/39/182 226/41/185 218/41/180
f 226/41/185 234/39/182 236/39/186
f 236/39/186 225/41/187 226/41/185
f 225/41/187 236/39/186 237/39/188
f 222/41/189 235/39/184 221/41/183
f 235/39/184 222/41/189 238/39/190
f 239/39/191 225/41/187 237/39/188
f 225/41/187 239/39/191 229/41/192
f 222/41/189 240/39/193 238/39/190
f 240/39/193 222/41/189 231/41/194
f 231/41/194 239/39/191 240/39/193
f 239/39/191 231/41/194 229/41/192
f 241/38/197 223/40/196 219/40/195
f 223/40/196 241/38/197 242/38/198
f 244/38/201 224/40/200 243/38/199
f 224/40/200 244/38/201 232/40/202
f 242/38/198 224/40/200 223/40/196
f 224/40/200 242/38/198 243/38/199
f 227/40/205 246/38/204 245/38/203
f 246/38/204 227/40/205 230/40/206
f 230/40/206 244/38/201 246/38/204
f 244/38/201 230/40/206 232/40/202
f 228/40/209 247/38/208 217/40/207
f 247/38/208 228/40/209 248/38/210
f 227/40/205 248/38/210 228/40/209
f 248/38/210 227/40/205 245/38/203
f 247/38/208 219/40/195 217/40/207
f 219/40/195 247/38/208 241/38/197
f 251/40/172 250/41/171 249/40/171
f 250/41/171 251/40/172 252/41/172
f 255/40/173 254/41/174 253/41/173
f 254/41/174 255/40/173 256/40/174
f 259/40/175 258/41/176 257/41/175
f 258/41/176 259/40/175 260/40/176
f 263/41/178 262/40/177 261/41/177
f 262/40/177 263/41/178 264/40/178
f 261/41/177 259/40/175 257/41/175
f 259/40/175 261/41/177 262/40/177
f 251/40/172 253/41/173 252/41/172
f 253/41/173 251/40/172 255/40/173
f 254/41/174 264/40/178 263/41/178
f 264/40/178 254/41/174 256/40/174
f 249/40/171 258/41/176 260/40/176
f 258/41/176 249/40/171 250/41/171
f 265/39/181 250/41/180 252/41/179
f 250/41/180 265/39/181 266/39/182
f 253/41/183 265/39/181 252/41/179
f 265/39/181 253/41/183 267/39/184
f 266/39/182 258/41/185 250/41/180
f 258/41/185 266/39/182 268/39/186
f 268/39/186 257/41/187 258/41/185
f 257/41/187 268/39/186 269/39/188
f 254/41/189 267/39/184 253/41/183
f 267/39/184 254/41/189 270/39/190
f 271/39/191 257/41/187 269/39/188
f 257/41/187 271/39/191 261/41/192
f 254/41/189 272/39/193 270/39/190
f 272/39/193 254/41/189 263/41/194
f 263/41/194 271/39/191 272/39/193
f 271/39/191 263/41/194 261/41/192
f 273/38/197 255/40/196 251/40/195
f 255/40/196 273/38/197 274/38/198
f 276/38/201 256/40/200 275/38/199
f 256/40/200 276/38/201 264/40/202
f 274/38/198 256/40/200 255/40/196
f 256/40/200 274/38/198 275/38/199
f 259/40/205 278/38/204 277/38/203
f 278/38/204 259/40/205 262/40/206
f 262/40/206 276/38/201 278/38/204
f 276/38/201 262/40/206 264/40/202
f 279/38/208 251/40/195 249/40/207
f 251/40/195 279/38/208 273/38/197
f 260/40/209 279/38/208 249/40/207
f 279/38/208 260/40/209 280/38/210
f 259/40/205 280/38/210 260/40/209
f 280/38/210 259/40/205 277/38/203
f 155/42/10 147/42/10 149/42/10
f 147/42/10 155/42/10 157/42/10

g axe-double-long




usemtl colormap

f 3/1/2 2/2/1 1/1/1
f 2/2/1 3/1/2 4/2/2
f 7/1/3 6/2/4 5/2/3
f 6/2/4 7/1/3 8/1/4
f 11/1/5 10/2/6 9/2/5
f 10/2/6 11/1/5 12/1/6
f 15/2/8 14/1/7 13/2/7
f 14/1/7 15/2/8 16/1/8
f 13/2/7 11/1/5 9/2/5
f 11/1/5 13/2/7 14/1/7
f 7/1/3 4/2/2 3/1/2
f 4/2/2 7/1/3 5/2/3
f 6/2/4 16/1/8 15/2/8
f 16/1/8 6/2/4 8/1/4
f 1/1/1 10/2/6 12/1/6
f 10/2/6 1/1/1 2/2/1
f 12/1/9 3/1/9 1/1/9
f 3/1/9 12/1/9 7/1/9
f 7/1/9 12/1/9 11/1/9
f 7/1/9 11/1/9 8/1/9
f 8/1/9 11/1/9 14/1/9
f 8/1/9 14/1/9 16/1/9
f 19/3/10 18/3/10 17/3/10
f 18/3/10 19/3/10 20/3/10
f 20/3/10 19/3/10 21/3/10
f 20/3/10 21/3/10 22/3/10
f 22/3/10 21/3/10 23/3/10
f 22/3/10 23/3/10 24/3/10
f 9/2/13 20/3/12 22/3/11
f 20/3/12 9/2/13 10/2/14
f 2/2/15 20/3/12 10/2/14
f 20/3/12 2/2/15 18/3/16
f 4/2/17 18/3/16 2/2/15
f 18/3/16 4/2/17 17/3/18
f 4/2/17 19/3/19 17/3/18
f 19/3/19 4/2/17 5/2/20
f 21/3/23 15/2/22 23/3/21
f 15/2/22 21/3/23 6/2/24
f 5/2/20 21/3/23 19/3/19
f 21/3/23 5/2/20 6/2/24
f 22/3/11 13/2/25 9/2/13
f 13/2/25 22/3/11 24/3/26
f 24/3/26 15/2/22 13/2/25
f 15/2/22 24/3/26 23/3/21
f 27/1/28 26/2/27 25/1/27
f 26/2/27 27/1/28 28/2/28
f 31/1/29 30/2/30 29/2/29
f 30/2/30 31/1/29 32/1/30
f 35/1/31 34/2/32 33/2/31
f 34/2/32 35/1/31 36/1/32
f 39/2/34 38/1/33 37/2/33
f 38/1/33 39/2/34 40/1/34
f 37/2/33 35/1/31 33/2/31
f 35/1/31 37/2/33 38/1/33
f 31/1/29 28/2/28 27/1/28
f 28/2/28 31/1/29 29/2/29
f 30/2/30 40/1/34 39/2/34
f 40/1/34 30/2/30 32/1/30
f 25/1/27 34/2/32 36/1/32
f 34/2/32 25/1/27 26/2/27
f 36/1/35 27/1/35 25/1/35
f 27/1/35 36/1/35 31/1/35
f 31/1/35 36/1/35 35/1/35
f 31/1/35 35/1/35 32/1/35
f 32/1/35 35/1/35 38/1/35
f 32/1/35 38/1/35 40/1/35
f 43/3/36 42/3/36 41/3/36
f 42/3/36 43/3/36 44/3/36
f 44/3/36 43/3/36 45/3/36
f 44/3/36 45/3/36 46/3/36
f 46/3/36 45/3/36 47/3/36
f 46/3/36 47/3/36 48/3/36
f 33/2/39 44/3/38 46/3/37
f 44/3/38 33/2/39 34/2/40
f 26/2/41 44/3/38 34/2/40
f 44/3/38 26/2/41 42/3/42
f 28/2/43 42/3/42 26/2/41
f 42/3/42 28/2/43 41/3/44
f 28/2/43 43/3/45 41/3/44
f 43/3/45 28/2/43 29/2/46
f 45/3/49 39/2/48 47/3/47
f 39/2/48 45/3/49 30/2/50
f 29/2/46 45/3/49 43/3/45
f 45/3/49 29/2/46 30/2/50
f 46/3/37 37/2/51 33/2/39
f 37/2/51 46/3/37 48/3/52
f 48/3/52 39/2/48 37/2/51
f 39/2/48 48/3/52 47/3/47
f 51/1/53 50/1/53 49/1/53
f 50/1/53 51/1/53 52/1/53
f 51/1/54 54/4/54 53/3/54
f 54/4/54 51/1/54 49/1/54
f 53/3/55 52/1/55 51/1/55
f 52/1/55 53/3/55 55/3/55
f 56/4/56 52/1/56 55/3/56
f 52/1/56 56/4/56 50/1/56
f 50/1/57 54/4/57 49/1/57
f 54/4/57 50/1/57 56/4/57
f 67/7/68 68/6/69 76/10/84
f 72/9/83 76/10/84 68/6/69
f 65/7/66 75/10/82 63/6/64
f 70/9/81 63/6/64 75/10/82
f 61/7/62 74/10/80 62/6/63
f 71/9/79 62/6/63 74/10/80
f 59/7/60 58/6/59 73/10/78
f 69/9/77 73/10/78 58/6/59
f 68/6/74 62/6/73 72/9/76
f 71/9/76 72/9/76 62/6/73
f 70/9/75 69/9/75 63/6/72
f 58/6/71 63/6/72 69/9/75
f 64/5/70 57/5/70 68/6/74
f 62/6/73 68/6/74 57/5/70
f 63/6/72 58/6/71 64/5/70
f 57/5/70 64/5/70 58/6/71
f 64/5/65 68/6/69 67/7/68
f 64/5/65 67/7/68 66/8/67
f 65/7/66 64/5/65 66/8/67
f 63/6/64 64/5/65 65/7/66
f 62/6/63 57/5/58 61/7/62
f 61/7/62 57/5/58 60/8/61
f 57/5/58 59/7/60 60/8/61
f 57/5/58 58/6/59 59/7/60
f 79/7/87 78/6/86 77/5/85
f 80/8/88 79/7/87 77/5/85
f 80/8/88 77/5/85 81/7/89
f 81/7/89 77/5/85 82/6/90
f 85/7/93 84/5/92 83/6/91
f 86/8/94 84/5/92 85/7/93
f 86/8/94 87/7/95 84/5/92
f 87/7/95 88/6/96 84/5/92
f 78/6/98 84/5/97 77/5/97
f 84/5/97 78/6/98 83/6/99
f 77/5/97 88/6/101 82/6/100
f 88/6/101 77/5/97 84/5/97
f 89/9/102 83/6/99 78/6/98
f 83/6/99 89/9/102 90/9/102
f 82/6/100 92/9/103 91/9/103
f 92/9/103 82/6/100 88/6/101
f 78/6/86 93/10/105 89/9/104
f 93/10/105 78/6/86 79/7/87
f 94/10/107 82/6/90 91/9/106
f 82/6/90 94/10/107 81/7/89
f 95/10/109 83/6/91 90/9/108
f 83/6/91 95/10/109 85/7/93
f 88/6/96 96/10/111 92/9/110
f 96/10/111 88/6/96 87/7/95
f 104/4/116 98/1/116 102/4/116
f 97/1/116 102/4/116 98/1/116
f 98/1/115 104/4/115 100/1/115
f 103/3/115 100/1/115 104/4/115
f 103/3/114 101/3/114 100/1/114
f 99/1/114 100/1/114 101/3/114
f 97/1/113 99/1/113 102/4/113
f 101/3/113 102/4/113 99/1/113
f 100/1/112 99/1/112 98/1/112
f 97/1/112 98/1/112 99/1/112
f 107/11/2 106/12/1 105/11/1
f 106/12/1 107/11/2 108/12/2
f 111/11/3 110/12/4 109/12/3
f 110/12/4 111/11/3 112/11/4
f 115/11/5 114/12/6 113/12/5
f 114/12/6 115/11/5 116/11/6
f 119/12/8 118/11/7 117/12/7
f 118/11/7 119/12/8 120/11/8
f 117/12/7 115/11/5 113/12/5
f 115/11/5 117/12/7 118/11/7
f 107/11/2 109/12/3 108/12/2
f 109/12/3 107/11/2 111/11/3
f 110/12/4 120/11/8 119/12/8
f 120/11/8 110/12/4 112/11/4
f 105/11/1 114/12/6 116/11/6
f 114/12/6 105/11/1 106/12/1
f 109/12/10 106/12/10 108/12/10
f 106/12/10 109/12/10 114/12/10
f 114/12/10 109/12/10 110/12/10
f 114/12/10 110/12/10 113/12/10
f 113/12/10 110/12/10 119/12/10
f 113/12/10 119/12/10 117/12/10
f 116/11/9 107/11/9 105/11/9
f 107/11/9 116/11/9 111/11/9
f 111/11/9 116/11/9 115/11/9
f 111/11/9 115/11/9 112/11/9
f 112/11/9 115/11/9 118/11/9
f 112/11/9 118/11/9 120/11/9
f 128/20/123 59/21/60 131/23/132
f 73/22/78 131/23/132 59/21/60
f 128/20/124 131/23/131 65/21/66
f 75/22/82 65/21/66 131/23/131
f 130/20/129 129/23/130 61/21/62
f 74/22/80 61/21/62 129/23/130
f 127/18/126 66/19/67 130/20/128
f 67/21/68 130/20/128 66/19/67
f 131/23/132 73/22/78 122/13/118
f 69/14/77 122/13/118 73/22/78
f 131/23/131 122/13/118 75/22/82
f 70/14/81 75/22/82 122/13/118
f 129/23/127 76/22/84 121/13/117
f 72/14/83 121/13/117 76/22/84
f 129/23/130 121/13/117 74/22/80
f 71/14/79 74/22/80 121/13/117
f 127/18/122 130/20/129 60/19/61
f 61/21/62 60/19/61 130/20/129
f 130/20/128 67/21/68 129/23/127
f 76/22/84 129/23/127 67/21/68
f 124/16/125 123/15/125 127/18/126
f 66/19/67 127/18/126 123/15/125
f 126/17/125 128/20/124 123/15/125
f 123/15/125 128/20/124 66/19/67
f 65/21/66 66/19/67 128/20/124
f 59/21/60 128/20/123 60/19/61
f 126/17/121 125/15/121 128/20/123
f 125/15/121 60/19/61 128/20/123
f 60/19/61 125/15/121 127/18/122
f 124/16/121 127/18/122 125/15/121
f 123/15/120 125/15/120 126/17/120
f 123/15/119 124/16/119 125/15/119
f 70/14/81 122/13/118 69/14/77
f 121/13/117 72/14/83 71/14/79
f 91/14/106 92/14/110 132/13/133
f 89/14/104 133/13/134 90/14/108
f 136/25/135 135/25/135 134/24/135
f 136/25/136 137/26/136 135/25/136
f 140/28/137 139/27/137 138/27/137
f 139/27/138 141/29/138 138/27/138
f 80/19/88 142/20/139 79/21/87
f 142/20/139 80/19/88 143/18/140
f 142/20/141 86/19/94 85/21/93
f 86/19/94 142/20/141 143/18/142
f 87/21/95 144/23/143 96/22/111
f 144/23/143 87/21/95 135/25/144
f 144/23/143 135/25/144 137/26/144
f 135/25/144 87/21/95 134/24/144
f 134/24/144 87/21/95 145/20/145
f 145/20/146 80/19/88 81/21/89
f 80/19/88 145/20/146 143/18/140
f 132/13/133 94/22/107 91/14/106
f 94/22/107 132/13/133 144/23/147
f 96/22/111 132/13/133 92/14/110
f 132/13/133 96/22/111 144/23/143
f 138/27/148 133/13/134 140/28/148
f 138/27/148 90/14/108 133/13/134
f 90/14/108 138/27/148 95/22/109
f 95/22/109 138/27/148 141/29/148
f 95/22/109 141/29/148 146/23/149
f 86/19/94 145/20/145 87/21/95
f 145/20/145 86/19/94 143/18/142
f 144/23/147 81/21/89 94/22/107
f 81/21/89 144/23/147 136/25/150
f 136/25/150 144/23/147 137/26/150
f 81/21/89 136/25/150 134/24/150
f 81/21/89 134/24/150 145/20/146
f 146/23/149 85/21/93 95/22/109
f 85/21/93 146/23/149 142/20/141
f 79/21/87 146/23/151 93/22/105
f 146/23/151 79/21/87 142/20/139
f 133/13/134 139/27/152 140/28/152
f 89/14/104 139/27/152 133/13/134
f 139/27/152 89/14/104 93/22/105
f 139/27/152 93/22/105 141/29/152
f 141/29/152 93/22/105 146/23/151
f 149/30/153 148/31/154 147/30/153
f 148/31/154 149/30/153 150/31/154
f 150/31/155 152/31/155 151/31/155
f 152/31/155 150/31/155 153/31/155
f 153/31/155 150/31/155 154/32/155
f 154/32/155 150/31/155 149/30/155
f 154/32/155 149/30/155 155/30/155
f 154/32/156 157/30/157 156/32/156
f 157/30/157 154/32/156 155/30/157
f 157/30/9 149/30/9 147/30/9
f 149/30/9 157/30/9 155/30/9
f 159/31/158 148/31/158 158/31/158
f 148/31/158 159/31/158 160/31/158
f 148/31/158 160/31/158 156/32/158
f 148/31/158 156/32/158 147/30/158
f 147/30/158 156/32/158 157/30/158
f 153/31/159 156/32/156 160/31/159
f 156/32/156 153/31/159 154/32/156
f 152/31/160 160/31/159 159/31/160
f 160/31/159 152/31/160 153/31/159
f 150/31/154 158/31/161 148/31/154
f 158/31/161 150/31/154 151/31/161
f 152/31/160 158/31/162 151/31/162
f 158/31/162 152/31/160 159/31/160
f 163/33/9 162/33/9 161/33/9
f 162/33/9 163/33/9 164/33/9
f 163/33/163 166/34/163 165/34/163
f 166/34/163 163/33/163 161/33/163
f 167/34/164 163/33/164 165/34/164
f 163/33/164 167/34/164 164/33/164
f 162/33/165 167/34/165 168/34/165
f 167/34/165 162/33/165 164/33/165
f 161/33/166 168/34/166 166/34/166
f 168/34/166 161/33/166 162/33/166
f 157/35/167 167/34/167 165/34/167
f 167/34/167 157/35/167 155/35/167
f 168/34/168 147/35/168 166/34/168
f 147/35/168 168/34/168 149/35/168
f 165/34/169 147/35/169 157/35/169
f 147/35/169 165/34/169 166/34/169
f 168/34/170 155/35/170 149/35/170
f 155/35/170 168/34/170 167/34/170
f 171/37/5 170/36/6 169/36/5
f 170/36/6 171/37/5 172/37/6
f 175/36/4 174/37/8 173/36/8
f 174/37/8 175/36/4 176/37/4
f 177/37/1 170/36/6 172/37/6
f 170/36/6 177/37/1 178/36/1
f 180/36/10 178/36/10 179/36/10
f 178/36/10 180/36/10 170/36/10
f 170/36/10 180/36/10 175/36/10
f 170/36/10 175/36/10 169/36/10
f 169/36/10 175/36/10 173/36/10
f 169/36/10 173/36/10 181/36/10
f 182/37/2 178/36/1 177/37/1
f 178/36/1 182/37/2 179/36/2
f 172/37/9 182/37/9 177/37/9
f 182/37/9 172/37/9 183/37/9
f 183/37/9 172/37/9 171/37/9
f 183/37/9 171/37/9 176/37/9
f 176/37/9 171/37/9 184/37/9
f 176/37/9 184/37/9 174/37/9
f 173/36/8 184/37/7 181/36/7
f 184/37/7 173/36/8 174/37/8
f 183/37/3 175/36/4 180/36/3
f 175/36/4 183/37/3 176/37/4
f 183/37/3 179/36/2 182/37/2
f 179/36/2 183/37/3 180/36/3
f 181/36/7 171/37/5 169/36/5
f 171/37/5 181/36/7 184/37/7
f 187/38/2 186/39/1 185/38/1
f 186/39/1 187/38/2 188/39/2
f 191/38/3 190/39/4 189/39/3
f 190/39/4 191/38/3 192/38/4
f 195/38/5 194/39/6 193/39/5
f 194/39/6 195/38/5 196/38/6
f 199/39/8 198/38/7 197/39/7
f 198/38/7 199/39/8 200/38/8
f 197/39/7 195/38/5 193/39/5
f 195/38/5 197/39/7 198/38/7
f 187/38/2 189/39/3 188/39/2
f 189/39/3 187/38/2 191/38/3
f 190/39/4 200/38/8 199/39/8
f 200/38/8 190/39/4 192/38/4
f 185/38/1 194/39/6 196/38/6
f 194/39/6 185/38/1 186/39/1
f 189/39/10 186/39/10 188/39/10
f 186/39/10 189/39/10 194/39/10
f 194/39/10 189/39/10 190/39/10
f 194/39/10 190/39/10 193/39/10
f 193/39/10 190/39/10 199/39/10
f 193/39/10 199/39/10 197/39/10
f 196/38/9 187/38/9 185/38/9
f 187/38/9 196/38/9 191/38/9
f 191/38/9 196/38/9 195/38/9
f 191/38/9 195/38/9 192/38/9
f 192/38/9 195/38/9 198/38/9
f 192/38/9 198/38/9 200/38/9
f 203/38/2 202/39/1 201/38/1
f 202/39/1 203/38/2 204/39/2
f 207/38/3 206/39/4 205/39/3
f 206/39/4 207/38/3 208/38/4
f 211/38/5 210/39/6 209/39/5
f 210/39/6 211/38/5 212/38/6
f 215/39/8 214/38/7 213/39/7
f 214/38/7 215/39/8 216/38/8
f 213/39/7 211/38/5 209/39/5
f 211/38/5 213/39/7 214/38/7
f 203/38/2 205/39/3 204/39/2
f 205/39/3 203/38/2 207/38/3
f 206/39/4 216/38/8 215/39/8
f 216/38/8 206/39/4 208/38/4
f 201/38/1 210/39/6 212/38/6
f 210/39/6 201/38/1 202/39/1
f 205/39/10 202/39/10 204/39/10
f 202/39/10 205/39/10 210/39/10
f 210/39/10 205/39/10 206/39/10
f 210/39/10 206/39/10 209/39/10
f 209/39/10 206/39/10 215/39/10
f 209/39/10 215/39/10 213/39/10
f 212/38/9 203/38/9 201/38/9
f 203/38/9 212/38/9 207/38/9
f 207/38/9 212/38/9 211/38/9
f 207/38/9 211/38/9 208/38/9
f 208/38/9 211/38/9 214/38/9
f 208/38/9 214/38/9 216/38/9
f 219/40/172 218/41/171 217/40/171
f 218/41/171 219/40/172 220/41/172
f 223/40/173 222/41/174 221/41/173
f 222/41/174 223/40/173 224/40/174
f 227/40/175 226/41/176 225/41/175
f 226/41/176 227/40/175 228/40/176
f 231/41/178 230/40/177 229/41/177
f 230/40/177 231/41/178 232/40/178
f 229/41/177 227/40/175 225/41/175
f 227/40/175 229/41/177 230/40/177
f 219/40/172 221/41/173 220/41/172
f 221/41/173 219/40/172 223/40/173
f 222/41/174 232/40/178 231/41/178
f 232/40/178 222/41/174 224/40/174
f 217/40/171 226/41/176 228/40/176
f 226/41/176 217/40/171 218/41/171
f 233/39/181 218/41/180 220/41/179
f 218/41/180 233/39/181 234/39/182
f 221/41/183 233/39/181 220/41/179
f 233/39/181 221/41/183 235/39/184
f 234/39/182 226/41/185 218/41/180
f 226/41/185 234/39/182 236/39/186
f 236/39/186 225/41/187 226/41/185
f 225/41/187 236/39/186 237/39/188
f 222/41/189 235/39/184 221/41/183
f 235/39/184 222/41/189 238/39/190
f 239/39/191 225/41/187 237/39/188
f 225/41/187 239/39/191 229/41/192
f 222/41/189 240/39/193 238/39/190
f 240/39/193 222/41/189 231/41/194
f 231/41/194 239/39/191 240/39/193
f 239/39/191 231/41/194 229/41/192
f 241/38/197 223/40/196 219/40/195
f 223/40/196 241/38/197 242/38/198
f 244/38/201 224/40/200 243/38/199
f 224/40/200 244/38/201 232/40/202
f 242/38/198 224/40/200 223/40/196
f 224/40/200 242/38/198 243/38/199
f 227/40/205 246/38/204 245/38/203
f 246/38/204 227/40/205 230/40/206
f 230/40/206 244/38/201 246/38/204
f 244/38/201 230/40/206 232/40/202
f 228/40/209 247/38/208 217/40/207
f 247/38/208 228/40/209 248/38/210
f 227/40/205 248/38/210 228/40/209
f 248/38/210 227/40/205 245/38/203
f 247/38/208 219/40/195 217/40/207
f 219/40/195 247/38/208 241/38/197
f 251/40/172 250/41/171 249/40/171
f 250/41/171 251/40/172 252/41/172
f 255/40/173 254/41/174 253/41/173
f 254/41/174 255/40/173 256/40/174
f 259/40/175 258/41/176 257/41/175
f 258/41/176 259/40/175 260/40/176
f 263/41/178 262/40/177 261/41/177
f 262/40/177 263/41/178 264/40/178
f 261/41/177 259/40/175 257/41/175
f 259/40/175 261/41/177 262/40/177
f 251/40/172 253/41/173 252/41/172
f 253/41/173 251/40/172 255/40/173
f 254/41/174 264/40/178 263/41/178
f 264/40/178 254/41/174 256/40/174
f 249/40/171 258/41/176 260/40/176
f 258/41/176 249/40/171 250/41/171
f 265/39/181 250/41/180 252/41/179
f 250/41/180 265/39/181 266/39/182
f 253/41/183 265/39/181 252/41/179
f 265/39/181 253/41/183 267/39/184
f 266/39/182 258/41/185 250/41/180
f 258/41/185 266/39/182 268/39/186
f 268/39/186 257/41/187 258/41/185
f 257/41/187 268/39/186 269/39/188
f 254/41/189 267/39/184 253/41/183
f 267/39/184 254/41/189 270/39/190
f 271/39/191 257/41/187 269/39/188
f 257/41/187 271/39/191 261/41/192
f 254/41/189 272/39/193 270/39/190
f 272/39/193 254/41/189 263/41/194
f 263/41/194 271/39/191 272/39/193
f 271/39/191 263/41/194 261/41/192
f 273/38/197 255/40/196 251/40/195
f 255/40/196 273/38/197 274/38/198
f 276/38/201 256/40/200 275/38/199
f 256/40/200 276/38/201 264/40/202
f 274/38/198 256/40/200 255/40/196
f 256/40/200 274/38/198 275/38/199
f 259/40/205 278/38/204 277/38/203
f 278/38/204 259/40/205 262/40/206
f 262/40/206 276/38/201 278/38/204
f 276/38/201 262/40/206 264/40/202
f 279/38/208 251/40/195 249/40/207
f 251/40/195 279/38/208 273/38/197
f 260/40/209 279/38/208 249/40/207
f 279/38/208 260/40/209 280/38/210
f 259/40/205 280/38/210 260/40/209
f 280/38/210 259/40/205 277/38/203
f 155/42/10 147/42/10 149/42/10
f 147/42/10 155/42/10 157/42/10

