# Created by Kenney (www.kenney.nl)

mtllib axe-single-long.mtl

g axe-single-long

v -0.33125 4.298081 -0.09375 1 1 1
v -0.33125 0.348081 -0.09375 1 1 1
v -0.33125 4.298081 0.09375 1 1 1
v -0.33125 0.348081 0.09375 1 1 1
v -0.424518 0 0.09375 1 1 1
v -0.5963768 0.04604942 0.09375 1 1 1
v -0.6451735 0.1626521 0.09375 1 1 1
v -0.51875 0.3853551 0.09375 1 1 1
v -0.51875 4.298081 0.09375 1 1 1
v -0.51875 0.3853551 -0.09375 1 1 1
v -0.51875 4.298081 -0.09375 1 1 1
v -0.424518 0 -0.09375 1 1 1
v -0.5963768 0.04604942 -0.09375 1 1 1
v -0.6451735 0.1626521 -0.09375 1 1 1
v -0.33125 4.498081 -0.09375 1 1 1
v -0.33125 4.498081 0.09375 1 1 1
v -0.51875 4.498081 -0.09375 1 1 1
v -0.51875 4.498081 0.09375 1 1 1
v -0.55 4.398081 -0.125 1 1 1
v -0.3 4.398081 -0.125 1 1 1
v -0.55 4.398081 0.125 1 1 1
v -0.3 4.398081 0.125 1 1 1
v -0.2 3.698081 -0.125 1 1 1
v -0.2 3.698081 0.125 1 1 1
v -0.2000001 4.098081 -0.125 1 1 1
v -0.2000001 4.098081 0.125 1 1 1
v 0.09999996 4.198081 -0.09375 1 1 1
v 0.1 3.598081 -0.09375 1 1 1
v 0.09999996 4.198081 0.09375 1 1 1
v 0.1 3.598081 0.09375 1 1 1
v -0.001164526 3.56282 0.125 1 1 1
v -0.001164526 3.56282 -0.125 1 1 1
v -0.1626899 3.188233 0.125 1 1 1
v -0.1626899 3.188233 -0.125 1 1 1
v -0.1626898 4.607929 0.125 1 1 1
v -0.1626898 4.607929 -0.125 1 1 1
v -0.001164436 4.233342 0.125 1 1 1
v -0.001164436 4.233342 -0.125 1 1 1
v 0.2328379 3.342895 0.125 1 1 1
v 0.4448978 3.585249 0.125 1 1 1
v 0.4448979 4.210913 0.125 1 1 1
v 0.5213239 3.898081 0.125 1 1 1
v 0.232838 4.453268 0.125 1 1 1
v 0.2328379 3.342895 -0.125 1 1 1
v 0.4448978 3.585249 -0.125 1 1 1
v 0.4448979 4.210913 -0.125 1 1 1
v 0.5213239 3.898081 -0.125 1 1 1
v 0.232838 4.453268 -0.125 1 1 1
v -0.25625 2.923081 -0.09375 1 1 1
v -0.25625 2.773081 -0.09375 1 1 1
v -0.25625 2.923081 0.09375 1 1 1
v -0.25625 2.773081 0.09375 1 1 1
v -0.33125 2.773081 0.16875 1 1 1
v -0.51875 2.773081 0.16875 1 1 1
v -0.33125 2.923081 0.16875 1 1 1
v -0.51875 2.923081 0.16875 1 1 1
v -0.51875 2.773081 -0.16875 1 1 1
v -0.33125 2.773081 -0.16875 1 1 1
v -0.51875 2.923081 -0.16875 1 1 1
v -0.33125 2.923081 -0.16875 1 1 1
v -0.59375 2.773081 -0.09375 1 1 1
v -0.59375 2.923081 -0.09375 1 1 1
v -0.59375 2.773081 0.09375 1 1 1
v -0.59375 2.923081 0.09375 1 1 1
v -0.2984375 2.623081 0.0703125 1 1 1
v -0.2984375 2.623081 -0.0703125 1 1 1
v -0.3546875 2.623081 0.1265625 1 1 1
v -0.3546875 2.623081 -0.1265625 1 1 1
v -0.4953125 2.623081 0.1265625 1 1 1
v -0.4953125 2.623081 -0.1265625 1 1 1
v -0.5515625 2.623081 0.0703125 1 1 1
v -0.5515625 2.623081 -0.0703125 1 1 1
v -0.59375 0.673081 -0.09375 1 1 1
v -0.59375 0.823081 -0.09375 1 1 1
v -0.59375 0.673081 0.09375 1 1 1
v -0.59375 0.823081 0.09375 1 1 1
v -0.51875 0.823081 0.16875 1 1 1
v -0.33125 0.823081 0.16875 1 1 1
v -0.51875 0.673081 0.16875 1 1 1
v -0.33125 0.673081 0.16875 1 1 1
v -0.33125 0.823081 -0.16875 1 1 1
v -0.51875 0.823081 -0.16875 1 1 1
v -0.33125 0.673081 -0.16875 1 1 1
v -0.51875 0.673081 -0.16875 1 1 1
v -0.25625 0.823081 -0.09375 1 1 1
v -0.25625 0.673081 -0.09375 1 1 1
v -0.25625 0.823081 0.09375 1 1 1
v -0.25625 0.673081 0.09375 1 1 1
v -0.5515625 0.973081 0.0703125 1 1 1
v -0.5515625 0.973081 -0.0703125 1 1 1
v -0.4953125 0.973081 0.1265625 1 1 1
v -0.4953125 0.973081 -0.1265625 1 1 1
v -0.3546875 0.973081 0.1265625 1 1 1
v -0.3546875 0.973081 -0.1265625 1 1 1
v -0.2984375 0.973081 0.0703125 1 1 1
v -0.2984375 0.973081 -0.0703125 1 1 1
v -0.2 4.098081 -0.125 1 1 1
v -0.2 3.698081 -0.125 1 1 1
v -0.2 4.098081 0.125 1 1 1
v -0.2 3.698081 0.125 1 1 1
v -0.3 3.698081 0.225 1 1 1
v -0.55 3.698081 0.225 1 1 1
v -0.3 4.098081 0.225 1 1 1
v -0.55 4.098081 0.225 1 1 1
v -0.55 3.698081 -0.225 1 1 1
v -0.3 3.698081 -0.225 1 1 1
v -0.55 4.098081 -0.225 1 1 1
v -0.3 4.098081 -0.225 1 1 1
v -0.65 3.698081 -0.125 1 1 1
v -0.65 4.098081 -0.125 1 1 1
v -0.65 3.698081 0.125 1 1 1
v -0.65 4.098081 0.125 1 1 1
v -0.04999988 4.698081 2.255973E-16 1 1 1
v -0.05000006 3.098081 2.255973E-16 1 1 1
v 0.5438253 3.726832 -0.0625 1 1 1
v 0.6272699 3.80504 4.511947E-17 1 1 1
v 0.5438253 3.726832 0.0625 1 1 1
v 0.5818095 3.618958 4.511947E-17 1 1 1
v 0.6500001 3.898081 4.511947E-17 1 1 1
v 0.5590793 3.525918 4.511947E-17 1 1 1
v 0.3068007 4.558563 1.353584E-16 1 1 1
v 0.5590794 4.270244 4.511947E-17 1 1 1
v 0.3068006 3.237599 1.353584E-16 1 1 1
v -0.4953125 1.123081 -0.1265625 1 1 1
v -0.3546875 1.123081 -0.1265625 1 1 1
v -0.4953125 2.473081 -0.1265625 1 1 1
v -0.3546875 2.473081 -0.1265625 1 1 1
v -0.5515625 1.123081 0.0703125 1 1 1
v -0.5515625 2.473081 0.0703125 1 1 1
v -0.4953125 1.123081 0.1265625 1 1 1
v -0.4953125 2.473081 0.1265625 1 1 1
v -0.2984375 2.473081 -0.0703125 1 1 1
v -0.2984375 1.123081 -0.0703125 1 1 1
v -0.2984375 1.123081 0.0703125 1 1 1
v -0.3546875 1.123081 0.1265625 1 1 1
v -0.5515625 1.123081 -0.0703125 1 1 1
v -0.2984375 2.473081 0.0703125 1 1 1
v -0.3546875 2.473081 0.1265625 1 1 1
v -0.5515625 2.473081 -0.0703125 1 1 1
v -0.25625 2.623081 -0.09375 1 1 1
v -0.25625 2.473081 -0.09375 1 1 1
v -0.25625 2.623081 0.09375 1 1 1
v -0.25625 2.473081 0.09375 1 1 1
v -0.33125 2.473081 0.16875 1 1 1
v -0.51875 2.473081 0.16875 1 1 1
v -0.33125 2.623081 0.16875 1 1 1
v -0.51875 2.623081 0.16875 1 1 1
v -0.51875 2.473081 -0.16875 1 1 1
v -0.33125 2.473081 -0.16875 1 1 1
v -0.51875 2.623081 -0.16875 1 1 1
v -0.33125 2.623081 -0.16875 1 1 1
v -0.59375 2.473081 -0.09375 1 1 1
v -0.59375 2.623081 -0.09375 1 1 1
v -0.59375 2.473081 0.09375 1 1 1
v -0.59375 2.623081 0.09375 1 1 1
v -0.25625 1.123081 -0.09375 1 1 1
v -0.25625 0.973081 -0.09375 1 1 1
v -0.25625 1.123081 0.09375 1 1 1
v -0.25625 0.973081 0.09375 1 1 1
v -0.33125 0.973081 0.16875 1 1 1
v -0.51875 0.973081 0.16875 1 1 1
v -0.33125 1.123081 0.16875 1 1 1
v -0.51875 1.123081 0.16875 1 1 1
v -0.51875 0.973081 -0.16875 1 1 1
v -0.33125 0.973081 -0.16875 1 1 1
v -0.51875 1.123081 -0.16875 1 1 1
v -0.33125 1.123081 -0.16875 1 1 1
v -0.59375 0.973081 -0.09375 1 1 1
v -0.59375 1.123081 -0.09375 1 1 1
v -0.59375 0.973081 0.09375 1 1 1
v -0.59375 1.123081 0.09375 1 1 1

vn 1 0 0
vn 0.9914449 -0.1305262 0
vn 0 0 1
vn -0.9668621 0.2552991 0
vn -1 0 0
vn 0 1 0
vn 0 0 -1
vn -0.9982014 0.05995033 0
vn -0.6579755 -0.7530394 0
vn 0.9659258 -0.258819 0
vn -0.258819 -0.9659258 0
vn 0 0.298275 -0.95448
vn -0.95448 0.298275 0
vn 0 0.298275 0.95448
vn 0.95448 0.298275 0
vn 0 -1 0
vn -0.95448 -0.298275 0
vn 0.95448 -0.298275 0
vn 0 -0.298275 -0.95448
vn 0 -0.298275 0.95448
vn -1 -1.192093E-07 0
vn 0.1036061 1.235081E-08 -0.9946185
vn -0.3162279 0.9486834 0
vn 0.1036061 1.235081E-08 0.9946185
vn -0.3162277 -0.9486835 0
vn -0.9793535 0.2021563 0
vn -0.9182659 0.3959648 0
vn -0.918266 -0.3959646 0
vn -0.9793535 -0.2021561 0
vn -0.1052477 -0.6610975 0.7428816
vn 0.2431546 -0.3461611 0.9061171
vn 0.3753749 -0.1950523 0.9061171
vn 0.3753749 0.1950522 0.9061171
vn 0.4230269 -5.042872E-08 0.9061171
vn 0.2431547 0.346161 0.9061171
vn -0.1052475 0.6610975 0.7428816
vn -0.1052477 -0.6610975 -0.7428816
vn 0.2431546 -0.3461611 -0.9061171
vn 0.3753749 -0.1950523 -0.9061171
vn 0.3753749 0.1950522 -0.9061171
vn 0.4230269 -5.042872E-08 -0.9061171
vn 0.2431547 0.346161 -0.9061171
vn -0.1052475 0.6610975 -0.7428816
vn 0.9238795 0 -0.3826834
vn 0.9238795 0 0.3826834
vn 0.3826834 0 0.9238795
vn -0.3826834 0 0.9238795
vn -0.3826834 0 -0.9238795
vn 0.3826834 0 -0.9238795
vn -0.9238795 0 -0.3826834
vn -0.9238795 0 0.3826834
vn -0.3561203 -0.3041444 -0.8835579
vn 0.3561203 -0.3041444 -0.8835579
vn -0.3712388 -0.3046964 -0.8771214
vn 0.3712388 -0.3046964 -0.8771214
vn 0.8771214 -0.3046964 -0.3712388
vn 0.8835579 -0.3041444 -0.3561203
vn 0.8771214 -0.3046964 0.3712388
vn 0.8835579 -0.3041444 0.3561203
vn 0.3561203 -0.3041444 0.8835579
vn 0.3712388 -0.3046964 0.8771214
vn -0.8835579 -0.3041444 0.3561203
vn -0.8771214 -0.3046964 0.3712388
vn -0.3561203 -0.3041444 0.8835579
vn -0.3712388 -0.3046964 0.8771214
vn -0.8771214 -0.3046964 -0.3712388
vn -0.8835579 -0.3041444 -0.3561203
vn -0.9238795 1.376686E-08 -0.3826834
vn -0.9238795 1.376686E-08 0.3826834
vn -0.3826834 5.702419E-09 0.9238795
vn 0.3826834 -5.702419E-09 0.9238795
vn 0.3826834 -5.702419E-09 -0.9238795
vn -0.3826834 5.702419E-09 -0.9238795
vn 0.9238795 -1.376686E-08 -0.3826834
vn 0.9238795 -1.376686E-08 0.3826834
vn -1.490114E-08 -1 0
vn 1.490114E-08 1 0
vn 0.3561203 0.3041444 -0.8835579
vn -0.3561203 0.3041444 -0.8835579
vn 0.3712388 0.3046964 -0.8771214
vn -0.3712388 0.3046964 -0.8771214
vn -0.8771214 0.3046964 -0.3712388
vn -0.8835579 0.3041444 -0.3561203
vn -0.8771214 0.3046964 0.3712388
vn -0.8835579 0.3041444 0.3561203
vn -0.3561203 0.3041444 0.8835579
vn -0.3712388 0.3046964 0.8771214
vn 0.8835579 0.3041444 0.3561203
vn 0.8771214 0.3046964 0.3712388
vn 0.3561203 0.3041444 0.8835579
vn 0.3712388 0.3046964 0.8771214
vn 0.8771214 0.3046964 -0.3712388
vn 0.8835579 0.3041444 -0.3561203
vn 0.03156874 0.9995017 0
vn 0.0315685 -0.9995017 0
vn 0.6838422 -0.7296299 0
vn 0.943234 0.3321296 0
vn 0.6869052 -0.1678133 0.7071068
vn 0.6967865 -8.306341E-08 0.7172786
vn 0.6182967 -0.3212794 0.7172786
vn 0.6182967 -0.3212794 -0.7172786
vn 0.6869052 -0.1678133 -0.7071068
vn 0.6967865 -8.306341E-08 -0.7172786
vn 0.400511 0.5701774 -0.7172786
vn 0.6182969 0.3212793 -0.7172786
vn 0.6182969 0.3212793 0.7172786
vn 0.400511 0.5701774 0.7172786
vn 0.4005109 -0.5701776 -0.7172786
vn 0.4005109 -0.5701776 0.7172786

vt 0.09375 0.225
vt 0.09375 0.025
vt 0.09375 0.0268873
vt 0.09375 0.175
vt 0.09375 0.125
vt 0.09375 0.075
vt 0.46875 0.225
vt 0.46875 0.025
vt 0.46875 0.02500001
vt 0.46875 0.08029678
vt 0.46875 0.04440225
vt 0.46875 0.1322973
vt 0.46875 0.1794217
vt 0.46875 0.1964053
vt 0.46875 0.125
vt 0.46875 0.175
vt 0.46875 0.075
vt 0.71875 0.06944445
vt 0.71875 0.04440225
vt 0.71875 0.2014056
vt 0.71875 0.2199488
vt 0.71875 0.2098465
vt 0.71875 0.225
vt 0.71875 0.1964053
vt 0.71875 0.2047954
vt 0.71875 0.1794217
vt 0.71875 0.1322973
vt 0.71875 0.1487335
vt 0.21875 0.225
vt 0.21875 0.025
vt 0.21875 0.175
vt 0.21875 0.075

usemtl colormap

f 3/1/1 2/2/2 1/1/1
f 2/2/2 3/1/1 4/2/2
f 4/2/3 6/2/3 5/2/3
f 6/2/3 4/2/3 7/2/3
f 7/2/3 4/2/3 8/3/3
f 8/3/3 4/2/3 3/1/3
f 8/3/3 3/1/3 9/1/3
f 8/3/4 11/1/5 10/3/4
f 11/1/5 8/3/4 9/1/5
f 11/1/6 3/1/6 1/1/6
f 3/1/6 11/1/6 9/1/6
f 13/2/7 2/2/7 12/2/7
f 2/2/7 13/2/7 14/2/7
f 2/2/7 14/2/7 10/3/7
f 2/2/7 10/3/7 1/1/7
f 1/1/7 10/3/7 11/1/7
f 7/2/8 10/3/4 14/2/8
f 10/3/4 7/2/8 8/3/4
f 6/2/9 14/2/8 13/2/9
f 14/2/8 6/2/9 7/2/8
f 4/2/2 12/2/10 2/2/2
f 12/2/10 4/2/2 5/2/10
f 6/2/9 12/2/11 5/2/11
f 12/2/11 6/2/9 13/2/9
f 17/4/6 16/4/6 15/4/6
f 16/4/6 17/4/6 18/4/6
f 17/4/12 20/5/12 19/5/12
f 20/5/12 17/4/12 15/4/12
f 21/5/13 17/4/13 19/5/13
f 17/4/13 21/5/13 18/4/13
f 16/4/14 21/5/14 22/5/14
f 21/5/14 16/4/14 18/4/14
f 15/4/15 22/5/15 20/5/15
f 22/5/15 15/4/15 16/4/15
f 9/6/16 1/6/16 3/6/16
f 1/6/16 9/6/16 11/6/16
f 11/6/17 21/5/17 19/5/17
f 21/5/17 11/6/17 9/6/17
f 22/5/18 1/6/18 20/5/18
f 1/6/18 22/5/18 3/6/18
f 19/5/19 1/6/19 11/6/19
f 1/6/19 19/5/19 20/5/19
f 22/5/20 9/6/20 3/6/20
f 9/6/20 22/5/20 21/5/20
f 30/9/25 24/7/25 28/9/25
f 23/7/25 28/9/25 24/7/25
f 24/7/24 30/9/24 26/7/24
f 29/8/24 26/7/24 30/9/24
f 29/8/23 27/8/23 26/7/23
f 25/7/23 26/7/23 27/8/23
f 23/7/22 25/7/22 28/9/22
f 27/8/22 28/9/22 25/7/22
f 26/7/21 25/7/21 24/7/21
f 23/7/21 24/7/21 25/7/21
f 32/10/26 31/10/26 38/10/29
f 37/10/29 38/10/29 31/10/26
f 36/11/43 48/12/42 38/10/7
f 46/13/40 38/10/7 48/12/42
f 47/14/41 45/13/39 46/13/40
f 46/13/40 45/13/39 38/10/7
f 32/10/7 38/10/7 45/13/39
f 45/13/39 44/12/38 32/10/7
f 34/11/37 32/10/7 44/12/38
f 35/11/36 37/10/3 43/12/35
f 41/13/33 43/12/35 37/10/3
f 42/14/34 41/13/33 40/13/32
f 41/13/33 37/10/3 40/13/32
f 31/10/3 40/13/32 37/10/3
f 40/13/32 31/10/3 39/12/31
f 33/11/30 39/12/31 31/10/3
f 38/10/29 37/10/29 36/11/28
f 35/11/28 36/11/28 37/10/29
f 34/11/27 33/11/27 32/10/26
f 31/10/26 32/10/26 33/11/27
f 51/7/45 50/15/44 49/7/44
f 50/15/44 51/7/45 52/15/45
f 55/7/46 54/15/47 53/15/46
f 54/15/47 55/7/46 56/7/47
f 59/7/48 58/15/49 57/15/48
f 58/15/49 59/7/48 60/7/49
f 63/15/51 62/7/50 61/15/50
f 62/7/50 63/15/51 64/7/51
f 61/15/50 59/7/48 57/15/48
f 59/7/48 61/15/50 62/7/50
f 55/7/46 52/15/45 51/7/45
f 52/15/45 55/7/46 53/15/46
f 54/15/47 64/7/51 63/15/51
f 64/7/51 54/15/47 56/7/47
f 49/7/44 58/15/49 60/7/49
f 58/15/49 49/7/44 50/15/44
f 60/7/6 51/7/6 49/7/6
f 51/7/6 60/7/6 55/7/6
f 55/7/6 60/7/6 59/7/6
f 55/7/6 59/7/6 56/7/6
f 56/7/6 59/7/6 62/7/6
f 56/7/6 62/7/6 64/7/6
f 67/8/16 66/8/16 65/8/16
f 66/8/16 67/8/16 68/8/16
f 68/8/16 67/8/16 69/8/16
f 68/8/16 69/8/16 70/8/16
f 70/8/16 69/8/16 71/8/16
f 70/8/16 71/8/16 72/8/16
f 57/15/54 68/8/53 70/8/52
f 68/8/53 57/15/54 58/15/55
f 50/15/56 68/8/53 58/15/55
f 68/8/53 50/15/56 66/8/57
f 52/15/58 66/8/57 50/15/56
f 66/8/57 52/15/58 65/8/59
f 52/15/58 67/8/60 65/8/59
f 67/8/60 52/15/58 53/15/61
f 69/8/64 63/15/63 71/8/62
f 63/15/63 69/8/64 54/15/65
f 53/15/61 69/8/64 67/8/60
f 69/8/64 53/15/61 54/15/65
f 70/8/52 61/15/66 57/15/54
f 61/15/66 70/8/52 72/8/67
f 72/8/67 63/15/63 61/15/66
f 63/15/63 72/8/67 71/8/62
f 75/7/69 74/15/68 73/7/68
f 74/15/68 75/7/69 76/15/69
f 79/7/70 78/15/71 77/15/70
f 78/15/71 79/7/70 80/7/71
f 83/7/72 82/15/73 81/15/72
f 82/15/73 83/7/72 84/7/73
f 87/15/75 86/7/74 85/15/74
f 86/7/74 87/15/75 88/7/75
f 85/15/74 83/7/72 81/15/72
f 83/7/72 85/15/74 86/7/74
f 79/7/70 76/15/69 75/7/69
f 76/15/69 79/7/70 77/15/70
f 78/15/71 88/7/75 87/15/75
f 88/7/75 78/15/71 80/7/71
f 73/7/68 82/15/73 84/7/73
f 82/15/73 73/7/68 74/15/68
f 84/7/76 75/7/76 73/7/76
f 75/7/76 84/7/76 79/7/76
f 79/7/76 84/7/76 83/7/76
f 79/7/76 83/7/76 80/7/76
f 80/7/76 83/7/76 86/7/76
f 80/7/76 86/7/76 88/7/76
f 91/8/77 90/8/77 89/8/77
f 90/8/77 91/8/77 92/8/77
f 92/8/77 91/8/77 93/8/77
f 92/8/77 93/8/77 94/8/77
f 94/8/77 93/8/77 95/8/77
f 94/8/77 95/8/77 96/8/77
f 81/15/80 92/8/79 94/8/78
f 92/8/79 81/15/80 82/15/81
f 74/15/82 92/8/79 82/15/81
f 92/8/79 74/15/82 90/8/83
f 76/15/84 90/8/83 74/15/82
f 90/8/83 76/15/84 89/8/85
f 76/15/84 91/8/86 89/8/85
f 91/8/86 76/15/84 77/15/87
f 93/8/90 87/15/89 95/8/88
f 87/15/89 93/8/90 78/15/91
f 77/15/87 93/8/90 91/8/86
f 93/8/90 77/15/87 78/15/91
f 94/8/78 85/15/92 81/15/80
f 85/15/92 94/8/78 96/8/93
f 96/8/93 87/15/89 85/15/92
f 87/15/89 96/8/93 95/8/88
f 99/16/45 98/17/44 97/16/44
f 98/17/44 99/16/45 100/17/45
f 103/16/46 102/17/47 101/17/46
f 102/17/47 103/16/46 104/16/47
f 107/16/48 106/17/49 105/17/48
f 106/17/49 107/16/48 108/16/49
f 111/17/51 110/16/50 109/17/50
f 110/16/50 111/17/51 112/16/51
f 109/17/50 107/16/48 105/17/48
f 107/16/48 109/17/50 110/16/50
f 99/16/45 101/17/46 100/17/45
f 101/17/46 99/16/45 103/16/46
f 102/17/47 112/16/51 111/17/51
f 112/16/51 102/17/47 104/16/47
f 97/16/44 106/17/49 108/16/49
f 106/17/49 97/16/44 98/17/44
f 101/17/16 98/17/16 100/17/16
f 98/17/16 101/17/16 106/17/16
f 106/17/16 101/17/16 102/17/16
f 106/17/16 102/17/16 105/17/16
f 105/17/16 102/17/16 111/17/16
f 105/17/16 111/17/16 109/17/16
f 108/16/6 99/16/6 97/16/6
f 99/16/6 108/16/6 103/16/6
f 103/16/6 108/16/6 107/16/6
f 103/16/6 107/16/6 104/16/6
f 104/16/6 107/16/6 110/16/6
f 104/16/6 110/16/6 112/16/6
f 120/25/100 40/26/32 123/28/109
f 39/27/31 123/28/109 40/26/32
f 120/25/101 123/28/108 45/26/39
f 44/27/38 45/26/39 123/28/108
f 122/25/106 121/28/107 41/26/33
f 43/27/35 41/26/33 121/28/107
f 119/23/103 47/24/41 122/25/105
f 46/26/40 122/25/105 47/24/41
f 123/28/109 39/27/31 114/18/95
f 33/19/30 114/18/95 39/27/31
f 123/28/108 114/18/95 44/27/38
f 34/19/37 44/27/38 114/18/95
f 121/28/104 48/27/42 113/18/94
f 36/19/43 113/18/94 48/27/42
f 121/28/107 113/18/94 43/27/35
f 35/19/36 43/27/35 113/18/94
f 119/23/99 122/25/106 42/24/34
f 41/26/33 42/24/34 122/25/106
f 122/25/105 46/26/40 121/28/104
f 48/27/42 121/28/104 46/26/40
f 116/21/102 115/20/102 119/23/103
f 47/24/41 119/23/103 115/20/102
f 118/22/102 120/25/101 115/20/102
f 115/20/102 120/25/101 47/24/41
f 45/26/39 47/24/41 120/25/101
f 40/26/32 120/25/100 42/24/34
f 118/22/98 117/20/98 120/25/100
f 117/20/98 42/24/34 120/25/100
f 42/24/34 117/20/98 119/23/99
f 116/21/98 119/23/99 117/20/98
f 115/20/97 117/20/97 118/22/97
f 115/20/96 116/21/96 117/20/96
f 34/19/37 114/18/95 33/19/30
f 113/18/94 36/19/43 35/19/36
f 126/30/48 125/29/49 124/29/48
f 125/29/49 126/30/48 127/30/49
f 130/29/47 129/30/51 128/29/51
f 129/30/51 130/29/47 131/30/47
f 132/30/44 125/29/49 127/30/49
f 125/29/49 132/30/44 133/29/44
f 135/29/16 133/29/16 134/29/16
f 133/29/16 135/29/16 125/29/16
f 125/29/16 135/29/16 130/29/16
f 125/29/16 130/29/16 124/29/16
f 124/29/16 130/29/16 128/29/16
f 124/29/16 128/29/16 136/29/16
f 137/30/45 133/29/44 132/30/44
f 133/29/44 137/30/45 134/29/45
f 127/30/6 137/30/6 132/30/6
f 137/30/6 127/30/6 138/30/6
f 138/30/6 127/30/6 126/30/6
f 138/30/6 126/30/6 131/30/6
f 131/30/6 126/30/6 139/30/6
f 131/30/6 139/30/6 129/30/6
f 128/29/51 139/30/50 136/29/50
f 139/30/50 128/29/51 129/30/51
f 138/30/46 130/29/47 135/29/46
f 130/29/47 138/30/46 131/30/47
f 138/30/46 134/29/45 137/30/45
f 134/29/45 138/30/46 135/29/46
f 136/29/50 126/30/48 124/29/48
f 126/30/48 136/29/50 139/30/50
f 142/31/45 141/32/44 140/31/44
f 141/32/44 142/31/45 143/32/45
f 146/31/46 145/32/47 144/32/46
f 145/32/47 146/31/46 147/31/47
f 150/31/48 149/32/49 148/32/48
f 149/32/49 150/31/48 151/31/49
f 154/32/51 153/31/50 152/32/50
f 153/31/50 154/32/51 155/31/51
f 152/32/50 150/31/48 148/32/48
f 150/31/48 152/32/50 153/31/50
f 142/31/45 144/32/46 143/32/45
f 144/32/46 142/31/45 146/31/46
f 145/32/47 155/31/51 154/32/51
f 155/31/51 145/32/47 147/31/47
f 140/31/44 149/32/49 151/31/49
f 149/32/49 140/31/44 141/32/44
f 144/32/16 141/32/16 143/32/16
f 141/32/16 144/32/16 149/32/16
f 149/32/16 144/32/16 145/32/16
f 149/32/16 145/32/16 148/32/16
f 148/32/16 145/32/16 154/32/16
f 148/32/16 154/32/16 152/32/16
f 151/31/6 142/31/6 140/31/6
f 142/31/6 151/31/6 146/31/6
f 146/31/6 151/31/6 150/31/6
f 146/31/6 150/31/6 147/31/6
f 147/31/6 150/31/6 153/31/6
f 147/31/6 153/31/6 155/31/6
f 158/31/45 157/32/44 156/31/44
f 157/32/44 158/31/45 159/32/45
f 162/31/46 161/32/47 160/32/46
f 161/32/47 162/31/46 163/31/47
f 166/31/48 165/32/49 164/32/48
f 165/32/49 166/31/48 167/31/49
f 170/32/51 169/31/50 168/32/50
f 169/31/50 170/32/51 171/31/51
f 168/32/50 166/31/48 164/32/48
f 166/31/48 168/32/50 169/31/50
f 158/31/45 160/32/46 159/32/45
f 160/32/46 158/31/45 162/31/46
f 161/32/47 171/31/51 170/32/51
f 171/31/51 161/32/47 163/31/47
f 156/31/44 165/32/49 167/31/49
f 165/32/49 156/31/44 157/32/44
f 160/32/16 157/32/16 159/32/16
f 157/32/16 160/32/16 165/32/16
f 165/32/16 160/32/16 161/32/16
f 165/32/16 161/32/16 164/32/16
f 164/32/16 161/32/16 170/32/16
f 164/32/16 170/32/16 168/32/16
f 167/31/6 158/31/6 156/31/6
f 158/31/6 167/31/6 162/31/6
f 162/31/6 167/31/6 166/31/6
f 162/31/6 166/31/6 163/31/6
f 163/31/6 166/31/6 169/31/6
f 163/31/6 169/31/6 171/31/6

g axe-single-long




usemtl colormap

f 3/1/1 2/2/2 1/1/1
f 2/2/2 3/1/1 4/2/2
f 4/2/3 6/2/3 5/2/3
f 6/2/3 4/2/3 7/2/3
f 7/2/3 4/2/3 8/3/3
f 8/3/3 4/2/3 3/1/3
f 8/3/3 3/1/3 9/1/3
f 8/3/4 11/1/5 10/3/4
f 11/1/5 8/3/4 9/1/5
f 11/1/6 3/1/6 1/1/6
f 3/1/6 11/1/6 9/1/6
f 13/2/7 2/2/7 12/2/7
f 2/2/7 13/2/7 14/2/7
f 2/2/7 14/2/7 10/3/7
f 2/2/7 10/3/7 1/1/7
f 1/1/7 10/3/7 11/1/7
f 7/2/8 10/3/4 14/2/8
f 10/3/4 7/2/8 8/3/4
f 6/2/9 14/2/8 13/2/9
f 14/2/8 6/2/9 7/2/8
f 4/2/2 12/2/10 2/2/2
f 12/2/10 4/2/2 5/2/10
f 6/2/9 12/2/11 5/2/11
f 12/2/11 6/2/9 13/2/9
f 17/4/6 16/4/6 15/4/6
f 16/4/6 17/4/6 18/4/6
f 17/4/12 20/5/12 19/5/12
f 20/5/12 17/4/12 15/4/12
f 21/5/13 17/4/13 19/5/13
f 17/4/13 21/5/13 18/4/13
f 16/4/14 21/5/14 22/5/14
f 21/5/14 16/4/14 18/4/14
f 15/4/15 22/5/15 20/5/15
f 22/5/15 15/4/15 16/4/15
f 9/6/16 1/6/16 3/6/16
f 1/6/16 9/6/16 11/6/16
f 11/6/17 21/5/17 19/5/17
f 21/5/17 11/6/17 9/6/17
f 22/5/18 1/6/18 20/5/18
f 1/6/18 22/5/18 3/6/18
f 19/5/19 1/6/19 11/6/19
f 1/6/19 19/5/19 20/5/19
f 22/5/20 9/6/20 3/6/20
f 9/6/20 22/5/20 21/5/20
f 30/9/25 24/7/25 28/9/25
f 23/7/25 28/9/25 24/7/25
f 24/7/24 30/9/24 26/7/24
f 29/8/24 26/7/24 30/9/24
f 29/8/23 27/8/23 26/7/23
f 25/7/23 26/7/23 27/8/23
f 23/7/22 25/7/22 28/9/22
f 27/8/22 28/9/22 25/7/22
f 26/7/21 25/7/21 24/7/21
f 23/7/21 24/7/21 25/7/21
f 32/10/26 31/10/26 38/10/29
f 37/10/29 38/10/29 31/10/26
f 36/11/43 48/12/42 38/10/7
f 46/13/40 38/10/7 48/12/42
f 47/14/41 45/13/39 46/13/40
f 46/13/40 45/13/39 38/10/7
f 32/10/7 38/10/7 45/13/39
f 45/13/39 44/12/38 32/10/7
f 34/11/37 32/10/7 44/12/38
f 35/11/36 37/10/3 43/12/35
f 41/13/33 43/12/35 37/10/3
f 42/14/34 41/13/33 40/13/32
f 41/13/33 37/10/3 40/13/32
f 31/10/3 40/13/32 37/10/3
f 40/13/32 31/10/3 39/12/31
f 33/11/30 39/12/31 31/10/3
f 38/10/29 37/10/29 36/11/28
f 35/11/28 36/11/28 37/10/29
f 34/11/27 33/11/27 32/10/26
f 31/10/26 32/10/26 33/11/27
f 51/7/45 50/15/44 49/7/44
f 50/15/44 51/7/45 52/15/45
f 55/7/46 54/15/47 53/15/46
f 54/15/47 55/7/46 56/7/47
f 59/7/48 58/15/49 57/15/48
f 58/15/49 59/7/48 60/7/49
f 63/15/51 62/7/50 61/15/50
f 62/7/50 63/15/51 64/7/51
f 61/15/50 59/7/48 57/15/48
f 59/7/48 61/15/50 62/7/50
f 55/7/46 52/15/45 51/7/45
f 52/15/45 55/7/46 53/15/46
f 54/15/47 64/7/51 63/15/51
f 64/7/51 54/15/47 56/7/47
f 49/7/44 58/15/49 60/7/49
f 58/15/49 49/7/44 50/15/44
f 60/7/6 51/7/6 49/7/6
f 51/7/6 60/7/6 55/7/6
f 55/7/6 60/7/6 59/7/6
f 55/7/6 59/7/6 56/7/6
f 56/7/6 59/7/6 62/7/6
f 56/7/6 62/7/6 64/7/6
f 67/8/16 66/8/16 65/8/16
f 66/8/16 67/8/16 68/8/16
f 68/8/16 67/8/16 69/8/16
f 68/8/16 69/8/16 70/8/16
f 70/8/16 69/8/16 71/8/16
f 70/8/16 71/8/16 72/8/16
f 57/15/54 68/8/53 70/8/52
f 68/8/53 57/15/54 58/15/55
f 50/15/56 68/8/53 58/15/55
f 68/8/53 50/15/56 66/8/57
f 52/15/58 66/8/57 50/15/56
f 66/8/57 52/15/58 65/8/59
f 52/15/58 67/8/60 65/8/59
f 67/8/60 52/15/58 53/15/61
f 69/8/64 63/15/63 71/8/62
f 63/15/63 69/8/64 54/15/65
f 53/15/61 69/8/64 67/8/60
f 69/8/64 53/15/61 54/15/65
f 70/8/52 61/15/66 57/15/54
f 61/15/66 70/8/52 72/8/67
f 72/8/67 63/15/63 61/15/66
f 63/15/63 72/8/67 71/8/62
f 75/7/69 74/15/68 73/7/68
f 74/15/68 75/7/69 76/15/69
f 79/7/70 78/15/71 77/15/70
f 78/15/71 79/7/70 80/7/71
f 83/7/72 82/15/73 81/15/72
f 82/15/73 83/7/72 84/7/73
f 87/15/75 86/7/74 85/15/74
f 86/7/74 87/15/75 88/7/75
f 85/15/74 83/7/72 81/15/72
f 83/7/72 85/15/74 86/7/74
f 79/7/70 76/15/69 75/7/69
f 76/15/69 79/7/70 77/15/70
f 78/15/71 88/7/75 87/15/75
f 88/7/75 78/15/71 80/7/71
f 73/7/68 82/15/73 84/7/73
f 82/15/73 73/7/68 74/15/68
f 84/7/76 75/7/76 73/7/76
f 75/7/76 84/7/76 79/7/76
f 79/7/76 84/7/76 83/7/76
f 79/7/76 83/7/76 80/7/76
f 80/7/76 83/7/76 86/7/76
f 80/7/76 86/7/76 88/7/76
f 91/8/77 90/8/77 89/8/77
f 90/8/77 91/8/77 92/8/77
f 92/8/77 91/8/77 93/8/77
f 92/8/77 93/8/77 94/8/77
f 94/8/77 93/8/77 95/8/77
f 94/8/77 95/8/77 96/8/77
f 81/15/80 92/8/79 94/8/78
f 92/8/79 81/15/80 82/15/81
f 74/15/82 92/8/79 82/15/81
f 92/8/79 74/15/82 90/8/83
f 76/15/84 90/8/83 74/15/82
f 90/8/83 76/15/84 89/8/85
f 76/15/84 91/8/86 89/8/85
f 91/8/86 76/15/84 77/15/87
f 93/8/90 87/15/89 95/8/88
f 87/15/89 93/8/90 78/15/91
f 77/15/87 93/8/90 91/8/86
f 93/8/90 77/15/87 78/15/91
f 94/8/78 85/15/92 81/15/80
f 85/15/92 94/8/78 96/8/93
f 96/8/93 87/15/89 85/15/92
f 87/15/89 96/8/93 95/8/88
f 99/16/45 98/17/44 97/16/44
f 98/17/44 99/16/45 100/17/45
f 103/16/46 102/17/47 101/17/46
f 102/17/47 103/16/46 104/16/47
f 107/16/48 106/17/49 105/17/48
f 106/17/49 107/16/48 108/16/49
f 111/17/51 110/16/50 109/17/50
f 110/16/50 111/17/51 112/16/51
f 109/17/50 107/16/48 105/17/48
f 107/16/48 109/17/50 110/16/50
f 99/16/45 101/17/46 100/17/45
f 101/17/46 99/16/45 103/16/46
f 102/17/47 112/16/51 111/17/51
f 112/16/51 102/17/47 104/16/47
f 97/16/44 106/17/49 108/16/49
f 106/17/49 97/16/44 98/17/44
f 101/17/16 98/17/16 100/17/16
f 98/17/16 101/17/16 106/17/16
f 106/17/16 101/17/16 102/17/16
f 106/17/16 102/17/16 105/17/16
f 105/17/16 102/17/16 111/17/16
f 105/17/16 111/17/16 109/17/16
f 108/16/6 99/16/6 97/16/6
f 99/16/6 108/16/6 103/16/6
f 103/16/6 108/16/6 107/16/6
f 103/16/6 107/16/6 104/16/6
f 104/16/6 107/16/6 110/16/6
f 104/16/6 110/16/6 112/16/6
f 120/25/100 40/26/32 123/28/109
f 39/27/31 123/28/109 40/26/32
f 120/25/101 123/28/108 45/26/39
f 44/27/38 45/26/39 123/28/108
f 122/25/106 121/28/107 41/26/33
f 43/27/35 41/26/33 121/28/107
f 119/23/103 47/24/41 122/25/105
f 46/26/40 122/25/105 47/24/41
f 123/28/109 39/27/31 114/18/95
f 33/19/30 114/18/95 39/27/31
f 123/28/108 114/18/95 44/27/38
f 34/19/37 44/27/38 114/18/95
f 121/28/104 48/27/42 113/18/94
f 36/19/43 113/18/94 48/27/42
f 121/28/107 113/18/94 43/27/35
f 35/19/36 43/27/35 113/18/94
f 119/23/99 122/25/106 42/24/34
f 41/26/33 42/24/34 122/25/106
f 122/25/105 46/26/40 121/28/104
f 48/27/42 121/28/104 46/26/40
f 116/21/102 115/20/102 119/23/103
f 47/24/41 119/23/103 115/20/102
f 118/22/102 120/25/101 115/20/102
f 115/20/102 120/25/101 47/24/41
f 45/26/39 47/24/41 120/25/101
f 40/26/32 120/25/100 42/24/34
f 118/22/98 117/20/98 120/25/100
f 117/20/98 42/24/34 120/25/100
f 42/24/34 117/20/98 119/23/99
f 116/21/98 119/23/99 117/20/98
f 115/20/97 117/20/97 118/22/97
f 115/20/96 116/21/96 117/20/96
f 34/19/37 114/18/95 33/19/30
f 113/18/94 36/19/43 35/19/36
f 126/30/48 125/29/49 124/29/48
f 125/29/49 126/30/48 127/30/49
f 130/29/47 129/30/51 128/29/51
f 129/30/51 130/29/47 131/30/47
f 132/30/44 125/29/49 127/30/49
f 125/29/49 132/30/44 133/29/44
f 135/29/16 133/29/16 134/29/16
f 133/29/16 135/29/16 125/29/16
f 125/29/16 135/29/16 130/29/16
f 125/29/16 130/29/16 124/29/16
f 124/29/16 130/29/16 128/29/16
f 124/29/16 128/29/16 136/29/16
f 137/30/45 133/29/44 132/30/44
f 133/29/44 137/30/45 134/29/45
f 127/30/6 137/30/6 132/30/6
f 137/30/6 127/30/6 138/30/6
f 138/30/6 127/30/6 126/30/6
f 138/30/6 126/30/6 131/30/6
f 131/30/6 126/30/6 139/30/6
f 131/30/6 139/30/6 129/30/6
f 128/29/51 139/30/50 136/29/50
f 139/30/50 128/29/51 129/30/51
f 138/30/46 130/29/47 135/29/46
f 130/29/47 138/30/46 131/30/47
f 138/30/46 134/29/45 137/30/45
f 134/29/45 138/30/46 135/29/46
f 136/29/50 126/30/48 124/29/48
f 126/30/48 136/29/50 139/30/50
f 142/31/45 141/32/44 140/31/44
f 141/32/44 142/31/45 143/32/45
f 146/31/46 145/32/47 144/32/46
f 145/32/47 146/31/46 147/31/47
f 150/31/48 149/32/49 148/32/48
f 149/32/49 150/31/48 151/31/49
f 154/32/51 153/31/50 152/32/50
f 153/31/50 154/32/51 155/31/51
f 152/32/50 150/31/48 148/32/48
f 150/31/48 152/32/50 153/31/50
f 142/31/45 144/32/46 143/32/45
f 144/32/46 142/31/45 146/31/46
f 145/32/47 155/31/51 154/32/51
f 155/31/51 145/32/47 147/31/47
f 140/31/44 149/32/49 151/31/49
f 149/32/49 140/31/44 141/32/44
f 144/32/16 141/32/16 143/32/16
f 141/32/16 144/32/16 149/32/16
f 149/32/16 144/32/16 145/32/16
f 149/32/16 145/32/16 148/32/16
f 148/32/16 145/32/16 154/32/16
f 148/32/16 154/32/16 152/32/16
f 151/31/6 142/31/6 140/31/6
f 142/31/6 151/31/6 146/31/6
f 146/31/6 151/31/6 150/31/6
f 146/31/6 150/31/6 147/31/6
f 147/31/6 150/31/6 153/31/6
f 147/31/6 153/31/6 155/31/6
f 158/31/45 157/32/44 156/31/44
f 157/32/44 158/31/45 159/32/45
f 162/31/46 161/32/47 160/32/46
f 161/32/47 162/31/46 163/31/47
f 166/31/48 165/32/49 164/32/48
f 165/32/49 166/31/48 167/31/49
f 170/32/51 169/31/50 168/32/50
f 169/31/50 170/32/51 171/31/51
f 168/32/50 166/31/48 164/32/48
f 166/31/48 168/32/50 169/31/50
f 158/31/45 160/32/46 159/32/45
f 160/32/46 158/31/45 162/31/46
f 161/32/47 171/31/51 170/32/51
f 171/31/51 161/32/47 163/31/47
f 156/31/44 165/32/49 167/31/49
f 165/32/49 156/31/44 157/32/44
f 160/32/16 157/32/16 159/32/16
f 157/32/16 160/32/16 165/32/16
f 165/32/16 160/32/16 161/32/16
f 165/32/16 161/32/16 164/32/16
f 164/32/16 161/32/16 170/32/16
f 164/32/16 170/32/16 168/32/16
f 167/31/6 158/31/6 156/31/6
f 158/31/6 167/31/6 162/31/6
f 162/31/6 167/31/6 166/31/6
f 162/31/6 166/31/6 163/31/6
f 163/31/6 166/31/6 169/31/6
f 163/31/6 169/31/6 171/31/6

