# Created by Kenney (www.kenney.nl)

mtllib axe-single.mtl

g axe-single

v -0.3 0.3 0.125 1 1 1
v -0.3 0.3 -0.125 1 1 1
v -0.55 0.3 0.125 1 1 1
v -0.55 0.3 -0.125 1 1 1
v -0.3 2.5 -0.125 1 1 1
v -0.3 2.5 0.125 1 1 1
v -0.55 2.5 0.125 1 1 1
v -0.55 2.5 -0.125 1 1 1
v -0.33125 2.6 -0.09375 1 1 1
v -0.33125 2.6 0.09375 1 1 1
v -0.51875 2.6 -0.09375 1 1 1
v -0.51875 2.6 0.09375 1 1 1
v -0.2375 0.2 0.1875 1 1 1
v -0.6125 0.2 0.1875 1 1 1
v -0.6125 0.2 -0.1875 1 1 1
v -0.2375 0.2 -0.1875 1 1 1
v -0.2375 0.1 -0.1875 1 1 1
v -0.2375 0.1 0.1875 1 1 1
v -0.6125 0.1 0.1875 1 1 1
v -0.6125 0.1 -0.1875 1 1 1
v -0.3 0 0.125 1 1 1
v -0.3 0 -0.125 1 1 1
v -0.55 0 0.125 1 1 1
v -0.55 0 -0.125 1 1 1
v -0.2 2 -0.125 1 1 1
v -0.2 2 0.125 1 1 1
v -0.2000001 2.4 -0.125 1 1 1
v -0.2000001 2.4 0.125 1 1 1
v 0.09999996 2.5 -0.09375 1 1 1
v 0.1 1.9 -0.09375 1 1 1
v 0.09999996 2.5 0.09375 1 1 1
v 0.1 1.9 0.09375 1 1 1
v 0.04981208 2.2 0.1293815 1 1 1
v -0.001164526 1.864739 0.125 1 1 1
v 0.4448978 1.887168 0.125 1 1 1
v 0.5213239 2.2 0.125 1 1 1
v 0.4448979 2.512832 0.125 1 1 1
v -0.001164436 2.535261 0.125 1 1 1
v -0.001164526 1.864739 -0.125 1 1 1
v 0.04981208 2.2 -0.1206185 1 1 1
v 0.4448978 1.887168 -0.125 1 1 1
v 0.5213239 2.2 -0.125 1 1 1
v 0.4448979 2.512832 -0.125 1 1 1
v -0.001164436 2.535261 -0.125 1 1 1
v -0.1626899 1.490152 0.125 1 1 1
v -0.1626899 1.490152 -0.125 1 1 1
v -0.1626898 2.909848 0.125 1 1 1
v -0.1626898 2.909848 -0.125 1 1 1
v 0.2328379 1.644814 0.125 1 1 1
v 0.232838 2.755187 0.125 1 1 1
v 0.2328379 1.644814 -0.125 1 1 1
v 0.232838 2.755187 -0.125 1 1 1
v -0.2 1.9 -0.125 1 1 1
v -0.2 1.7 -0.125 1 1 1
v -0.2 1.9 0.125 1 1 1
v -0.2 1.7 0.125 1 1 1
v -0.3 1.7 0.225 1 1 1
v -0.55 1.7 0.225 1 1 1
v -0.3 1.9 0.225 1 1 1
v -0.55 1.9 0.225 1 1 1
v -0.55 1.7 -0.225 1 1 1
v -0.3 1.7 -0.225 1 1 1
v -0.55 1.9 -0.225 1 1 1
v -0.3 1.9 -0.225 1 1 1
v -0.65 1.7 -0.125 1 1 1
v -0.65 1.9 -0.125 1 1 1
v -0.65 1.7 0.125 1 1 1
v -0.65 1.9 0.125 1 1 1
v -0.2 2.4 -0.125 1 1 1
v -0.2 2 -0.125 1 1 1
v -0.2 2.4 0.125 1 1 1
v -0.2 2 0.125 1 1 1
v -0.3 2 0.225 1 1 1
v -0.55 2 0.225 1 1 1
v -0.3 2.4 0.225 1 1 1
v -0.55 2.4 0.225 1 1 1
v -0.55 2 -0.225 1 1 1
v -0.3 2 -0.225 1 1 1
v -0.55 2.4 -0.225 1 1 1
v -0.3 2.4 -0.225 1 1 1
v -0.65 2 -0.125 1 1 1
v -0.65 2.4 -0.125 1 1 1
v -0.65 2 0.125 1 1 1
v -0.65 2.4 0.125 1 1 1
v -0.04999988 3 2.707168E-16 1 1 1
v -0.05000006 1.4 2.707168E-16 1 1 1
v 0.4960097 2.644243 1.353584E-16 1 1 1
v 0.385904 2.675166 -0.0625 1 1 1
v 0.385904 2.675166 0.0625 1 1 1
v 0.3698704 2.788402 1.804779E-16 1 1 1
v 0.0817371 1.518621 -0.0625 1 1 1
v 0.0817371 1.518621 0.0625 1 1 1
v 0.0392001 1.43488 2.48157E-16 1 1 1
v 0.2176004 1.504639 2.030376E-16 1 1 1
v 0.5590793 1.827837 1.353584E-16 1 1 1
v 0.6500001 2.2 1.353584E-16 1 1 1
v 0.3068007 2.860482 1.804779E-16 1 1 1
v 0.5590794 2.572163 1.353584E-16 1 1 1
v 0.3068006 1.539518 1.804779E-16 1 1 1
v -0.51875 0.6 -0.16875 1 1 1
v -0.33125 0.6 -0.16875 1 1 1
v -0.51875 1 -0.16875 1 1 1
v -0.33125 1 -0.16875 1 1 1
v -0.59375 0.6 0.09375 1 1 1
v -0.59375 1 0.09375 1 1 1
v -0.51875 0.6 0.16875 1 1 1
v -0.51875 1 0.16875 1 1 1
v -0.25625 1 -0.09375 1 1 1
v -0.25625 0.6 -0.09375 1 1 1
v -0.25625 0.6 0.09375 1 1 1
v -0.33125 0.6 0.16875 1 1 1
v -0.59375 0.6 -0.09375 1 1 1
v -0.25625 1 0.09375 1 1 1
v -0.33125 1 0.16875 1 1 1
v -0.59375 1 -0.09375 1 1 1
v -0.2 0.6 -0.125 1 1 1
v -0.2 0.4 -0.125 1 1 1
v -0.2 0.6 0.125 1 1 1
v -0.2 0.4 0.125 1 1 1
v -0.3 0.4 0.225 1 1 1
v -0.55 0.4 0.225 1 1 1
v -0.3 0.6 0.225 1 1 1
v -0.55 0.6 0.225 1 1 1
v -0.55 0.4 -0.225 1 1 1
v -0.3 0.4 -0.225 1 1 1
v -0.55 0.6 -0.225 1 1 1
v -0.3 0.6 -0.225 1 1 1
v -0.65 0.4 -0.125 1 1 1
v -0.65 0.6 -0.125 1 1 1
v -0.65 0.4 0.125 1 1 1
v -0.65 0.6 0.125 1 1 1
v -0.2 1.2 -0.125 1 1 1
v -0.2 1 -0.125 1 1 1
v -0.2 1.2 0.125 1 1 1
v -0.2 1 0.125 1 1 1
v -0.3 1 0.225 1 1 1
v -0.55 1 0.225 1 1 1
v -0.3 1.2 0.225 1 1 1
v -0.55 1.2 0.225 1 1 1
v -0.55 1 -0.225 1 1 1
v -0.3 1 -0.225 1 1 1
v -0.55 1.2 -0.225 1 1 1
v -0.3 1.2 -0.225 1 1 1
v -0.65 1 -0.125 1 1 1
v -0.65 1.2 -0.125 1 1 1
v -0.65 1 0.125 1 1 1
v -0.65 1.2 0.125 1 1 1

vn 0 -1 0
vn 1 0 0
vn 0 0 1
vn -1 0 0
vn 0 1 0
vn 0 0 -1
vn 0 0.298275 -0.95448
vn -0.95448 0.298275 0
vn 0 0.298275 0.95448
vn 0.95448 0.298275 0
vn 0 0.2247516 0.9744161
vn 0 0.529999 0.8479983
vn -0.9744161 0.2247516 0
vn -0.8479983 0.529999 0
vn 0.9744161 0.2247516 0
vn 0.8479983 0.529999 0
vn 0 0.2247516 -0.9744161
vn 0 0.529999 -0.8479983
vn 0.9744161 -0.2247516 0
vn 0 -0.2247516 0.9744161
vn -0.9744161 -0.2247516 0
vn 0 -0.2247516 -0.9744161
vn 0.8479983 -0.529999 0
vn 0 -0.529999 0.8479983
vn 0 -0.529999 -0.8479983
vn -0.8479983 -0.529999 0
vn -1 -1.192093E-07 0
vn 0.1036061 1.235081E-08 -0.9946185
vn -0.3162279 0.9486834 0
vn 0.1036061 1.235081E-08 0.9946185
vn -0.3162277 -0.9486835 0
vn 0.004019419 -4.79152E-10 0.9999919
vn 0.0002669157 -0.005308408 0.9999859
vn 0.376901 -0.1969604 0.9050703
vn 0.4266145 -5.08564E-08 0.9044336
vn 0.3769011 0.1969604 0.9050703
vn 0.0002669169 0.005308408 0.9999859
vn -0.0002669157 0.005308408 -0.9999859
vn -0.004019419 4.79152E-10 -0.9999919
vn 0.3738492 -0.1931418 -0.9071566
vn 0.4194329 -5.000029E-08 -0.9077864
vn 0.3738492 0.1931417 -0.9071566
vn -0.0002669169 -0.005308408 -0.9999859
vn -1 1.192093E-07 0
vn -0.9614748 0.2748935 0
vn -0.961183 0.275912 0
vn -0.961475 -0.2748933 0
vn -0.9611831 -0.2759117 0
vn -0.9182659 0.3959648 0
vn -0.918266 -0.3959646 0
vn -0.1052477 -0.6610975 0.7428816
vn 0.2431546 -0.3461611 0.9061171
vn -0.1052475 0.6610975 0.7428816
vn 0.2431547 0.346161 0.9061171
vn -0.1052477 -0.6610975 -0.7428816
vn 0.2431546 -0.3461611 -0.9061171
vn -0.1052475 0.6610975 -0.7428816
vn 0.2431547 0.346161 -0.9061171
vn 0.9238795 0 -0.3826834
vn 0.9238795 0 0.3826834
vn 0.3826834 0 0.9238795
vn -0.3826834 0 0.9238795
vn -0.3826834 0 -0.9238795
vn 0.3826834 0 -0.9238795
vn -0.9238795 0 -0.3826834
vn -0.9238795 0 0.3826834
vn 0.03156874 0.9995017 0
vn 0.0315685 -0.9995017 0
vn 0.2703879 0.9627516 0
vn 0.9901239 0.140196 0
vn 0.8915715 -0.4528801 0
vn -0.1023731 -0.9947462 0
vn 0.6182967 -0.3212794 0.7172786
vn 0.6967865 -8.306341E-08 0.7172786
vn 0.6182967 -0.3212794 -0.7172786
vn 0.6967865 -8.306341E-08 -0.7172786
vn 0.400511 0.5701774 -0.7172786
vn 0.5321522 0.4656331 -0.7071068
vn 0.6182969 0.3212793 -0.7172786
vn 0.6182969 0.3212793 0.7172786
vn 0.400511 0.5701774 0.7172786
vn 0.2575102 -0.6585503 -0.7071068
vn 0.4005109 -0.5701776 -0.7172786
vn 0.5321522 0.4656331 0.7071068
vn 0.4005109 -0.5701776 0.7172786
vn 0.2575102 -0.6585503 0.7071068

vt 0.09375 0.025
vt 0.09375 0.225
vt 0.09375 0.175
vt 0.09375 0.075
vt 0.46875 0.1583333
vt 0.46875 0.225
vt 0.46875 0.09166666
vt 0.46875 0.025
vt 0.46875 0.02500001
vt 0.46875 0.0916249
vt 0.46875 0.08029678
vt 0.46875 0.1794217
vt 0.46875 0.1964053
vt 0.46875 0.04440225
vt 0.46875 0.1322973
vt 0.46875 0.175
vt 0.46875 0.075
vt 0.71875 0.06944445
vt 0.71875 0.04440225
vt 0.71875 0.1907799
vt 0.71875 0.166312
vt 0.71875 0.1627489
vt 0.71875 0.09871937
vt 0.71875 0.0892667
vt 0.71875 0.1289112
vt 0.71875 0.1794217
vt 0.71875 0.2047954
vt 0.71875 0.1964053
vt 0.71875 0.225
vt 0.71875 0.1322973
vt 0.71875 0.1487335
vt 0.21875 0.225
vt 0.21875 0.025
vt 0.21875 0.175
vt 0.21875 0.075

usemtl colormap

f 3/1/1 2/1/1 1/1/1
f 2/1/1 3/1/1 4/1/1
f 6/2/2 2/1/2 5/2/2
f 2/1/2 6/2/2 1/1/2
f 6/2/3 3/1/3 1/1/3
f 3/1/3 6/2/3 7/2/3
f 3/1/4 8/2/4 4/1/4
f 8/2/4 3/1/4 7/2/4
f 8/2/5 6/2/5 5/2/5
f 6/2/5 8/2/5 7/2/5
f 8/2/6 2/1/6 4/1/6
f 2/1/6 8/2/6 5/2/6
f 11/3/5 10/3/5 9/3/5
f 10/3/5 11/3/5 12/3/5
f 11/3/7 5/4/7 8/4/7
f 5/4/7 11/3/7 9/3/7
f 7/4/8 11/3/8 8/4/8
f 11/3/8 7/4/8 12/3/8
f 10/3/9 7/4/9 6/4/9
f 7/4/9 10/3/9 12/3/9
f 9/3/10 6/4/10 5/4/10
f 6/4/10 9/3/10 10/3/10
f 1/6/12 14/5/11 13/5/11
f 14/5/11 1/6/12 3/6/12
f 14/5/13 4/6/14 15/5/13
f 4/6/14 14/5/13 3/6/14
f 2/6/16 13/5/15 16/5/15
f 13/5/15 2/6/16 1/6/16
f 4/6/18 16/5/17 15/5/17
f 16/5/17 4/6/18 2/6/18
f 13/5/15 17/7/19 16/5/15
f 17/7/19 13/5/15 18/7/19
f 13/5/11 19/7/20 18/7/20
f 19/7/20 13/5/11 14/5/11
f 19/7/21 15/5/13 20/7/21
f 15/5/13 19/7/21 14/5/13
f 15/5/17 17/7/22 20/7/22
f 17/7/22 15/5/17 16/5/17
f 23/8/1 22/8/1 21/8/1
f 22/8/1 23/8/1 24/8/1
f 18/7/19 22/8/23 17/7/19
f 22/8/23 18/7/19 21/8/23
f 18/7/20 23/8/24 21/8/24
f 23/8/24 18/7/20 19/7/20
f 20/7/22 22/8/25 24/8/25
f 22/8/25 20/7/22 17/7/22
f 24/8/26 19/7/21 20/7/21
f 19/7/21 24/8/26 23/8/26
f 32/9/31 26/6/31 30/9/31
f 25/6/31 30/9/31 26/6/31
f 26/6/30 32/9/30 28/6/30
f 31/8/30 28/6/30 32/9/30
f 31/8/29 29/8/29 28/6/29
f 27/6/29 28/6/29 29/8/29
f 25/6/28 27/6/28 30/9/28
f 29/8/28 30/9/28 27/6/28
f 28/6/27 27/6/27 26/6/27
f 25/6/27 26/6/27 27/6/27
f 43/12/42 44/11/43 52/15/58
f 48/14/57 52/15/58 44/11/43
f 41/12/40 51/15/56 39/11/38
f 46/14/55 39/11/38 51/15/56
f 37/12/36 50/15/54 38/11/37
f 47/14/53 38/11/37 50/15/54
f 35/12/34 34/11/33 49/15/52
f 45/14/51 49/15/52 34/11/33
f 44/11/48 38/11/47 48/14/50
f 47/14/50 48/14/50 38/11/47
f 46/14/49 45/14/49 39/11/46
f 34/11/45 39/11/46 45/14/49
f 40/10/44 33/10/44 44/11/48
f 38/11/47 44/11/48 33/10/44
f 39/11/46 34/11/45 40/10/44
f 33/10/44 40/10/44 34/11/45
f 40/10/39 44/11/43 43/12/42
f 40/10/39 43/12/42 42/13/41
f 41/12/40 40/10/39 42/13/41
f 39/11/38 40/10/39 41/12/40
f 38/11/37 33/10/32 37/12/36
f 37/12/36 33/10/32 36/13/35
f 33/10/32 35/12/34 36/13/35
f 33/10/32 34/11/33 35/12/34
f 55/16/60 54/17/59 53/16/59
f 54/17/59 55/16/60 56/17/60
f 59/16/61 58/17/62 57/17/61
f 58/17/62 59/16/61 60/16/62
f 63/16/63 62/17/64 61/17/63
f 62/17/64 63/16/63 64/16/64
f 67/17/66 66/16/65 65/17/65
f 66/16/65 67/17/66 68/16/66
f 65/17/65 63/16/63 61/17/63
f 63/16/63 65/17/65 66/16/65
f 55/16/60 57/17/61 56/17/60
f 57/17/61 55/16/60 59/16/61
f 58/17/62 68/16/66 67/17/66
f 68/16/66 58/17/62 60/16/62
f 53/16/59 62/17/64 64/16/64
f 62/17/64 53/16/59 54/17/59
f 57/17/1 54/17/1 56/17/1
f 54/17/1 57/17/1 62/17/1
f 62/17/1 57/17/1 58/17/1
f 62/17/1 58/17/1 61/17/1
f 61/17/1 58/17/1 67/17/1
f 61/17/1 67/17/1 65/17/1
f 64/16/5 55/16/5 53/16/5
f 55/16/5 64/16/5 59/16/5
f 59/16/5 64/16/5 63/16/5
f 59/16/5 63/16/5 60/16/5
f 60/16/5 63/16/5 66/16/5
f 60/16/5 66/16/5 68/16/5
f 71/16/60 70/17/59 69/16/59
f 70/17/59 71/16/60 72/17/60
f 75/16/61 74/17/62 73/17/61
f 74/17/62 75/16/61 76/16/62
f 79/16/63 78/17/64 77/17/63
f 78/17/64 79/16/63 80/16/64
f 83/17/66 82/16/65 81/17/65
f 82/16/65 83/17/66 84/16/66
f 81/17/65 79/16/63 77/17/63
f 79/16/63 81/17/65 82/16/65
f 71/16/60 73/17/61 72/17/60
f 73/17/61 71/16/60 75/16/61
f 74/17/62 84/16/66 83/17/66
f 84/16/66 74/17/62 76/16/62
f 69/16/59 78/17/64 80/16/64
f 78/17/64 69/16/59 70/17/59
f 73/17/1 70/17/1 72/17/1
f 70/17/1 73/17/1 78/17/1
f 78/17/1 73/17/1 74/17/1
f 78/17/1 74/17/1 77/17/1
f 77/17/1 74/17/1 83/17/1
f 77/17/1 83/17/1 81/17/1
f 80/16/5 71/16/5 69/16/5
f 71/16/5 80/16/5 75/16/5
f 75/16/5 80/16/5 79/16/5
f 75/16/5 79/16/5 76/16/5
f 76/16/5 79/16/5 82/16/5
f 76/16/5 82/16/5 84/16/5
f 99/31/85 49/30/52 94/25/86
f 94/25/86 49/30/52 92/23/86
f 49/30/52 45/19/51 92/23/86
f 86/18/68 92/23/86 45/19/51
f 93/24/86 92/23/86 86/18/68
f 95/27/73 35/26/34 99/31/85
f 49/30/52 99/31/85 35/26/34
f 95/27/75 99/31/83 41/26/40
f 51/30/56 41/26/40 99/31/83
f 98/27/80 87/20/84 37/26/36
f 87/20/84 89/21/84 37/26/36
f 90/22/84 97/31/81 89/21/84
f 89/21/84 97/31/81 37/26/36
f 50/30/54 37/26/36 97/31/81
f 96/29/76 42/28/41 98/27/79
f 43/26/42 98/27/79 42/28/41
f 99/31/83 94/25/82 51/30/56
f 94/25/82 91/23/82 51/30/56
f 51/30/56 91/23/82 46/19/55
f 86/18/68 46/19/55 91/23/82
f 93/24/82 86/18/68 91/23/82
f 97/31/77 52/30/58 85/18/67
f 48/19/57 85/18/67 52/30/58
f 97/31/81 85/18/67 50/30/54
f 47/19/53 50/30/54 85/18/67
f 96/29/74 98/27/80 36/28/35
f 37/26/36 36/28/35 98/27/80
f 98/27/79 43/26/42 87/20/78
f 87/20/78 43/26/42 88/21/78
f 90/22/78 88/21/78 97/31/77
f 88/21/78 43/26/42 97/31/77
f 52/30/58 97/31/77 43/26/42
f 96/29/76 95/27/75 42/28/41
f 41/26/40 42/28/41 95/27/75
f 96/29/74 36/28/35 95/27/73
f 35/26/34 95/27/73 36/28/35
f 91/23/72 94/25/72 92/23/72
f 91/23/71 92/23/71 93/24/71
f 88/21/70 90/22/70 89/21/70
f 87/20/69 88/21/69 89/21/69
f 46/19/55 86/18/68 45/19/51
f 85/18/67 48/19/57 47/19/53
f 102/33/63 101/32/64 100/32/63
f 101/32/64 102/33/63 103/33/64
f 106/32/62 105/33/66 104/32/66
f 105/33/66 106/32/62 107/33/62
f 108/33/59 101/32/64 103/33/64
f 101/32/64 108/33/59 109/32/59
f 111/32/1 109/32/1 110/32/1
f 109/32/1 111/32/1 101/32/1
f 101/32/1 111/32/1 100/32/1
f 100/32/1 111/32/1 106/32/1
f 100/32/1 106/32/1 104/32/1
f 100/32/1 104/32/1 112/32/1
f 113/33/60 109/32/59 108/33/59
f 109/32/59 113/33/60 110/32/60
f 103/33/5 113/33/5 108/33/5
f 113/33/5 103/33/5 114/33/5
f 114/33/5 103/33/5 102/33/5
f 114/33/5 102/33/5 107/33/5
f 107/33/5 102/33/5 115/33/5
f 107/33/5 115/33/5 105/33/5
f 104/32/66 115/33/65 112/32/65
f 115/33/65 104/32/66 105/33/66
f 114/33/61 106/32/62 111/32/61
f 106/32/62 114/33/61 107/33/62
f 114/33/61 110/32/60 113/33/60
f 110/32/60 114/33/61 111/32/61
f 112/32/65 102/33/63 100/32/63
f 102/33/63 112/32/65 115/33/65
f 118/34/60 117/35/59 116/34/59
f 117/35/59 118/34/60 119/35/60
f 122/34/61 121/35/62 120/35/61
f 121/35/62 122/34/61 123/34/62
f 126/34/63 125/35/64 124/35/63
f 125/35/64 126/34/63 127/34/64
f 130/35/66 129/34/65 128/35/65
f 129/34/65 130/35/66 131/34/66
f 128/35/65 126/34/63 124/35/63
f 126/34/63 128/35/65 129/34/65
f 118/34/60 120/35/61 119/35/60
f 120/35/61 118/34/60 122/34/61
f 121/35/62 131/34/66 130/35/66
f 131/34/66 121/35/62 123/34/62
f 116/34/59 125/35/64 127/34/64
f 125/35/64 116/34/59 117/35/59
f 120/35/1 117/35/1 119/35/1
f 117/35/1 120/35/1 125/35/1
f 125/35/1 120/35/1 121/35/1
f 125/35/1 121/35/1 124/35/1
f 124/35/1 121/35/1 130/35/1
f 124/35/1 130/35/1 128/35/1
f 127/34/5 118/34/5 116/34/5
f 118/34/5 127/34/5 122/34/5
f 122/34/5 127/34/5 126/34/5
f 122/34/5 126/34/5 123/34/5
f 123/34/5 126/34/5 129/34/5
f 123/34/5 129/34/5 131/34/5
f 134/34/60 133/35/59 132/34/59
f 133/35/59 134/34/60 135/35/60
f 138/34/61 137/35/62 136/35/61
f 137/35/62 138/34/61 139/34/62
f 142/34/63 141/35/64 140/35/63
f 141/35/64 142/34/63 143/34/64
f 146/35/66 145/34/65 144/35/65
f 145/34/65 146/35/66 147/34/66
f 144/35/65 142/34/63 140/35/63
f 142/34/63 144/35/65 145/34/65
f 134/34/60 136/35/61 135/35/60
f 136/35/61 134/34/60 138/34/61
f 137/35/62 147/34/66 146/35/66
f 147/34/66 137/35/62 139/34/62
f 132/34/59 141/35/64 143/34/64
f 141/35/64 132/34/59 133/35/59
f 136/35/1 133/35/1 135/35/1
f 133/35/1 136/35/1 141/35/1
f 141/35/1 136/35/1 137/35/1
f 141/35/1 137/35/1 140/35/1
f 140/35/1 137/35/1 146/35/1
f 140/35/1 146/35/1 144/35/1
f 143/34/5 134/34/5 132/34/5
f 134/34/5 143/34/5 138/34/5
f 138/34/5 143/34/5 142/34/5
f 138/34/5 142/34/5 139/34/5
f 139/34/5 142/34/5 145/34/5
f 139/34/5 145/34/5 147/34/5

g axe-single




usemtl colormap

f 3/1/1 2/1/1 1/1/1
f 2/1/1 3/1/1 4/1/1
f 6/2/2 2/1/2 5/2/2
f 2/1/2 6/2/2 1/1/2
f 6/2/3 3/1/3 1/1/3
f 3/1/3 6/2/3 7/2/3
f 3/1/4 8/2/4 4/1/4
f 8/2/4 3/1/4 7/2/4
f 8/2/5 6/2/5 5/2/5
f 6/2/5 8/2/5 7/2/5
f 8/2/6 2/1/6 4/1/6
f 2/1/6 8/2/6 5/2/6
f 11/3/5 10/3/5 9/3/5
f 10/3/5 11/3/5 12/3/5
f 11/3/7 5/4/7 8/4/7
f 5/4/7 11/3/7 9/3/7
f 7/4/8 11/3/8 8/4/8
f 11/3/8 7/4/8 12/3/8
f 10/3/9 7/4/9 6/4/9
f 7/4/9 10/3/9 12/3/9
f 9/3/10 6/4/10 5/4/10
f 6/4/10 9/3/10 10/3/10
f 1/6/12 14/5/11 13/5/11
f 14/5/11 1/6/12 3/6/12
f 14/5/13 4/6/14 15/5/13
f 4/6/14 14/5/13 3/6/14
f 2/6/16 13/5/15 16/5/15
f 13/5/15 2/6/16 1/6/16
f 4/6/18 16/5/17 15/5/17
f 16/5/17 4/6/18 2/6/18
f 13/5/15 17/7/19 16/5/15
f 17/7/19 13/5/15 18/7/19
f 13/5/11 19/7/20 18/7/20
f 19/7/20 13/5/11 14/5/11
f 19/7/21 15/5/13 20/7/21
f 15/5/13 19/7/21 14/5/13
f 15/5/17 17/7/22 20/7/22
f 17/7/22 15/5/17 16/5/17
f 23/8/1 22/8/1 21/8/1
f 22/8/1 23/8/1 24/8/1
f 18/7/19 22/8/23 17/7/19
f 22/8/23 18/7/19 21/8/23
f 18/7/20 23/8/24 21/8/24
f 23/8/24 18/7/20 19/7/20
f 20/7/22 22/8/25 24/8/25
f 22/8/25 20/7/22 17/7/22
f 24/8/26 19/7/21 20/7/21
f 19/7/21 24/8/26 23/8/26
f 32/9/31 26/6/31 30/9/31
f 25/6/31 30/9/31 26/6/31
f 26/6/30 32/9/30 28/6/30
f 31/8/30 28/6/30 32/9/30
f 31/8/29 29/8/29 28/6/29
f 27/6/29 28/6/29 29/8/29
f 25/6/28 27/6/28 30/9/28
f 29/8/28 30/9/28 27/6/28
f 28/6/27 27/6/27 26/6/27
f 25/6/27 26/6/27 27/6/27
f 43/12/42 44/11/43 52/15/58
f 48/14/57 52/15/58 44/11/43
f 41/12/40 51/15/56 39/11/38
f 46/14/55 39/11/38 51/15/56
f 37/12/36 50/15/54 38/11/37
f 47/14/53 38/11/37 50/15/54
f 35/12/34 34/11/33 49/15/52
f 45/14/51 49/15/52 34/11/33
f 44/11/48 38/11/47 48/14/50
f 47/14/50 48/14/50 38/11/47
f 46/14/49 45/14/49 39/11/46
f 34/11/45 39/11/46 45/14/49
f 40/10/44 33/10/44 44/11/48
f 38/11/47 44/11/48 33/10/44
f 39/11/46 34/11/45 40/10/44
f 33/10/44 40/10/44 34/11/45
f 40/10/39 44/11/43 43/12/42
f 40/10/39 43/12/42 42/13/41
f 41/12/40 40/10/39 42/13/41
f 39/11/38 40/10/39 41/12/40
f 38/11/37 33/10/32 37/12/36
f 37/12/36 33/10/32 36/13/35
f 33/10/32 35/12/34 36/13/35
f 33/10/32 34/11/33 35/12/34
f 55/16/60 54/17/59 53/16/59
f 54/17/59 55/16/60 56/17/60
f 59/16/61 58/17/62 57/17/61
f 58/17/62 59/16/61 60/16/62
f 63/16/63 62/17/64 61/17/63
f 62/17/64 63/16/63 64/16/64
f 67/17/66 66/16/65 65/17/65
f 66/16/65 67/17/66 68/16/66
f 65/17/65 63/16/63 61/17/63
f 63/16/63 65/17/65 66/16/65
f 55/16/60 57/17/61 56/17/60
f 57/17/61 55/16/60 59/16/61
f 58/17/62 68/16/66 67/17/66
f 68/16/66 58/17/62 60/16/62
f 53/16/59 62/17/64 64/16/64
f 62/17/64 53/16/59 54/17/59
f 57/17/1 54/17/1 56/17/1
f 54/17/1 57/17/1 62/17/1
f 62/17/1 57/17/1 58/17/1
f 62/17/1 58/17/1 61/17/1
f 61/17/1 58/17/1 67/17/1
f 61/17/1 67/17/1 65/17/1
f 64/16/5 55/16/5 53/16/5
f 55/16/5 64/16/5 59/16/5
f 59/16/5 64/16/5 63/16/5
f 59/16/5 63/16/5 60/16/5
f 60/16/5 63/16/5 66/16/5
f 60/16/5 66/16/5 68/16/5
f 71/16/60 70/17/59 69/16/59
f 70/17/59 71/16/60 72/17/60
f 75/16/61 74/17/62 73/17/61
f 74/17/62 75/16/61 76/16/62
f 79/16/63 78/17/64 77/17/63
f 78/17/64 79/16/63 80/16/64
f 83/17/66 82/16/65 81/17/65
f 82/16/65 83/17/66 84/16/66
f 81/17/65 79/16/63 77/17/63
f 79/16/63 81/17/65 82/16/65
f 71/16/60 73/17/61 72/17/60
f 73/17/61 71/16/60 75/16/61
f 74/17/62 84/16/66 83/17/66
f 84/16/66 74/17/62 76/16/62
f 69/16/59 78/17/64 80/16/64
f 78/17/64 69/16/59 70/17/59
f 73/17/1 70/17/1 72/17/1
f 70/17/1 73/17/1 78/17/1
f 78/17/1 73/17/1 74/17/1
f 78/17/1 74/17/1 77/17/1
f 77/17/1 74/17/1 83/17/1
f 77/17/1 83/17/1 81/17/1
f 80/16/5 71/16/5 69/16/5
f 71/16/5 80/16/5 75/16/5
f 75/16/5 80/16/5 79/16/5
f 75/16/5 79/16/5 76/16/5
f 76/16/5 79/16/5 82/16/5
f 76/16/5 82/16/5 84/16/5
f 99/31/85 49/30/52 94/25/86
f 94/25/86 49/30/52 92/23/86
f 49/30/52 45/19/51 92/23/86
f 86/18/68 92/23/86 45/19/51
f 93/24/86 92/23/86 86/18/68
f 95/27/73 35/26/34 99/31/85
f 49/30/52 99/31/85 35/26/34
f 95/27/75 99/31/83 41/26/40
f 51/30/56 41/26/40 99/31/83
f 98/27/80 87/20/84 37/26/36
f 87/20/84 89/21/84 37/26/36
f 90/22/84 97/31/81 89/21/84
f 89/21/84 97/31/81 37/26/36
f 50/30/54 37/26/36 97/31/81
f 96/29/76 42/28/41 98/27/79
f 43/26/42 98/27/79 42/28/41
f 99/31/83 94/25/82 51/30/56
f 94/25/82 91/23/82 51/30/56
f 51/30/56 91/23/82 46/19/55
f 86/18/68 46/19/55 91/23/82
f 93/24/82 86/18/68 91/23/82
f 97/31/77 52/30/58 85/18/67
f 48/19/57 85/18/67 52/30/58
f 97/31/81 85/18/67 50/30/54
f 47/19/53 50/30/54 85/18/67
f 96/29/74 98/27/80 36/28/35
f 37/26/36 36/28/35 98/27/80
f 98/27/79 43/26/42 87/20/78
f 87/20/78 43/26/42 88/21/78
f 90/22/78 88/21/78 97/31/77
f 88/21/78 43/26/42 97/31/77
f 52/30/58 97/31/77 43/26/42
f 96/29/76 95/27/75 42/28/41
f 41/26/40 42/28/41 95/27/75
f 96/29/74 36/28/35 95/27/73
f 35/26/34 95/27/73 36/28/35
f 91/23/72 94/25/72 92/23/72
f 91/23/71 92/23/71 93/24/71
f 88/21/70 90/22/70 89/21/70
f 87/20/69 88/21/69 89/21/69
f 46/19/55 86/18/68 45/19/51
f 85/18/67 48/19/57 47/19/53
f 102/33/63 101/32/64 100/32/63
f 101/32/64 102/33/63 103/33/64
f 106/32/62 105/33/66 104/32/66
f 105/33/66 106/32/62 107/33/62
f 108/33/59 101/32/64 103/33/64
f 101/32/64 108/33/59 109/32/59
f 111/32/1 109/32/1 110/32/1
f 109/32/1 111/32/1 101/32/1
f 101/32/1 111/32/1 100/32/1
f 100/32/1 111/32/1 106/32/1
f 100/32/1 106/32/1 104/32/1
f 100/32/1 104/32/1 112/32/1
f 113/33/60 109/32/59 108/33/59
f 109/32/59 113/33/60 110/32/60
f 103/33/5 113/33/5 108/33/5
f 113/33/5 103/33/5 114/33/5
f 114/33/5 103/33/5 102/33/5
f 114/33/5 102/33/5 107/33/5
f 107/33/5 102/33/5 115/33/5
f 107/33/5 115/33/5 105/33/5
f 104/32/66 115/33/65 112/32/65
f 115/33/65 104/32/66 105/33/66
f 114/33/61 106/32/62 111/32/61
f 106/32/62 114/33/61 107/33/62
f 114/33/61 110/32/60 113/33/60
f 110/32/60 114/33/61 111/32/61
f 112/32/65 102/33/63 100/32/63
f 102/33/63 112/32/65 115/33/65
f 118/34/60 117/35/59 116/34/59
f 117/35/59 118/34/60 119/35/60
f 122/34/61 121/35/62 120/35/61
f 121/35/62 122/34/61 123/34/62
f 126/34/63 125/35/64 124/35/63
f 125/35/64 126/34/63 127/34/64
f 130/35/66 129/34/65 128/35/65
f 129/34/65 130/35/66 131/34/66
f 128/35/65 126/34/63 124/35/63
f 126/34/63 128/35/65 129/34/65
f 118/34/60 120/35/61 119/35/60
f 120/35/61 118/34/60 122/34/61
f 121/35/62 131/34/66 130/35/66
f 131/34/66 121/35/62 123/34/62
f 116/34/59 125/35/64 127/34/64
f 125/35/64 116/34/59 117/35/59
f 120/35/1 117/35/1 119/35/1
f 117/35/1 120/35/1 125/35/1
f 125/35/1 120/35/1 121/35/1
f 125/35/1 121/35/1 124/35/1
f 124/35/1 121/35/1 130/35/1
f 124/35/1 130/35/1 128/35/1
f 127/34/5 118/34/5 116/34/5
f 118/34/5 127/34/5 122/34/5
f 122/34/5 127/34/5 126/34/5
f 122/34/5 126/34/5 123/34/5
f 123/34/5 126/34/5 129/34/5
f 123/34/5 129/34/5 131/34/5
f 134/34/60 133/35/59 132/34/59
f 133/35/59 134/34/60 135/35/60
f 138/34/61 137/35/62 136/35/61
f 137/35/62 138/34/61 139/34/62
f 142/34/63 141/35/64 140/35/63
f 141/35/64 142/34/63 143/34/64
f 146/35/66 145/34/65 144/35/65
f 145/34/65 146/35/66 147/34/66
f 144/35/65 142/34/63 140/35/63
f 142/34/63 144/35/65 145/34/65
f 134/34/60 136/35/61 135/35/60
f 136/35/61 134/34/60 138/34/61
f 137/35/62 147/34/66 146/35/66
f 147/34/66 137/35/62 139/34/62
f 132/34/59 141/35/64 143/34/64
f 141/35/64 132/34/59 133/35/59
f 136/35/1 133/35/1 135/35/1
f 133/35/1 136/35/1 141/35/1
f 141/35/1 136/35/1 137/35/1
f 141/35/1 137/35/1 140/35/1
f 140/35/1 137/35/1 146/35/1
f 140/35/1 146/35/1 144/35/1
f 143/34/5 134/34/5 132/34/5
f 134/34/5 143/34/5 138/34/5
f 138/34/5 143/34/5 142/34/5
f 138/34/5 142/34/5 139/34/5
f 139/34/5 142/34/5 145/34/5
f 139/34/5 145/34/5 147/34/5

