# Created by Kenney (www.kenney.nl)

mtllib axe-double.mtl

g axe-double

v 0.125 0.3 0.125 1 1 1
v 0.125 0.3 -0.125 1 1 1
v -0.125 0.3 0.125 1 1 1
v -0.125 0.3 -0.125 1 1 1
v 0.125 3.6 -0.125 1 1 1
v 0.125 3.6 0.125 1 1 1
v -0.125 3.6 0.125 1 1 1
v -0.125 3.6 -0.125 1 1 1
v 0.09375 3.7 -0.09375 1 1 1
v 0.09375 3.7 0.09375 1 1 1
v -0.09375 3.7 -0.09375 1 1 1
v -0.09375 3.7 0.09375 1 1 1
v -0.125 3.6 -0.125 1 1 1
v 0.125 3.6 -0.125 1 1 1
v -0.125 3.6 0.125 1 1 1
v 0.125 3.6 0.125 1 1 1
v 0.1875 0.2 0.1875 1 1 1
v -0.1875 0.2 0.1875 1 1 1
v -0.1875 0.2 -0.1875 1 1 1
v 0.1875 0.2 -0.1875 1 1 1
v 0.1875 0.1 -0.1875 1 1 1
v 0.1875 0.1 0.1875 1 1 1
v -0.1875 0.1 0.1875 1 1 1
v -0.1875 0.1 -0.1875 1 1 1
v 0.125 0 0.125 1 1 1
v 0.125 0 -0.125 1 1 1
v -0.125 0 0.125 1 1 1
v -0.125 0 -0.125 1 1 1
v -0.225 3 -0.125 1 1 1
v -0.225 3 0.125 1 1 1
v -0.2249999 3.4 -0.125 1 1 1
v -0.2249999 3.4 0.125 1 1 1
v -0.5249999 3.5 -0.09375 1 1 1
v -0.525 2.9 -0.09375 1 1 1
v -0.5249999 3.5 0.09375 1 1 1
v -0.525 2.9 0.09375 1 1 1
v 0.225 3 -0.125 1 1 1
v 0.225 3 0.125 1 1 1
v 0.2249999 3.4 -0.125 1 1 1
v 0.2249999 3.4 0.125 1 1 1
v 0.5249999 3.5 -0.09375 1 1 1
v 0.525 2.9 -0.09375 1 1 1
v 0.5249999 3.5 0.09375 1 1 1
v 0.525 2.9 0.09375 1 1 1
v 0.4748121 3.2 0.1293815 1 1 1
v 0.4238355 2.864739 0.125 1 1 1
v 0.8698978 2.887168 0.125 1 1 1
v 0.9463239 3.2 0.125 1 1 1
v 0.8698979 3.512832 0.125 1 1 1
v 0.4238356 3.535261 0.125 1 1 1
v 0.4238355 2.864739 -0.125 1 1 1
v 0.4748121 3.2 -0.1206185 1 1 1
v 0.8698978 2.887168 -0.125 1 1 1
v 0.9463239 3.2 -0.125 1 1 1
v 0.8698979 3.512832 -0.125 1 1 1
v 0.4238356 3.535261 -0.125 1 1 1
v 0.2623101 2.490152 0.125 1 1 1
v 0.2623101 2.490152 -0.125 1 1 1
v 0.2623102 3.909848 0.125 1 1 1
v 0.2623102 3.909848 -0.125 1 1 1
v 0.6578379 2.644814 0.125 1 1 1
v 0.657838 3.755187 0.125 1 1 1
v 0.6578379 2.644814 -0.125 1 1 1
v 0.657838 3.755187 -0.125 1 1 1
v -0.4748121 3.2 0.1293815 1 1 1
v -0.4238355 2.864739 0.125 1 1 1
v -0.8698978 2.887168 0.125 1 1 1
v -0.9463239 3.2 0.125 1 1 1
v -0.8698979 3.512832 0.125 1 1 1
v -0.4238356 3.535261 0.125 1 1 1
v -0.4238355 2.864739 -0.125 1 1 1
v -0.4748121 3.2 -0.1206185 1 1 1
v -0.8698978 2.887168 -0.125 1 1 1
v -0.9463239 3.2 -0.125 1 1 1
v -0.8698979 3.512832 -0.125 1 1 1
v -0.4238356 3.535261 -0.125 1 1 1
v -0.2623101 2.490152 0.125 1 1 1
v -0.2623101 2.490152 -0.125 1 1 1
v -0.2623102 3.909848 0.125 1 1 1
v -0.2623102 3.909848 -0.125 1 1 1
v -0.6578379 2.644814 0.125 1 1 1
v -0.657838 3.755187 0.125 1 1 1
v -0.6578379 2.644814 -0.125 1 1 1
v -0.657838 3.755187 -0.125 1 1 1
v 0.225 2.9 -0.125 1 1 1
v 0.225 2.7 -0.125 1 1 1
v 0.225 2.9 0.125 1 1 1
v 0.225 2.7 0.125 1 1 1
v 0.125 2.7 0.225 1 1 1
v -0.125 2.7 0.225 1 1 1
v 0.125 2.9 0.225 1 1 1
v -0.125 2.9 0.225 1 1 1
v -0.125 2.7 -0.225 1 1 1
v 0.125 2.7 -0.225 1 1 1
v -0.125 2.9 -0.225 1 1 1
v 0.125 2.9 -0.225 1 1 1
v -0.225 2.7 -0.125 1 1 1
v -0.225 2.9 -0.125 1 1 1
v -0.225 2.7 0.125 1 1 1
v -0.225 2.9 0.125 1 1 1
v 0.225 3.4 -0.125 1 1 1
v 0.225 3 -0.125 1 1 1
v 0.225 3.4 0.125 1 1 1
v 0.225 3 0.125 1 1 1
v 0.125 3 0.225 1 1 1
v -0.125 3 0.225 1 1 1
v 0.125 3.4 0.225 1 1 1
v -0.125 3.4 0.225 1 1 1
v -0.125 3 -0.225 1 1 1
v 0.125 3 -0.225 1 1 1
v -0.125 3.4 -0.225 1 1 1
v 0.125 3.4 -0.225 1 1 1
v -0.225 3 -0.125 1 1 1
v -0.225 3.4 -0.125 1 1 1
v -0.225 3 0.125 1 1 1
v -0.225 3.4 0.125 1 1 1
v 0.3750001 4 4.511947E-16 1 1 1
v 0.3749999 2.4 4.511947E-16 1 1 1
v 0.9688253 3.028751 -0.0625 1 1 1
v 1.05227 3.106959 3.158362E-16 1 1 1
v 0.9688253 3.028751 0.0625 1 1 1
v 1.006809 2.920877 3.158362E-16 1 1 1
v 1.075 3.2 3.158362E-16 1 1 1
v 0.9840793 2.827837 3.158362E-16 1 1 1
v 0.7318007 3.860482 3.609557E-16 1 1 1
v 0.9840794 3.572163 3.158362E-16 1 1 1
v 0.7318006 2.539518 3.609557E-16 1 1 1
v -0.3750001 4 0 1 1 1
v -0.3749999 2.4 0 1 1 1
v -0.9210097 3.644243 -1.353584E-16 1 1 1
v -0.810904 3.675166 -0.0625 1 1 1
v -0.810904 3.675166 0.0625 1 1 1
v -0.7948704 3.788402 -9.023893E-17 1 1 1
v -0.5067371 2.518621 -0.0625 1 1 1
v -0.5067371 2.518621 0.0625 1 1 1
v -0.4642001 2.43488 -2.255973E-17 1 1 1
v -0.6426004 2.504639 -6.76792E-17 1 1 1
v -0.9840793 2.827837 -1.353584E-16 1 1 1
v -1.075 3.2 -1.353584E-16 1 1 1
v -0.7318007 3.860482 -9.023893E-17 1 1 1
v -0.9840794 3.572163 -1.353584E-16 1 1 1
v -0.7318006 2.539518 -9.023893E-17 1 1 1
v -0.09375 0.9 -0.16875 1 1 1
v 0.09375 0.9 -0.16875 1 1 1
v -0.09375 1.8 -0.16875 1 1 1
v 0.09375 1.8 -0.16875 1 1 1
v -0.16875 0.9 0.09375 1 1 1
v -0.16875 1.8 0.09375 1 1 1
v -0.09375 0.9 0.16875 1 1 1
v -0.09375 1.8 0.16875 1 1 1
v 0.16875 1.8 -0.09375 1 1 1
v 0.16875 0.9 -0.09375 1 1 1
v 0.16875 0.9 0.09375 1 1 1
v 0.09375 0.9 0.16875 1 1 1
v -0.16875 0.9 -0.09375 1 1 1
v 0.16875 1.8 0.09375 1 1 1
v 0.09375 1.8 0.16875 1 1 1
v -0.16875 1.8 -0.09375 1 1 1
v 0.225 0.9 -0.125 1 1 1
v 0.225 0.7 -0.125 1 1 1
v 0.225 0.9 0.125 1 1 1
v 0.225 0.7 0.125 1 1 1
v 0.125 0.7 0.225 1 1 1
v -0.125 0.7 0.225 1 1 1
v 0.125 0.9 0.225 1 1 1
v -0.125 0.9 0.225 1 1 1
v -0.125 0.7 -0.225 1 1 1
v 0.125 0.7 -0.225 1 1 1
v -0.125 0.9 -0.225 1 1 1
v 0.125 0.9 -0.225 1 1 1
v -0.225 0.7 -0.125 1 1 1
v -0.225 0.9 -0.125 1 1 1
v -0.225 0.7 0.125 1 1 1
v -0.225 0.9 0.125 1 1 1
v 0.225 2 -0.125 1 1 1
v 0.225 1.8 -0.125 1 1 1
v 0.225 2 0.125 1 1 1
v 0.225 1.8 0.125 1 1 1
v 0.125 1.8 0.225 1 1 1
v -0.125 1.8 0.225 1 1 1
v 0.125 2 0.225 1 1 1
v -0.125 2 0.225 1 1 1
v -0.125 1.8 -0.225 1 1 1
v 0.125 1.8 -0.225 1 1 1
v -0.125 2 -0.225 1 1 1
v 0.125 2 -0.225 1 1 1
v -0.225 1.8 -0.125 1 1 1
v -0.225 2 -0.125 1 1 1
v -0.225 1.8 0.125 1 1 1
v -0.225 2 0.125 1 1 1

vn 0 -1 0
vn 1 0 0
vn 0 0 1
vn -1 0 0
vn 0 1 0
vn 0 0 -1
vn 0 0.298275 -0.95448
vn -0.95448 0.298275 0
vn 0 0.298275 0.95448
vn 0.95448 0.298275 0
vn 0 0.2247516 0.9744161
vn 0 0.529999 0.8479983
vn -0.9744161 0.2247516 0
vn -0.8479983 0.529999 0
vn 0.9744161 0.2247516 0
vn 0.8479983 0.529999 0
vn 0 0.2247516 -0.9744161
vn 0 0.529999 -0.8479983
vn 0.9744161 -0.2247516 0
vn 0 -0.2247516 0.9744161
vn -0.9744161 -0.2247516 0
vn 0 -0.2247516 -0.9744161
vn 0.8479983 -0.529999 0
vn 0 -0.529999 0.8479983
vn 0 -0.529999 -0.8479983
vn -0.8479983 -0.529999 0
vn 1 -1.192093E-07 0
vn -0.1036061 1.235081E-08 -0.9946185
vn 0.3162279 0.9486834 0
vn -0.1036061 1.235081E-08 0.9946185
vn 0.3162277 -0.9486835 0
vn -1 -1.192093E-07 0
vn 0.1036061 1.235081E-08 -0.9946185
vn -0.3162279 0.9486834 0
vn 0.1036061 1.235081E-08 0.9946185
vn -0.3162277 -0.9486835 0
vn 0.004019419 -4.79152E-10 0.9999919
vn 0.0002669157 -0.005308408 0.9999859
vn 0.376901 -0.1969604 0.9050703
vn 0.4266145 -5.08564E-08 0.9044336
vn 0.3769011 0.1969604 0.9050703
vn 0.0002669169 0.005308408 0.9999859
vn -0.0002669157 0.005308408 -0.9999859
vn -0.004019419 4.79152E-10 -0.9999919
vn 0.3738492 -0.1931418 -0.9071566
vn 0.4194329 -5.000029E-08 -0.9077864
vn 0.3738492 0.1931417 -0.9071566
vn -0.0002669169 -0.005308408 -0.9999859
vn -1 1.192093E-07 0
vn -0.9614748 0.2748935 0
vn -0.961183 0.275912 0
vn -0.961475 -0.2748933 0
vn -0.9611831 -0.2759117 0
vn -0.9182659 0.3959648 0
vn -0.918266 -0.3959646 0
vn -0.1052477 -0.6610975 0.7428816
vn 0.2431546 -0.3461611 0.9061171
vn -0.1052475 0.6610975 0.7428816
vn 0.2431547 0.346161 0.9061171
vn -0.1052477 -0.6610975 -0.7428816
vn 0.2431546 -0.3461611 -0.9061171
vn -0.1052475 0.6610975 -0.7428816
vn 0.2431547 0.346161 -0.9061171
vn -0.004019419 -4.79152E-10 0.9999919
vn -0.0002669157 -0.005308408 0.9999859
vn -0.376901 -0.1969604 0.9050703
vn -0.4266145 -5.08564E-08 0.9044336
vn -0.3769011 0.1969604 0.9050703
vn -0.0002669169 0.005308408 0.9999859
vn 0.0002669157 0.005308408 -0.9999859
vn 0.004019419 4.79152E-10 -0.9999919
vn -0.3738492 -0.1931418 -0.9071566
vn -0.4194329 -5.000029E-08 -0.9077864
vn -0.3738492 0.1931417 -0.9071566
vn 0.0002669169 -0.005308408 -0.9999859
vn 1 1.192093E-07 0
vn 0.9614748 0.2748935 0
vn 0.961183 0.275912 0
vn 0.961475 -0.2748933 0
vn 0.9611831 -0.2759117 0
vn 0.9182659 0.3959648 0
vn 0.918266 -0.3959646 0
vn 0.1052477 -0.6610975 0.7428816
vn -0.2431546 -0.3461611 0.9061171
vn 0.1052475 0.6610975 0.7428816
vn -0.2431547 0.346161 0.9061171
vn 0.1052477 -0.6610975 -0.7428816
vn -0.2431546 -0.3461611 -0.9061171
vn 0.1052475 0.6610975 -0.7428816
vn -0.2431547 0.346161 -0.9061171
vn 0.9238795 0 -0.3826834
vn 0.9238795 0 0.3826834
vn 0.3826834 0 0.9238795
vn -0.3826834 0 0.9238795
vn -0.3826834 0 -0.9238795
vn 0.3826834 0 -0.9238795
vn -0.9238795 0 -0.3826834
vn -0.9238795 0 0.3826834
vn 0.03156874 0.9995017 0
vn 0.0315685 -0.9995017 0
vn 0.6838422 -0.7296299 0
vn 0.943234 0.3321296 0
vn 0.6869052 -0.1678133 0.7071068
vn 0.6967865 -8.306341E-08 0.7172786
vn 0.6182967 -0.3212794 0.7172786
vn 0.6182967 -0.3212794 -0.7172786
vn 0.6869052 -0.1678133 -0.7071068
vn 0.6967865 -8.306341E-08 -0.7172786
vn 0.400511 0.5701774 -0.7172786
vn 0.6182969 0.3212793 -0.7172786
vn 0.6182969 0.3212793 0.7172786
vn 0.400511 0.5701774 0.7172786
vn 0.4005109 -0.5701776 -0.7172786
vn 0.4005109 -0.5701776 0.7172786
vn -0.03156874 0.9995017 0
vn -0.0315685 -0.9995017 0
vn -0.2703879 0.9627516 0
vn -0.9901239 0.140196 0
vn -0.8915715 -0.4528801 0
vn 0.1023731 -0.9947462 0
vn -0.6182967 -0.3212794 0.7172786
vn -0.6967865 -8.306341E-08 0.7172786
vn -0.6182967 -0.3212794 -0.7172786
vn -0.6967865 -8.306341E-08 -0.7172786
vn -0.400511 0.5701774 -0.7172786
vn -0.5321522 0.4656331 -0.7071068
vn -0.6182969 0.3212793 -0.7172786
vn -0.6182969 0.3212793 0.7172786
vn -0.400511 0.5701774 0.7172786
vn -0.2575102 -0.6585503 -0.7071068
vn -0.4005109 -0.5701776 -0.7172786
vn -0.5321522 0.4656331 0.7071068
vn -0.4005109 -0.5701776 0.7172786
vn -0.2575102 -0.6585503 0.7071068

vt 0.96875 0.025
vt 0.96875 0.225
vt 0.96875 0.175
vt 0.96875 0.075
vt 0.46875 0.1583333
vt 0.46875 0.225
vt 0.46875 0.09166666
vt 0.46875 0.025
vt 0.46875 0.02500001
vt 0.46875 0.0916249
vt 0.46875 0.08029678
vt 0.46875 0.1794217
vt 0.46875 0.1964053
vt 0.46875 0.04440225
vt 0.46875 0.1322973
vt 0.46875 0.175
vt 0.46875 0.075
vt 0.71875 0.06944445
vt 0.71875 0.04440225
vt 0.71875 0.2014056
vt 0.71875 0.2199488
vt 0.71875 0.2098465
vt 0.71875 0.225
vt 0.71875 0.1964053
vt 0.71875 0.2047954
vt 0.71875 0.1794217
vt 0.71875 0.1322973
vt 0.71875 0.1487335
vt 0.71875 0.1907799
vt 0.71875 0.166312
vt 0.71875 0.1627489
vt 0.71875 0.09871937
vt 0.71875 0.0892667
vt 0.71875 0.1289112
vt 0.21875 0.475
vt 0.21875 0.275
vt 0.21875 0.425
vt 0.21875 0.325

usemtl colormap

f 3/1/1 2/1/1 1/1/1
f 2/1/1 3/1/1 4/1/1
f 6/2/2 2/1/2 5/2/2
f 2/1/2 6/2/2 1/1/2
f 6/2/3 3/1/3 1/1/3
f 3/1/3 6/2/3 7/2/3
f 3/1/4 8/2/4 4/1/4
f 8/2/4 3/1/4 7/2/4
f 8/2/5 6/2/5 5/2/5
f 6/2/5 8/2/5 7/2/5
f 8/2/6 2/1/6 4/1/6
f 2/1/6 8/2/6 5/2/6
f 11/3/5 10/3/5 9/3/5
f 10/3/5 11/3/5 12/3/5
f 11/3/7 14/4/7 13/4/7
f 14/4/7 11/3/7 9/3/7
f 15/4/8 11/3/8 13/4/8
f 11/3/8 15/4/8 12/3/8
f 10/3/9 15/4/9 16/4/9
f 15/4/9 10/3/9 12/3/9
f 9/3/10 16/4/10 14/4/10
f 16/4/10 9/3/10 10/3/10
f 1/6/12 18/5/11 17/5/11
f 18/5/11 1/6/12 3/6/12
f 18/5/13 4/6/14 19/5/13
f 4/6/14 18/5/13 3/6/14
f 2/6/16 17/5/15 20/5/15
f 17/5/15 2/6/16 1/6/16
f 4/6/18 20/5/17 19/5/17
f 20/5/17 4/6/18 2/6/18
f 17/5/15 21/7/19 20/5/15
f 21/7/19 17/5/15 22/7/19
f 17/5/11 23/7/20 22/7/20
f 23/7/20 17/5/11 18/5/11
f 23/7/21 19/5/13 24/7/21
f 19/5/13 23/7/21 18/5/13
f 19/5/17 21/7/22 24/7/22
f 21/7/22 19/5/17 20/5/17
f 27/8/1 26/8/1 25/8/1
f 26/8/1 27/8/1 28/8/1
f 22/7/19 26/8/23 21/7/19
f 26/8/23 22/7/19 25/8/23
f 22/7/20 27/8/24 25/8/24
f 27/8/24 22/7/20 23/7/20
f 24/7/22 26/8/25 28/8/25
f 26/8/25 24/7/22 21/7/22
f 28/8/26 23/7/21 24/7/21
f 23/7/21 28/8/26 27/8/26
f 31/6/27 30/6/27 29/6/27
f 30/6/27 31/6/27 32/6/27
f 31/6/28 34/9/28 33/8/28
f 34/9/28 31/6/28 29/6/28
f 33/8/29 32/6/29 31/6/29
f 32/6/29 33/8/29 35/8/29
f 36/9/30 32/6/30 35/8/30
f 32/6/30 36/9/30 30/6/30
f 30/6/31 34/9/31 29/6/31
f 34/9/31 30/6/31 36/9/31
f 44/9/36 38/6/36 42/9/36
f 37/6/36 42/9/36 38/6/36
f 38/6/35 44/9/35 40/6/35
f 43/8/35 40/6/35 44/9/35
f 43/8/34 41/8/34 40/6/34
f 39/6/34 40/6/34 41/8/34
f 37/6/33 39/6/33 42/9/33
f 41/8/33 42/9/33 39/6/33
f 40/6/32 39/6/32 38/6/32
f 37/6/32 38/6/32 39/6/32
f 55/12/47 56/11/48 64/15/63
f 60/14/62 64/15/63 56/11/48
f 53/12/45 63/15/61 51/11/43
f 58/14/60 51/11/43 63/15/61
f 49/12/41 62/15/59 50/11/42
f 59/14/58 50/11/42 62/15/59
f 47/12/39 46/11/38 61/15/57
f 57/14/56 61/15/57 46/11/38
f 56/11/53 50/11/52 60/14/55
f 59/14/55 60/14/55 50/11/52
f 58/14/54 57/14/54 51/11/51
f 46/11/50 51/11/51 57/14/54
f 52/10/49 45/10/49 56/11/53
f 50/11/52 56/11/53 45/10/49
f 51/11/51 46/11/50 52/10/49
f 45/10/49 52/10/49 46/11/50
f 52/10/44 56/11/48 55/12/47
f 52/10/44 55/12/47 54/13/46
f 53/12/45 52/10/44 54/13/46
f 51/11/43 52/10/44 53/12/45
f 50/11/42 45/10/37 49/12/41
f 49/12/41 45/10/37 48/13/40
f 45/10/37 47/12/39 48/13/40
f 45/10/37 46/11/38 47/12/39
f 67/12/66 66/11/65 65/10/64
f 68/13/67 67/12/66 65/10/64
f 68/13/67 65/10/64 69/12/68
f 69/12/68 65/10/64 70/11/69
f 73/12/72 72/10/71 71/11/70
f 74/13/73 72/10/71 73/12/72
f 74/13/73 75/12/74 72/10/71
f 75/12/74 76/11/75 72/10/71
f 66/11/77 72/10/76 65/10/76
f 72/10/76 66/11/77 71/11/78
f 65/10/76 76/11/80 70/11/79
f 76/11/80 65/10/76 72/10/76
f 77/14/81 71/11/78 66/11/77
f 71/11/78 77/14/81 78/14/81
f 70/11/79 80/14/82 79/14/82
f 80/14/82 70/11/79 76/11/80
f 66/11/65 81/15/84 77/14/83
f 81/15/84 66/11/65 67/12/66
f 82/15/86 70/11/69 79/14/85
f 70/11/69 82/15/86 69/12/68
f 83/15/88 71/11/70 78/14/87
f 71/11/70 83/15/88 73/12/72
f 76/11/75 84/15/90 80/14/89
f 84/15/90 76/11/75 75/12/74
f 87/16/92 86/17/91 85/16/91
f 86/17/91 87/16/92 88/17/92
f 91/16/93 90/17/94 89/17/93
f 90/17/94 91/16/93 92/16/94
f 95/16/95 94/17/96 93/17/95
f 94/17/96 95/16/95 96/16/96
f 99/17/98 98/16/97 97/17/97
f 98/16/97 99/17/98 100/16/98
f 97/17/97 95/16/95 93/17/95
f 95/16/95 97/17/97 98/16/97
f 87/16/92 89/17/93 88/17/92
f 89/17/93 87/16/92 91/16/93
f 90/17/94 100/16/98 99/17/98
f 100/16/98 90/17/94 92/16/94
f 85/16/91 94/17/96 96/16/96
f 94/17/96 85/16/91 86/17/91
f 89/17/1 86/17/1 88/17/1
f 86/17/1 89/17/1 94/17/1
f 94/17/1 89/17/1 90/17/1
f 94/17/1 90/17/1 93/17/1
f 93/17/1 90/17/1 99/17/1
f 93/17/1 99/17/1 97/17/1
f 96/16/5 87/16/5 85/16/5
f 87/16/5 96/16/5 91/16/5
f 91/16/5 96/16/5 95/16/5
f 91/16/5 95/16/5 92/16/5
f 92/16/5 95/16/5 98/16/5
f 92/16/5 98/16/5 100/16/5
f 103/16/92 102/17/91 101/16/91
f 102/17/91 103/16/92 104/17/92
f 107/16/93 106/17/94 105/17/93
f 106/17/94 107/16/93 108/16/94
f 111/16/95 110/17/96 109/17/95
f 110/17/96 111/16/95 112/16/96
f 115/17/98 114/16/97 113/17/97
f 114/16/97 115/17/98 116/16/98
f 113/17/97 111/16/95 109/17/95
f 111/16/95 113/17/97 114/16/97
f 103/16/92 105/17/93 104/17/92
f 105/17/93 103/16/92 107/16/93
f 106/17/94 116/16/98 115/17/98
f 116/16/98 106/17/94 108/16/94
f 101/16/91 110/17/96 112/16/96
f 110/17/96 101/16/91 102/17/91
f 105/17/1 102/17/1 104/17/1
f 102/17/1 105/17/1 110/17/1
f 110/17/1 105/17/1 106/17/1
f 110/17/1 106/17/1 109/17/1
f 109/17/1 106/17/1 115/17/1
f 109/17/1 115/17/1 113/17/1
f 112/16/5 103/16/5 101/16/5
f 103/16/5 112/16/5 107/16/5
f 107/16/5 112/16/5 111/16/5
f 107/16/5 111/16/5 108/16/5
f 108/16/5 111/16/5 114/16/5
f 108/16/5 114/16/5 116/16/5
f 124/25/105 47/26/39 127/28/114
f 61/27/57 127/28/114 47/26/39
f 124/25/106 127/28/113 53/26/45
f 63/27/61 53/26/45 127/28/113
f 126/25/111 125/28/112 49/26/41
f 62/27/59 49/26/41 125/28/112
f 123/23/108 54/24/46 126/25/110
f 55/26/47 126/25/110 54/24/46
f 127/28/114 61/27/57 118/18/100
f 57/19/56 118/18/100 61/27/57
f 127/28/113 118/18/100 63/27/61
f 58/19/60 63/27/61 118/18/100
f 125/28/109 64/27/63 117/18/99
f 60/19/62 117/18/99 64/27/63
f 125/28/112 117/18/99 62/27/59
f 59/19/58 62/27/59 117/18/99
f 123/23/104 126/25/111 48/24/40
f 49/26/41 48/24/40 126/25/111
f 126/25/110 55/26/47 125/28/109
f 64/27/63 125/28/109 55/26/47
f 120/21/107 119/20/107 123/23/108
f 54/24/46 123/23/108 119/20/107
f 122/22/107 124/25/106 119/20/107
f 119/20/107 124/25/106 54/24/46
f 53/26/45 54/24/46 124/25/106
f 47/26/39 124/25/105 48/24/40
f 122/22/103 121/20/103 124/25/105
f 121/20/103 48/24/40 124/25/105
f 48/24/40 121/20/103 123/23/104
f 120/21/103 123/23/104 121/20/103
f 119/20/102 121/20/102 122/22/102
f 119/20/101 120/21/101 121/20/101
f 58/19/60 118/18/100 57/19/56
f 117/18/99 60/19/62 59/19/58
f 79/19/85 80/19/89 128/18/115
f 77/19/83 129/18/116 78/19/87
f 132/30/117 131/30/117 130/29/117
f 132/30/118 133/31/118 131/30/118
f 136/33/119 135/32/119 134/32/119
f 135/32/120 137/34/120 134/32/120
f 68/24/67 138/25/121 67/26/66
f 138/25/121 68/24/67 139/23/122
f 138/25/123 74/24/73 73/26/72
f 74/24/73 138/25/123 139/23/124
f 75/26/74 140/28/125 84/27/90
f 140/28/125 75/26/74 131/30/126
f 140/28/125 131/30/126 133/31/126
f 131/30/126 75/26/74 130/29/126
f 130/29/126 75/26/74 141/25/127
f 141/25/128 68/24/67 69/26/68
f 68/24/67 141/25/128 139/23/122
f 128/18/115 82/27/86 79/19/85
f 82/27/86 128/18/115 140/28/129
f 84/27/90 128/18/115 80/19/89
f 128/18/115 84/27/90 140/28/125
f 134/32/130 129/18/116 136/33/130
f 134/32/130 78/19/87 129/18/116
f 78/19/87 134/32/130 83/27/88
f 83/27/88 134/32/130 137/34/130
f 83/27/88 137/34/130 142/28/131
f 74/24/73 141/25/127 75/26/74
f 141/25/127 74/24/73 139/23/124
f 140/28/129 69/26/68 82/27/86
f 69/26/68 140/28/129 132/30/132
f 132/30/132 140/28/129 133/31/132
f 69/26/68 132/30/132 130/29/132
f 69/26/68 130/29/132 141/25/128
f 142/28/131 73/26/72 83/27/88
f 73/26/72 142/28/131 138/25/123
f 67/26/66 142/28/133 81/27/84
f 142/28/133 67/26/66 138/25/121
f 129/18/116 135/32/134 136/33/134
f 77/19/83 135/32/134 129/18/116
f 135/32/134 77/19/83 81/27/84
f 135/32/134 81/27/84 137/34/134
f 137/34/134 81/27/84 142/28/133
f 145/36/95 144/35/96 143/35/95
f 144/35/96 145/36/95 146/36/96
f 149/35/94 148/36/98 147/35/98
f 148/36/98 149/35/94 150/36/94
f 151/36/91 144/35/96 146/36/96
f 144/35/96 151/36/91 152/35/91
f 154/35/1 152/35/1 153/35/1
f 152/35/1 154/35/1 144/35/1
f 144/35/1 154/35/1 149/35/1
f 144/35/1 149/35/1 143/35/1
f 143/35/1 149/35/1 147/35/1
f 143/35/1 147/35/1 155/35/1
f 156/36/92 152/35/91 151/36/91
f 152/35/91 156/36/92 153/35/92
f 146/36/5 156/36/5 151/36/5
f 156/36/5 146/36/5 157/36/5
f 157/36/5 146/36/5 145/36/5
f 157/36/5 145/36/5 150/36/5
f 150/36/5 145/36/5 158/36/5
f 150/36/5 158/36/5 148/36/5
f 147/35/98 158/36/97 155/35/97
f 158/36/97 147/35/98 148/36/98
f 157/36/93 149/35/94 154/35/93
f 149/35/94 157/36/93 150/36/94
f 157/36/93 153/35/92 156/36/92
f 153/35/92 157/36/93 154/35/93
f 155/35/97 145/36/95 143/35/95
f 145/36/95 155/35/97 158/36/97
f 161/37/92 160/38/91 159/37/91
f 160/38/91 161/37/92 162/38/92
f 165/37/93 164/38/94 163/38/93
f 164/38/94 165/37/93 166/37/94
f 169/37/95 168/38/96 167/38/95
f 168/38/96 169/37/95 170/37/96
f 173/38/98 172/37/97 171/38/97
f 172/37/97 173/38/98 174/37/98
f 171/38/97 169/37/95 167/38/95
f 169/37/95 171/38/97 172/37/97
f 161/37/92 163/38/93 162/38/92
f 163/38/93 161/37/92 165/37/93
f 164/38/94 174/37/98 173/38/98
f 174/37/98 164/38/94 166/37/94
f 159/37/91 168/38/96 170/37/96
f 168/38/96 159/37/91 160/38/91
f 163/38/1 160/38/1 162/38/1
f 160/38/1 163/38/1 168/38/1
f 168/38/1 163/38/1 164/38/1
f 168/38/1 164/38/1 167/38/1
f 167/38/1 164/38/1 173/38/1
f 167/38/1 173/38/1 171/38/1
f 170/37/5 161/37/5 159/37/5
f 161/37/5 170/37/5 165/37/5
f 165/37/5 170/37/5 169/37/5
f 165/37/5 169/37/5 166/37/5
f 166/37/5 169/37/5 172/37/5
f 166/37/5 172/37/5 174/37/5
f 177/37/92 176/38/91 175/37/91
f 176/38/91 177/37/92 178/38/92
f 181/37/93 180/38/94 179/38/93
f 180/38/94 181/37/93 182/37/94
f 185/37/95 184/38/96 183/38/95
f 184/38/96 185/37/95 186/37/96
f 189/38/98 188/37/97 187/38/97
f 188/37/97 189/38/98 190/37/98
f 187/38/97 185/37/95 183/38/95
f 185/37/95 187/38/97 188/37/97
f 177/37/92 179/38/93 178/38/92
f 179/38/93 177/37/92 181/37/93
f 180/38/94 190/37/98 189/38/98
f 190/37/98 180/38/94 182/37/94
f 175/37/91 184/38/96 186/37/96
f 184/38/96 175/37/91 176/38/91
f 179/38/1 176/38/1 178/38/1
f 176/38/1 179/38/1 184/38/1
f 184/38/1 179/38/1 180/38/1
f 184/38/1 180/38/1 183/38/1
f 183/38/1 180/38/1 189/38/1
f 183/38/1 189/38/1 187/38/1
f 186/37/5 177/37/5 175/37/5
f 177/37/5 186/37/5 181/37/5
f 181/37/5 186/37/5 185/37/5
f 181/37/5 185/37/5 182/37/5
f 182/37/5 185/37/5 188/37/5
f 182/37/5 188/37/5 190/37/5

g axe-double




usemtl colormap

f 3/1/1 2/1/1 1/1/1
f 2/1/1 3/1/1 4/1/1
f 6/2/2 2/1/2 5/2/2
f 2/1/2 6/2/2 1/1/2
f 6/2/3 3/1/3 1/1/3
f 3/1/3 6/2/3 7/2/3
f 3/1/4 8/2/4 4/1/4
f 8/2/4 3/1/4 7/2/4
f 8/2/5 6/2/5 5/2/5
f 6/2/5 8/2/5 7/2/5
f 8/2/6 2/1/6 4/1/6
f 2/1/6 8/2/6 5/2/6
f 11/3/5 10/3/5 9/3/5
f 10/3/5 11/3/5 12/3/5
f 11/3/7 14/4/7 13/4/7
f 14/4/7 11/3/7 9/3/7
f 15/4/8 11/3/8 13/4/8
f 11/3/8 15/4/8 12/3/8
f 10/3/9 15/4/9 16/4/9
f 15/4/9 10/3/9 12/3/9
f 9/3/10 16/4/10 14/4/10
f 16/4/10 9/3/10 10/3/10
f 1/6/12 18/5/11 17/5/11
f 18/5/11 1/6/12 3/6/12
f 18/5/13 4/6/14 19/5/13
f 4/6/14 18/5/13 3/6/14
f 2/6/16 17/5/15 20/5/15
f 17/5/15 2/6/16 1/6/16
f 4/6/18 20/5/17 19/5/17
f 20/5/17 4/6/18 2/6/18
f 17/5/15 21/7/19 20/5/15
f 21/7/19 17/5/15 22/7/19
f 17/5/11 23/7/20 22/7/20
f 23/7/20 17/5/11 18/5/11
f 23/7/21 19/5/13 24/7/21
f 19/5/13 23/7/21 18/5/13
f 19/5/17 21/7/22 24/7/22
f 21/7/22 19/5/17 20/5/17
f 27/8/1 26/8/1 25/8/1
f 26/8/1 27/8/1 28/8/1
f 22/7/19 26/8/23 21/7/19
f 26/8/23 22/7/19 25/8/23
f 22/7/20 27/8/24 25/8/24
f 27/8/24 22/7/20 23/7/20
f 24/7/22 26/8/25 28/8/25
f 26/8/25 24/7/22 21/7/22
f 28/8/26 23/7/21 24/7/21
f 23/7/21 28/8/26 27/8/26
f 31/6/27 30/6/27 29/6/27
f 30/6/27 31/6/27 32/6/27
f 31/6/28 34/9/28 33/8/28
f 34/9/28 31/6/28 29/6/28
f 33/8/29 32/6/29 31/6/29
f 32/6/29 33/8/29 35/8/29
f 36/9/30 32/6/30 35/8/30
f 32/6/30 36/9/30 30/6/30
f 30/6/31 34/9/31 29/6/31
f 34/9/31 30/6/31 36/9/31
f 44/9/36 38/6/36 42/9/36
f 37/6/36 42/9/36 38/6/36
f 38/6/35 44/9/35 40/6/35
f 43/8/35 40/6/35 44/9/35
f 43/8/34 41/8/34 40/6/34
f 39/6/34 40/6/34 41/8/34
f 37/6/33 39/6/33 42/9/33
f 41/8/33 42/9/33 39/6/33
f 40/6/32 39/6/32 38/6/32
f 37/6/32 38/6/32 39/6/32
f 55/12/47 56/11/48 64/15/63
f 60/14/62 64/15/63 56/11/48
f 53/12/45 63/15/61 51/11/43
f 58/14/60 51/11/43 63/15/61
f 49/12/41 62/15/59 50/11/42
f 59/14/58 50/11/42 62/15/59
f 47/12/39 46/11/38 61/15/57
f 57/14/56 61/15/57 46/11/38
f 56/11/53 50/11/52 60/14/55
f 59/14/55 60/14/55 50/11/52
f 58/14/54 57/14/54 51/11/51
f 46/11/50 51/11/51 57/14/54
f 52/10/49 45/10/49 56/11/53
f 50/11/52 56/11/53 45/10/49
f 51/11/51 46/11/50 52/10/49
f 45/10/49 52/10/49 46/11/50
f 52/10/44 56/11/48 55/12/47
f 52/10/44 55/12/47 54/13/46
f 53/12/45 52/10/44 54/13/46
f 51/11/43 52/10/44 53/12/45
f 50/11/42 45/10/37 49/12/41
f 49/12/41 45/10/37 48/13/40
f 45/10/37 47/12/39 48/13/40
f 45/10/37 46/11/38 47/12/39
f 67/12/66 66/11/65 65/10/64
f 68/13/67 67/12/66 65/10/64
f 68/13/67 65/10/64 69/12/68
f 69/12/68 65/10/64 70/11/69
f 73/12/72 72/10/71 71/11/70
f 74/13/73 72/10/71 73/12/72
f 74/13/73 75/12/74 72/10/71
f 75/12/74 76/11/75 72/10/71
f 66/11/77 72/10/76 65/10/76
f 72/10/76 66/11/77 71/11/78
f 65/10/76 76/11/80 70/11/79
f 76/11/80 65/10/76 72/10/76
f 77/14/81 71/11/78 66/11/77
f 71/11/78 77/14/81 78/14/81
f 70/11/79 80/14/82 79/14/82
f 80/14/82 70/11/79 76/11/80
f 66/11/65 81/15/84 77/14/83
f 81/15/84 66/11/65 67/12/66
f 82/15/86 70/11/69 79/14/85
f 70/11/69 82/15/86 69/12/68
f 83/15/88 71/11/70 78/14/87
f 71/11/70 83/15/88 73/12/72
f 76/11/75 84/15/90 80/14/89
f 84/15/90 76/11/75 75/12/74
f 87/16/92 86/17/91 85/16/91
f 86/17/91 87/16/92 88/17/92
f 91/16/93 90/17/94 89/17/93
f 90/17/94 91/16/93 92/16/94
f 95/16/95 94/17/96 93/17/95
f 94/17/96 95/16/95 96/16/96
f 99/17/98 98/16/97 97/17/97
f 98/16/97 99/17/98 100/16/98
f 97/17/97 95/16/95 93/17/95
f 95/16/95 97/17/97 98/16/97
f 87/16/92 89/17/93 88/17/92
f 89/17/93 87/16/92 91/16/93
f 90/17/94 100/16/98 99/17/98
f 100/16/98 90/17/94 92/16/94
f 85/16/91 94/17/96 96/16/96
f 94/17/96 85/16/91 86/17/91
f 89/17/1 86/17/1 88/17/1
f 86/17/1 89/17/1 94/17/1
f 94/17/1 89/17/1 90/17/1
f 94/17/1 90/17/1 93/17/1
f 93/17/1 90/17/1 99/17/1
f 93/17/1 99/17/1 97/17/1
f 96/16/5 87/16/5 85/16/5
f 87/16/5 96/16/5 91/16/5
f 91/16/5 96/16/5 95/16/5
f 91/16/5 95/16/5 92/16/5
f 92/16/5 95/16/5 98/16/5
f 92/16/5 98/16/5 100/16/5
f 103/16/92 102/17/91 101/16/91
f 102/17/91 103/16/92 104/17/92
f 107/16/93 106/17/94 105/17/93
f 106/17/94 107/16/93 108/16/94
f 111/16/95 110/17/96 109/17/95
f 110/17/96 111/16/95 112/16/96
f 115/17/98 114/16/97 113/17/97
f 114/16/97 115/17/98 116/16/98
f 113/17/97 111/16/95 109/17/95
f 111/16/95 113/17/97 114/16/97
f 103/16/92 105/17/93 104/17/92
f 105/17/93 103/16/92 107/16/93
f 106/17/94 116/16/98 115/17/98
f 116/16/98 106/17/94 108/16/94
f 101/16/91 110/17/96 112/16/96
f 110/17/96 101/16/91 102/17/91
f 105/17/1 102/17/1 104/17/1
f 102/17/1 105/17/1 110/17/1
f 110/17/1 105/17/1 106/17/1
f 110/17/1 106/17/1 109/17/1
f 109/17/1 106/17/1 115/17/1
f 109/17/1 115/17/1 113/17/1
f 112/16/5 103/16/5 101/16/5
f 103/16/5 112/16/5 107/16/5
f 107/16/5 112/16/5 111/16/5
f 107/16/5 111/16/5 108/16/5
f 108/16/5 111/16/5 114/16/5
f 108/16/5 114/16/5 116/16/5
f 124/25/105 47/26/39 127/28/114
f 61/27/57 127/28/114 47/26/39
f 124/25/106 127/28/113 53/26/45
f 63/27/61 53/26/45 127/28/113
f 126/25/111 125/28/112 49/26/41
f 62/27/59 49/26/41 125/28/112
f 123/23/108 54/24/46 126/25/110
f 55/26/47 126/25/110 54/24/46
f 127/28/114 61/27/57 118/18/100
f 57/19/56 118/18/100 61/27/57
f 127/28/113 118/18/100 63/27/61
f 58/19/60 63/27/61 118/18/100
f 125/28/109 64/27/63 117/18/99
f 60/19/62 117/18/99 64/27/63
f 125/28/112 117/18/99 62/27/59
f 59/19/58 62/27/59 117/18/99
f 123/23/104 126/25/111 48/24/40
f 49/26/41 48/24/40 126/25/111
f 126/25/110 55/26/47 125/28/109
f 64/27/63 125/28/109 55/26/47
f 120/21/107 119/20/107 123/23/108
f 54/24/46 123/23/108 119/20/107
f 122/22/107 124/25/106 119/20/107
f 119/20/107 124/25/106 54/24/46
f 53/26/45 54/24/46 124/25/106
f 47/26/39 124/25/105 48/24/40
f 122/22/103 121/20/103 124/25/105
f 121/20/103 48/24/40 124/25/105
f 48/24/40 121/20/103 123/23/104
f 120/21/103 123/23/104 121/20/103
f 119/20/102 121/20/102 122/22/102
f 119/20/101 120/21/101 121/20/101
f 58/19/60 118/18/100 57/19/56
f 117/18/99 60/19/62 59/19/58
f 79/19/85 80/19/89 128/18/115
f 77/19/83 129/18/116 78/19/87
f 132/30/117 131/30/117 130/29/117
f 132/30/118 133/31/118 131/30/118
f 136/33/119 135/32/119 134/32/119
f 135/32/120 137/34/120 134/32/120
f 68/24/67 138/25/121 67/26/66
f 138/25/121 68/24/67 139/23/122
f 138/25/123 74/24/73 73/26/72
f 74/24/73 138/25/123 139/23/124
f 75/26/74 140/28/125 84/27/90
f 140/28/125 75/26/74 131/30/126
f 140/28/125 131/30/126 133/31/126
f 131/30/126 75/26/74 130/29/126
f 130/29/126 75/26/74 141/25/127
f 141/25/128 68/24/67 69/26/68
f 68/24/67 141/25/128 139/23/122
f 128/18/115 82/27/86 79/19/85
f 82/27/86 128/18/115 140/28/129
f 84/27/90 128/18/115 80/19/89
f 128/18/115 84/27/90 140/28/125
f 134/32/130 129/18/116 136/33/130
f 134/32/130 78/19/87 129/18/116
f 78/19/87 134/32/130 83/27/88
f 83/27/88 134/32/130 137/34/130
f 83/27/88 137/34/130 142/28/131
f 74/24/73 141/25/127 75/26/74
f 141/25/127 74/24/73 139/23/124
f 140/28/129 69/26/68 82/27/86
f 69/26/68 140/28/129 132/30/132
f 132/30/132 140/28/129 133/31/132
f 69/26/68 132/30/132 130/29/132
f 69/26/68 130/29/132 141/25/128
f 142/28/131 73/26/72 83/27/88
f 73/26/72 142/28/131 138/25/123
f 67/26/66 142/28/133 81/27/84
f 142/28/133 67/26/66 138/25/121
f 129/18/116 135/32/134 136/33/134
f 77/19/83 135/32/134 129/18/116
f 135/32/134 77/19/83 81/27/84
f 135/32/134 81/27/84 137/34/134
f 137/34/134 81/27/84 142/28/133
f 145/36/95 144/35/96 143/35/95
f 144/35/96 145/36/95 146/36/96
f 149/35/94 148/36/98 147/35/98
f 148/36/98 149/35/94 150/36/94
f 151/36/91 144/35/96 146/36/96
f 144/35/96 151/36/91 152/35/91
f 154/35/1 152/35/1 153/35/1
f 152/35/1 154/35/1 144/35/1
f 144/35/1 154/35/1 149/35/1
f 144/35/1 149/35/1 143/35/1
f 143/35/1 149/35/1 147/35/1
f 143/35/1 147/35/1 155/35/1
f 156/36/92 152/35/91 151/36/91
f 152/35/91 156/36/92 153/35/92
f 146/36/5 156/36/5 151/36/5
f 156/36/5 146/36/5 157/36/5
f 157/36/5 146/36/5 145/36/5
f 157/36/5 145/36/5 150/36/5
f 150/36/5 145/36/5 158/36/5
f 150/36/5 158/36/5 148/36/5
f 147/35/98 158/36/97 155/35/97
f 158/36/97 147/35/98 148/36/98
f 157/36/93 149/35/94 154/35/93
f 149/35/94 157/36/93 150/36/94
f 157/36/93 153/35/92 156/36/92
f 153/35/92 157/36/93 154/35/93
f 155/35/97 145/36/95 143/35/95
f 145/36/95 155/35/97 158/36/97
f 161/37/92 160/38/91 159/37/91
f 160/38/91 161/37/92 162/38/92
f 165/37/93 164/38/94 163/38/93
f 164/38/94 165/37/93 166/37/94
f 169/37/95 168/38/96 167/38/95
f 168/38/96 169/37/95 170/37/96
f 173/38/98 172/37/97 171/38/97
f 172/37/97 173/38/98 174/37/98
f 171/38/97 169/37/95 167/38/95
f 169/37/95 171/38/97 172/37/97
f 161/37/92 163/38/93 162/38/92
f 163/38/93 161/37/92 165/37/93
f 164/38/94 174/37/98 173/38/98
f 174/37/98 164/38/94 166/37/94
f 159/37/91 168/38/96 170/37/96
f 168/38/96 159/37/91 160/38/91
f 163/38/1 160/38/1 162/38/1
f 160/38/1 163/38/1 168/38/1
f 168/38/1 163/38/1 164/38/1
f 168/38/1 164/38/1 167/38/1
f 167/38/1 164/38/1 173/38/1
f 167/38/1 173/38/1 171/38/1
f 170/37/5 161/37/5 159/37/5
f 161/37/5 170/37/5 165/37/5
f 165/37/5 170/37/5 169/37/5
f 165/37/5 169/37/5 166/37/5
f 166/37/5 169/37/5 172/37/5
f 166/37/5 172/37/5 174/37/5
f 177/37/92 176/38/91 175/37/91
f 176/38/91 177/37/92 178/38/92
f 181/37/93 180/38/94 179/38/93
f 180/38/94 181/37/93 182/37/94
f 185/37/95 184/38/96 183/38/95
f 184/38/96 185/37/95 186/37/96
f 189/38/98 188/37/97 187/38/97
f 188/37/97 189/38/98 190/37/98
f 187/38/97 185/37/95 183/38/95
f 185/37/95 187/38/97 188/37/97
f 177/37/92 179/38/93 178/38/92
f 179/38/93 177/37/92 181/37/93
f 180/38/94 190/37/98 189/38/98
f 190/37/98 180/38/94 182/37/94
f 175/37/91 184/38/96 186/37/96
f 184/38/96 175/37/91 176/38/91
f 179/38/1 176/38/1 178/38/1
f 176/38/1 179/38/1 184/38/1
f 184/38/1 179/38/1 180/38/1
f 184/38/1 180/38/1 183/38/1
f 183/38/1 180/38/1 189/38/1
f 183/38/1 189/38/1 187/38/1
f 186/37/5 177/37/5 175/37/5
f 177/37/5 186/37/5 181/37/5
f 181/37/5 186/37/5 185/37/5
f 181/37/5 185/37/5 182/37/5
f 182/37/5 185/37/5 188/37/5
f 182/37/5 188/37/5 190/37/5

