# Created by Kenney (www.kenney.nl)

mtllib club-a.mtl

g club-a

v 0.125 0.3 0.125 1 1 1
v 0.125 0.3 -0.125 1 1 1
v -0.125 0.3 0.125 1 1 1
v -0.125 0.3 -0.125 1 1 1
v 0.125 2 -0.125 1 1 1
v 0.125 2 0.125 1 1 1
v -0.125 2 0.125 1 1 1
v -0.125 2 -0.125 1 1 1
v 0.1875 0.2 0.1875 1 1 1
v -0.1875 0.2 0.1875 1 1 1
v -0.125 0.3 0.125 1 1 1
v -0.1875 0.2 -0.1875 1 1 1
v -0.125 0.3 -0.125 1 1 1
v 0.1875 0.2 -0.1875 1 1 1
v 0.1875 0.1 -0.1875 1 1 1
v 0.1875 0.1 0.1875 1 1 1
v -0.1875 0.1 0.1875 1 1 1
v -0.1875 0.1 -0.1875 1 1 1
v 0.125 0 0.125 1 1 1
v 0.125 0 -0.125 1 1 1
v -0.125 0 0.125 1 1 1
v -0.125 0 -0.125 1 1 1
v 0.225 2 -0.125 1 1 1
v 0.125 2 -0.225 1 1 1
v 0.225 2 0.125 1 1 1
v 0.125 2 0.225 1 1 1
v -0.125 2 0.225 1 1 1
v -0.125 2 -0.225 1 1 1
v -0.225 2 0.125 1 1 1
v -0.225 2 -0.125 1 1 1
v -0.45 2.3 -0.25 1 1 1
v -0.45 2.3 0.25 1 1 1
v -0.25 2.3 -0.45 1 1 1
v 0.45 2.3 0.25 1 1 1
v 0.25 2.3 0.45 1 1 1
v -0.25 2.3 0.45 1 1 1
v 0.45 2.3 -0.25 1 1 1
v 0.25 2.3 -0.45 1 1 1
v 0.45 3.1 -0.25 1 1 1
v 0.45 3.1 0.25 1 1 1
v 0.25 3.1 -0.45 1 1 1
v -0.25 3.1 -0.45 1 1 1
v -0.45 3.1 -0.25 1 1 1
v -0.45 3.1 0.25 1 1 1
v -0.25 3.1 0.45 1 1 1
v 0.25 3.1 0.45 1 1 1
v 0.3375 3.3 -0.1875 1 1 1
v 0.3375 3.3 0.1875 1 1 1
v 0.1875 3.3 -0.3375 1 1 1
v -0.1875 3.3 -0.3375 1 1 1
v -0.3375 3.3 -0.1875 1 1 1
v -0.3375 3.3 0.1875 1 1 1
v -0.1875 3.3 0.3375 1 1 1
v 0.1875 3.3 0.3375 1 1 1
v 0.225 1.9 -0.125 1 1 1
v 0.225 1.9 0.125 1 1 1
v 0.125 1.9 -0.225 1 1 1
v 0.125 1.9 0.225 1 1 1
v -0.125 1.9 -0.225 1 1 1
v -0.125 1.9 0.225 1 1 1
v -0.225 1.9 -0.125 1 1 1
v -0.225 1.9 0.125 1 1 1
v 0.27 1.6 0.15 1 1 1
v 0.27 1.6 -0.15 1 1 1
v 0.15 1.6 0.27 1 1 1
v 0.15 1.6 -0.27 1 1 1
v -0.15 1.6 0.27 1 1 1
v -0.15 1.6 -0.27 1 1 1
v -0.27 1.6 0.15 1 1 1
v -0.27 1.6 -0.15 1 1 1
v -0.1875 1.7 -0.3375 1 1 1
v 0.1875 1.7 -0.3375 1 1 1
v 0.3375 1.7 -0.1875 1 1 1
v 0.3375 1.7 0.1875 1 1 1
v 0.1875 1.7 0.3375 1 1 1
v -0.3375 1.7 -0.1875 1 1 1
v -0.3375 1.7 0.1875 1 1 1
v -0.1875 1.7 0.3375 1 1 1
v -0.1145513 2.823449 -0.45 1 1 1
v -0.05727564 2.880724 -0.8 1 1 1
v -0.162 2.938 -0.45 1 1 1
v -0.08099999 2.938 -0.8 1 1 1
v -0.1145513 3.052551 -0.45 1 1 1
v -0.05727564 2.995275 -0.8 1 1 1
v 5.029421E-09 3.1 -0.45 1 1 1
v 5.029421E-09 3.019 -0.8 1 1 1
v 5.029421E-09 2.776 -0.45 1 1 1
v 5.029421E-09 2.857 -0.8 1 1 1
v 0.1145513 3.052551 -0.45 1 1 1
v 0.05727565 2.995275 -0.8 1 1 1
v 0.1145513 2.823449 -0.45 1 1 1
v 0.05727565 2.880724 -0.8 1 1 1
v 0.162 2.938 -0.45 1 1 1
v 0.08100001 2.938 -0.8 1 1 1
v -0.1145513 2.347449 -0.45 1 1 1
v -0.05727564 2.404724 -0.8 1 1 1
v -0.162 2.462 -0.45 1 1 1
v -0.08099999 2.462 -0.8 1 1 1
v -0.1145513 2.576551 -0.45 1 1 1
v -0.05727564 2.519275 -0.8 1 1 1
v 5.029421E-09 2.624 -0.45 1 1 1
v 5.029421E-09 2.543 -0.8 1 1 1
v 5.029421E-09 2.3 -0.45 1 1 1
v 5.029421E-09 2.381 -0.8 1 1 1
v 0.1145513 2.576551 -0.45 1 1 1
v 0.05727565 2.519275 -0.8 1 1 1
v 0.1145513 2.347449 -0.45 1 1 1
v 0.05727565 2.404724 -0.8 1 1 1
v 0.162 2.462 -0.45 1 1 1
v 0.08100001 2.462 -0.8 1 1 1
v -0.45 2.823449 0.1145513 1 1 1
v -0.8 2.880724 0.05727564 1 1 1
v -0.45 2.938 0.162 1 1 1
v -0.8 2.938 0.08099999 1 1 1
v -0.45 3.052551 0.1145513 1 1 1
v -0.8 2.995275 0.05727564 1 1 1
v -0.45 3.1 -5.029484E-09 1 1 1
v -0.8 3.019 -5.029484E-09 1 1 1
v -0.45 2.776 -5.029484E-09 1 1 1
v -0.8 2.857 -5.029484E-09 1 1 1
v -0.45 3.052551 -0.1145513 1 1 1
v -0.8 2.995275 -0.05727565 1 1 1
v -0.45 2.823449 -0.1145513 1 1 1
v -0.8 2.880724 -0.05727565 1 1 1
v -0.45 2.938 -0.162 1 1 1
v -0.8 2.938 -0.08100001 1 1 1
v 0.1145513 2.823449 0.45 1 1 1
v 0.05727566 2.880724 0.8 1 1 1
v 0.162 2.938 0.45 1 1 1
v 0.08100002 2.938 0.8 1 1 1
v 0.1145513 3.052551 0.45 1 1 1
v 0.05727566 2.995275 0.8 1 1 1
v -5.029499E-09 3.1 0.45 1 1 1
v -5.029543E-09 3.019 0.8 1 1 1
v -5.029499E-09 2.776 0.45 1 1 1
v -5.029543E-09 2.857 0.8 1 1 1
v -0.1145513 3.052551 0.45 1 1 1
v -0.05727566 2.995275 0.8 1 1 1
v -0.1145513 2.823449 0.45 1 1 1
v -0.05727566 2.880724 0.8 1 1 1
v -0.162 2.938 0.45 1 1 1
v -0.08100003 2.938 0.8 1 1 1
v 0.1145513 2.347449 0.45 1 1 1
v 0.05727566 2.404724 0.8 1 1 1
v 0.162 2.462 0.45 1 1 1
v 0.08100002 2.462 0.8 1 1 1
v 0.1145513 2.576551 0.45 1 1 1
v 0.05727566 2.519275 0.8 1 1 1
v -5.029499E-09 2.624 0.45 1 1 1
v -5.029543E-09 2.543 0.8 1 1 1
v -5.029499E-09 2.3 0.45 1 1 1
v -5.029543E-09 2.381 0.8 1 1 1
v -0.1145513 2.576551 0.45 1 1 1
v -0.05727566 2.519275 0.8 1 1 1
v -0.1145513 2.347449 0.45 1 1 1
v -0.05727566 2.404724 0.8 1 1 1
v -0.162 2.462 0.45 1 1 1
v -0.08100003 2.462 0.8 1 1 1
v -0.45 2.347449 0.1145513 1 1 1
v -0.8 2.404724 0.05727564 1 1 1
v -0.45 2.462 0.162 1 1 1
v -0.8 2.462 0.08099999 1 1 1
v -0.45 2.576551 0.1145513 1 1 1
v -0.8 2.519275 0.05727564 1 1 1
v -0.45 2.624 -5.029484E-09 1 1 1
v -0.8 2.543 -5.029484E-09 1 1 1
v -0.45 2.3 -5.029484E-09 1 1 1
v -0.8 2.381 -5.029484E-09 1 1 1
v -0.45 2.576551 -0.1145513 1 1 1
v -0.8 2.519275 -0.05727565 1 1 1
v -0.45 2.347449 -0.1145513 1 1 1
v -0.8 2.404724 -0.05727565 1 1 1
v -0.45 2.462 -0.162 1 1 1
v -0.8 2.462 -0.08100001 1 1 1
v 0.45 2.347449 -0.1145513 1 1 1
v 0.8 2.404724 -0.05727564 1 1 1
v 0.45 2.462 -0.162 1 1 1
v 0.8 2.462 -0.08099999 1 1 1
v 0.45 2.576551 -0.1145513 1 1 1
v 0.8 2.519275 -0.05727564 1 1 1
v 0.45 2.624 5.029406E-09 1 1 1
v 0.8 2.543 5.029406E-09 1 1 1
v 0.45 2.3 5.029406E-09 1 1 1
v 0.8 2.381 5.029406E-09 1 1 1
v 0.45 2.576551 0.1145513 1 1 1
v 0.8 2.519275 0.05727565 1 1 1
v 0.45 2.347449 0.1145513 1 1 1
v 0.8 2.404724 0.05727565 1 1 1
v 0.45 2.462 0.162 1 1 1
v 0.8 2.462 0.08100001 1 1 1
v 0.45 2.823449 -0.1145513 1 1 1
v 0.8 2.880724 -0.05727564 1 1 1
v 0.45 2.938 -0.162 1 1 1
v 0.8 2.938 -0.08099999 1 1 1
v 0.45 3.052551 -0.1145513 1 1 1
v 0.8 2.995275 -0.05727564 1 1 1
v 0.45 3.1 5.029406E-09 1 1 1
v 0.8 3.019 5.029406E-09 1 1 1
v 0.45 2.776 5.029406E-09 1 1 1
v 0.8 2.857 5.029406E-09 1 1 1
v 0.45 3.052551 0.1145513 1 1 1
v 0.8 2.995275 0.05727565 1 1 1
v 0.45 2.823449 0.1145513 1 1 1
v 0.8 2.880724 0.05727565 1 1 1
v 0.45 2.938 0.162 1 1 1
v 0.8 2.938 0.08100001 1 1 1
v -0.09374999 0.6 -0.16875 1 1 1
v 0.09375001 0.6 -0.16875 1 1 1
v -0.09374999 1 -0.16875 1 1 1
v 0.09375001 1 -0.16875 1 1 1
v -0.16875 0.6 0.09375 1 1 1
v -0.16875 1 0.09375 1 1 1
v -0.09374999 0.6 0.16875 1 1 1
v -0.09374999 1 0.16875 1 1 1
v 0.16875 1 -0.09375 1 1 1
v 0.16875 0.6 -0.09375 1 1 1
v 0.16875 0.6 0.09375 1 1 1
v 0.09375001 0.6 0.16875 1 1 1
v -0.16875 0.6 -0.09375 1 1 1
v 0.16875 1 0.09375 1 1 1
v 0.09375001 1 0.16875 1 1 1
v -0.16875 1 -0.09375 1 1 1
v 0.225 1.2 -0.125 1 1 1
v 0.225 1.1 -0.125 1 1 1
v 0.225 1.2 0.125 1 1 1
v 0.225 1.1 0.125 1 1 1
v 0.125 1.1 0.225 1 1 1
v -0.125 1.1 0.225 1 1 1
v 0.125 1.2 0.225 1 1 1
v -0.125 1.2 0.225 1 1 1
v -0.125 1.1 -0.225 1 1 1
v 0.125 1.1 -0.225 1 1 1
v -0.125 1.2 -0.225 1 1 1
v 0.125 1.2 -0.225 1 1 1
v -0.225 1.1 -0.125 1 1 1
v -0.225 1.2 -0.125 1 1 1
v -0.225 1.1 0.125 1 1 1
v -0.225 1.2 0.125 1 1 1
v 0.225 0.4 0.125 1 1 1
v 0.225 0.5 0.125 1 1 1
v 0.225 0.4 -0.125 1 1 1
v 0.225 0.5 -0.125 1 1 1
v 0.125 0.5 -0.225 1 1 1
v -0.125 0.5 -0.225 1 1 1
v 0.125 0.4 -0.225 1 1 1
v -0.125 0.4 -0.225 1 1 1
v -0.125 0.5 0.225 1 1 1
v 0.125 0.5 0.225 1 1 1
v -0.125 0.4 0.225 1 1 1
v 0.125 0.4 0.225 1 1 1
v -0.225 0.5 0.125 1 1 1
v -0.225 0.4 0.125 1 1 1
v -0.225 0.5 -0.125 1 1 1
v -0.225 0.4 -0.125 1 1 1

vn 0 -1 0
vn 1 0 0
vn 0 0 1
vn -1 0 0
vn 0 1 0
vn 0 0 -1
vn 0 0.2247516 0.9744161
vn 0 0.529999 0.8479983
vn -0.9744161 0.2247516 0
vn -0.8479983 0.529999 0
vn 0.9744161 0.2247516 0
vn 0.8479983 0.529999 0
vn 0 0.2247516 -0.9744161
vn 0 0.529999 -0.8479983
vn 0.9744161 -0.2247516 0
vn 0 -0.2247516 0.9744161
vn -0.9744161 -0.2247516 0
vn 0 -0.2247516 -0.9744161
vn 0.8479983 -0.529999 0
vn 0 -0.529999 0.8479983
vn 0 -0.529999 -0.8479983
vn -0.8479983 -0.529999 0
vn -0.6982868 -0.6492857 -0.3013696
vn -0.6982868 -0.6492857 0.3013696
vn -0.7107074 -0.6475627 -0.2748771
vn -0.7107074 -0.6475627 0.2748771
vn -0.2748771 -0.6475627 -0.7107074
vn -0.3013696 -0.6492857 -0.6982868
vn 0.6982868 -0.6492857 0.3013696
vn 0.7107074 -0.6475627 0.2748771
vn 0.3013696 -0.6492857 0.6982868
vn 0.2748771 -0.6475627 0.7107074
vn -0.2748771 -0.6475627 0.7107074
vn -0.3013696 -0.6492857 0.6982868
vn 0.6982868 -0.6492857 -0.3013696
vn 0.7107074 -0.6475627 -0.2748771
vn 0.2748771 -0.6475627 -0.7107074
vn 0.3013696 -0.6492857 -0.6982868
vn 0.9238795 0 -0.3826834
vn 0.9238795 0 0.3826834
vn 0.3826834 0 -0.9238795
vn -0.3826834 0 -0.9238795
vn -0.9238795 0 -0.3826834
vn -0.9238795 0 0.3826834
vn -0.3826834 0 0.9238795
vn 0.3826834 0 0.9238795
vn 0.7739689 0.5391423 -0.332111
vn 0.7739689 0.5391423 0.332111
vn 0.784829 0.5377297 -0.3080428
vn 0.784829 0.5377297 0.3080428
vn 0.332111 0.5391423 -0.7739689
vn 0.3080428 0.5377297 -0.784829
vn -0.332111 0.5391423 -0.7739689
vn -0.3080428 0.5377297 -0.784829
vn -0.7739689 0.5391423 -0.332111
vn -0.784829 0.5377297 -0.3080428
vn -0.7739689 0.5391423 0.332111
vn -0.784829 0.5377297 0.3080428
vn -0.3080428 0.5377297 0.784829
vn -0.332111 0.5391423 0.7739689
vn 0.332111 0.5391423 0.7739689
vn 0.3080428 0.5377297 0.784829
vn -0.2878845 -0.607609 -0.7402256
vn 0.2878845 -0.607609 -0.7402256
vn -0.3136818 -0.6092385 -0.7283078
vn 0.3136818 -0.6092385 -0.7283078
vn 0.7283078 -0.6092385 -0.3136818
vn 0.7402256 -0.607609 -0.2878845
vn 0.7283078 -0.6092385 0.3136818
vn 0.7402256 -0.607609 0.2878845
vn 0.3136818 -0.6092385 0.7283078
vn 0.2878845 -0.607609 0.7402256
vn -0.7283078 -0.6092385 -0.3136818
vn -0.7283078 -0.6092385 0.3136818
vn -0.7402256 -0.607609 -0.2878845
vn -0.7402256 -0.607609 0.2878845
vn -0.2878845 -0.607609 0.7402256
vn -0.3136818 -0.6092385 0.7283078
vn -0.688899 -0.6888989 -0.2254692
vn -0.4188725 -0.4188726 -0.8056622
vn -0.9742503 -2.687804E-08 -0.2254693
vn -0.5923752 -9.604241E-08 -0.8056622
vn -0.688899 0.6888989 -0.2254694
vn -0.4188726 0.4188724 -0.8056623
vn 0 0.9742503 -0.2254695
vn 0 0.5923751 -0.8056623
vn 0 -0.9742503 -0.2254693
vn 0 -0.5923752 -0.8056622
vn 0.688899 0.6888989 -0.2254694
vn 0.4188726 0.4188724 -0.8056623
vn 0.688899 -0.6888989 -0.2254692
vn 0.4188725 -0.4188726 -0.8056622
vn 0.9742503 -2.687804E-08 -0.2254693
vn 0.5923752 -9.604241E-08 -0.8056622
vn -0.2254694 -0.688899 0.688899
vn -0.8056622 -0.4188725 0.4188725
vn -0.2254694 0 0.9742503
vn -0.8056622 0 0.5923752
vn -0.2254694 0.688899 0.688899
vn -0.8056622 0.4188725 0.4188725
vn -0.2254694 0.9742503 0
vn -0.8056622 0.5923752 0
vn -0.2254694 -0.9742503 0
vn -0.8056622 -0.5923752 0
vn -0.2254694 0.688899 -0.688899
vn -0.8056622 0.4188725 -0.4188725
vn -0.2254694 -0.688899 -0.688899
vn -0.8056622 -0.4188725 -0.4188725
vn -0.2254694 0 -0.9742503
vn -0.8056622 0 -0.5923752
vn 0.6888989 -0.688899 0.2254693
vn 0.4188725 -0.4188724 0.8056623
vn 0.9742502 2.687804E-08 0.2254694
vn 0.5923751 9.604241E-08 0.8056623
vn 0.6888989 0.688899 0.2254694
vn 0.4188724 0.4188726 0.8056622
vn -2.861173E-14 0.9742503 0.2254695
vn -1.022373E-13 0.5923752 0.8056622
vn -2.861171E-14 -0.9742503 0.2254693
vn -1.022373E-13 -0.5923752 0.8056623
vn -0.6888989 0.688899 0.2254694
vn -0.4188724 0.4188726 0.8056622
vn -0.6888989 -0.688899 0.2254693
vn -0.4188725 -0.4188724 0.8056623
vn -0.9742502 2.687804E-08 0.2254694
vn -0.5923751 9.604241E-08 0.8056623
vn 0.2254694 -0.688899 -0.688899
vn 0.8056622 -0.4188725 -0.4188725
vn 0.2254694 0 -0.9742503
vn 0.8056622 0 -0.5923752
vn 0.2254694 0.688899 -0.688899
vn 0.8056622 0.4188725 -0.4188725
vn 0.2254694 0.9742503 0
vn 0.8056622 0.5923752 0
vn 0.2254694 -0.9742503 0
vn 0.8056622 -0.5923752 0
vn 0.2254694 0.688899 0.688899
vn 0.8056622 0.4188725 0.4188725
vn 0.2254694 -0.688899 0.688899
vn 0.8056622 -0.4188725 0.4188725
vn 0.2254694 0 0.9742503
vn 0.8056622 0 0.5923752
vn 0.7739689 -0.5391423 -0.332111
vn 0.784829 -0.5377297 -0.3080428
vn 0.7739689 -0.5391423 0.332111
vn 0.784829 -0.5377297 0.3080428
vn 0.3080428 -0.5377297 -0.784829
vn 0.332111 -0.5391423 -0.7739689
vn -0.3080428 -0.5377297 -0.784829
vn -0.332111 -0.5391423 -0.7739689
vn -0.7739689 -0.5391423 -0.332111
vn -0.784829 -0.5377297 -0.3080428
vn 0.3080428 -0.5377297 0.784829
vn -0.3080428 -0.5377297 0.784829
vn 0.332111 -0.5391423 0.7739689
vn -0.332111 -0.5391423 0.7739689
vn -0.784829 -0.5377297 0.3080428
vn -0.7739689 -0.5391423 0.332111
vn 0.9238795 2.791617E-15 0.3826834
vn 0.9238795 -2.791617E-15 -0.3826834
vn 0.3826834 -6.739559E-15 -0.9238795
vn -0.3826834 -6.739559E-15 -0.9238795
vn -0.3826834 6.739559E-15 0.9238795
vn 0.3826834 6.739559E-15 0.9238795
vn -0.9238795 2.791617E-15 0.3826834
vn -0.9238795 -2.791617E-15 -0.3826834
vn 0 -1 7.294846E-15
vn 0 1 -7.294846E-15

vt 0.96875 0.025
vt 0.96875 0.225
vt 0.46875 0.1583333
vt 0.46875 0.225
vt 0.46875 0.09166666
vt 0.46875 0.025
vt 0.46875 0.145
vt 0.46875 0.1634615
vt 0.46875 0.2126923
vt 0.46875 0.175
vt 0.46875 0.075
vt 0.71875 0.225
vt 0.71875 0.075
vt 0.71875 0.175
vt 0.21875 0.475
vt 0.21875 0.275
vt 0.21875 0.425
vt 0.21875 0.375
vt 0.21875 0.325

usemtl colormap

f 3/1/1 2/1/1 1/1/1
f 2/1/1 3/1/1 4/1/1
f 6/2/2 2/1/2 5/2/2
f 2/1/2 6/2/2 1/1/2
f 6/2/3 3/1/3 1/1/3
f 3/1/3 6/2/3 7/2/3
f 3/1/4 8/2/4 4/1/4
f 8/2/4 3/1/4 7/2/4
f 8/2/5 6/2/5 5/2/5
f 6/2/5 8/2/5 7/2/5
f 8/2/6 2/1/6 4/1/6
f 2/1/6 8/2/6 5/2/6
f 1/4/8 10/3/7 9/3/7
f 10/3/7 1/4/8 11/4/8
f 10/3/9 13/4/10 12/3/9
f 13/4/10 10/3/9 11/4/10
f 2/4/12 9/3/11 14/3/11
f 9/3/11 2/4/12 1/4/12
f 13/4/14 14/3/13 12/3/13
f 14/3/13 13/4/14 2/4/14
f 9/3/11 15/5/15 14/3/11
f 15/5/15 9/3/11 16/5/15
f 9/3/7 17/5/16 16/5/16
f 17/5/16 9/3/7 10/3/7
f 17/5/17 12/3/9 18/5/17
f 12/3/9 17/5/17 10/3/9
f 12/3/13 15/5/18 18/5/18
f 15/5/18 12/3/13 14/3/13
f 21/6/1 20/6/1 19/6/1
f 20/6/1 21/6/1 22/6/1
f 16/5/15 20/6/19 15/5/15
f 20/6/19 16/5/15 19/6/19
f 16/5/16 21/6/20 19/6/20
f 21/6/20 16/5/16 17/5/16
f 18/5/18 20/6/21 22/6/21
f 20/6/21 18/5/18 15/5/18
f 22/6/22 17/5/17 18/5/17
f 17/5/17 22/6/22 21/6/22
f 25/7/1 24/7/1 23/7/1
f 24/7/1 25/7/1 26/7/1
f 24/7/1 26/7/1 27/7/1
f 24/7/1 27/7/1 28/7/1
f 28/7/1 27/7/1 29/7/1
f 28/7/1 29/7/1 30/7/1
f 30/7/25 32/8/24 31/8/23
f 32/8/24 30/7/25 29/7/26
f 30/7/25 33/8/28 28/7/27
f 33/8/28 30/7/25 31/8/23
f 35/8/31 25/7/30 34/8/29
f 25/7/30 35/8/31 26/7/32
f 36/8/34 29/7/26 27/7/33
f 29/7/26 36/8/34 32/8/24
f 34/8/29 23/7/36 37/8/35
f 23/7/36 34/8/29 25/7/30
f 35/8/31 27/7/33 26/7/32
f 27/7/33 35/8/31 36/8/34
f 33/8/28 24/7/37 28/7/27
f 24/7/37 33/8/28 38/8/38
f 23/7/36 38/8/38 37/8/35
f 38/8/38 23/7/36 24/7/37
f 40/9/40 37/8/39 39/9/39
f 37/8/39 40/9/40 34/8/40
f 41/9/41 37/8/39 38/8/41
f 37/8/39 41/9/41 39/9/39
f 42/9/42 38/8/41 33/8/42
f 38/8/41 42/9/42 41/9/41
f 31/8/43 42/9/42 33/8/42
f 42/9/42 31/8/43 43/9/43
f 32/8/44 43/9/43 31/8/43
f 43/9/43 32/8/44 44/9/44
f 36/8/45 44/9/44 32/8/44
f 44/9/44 36/8/45 45/9/45
f 46/9/46 36/8/45 35/8/46
f 36/8/45 46/9/46 45/9/45
f 40/9/40 35/8/46 34/8/40
f 35/8/46 40/9/40 46/9/46
f 47/4/49 40/9/48 39/9/47
f 40/9/48 47/4/49 48/4/50
f 49/4/52 39/9/47 41/9/51
f 39/9/47 49/4/52 47/4/49
f 50/4/54 41/9/51 42/9/53
f 41/9/51 50/4/54 49/4/52
f 44/9/57 51/4/56 43/9/55
f 51/4/56 44/9/57 52/4/58
f 44/9/57 53/4/59 52/4/58
f 53/4/59 44/9/57 45/9/60
f 54/4/62 45/9/60 46/9/61
f 45/9/60 54/4/62 53/4/59
f 43/9/55 50/4/54 42/9/53
f 50/4/54 43/9/55 51/4/56
f 48/4/50 46/9/61 40/9/48
f 46/9/61 48/4/50 54/4/62
f 57/10/5 56/10/5 55/10/5
f 56/10/5 57/10/5 58/10/5
f 58/10/5 57/10/5 59/10/5
f 58/10/5 59/10/5 60/10/5
f 60/10/5 59/10/5 61/10/5
f 60/10/5 61/10/5 62/10/5
f 65/11/1 64/11/1 63/11/1
f 64/11/1 65/11/1 66/11/1
f 66/11/1 65/11/1 67/11/1
f 66/11/1 67/11/1 68/11/1
f 68/11/1 67/11/1 69/11/1
f 68/11/1 69/11/1 70/11/1
f 71/11/65 66/11/64 68/11/63
f 66/11/64 71/11/65 72/11/66
f 64/11/68 72/11/66 73/11/67
f 72/11/66 64/11/68 66/11/64
f 75/11/71 63/11/70 74/11/69
f 63/11/70 75/11/71 65/11/72
f 70/11/75 77/11/74 76/11/73
f 77/11/74 70/11/75 69/11/76
f 75/11/71 67/11/77 65/11/72
f 67/11/77 75/11/71 78/11/78
f 74/11/69 64/11/68 73/11/67
f 64/11/68 74/11/69 63/11/70
f 70/11/75 71/11/65 68/11/63
f 71/11/65 70/11/75 76/11/73
f 78/11/78 69/11/76 67/11/77
f 69/11/76 78/11/78 77/11/74
f 55/10/49 74/11/48 73/11/47
f 74/11/48 55/10/49 56/10/50
f 57/10/52 73/11/47 72/11/51
f 73/11/47 57/10/52 55/10/49
f 77/11/57 61/10/56 76/11/55
f 61/10/56 77/11/57 62/10/58
f 60/10/59 77/11/57 78/11/60
f 77/11/57 60/10/59 62/10/58
f 58/10/62 78/11/60 75/11/61
f 78/11/60 58/10/62 60/10/59
f 58/10/62 74/11/48 56/10/50
f 74/11/48 58/10/62 75/11/61
f 61/10/56 71/11/53 76/11/55
f 71/11/53 61/10/56 59/10/54
f 59/10/54 72/11/51 71/11/53
f 72/11/51 59/10/54 57/10/52
f 49/12/5 48/12/5 47/12/5
f 48/12/5 49/12/5 54/12/5
f 54/12/5 49/12/5 50/12/5
f 54/12/5 50/12/5 53/12/5
f 53/12/5 50/12/5 51/12/5
f 53/12/5 51/12/5 52/12/5
f 81/13/81 80/14/80 79/13/79
f 80/14/80 81/13/81 82/14/82
f 85/13/85 84/14/84 83/13/83
f 84/14/84 85/13/85 86/14/86
f 81/13/81 84/14/84 82/14/82
f 84/14/84 81/13/81 83/13/83
f 79/13/79 88/14/88 87/13/87
f 88/14/88 79/13/79 80/14/80
f 90/14/90 85/13/85 89/13/89
f 85/13/85 90/14/90 86/14/86
f 88/14/88 91/13/91 87/13/87
f 91/13/91 88/14/88 92/14/92
f 92/14/92 93/13/93 91/13/91
f 93/13/93 92/14/92 94/14/94
f 90/14/90 93/13/93 94/14/94
f 93/13/93 90/14/90 89/13/89
f 92/14/92 90/14/90 94/14/94
f 90/14/90 92/14/92 88/14/88
f 90/14/90 88/14/88 86/14/86
f 86/14/86 88/14/88 80/14/80
f 86/14/86 80/14/80 84/14/84
f 84/14/84 80/14/80 82/14/82
f 97/13/81 96/14/80 95/13/79
f 96/14/80 97/13/81 98/14/82
f 101/13/85 100/14/84 99/13/83
f 100/14/84 101/13/85 102/14/86
f 97/13/81 100/14/84 98/14/82
f 100/14/84 97/13/81 99/13/83
f 95/13/79 104/14/88 103/13/87
f 104/14/88 95/13/79 96/14/80
f 106/14/90 101/13/85 105/13/89
f 101/13/85 106/14/90 102/14/86
f 104/14/88 107/13/91 103/13/87
f 107/13/91 104/14/88 108/14/92
f 108/14/92 109/13/93 107/13/91
f 109/13/93 108/14/92 110/14/94
f 106/14/90 109/13/93 110/14/94
f 109/13/93 106/14/90 105/13/89
f 108/14/92 106/14/90 110/14/94
f 106/14/90 108/14/92 104/14/88
f 106/14/90 104/14/88 102/14/86
f 102/14/86 104/14/88 96/14/80
f 102/14/86 96/14/80 100/14/84
f 100/14/84 96/14/80 98/14/82
f 113/13/97 112/14/96 111/13/95
f 112/14/96 113/13/97 114/14/98
f 117/13/101 116/14/100 115/13/99
f 116/14/100 117/13/101 118/14/102
f 113/13/97 116/14/100 114/14/98
f 116/14/100 113/13/97 115/13/99
f 111/13/95 120/14/104 119/13/103
f 120/14/104 111/13/95 112/14/96
f 122/14/106 117/13/101 121/13/105
f 117/13/101 122/14/106 118/14/102
f 120/14/104 123/13/107 119/13/103
f 123/13/107 120/14/104 124/14/108
f 124/14/108 125/13/109 123/13/107
f 125/13/109 124/14/108 126/14/110
f 122/14/106 125/13/109 126/14/110
f 125/13/109 122/14/106 121/13/105
f 124/14/108 122/14/106 126/14/110
f 122/14/106 124/14/108 120/14/104
f 122/14/106 120/14/104 118/14/102
f 118/14/102 120/14/104 112/14/96
f 118/14/102 112/14/96 116/14/100
f 116/14/100 112/14/96 114/14/98
f 129/13/113 128/14/112 127/13/111
f 128/14/112 129/13/113 130/14/114
f 133/13/117 132/14/116 131/13/115
f 132/14/116 133/13/117 134/14/118
f 129/13/113 132/14/116 130/14/114
f 132/14/116 129/13/113 131/13/115
f 127/13/111 136/14/120 135/13/119
f 136/14/120 127/13/111 128/14/112
f 138/14/122 133/13/117 137/13/121
f 133/13/117 138/14/122 134/14/118
f 136/14/120 139/13/123 135/13/119
f 139/13/123 136/14/120 140/14/124
f 140/14/124 141/13/125 139/13/123
f 141/13/125 140/14/124 142/14/126
f 138/14/122 141/13/125 142/14/126
f 141/13/125 138/14/122 137/13/121
f 140/14/124 138/14/122 142/14/126
f 138/14/122 140/14/124 136/14/120
f 138/14/122 136/14/120 134/14/118
f 134/14/118 136/14/120 128/14/112
f 134/14/118 128/14/112 132/14/116
f 132/14/116 128/14/112 130/14/114
f 145/13/113 144/14/112 143/13/111
f 144/14/112 145/13/113 146/14/114
f 149/13/117 148/14/116 147/13/115
f 148/14/116 149/13/117 150/14/118
f 145/13/113 148/14/116 146/14/114
f 148/14/116 145/13/113 147/13/115
f 143/13/111 152/14/120 151/13/119
f 152/14/120 143/13/111 144/14/112
f 154/14/122 149/13/117 153/13/121
f 149/13/117 154/14/122 150/14/118
f 152/14/120 155/13/123 151/13/119
f 155/13/123 152/14/120 156/14/124
f 156/14/124 157/13/125 155/13/123
f 157/13/125 156/14/124 158/14/126
f 154/14/122 157/13/125 158/14/126
f 157/13/125 154/14/122 153/13/121
f 156/14/124 154/14/122 158/14/126
f 154/14/122 156/14/124 152/14/120
f 154/14/122 152/14/120 150/14/118
f 150/14/118 152/14/120 144/14/112
f 150/14/118 144/14/112 148/14/116
f 148/14/116 144/14/112 146/14/114
f 161/13/97 160/14/96 159/13/95
f 160/14/96 161/13/97 162/14/98
f 165/13/101 164/14/100 163/13/99
f 164/14/100 165/13/101 166/14/102
f 161/13/97 164/14/100 162/14/98
f 164/14/100 161/13/97 163/13/99
f 159/13/95 168/14/104 167/13/103
f 168/14/104 159/13/95 160/14/96
f 170/14/106 165/13/101 169/13/105
f 165/13/101 170/14/106 166/14/102
f 168/14/104 171/13/107 167/13/103
f 171/13/107 168/14/104 172/14/108
f 172/14/108 173/13/109 171/13/107
f 173/13/109 172/14/108 174/14/110
f 170/14/106 173/13/109 174/14/110
f 173/13/109 170/14/106 169/13/105
f 172/14/108 170/14/106 174/14/110
f 170/14/106 172/14/108 168/14/104
f 170/14/106 168/14/104 166/14/102
f 166/14/102 168/14/104 160/14/96
f 166/14/102 160/14/96 164/14/100
f 164/14/100 160/14/96 162/14/98
f 177/13/129 176/14/128 175/13/127
f 176/14/128 177/13/129 178/14/130
f 181/13/133 180/14/132 179/13/131
f 180/14/132 181/13/133 182/14/134
f 177/13/129 180/14/132 178/14/130
f 180/14/132 177/13/129 179/13/131
f 175/13/127 184/14/136 183/13/135
f 184/14/136 175/13/127 176/14/128
f 186/14/138 181/13/133 185/13/137
f 181/13/133 186/14/138 182/14/134
f 184/14/136 187/13/139 183/13/135
f 187/13/139 184/14/136 188/14/140
f 188/14/140 189/13/141 187/13/139
f 189/13/141 188/14/140 190/14/142
f 186/14/138 189/13/141 190/14/142
f 189/13/141 186/14/138 185/13/137
f 188/14/140 186/14/138 190/14/142
f 186/14/138 188/14/140 184/14/136
f 186/14/138 184/14/136 182/14/134
f 182/14/134 184/14/136 176/14/128
f 182/14/134 176/14/128 180/14/132
f 180/14/132 176/14/128 178/14/130
f 193/13/129 192/14/128 191/13/127
f 192/14/128 193/13/129 194/14/130
f 197/13/133 196/14/132 195/13/131
f 196/14/132 197/13/133 198/14/134
f 193/13/129 196/14/132 194/14/130
f 196/14/132 193/13/129 195/13/131
f 191/13/127 200/14/136 199/13/135
f 200/14/136 191/13/127 192/14/128
f 202/14/138 197/13/133 201/13/137
f 197/13/133 202/14/138 198/14/134
f 200/14/136 203/13/139 199/13/135
f 203/13/139 200/14/136 204/14/140
f 204/14/140 205/13/141 203/13/139
f 205/13/141 204/14/140 206/14/142
f 202/14/138 205/13/141 206/14/142
f 205/13/141 202/14/138 201/13/137
f 204/14/140 202/14/138 206/14/142
f 202/14/138 204/14/140 200/14/136
f 202/14/138 200/14/136 198/14/134
f 198/14/134 200/14/136 192/14/128
f 198/14/134 192/14/128 196/14/132
f 196/14/132 192/14/128 194/14/130
f 209/16/42 208/15/41 207/15/42
f 208/15/41 209/16/42 210/16/41
f 213/15/45 212/16/44 211/15/44
f 212/16/44 213/15/45 214/16/45
f 215/16/39 208/15/41 210/16/41
f 208/15/41 215/16/39 216/15/39
f 218/15/1 216/15/1 217/15/1
f 216/15/1 218/15/1 208/15/1
f 208/15/1 218/15/1 213/15/1
f 208/15/1 213/15/1 207/15/1
f 207/15/1 213/15/1 211/15/1
f 207/15/1 211/15/1 219/15/1
f 220/16/40 216/15/39 215/16/39
f 216/15/39 220/16/40 217/15/40
f 210/16/5 220/16/5 215/16/5
f 220/16/5 210/16/5 221/16/5
f 221/16/5 210/16/5 209/16/5
f 221/16/5 209/16/5 214/16/5
f 214/16/5 209/16/5 222/16/5
f 214/16/5 222/16/5 212/16/5
f 211/15/44 222/16/43 219/15/43
f 222/16/43 211/15/44 212/16/44
f 221/16/46 213/15/45 218/15/46
f 213/15/45 221/16/46 214/16/45
f 221/16/46 217/15/40 220/16/40
f 217/15/40 221/16/46 218/15/46
f 219/15/43 209/16/42 207/15/42
f 209/16/42 219/15/43 222/16/43
f 225/17/40 224/18/39 223/17/39
f 224/18/39 225/17/40 226/18/40
f 229/17/46 228/18/45 227/18/46
f 228/18/45 229/17/46 230/17/45
f 233/17/42 232/18/41 231/18/42
f 232/18/41 233/17/42 234/17/41
f 237/18/44 236/17/43 235/18/43
f 236/17/43 237/18/44 238/17/44
f 235/18/43 233/17/42 231/18/42
f 233/17/42 235/18/43 236/17/43
f 225/17/40 227/18/46 226/18/40
f 227/18/46 225/17/40 229/17/46
f 228/18/45 238/17/44 237/18/44
f 238/17/44 228/18/45 230/17/45
f 223/17/39 232/18/41 234/17/41
f 232/18/41 223/17/39 224/18/39
f 234/17/5 225/17/5 223/17/5
f 225/17/5 234/17/5 229/17/5
f 229/17/5 234/17/5 233/17/5
f 229/17/5 233/17/5 230/17/5
f 230/17/5 233/17/5 236/17/5
f 230/17/5 236/17/5 238/17/5
f 221/19/1 215/19/1 220/19/1
f 215/19/1 221/19/1 210/19/1
f 210/19/1 221/19/1 214/19/1
f 210/19/1 214/19/1 209/19/1
f 209/19/1 214/19/1 212/19/1
f 209/19/1 212/19/1 222/19/1
f 226/18/145 215/19/144 224/18/143
f 215/19/144 226/18/145 220/19/146
f 232/18/148 215/19/144 210/19/147
f 215/19/144 232/18/148 224/18/143
f 231/18/150 210/19/147 209/19/149
f 210/19/147 231/18/150 232/18/148
f 209/19/149 235/18/151 231/18/150
f 235/18/151 209/19/149 222/19/152
f 227/18/155 214/19/154 221/19/153
f 214/19/154 227/18/155 228/18/156
f 226/18/145 221/19/153 220/19/146
f 221/19/153 226/18/145 227/18/155
f 214/19/154 237/18/158 212/19/157
f 237/18/158 214/19/154 228/18/156
f 222/19/152 237/18/158 235/18/151
f 237/18/158 222/19/152 212/19/157
f 241/17/160 240/18/159 239/17/159
f 240/18/159 241/17/160 242/18/160
f 245/17/161 244/18/162 243/18/161
f 244/18/162 245/17/161 246/17/162
f 249/17/163 248/18/164 247/18/163
f 248/18/164 249/17/163 250/17/164
f 253/18/166 252/17/165 251/18/165
f 252/17/165 253/18/166 254/17/166
f 251/18/165 249/17/163 247/18/163
f 249/17/163 251/18/165 252/17/165
f 241/17/160 243/18/161 242/18/160
f 243/18/161 241/17/160 245/17/161
f 244/18/162 254/17/166 253/18/166
f 254/17/166 244/18/162 246/17/162
f 239/17/159 248/18/164 250/17/164
f 248/18/164 239/17/159 240/18/159
f 250/17/167 241/17/167 239/17/167
f 241/17/167 250/17/167 245/17/167
f 245/17/167 250/17/167 249/17/167
f 245/17/167 249/17/167 246/17/167
f 246/17/167 249/17/167 252/17/167
f 246/17/167 252/17/167 254/17/167
f 208/19/168 217/19/168 216/19/168
f 217/19/168 208/19/168 218/19/168
f 218/19/168 208/19/168 207/19/168
f 218/19/168 207/19/168 213/19/168
f 213/19/168 207/19/168 219/19/168
f 213/19/168 219/19/168 211/19/168
f 242/18/47 217/19/50 240/18/48
f 217/19/50 242/18/47 216/19/49
f 248/18/61 217/19/50 218/19/62
f 217/19/50 248/18/61 240/18/48
f 247/18/60 218/19/62 213/19/59
f 218/19/62 247/18/60 248/18/61
f 213/19/59 251/18/57 247/18/60
f 251/18/57 213/19/59 211/19/58
f 243/18/51 207/19/54 208/19/52
f 207/19/54 243/18/51 244/18/53
f 242/18/47 208/19/52 216/19/49
f 208/19/52 242/18/47 243/18/51
f 207/19/54 253/18/55 219/19/56
f 253/18/55 207/19/54 244/18/53
f 211/19/58 253/18/55 251/18/57
f 253/18/55 211/19/58 219/19/56

g club-a




usemtl colormap

f 3/1/1 2/1/1 1/1/1
f 2/1/1 3/1/1 4/1/1
f 6/2/2 2/1/2 5/2/2
f 2/1/2 6/2/2 1/1/2
f 6/2/3 3/1/3 1/1/3
f 3/1/3 6/2/3 7/2/3
f 3/1/4 8/2/4 4/1/4
f 8/2/4 3/1/4 7/2/4
f 8/2/5 6/2/5 5/2/5
f 6/2/5 8/2/5 7/2/5
f 8/2/6 2/1/6 4/1/6
f 2/1/6 8/2/6 5/2/6
f 1/4/8 10/3/7 9/3/7
f 10/3/7 1/4/8 11/4/8
f 10/3/9 13/4/10 12/3/9
f 13/4/10 10/3/9 11/4/10
f 2/4/12 9/3/11 14/3/11
f 9/3/11 2/4/12 1/4/12
f 13/4/14 14/3/13 12/3/13
f 14/3/13 13/4/14 2/4/14
f 9/3/11 15/5/15 14/3/11
f 15/5/15 9/3/11 16/5/15
f 9/3/7 17/5/16 16/5/16
f 17/5/16 9/3/7 10/3/7
f 17/5/17 12/3/9 18/5/17
f 12/3/9 17/5/17 10/3/9
f 12/3/13 15/5/18 18/5/18
f 15/5/18 12/3/13 14/3/13
f 21/6/1 20/6/1 19/6/1
f 20/6/1 21/6/1 22/6/1
f 16/5/15 20/6/19 15/5/15
f 20/6/19 16/5/15 19/6/19
f 16/5/16 21/6/20 19/6/20
f 21/6/20 16/5/16 17/5/16
f 18/5/18 20/6/21 22/6/21
f 20/6/21 18/5/18 15/5/18
f 22/6/22 17/5/17 18/5/17
f 17/5/17 22/6/22 21/6/22
f 25/7/1 24/7/1 23/7/1
f 24/7/1 25/7/1 26/7/1
f 24/7/1 26/7/1 27/7/1
f 24/7/1 27/7/1 28/7/1
f 28/7/1 27/7/1 29/7/1
f 28/7/1 29/7/1 30/7/1
f 30/7/25 32/8/24 31/8/23
f 32/8/24 30/7/25 29/7/26
f 30/7/25 33/8/28 28/7/27
f 33/8/28 30/7/25 31/8/23
f 35/8/31 25/7/30 34/8/29
f 25/7/30 35/8/31 26/7/32
f 36/8/34 29/7/26 27/7/33
f 29/7/26 36/8/34 32/8/24
f 34/8/29 23/7/36 37/8/35
f 23/7/36 34/8/29 25/7/30
f 35/8/31 27/7/33 26/7/32
f 27/7/33 35/8/31 36/8/34
f 33/8/28 24/7/37 28/7/27
f 24/7/37 33/8/28 38/8/38
f 23/7/36 38/8/38 37/8/35
f 38/8/38 23/7/36 24/7/37
f 40/9/40 37/8/39 39/9/39
f 37/8/39 40/9/40 34/8/40
f 41/9/41 37/8/39 38/8/41
f 37/8/39 41/9/41 39/9/39
f 42/9/42 38/8/41 33/8/42
f 38/8/41 42/9/42 41/9/41
f 31/8/43 42/9/42 33/8/42
f 42/9/42 31/8/43 43/9/43
f 32/8/44 43/9/43 31/8/43
f 43/9/43 32/8/44 44/9/44
f 36/8/45 44/9/44 32/8/44
f 44/9/44 36/8/45 45/9/45
f 46/9/46 36/8/45 35/8/46
f 36/8/45 46/9/46 45/9/45
f 40/9/40 35/8/46 34/8/40
f 35/8/46 40/9/40 46/9/46
f 47/4/49 40/9/48 39/9/47
f 40/9/48 47/4/49 48/4/50
f 49/4/52 39/9/47 41/9/51
f 39/9/47 49/4/52 47/4/49
f 50/4/54 41/9/51 42/9/53
f 41/9/51 50/4/54 49/4/52
f 44/9/57 51/4/56 43/9/55
f 51/4/56 44/9/57 52/4/58
f 44/9/57 53/4/59 52/4/58
f 53/4/59 44/9/57 45/9/60
f 54/4/62 45/9/60 46/9/61
f 45/9/60 54/4/62 53/4/59
f 43/9/55 50/4/54 42/9/53
f 50/4/54 43/9/55 51/4/56
f 48/4/50 46/9/61 40/9/48
f 46/9/61 48/4/50 54/4/62
f 57/10/5 56/10/5 55/10/5
f 56/10/5 57/10/5 58/10/5
f 58/10/5 57/10/5 59/10/5
f 58/10/5 59/10/5 60/10/5
f 60/10/5 59/10/5 61/10/5
f 60/10/5 61/10/5 62/10/5
f 65/11/1 64/11/1 63/11/1
f 64/11/1 65/11/1 66/11/1
f 66/11/1 65/11/1 67/11/1
f 66/11/1 67/11/1 68/11/1
f 68/11/1 67/11/1 69/11/1
f 68/11/1 69/11/1 70/11/1
f 71/11/65 66/11/64 68/11/63
f 66/11/64 71/11/65 72/11/66
f 64/11/68 72/11/66 73/11/67
f 72/11/66 64/11/68 66/11/64
f 75/11/71 63/11/70 74/11/69
f 63/11/70 75/11/71 65/11/72
f 70/11/75 77/11/74 76/11/73
f 77/11/74 70/11/75 69/11/76
f 75/11/71 67/11/77 65/11/72
f 67/11/77 75/11/71 78/11/78
f 74/11/69 64/11/68 73/11/67
f 64/11/68 74/11/69 63/11/70
f 70/11/75 71/11/65 68/11/63
f 71/11/65 70/11/75 76/11/73
f 78/11/78 69/11/76 67/11/77
f 69/11/76 78/11/78 77/11/74
f 55/10/49 74/11/48 73/11/47
f 74/11/48 55/10/49 56/10/50
f 57/10/52 73/11/47 72/11/51
f 73/11/47 57/10/52 55/10/49
f 77/11/57 61/10/56 76/11/55
f 61/10/56 77/11/57 62/10/58
f 60/10/59 77/11/57 78/11/60
f 77/11/57 60/10/59 62/10/58
f 58/10/62 78/11/60 75/11/61
f 78/11/60 58/10/62 60/10/59
f 58/10/62 74/11/48 56/10/50
f 74/11/48 58/10/62 75/11/61
f 61/10/56 71/11/53 76/11/55
f 71/11/53 61/10/56 59/10/54
f 59/10/54 72/11/51 71/11/53
f 72/11/51 59/10/54 57/10/52
f 49/12/5 48/12/5 47/12/5
f 48/12/5 49/12/5 54/12/5
f 54/12/5 49/12/5 50/12/5
f 54/12/5 50/12/5 53/12/5
f 53/12/5 50/12/5 51/12/5
f 53/12/5 51/12/5 52/12/5
f 81/13/81 80/14/80 79/13/79
f 80/14/80 81/13/81 82/14/82
f 85/13/85 84/14/84 83/13/83
f 84/14/84 85/13/85 86/14/86
f 81/13/81 84/14/84 82/14/82
f 84/14/84 81/13/81 83/13/83
f 79/13/79 88/14/88 87/13/87
f 88/14/88 79/13/79 80/14/80
f 90/14/90 85/13/85 89/13/89
f 85/13/85 90/14/90 86/14/86
f 88/14/88 91/13/91 87/13/87
f 91/13/91 88/14/88 92/14/92
f 92/14/92 93/13/93 91/13/91
f 93/13/93 92/14/92 94/14/94
f 90/14/90 93/13/93 94/14/94
f 93/13/93 90/14/90 89/13/89
f 92/14/92 90/14/90 94/14/94
f 90/14/90 92/14/92 88/14/88
f 90/14/90 88/14/88 86/14/86
f 86/14/86 88/14/88 80/14/80
f 86/14/86 80/14/80 84/14/84
f 84/14/84 80/14/80 82/14/82
f 97/13/81 96/14/80 95/13/79
f 96/14/80 97/13/81 98/14/82
f 101/13/85 100/14/84 99/13/83
f 100/14/84 101/13/85 102/14/86
f 97/13/81 100/14/84 98/14/82
f 100/14/84 97/13/81 99/13/83
f 95/13/79 104/14/88 103/13/87
f 104/14/88 95/13/79 96/14/80
f 106/14/90 101/13/85 105/13/89
f 101/13/85 106/14/90 102/14/86
f 104/14/88 107/13/91 103/13/87
f 107/13/91 104/14/88 108/14/92
f 108/14/92 109/13/93 107/13/91
f 109/13/93 108/14/92 110/14/94
f 106/14/90 109/13/93 110/14/94
f 109/13/93 106/14/90 105/13/89
f 108/14/92 106/14/90 110/14/94
f 106/14/90 108/14/92 104/14/88
f 106/14/90 104/14/88 102/14/86
f 102/14/86 104/14/88 96/14/80
f 102/14/86 96/14/80 100/14/84
f 100/14/84 96/14/80 98/14/82
f 113/13/97 112/14/96 111/13/95
f 112/14/96 113/13/97 114/14/98
f 117/13/101 116/14/100 115/13/99
f 116/14/100 117/13/101 118/14/102
f 113/13/97 116/14/100 114/14/98
f 116/14/100 113/13/97 115/13/99
f 111/13/95 120/14/104 119/13/103
f 120/14/104 111/13/95 112/14/96
f 122/14/106 117/13/101 121/13/105
f 117/13/101 122/14/106 118/14/102
f 120/14/104 123/13/107 119/13/103
f 123/13/107 120/14/104 124/14/108
f 124/14/108 125/13/109 123/13/107
f 125/13/109 124/14/108 126/14/110
f 122/14/106 125/13/109 126/14/110
f 125/13/109 122/14/106 121/13/105
f 124/14/108 122/14/106 126/14/110
f 122/14/106 124/14/108 120/14/104
f 122/14/106 120/14/104 118/14/102
f 118/14/102 120/14/104 112/14/96
f 118/14/102 112/14/96 116/14/100
f 116/14/100 112/14/96 114/14/98
f 129/13/113 128/14/112 127/13/111
f 128/14/112 129/13/113 130/14/114
f 133/13/117 132/14/116 131/13/115
f 132/14/116 133/13/117 134/14/118
f 129/13/113 132/14/116 130/14/114
f 132/14/116 129/13/113 131/13/115
f 127/13/111 136/14/120 135/13/119
f 136/14/120 127/13/111 128/14/112
f 138/14/122 133/13/117 137/13/121
f 133/13/117 138/14/122 134/14/118
f 136/14/120 139/13/123 135/13/119
f 139/13/123 136/14/120 140/14/124
f 140/14/124 141/13/125 139/13/123
f 141/13/125 140/14/124 142/14/126
f 138/14/122 141/13/125 142/14/126
f 141/13/125 138/14/122 137/13/121
f 140/14/124 138/14/122 142/14/126
f 138/14/122 140/14/124 136/14/120
f 138/14/122 136/14/120 134/14/118
f 134/14/118 136/14/120 128/14/112
f 134/14/118 128/14/112 132/14/116
f 132/14/116 128/14/112 130/14/114
f 145/13/113 144/14/112 143/13/111
f 144/14/112 145/13/113 146/14/114
f 149/13/117 148/14/116 147/13/115
f 148/14/116 149/13/117 150/14/118
f 145/13/113 148/14/116 146/14/114
f 148/14/116 145/13/113 147/13/115
f 143/13/111 152/14/120 151/13/119
f 152/14/120 143/13/111 144/14/112
f 154/14/122 149/13/117 153/13/121
f 149/13/117 154/14/122 150/14/118
f 152/14/120 155/13/123 151/13/119
f 155/13/123 152/14/120 156/14/124
f 156/14/124 157/13/125 155/13/123
f 157/13/125 156/14/124 158/14/126
f 154/14/122 157/13/125 158/14/126
f 157/13/125 154/14/122 153/13/121
f 156/14/124 154/14/122 158/14/126
f 154/14/122 156/14/124 152/14/120
f 154/14/122 152/14/120 150/14/118
f 150/14/118 152/14/120 144/14/112
f 150/14/118 144/14/112 148/14/116
f 148/14/116 144/14/112 146/14/114
f 161/13/97 160/14/96 159/13/95
f 160/14/96 161/13/97 162/14/98
f 165/13/101 164/14/100 163/13/99
f 164/14/100 165/13/101 166/14/102
f 161/13/97 164/14/100 162/14/98
f 164/14/100 161/13/97 163/13/99
f 159/13/95 168/14/104 167/13/103
f 168/14/104 159/13/95 160/14/96
f 170/14/106 165/13/101 169/13/105
f 165/13/101 170/14/106 166/14/102
f 168/14/104 171/13/107 167/13/103
f 171/13/107 168/14/104 172/14/108
f 172/14/108 173/13/109 171/13/107
f 173/13/109 172/14/108 174/14/110
f 170/14/106 173/13/109 174/14/110
f 173/13/109 170/14/106 169/13/105
f 172/14/108 170/14/106 174/14/110
f 170/14/106 172/14/108 168/14/104
f 170/14/106 168/14/104 166/14/102
f 166/14/102 168/14/104 160/14/96
f 166/14/102 160/14/96 164/14/100
f 164/14/100 160/14/96 162/14/98
f 177/13/129 176/14/128 175/13/127
f 176/14/128 177/13/129 178/14/130
f 181/13/133 180/14/132 179/13/131
f 180/14/132 181/13/133 182/14/134
f 177/13/129 180/14/132 178/14/130
f 180/14/132 177/13/129 179/13/131
f 175/13/127 184/14/136 183/13/135
f 184/14/136 175/13/127 176/14/128
f 186/14/138 181/13/133 185/13/137
f 181/13/133 186/14/138 182/14/134
f 184/14/136 187/13/139 183/13/135
f 187/13/139 184/14/136 188/14/140
f 188/14/140 189/13/141 187/13/139
f 189/13/141 188/14/140 190/14/142
f 186/14/138 189/13/141 190/14/142
f 189/13/141 186/14/138 185/13/137
f 188/14/140 186/14/138 190/14/142
f 186/14/138 188/14/140 184/14/136
f 186/14/138 184/14/136 182/14/134
f 182/14/134 184/14/136 176/14/128
f 182/14/134 176/14/128 180/14/132
f 180/14/132 176/14/128 178/14/130
f 193/13/129 192/14/128 191/13/127
f 192/14/128 193/13/129 194/14/130
f 197/13/133 196/14/132 195/13/131
f 196/14/132 197/13/133 198/14/134
f 193/13/129 196/14/132 194/14/130
f 196/14/132 193/13/129 195/13/131
f 191/13/127 200/14/136 199/13/135
f 200/14/136 191/13/127 192/14/128
f 202/14/138 197/13/133 201/13/137
f 197/13/133 202/14/138 198/14/134
f 200/14/136 203/13/139 199/13/135
f 203/13/139 200/14/136 204/14/140
f 204/14/140 205/13/141 203/13/139
f 205/13/141 204/14/140 206/14/142
f 202/14/138 205/13/141 206/14/142
f 205/13/141 202/14/138 201/13/137
f 204/14/140 202/14/138 206/14/142
f 202/14/138 204/14/140 200/14/136
f 202/14/138 200/14/136 198/14/134
f 198/14/134 200/14/136 192/14/128
f 198/14/134 192/14/128 196/14/132
f 196/14/132 192/14/128 194/14/130
f 209/16/42 208/15/41 207/15/42
f 208/15/41 209/16/42 210/16/41
f 213/15/45 212/16/44 211/15/44
f 212/16/44 213/15/45 214/16/45
f 215/16/39 208/15/41 210/16/41
f 208/15/41 215/16/39 216/15/39
f 218/15/1 216/15/1 217/15/1
f 216/15/1 218/15/1 208/15/1
f 208/15/1 218/15/1 213/15/1
f 208/15/1 213/15/1 207/15/1
f 207/15/1 213/15/1 211/15/1
f 207/15/1 211/15/1 219/15/1
f 220/16/40 216/15/39 215/16/39
f 216/15/39 220/16/40 217/15/40
f 210/16/5 220/16/5 215/16/5
f 220/16/5 210/16/5 221/16/5
f 221/16/5 210/16/5 209/16/5
f 221/16/5 209/16/5 214/16/5
f 214/16/5 209/16/5 222/16/5
f 214/16/5 222/16/5 212/16/5
f 211/15/44 222/16/43 219/15/43
f 222/16/43 211/15/44 212/16/44
f 221/16/46 213/15/45 218/15/46
f 213/15/45 221/16/46 214/16/45
f 221/16/46 217/15/40 220/16/40
f 217/15/40 221/16/46 218/15/46
f 219/15/43 209/16/42 207/15/42
f 209/16/42 219/15/43 222/16/43
f 225/17/40 224/18/39 223/17/39
f 224/18/39 225/17/40 226/18/40
f 229/17/46 228/18/45 227/18/46
f 228/18/45 229/17/46 230/17/45
f 233/17/42 232/18/41 231/18/42
f 232/18/41 233/17/42 234/17/41
f 237/18/44 236/17/43 235/18/43
f 236/17/43 237/18/44 238/17/44
f 235/18/43 233/17/42 231/18/42
f 233/17/42 235/18/43 236/17/43
f 225/17/40 227/18/46 226/18/40
f 227/18/46 225/17/40 229/17/46
f 228/18/45 238/17/44 237/18/44
f 238/17/44 228/18/45 230/17/45
f 223/17/39 232/18/41 234/17/41
f 232/18/41 223/17/39 224/18/39
f 234/17/5 225/17/5 223/17/5
f 225/17/5 234/17/5 229/17/5
f 229/17/5 234/17/5 233/17/5
f 229/17/5 233/17/5 230/17/5
f 230/17/5 233/17/5 236/17/5
f 230/17/5 236/17/5 238/17/5
f 221/19/1 215/19/1 220/19/1
f 215/19/1 221/19/1 210/19/1
f 210/19/1 221/19/1 214/19/1
f 210/19/1 214/19/1 209/19/1
f 209/19/1 214/19/1 212/19/1
f 209/19/1 212/19/1 222/19/1
f 226/18/145 215/19/144 224/18/143
f 215/19/144 226/18/145 220/19/146
f 232/18/148 215/19/144 210/19/147
f 215/19/144 232/18/148 224/18/143
f 231/18/150 210/19/147 209/19/149
f 210/19/147 231/18/150 232/18/148
f 209/19/149 235/18/151 231/18/150
f 235/18/151 209/19/149 222/19/152
f 227/18/155 214/19/154 221/19/153
f 214/19/154 227/18/155 228/18/156
f 226/18/145 221/19/153 220/19/146
f 221/19/153 226/18/145 227/18/155
f 214/19/154 237/18/158 212/19/157
f 237/18/158 214/19/154 228/18/156
f 222/19/152 237/18/158 235/18/151
f 237/18/158 222/19/152 212/19/157
f 241/17/160 240/18/159 239/17/159
f 240/18/159 241/17/160 242/18/160
f 245/17/161 244/18/162 243/18/161
f 244/18/162 245/17/161 246/17/162
f 249/17/163 248/18/164 247/18/163
f 248/18/164 249/17/163 250/17/164
f 253/18/166 252/17/165 251/18/165
f 252/17/165 253/18/166 254/17/166
f 251/18/165 249/17/163 247/18/163
f 249/17/163 251/18/165 252/17/165
f 241/17/160 243/18/161 242/18/160
f 243/18/161 241/17/160 245/17/161
f 244/18/162 254/17/166 253/18/166
f 254/17/166 244/18/162 246/17/162
f 239/17/159 248/18/164 250/17/164
f 248/18/164 239/17/159 240/18/159
f 250/17/167 241/17/167 239/17/167
f 241/17/167 250/17/167 245/17/167
f 245/17/167 250/17/167 249/17/167
f 245/17/167 249/17/167 246/17/167
f 246/17/167 249/17/167 252/17/167
f 246/17/167 252/17/167 254/17/167
f 208/19/168 217/19/168 216/19/168
f 217/19/168 208/19/168 218/19/168
f 218/19/168 208/19/168 207/19/168
f 218/19/168 207/19/168 213/19/168
f 213/19/168 207/19/168 219/19/168
f 213/19/168 219/19/168 211/19/168
f 242/18/47 217/19/50 240/18/48
f 217/19/50 242/18/47 216/19/49
f 248/18/61 217/19/50 218/19/62
f 217/19/50 248/18/61 240/18/48
f 247/18/60 218/19/62 213/19/59
f 218/19/62 247/18/60 248/18/61
f 213/19/59 251/18/57 247/18/60
f 251/18/57 213/19/59 211/19/58
f 243/18/51 207/19/54 208/19/52
f 207/19/54 243/18/51 244/18/53
f 242/18/47 208/19/52 216/19/49
f 208/19/52 242/18/47 243/18/51
f 207/19/54 253/18/55 219/19/56
f 253/18/55 207/19/54 244/18/53
f 211/19/58 253/18/55 251/18/57
f 253/18/55 211/19/58 219/19/56

