# Created by Kenney (www.kenney.nl)

mtllib hammer-a.mtl

g hammer-a

v 0.1875 0.2 0.1875 1 1 1
v -0.1875 0.2 0.1875 1 1 1
v 0.125 0.3 0.125 1 1 1
v -0.125 0.3 0.125 1 1 1
v -0.1875 0.2 -0.1875 1 1 1
v -0.125 0.3 -0.125 1 1 1
v 0.1875 0.2 -0.1875 1 1 1
v 0.125 0.3 -0.125 1 1 1
v 0.1875 0.1 -0.1875 1 1 1
v 0.1875 0.1 0.1875 1 1 1
v -0.1875 0.1 0.1875 1 1 1
v -0.1875 0.1 -0.1875 1 1 1
v 0.125 0 0.125 1 1 1
v 0.125 0 -0.125 1 1 1
v -0.125 0 0.125 1 1 1
v -0.125 0 -0.125 1 1 1
v 0.125 2.7 -0.125 1 1 1
v 0.125 2.7 -0.225 1 1 1
v -1.804779E-15 2.4 -0.125 1 1 1
v -0.125 2.7 -0.225 1 1 1
v -0.125 2.7 -0.125 1 1 1
v 0.125 3.2 0.45 1 1 1
v 0.125 3.741421 0.45 1 1 1
v 0.125 3.2 -0.45 1 1 1
v 0.125 3.9 0.2914214 1 1 1
v 0.125 3.9 -0.2914214 1 1 1
v 0.125 3.741421 -0.45 1 1 1
v 0.075 3.15 0.45 1 1 1
v -0.075 3.15 0.45 1 1 1
v -0.125 3.2 0.45 1 1 1
v -0.125 3.741421 0.45 1 1 1
v -0.125 3.9 0.2914214 1 1 1
v -0.125 3.9 -0.2914214 1 1 1
v -0.125 3.741421 -0.45 1 1 1
v -0.075 3.15 -0.45 1 1 1
v 0.075 3.15 -0.45 1 1 1
v -0.125 3.2 -0.45 1 1 1
v 0.225 2.9 -0.125 1 1 1
v 0.225 2.7 -0.125 1 1 1
v 0.225 2.9 0.125 1 1 1
v 0.225 2.7 0.125 1 1 1
v 0.125 2.7 0.225 1 1 1
v -0.125 2.7 0.225 1 1 1
v 0.125 2.9 0.225 1 1 1
v -0.125 2.9 0.225 1 1 1
v -0.125 2.7 -0.225 1 1 1
v 0.125 2.7 -0.225 1 1 1
v -0.125 2.9 -0.225 1 1 1
v 0.125 2.9 -0.225 1 1 1
v -0.225 2.7 -0.125 1 1 1
v -0.225 2.9 -0.125 1 1 1
v -0.225 2.7 0.125 1 1 1
v -0.225 2.9 0.125 1 1 1
v 0.35 3.8 -0.25 1 1 1
v 0.35 3.8 0.25 1 1 1
v -0.35 3.8 -0.25 1 1 1
v -0.35 3.8 0.25 1 1 1
v 0.35 2.9 0.25 1 1 1
v 0.35 2.9 -0.25 1 1 1
v -0.35 2.9 0.25 1 1 1
v -0.35 2.9 -0.25 1 1 1
v 0.35 3 0.35 1 1 1
v -0.35 3 0.35 1 1 1
v 0.35 3.7 0.35 1 1 1
v -0.35 3.7 0.35 1 1 1
v -0.35 3 -0.35 1 1 1
v 0.35 3 -0.35 1 1 1
v -0.35 3.7 -0.35 1 1 1
v 0.35 3.7 -0.35 1 1 1
v -0.35 3.741421 -0.45 1 1 1
v -0.35 2.958579 -0.45 1 1 1
v -0.35 3.9 -0.2914214 1 1 1
v -0.35 2.8 -0.2914214 1 1 1
v -0.35 3.9 0.2914214 1 1 1
v -0.35 2.8 0.2914214 1 1 1
v -0.35 2.958579 0.45 1 1 1
v -0.35 3.741421 0.45 1 1 1
v -0.75 2.958579 0.45 1 1 1
v -0.75 2.8 0.2914214 1 1 1
v -0.75 3.741421 0.45 1 1 1
v -0.75 3.9 0.2914214 1 1 1
v -0.75 3.9 -0.2914214 1 1 1
v -0.75 3.741421 -0.45 1 1 1
v -0.75 2.958579 -0.45 1 1 1
v -0.75 2.8 -0.2914214 1 1 1
v -0.85 3 -0.35 1 1 1
v -0.85 3.7 -0.35 1 1 1
v -0.85 2.9 -0.25 1 1 1
v -0.85 3.8 -0.25 1 1 1
v -0.85 3.8 0.25 1 1 1
v -0.85 2.9 0.25 1 1 1
v -0.85 3 0.35 1 1 1
v -0.85 3.7 0.35 1 1 1
v 0.35 3.741421 0.45 1 1 1
v 0.35 2.958579 0.45 1 1 1
v 0.35 3.9 0.2914214 1 1 1
v 0.35 2.8 0.2914214 1 1 1
v 0.35 3.9 -0.2914214 1 1 1
v 0.35 2.8 -0.2914214 1 1 1
v 0.35 2.958579 -0.45 1 1 1
v 0.35 3.741421 -0.45 1 1 1
v 0.75 2.958579 -0.45 1 1 1
v 0.75 2.8 -0.2914214 1 1 1
v 0.75 3.741421 -0.45 1 1 1
v 0.75 3.9 -0.2914214 1 1 1
v 0.75 3.9 0.2914214 1 1 1
v 0.75 3.741421 0.45 1 1 1
v 0.75 2.958579 0.45 1 1 1
v 0.75 2.8 0.2914214 1 1 1
v 0.85 3 0.35 1 1 1
v 0.85 3.7 0.35 1 1 1
v 0.85 2.9 0.25 1 1 1
v 0.85 3.8 0.25 1 1 1
v 0.85 3.8 -0.25 1 1 1
v 0.85 2.9 -0.25 1 1 1
v 0.85 3 -0.35 1 1 1
v 0.85 3.7 -0.35 1 1 1
v -9.023893E-16 3.33 -0.45 1 1 1
v -0.04596194 3.310962 -0.45 1 1 1
v -9.023893E-16 3.31375 -0.5 1 1 1
v -0.03447146 3.299471 -0.5 1 1 1
v 0.065 3.265 -0.45 1 1 1
v 0.04596194 3.310962 -0.45 1 1 1
v 0.04875 3.265 -0.5 1 1 1
v 0.03447146 3.299471 -0.5 1 1 1
v 0.04596194 3.219038 -0.45 1 1 1
v 0.03447146 3.230528 -0.5 1 1 1
v -9.023893E-16 3.2 -0.45 1 1 1
v -9.023893E-16 3.21625 -0.5 1 1 1
v -0.04596194 3.219038 -0.45 1 1 1
v -0.03447146 3.230528 -0.5 1 1 1
v -0.065 3.265 -0.45 1 1 1
v -0.04875 3.265 -0.5 1 1 1
v -4.15099E-15 3.33 0.45 1 1 1
v 0.04596195 3.310962 0.45 1 1 1
v -5.205702E-15 3.31375 0.5 1 1 1
v 0.03447146 3.299471 0.5 1 1 1
v -0.06500001 3.265 0.45 1 1 1
v -0.04596195 3.310962 0.45 1 1 1
v -0.04875001 3.265 0.5 1 1 1
v -0.03447146 3.299471 0.5 1 1 1
v -0.04596195 3.219038 0.45 1 1 1
v -0.03447146 3.230528 0.5 1 1 1
v -4.15099E-15 3.2 0.45 1 1 1
v -5.205702E-15 3.21625 0.5 1 1 1
v 0.04596195 3.219038 0.45 1 1 1
v 0.03447146 3.230528 0.5 1 1 1
v 0.06500001 3.265 0.45 1 1 1
v 0.04875001 3.265 0.5 1 1 1
v 0.125 2.7 0.125 1 1 1
v -0.125 2.7 0.125 1 1 1
v -0.09375 0.9 -0.16875 1 1 1
v 0.09375 0.9 -0.16875 1 1 1
v -0.09375 1.8 -0.16875 1 1 1
v 0.09375 1.8 -0.16875 1 1 1
v -0.16875 0.9 0.09375 1 1 1
v -0.16875 1.8 0.09375 1 1 1
v -0.09375 0.9 0.16875 1 1 1
v -0.09375 1.8 0.16875 1 1 1
v 0.16875 1.8 -0.09375 1 1 1
v 0.16875 0.9 -0.09375 1 1 1
v 0.16875 0.9 0.09375 1 1 1
v 0.09375 0.9 0.16875 1 1 1
v -0.16875 0.9 -0.09375 1 1 1
v 0.16875 1.8 0.09375 1 1 1
v 0.09375 1.8 0.16875 1 1 1
v -0.16875 1.8 -0.09375 1 1 1
v 0.225 0.9 -0.125 1 1 1
v 0.225 0.7 -0.125 1 1 1
v 0.225 0.9 0.125 1 1 1
v 0.225 0.7 0.125 1 1 1
v 0.125 0.7 0.225 1 1 1
v -0.125 0.7 0.225 1 1 1
v 0.125 0.9 0.225 1 1 1
v -0.125 0.9 0.225 1 1 1
v -0.125 0.7 -0.225 1 1 1
v 0.125 0.7 -0.225 1 1 1
v -0.125 0.9 -0.225 1 1 1
v 0.125 0.9 -0.225 1 1 1
v -0.225 0.7 -0.125 1 1 1
v -0.225 0.9 -0.125 1 1 1
v -0.225 0.7 0.125 1 1 1
v -0.225 0.9 0.125 1 1 1
v 0.225 2 -0.125 1 1 1
v 0.225 1.8 -0.125 1 1 1
v 0.225 2 0.125 1 1 1
v 0.225 1.8 0.125 1 1 1
v 0.125 1.8 0.225 1 1 1
v -0.125 1.8 0.225 1 1 1
v 0.125 2 0.225 1 1 1
v -0.125 2 0.225 1 1 1
v -0.125 1.8 -0.225 1 1 1
v 0.125 1.8 -0.225 1 1 1
v -0.125 2 -0.225 1 1 1
v 0.125 2 -0.225 1 1 1
v -0.225 1.8 -0.125 1 1 1
v -0.225 2 -0.125 1 1 1
v -0.225 1.8 0.125 1 1 1
v -0.225 2 0.125 1 1 1

vn 0 0.2247516 0.9744161
vn 0 0.529999 0.8479983
vn -0.9744161 0.2247516 0
vn -0.8479983 0.529999 0
vn 0.9744161 0.2247516 0
vn 0.8479983 0.529999 0
vn 0 0.2247516 -0.9744161
vn 0 0.529999 -0.8479983
vn 0.9744161 -0.2247516 0
vn 0 -0.2247516 0.9744161
vn -0.9744161 -0.2247516 0
vn 0 -0.2247516 -0.9744161
vn 0 -1 0
vn 0.8479983 -0.529999 0
vn 0 -0.529999 0.8479983
vn 0 -0.529999 -0.8479983
vn -0.8479983 -0.529999 0
vn 0.9230769 -0.3846154 0
vn 0.6355339 -0.4691902 -0.6131535
vn 0 -0.5478179 -0.8365976
vn -0.6355339 -0.4691902 -0.6131535
vn -0.9230769 -0.3846154 0
vn 0.9238795 -0.3826834 1.948853E-14
vn 1 0 2.109424E-14
vn -2.109424E-14 0 1
vn -1.948853E-14 0.3826834 0.9238795
vn -8.072415E-15 0.9238795 0.3826834
vn 8.072415E-15 0.9238795 -0.3826834
vn 1.948853E-14 0.3826834 -0.9238795
vn 2.109424E-14 0 -1
vn -0.3826834 -0.9238795 -8.072415E-15
vn 0.3826834 -0.9238795 8.072415E-15
vn -1 0 -2.109424E-14
vn -0.9238795 -0.3826834 -1.948853E-14
vn 0.9238795 0 -0.3826834
vn 0.9238795 0 0.3826834
vn 0.3826834 0 0.9238795
vn -0.3826834 0 0.9238795
vn -0.3826834 0 -0.9238795
vn 0.3826834 0 -0.9238795
vn -0.9238795 0 -0.3826834
vn -0.9238795 0 0.3826834
vn 0 1 0
vn 0 0.9238796 -0.3826835
vn 0 0.9238796 0.3826835
vn 0 -0.9238796 0.3826835
vn 0 -0.9238796 -0.3826835
vn 0 -0.3826835 0.9238796
vn 0 0.3826835 0.9238796
vn 0 -0.3826835 -0.9238796
vn 0 0.3826835 -0.9238796
vn 1 0 0
vn -1 0 0
vn 0 -0.3826834 0.9238795
vn 0 -0.9238795 0.3826834
vn 0 0.3826834 0.9238795
vn 0 0.9238795 0.3826834
vn 0 0.9238795 -0.3826834
vn 0 0.3826834 -0.9238795
vn 0 -0.3826834 -0.9238795
vn 0 -0.9238795 -0.3826834
vn -0.7345095 -0.6269431 -0.2596884
vn -0.7345095 -0.6269431 0.2596884
vn -0.7345095 -0.2596883 -0.6269431
vn -0.7345095 0.6269431 -0.2596884
vn -0.7345095 0.6269431 0.2596884
vn -0.7345095 -0.2596883 0.6269431
vn -0.7345095 0.2596883 0.6269431
vn -0.7345095 0.2596883 -0.6269431
vn -1 0 -4.660161E-14
vn 4.305427E-14 -0.3826834 -0.9238795
vn 1.783366E-14 -0.9238795 -0.3826834
vn 4.305427E-14 0.3826834 -0.9238795
vn 1.783366E-14 0.9238795 -0.3826834
vn -1.783366E-14 0.9238795 0.3826834
vn -4.305427E-14 0.3826834 0.9238795
vn -4.305427E-14 -0.3826834 0.9238795
vn -1.783366E-14 -0.9238795 0.3826834
vn 1 0 4.660161E-14
vn 0.7345095 -0.6269431 0.2596884
vn 0.7345095 -0.6269431 -0.2596884
vn 0.7345095 -0.2596883 0.6269431
vn 0.7345095 0.6269431 0.2596884
vn 0.7345095 0.6269431 -0.2596884
vn 0.7345095 -0.2596883 -0.6269431
vn 0.7345095 0.2596883 -0.6269431
vn 0.7345095 0.2596883 0.6269431
vn 0 0.9510341 -0.3090862
vn -0.6724826 0.6724826 -0.3090862
vn 0 0.6682989 -0.743893
vn -0.4725587 0.4725587 -0.743893
vn 0.951034 -3.684593E-08 -0.3090861
vn 0.6724826 0.6724826 -0.3090862
vn 0.6682989 -8.867894E-08 -0.7438929
vn 0.4725587 0.4725587 -0.743893
vn 0.6724826 -0.6724827 -0.309086
vn 0.4725587 -0.4725589 -0.7438928
vn 0 -0.9510342 -0.309086
vn 0 -0.668299 -0.7438928
vn -0.6724826 -0.6724827 -0.309086
vn -0.4725587 -0.4725589 -0.7438928
vn -0.951034 -3.684593E-08 -0.3090861
vn -0.6682989 -8.867894E-08 -0.7438929
vn -6.519936E-15 0.9510341 0.309086
vn 0.6724828 0.6724826 0.309086
vn -1.569185E-14 0.6682989 0.7438928
vn 0.4725588 0.4725587 0.7438928
vn -0.9510342 -3.684593E-08 0.3090861
vn -0.6724828 0.6724826 0.309086
vn -0.6682991 -8.867894E-08 0.7438929
vn -0.4725588 0.4725587 0.7438928
vn -0.6724828 -0.6724827 0.3090862
vn -0.4725588 -0.4725589 0.743893
vn -6.519936E-15 -0.9510342 0.3090862
vn -1.569185E-14 -0.668299 0.743893
vn 0.6724828 -0.6724827 0.3090862
vn 0.4725588 -0.4725589 0.743893
vn 0.9510342 -3.684593E-08 0.3090861
vn 0.6682991 -8.867894E-08 0.7438929
vn 0 0 1
vn 0 0 -1

vt 0.46875 0.1583333
vt 0.46875 0.225
vt 0.46875 0.09166666
vt 0.46875 0.025
vt 0.46875 0.167335
vt 0.46875 0.175
vt 0.46875 0.075
vt 0.71875 0.225
vt 0.71875 0.025
vt 0.71875 0.04722222
vt 0.71875 0.2027778
vt 0.71875 0.1961675
vt 0.71875 0.05383248
vt 0.71875 0.06136364
vt 0.71875 0.1886363
vt 0.71875 0.04318182
vt 0.71875 0.2068182
vt 0.21875 0.475
vt 0.21875 0.275
vt 0.09375 0.475
vt 0.09375 0.275
vt 0.09375 0.425
vt 0.09375 0.325

usemtl colormap

f 3/2/2 2/1/1 1/1/1
f 2/1/1 3/2/2 4/2/2
f 2/1/3 6/2/4 5/1/3
f 6/2/4 2/1/3 4/2/4
f 8/2/6 1/1/5 7/1/5
f 1/1/5 8/2/6 3/2/6
f 6/2/8 7/1/7 5/1/7
f 7/1/7 6/2/8 8/2/8
f 1/1/5 9/3/9 7/1/5
f 9/3/9 1/1/5 10/3/9
f 1/1/1 11/3/10 10/3/10
f 11/3/10 1/1/1 2/1/1
f 11/3/11 5/1/3 12/3/11
f 5/1/3 11/3/11 2/1/3
f 5/1/7 9/3/12 12/3/12
f 9/3/12 5/1/7 7/1/7
f 15/4/13 14/4/13 13/4/13
f 14/4/13 15/4/13 16/4/13
f 10/3/9 14/4/14 9/3/9
f 14/4/14 10/3/9 13/4/14
f 10/3/10 15/4/15 13/4/15
f 15/4/15 10/3/10 11/3/10
f 12/3/12 14/4/16 16/4/16
f 14/4/16 12/3/12 9/3/12
f 16/4/17 11/3/11 12/3/11
f 11/3/11 16/4/17 15/4/17
f 19/4/20 18/2/19 17/2/18
f 21/2/22 20/2/21 19/4/20
f 18/2/19 19/4/20 20/2/21
f 24/4/23 23/5/24 22/4/23
f 23/5/24 24/4/23 25/2/24
f 25/2/24 24/4/23 26/2/24
f 26/2/24 24/4/23 27/5/24
f 22/4/25 29/4/25 28/4/25
f 29/4/25 22/4/25 30/4/25
f 30/4/25 22/4/25 23/5/26
f 30/4/25 23/5/26 31/5/26
f 25/2/27 31/5/26 23/5/26
f 31/5/26 25/2/27 32/2/27
f 25/2/27 33/2/28 32/2/27
f 33/2/28 25/2/27 26/2/28
f 33/2/28 27/5/29 34/5/29
f 27/5/29 33/2/28 26/2/28
f 37/4/30 36/4/30 35/4/30
f 36/4/30 37/4/30 24/4/30
f 24/4/30 37/4/30 34/5/29
f 24/4/30 34/5/29 27/5/29
f 36/4/32 29/4/31 35/4/31
f 29/4/31 36/4/32 28/4/32
f 32/2/33 30/4/34 31/5/33
f 30/4/34 32/2/33 37/4/34
f 37/4/34 32/2/33 33/2/33
f 37/4/34 33/2/33 34/5/33
f 36/4/32 22/4/23 28/4/32
f 22/4/23 36/4/32 24/4/23
f 37/4/34 29/4/31 30/4/34
f 29/4/31 37/4/34 35/4/31
f 40/6/36 39/7/35 38/6/35
f 39/7/35 40/6/36 41/7/36
f 44/6/37 43/7/38 42/7/37
f 43/7/38 44/6/37 45/6/38
f 48/6/39 47/7/40 46/7/39
f 47/7/40 48/6/39 49/6/40
f 52/7/42 51/6/41 50/7/41
f 51/6/41 52/7/42 53/6/42
f 50/7/41 48/6/39 46/7/39
f 48/6/39 50/7/41 51/6/41
f 40/6/36 42/7/37 41/7/36
f 42/7/37 40/6/36 44/6/37
f 43/7/38 53/6/42 52/7/42
f 53/6/42 43/7/38 45/6/38
f 38/6/35 47/7/40 49/6/40
f 47/7/40 38/6/35 39/7/35
f 42/7/13 39/7/13 41/7/13
f 39/7/13 42/7/13 47/7/13
f 47/7/13 42/7/13 43/7/13
f 47/7/13 43/7/13 46/7/13
f 46/7/13 43/7/13 52/7/13
f 46/7/13 52/7/13 50/7/13
f 49/6/43 40/6/43 38/6/43
f 40/6/43 49/6/43 44/6/43
f 44/6/43 49/6/43 48/6/43
f 44/6/43 48/6/43 45/6/43
f 45/6/43 48/6/43 51/6/43
f 45/6/43 51/6/43 53/6/43
f 56/8/44 55/8/45 54/8/44
f 55/8/45 56/8/44 57/8/45
f 60/9/46 59/9/47 58/9/46
f 59/9/47 60/9/46 61/9/47
f 64/11/49 63/10/48 62/10/48
f 63/10/48 64/11/49 65/11/49
f 68/11/51 67/10/50 66/10/50
f 67/10/50 68/11/51 69/11/51
f 56/8/44 69/11/51 68/11/51
f 69/11/51 56/8/44 54/8/44
f 61/9/47 67/10/50 59/9/47
f 67/10/50 61/9/47 66/10/50
f 63/10/48 58/9/46 62/10/48
f 58/9/46 63/10/48 60/9/46
f 55/8/45 65/11/49 64/11/49
f 65/11/49 55/8/45 57/8/45
f 54/8/52 67/10/52 69/11/52
f 67/10/52 54/8/52 59/9/52
f 59/9/52 54/8/52 55/8/52
f 59/9/52 55/8/52 58/9/52
f 58/9/52 55/8/52 64/11/52
f 58/9/52 64/11/52 62/10/52
f 61/9/53 68/11/53 66/10/53
f 68/11/53 61/9/53 56/8/53
f 56/8/53 61/9/53 60/9/53
f 56/8/53 60/9/53 57/8/53
f 57/8/53 60/9/53 63/10/53
f 57/8/53 63/10/53 65/11/53
f 72/8/52 71/13/52 70/12/52
f 71/13/52 72/8/52 73/9/52
f 73/9/52 72/8/52 74/8/52
f 73/9/52 74/8/52 75/9/52
f 75/9/52 74/8/52 76/13/52
f 76/13/52 74/8/52 77/12/52
f 78/13/54 75/9/55 76/13/54
f 75/9/55 78/13/54 79/9/55
f 77/12/56 78/13/54 76/13/54
f 78/13/54 77/12/56 80/12/56
f 74/8/57 80/12/56 77/12/56
f 80/12/56 74/8/57 81/8/57
f 82/8/58 74/8/57 72/8/58
f 74/8/57 82/8/58 81/8/57
f 82/8/58 70/12/59 83/12/59
f 70/12/59 82/8/58 72/8/58
f 84/13/60 70/12/59 71/13/60
f 70/12/59 84/13/60 83/12/59
f 85/9/61 71/13/60 73/9/61
f 71/13/60 85/9/61 84/13/60
f 88/16/53 87/15/53 86/14/53
f 87/15/53 88/16/53 89/17/53
f 89/17/53 88/16/53 90/17/53
f 90/17/53 88/16/53 91/16/53
f 90/17/53 91/16/53 92/14/53
f 90/17/53 92/14/53 93/15/53
f 79/9/55 73/9/61 75/9/55
f 73/9/61 79/9/55 85/9/61
f 79/9/63 88/16/62 85/9/62
f 88/16/62 79/9/63 91/16/63
f 85/9/62 86/14/64 84/13/64
f 86/14/64 85/9/62 88/16/62
f 89/17/65 81/8/66 82/8/65
f 81/8/66 89/17/65 90/17/66
f 79/9/63 92/14/67 91/16/63
f 92/14/67 79/9/63 78/13/67
f 93/15/68 81/8/66 90/17/66
f 81/8/66 93/15/68 80/12/68
f 78/13/67 93/15/68 92/14/67
f 93/15/68 78/13/67 80/12/68
f 87/15/69 82/8/65 83/12/69
f 82/8/65 87/15/69 89/17/65
f 86/14/64 83/12/69 84/13/64
f 83/12/69 86/14/64 87/15/69
f 96/8/70 95/13/70 94/12/70
f 95/13/70 96/8/70 97/9/70
f 97/9/70 96/8/70 98/8/70
f 97/9/70 98/8/70 99/9/70
f 99/9/70 98/8/70 100/13/70
f 100/13/70 98/8/70 101/12/70
f 102/13/71 99/9/72 100/13/71
f 99/9/72 102/13/71 103/9/72
f 101/12/73 102/13/71 100/13/71
f 102/13/71 101/12/73 104/12/73
f 98/8/74 104/12/73 101/12/73
f 104/12/73 98/8/74 105/8/74
f 106/8/75 98/8/74 96/8/75
f 98/8/74 106/8/75 105/8/74
f 106/8/75 94/12/76 107/12/76
f 94/12/76 106/8/75 96/8/75
f 108/13/77 94/12/76 95/13/77
f 94/12/76 108/13/77 107/12/76
f 109/9/78 95/13/77 97/9/78
f 95/13/77 109/9/78 108/13/77
f 112/16/79 111/15/79 110/14/79
f 111/15/79 112/16/79 113/17/79
f 113/17/79 112/16/79 114/17/79
f 114/17/79 112/16/79 115/16/79
f 114/17/79 115/16/79 116/14/79
f 114/17/79 116/14/79 117/15/79
f 103/9/72 97/9/78 99/9/72
f 97/9/78 103/9/72 109/9/78
f 103/9/81 112/16/80 109/9/80
f 112/16/80 103/9/81 115/16/81
f 109/9/80 110/14/82 108/13/82
f 110/14/82 109/9/80 112/16/80
f 113/17/83 105/8/84 106/8/83
f 105/8/84 113/17/83 114/17/84
f 103/9/81 116/14/85 115/16/81
f 116/14/85 103/9/81 102/13/85
f 117/15/86 105/8/84 114/17/84
f 105/8/84 117/15/86 104/12/86
f 102/13/85 117/15/86 116/14/85
f 117/15/86 102/13/85 104/12/86
f 111/15/87 106/8/83 107/12/87
f 106/8/83 111/15/87 113/17/83
f 110/14/82 107/12/87 108/13/82
f 107/12/87 110/14/82 111/15/87
f 120/8/90 119/9/89 118/9/88
f 119/9/89 120/8/90 121/8/91
f 124/8/94 123/9/93 122/9/92
f 123/9/93 124/8/94 125/8/95
f 128/9/98 127/8/97 126/9/96
f 127/8/97 128/9/98 129/8/99
f 132/9/102 131/8/101 130/9/100
f 131/8/101 132/9/102 133/8/103
f 123/9/93 120/8/90 118/9/88
f 120/8/90 123/9/93 125/8/95
f 127/8/97 125/8/95 124/8/94
f 125/8/95 127/8/97 129/8/99
f 125/8/95 129/8/99 120/8/90
f 120/8/90 129/8/99 131/8/101
f 120/8/90 131/8/101 121/8/91
f 121/8/91 131/8/101 133/8/103
f 119/9/89 133/8/103 132/9/102
f 133/8/103 119/9/89 121/8/91
f 127/8/97 122/9/92 126/9/96
f 122/9/92 127/8/97 124/8/94
f 131/8/101 128/9/98 130/9/100
f 128/9/98 131/8/101 129/8/99
f 136/8/106 135/9/105 134/9/104
f 135/9/105 136/8/106 137/8/107
f 140/8/110 139/9/109 138/9/108
f 139/9/109 140/8/110 141/8/111
f 144/9/114 143/8/113 142/9/112
f 143/8/113 144/9/114 145/8/115
f 148/9/118 147/8/117 146/9/116
f 147/8/117 148/9/118 149/8/119
f 139/9/109 136/8/106 134/9/104
f 136/8/106 139/9/109 141/8/111
f 143/8/113 141/8/111 140/8/110
f 141/8/111 143/8/113 145/8/115
f 141/8/111 145/8/115 136/8/106
f 136/8/106 145/8/115 147/8/117
f 136/8/106 147/8/117 137/8/107
f 137/8/107 147/8/117 149/8/119
f 135/9/105 149/8/119 148/9/118
f 149/8/119 135/9/105 137/8/107
f 143/8/113 138/9/108 142/9/112
f 138/9/108 143/8/113 140/8/110
f 147/8/117 144/9/114 146/9/116
f 144/9/114 147/8/117 145/8/115
f 4/18/13 8/18/13 3/18/13
f 8/18/13 4/18/13 6/18/13
f 150/19/52 8/18/52 17/19/52
f 8/18/52 150/19/52 3/18/52
f 150/19/120 4/18/120 3/18/120
f 4/18/120 150/19/120 151/19/120
f 4/18/53 21/19/53 6/18/53
f 21/19/53 4/18/53 151/19/53
f 21/19/43 150/19/43 17/19/43
f 150/19/43 21/19/43 151/19/43
f 21/19/121 8/18/121 6/18/121
f 8/18/121 21/19/121 17/19/121
f 154/21/39 153/20/40 152/20/39
f 153/20/40 154/21/39 155/21/40
f 158/20/38 157/21/42 156/20/42
f 157/21/42 158/20/38 159/21/38
f 160/21/35 153/20/40 155/21/40
f 153/20/40 160/21/35 161/20/35
f 163/20/13 161/20/13 162/20/13
f 161/20/13 163/20/13 153/20/13
f 153/20/13 163/20/13 158/20/13
f 153/20/13 158/20/13 152/20/13
f 152/20/13 158/20/13 156/20/13
f 152/20/13 156/20/13 164/20/13
f 165/21/36 161/20/35 160/21/35
f 161/20/35 165/21/36 162/20/36
f 155/21/43 165/21/43 160/21/43
f 165/21/43 155/21/43 166/21/43
f 166/21/43 155/21/43 154/21/43
f 166/21/43 154/21/43 159/21/43
f 159/21/43 154/21/43 167/21/43
f 159/21/43 167/21/43 157/21/43
f 156/20/42 167/21/41 164/20/41
f 167/21/41 156/20/42 157/21/42
f 166/21/37 158/20/38 163/20/37
f 158/20/38 166/21/37 159/21/38
f 166/21/37 162/20/36 165/21/36
f 162/20/36 166/21/37 163/20/37
f 164/20/41 154/21/39 152/20/39
f 154/21/39 164/20/41 167/21/41
f 170/22/36 169/23/35 168/22/35
f 169/23/35 170/22/36 171/23/36
f 174/22/37 173/23/38 172/23/37
f 173/23/38 174/22/37 175/22/38
f 178/22/39 177/23/40 176/23/39
f 177/23/40 178/22/39 179/22/40
f 182/23/42 181/22/41 180/23/41
f 181/22/41 182/23/42 183/22/42
f 180/23/41 178/22/39 176/23/39
f 178/22/39 180/23/41 181/22/41
f 170/22/36 172/23/37 171/23/36
f 172/23/37 170/22/36 174/22/37
f 173/23/38 183/22/42 182/23/42
f 183/22/42 173/23/38 175/22/38
f 168/22/35 177/23/40 179/22/40
f 177/23/40 168/22/35 169/23/35
f 172/23/13 169/23/13 171/23/13
f 169/23/13 172/23/13 177/23/13
f 177/23/13 172/23/13 173/23/13
f 177/23/13 173/23/13 176/23/13
f 176/23/13 173/23/13 182/23/13
f 176/23/13 182/23/13 180/23/13
f 179/22/43 170/22/43 168/22/43
f 170/22/43 179/22/43 174/22/43
f 174/22/43 179/22/43 178/22/43
f 174/22/43 178/22/43 175/22/43
f 175/22/43 178/22/43 181/22/43
f 175/22/43 181/22/43 183/22/43
f 186/22/36 185/23/35 184/22/35
f 185/23/35 186/22/36 187/23/36
f 190/22/37 189/23/38 188/23/37
f 189/23/38 190/22/37 191/22/38
f 194/22/39 193/23/40 192/23/39
f 193/23/40 194/22/39 195/22/40
f 198/23/42 197/22/41 196/23/41
f 197/22/41 198/23/42 199/22/42
f 196/23/41 194/22/39 192/23/39
f 194/22/39 196/23/41 197/22/41
f 186/22/36 188/23/37 187/23/36
f 188/23/37 186/22/36 190/22/37
f 189/23/38 199/22/42 198/23/42
f 199/22/42 189/23/38 191/22/38
f 184/22/35 193/23/40 195/22/40
f 193/23/40 184/22/35 185/23/35
f 188/23/13 185/23/13 187/23/13
f 185/23/13 188/23/13 193/23/13
f 193/23/13 188/23/13 189/23/13
f 193/23/13 189/23/13 192/23/13
f 192/23/13 189/23/13 198/23/13
f 192/23/13 198/23/13 196/23/13
f 195/22/43 186/22/43 184/22/43
f 186/22/43 195/22/43 190/22/43
f 190/22/43 195/22/43 194/22/43
f 190/22/43 194/22/43 191/22/43
f 191/22/43 194/22/43 197/22/43
f 191/22/43 197/22/43 199/22/43

g hammer-a




usemtl colormap

f 3/2/2 2/1/1 1/1/1
f 2/1/1 3/2/2 4/2/2
f 2/1/3 6/2/4 5/1/3
f 6/2/4 2/1/3 4/2/4
f 8/2/6 1/1/5 7/1/5
f 1/1/5 8/2/6 3/2/6
f 6/2/8 7/1/7 5/1/7
f 7/1/7 6/2/8 8/2/8
f 1/1/5 9/3/9 7/1/5
f 9/3/9 1/1/5 10/3/9
f 1/1/1 11/3/10 10/3/10
f 11/3/10 1/1/1 2/1/1
f 11/3/11 5/1/3 12/3/11
f 5/1/3 11/3/11 2/1/3
f 5/1/7 9/3/12 12/3/12
f 9/3/12 5/1/7 7/1/7
f 15/4/13 14/4/13 13/4/13
f 14/4/13 15/4/13 16/4/13
f 10/3/9 14/4/14 9/3/9
f 14/4/14 10/3/9 13/4/14
f 10/3/10 15/4/15 13/4/15
f 15/4/15 10/3/10 11/3/10
f 12/3/12 14/4/16 16/4/16
f 14/4/16 12/3/12 9/3/12
f 16/4/17 11/3/11 12/3/11
f 11/3/11 16/4/17 15/4/17
f 19/4/20 18/2/19 17/2/18
f 21/2/22 20/2/21 19/4/20
f 18/2/19 19/4/20 20/2/21
f 24/4/23 23/5/24 22/4/23
f 23/5/24 24/4/23 25/2/24
f 25/2/24 24/4/23 26/2/24
f 26/2/24 24/4/23 27/5/24
f 22/4/25 29/4/25 28/4/25
f 29/4/25 22/4/25 30/4/25
f 30/4/25 22/4/25 23/5/26
f 30/4/25 23/5/26 31/5/26
f 25/2/27 31/5/26 23/5/26
f 31/5/26 25/2/27 32/2/27
f 25/2/27 33/2/28 32/2/27
f 33/2/28 25/2/27 26/2/28
f 33/2/28 27/5/29 34/5/29
f 27/5/29 33/2/28 26/2/28
f 37/4/30 36/4/30 35/4/30
f 36/4/30 37/4/30 24/4/30
f 24/4/30 37/4/30 34/5/29
f 24/4/30 34/5/29 27/5/29
f 36/4/32 29/4/31 35/4/31
f 29/4/31 36/4/32 28/4/32
f 32/2/33 30/4/34 31/5/33
f 30/4/34 32/2/33 37/4/34
f 37/4/34 32/2/33 33/2/33
f 37/4/34 33/2/33 34/5/33
f 36/4/32 22/4/23 28/4/32
f 22/4/23 36/4/32 24/4/23
f 37/4/34 29/4/31 30/4/34
f 29/4/31 37/4/34 35/4/31
f 40/6/36 39/7/35 38/6/35
f 39/7/35 40/6/36 41/7/36
f 44/6/37 43/7/38 42/7/37
f 43/7/38 44/6/37 45/6/38
f 48/6/39 47/7/40 46/7/39
f 47/7/40 48/6/39 49/6/40
f 52/7/42 51/6/41 50/7/41
f 51/6/41 52/7/42 53/6/42
f 50/7/41 48/6/39 46/7/39
f 48/6/39 50/7/41 51/6/41
f 40/6/36 42/7/37 41/7/36
f 42/7/37 40/6/36 44/6/37
f 43/7/38 53/6/42 52/7/42
f 53/6/42 43/7/38 45/6/38
f 38/6/35 47/7/40 49/6/40
f 47/7/40 38/6/35 39/7/35
f 42/7/13 39/7/13 41/7/13
f 39/7/13 42/7/13 47/7/13
f 47/7/13 42/7/13 43/7/13
f 47/7/13 43/7/13 46/7/13
f 46/7/13 43/7/13 52/7/13
f 46/7/13 52/7/13 50/7/13
f 49/6/43 40/6/43 38/6/43
f 40/6/43 49/6/43 44/6/43
f 44/6/43 49/6/43 48/6/43
f 44/6/43 48/6/43 45/6/43
f 45/6/43 48/6/43 51/6/43
f 45/6/43 51/6/43 53/6/43
f 56/8/44 55/8/45 54/8/44
f 55/8/45 56/8/44 57/8/45
f 60/9/46 59/9/47 58/9/46
f 59/9/47 60/9/46 61/9/47
f 64/11/49 63/10/48 62/10/48
f 63/10/48 64/11/49 65/11/49
f 68/11/51 67/10/50 66/10/50
f 67/10/50 68/11/51 69/11/51
f 56/8/44 69/11/51 68/11/51
f 69/11/51 56/8/44 54/8/44
f 61/9/47 67/10/50 59/9/47
f 67/10/50 61/9/47 66/10/50
f 63/10/48 58/9/46 62/10/48
f 58/9/46 63/10/48 60/9/46
f 55/8/45 65/11/49 64/11/49
f 65/11/49 55/8/45 57/8/45
f 54/8/52 67/10/52 69/11/52
f 67/10/52 54/8/52 59/9/52
f 59/9/52 54/8/52 55/8/52
f 59/9/52 55/8/52 58/9/52
f 58/9/52 55/8/52 64/11/52
f 58/9/52 64/11/52 62/10/52
f 61/9/53 68/11/53 66/10/53
f 68/11/53 61/9/53 56/8/53
f 56/8/53 61/9/53 60/9/53
f 56/8/53 60/9/53 57/8/53
f 57/8/53 60/9/53 63/10/53
f 57/8/53 63/10/53 65/11/53
f 72/8/52 71/13/52 70/12/52
f 71/13/52 72/8/52 73/9/52
f 73/9/52 72/8/52 74/8/52
f 73/9/52 74/8/52 75/9/52
f 75/9/52 74/8/52 76/13/52
f 76/13/52 74/8/52 77/12/52
f 78/13/54 75/9/55 76/13/54
f 75/9/55 78/13/54 79/9/55
f 77/12/56 78/13/54 76/13/54
f 78/13/54 77/12/56 80/12/56
f 74/8/57 80/12/56 77/12/56
f 80/12/56 74/8/57 81/8/57
f 82/8/58 74/8/57 72/8/58
f 74/8/57 82/8/58 81/8/57
f 82/8/58 70/12/59 83/12/59
f 70/12/59 82/8/58 72/8/58
f 84/13/60 70/12/59 71/13/60
f 70/12/59 84/13/60 83/12/59
f 85/9/61 71/13/60 73/9/61
f 71/13/60 85/9/61 84/13/60
f 88/16/53 87/15/53 86/14/53
f 87/15/53 88/16/53 89/17/53
f 89/17/53 88/16/53 90/17/53
f 90/17/53 88/16/53 91/16/53
f 90/17/53 91/16/53 92/14/53
f 90/17/53 92/14/53 93/15/53
f 79/9/55 73/9/61 75/9/55
f 73/9/61 79/9/55 85/9/61
f 79/9/63 88/16/62 85/9/62
f 88/16/62 79/9/63 91/16/63
f 85/9/62 86/14/64 84/13/64
f 86/14/64 85/9/62 88/16/62
f 89/17/65 81/8/66 82/8/65
f 81/8/66 89/17/65 90/17/66
f 79/9/63 92/14/67 91/16/63
f 92/14/67 79/9/63 78/13/67
f 93/15/68 81/8/66 90/17/66
f 81/8/66 93/15/68 80/12/68
f 78/13/67 93/15/68 92/14/67
f 93/15/68 78/13/67 80/12/68
f 87/15/69 82/8/65 83/12/69
f 82/8/65 87/15/69 89/17/65
f 86/14/64 83/12/69 84/13/64
f 83/12/69 86/14/64 87/15/69
f 96/8/70 95/13/70 94/12/70
f 95/13/70 96/8/70 97/9/70
f 97/9/70 96/8/70 98/8/70
f 97/9/70 98/8/70 99/9/70
f 99/9/70 98/8/70 100/13/70
f 100/13/70 98/8/70 101/12/70
f 102/13/71 99/9/72 100/13/71
f 99/9/72 102/13/71 103/9/72
f 101/12/73 102/13/71 100/13/71
f 102/13/71 101/12/73 104/12/73
f 98/8/74 104/12/73 101/12/73
f 104/12/73 98/8/74 105/8/74
f 106/8/75 98/8/74 96/8/75
f 98/8/74 106/8/75 105/8/74
f 106/8/75 94/12/76 107/12/76
f 94/12/76 106/8/75 96/8/75
f 108/13/77 94/12/76 95/13/77
f 94/12/76 108/13/77 107/12/76
f 109/9/78 95/13/77 97/9/78
f 95/13/77 109/9/78 108/13/77
f 112/16/79 111/15/79 110/14/79
f 111/15/79 112/16/79 113/17/79
f 113/17/79 112/16/79 114/17/79
f 114/17/79 112/16/79 115/16/79
f 114/17/79 115/16/79 116/14/79
f 114/17/79 116/14/79 117/15/79
f 103/9/72 97/9/78 99/9/72
f 97/9/78 103/9/72 109/9/78
f 103/9/81 112/16/80 109/9/80
f 112/16/80 103/9/81 115/16/81
f 109/9/80 110/14/82 108/13/82
f 110/14/82 109/9/80 112/16/80
f 113/17/83 105/8/84 106/8/83
f 105/8/84 113/17/83 114/17/84
f 103/9/81 116/14/85 115/16/81
f 116/14/85 103/9/81 102/13/85
f 117/15/86 105/8/84 114/17/84
f 105/8/84 117/15/86 104/12/86
f 102/13/85 117/15/86 116/14/85
f 117/15/86 102/13/85 104/12/86
f 111/15/87 106/8/83 107/12/87
f 106/8/83 111/15/87 113/17/83
f 110/14/82 107/12/87 108/13/82
f 107/12/87 110/14/82 111/15/87
f 120/8/90 119/9/89 118/9/88
f 119/9/89 120/8/90 121/8/91
f 124/8/94 123/9/93 122/9/92
f 123/9/93 124/8/94 125/8/95
f 128/9/98 127/8/97 126/9/96
f 127/8/97 128/9/98 129/8/99
f 132/9/102 131/8/101 130/9/100
f 131/8/101 132/9/102 133/8/103
f 123/9/93 120/8/90 118/9/88
f 120/8/90 123/9/93 125/8/95
f 127/8/97 125/8/95 124/8/94
f 125/8/95 127/8/97 129/8/99
f 125/8/95 129/8/99 120/8/90
f 120/8/90 129/8/99 131/8/101
f 120/8/90 131/8/101 121/8/91
f 121/8/91 131/8/101 133/8/103
f 119/9/89 133/8/103 132/9/102
f 133/8/103 119/9/89 121/8/91
f 127/8/97 122/9/92 126/9/96
f 122/9/92 127/8/97 124/8/94
f 131/8/101 128/9/98 130/9/100
f 128/9/98 131/8/101 129/8/99
f 136/8/106 135/9/105 134/9/104
f 135/9/105 136/8/106 137/8/107
f 140/8/110 139/9/109 138/9/108
f 139/9/109 140/8/110 141/8/111
f 144/9/114 143/8/113 142/9/112
f 143/8/113 144/9/114 145/8/115
f 148/9/118 147/8/117 146/9/116
f 147/8/117 148/9/118 149/8/119
f 139/9/109 136/8/106 134/9/104
f 136/8/106 139/9/109 141/8/111
f 143/8/113 141/8/111 140/8/110
f 141/8/111 143/8/113 145/8/115
f 141/8/111 145/8/115 136/8/106
f 136/8/106 145/8/115 147/8/117
f 136/8/106 147/8/117 137/8/107
f 137/8/107 147/8/117 149/8/119
f 135/9/105 149/8/119 148/9/118
f 149/8/119 135/9/105 137/8/107
f 143/8/113 138/9/108 142/9/112
f 138/9/108 143/8/113 140/8/110
f 147/8/117 144/9/114 146/9/116
f 144/9/114 147/8/117 145/8/115
f 4/18/13 8/18/13 3/18/13
f 8/18/13 4/18/13 6/18/13
f 150/19/52 8/18/52 17/19/52
f 8/18/52 150/19/52 3/18/52
f 150/19/120 4/18/120 3/18/120
f 4/18/120 150/19/120 151/19/120
f 4/18/53 21/19/53 6/18/53
f 21/19/53 4/18/53 151/19/53
f 21/19/43 150/19/43 17/19/43
f 150/19/43 21/19/43 151/19/43
f 21/19/121 8/18/121 6/18/121
f 8/18/121 21/19/121 17/19/121
f 154/21/39 153/20/40 152/20/39
f 153/20/40 154/21/39 155/21/40
f 158/20/38 157/21/42 156/20/42
f 157/21/42 158/20/38 159/21/38
f 160/21/35 153/20/40 155/21/40
f 153/20/40 160/21/35 161/20/35
f 163/20/13 161/20/13 162/20/13
f 161/20/13 163/20/13 153/20/13
f 153/20/13 163/20/13 158/20/13
f 153/20/13 158/20/13 152/20/13
f 152/20/13 158/20/13 156/20/13
f 152/20/13 156/20/13 164/20/13
f 165/21/36 161/20/35 160/21/35
f 161/20/35 165/21/36 162/20/36
f 155/21/43 165/21/43 160/21/43
f 165/21/43 155/21/43 166/21/43
f 166/21/43 155/21/43 154/21/43
f 166/21/43 154/21/43 159/21/43
f 159/21/43 154/21/43 167/21/43
f 159/21/43 167/21/43 157/21/43
f 156/20/42 167/21/41 164/20/41
f 167/21/41 156/20/42 157/21/42
f 166/21/37 158/20/38 163/20/37
f 158/20/38 166/21/37 159/21/38
f 166/21/37 162/20/36 165/21/36
f 162/20/36 166/21/37 163/20/37
f 164/20/41 154/21/39 152/20/39
f 154/21/39 164/20/41 167/21/41
f 170/22/36 169/23/35 168/22/35
f 169/23/35 170/22/36 171/23/36
f 174/22/37 173/23/38 172/23/37
f 173/23/38 174/22/37 175/22/38
f 178/22/39 177/23/40 176/23/39
f 177/23/40 178/22/39 179/22/40
f 182/23/42 181/22/41 180/23/41
f 181/22/41 182/23/42 183/22/42
f 180/23/41 178/22/39 176/23/39
f 178/22/39 180/23/41 181/22/41
f 170/22/36 172/23/37 171/23/36
f 172/23/37 170/22/36 174/22/37
f 173/23/38 183/22/42 182/23/42
f 183/22/42 173/23/38 175/22/38
f 168/22/35 177/23/40 179/22/40
f 177/23/40 168/22/35 169/23/35
f 172/23/13 169/23/13 171/23/13
f 169/23/13 172/23/13 177/23/13
f 177/23/13 172/23/13 173/23/13
f 177/23/13 173/23/13 176/23/13
f 176/23/13 173/23/13 182/23/13
f 176/23/13 182/23/13 180/23/13
f 179/22/43 170/22/43 168/22/43
f 170/22/43 179/22/43 174/22/43
f 174/22/43 179/22/43 178/22/43
f 174/22/43 178/22/43 175/22/43
f 175/22/43 178/22/43 181/22/43
f 175/22/43 181/22/43 183/22/43
f 186/22/36 185/23/35 184/22/35
f 185/23/35 186/22/36 187/23/36
f 190/22/37 189/23/38 188/23/37
f 189/23/38 190/22/37 191/22/38
f 194/22/39 193/23/40 192/23/39
f 193/23/40 194/22/39 195/22/40
f 198/23/42 197/22/41 196/23/41
f 197/22/41 198/23/42 199/22/42
f 196/23/41 194/22/39 192/23/39
f 194/22/39 196/23/41 197/22/41
f 186/22/36 188/23/37 187/23/36
f 188/23/37 186/22/36 190/22/37
f 189/23/38 199/22/42 198/23/42
f 199/22/42 189/23/38 191/22/38
f 184/22/35 193/23/40 195/22/40
f 193/23/40 184/22/35 185/23/35
f 188/23/13 185/23/13 187/23/13
f 185/23/13 188/23/13 193/23/13
f 193/23/13 188/23/13 189/23/13
f 193/23/13 189/23/13 192/23/13
f 192/23/13 189/23/13 198/23/13
f 192/23/13 198/23/13 196/23/13
f 195/22/43 186/22/43 184/22/43
f 186/22/43 195/22/43 190/22/43
f 190/22/43 195/22/43 194/22/43
f 190/22/43 194/22/43 191/22/43
f 191/22/43 194/22/43 197/22/43
f 191/22/43 197/22/43 199/22/43

