# Created by Kenney (www.kenney.nl)

mtllib shield-round-a.mtl

g shield-round-a

v -1.03153 1.03153 -1.22968E-07 1 1 1
v 0 1.458804 -1.73903E-07 1 1 1
v -1.03153 1.03153 -0.3000002 1 1 1
v 0 1.458804 -0.3000002 1 1 1
v 1.03153 -1.03153 1.22968E-07 1 1 1
v 3.609557E-16 -1.458804 1.73903E-07 1 1 1
v 1.03153 -1.03153 -0.2999999 1 1 1
v 3.609557E-16 -1.458804 -0.2999999 1 1 1
v 1.03153 1.03153 -1.22968E-07 1 1 1
v 1.03153 1.03153 -0.3000002 1 1 1
v 1.458804 7.219115E-16 -8.605855E-23 1 1 1
v 1.458804 -3.576279E-08 -0.3 1 1 1
v -1.03153 -1.03153 1.22968E-07 1 1 1
v -1.03153 -1.03153 -0.2999999 1 1 1
v -1.458804 -3.576279E-08 -0.3 1 1 1
v -1.458804 7.219115E-16 -8.605855E-23 1 1 1
v 1.567043 -4.768372E-08 -0.4000001 1 1 1
v 1.108067 1.108067 -0.4000002 1 1 1
v 0 1.567043 -0.4000002 1 1 1
v -1.108067 1.108067 -0.4000002 1 1 1
v -1.567043 -4.768372E-08 -0.4000001 1 1 1
v 3.609557E-16 -1.567043 -0.3999999 1 1 1
v -1.108067 -1.108067 -0.3999999 1 1 1
v 1.108067 -1.108067 -0.3999999 1 1 1
v 0 -2 2.384186E-07 1 1 1
v 1.414214 -1.414214 1.685874E-07 1 1 1
v 3.609557E-16 -2 -0.2999998 1 1 1
v 1.414214 -1.414214 -0.2999999 1 1 1
v 2 -3.576279E-08 -0.3 1 1 1
v 2 7.219115E-16 -8.605855E-23 1 1 1
v 1.414214 1.414214 -0.3000002 1 1 1
v 1.414214 1.414214 -1.685874E-07 1 1 1
v -3.609557E-16 2 -2.384186E-07 1 1 1
v -1.414214 1.414214 -1.685874E-07 1 1 1
v 3.609557E-16 2 -0.3000003 1 1 1
v -1.414214 1.414214 -0.3000002 1 1 1
v -2 0 0 1 1 1
v -2 -3.576279E-08 -0.3 1 1 1
v -1.414214 -1.414214 1.685874E-07 1 1 1
v -1.414214 -1.414214 -0.2999999 1 1 1
v -3.609557E-16 1.891761 -0.4000003 1 1 1
v -1.337677 1.337677 -0.4000002 1 1 1
v 1.891761 -4.768372E-08 -0.4000001 1 1 1
v 1.337677 1.337677 -0.4000002 1 1 1
v 1.337677 -1.337677 -0.3999999 1 1 1
v -1.891761 -4.768372E-08 -0.4000001 1 1 1
v 3.609557E-16 -1.891761 -0.3999998 1 1 1
v -1.337677 -1.337677 -0.3999999 1 1 1
v 1.804402 -5.364418E-08 -0.4500001 1 1 1
v 1.782435 0.05303296 -0.4500001 1 1 1
v 1.782435 -0.05303307 -0.4500001 1 1 1
v 1.729402 -0.07500006 -0.4500001 1 1 1
v 1.729402 0.07499996 -0.4500001 1 1 1
v 1.676369 0.05303296 -0.4500001 1 1 1
v 1.676369 -0.05303307 -0.4500001 1 1 1
v 1.654402 -5.364418E-08 -0.4500001 1 1 1
v 1.829402 -4.768372E-08 -0.4000001 1 1 1
v 1.800113 0.07071064 -0.4000001 1 1 1
v 1.729402 -0.1000001 -0.4000001 1 1 1
v 1.800113 -0.07071073 -0.4000001 1 1 1
v 1.658691 -0.07071073 -0.4000001 1 1 1
v 1.629402 -4.768372E-08 -0.4000001 1 1 1
v 1.729402 0.09999997 -0.4000001 1 1 1
v 1.658691 0.07071064 -0.4000001 1 1 1
v 1.297872 -1.222872 -0.4499999 1 1 1
v 1.275905 -1.169839 -0.4499999 1 1 1
v 1.275905 -1.275905 -0.4499999 1 1 1
v 1.222872 -1.297872 -0.4499999 1 1 1
v 1.222872 -1.147872 -0.4499999 1 1 1
v 1.169839 -1.169839 -0.4499999 1 1 1
v 1.169839 -1.275905 -0.4499999 1 1 1
v 1.147872 -1.222872 -0.4499999 1 1 1
v 1.322872 -1.222872 -0.3999999 1 1 1
v 1.293583 -1.152161 -0.3999999 1 1 1
v 1.222872 -1.322872 -0.3999999 1 1 1
v 1.293583 -1.293583 -0.3999999 1 1 1
v 1.152161 -1.293583 -0.3999999 1 1 1
v 1.122872 -1.222872 -0.3999999 1 1 1
v 1.222872 -1.122872 -0.3999999 1 1 1
v 1.152161 -1.152161 -0.3999999 1 1 1
v 0.075 -1.729402 -0.4499999 1 1 1
v 0.05303301 -1.676369 -0.4499999 1 1 1
v 0.05303301 -1.782435 -0.4499999 1 1 1
v 6.993517E-16 -1.804402 -0.4499999 1 1 1
v 7.331913E-16 -1.654402 -0.4499999 1 1 1
v -0.05303301 -1.676369 -0.4499999 1 1 1
v -0.05303301 -1.782435 -0.4499999 1 1 1
v -0.075 -1.729402 -0.4499999 1 1 1
v 0.1 -1.729402 -0.3999999 1 1 1
v 0.07071068 -1.658692 -0.3999999 1 1 1
v 6.993517E-16 -1.829402 -0.3999999 1 1 1
v 0.07071068 -1.800113 -0.3999999 1 1 1
v -0.07071068 -1.800113 -0.3999999 1 1 1
v -0.1 -1.729402 -0.3999999 1 1 1
v 7.331913E-16 -1.629402 -0.3999999 1 1 1
v -0.07071068 -1.658692 -0.3999999 1 1 1
v -1.147872 -1.222872 -0.4499999 1 1 1
v -1.169839 -1.169839 -0.4499999 1 1 1
v -1.169839 -1.275905 -0.4499999 1 1 1
v -1.222872 -1.297872 -0.4499999 1 1 1
v -1.222872 -1.147872 -0.4499999 1 1 1
v -1.275905 -1.169839 -0.4499999 1 1 1
v -1.275905 -1.275905 -0.4499999 1 1 1
v -1.297872 -1.222872 -0.4499999 1 1 1
v -1.122872 -1.222872 -0.3999999 1 1 1
v -1.152161 -1.152161 -0.3999999 1 1 1
v -1.222872 -1.322872 -0.3999999 1 1 1
v -1.152161 -1.293583 -0.3999999 1 1 1
v -1.293583 -1.293583 -0.3999999 1 1 1
v -1.322872 -1.222872 -0.3999999 1 1 1
v -1.222872 -1.122872 -0.3999999 1 1 1
v -1.293583 -1.152161 -0.3999999 1 1 1
v -1.654402 -5.364418E-08 -0.4500001 1 1 1
v -1.676369 0.05303296 -0.4500001 1 1 1
v -1.676369 -0.05303307 -0.4500001 1 1 1
v -1.729402 -0.07500006 -0.4500001 1 1 1
v -1.729402 0.07499996 -0.4500001 1 1 1
v -1.782435 0.05303296 -0.4500001 1 1 1
v -1.782435 -0.05303307 -0.4500001 1 1 1
v -1.804402 -5.364418E-08 -0.4500001 1 1 1
v -1.629402 -4.768372E-08 -0.4000001 1 1 1
v -1.658691 0.07071064 -0.4000001 1 1 1
v -1.729402 -0.1000001 -0.4000001 1 1 1
v -1.658691 -0.07071073 -0.4000001 1 1 1
v -1.800113 -0.07071073 -0.4000001 1 1 1
v -1.829402 -4.768372E-08 -0.4000001 1 1 1
v -1.729402 0.09999997 -0.4000001 1 1 1
v -1.800113 0.07071064 -0.4000001 1 1 1
v 1.297872 1.222872 -0.4500002 1 1 1
v 1.275905 1.275905 -0.4500002 1 1 1
v 1.275905 1.169839 -0.4500002 1 1 1
v 1.222872 1.147872 -0.4500002 1 1 1
v 1.222872 1.297872 -0.4500002 1 1 1
v 1.169839 1.275905 -0.4500002 1 1 1
v 1.169839 1.169839 -0.4500002 1 1 1
v 1.147872 1.222872 -0.4500002 1 1 1
v 1.322872 1.222872 -0.4000002 1 1 1
v 1.293583 1.293583 -0.4000002 1 1 1
v 1.222872 1.122872 -0.4000002 1 1 1
v 1.293583 1.152161 -0.4000002 1 1 1
v 1.152161 1.152161 -0.4000002 1 1 1
v 1.122872 1.222872 -0.4000002 1 1 1
v 1.222872 1.322872 -0.4000002 1 1 1
v 1.152161 1.293583 -0.4000002 1 1 1
v 0.075 1.729402 -0.4500003 1 1 1
v 0.05303301 1.782435 -0.4500003 1 1 1
v 0.05303301 1.676369 -0.4500003 1 1 1
v -2.255973E-17 1.654402 -0.4500003 1 1 1
v 1.127987E-17 1.804402 -0.4500003 1 1 1
v -0.05303301 1.782435 -0.4500003 1 1 1
v -0.05303301 1.676369 -0.4500003 1 1 1
v -0.075 1.729402 -0.4500003 1 1 1
v 0.1 1.729402 -0.4000003 1 1 1
v 0.07071068 1.800113 -0.4000003 1 1 1
v -2.255973E-17 1.629402 -0.4000003 1 1 1
v 0.07071068 1.658692 -0.4000003 1 1 1
v -0.07071068 1.658692 -0.4000003 1 1 1
v -0.1 1.729402 -0.4000003 1 1 1
v 1.127987E-17 1.829402 -0.4000003 1 1 1
v -0.07071068 1.800113 -0.4000003 1 1 1
v -1.147872 1.222872 -0.4500002 1 1 1
v -1.169839 1.275905 -0.4500002 1 1 1
v -1.169839 1.169839 -0.4500002 1 1 1
v -1.222872 1.147872 -0.4500002 1 1 1
v -1.222872 1.297872 -0.4500002 1 1 1
v -1.275905 1.275905 -0.4500002 1 1 1
v -1.275905 1.169839 -0.4500002 1 1 1
v -1.297872 1.222872 -0.4500002 1 1 1
v -1.122872 1.222872 -0.4000002 1 1 1
v -1.152161 1.293583 -0.4000002 1 1 1
v -1.222872 1.122872 -0.4000002 1 1 1
v -1.152161 1.152161 -0.4000002 1 1 1
v -1.293583 1.152161 -0.4000002 1 1 1
v -1.322872 1.222872 -0.4000002 1 1 1
v -1.222872 1.322872 -0.4000002 1 1 1
v -1.293583 1.293583 -0.4000002 1 1 1
v -0.3840734 -0.3840736 -0.6504099 1 1 1
v -0.5431618 -7.75349E-08 -0.65041 1 1 1
v -0.5431618 -0.543162 -0.425 1 1 1
v -0.7681468 -5.066395E-08 -0.425 1 1 1
v 0.7681468 -5.066395E-08 -0.425 1 1 1
v 0.5431618 -7.75349E-08 -0.65041 1 1 1
v 0.5431618 -0.543162 -0.425 1 1 1
v 0.3840734 -0.3840736 -0.6504099 1 1 1
v 1.732587E-15 -0.543162 -0.6504099 1 1 1
v 1.155058E-15 -0.768147 -0.425 1 1 1
v 1.732587E-15 0.5431619 -0.6504101 1 1 1
v 1.155058E-15 0.7681469 -0.4250001 1 1 1
v -0.3840734 0.3840734 -0.6504101 1 1 1
v -0.5431618 0.5431619 -0.4250001 1 1 1
v 0.5431618 0.5431619 -0.4250001 1 1 1
v 0.3840734 0.3840734 -0.6504101 1 1 1
v 0.298739 -9.097037E-08 -0.7631149 1 1 1
v 0.2112404 0.2112403 -0.763115 1 1 1
v 0.2112404 -0.2112405 -0.7631149 1 1 1
v 1.155058E-15 -0.2987391 -0.7631149 1 1 1
v 1.155058E-15 0.2987389 -0.763115 1 1 1
v -0.2112404 -0.2112405 -0.7631149 1 1 1
v -0.2112404 0.2112403 -0.763115 1 1 1
v -0.298739 -9.097037E-08 -0.7631149 1 1 1
v 1.458804 -2.384186E-08 -0.2 1 1 1
v 1.03153 -1.03153 -0.1999999 1 1 1
v 0.5431618 -0.5431619 -0.425 1 1 1
v 3.609557E-16 -1.458804 -0.1999999 1 1 1
v 0 -0.768147 -0.425 1 1 1
v -1.03153 -1.03153 -0.1999999 1 1 1
v -0.5431618 -0.5431619 -0.425 1 1 1
v -1.458804 -2.384186E-08 -0.2 1 1 1
v 0 0.7681469 -0.4250001 1 1 1
v 0 1.458804 -0.2000002 1 1 1
v -0.5431618 0.5431618 -0.4250001 1 1 1
v -1.03153 1.03153 -0.2000002 1 1 1
v 1.03153 1.03153 -0.2000002 1 1 1
v 0.5431618 0.5431618 -0.4250001 1 1 1

vn 0.7071068 -0.7071068 8.42937E-08
vn 0 -1 1.192093E-07
vn 0.6343092 -0.6343094 -0.4419318
vn 0 -0.8970488 -0.4419317
vn -0.7071068 0.7071068 -8.42937E-08
vn 0 1 -1.192093E-07
vn -0.6343092 0.6343092 -0.441932
vn 0 0.8970487 -0.441932
vn -0.7071068 -0.7071068 8.42937E-08
vn -0.6343092 -0.6343094 -0.4419318
vn -1 0 0
vn -0.8970487 -5.268237E-08 -0.4419318
vn 0.7071068 0.7071068 -8.42937E-08
vn 0.6343092 0.6343092 -0.441932
vn 0.8970487 -5.268237E-08 -0.4419318
vn 1 0 0
vn -0.6785983 -8.756036E-08 -0.7345096
vn -0.4798415 -0.4798416 -0.7345095
vn 0 -0.6785985 -0.7345095
vn 0.4798415 -0.4798416 -0.7345095
vn 0.6785983 -8.756036E-08 -0.7345096
vn 0 0.6785983 -0.7345096
vn 0.4798415 0.4798415 -0.7345096
vn -0.4798415 0.4798415 -0.7345096
vn 0 -0.9294884 -0.3688516
vn 0.6572475 -0.6572476 -0.3688516
vn 0.9294882 -4.397055E-08 -0.3688517
vn 0.6572475 0.6572475 -0.3688518
vn 0 0.9294883 -0.3688518
vn -0.6572475 0.6572475 -0.3688518
vn -0.9294882 -4.397055E-08 -0.3688517
vn -0.6572475 -0.6572476 -0.3688516
vn 0 -1.192093E-07 -1
vn 0 1.192093E-07 1
vn 0.6079535 -9.464891E-08 -0.7939727
vn 0.429888 0.429888 -0.7939728
vn 0.429888 -0.4298882 -0.7939727
vn 0 -0.6079537 -0.7939727
vn 0 0.6079534 -0.7939728
vn -0.429888 0.429888 -0.7939728
vn -0.429888 -0.4298882 -0.7939727
vn -0.6079535 -9.464891E-08 -0.7939727
vn 0.8944272 -5.331201E-08 -0.4472136
vn 0.6324555 0.6324555 -0.4472137
vn 0 -0.8944274 -0.4472135
vn 0.6324555 -0.6324556 -0.4472136
vn -0.6324555 -0.6324556 -0.4472136
vn -0.8944272 -5.331201E-08 -0.4472136
vn 0 0.8944272 -0.4472138
vn -0.6324555 0.6324555 -0.4472137
vn -0.4290275 -0.4290275 -0.794903
vn -0.6067365 -9.475981E-08 -0.794903
vn -0.5004716 -0.5004716 -0.7064392
vn -0.7077736 -8.421411E-08 -0.7064393
vn 0.7077736 -8.421411E-08 -0.7064393
vn 0.6067365 -9.475981E-08 -0.794903
vn 0.5004716 -0.5004716 -0.7064392
vn 0.4290275 -0.4290275 -0.794903
vn 0 -0.6067365 -0.794903
vn 0 -0.7077737 -0.7064393
vn 0 0.6067364 -0.7949032
vn 0 0.7077734 -0.7064394
vn -0.4290275 0.4290273 -0.794903
vn -0.5004716 0.5004714 -0.7064393
vn 0.5004716 0.5004714 -0.7064393
vn 0.4290275 0.4290273 -0.794903
vn 0.2684598 -1.148332E-07 -0.9632909
vn 0.1898298 0.1898296 -0.9632909
vn 0.1898298 -0.1898298 -0.9632909
vn 0 -0.2684599 -0.9632908
vn 0 0.2684596 -0.9632909
vn -0.1898298 -0.1898298 -0.9632909
vn -0.1898298 0.1898296 -0.9632909
vn -0.2684598 -1.148332E-07 -0.9632909
vn 0.309754 -1.133462E-07 -0.9508168
vn 0.2190291 -0.2190292 -0.9508168
vn 0 -0.3097541 -0.9508168
vn -0.2190291 -0.2190292 -0.9508168
vn -0.309754 -1.133462E-07 -0.9508168
vn 0 0.3097539 -0.9508169
vn -0.2190291 0.219029 -0.9508168
vn 0.2190291 0.219029 -0.9508168

vt 0.46875 0.025
vt 0.46875 0.175
vt 0.46875 0.225
vt 0.46875 0.1967405
vt 0.46875 0.145
vt 0.96875 0.075
vt 0.96875 0.1220588
vt 0.96875 0.175

usemtl colormap

f 3/2/3 2/1/2 1/1/1
f 2/1/2 3/2/3 4/2/4
f 7/2/7 6/1/6 5/1/5
f 6/1/6 7/2/7 8/2/8
f 4/2/4 9/1/9 2/1/2
f 9/1/9 4/2/4 10/2/10
f 11/1/11 7/2/7 5/1/5
f 7/2/7 11/1/11 12/2/12
f 8/2/8 13/1/13 6/1/6
f 13/1/13 8/2/8 14/2/14
f 15/2/15 13/1/13 14/2/14
f 13/1/13 15/2/15 16/1/16
f 9/1/9 12/2/12 11/1/11
f 12/2/12 9/1/9 10/2/10
f 3/2/3 16/1/16 15/2/15
f 16/1/16 3/2/3 1/1/1
f 12/2/12 18/3/18 17/3/17
f 18/3/18 12/2/12 10/2/10
f 3/2/3 19/3/19 4/2/4
f 19/3/19 3/2/3 20/3/20
f 15/2/15 20/3/20 3/2/3
f 20/3/20 15/2/15 21/3/21
f 23/3/23 8/2/8 22/3/22
f 8/2/8 23/3/23 14/2/14
f 22/3/22 7/2/7 24/3/24
f 7/2/7 22/3/22 8/2/8
f 24/3/24 12/2/12 17/3/17
f 12/2/12 24/3/24 7/2/7
f 10/2/10 19/3/19 18/3/18
f 19/3/19 10/2/10 4/2/4
f 23/3/23 15/2/15 14/2/14
f 15/2/15 23/3/23 21/3/21
f 27/2/25 26/1/1 25/1/2
f 26/1/1 27/2/25 28/2/26
f 31/2/28 30/1/16 29/2/27
f 30/1/16 31/2/28 32/1/13
f 35/2/29 34/1/5 33/1/6
f 34/1/5 35/2/29 36/2/30
f 31/2/28 33/1/6 32/1/13
f 33/1/6 31/2/28 35/2/29
f 29/2/27 26/1/1 28/2/26
f 26/1/1 29/2/27 30/1/16
f 34/1/5 38/2/31 37/1/11
f 38/2/31 34/1/5 36/2/30
f 40/2/32 25/1/2 39/1/9
f 25/1/2 40/2/32 27/2/25
f 37/1/11 40/2/32 39/1/9
f 40/2/32 37/1/11 38/2/31
f 41/3/22 36/2/30 35/2/29
f 36/2/30 41/3/22 42/3/24
f 43/3/21 31/2/28 29/2/27
f 31/2/28 43/3/21 44/3/23
f 44/3/23 35/2/29 31/2/28
f 35/2/29 44/3/23 41/3/22
f 28/2/26 43/3/21 29/2/27
f 43/3/21 28/2/26 45/3/20
f 46/3/17 36/2/30 42/3/24
f 36/2/30 46/3/17 38/2/31
f 27/2/25 45/3/20 28/2/26
f 45/3/20 27/2/25 47/3/19
f 40/2/32 46/3/17 48/3/18
f 46/3/17 40/2/32 38/2/31
f 40/2/32 47/3/19 27/2/25
f 47/3/19 40/2/32 48/3/18
f 41/3/33 18/3/33 19/3/33
f 41/3/33 19/3/33 20/3/33
f 44/3/33 18/3/33 41/3/33
f 41/3/33 20/3/33 42/3/33
f 44/3/33 17/3/33 18/3/33
f 17/3/33 44/3/33 43/3/33
f 45/3/33 17/3/33 43/3/33
f 17/3/33 45/3/33 24/3/33
f 24/3/33 45/3/33 47/3/33
f 24/3/33 47/3/33 22/3/33
f 42/3/33 20/3/33 21/3/33
f 42/3/33 21/3/33 46/3/33
f 22/3/33 47/3/33 48/3/33
f 21/3/33 48/3/33 46/3/33
f 22/3/33 48/3/33 23/3/33
f 23/3/33 48/3/33 21/3/33
f 25/1/34 5/1/34 6/1/34
f 25/1/34 6/1/34 13/1/34
f 26/1/34 5/1/34 25/1/34
f 25/1/34 13/1/34 39/1/34
f 26/1/34 11/1/34 5/1/34
f 11/1/34 26/1/34 30/1/34
f 32/1/34 11/1/34 30/1/34
f 11/1/34 32/1/34 9/1/34
f 39/1/34 13/1/34 16/1/34
f 39/1/34 16/1/34 37/1/34
f 16/1/34 34/1/34 37/1/34
f 1/1/34 34/1/34 16/1/34
f 9/1/34 32/1/34 33/1/34
f 1/1/34 33/1/34 34/1/34
f 9/1/34 33/1/34 2/1/34
f 2/1/34 33/1/34 1/1/34
f 51/3/37 50/3/36 49/3/35
f 50/3/36 51/3/37 52/3/38
f 50/3/36 52/3/38 53/3/39
f 53/3/39 52/3/38 54/3/40
f 54/3/40 52/3/38 55/3/41
f 54/3/40 55/3/41 56/3/42
f 50/3/36 57/1/43 49/3/35
f 57/1/43 50/3/36 58/1/44
f 52/3/38 60/1/46 59/1/45
f 60/1/46 52/3/38 51/3/37
f 55/3/41 59/1/45 61/1/47
f 59/1/45 55/3/41 52/3/38
f 62/1/48 55/3/41 61/1/47
f 55/3/41 62/1/48 56/3/42
f 50/3/36 63/1/49 58/1/44
f 63/1/49 50/3/36 53/3/39
f 51/3/37 57/1/43 60/1/46
f 57/1/43 51/3/37 49/3/35
f 64/1/50 56/3/42 62/1/48
f 56/3/42 64/1/50 54/3/40
f 53/3/39 64/1/50 63/1/49
f 64/1/50 53/3/39 54/3/40
f 67/3/37 66/3/36 65/3/35
f 66/3/36 67/3/37 68/3/38
f 66/3/36 68/3/38 69/3/39
f 69/3/39 68/3/38 70/3/40
f 70/3/40 68/3/38 71/3/41
f 70/3/40 71/3/41 72/3/42
f 66/3/36 73/1/43 65/3/35
f 73/1/43 66/3/36 74/1/44
f 68/3/38 76/1/46 75/1/45
f 76/1/46 68/3/38 67/3/37
f 71/3/41 75/1/45 77/1/47
f 75/1/45 71/3/41 68/3/38
f 78/1/48 71/3/41 77/1/47
f 71/3/41 78/1/48 72/3/42
f 66/3/36 79/1/49 74/1/44
f 79/1/49 66/3/36 69/3/39
f 67/3/37 73/1/43 76/1/46
f 73/1/43 67/3/37 65/3/35
f 80/1/50 72/3/42 78/1/48
f 72/3/42 80/1/50 70/3/40
f 69/3/39 80/1/50 79/1/49
f 80/1/50 69/3/39 70/3/40
f 83/3/37 82/3/36 81/3/35
f 82/3/36 83/3/37 84/3/38
f 82/3/36 84/3/38 85/3/39
f 85/3/39 84/3/38 86/3/40
f 86/3/40 84/3/38 87/3/41
f 86/3/40 87/3/41 88/3/42
f 82/3/36 89/1/43 81/3/35
f 89/1/43 82/3/36 90/1/44
f 84/3/38 92/1/46 91/1/45
f 92/1/46 84/3/38 83/3/37
f 87/3/41 91/1/45 93/1/47
f 91/1/45 87/3/41 84/3/38
f 94/1/48 87/3/41 93/1/47
f 87/3/41 94/1/48 88/3/42
f 82/3/36 95/1/49 90/1/44
f 95/1/49 82/3/36 85/3/39
f 83/3/37 89/1/43 92/1/46
f 89/1/43 83/3/37 81/3/35
f 96/1/50 88/3/42 94/1/48
f 88/3/42 96/1/50 86/3/40
f 85/3/39 96/1/50 95/1/49
f 96/1/50 85/3/39 86/3/40
f 99/3/37 98/3/36 97/3/35
f 98/3/36 99/3/37 100/3/38
f 98/3/36 100/3/38 101/3/39
f 101/3/39 100/3/38 102/3/40
f 102/3/40 100/3/38 103/3/41
f 102/3/40 103/3/41 104/3/42
f 98/3/36 105/1/43 97/3/35
f 105/1/43 98/3/36 106/1/44
f 100/3/38 108/1/46 107/1/45
f 108/1/46 100/3/38 99/3/37
f 103/3/41 107/1/45 109/1/47
f 107/1/45 103/3/41 100/3/38
f 110/1/48 103/3/41 109/1/47
f 103/3/41 110/1/48 104/3/42
f 98/3/36 111/1/49 106/1/44
f 111/1/49 98/3/36 101/3/39
f 99/3/37 105/1/43 108/1/46
f 105/1/43 99/3/37 97/3/35
f 112/1/50 104/3/42 110/1/48
f 104/3/42 112/1/50 102/3/40
f 101/3/39 112/1/50 111/1/49
f 112/1/50 101/3/39 102/3/40
f 115/3/37 114/3/36 113/3/35
f 114/3/36 115/3/37 116/3/38
f 114/3/36 116/3/38 117/3/39
f 117/3/39 116/3/38 118/3/40
f 118/3/40 116/3/38 119/3/41
f 118/3/40 119/3/41 120/3/42
f 114/3/36 121/1/43 113/3/35
f 121/1/43 114/3/36 122/1/44
f 116/3/38 124/1/46 123/1/45
f 124/1/46 116/3/38 115/3/37
f 119/3/41 123/1/45 125/1/47
f 123/1/45 119/3/41 116/3/38
f 126/1/48 119/3/41 125/1/47
f 119/3/41 126/1/48 120/3/42
f 114/3/36 127/1/49 122/1/44
f 127/1/49 114/3/36 117/3/39
f 115/3/37 121/1/43 124/1/46
f 121/1/43 115/3/37 113/3/35
f 128/1/50 120/3/42 126/1/48
f 120/3/42 128/1/50 118/3/40
f 117/3/39 128/1/50 127/1/49
f 128/1/50 117/3/39 118/3/40
f 131/3/37 130/3/36 129/3/35
f 130/3/36 131/3/37 132/3/38
f 130/3/36 132/3/38 133/3/39
f 133/3/39 132/3/38 134/3/40
f 134/3/40 132/3/38 135/3/41
f 134/3/40 135/3/41 136/3/42
f 130/3/36 137/1/43 129/3/35
f 137/1/43 130/3/36 138/1/44
f 132/3/38 140/1/46 139/1/45
f 140/1/46 132/3/38 131/3/37
f 135/3/41 139/1/45 141/1/47
f 139/1/45 135/3/41 132/3/38
f 142/1/48 135/3/41 141/1/47
f 135/3/41 142/1/48 136/3/42
f 130/3/36 143/1/49 138/1/44
f 143/1/49 130/3/36 133/3/39
f 131/3/37 137/1/43 140/1/46
f 137/1/43 131/3/37 129/3/35
f 144/1/50 136/3/42 142/1/48
f 136/3/42 144/1/50 134/3/40
f 133/3/39 144/1/50 143/1/49
f 144/1/50 133/3/39 134/3/40
f 147/3/37 146/3/36 145/3/35
f 146/3/36 147/3/37 148/3/38
f 146/3/36 148/3/38 149/3/39
f 149/3/39 148/3/38 150/3/40
f 150/3/40 148/3/38 151/3/41
f 150/3/40 151/3/41 152/3/42
f 146/3/36 153/1/43 145/3/35
f 153/1/43 146/3/36 154/1/44
f 148/3/38 156/1/46 155/1/45
f 156/1/46 148/3/38 147/3/37
f 151/3/41 155/1/45 157/1/47
f 155/1/45 151/3/41 148/3/38
f 158/1/48 151/3/41 157/1/47
f 151/3/41 158/1/48 152/3/42
f 146/3/36 159/1/49 154/1/44
f 159/1/49 146/3/36 149/3/39
f 147/3/37 153/1/43 156/1/46
f 153/1/43 147/3/37 145/3/35
f 160/1/50 152/3/42 158/1/48
f 152/3/42 160/1/50 150/3/40
f 149/3/39 160/1/50 159/1/49
f 160/1/50 149/3/39 150/3/40
f 163/3/37 162/3/36 161/3/35
f 162/3/36 163/3/37 164/3/38
f 162/3/36 164/3/38 165/3/39
f 165/3/39 164/3/38 166/3/40
f 166/3/40 164/3/38 167/3/41
f 166/3/40 167/3/41 168/3/42
f 162/3/36 169/1/43 161/3/35
f 169/1/43 162/3/36 170/1/44
f 164/3/38 172/1/46 171/1/45
f 172/1/46 164/3/38 163/3/37
f 167/3/41 171/1/45 173/1/47
f 171/1/45 167/3/41 164/3/38
f 174/1/48 167/3/41 173/1/47
f 167/3/41 174/1/48 168/3/42
f 162/3/36 175/1/49 170/1/44
f 175/1/49 162/3/36 165/3/39
f 163/3/37 169/1/43 172/1/46
f 169/1/43 163/3/37 161/3/35
f 176/1/50 168/3/42 174/1/48
f 168/3/42 176/1/50 166/3/40
f 165/3/39 176/1/50 175/1/49
f 176/1/50 165/3/39 166/3/40
f 179/5/53 178/4/52 177/4/51
f 178/4/52 179/5/53 180/5/54
f 183/5/57 182/4/56 181/5/55
f 182/4/56 183/5/57 184/4/58
f 186/5/60 177/4/51 185/4/59
f 177/4/51 186/5/60 179/5/53
f 189/4/63 188/5/62 187/4/61
f 188/5/62 189/4/63 190/5/64
f 192/4/66 188/5/62 191/5/65
f 188/5/62 192/4/66 187/4/61
f 182/4/56 191/5/65 181/5/55
f 191/5/65 182/4/56 192/4/66
f 186/5/60 184/4/58 183/5/57
f 184/4/58 186/5/60 185/4/59
f 178/4/52 190/5/64 189/4/63
f 190/5/64 178/4/52 180/5/54
f 195/3/69 194/3/68 193/3/67
f 194/3/68 195/3/69 196/3/70
f 194/3/68 196/3/70 197/3/71
f 197/3/71 196/3/70 198/3/72
f 197/3/71 198/3/72 199/3/73
f 199/3/73 198/3/72 200/3/74
f 177/4/51 196/3/70 185/4/59
f 196/3/70 177/4/51 198/3/72
f 194/3/68 187/4/61 192/4/66
f 187/4/61 194/3/68 197/3/71
f 193/3/67 192/4/66 182/4/56
f 192/4/66 193/3/67 194/3/68
f 184/4/58 193/3/67 182/4/56
f 193/3/67 184/4/58 195/3/69
f 197/3/71 189/4/63 187/4/61
f 189/4/63 197/3/71 199/3/73
f 200/3/74 189/4/63 199/3/73
f 189/4/63 200/3/74 178/4/52
f 177/4/51 200/3/74 198/3/72
f 200/3/74 177/4/51 178/4/52
f 185/4/59 195/3/69 184/4/58
f 195/3/69 185/4/59 196/3/70
f 9/6/34 5/6/34 11/6/34
f 5/6/34 9/6/34 6/6/34
f 6/6/34 9/6/34 2/6/34
f 6/6/34 2/6/34 13/6/34
f 13/6/34 2/6/34 1/6/34
f 13/6/34 1/6/34 16/6/34
f 202/7/76 181/8/75 201/7/75
f 181/8/75 202/7/76 203/8/76
f 206/7/78 205/8/77 204/7/77
f 205/8/77 206/7/78 207/8/78
f 206/7/78 180/8/79 207/8/78
f 180/8/79 206/7/78 208/7/79
f 211/8/81 210/7/80 209/8/80
f 210/7/80 211/8/81 212/7/81
f 180/8/79 212/7/81 211/8/81
f 212/7/81 180/8/79 208/7/79
f 214/8/82 210/7/80 213/7/82
f 210/7/80 214/8/82 209/8/80
f 181/8/75 213/7/82 201/7/75
f 213/7/82 181/8/75 214/8/82
f 204/7/77 203/8/76 202/7/76
f 203/8/76 204/7/77 205/8/77
f 203/8/33 214/8/33 181/8/33
f 214/8/33 203/8/33 205/8/33
f 214/8/33 205/8/33 209/8/33
f 209/8/33 205/8/33 207/8/33
f 209/8/33 207/8/33 211/8/33
f 211/8/33 207/8/33 180/8/33

g shield-round-a




usemtl colormap

f 3/2/3 2/1/2 1/1/1
f 2/1/2 3/2/3 4/2/4
f 7/2/7 6/1/6 5/1/5
f 6/1/6 7/2/7 8/2/8
f 4/2/4 9/1/9 2/1/2
f 9/1/9 4/2/4 10/2/10
f 11/1/11 7/2/7 5/1/5
f 7/2/7 11/1/11 12/2/12
f 8/2/8 13/1/13 6/1/6
f 13/1/13 8/2/8 14/2/14
f 15/2/15 13/1/13 14/2/14
f 13/1/13 15/2/15 16/1/16
f 9/1/9 12/2/12 11/1/11
f 12/2/12 9/1/9 10/2/10
f 3/2/3 16/1/16 15/2/15
f 16/1/16 3/2/3 1/1/1
f 12/2/12 18/3/18 17/3/17
f 18/3/18 12/2/12 10/2/10
f 3/2/3 19/3/19 4/2/4
f 19/3/19 3/2/3 20/3/20
f 15/2/15 20/3/20 3/2/3
f 20/3/20 15/2/15 21/3/21
f 23/3/23 8/2/8 22/3/22
f 8/2/8 23/3/23 14/2/14
f 22/3/22 7/2/7 24/3/24
f 7/2/7 22/3/22 8/2/8
f 24/3/24 12/2/12 17/3/17
f 12/2/12 24/3/24 7/2/7
f 10/2/10 19/3/19 18/3/18
f 19/3/19 10/2/10 4/2/4
f 23/3/23 15/2/15 14/2/14
f 15/2/15 23/3/23 21/3/21
f 27/2/25 26/1/1 25/1/2
f 26/1/1 27/2/25 28/2/26
f 31/2/28 30/1/16 29/2/27
f 30/1/16 31/2/28 32/1/13
f 35/2/29 34/1/5 33/1/6
f 34/1/5 35/2/29 36/2/30
f 31/2/28 33/1/6 32/1/13
f 33/1/6 31/2/28 35/2/29
f 29/2/27 26/1/1 28/2/26
f 26/1/1 29/2/27 30/1/16
f 34/1/5 38/2/31 37/1/11
f 38/2/31 34/1/5 36/2/30
f 40/2/32 25/1/2 39/1/9
f 25/1/2 40/2/32 27/2/25
f 37/1/11 40/2/32 39/1/9
f 40/2/32 37/1/11 38/2/31
f 41/3/22 36/2/30 35/2/29
f 36/2/30 41/3/22 42/3/24
f 43/3/21 31/2/28 29/2/27
f 31/2/28 43/3/21 44/3/23
f 44/3/23 35/2/29 31/2/28
f 35/2/29 44/3/23 41/3/22
f 28/2/26 43/3/21 29/2/27
f 43/3/21 28/2/26 45/3/20
f 46/3/17 36/2/30 42/3/24
f 36/2/30 46/3/17 38/2/31
f 27/2/25 45/3/20 28/2/26
f 45/3/20 27/2/25 47/3/19
f 40/2/32 46/3/17 48/3/18
f 46/3/17 40/2/32 38/2/31
f 40/2/32 47/3/19 27/2/25
f 47/3/19 40/2/32 48/3/18
f 41/3/33 18/3/33 19/3/33
f 41/3/33 19/3/33 20/3/33
f 44/3/33 18/3/33 41/3/33
f 41/3/33 20/3/33 42/3/33
f 44/3/33 17/3/33 18/3/33
f 17/3/33 44/3/33 43/3/33
f 45/3/33 17/3/33 43/3/33
f 17/3/33 45/3/33 24/3/33
f 24/3/33 45/3/33 47/3/33
f 24/3/33 47/3/33 22/3/33
f 42/3/33 20/3/33 21/3/33
f 42/3/33 21/3/33 46/3/33
f 22/3/33 47/3/33 48/3/33
f 21/3/33 48/3/33 46/3/33
f 22/3/33 48/3/33 23/3/33
f 23/3/33 48/3/33 21/3/33
f 25/1/34 5/1/34 6/1/34
f 25/1/34 6/1/34 13/1/34
f 26/1/34 5/1/34 25/1/34
f 25/1/34 13/1/34 39/1/34
f 26/1/34 11/1/34 5/1/34
f 11/1/34 26/1/34 30/1/34
f 32/1/34 11/1/34 30/1/34
f 11/1/34 32/1/34 9/1/34
f 39/1/34 13/1/34 16/1/34
f 39/1/34 16/1/34 37/1/34
f 16/1/34 34/1/34 37/1/34
f 1/1/34 34/1/34 16/1/34
f 9/1/34 32/1/34 33/1/34
f 1/1/34 33/1/34 34/1/34
f 9/1/34 33/1/34 2/1/34
f 2/1/34 33/1/34 1/1/34
f 51/3/37 50/3/36 49/3/35
f 50/3/36 51/3/37 52/3/38
f 50/3/36 52/3/38 53/3/39
f 53/3/39 52/3/38 54/3/40
f 54/3/40 52/3/38 55/3/41
f 54/3/40 55/3/41 56/3/42
f 50/3/36 57/1/43 49/3/35
f 57/1/43 50/3/36 58/1/44
f 52/3/38 60/1/46 59/1/45
f 60/1/46 52/3/38 51/3/37
f 55/3/41 59/1/45 61/1/47
f 59/1/45 55/3/41 52/3/38
f 62/1/48 55/3/41 61/1/47
f 55/3/41 62/1/48 56/3/42
f 50/3/36 63/1/49 58/1/44
f 63/1/49 50/3/36 53/3/39
f 51/3/37 57/1/43 60/1/46
f 57/1/43 51/3/37 49/3/35
f 64/1/50 56/3/42 62/1/48
f 56/3/42 64/1/50 54/3/40
f 53/3/39 64/1/50 63/1/49
f 64/1/50 53/3/39 54/3/40
f 67/3/37 66/3/36 65/3/35
f 66/3/36 67/3/37 68/3/38
f 66/3/36 68/3/38 69/3/39
f 69/3/39 68/3/38 70/3/40
f 70/3/40 68/3/38 71/3/41
f 70/3/40 71/3/41 72/3/42
f 66/3/36 73/1/43 65/3/35
f 73/1/43 66/3/36 74/1/44
f 68/3/38 76/1/46 75/1/45
f 76/1/46 68/3/38 67/3/37
f 71/3/41 75/1/45 77/1/47
f 75/1/45 71/3/41 68/3/38
f 78/1/48 71/3/41 77/1/47
f 71/3/41 78/1/48 72/3/42
f 66/3/36 79/1/49 74/1/44
f 79/1/49 66/3/36 69/3/39
f 67/3/37 73/1/43 76/1/46
f 73/1/43 67/3/37 65/3/35
f 80/1/50 72/3/42 78/1/48
f 72/3/42 80/1/50 70/3/40
f 69/3/39 80/1/50 79/1/49
f 80/1/50 69/3/39 70/3/40
f 83/3/37 82/3/36 81/3/35
f 82/3/36 83/3/37 84/3/38
f 82/3/36 84/3/38 85/3/39
f 85/3/39 84/3/38 86/3/40
f 86/3/40 84/3/38 87/3/41
f 86/3/40 87/3/41 88/3/42
f 82/3/36 89/1/43 81/3/35
f 89/1/43 82/3/36 90/1/44
f 84/3/38 92/1/46 91/1/45
f 92/1/46 84/3/38 83/3/37
f 87/3/41 91/1/45 93/1/47
f 91/1/45 87/3/41 84/3/38
f 94/1/48 87/3/41 93/1/47
f 87/3/41 94/1/48 88/3/42
f 82/3/36 95/1/49 90/1/44
f 95/1/49 82/3/36 85/3/39
f 83/3/37 89/1/43 92/1/46
f 89/1/43 83/3/37 81/3/35
f 96/1/50 88/3/42 94/1/48
f 88/3/42 96/1/50 86/3/40
f 85/3/39 96/1/50 95/1/49
f 96/1/50 85/3/39 86/3/40
f 99/3/37 98/3/36 97/3/35
f 98/3/36 99/3/37 100/3/38
f 98/3/36 100/3/38 101/3/39
f 101/3/39 100/3/38 102/3/40
f 102/3/40 100/3/38 103/3/41
f 102/3/40 103/3/41 104/3/42
f 98/3/36 105/1/43 97/3/35
f 105/1/43 98/3/36 106/1/44
f 100/3/38 108/1/46 107/1/45
f 108/1/46 100/3/38 99/3/37
f 103/3/41 107/1/45 109/1/47
f 107/1/45 103/3/41 100/3/38
f 110/1/48 103/3/41 109/1/47
f 103/3/41 110/1/48 104/3/42
f 98/3/36 111/1/49 106/1/44
f 111/1/49 98/3/36 101/3/39
f 99/3/37 105/1/43 108/1/46
f 105/1/43 99/3/37 97/3/35
f 112/1/50 104/3/42 110/1/48
f 104/3/42 112/1/50 102/3/40
f 101/3/39 112/1/50 111/1/49
f 112/1/50 101/3/39 102/3/40
f 115/3/37 114/3/36 113/3/35
f 114/3/36 115/3/37 116/3/38
f 114/3/36 116/3/38 117/3/39
f 117/3/39 116/3/38 118/3/40
f 118/3/40 116/3/38 119/3/41
f 118/3/40 119/3/41 120/3/42
f 114/3/36 121/1/43 113/3/35
f 121/1/43 114/3/36 122/1/44
f 116/3/38 124/1/46 123/1/45
f 124/1/46 116/3/38 115/3/37
f 119/3/41 123/1/45 125/1/47
f 123/1/45 119/3/41 116/3/38
f 126/1/48 119/3/41 125/1/47
f 119/3/41 126/1/48 120/3/42
f 114/3/36 127/1/49 122/1/44
f 127/1/49 114/3/36 117/3/39
f 115/3/37 121/1/43 124/1/46
f 121/1/43 115/3/37 113/3/35
f 128/1/50 120/3/42 126/1/48
f 120/3/42 128/1/50 118/3/40
f 117/3/39 128/1/50 127/1/49
f 128/1/50 117/3/39 118/3/40
f 131/3/37 130/3/36 129/3/35
f 130/3/36 131/3/37 132/3/38
f 130/3/36 132/3/38 133/3/39
f 133/3/39 132/3/38 134/3/40
f 134/3/40 132/3/38 135/3/41
f 134/3/40 135/3/41 136/3/42
f 130/3/36 137/1/43 129/3/35
f 137/1/43 130/3/36 138/1/44
f 132/3/38 140/1/46 139/1/45
f 140/1/46 132/3/38 131/3/37
f 135/3/41 139/1/45 141/1/47
f 139/1/45 135/3/41 132/3/38
f 142/1/48 135/3/41 141/1/47
f 135/3/41 142/1/48 136/3/42
f 130/3/36 143/1/49 138/1/44
f 143/1/49 130/3/36 133/3/39
f 131/3/37 137/1/43 140/1/46
f 137/1/43 131/3/37 129/3/35
f 144/1/50 136/3/42 142/1/48
f 136/3/42 144/1/50 134/3/40
f 133/3/39 144/1/50 143/1/49
f 144/1/50 133/3/39 134/3/40
f 147/3/37 146/3/36 145/3/35
f 146/3/36 147/3/37 148/3/38
f 146/3/36 148/3/38 149/3/39
f 149/3/39 148/3/38 150/3/40
f 150/3/40 148/3/38 151/3/41
f 150/3/40 151/3/41 152/3/42
f 146/3/36 153/1/43 145/3/35
f 153/1/43 146/3/36 154/1/44
f 148/3/38 156/1/46 155/1/45
f 156/1/46 148/3/38 147/3/37
f 151/3/41 155/1/45 157/1/47
f 155/1/45 151/3/41 148/3/38
f 158/1/48 151/3/41 157/1/47
f 151/3/41 158/1/48 152/3/42
f 146/3/36 159/1/49 154/1/44
f 159/1/49 146/3/36 149/3/39
f 147/3/37 153/1/43 156/1/46
f 153/1/43 147/3/37 145/3/35
f 160/1/50 152/3/42 158/1/48
f 152/3/42 160/1/50 150/3/40
f 149/3/39 160/1/50 159/1/49
f 160/1/50 149/3/39 150/3/40
f 163/3/37 162/3/36 161/3/35
f 162/3/36 163/3/37 164/3/38
f 162/3/36 164/3/38 165/3/39
f 165/3/39 164/3/38 166/3/40
f 166/3/40 164/3/38 167/3/41
f 166/3/40 167/3/41 168/3/42
f 162/3/36 169/1/43 161/3/35
f 169/1/43 162/3/36 170/1/44
f 164/3/38 172/1/46 171/1/45
f 172/1/46 164/3/38 163/3/37
f 167/3/41 171/1/45 173/1/47
f 171/1/45 167/3/41 164/3/38
f 174/1/48 167/3/41 173/1/47
f 167/3/41 174/1/48 168/3/42
f 162/3/36 175/1/49 170/1/44
f 175/1/49 162/3/36 165/3/39
f 163/3/37 169/1/43 172/1/46
f 169/1/43 163/3/37 161/3/35
f 176/1/50 168/3/42 174/1/48
f 168/3/42 176/1/50 166/3/40
f 165/3/39 176/1/50 175/1/49
f 176/1/50 165/3/39 166/3/40
f 179/5/53 178/4/52 177/4/51
f 178/4/52 179/5/53 180/5/54
f 183/5/57 182/4/56 181/5/55
f 182/4/56 183/5/57 184/4/58
f 186/5/60 177/4/51 185/4/59
f 177/4/51 186/5/60 179/5/53
f 189/4/63 188/5/62 187/4/61
f 188/5/62 189/4/63 190/5/64
f 192/4/66 188/5/62 191/5/65
f 188/5/62 192/4/66 187/4/61
f 182/4/56 191/5/65 181/5/55
f 191/5/65 182/4/56 192/4/66
f 186/5/60 184/4/58 183/5/57
f 184/4/58 186/5/60 185/4/59
f 178/4/52 190/5/64 189/4/63
f 190/5/64 178/4/52 180/5/54
f 195/3/69 194/3/68 193/3/67
f 194/3/68 195/3/69 196/3/70
f 194/3/68 196/3/70 197/3/71
f 197/3/71 196/3/70 198/3/72
f 197/3/71 198/3/72 199/3/73
f 199/3/73 198/3/72 200/3/74
f 177/4/51 196/3/70 185/4/59
f 196/3/70 177/4/51 198/3/72
f 194/3/68 187/4/61 192/4/66
f 187/4/61 194/3/68 197/3/71
f 193/3/67 192/4/66 182/4/56
f 192/4/66 193/3/67 194/3/68
f 184/4/58 193/3/67 182/4/56
f 193/3/67 184/4/58 195/3/69
f 197/3/71 189/4/63 187/4/61
f 189/4/63 197/3/71 199/3/73
f 200/3/74 189/4/63 199/3/73
f 189/4/63 200/3/74 178/4/52
f 177/4/51 200/3/74 198/3/72
f 200/3/74 177/4/51 178/4/52
f 185/4/59 195/3/69 184/4/58
f 195/3/69 185/4/59 196/3/70
f 9/6/34 5/6/34 11/6/34
f 5/6/34 9/6/34 6/6/34
f 6/6/34 9/6/34 2/6/34
f 6/6/34 2/6/34 13/6/34
f 13/6/34 2/6/34 1/6/34
f 13/6/34 1/6/34 16/6/34
f 202/7/76 181/8/75 201/7/75
f 181/8/75 202/7/76 203/8/76
f 206/7/78 205/8/77 204/7/77
f 205/8/77 206/7/78 207/8/78
f 206/7/78 180/8/79 207/8/78
f 180/8/79 206/7/78 208/7/79
f 211/8/81 210/7/80 209/8/80
f 210/7/80 211/8/81 212/7/81
f 180/8/79 212/7/81 211/8/81
f 212/7/81 180/8/79 208/7/79
f 214/8/82 210/7/80 213/7/82
f 210/7/80 214/8/82 209/8/80
f 181/8/75 213/7/82 201/7/75
f 213/7/82 181/8/75 214/8/82
f 204/7/77 203/8/76 202/7/76
f 203/8/76 204/7/77 205/8/77
f 203/8/33 214/8/33 181/8/33
f 214/8/33 203/8/33 205/8/33
f 214/8/33 205/8/33 209/8/33
f 209/8/33 205/8/33 207/8/33
f 209/8/33 207/8/33 211/8/33
f 211/8/33 207/8/33 180/8/33

