# Created by Kenney (www.kenney.nl)

mtllib spear-a.mtl

g spear-a

v 0.09375 4.298081 -0.09375 1 1 1
v 0.09375 0.348081 -0.09375 1 1 1
v 0.09375 4.298081 0.09375 1 1 1
v 0.09375 0.348081 0.09375 1 1 1
v 0.0004819689 0 0.09375 1 1 1
v -0.1713768 0.04604942 0.09375 1 1 1
v -0.2201736 0.1626521 0.09375 1 1 1
v -0.09375 0.3853551 0.09375 1 1 1
v -0.09375 4.298081 0.09375 1 1 1
v -0.09375 0.3853551 -0.09375 1 1 1
v -0.09375 4.298081 -0.09375 1 1 1
v 0.0004819689 0 -0.09375 1 1 1
v -0.1713768 0.04604942 -0.09375 1 1 1
v -0.2201736 0.1626521 -0.09375 1 1 1
v 0.16875 2.923081 -0.09375 1 1 1
v 0.16875 2.773081 -0.09375 1 1 1
v 0.16875 2.923081 0.09375 1 1 1
v 0.16875 2.773081 0.09375 1 1 1
v 0.09375 2.773081 0.16875 1 1 1
v -0.09375 2.773081 0.16875 1 1 1
v 0.09375 2.923081 0.16875 1 1 1
v -0.09375 2.923081 0.16875 1 1 1
v -0.09375 2.773081 -0.16875 1 1 1
v 0.09375 2.773081 -0.16875 1 1 1
v -0.09375 2.923081 -0.16875 1 1 1
v 0.09375 2.923081 -0.16875 1 1 1
v -0.16875 2.773081 -0.09375 1 1 1
v -0.16875 2.923081 -0.09375 1 1 1
v -0.16875 2.773081 0.09375 1 1 1
v -0.16875 2.923081 0.09375 1 1 1
v 0.1265625 2.623081 0.0703125 1 1 1
v 0.1265625 2.623081 -0.0703125 1 1 1
v 0.0703125 2.623081 0.1265625 1 1 1
v 0.0703125 2.623081 -0.1265625 1 1 1
v -0.0703125 2.623081 0.1265625 1 1 1
v -0.0703125 2.623081 -0.1265625 1 1 1
v -0.1265625 2.623081 0.0703125 1 1 1
v -0.1265625 2.623081 -0.0703125 1 1 1
v -0.16875 0.673081 -0.09375 1 1 1
v -0.16875 0.823081 -0.09375 1 1 1
v -0.16875 0.673081 0.09375 1 1 1
v -0.16875 0.823081 0.09375 1 1 1
v -0.09375 0.823081 0.16875 1 1 1
v 0.09375 0.823081 0.16875 1 1 1
v -0.09375001 0.673081 0.16875 1 1 1
v 0.09374999 0.673081 0.16875 1 1 1
v 0.09375 0.823081 -0.16875 1 1 1
v -0.09375 0.823081 -0.16875 1 1 1
v 0.09374999 0.673081 -0.16875 1 1 1
v -0.09375001 0.673081 -0.16875 1 1 1
v 0.16875 0.823081 -0.09375 1 1 1
v 0.16875 0.673081 -0.09375 1 1 1
v 0.16875 0.823081 0.09375 1 1 1
v 0.16875 0.673081 0.09375 1 1 1
v -0.1265625 0.973081 0.0703125 1 1 1
v -0.1265625 0.973081 -0.0703125 1 1 1
v -0.0703125 0.973081 0.1265625 1 1 1
v -0.0703125 0.973081 -0.1265625 1 1 1
v 0.0703125 0.973081 0.1265625 1 1 1
v 0.0703125 0.973081 -0.1265625 1 1 1
v 0.1265625 0.973081 0.0703125 1 1 1
v 0.1265625 0.973081 -0.0703125 1 1 1
v -0.16875 4.298081 -0.09375 1 1 1
v -0.16875 4.448081 -0.09375 1 1 1
v -0.16875 4.298081 0.09375 1 1 1
v -0.16875 4.448081 0.09375 1 1 1
v -0.09375 4.448081 0.16875 1 1 1
v 0.09375 4.448081 0.16875 1 1 1
v -0.09375 4.298081 0.16875 1 1 1
v 0.09375 4.298081 0.16875 1 1 1
v 0.09375 4.448081 -0.16875 1 1 1
v -0.09375 4.448081 -0.16875 1 1 1
v 0.09375 4.298081 -0.16875 1 1 1
v -0.09375 4.298081 -0.16875 1 1 1
v 0.16875 4.448081 -0.09375 1 1 1
v 0.16875 4.298081 -0.09375 1 1 1
v 0.16875 4.448081 0.09375 1 1 1
v 0.16875 4.298081 0.09375 1 1 1
v -0.1265625 4.598081 0.0703125 1 1 1
v -0.1265625 4.598081 -0.0703125 1 1 1
v -0.0703125 4.598081 0.1265625 1 1 1
v -0.0703125 4.598081 -0.1265625 1 1 1
v 0.0703125 4.598081 0.1265625 1 1 1
v 0.0703125 4.598081 -0.1265625 1 1 1
v 0.1265625 4.598081 0.0703125 1 1 1
v 0.1265625 4.598081 -0.0703125 1 1 1
v 0.16875 2.623081 -0.09375 1 1 1
v 0.16875 2.473081 -0.09375 1 1 1
v 0.16875 2.623081 0.09375 1 1 1
v 0.16875 2.473081 0.09375 1 1 1
v 0.09375 2.473081 0.16875 1 1 1
v -0.09375 2.473081 0.16875 1 1 1
v 0.09375 2.623081 0.16875 1 1 1
v -0.09375 2.623081 0.16875 1 1 1
v -0.09375 2.473081 -0.16875 1 1 1
v 0.09375 2.473081 -0.16875 1 1 1
v -0.09375 2.623081 -0.16875 1 1 1
v 0.09375 2.623081 -0.16875 1 1 1
v -0.16875 2.473081 -0.09375 1 1 1
v -0.16875 2.623081 -0.09375 1 1 1
v -0.16875 2.473081 0.09375 1 1 1
v -0.16875 2.623081 0.09375 1 1 1
v 0.16875 1.123081 -0.09375 1 1 1
v 0.16875 0.973081 -0.09375 1 1 1
v 0.16875 1.123081 0.09375 1 1 1
v 0.16875 0.973081 0.09375 1 1 1
v 0.09375 0.973081 0.16875 1 1 1
v -0.09375 0.973081 0.16875 1 1 1
v 0.09375 1.123081 0.16875 1 1 1
v -0.09375 1.123081 0.16875 1 1 1
v -0.09375 0.973081 -0.16875 1 1 1
v 0.09375 0.973081 -0.16875 1 1 1
v -0.09375 1.123081 -0.16875 1 1 1
v 0.09375 1.123081 -0.16875 1 1 1
v -0.16875 0.973081 -0.09375 1 1 1
v -0.16875 1.123081 -0.09375 1 1 1
v -0.16875 0.973081 0.09375 1 1 1
v -0.16875 1.123081 0.09375 1 1 1
v 0.16875 4.148081 -0.09375 1 1 1
v 0.16875 3.848081 -0.09375 1 1 1
v 0.16875 4.148081 0.09375 1 1 1
v 0.16875 3.848081 0.09375 1 1 1
v 0.09375 3.848081 0.16875 1 1 1
v -0.09375 3.848081 0.16875 1 1 1
v 0.09375 4.148081 0.16875 1 1 1
v -0.09375 4.148081 0.16875 1 1 1
v -0.09375 3.848081 -0.16875 1 1 1
v 0.09375 3.848081 -0.16875 1 1 1
v -0.09375 4.148081 -0.16875 1 1 1
v 0.09375 4.148081 -0.16875 1 1 1
v -0.16875 3.848081 -0.09375 1 1 1
v -0.16875 4.148081 -0.09375 1 1 1
v -0.16875 3.848081 0.09375 1 1 1
v -0.16875 4.148081 0.09375 1 1 1
v -1.732587E-15 4.52746 -0.04769266 1 1 1
v -1.732587E-15 4.789834 -0.2408 1 1 1
v -0.2934761 4.79229 -0.04498106 1 1 1
v -1.732587E-15 5.498504 -0.04498106 1 1 1
v 0.2934761 4.79229 -0.04498106 1 1 1
v -5.775292E-15 4.789834 0.2408 1 1 1
v -0.2934761 4.79229 0.04498106 1 1 1
v 1.155058E-15 5.498504 0.04498106 1 1 1
v 1.155058E-15 4.52746 0.04769266 1 1 1
v 0.2934761 4.79229 0.04498106 1 1 1
v -0.0703125 1.123081 -0.1265625 1 1 1
v 0.0703125 1.123081 -0.1265625 1 1 1
v -0.0703125 2.473081 -0.1265625 1 1 1
v 0.0703125 2.473081 -0.1265625 1 1 1
v -0.1265625 1.123081 0.0703125 1 1 1
v -0.1265625 2.473081 0.0703125 1 1 1
v -0.0703125 1.123081 0.1265625 1 1 1
v -0.0703125 2.473081 0.1265625 1 1 1
v 0.1265625 2.473081 -0.0703125 1 1 1
v 0.1265625 1.123081 -0.0703125 1 1 1
v 0.1265625 1.123081 0.0703125 1 1 1
v 0.0703125 1.123081 0.1265625 1 1 1
v -0.1265625 1.123081 -0.0703125 1 1 1
v 0.1265625 2.473081 0.0703125 1 1 1
v 0.0703125 2.473081 0.1265625 1 1 1
v -0.1265625 2.473081 -0.0703125 1 1 1

vn 1 0 0
vn 0.9914449 -0.1305262 0
vn 0 0 1
vn -0.9668621 0.2552991 0
vn -1 0 0
vn 0 1 0
vn 0 0 -1
vn -0.9982014 0.05995033 0
vn -0.6579755 -0.7530394 0
vn 0.9659258 -0.258819 0
vn -0.258819 -0.9659258 0
vn 0.9238795 0 -0.3826834
vn 0.9238795 0 0.3826834
vn 0.3826834 0 0.9238795
vn -0.3826834 0 0.9238795
vn -0.3826834 0 -0.9238795
vn 0.3826834 0 -0.9238795
vn -0.9238795 0 -0.3826834
vn -0.9238795 0 0.3826834
vn 0 -1 0
vn -0.3561203 -0.3041444 -0.8835579
vn 0.3561203 -0.3041444 -0.8835579
vn -0.3712388 -0.3046964 -0.8771214
vn 0.3712388 -0.3046964 -0.8771214
vn 0.8771214 -0.3046964 -0.3712388
vn 0.8835579 -0.3041444 -0.3561203
vn 0.8771214 -0.3046964 0.3712388
vn 0.8835579 -0.3041444 0.3561203
vn 0.3561203 -0.3041444 0.8835579
vn 0.3712388 -0.3046964 0.8771214
vn -0.8835579 -0.3041444 0.3561203
vn -0.8771214 -0.3046964 0.3712388
vn -0.3561203 -0.3041444 0.8835579
vn -0.3712388 -0.3046964 0.8771214
vn -0.8771214 -0.3046964 -0.3712388
vn -0.8835579 -0.3041444 -0.3561203
vn -0.9238795 1.376686E-08 -0.3826834
vn -0.9238795 1.376686E-08 0.3826834
vn -0.3826834 5.702419E-09 0.9238795
vn 0.3826834 -5.702419E-09 0.9238795
vn 0.3826834 -5.702419E-09 -0.9238795
vn -0.3826834 5.702419E-09 -0.9238795
vn 0.9238795 -1.376686E-08 -0.3826834
vn 0.9238795 -1.376686E-08 0.3826834
vn -1.490114E-08 -1 0
vn 1.490114E-08 1 0
vn 0.3561203 0.3041444 -0.8835579
vn -0.3561203 0.3041444 -0.8835579
vn 0.3712388 0.3046964 -0.8771214
vn -0.3712388 0.3046964 -0.8771214
vn -0.8771214 0.3046964 -0.3712388
vn -0.8835579 0.3041444 -0.3561203
vn -0.8771214 0.3046964 0.3712388
vn -0.8835579 0.3041444 0.3561203
vn -0.3561203 0.3041444 0.8835579
vn -0.3712388 0.3046964 0.8771214
vn 0.8835579 0.3041444 0.3561203
vn 0.8771214 0.3046964 0.3712388
vn 0.3561203 0.3041444 0.8835579
vn 0.3712388 0.3046964 0.8771214
vn 0.8771214 0.3046964 -0.3712388
vn 0.8835579 0.3041444 -0.3561203
vn -0.9238795 3.863516E-15 -0.3826834
vn -0.9238795 3.863516E-15 0.3826834
vn -0.3826834 1.600321E-15 0.9238795
vn 0.3826834 -1.600321E-15 0.9238795
vn 0.3826834 -1.600321E-15 -0.9238795
vn -0.3826834 1.600321E-15 -0.9238795
vn 0.9238795 -3.863516E-15 -0.3826834
vn 0.9238795 -3.863516E-15 0.3826834
vn -4.18184E-15 -1 0
vn 4.18184E-15 1 0
vn 0 -0.9211487 -0.389211
vn -0.4767422 -0.5210611 -0.7079634
vn -0.6454188 -0.7124107 -0.2755098
vn -0.8447843 0.3510607 -0.4038512
vn -0.539597 0.2242363 -0.8115128
vn 0 0.879256 -0.4763495
vn 0.4767422 -0.5210611 -0.7079634
vn 0.6454188 -0.7124107 -0.2755098
vn 0.539597 0.2242363 -0.8115128
vn 0.8447843 0.3510607 -0.4038512
vn -0.539597 0.2242363 0.8115128
vn -0.8447843 0.3510607 0.4038512
vn 0 0.879256 0.4763495
vn -0.4767422 -0.5210611 0.7079634
vn 0 -0.9211487 0.389211
vn -0.6454188 -0.7124107 0.2755098
vn 0.8447843 0.3510607 0.4038512
vn 0.539597 0.2242363 0.8115128
vn 0.4767422 -0.5210611 0.7079634
vn 0.6454188 -0.7124107 0.2755098

vt 0.09375 0.225
vt 0.09375 0.025
vt 0.09375 0.0268873
vt 0.46875 0.225
vt 0.46875 0.125
vt 0.46875 0.025
vt 0.46875 0.175
vt 0.46875 0.075
vt 0.71875 0.04166666
vt 0.71875 0.09120294
vt 0.71875 0.09166666
vt 0.71875 0.225
vt 0.21875 0.225
vt 0.21875 0.025

usemtl colormap

f 3/1/1 2/2/2 1/1/1
f 2/2/2 3/1/1 4/2/2
f 4/2/3 6/2/3 5/2/3
f 6/2/3 4/2/3 7/2/3
f 7/2/3 4/2/3 8/3/3
f 8/3/3 4/2/3 3/1/3
f 8/3/3 3/1/3 9/1/3
f 8/3/4 11/1/5 10/3/4
f 11/1/5 8/3/4 9/1/5
f 11/1/6 3/1/6 1/1/6
f 3/1/6 11/1/6 9/1/6
f 13/2/7 2/2/7 12/2/7
f 2/2/7 13/2/7 14/2/7
f 2/2/7 14/2/7 10/3/7
f 2/2/7 10/3/7 1/1/7
f 1/1/7 10/3/7 11/1/7
f 7/2/8 10/3/4 14/2/8
f 10/3/4 7/2/8 8/3/4
f 6/2/9 14/2/8 13/2/9
f 14/2/8 6/2/9 7/2/8
f 4/2/2 12/2/10 2/2/2
f 12/2/10 4/2/2 5/2/10
f 6/2/9 12/2/11 5/2/11
f 12/2/11 6/2/9 13/2/9
f 17/4/13 16/5/12 15/4/12
f 16/5/12 17/4/13 18/5/13
f 21/4/14 20/5/15 19/5/14
f 20/5/15 21/4/14 22/4/15
f 25/4/16 24/5/17 23/5/16
f 24/5/17 25/4/16 26/4/17
f 29/5/19 28/4/18 27/5/18
f 28/4/18 29/5/19 30/4/19
f 27/5/18 25/4/16 23/5/16
f 25/4/16 27/5/18 28/4/18
f 21/4/14 18/5/13 17/4/13
f 18/5/13 21/4/14 19/5/14
f 20/5/15 30/4/19 29/5/19
f 30/4/19 20/5/15 22/4/15
f 15/4/12 24/5/17 26/4/17
f 24/5/17 15/4/12 16/5/12
f 26/4/6 17/4/6 15/4/6
f 17/4/6 26/4/6 21/4/6
f 21/4/6 26/4/6 25/4/6
f 21/4/6 25/4/6 22/4/6
f 22/4/6 25/4/6 28/4/6
f 22/4/6 28/4/6 30/4/6
f 33/6/20 32/6/20 31/6/20
f 32/6/20 33/6/20 34/6/20
f 34/6/20 33/6/20 35/6/20
f 34/6/20 35/6/20 36/6/20
f 36/6/20 35/6/20 37/6/20
f 36/6/20 37/6/20 38/6/20
f 23/5/23 34/6/22 36/6/21
f 34/6/22 23/5/23 24/5/24
f 16/5/25 34/6/22 24/5/24
f 34/6/22 16/5/25 32/6/26
f 18/5/27 32/6/26 16/5/25
f 32/6/26 18/5/27 31/6/28
f 18/5/27 33/6/29 31/6/28
f 33/6/29 18/5/27 19/5/30
f 35/6/33 29/5/32 37/6/31
f 29/5/32 35/6/33 20/5/34
f 19/5/30 35/6/33 33/6/29
f 35/6/33 19/5/30 20/5/34
f 36/6/21 27/5/35 23/5/23
f 27/5/35 36/6/21 38/6/36
f 38/6/36 29/5/32 27/5/35
f 29/5/32 38/6/36 37/6/31
f 41/4/38 40/5/37 39/4/37
f 40/5/37 41/4/38 42/5/38
f 45/4/39 44/5/40 43/5/39
f 44/5/40 45/4/39 46/4/40
f 49/4/41 48/5/42 47/5/41
f 48/5/42 49/4/41 50/4/42
f 53/5/44 52/4/43 51/5/43
f 52/4/43 53/5/44 54/4/44
f 51/5/43 49/4/41 47/5/41
f 49/4/41 51/5/43 52/4/43
f 45/4/39 42/5/38 41/4/38
f 42/5/38 45/4/39 43/5/39
f 44/5/40 54/4/44 53/5/44
f 54/4/44 44/5/40 46/4/40
f 39/4/37 48/5/42 50/4/42
f 48/5/42 39/4/37 40/5/37
f 50/4/45 41/4/45 39/4/45
f 41/4/45 50/4/45 45/4/45
f 45/4/45 50/4/45 49/4/45
f 45/4/45 49/4/45 46/4/45
f 46/4/45 49/4/45 52/4/45
f 46/4/45 52/4/45 54/4/45
f 57/6/46 56/6/46 55/6/46
f 56/6/46 57/6/46 58/6/46
f 58/6/46 57/6/46 59/6/46
f 58/6/46 59/6/46 60/6/46
f 60/6/46 59/6/46 61/6/46
f 60/6/46 61/6/46 62/6/46
f 47/5/49 58/6/48 60/6/47
f 58/6/48 47/5/49 48/5/50
f 40/5/51 58/6/48 48/5/50
f 58/6/48 40/5/51 56/6/52
f 42/5/53 56/6/52 40/5/51
f 56/6/52 42/5/53 55/6/54
f 42/5/53 57/6/55 55/6/54
f 57/6/55 42/5/53 43/5/56
f 59/6/59 53/5/58 61/6/57
f 53/5/58 59/6/59 44/5/60
f 43/5/56 59/6/59 57/6/55
f 59/6/59 43/5/56 44/5/60
f 60/6/47 51/5/61 47/5/49
f 51/5/61 60/6/47 62/6/62
f 62/6/62 53/5/58 51/5/61
f 53/5/58 62/6/62 61/6/57
f 65/4/64 64/5/63 63/4/63
f 64/5/63 65/4/64 66/5/64
f 69/4/65 68/5/66 67/5/65
f 68/5/66 69/4/65 70/4/66
f 73/4/67 72/5/68 71/5/67
f 72/5/68 73/4/67 74/4/68
f 77/5/70 76/4/69 75/5/69
f 76/4/69 77/5/70 78/4/70
f 75/5/69 73/4/67 71/5/67
f 73/4/67 75/5/69 76/4/69
f 69/4/65 66/5/64 65/4/64
f 66/5/64 69/4/65 67/5/65
f 68/5/66 78/4/70 77/5/70
f 78/4/70 68/5/66 70/4/66
f 63/4/63 72/5/68 74/4/68
f 72/5/68 63/4/63 64/5/63
f 74/4/71 65/4/71 63/4/71
f 65/4/71 74/4/71 69/4/71
f 69/4/71 74/4/71 73/4/71
f 69/4/71 73/4/71 70/4/71
f 70/4/71 73/4/71 76/4/71
f 70/4/71 76/4/71 78/4/71
f 81/6/72 80/6/72 79/6/72
f 80/6/72 81/6/72 82/6/72
f 82/6/72 81/6/72 83/6/72
f 82/6/72 83/6/72 84/6/72
f 84/6/72 83/6/72 85/6/72
f 84/6/72 85/6/72 86/6/72
f 71/5/49 82/6/48 84/6/47
f 82/6/48 71/5/49 72/5/50
f 64/5/51 82/6/48 72/5/50
f 82/6/48 64/5/51 80/6/52
f 66/5/53 80/6/52 64/5/51
f 80/6/52 66/5/53 79/6/54
f 66/5/53 81/6/55 79/6/54
f 81/6/55 66/5/53 67/5/56
f 83/6/59 77/5/58 85/6/57
f 77/5/58 83/6/59 68/5/60
f 67/5/56 83/6/59 81/6/55
f 83/6/59 67/5/56 68/5/60
f 84/6/47 75/5/61 71/5/49
f 75/5/61 84/6/47 86/6/62
f 86/6/62 77/5/58 75/5/61
f 77/5/58 86/6/62 85/6/57
f 89/7/13 88/8/12 87/7/12
f 88/8/12 89/7/13 90/8/13
f 93/7/14 92/8/15 91/8/14
f 92/8/15 93/7/14 94/7/15
f 97/7/16 96/8/17 95/8/16
f 96/8/17 97/7/16 98/7/17
f 101/8/19 100/7/18 99/8/18
f 100/7/18 101/8/19 102/7/19
f 99/8/18 97/7/16 95/8/16
f 97/7/16 99/8/18 100/7/18
f 89/7/13 91/8/14 90/8/13
f 91/8/14 89/7/13 93/7/14
f 92/8/15 102/7/19 101/8/19
f 102/7/19 92/8/15 94/7/15
f 87/7/12 96/8/17 98/7/17
f 96/8/17 87/7/12 88/8/12
f 91/8/20 88/8/20 90/8/20
f 88/8/20 91/8/20 96/8/20
f 96/8/20 91/8/20 92/8/20
f 96/8/20 92/8/20 95/8/20
f 95/8/20 92/8/20 101/8/20
f 95/8/20 101/8/20 99/8/20
f 98/7/6 89/7/6 87/7/6
f 89/7/6 98/7/6 93/7/6
f 93/7/6 98/7/6 97/7/6
f 93/7/6 97/7/6 94/7/6
f 94/7/6 97/7/6 100/7/6
f 94/7/6 100/7/6 102/7/6
f 105/7/13 104/8/12 103/7/12
f 104/8/12 105/7/13 106/8/13
f 109/7/14 108/8/15 107/8/14
f 108/8/15 109/7/14 110/7/15
f 113/7/16 112/8/17 111/8/16
f 112/8/17 113/7/16 114/7/17
f 117/8/19 116/7/18 115/8/18
f 116/7/18 117/8/19 118/7/19
f 115/8/18 113/7/16 111/8/16
f 113/7/16 115/8/18 116/7/18
f 105/7/13 107/8/14 106/8/13
f 107/8/14 105/7/13 109/7/14
f 108/8/15 118/7/19 117/8/19
f 118/7/19 108/8/15 110/7/15
f 103/7/12 112/8/17 114/7/17
f 112/8/17 103/7/12 104/8/12
f 107/8/20 104/8/20 106/8/20
f 104/8/20 107/8/20 112/8/20
f 112/8/20 107/8/20 108/8/20
f 112/8/20 108/8/20 111/8/20
f 111/8/20 108/8/20 117/8/20
f 111/8/20 117/8/20 115/8/20
f 114/7/6 105/7/6 103/7/6
f 105/7/6 114/7/6 109/7/6
f 109/7/6 114/7/6 113/7/6
f 109/7/6 113/7/6 110/7/6
f 110/7/6 113/7/6 116/7/6
f 110/7/6 116/7/6 118/7/6
f 121/7/13 120/8/12 119/7/12
f 120/8/12 121/7/13 122/8/13
f 125/7/14 124/8/15 123/8/14
f 124/8/15 125/7/14 126/7/15
f 129/7/16 128/8/17 127/8/16
f 128/8/17 129/7/16 130/7/17
f 133/8/19 132/7/18 131/8/18
f 132/7/18 133/8/19 134/7/19
f 131/8/18 129/7/16 127/8/16
f 129/7/16 131/8/18 132/7/18
f 121/7/13 123/8/14 122/8/13
f 123/8/14 121/7/13 125/7/14
f 124/8/15 134/7/19 133/8/19
f 134/7/19 124/8/15 126/7/15
f 119/7/12 128/8/17 130/7/17
f 128/8/17 119/7/12 120/8/12
f 123/8/20 120/8/20 122/8/20
f 120/8/20 123/8/20 128/8/20
f 128/8/20 123/8/20 124/8/20
f 128/8/20 124/8/20 127/8/20
f 127/8/20 124/8/20 133/8/20
f 127/8/20 133/8/20 131/8/20
f 130/7/6 121/7/6 119/7/6
f 121/7/6 130/7/6 125/7/6
f 125/7/6 130/7/6 129/7/6
f 125/7/6 129/7/6 126/7/6
f 126/7/6 129/7/6 132/7/6
f 126/7/6 132/7/6 134/7/6
f 137/11/75 136/10/74 135/9/73
f 138/12/78 136/10/77 137/11/76
f 139/11/80 135/9/73 136/10/79
f 138/12/78 139/11/82 136/10/81
f 142/12/85 141/11/84 140/10/83
f 141/11/88 143/9/87 140/10/86
f 142/12/85 140/10/90 144/11/89
f 144/11/92 140/10/91 143/9/87
f 141/11/88 135/9/73 143/9/87
f 135/9/73 141/11/88 137/11/75
f 143/9/87 139/11/80 144/11/92
f 139/11/80 143/9/87 135/9/73
f 142/12/85 139/11/82 138/12/78
f 139/11/82 142/12/85 144/11/89
f 137/11/76 142/12/85 138/12/78
f 142/12/85 137/11/76 141/11/84
f 147/14/16 146/13/17 145/13/16
f 146/13/17 147/14/16 148/14/17
f 151/13/15 150/14/19 149/13/19
f 150/14/19 151/13/15 152/14/15
f 153/14/12 146/13/17 148/14/17
f 146/13/17 153/14/12 154/13/12
f 156/13/20 154/13/20 155/13/20
f 154/13/20 156/13/20 146/13/20
f 146/13/20 156/13/20 151/13/20
f 146/13/20 151/13/20 145/13/20
f 145/13/20 151/13/20 149/13/20
f 145/13/20 149/13/20 157/13/20
f 158/14/13 154/13/12 153/14/12
f 154/13/12 158/14/13 155/13/13
f 148/14/6 158/14/6 153/14/6
f 158/14/6 148/14/6 159/14/6
f 159/14/6 148/14/6 147/14/6
f 159/14/6 147/14/6 152/14/6
f 152/14/6 147/14/6 160/14/6
f 152/14/6 160/14/6 150/14/6
f 149/13/19 160/14/18 157/13/18
f 160/14/18 149/13/19 150/14/19
f 159/14/14 151/13/15 156/13/14
f 151/13/15 159/14/14 152/14/15
f 159/14/14 155/13/13 158/14/13
f 155/13/13 159/14/14 156/13/14
f 157/13/18 147/14/16 145/13/16
f 147/14/16 157/13/18 160/14/18

g spear-a




usemtl colormap

f 3/1/1 2/2/2 1/1/1
f 2/2/2 3/1/1 4/2/2
f 4/2/3 6/2/3 5/2/3
f 6/2/3 4/2/3 7/2/3
f 7/2/3 4/2/3 8/3/3
f 8/3/3 4/2/3 3/1/3
f 8/3/3 3/1/3 9/1/3
f 8/3/4 11/1/5 10/3/4
f 11/1/5 8/3/4 9/1/5
f 11/1/6 3/1/6 1/1/6
f 3/1/6 11/1/6 9/1/6
f 13/2/7 2/2/7 12/2/7
f 2/2/7 13/2/7 14/2/7
f 2/2/7 14/2/7 10/3/7
f 2/2/7 10/3/7 1/1/7
f 1/1/7 10/3/7 11/1/7
f 7/2/8 10/3/4 14/2/8
f 10/3/4 7/2/8 8/3/4
f 6/2/9 14/2/8 13/2/9
f 14/2/8 6/2/9 7/2/8
f 4/2/2 12/2/10 2/2/2
f 12/2/10 4/2/2 5/2/10
f 6/2/9 12/2/11 5/2/11
f 12/2/11 6/2/9 13/2/9
f 17/4/13 16/5/12 15/4/12
f 16/5/12 17/4/13 18/5/13
f 21/4/14 20/5/15 19/5/14
f 20/5/15 21/4/14 22/4/15
f 25/4/16 24/5/17 23/5/16
f 24/5/17 25/4/16 26/4/17
f 29/5/19 28/4/18 27/5/18
f 28/4/18 29/5/19 30/4/19
f 27/5/18 25/4/16 23/5/16
f 25/4/16 27/5/18 28/4/18
f 21/4/14 18/5/13 17/4/13
f 18/5/13 21/4/14 19/5/14
f 20/5/15 30/4/19 29/5/19
f 30/4/19 20/5/15 22/4/15
f 15/4/12 24/5/17 26/4/17
f 24/5/17 15/4/12 16/5/12
f 26/4/6 17/4/6 15/4/6
f 17/4/6 26/4/6 21/4/6
f 21/4/6 26/4/6 25/4/6
f 21/4/6 25/4/6 22/4/6
f 22/4/6 25/4/6 28/4/6
f 22/4/6 28/4/6 30/4/6
f 33/6/20 32/6/20 31/6/20
f 32/6/20 33/6/20 34/6/20
f 34/6/20 33/6/20 35/6/20
f 34/6/20 35/6/20 36/6/20
f 36/6/20 35/6/20 37/6/20
f 36/6/20 37/6/20 38/6/20
f 23/5/23 34/6/22 36/6/21
f 34/6/22 23/5/23 24/5/24
f 16/5/25 34/6/22 24/5/24
f 34/6/22 16/5/25 32/6/26
f 18/5/27 32/6/26 16/5/25
f 32/6/26 18/5/27 31/6/28
f 18/5/27 33/6/29 31/6/28
f 33/6/29 18/5/27 19/5/30
f 35/6/33 29/5/32 37/6/31
f 29/5/32 35/6/33 20/5/34
f 19/5/30 35/6/33 33/6/29
f 35/6/33 19/5/30 20/5/34
f 36/6/21 27/5/35 23/5/23
f 27/5/35 36/6/21 38/6/36
f 38/6/36 29/5/32 27/5/35
f 29/5/32 38/6/36 37/6/31
f 41/4/38 40/5/37 39/4/37
f 40/5/37 41/4/38 42/5/38
f 45/4/39 44/5/40 43/5/39
f 44/5/40 45/4/39 46/4/40
f 49/4/41 48/5/42 47/5/41
f 48/5/42 49/4/41 50/4/42
f 53/5/44 52/4/43 51/5/43
f 52/4/43 53/5/44 54/4/44
f 51/5/43 49/4/41 47/5/41
f 49/4/41 51/5/43 52/4/43
f 45/4/39 42/5/38 41/4/38
f 42/5/38 45/4/39 43/5/39
f 44/5/40 54/4/44 53/5/44
f 54/4/44 44/5/40 46/4/40
f 39/4/37 48/5/42 50/4/42
f 48/5/42 39/4/37 40/5/37
f 50/4/45 41/4/45 39/4/45
f 41/4/45 50/4/45 45/4/45
f 45/4/45 50/4/45 49/4/45
f 45/4/45 49/4/45 46/4/45
f 46/4/45 49/4/45 52/4/45
f 46/4/45 52/4/45 54/4/45
f 57/6/46 56/6/46 55/6/46
f 56/6/46 57/6/46 58/6/46
f 58/6/46 57/6/46 59/6/46
f 58/6/46 59/6/46 60/6/46
f 60/6/46 59/6/46 61/6/46
f 60/6/46 61/6/46 62/6/46
f 47/5/49 58/6/48 60/6/47
f 58/6/48 47/5/49 48/5/50
f 40/5/51 58/6/48 48/5/50
f 58/6/48 40/5/51 56/6/52
f 42/5/53 56/6/52 40/5/51
f 56/6/52 42/5/53 55/6/54
f 42/5/53 57/6/55 55/6/54
f 57/6/55 42/5/53 43/5/56
f 59/6/59 53/5/58 61/6/57
f 53/5/58 59/6/59 44/5/60
f 43/5/56 59/6/59 57/6/55
f 59/6/59 43/5/56 44/5/60
f 60/6/47 51/5/61 47/5/49
f 51/5/61 60/6/47 62/6/62
f 62/6/62 53/5/58 51/5/61
f 53/5/58 62/6/62 61/6/57
f 65/4/64 64/5/63 63/4/63
f 64/5/63 65/4/64 66/5/64
f 69/4/65 68/5/66 67/5/65
f 68/5/66 69/4/65 70/4/66
f 73/4/67 72/5/68 71/5/67
f 72/5/68 73/4/67 74/4/68
f 77/5/70 76/4/69 75/5/69
f 76/4/69 77/5/70 78/4/70
f 75/5/69 73/4/67 71/5/67
f 73/4/67 75/5/69 76/4/69
f 69/4/65 66/5/64 65/4/64
f 66/5/64 69/4/65 67/5/65
f 68/5/66 78/4/70 77/5/70
f 78/4/70 68/5/66 70/4/66
f 63/4/63 72/5/68 74/4/68
f 72/5/68 63/4/63 64/5/63
f 74/4/71 65/4/71 63/4/71
f 65/4/71 74/4/71 69/4/71
f 69/4/71 74/4/71 73/4/71
f 69/4/71 73/4/71 70/4/71
f 70/4/71 73/4/71 76/4/71
f 70/4/71 76/4/71 78/4/71
f 81/6/72 80/6/72 79/6/72
f 80/6/72 81/6/72 82/6/72
f 82/6/72 81/6/72 83/6/72
f 82/6/72 83/6/72 84/6/72
f 84/6/72 83/6/72 85/6/72
f 84/6/72 85/6/72 86/6/72
f 71/5/49 82/6/48 84/6/47
f 82/6/48 71/5/49 72/5/50
f 64/5/51 82/6/48 72/5/50
f 82/6/48 64/5/51 80/6/52
f 66/5/53 80/6/52 64/5/51
f 80/6/52 66/5/53 79/6/54
f 66/5/53 81/6/55 79/6/54
f 81/6/55 66/5/53 67/5/56
f 83/6/59 77/5/58 85/6/57
f 77/5/58 83/6/59 68/5/60
f 67/5/56 83/6/59 81/6/55
f 83/6/59 67/5/56 68/5/60
f 84/6/47 75/5/61 71/5/49
f 75/5/61 84/6/47 86/6/62
f 86/6/62 77/5/58 75/5/61
f 77/5/58 86/6/62 85/6/57
f 89/7/13 88/8/12 87/7/12
f 88/8/12 89/7/13 90/8/13
f 93/7/14 92/8/15 91/8/14
f 92/8/15 93/7/14 94/7/15
f 97/7/16 96/8/17 95/8/16
f 96/8/17 97/7/16 98/7/17
f 101/8/19 100/7/18 99/8/18
f 100/7/18 101/8/19 102/7/19
f 99/8/18 97/7/16 95/8/16
f 97/7/16 99/8/18 100/7/18
f 89/7/13 91/8/14 90/8/13
f 91/8/14 89/7/13 93/7/14
f 92/8/15 102/7/19 101/8/19
f 102/7/19 92/8/15 94/7/15
f 87/7/12 96/8/17 98/7/17
f 96/8/17 87/7/12 88/8/12
f 91/8/20 88/8/20 90/8/20
f 88/8/20 91/8/20 96/8/20
f 96/8/20 91/8/20 92/8/20
f 96/8/20 92/8/20 95/8/20
f 95/8/20 92/8/20 101/8/20
f 95/8/20 101/8/20 99/8/20
f 98/7/6 89/7/6 87/7/6
f 89/7/6 98/7/6 93/7/6
f 93/7/6 98/7/6 97/7/6
f 93/7/6 97/7/6 94/7/6
f 94/7/6 97/7/6 100/7/6
f 94/7/6 100/7/6 102/7/6
f 105/7/13 104/8/12 103/7/12
f 104/8/12 105/7/13 106/8/13
f 109/7/14 108/8/15 107/8/14
f 108/8/15 109/7/14 110/7/15
f 113/7/16 112/8/17 111/8/16
f 112/8/17 113/7/16 114/7/17
f 117/8/19 116/7/18 115/8/18
f 116/7/18 117/8/19 118/7/19
f 115/8/18 113/7/16 111/8/16
f 113/7/16 115/8/18 116/7/18
f 105/7/13 107/8/14 106/8/13
f 107/8/14 105/7/13 109/7/14
f 108/8/15 118/7/19 117/8/19
f 118/7/19 108/8/15 110/7/15
f 103/7/12 112/8/17 114/7/17
f 112/8/17 103/7/12 104/8/12
f 107/8/20 104/8/20 106/8/20
f 104/8/20 107/8/20 112/8/20
f 112/8/20 107/8/20 108/8/20
f 112/8/20 108/8/20 111/8/20
f 111/8/20 108/8/20 117/8/20
f 111/8/20 117/8/20 115/8/20
f 114/7/6 105/7/6 103/7/6
f 105/7/6 114/7/6 109/7/6
f 109/7/6 114/7/6 113/7/6
f 109/7/6 113/7/6 110/7/6
f 110/7/6 113/7/6 116/7/6
f 110/7/6 116/7/6 118/7/6
f 121/7/13 120/8/12 119/7/12
f 120/8/12 121/7/13 122/8/13
f 125/7/14 124/8/15 123/8/14
f 124/8/15 125/7/14 126/7/15
f 129/7/16 128/8/17 127/8/16
f 128/8/17 129/7/16 130/7/17
f 133/8/19 132/7/18 131/8/18
f 132/7/18 133/8/19 134/7/19
f 131/8/18 129/7/16 127/8/16
f 129/7/16 131/8/18 132/7/18
f 121/7/13 123/8/14 122/8/13
f 123/8/14 121/7/13 125/7/14
f 124/8/15 134/7/19 133/8/19
f 134/7/19 124/8/15 126/7/15
f 119/7/12 128/8/17 130/7/17
f 128/8/17 119/7/12 120/8/12
f 123/8/20 120/8/20 122/8/20
f 120/8/20 123/8/20 128/8/20
f 128/8/20 123/8/20 124/8/20
f 128/8/20 124/8/20 127/8/20
f 127/8/20 124/8/20 133/8/20
f 127/8/20 133/8/20 131/8/20
f 130/7/6 121/7/6 119/7/6
f 121/7/6 130/7/6 125/7/6
f 125/7/6 130/7/6 129/7/6
f 125/7/6 129/7/6 126/7/6
f 126/7/6 129/7/6 132/7/6
f 126/7/6 132/7/6 134/7/6
f 137/11/75 136/10/74 135/9/73
f 138/12/78 136/10/77 137/11/76
f 139/11/80 135/9/73 136/10/79
f 138/12/78 139/11/82 136/10/81
f 142/12/85 141/11/84 140/10/83
f 141/11/88 143/9/87 140/10/86
f 142/12/85 140/10/90 144/11/89
f 144/11/92 140/10/91 143/9/87
f 141/11/88 135/9/73 143/9/87
f 135/9/73 141/11/88 137/11/75
f 143/9/87 139/11/80 144/11/92
f 139/11/80 143/9/87 135/9/73
f 142/12/85 139/11/82 138/12/78
f 139/11/82 142/12/85 144/11/89
f 137/11/76 142/12/85 138/12/78
f 142/12/85 137/11/76 141/11/84
f 147/14/16 146/13/17 145/13/16
f 146/13/17 147/14/16 148/14/17
f 151/13/15 150/14/19 149/13/19
f 150/14/19 151/13/15 152/14/15
f 153/14/12 146/13/17 148/14/17
f 146/13/17 153/14/12 154/13/12
f 156/13/20 154/13/20 155/13/20
f 154/13/20 156/13/20 146/13/20
f 146/13/20 156/13/20 151/13/20
f 146/13/20 151/13/20 145/13/20
f 145/13/20 151/13/20 149/13/20
f 145/13/20 149/13/20 157/13/20
f 158/14/13 154/13/12 153/14/12
f 154/13/12 158/14/13 155/13/13
f 148/14/6 158/14/6 153/14/6
f 158/14/6 148/14/6 159/14/6
f 159/14/6 148/14/6 147/14/6
f 159/14/6 147/14/6 152/14/6
f 152/14/6 147/14/6 160/14/6
f 152/14/6 160/14/6 150/14/6
f 149/13/19 160/14/18 157/13/18
f 160/14/18 149/13/19 150/14/19
f 159/14/14 151/13/15 156/13/14
f 151/13/15 159/14/14 152/14/15
f 159/14/14 155/13/13 158/14/13
f 155/13/13 159/14/14 156/13/14
f 157/13/18 147/14/16 145/13/16
f 147/14/16 157/13/18 160/14/18

