# Created by Kenney (www.kenney.nl)

mtllib spear-b.mtl

g spear-b

v -0.16875 4.298081 -0.09375 1 1 1
v -0.16875 4.448081 -0.09375 1 1 1
v -0.16875 4.298081 0.09375 1 1 1
v -0.16875 4.448081 0.09375 1 1 1
v -0.09375 4.448081 0.16875 1 1 1
v 0.09375 4.448081 0.16875 1 1 1
v -0.09375 4.298081 0.16875 1 1 1
v 0.09375 4.298081 0.16875 1 1 1
v 0.09375 4.448081 -0.16875 1 1 1
v -0.09375 4.448081 -0.16875 1 1 1
v 0.09375 4.298081 -0.16875 1 1 1
v -0.09375 4.298081 -0.16875 1 1 1
v 0.16875 4.448081 -0.09375 1 1 1
v 0.16875 4.298081 -0.09375 1 1 1
v 0.16875 4.448081 0.09375 1 1 1
v 0.16875 4.298081 0.09375 1 1 1
v -0.1265625 4.598081 0.0703125 1 1 1
v -0.1265625 4.598081 -0.0703125 1 1 1
v -0.0703125 4.598081 0.1265625 1 1 1
v -0.0703125 4.598081 -0.1265625 1 1 1
v 0.0703125 4.598081 0.1265625 1 1 1
v 0.0703125 4.598081 -0.1265625 1 1 1
v 0.1265625 4.598081 0.0703125 1 1 1
v 0.1265625 4.598081 -0.0703125 1 1 1
v -1.732587E-15 4.52746 -0.04769266 1 1 1
v -1.732587E-15 4.789834 -0.2408 1 1 1
v -0.2934761 4.79229 -0.04498106 1 1 1
v -1.732587E-15 5.498504 -0.04498106 1 1 1
v 0.2934761 4.79229 -0.04498106 1 1 1
v -5.775292E-15 4.789834 0.2408 1 1 1
v -0.2934761 4.79229 0.04498106 1 1 1
v 1.155058E-15 5.498504 0.04498106 1 1 1
v 1.155058E-15 4.52746 0.04769266 1 1 1
v 0.2934761 4.79229 0.04498106 1 1 1
v 0.04375 0.9524442 0.04375 1 1 1
v -0.09375 0.3853551 0.09375 1 1 1
v -0.14375 0.9524442 0.04375 1 1 1
v -0.09375 0.3853551 -0.09375 1 1 1
v 0.09374999 0.348081 -0.09375 1 1 1
v 0.04375 0.9524442 -0.14375 1 1 1
v -0.14375 0.9524442 -0.14375 1 1 1
v 0.09374999 0.348081 0.09375 1 1 1
v -0.14375 2.552444 -0.14375 1 1 1
v -0.14375 2.552444 0.04375 1 1 1
v -0.04375 1.752444 -0.04375 1 1 1
v -0.04375 1.752444 0.14375 1 1 1
v 0.0004819669 0 -0.09375 1 1 1
v 0.0004819669 0 0.09375 1 1 1
v 0.09374999 4.298081 -0.09375 1 1 1
v 0.14375 3.352444 -0.04375 1 1 1
v 0.09374999 4.298081 0.09375 1 1 1
v 0.14375 3.352444 0.14375 1 1 1
v -0.1713768 0.04604943 -0.09375 1 1 1
v -0.2201736 0.1626521 -0.09375 1 1 1
v -0.1713768 0.04604943 0.09375 1 1 1
v -0.2201736 0.1626521 0.09375 1 1 1
v 0.04375 2.552444 0.04375 1 1 1
v -0.04375 3.352444 0.14375 1 1 1
v 0.04375 2.552444 -0.14375 1 1 1
v 0.14375 1.752444 -0.04375 1 1 1
v 0.14375 1.752444 0.14375 1 1 1
v -0.04375 3.352444 -0.04375 1 1 1
v -0.09375 4.298081 -0.09375 1 1 1
v -0.09375 4.298081 0.09375 1 1 1
v 0.1435886 4.164201 -0.09375 1 1 1
v 0.1824114 4.019312 -0.09375 1 1 1
v 0.1435886 4.164201 0.09375 1 1 1
v 0.1824114 4.019312 0.09375 1 1 1
v 0.109967 3.999901 0.16875 1 1 1
v -0.07114412 3.951372 0.16875 1 1 1
v 0.07114412 4.144789 0.16875 1 1 1
v -0.109967 4.096261 0.16875 1 1 1
v -0.07114412 3.951372 -0.16875 1 1 1
v 0.109967 3.999901 -0.16875 1 1 1
v -0.109967 4.096261 -0.16875 1 1 1
v 0.07114412 4.144789 -0.16875 1 1 1
v -0.1435886 3.931961 -0.09375 1 1 1
v -0.1824114 4.076849 -0.09375 1 1 1
v -0.1435886 3.931961 0.09375 1 1 1
v -0.1824114 4.076849 0.09375 1 1 1
v 0.1824114 3.77685 -0.09375 1 1 1
v 0.1435886 3.631961 -0.09375 1 1 1
v 0.1824114 3.77685 0.09375 1 1 1
v 0.1435886 3.631961 0.09375 1 1 1
v 0.07114412 3.651372 0.16875 1 1 1
v -0.109967 3.699901 0.16875 1 1 1
v 0.109967 3.796261 0.16875 1 1 1
v -0.07114412 3.84479 0.16875 1 1 1
v -0.109967 3.699901 -0.16875 1 1 1
v 0.07114412 3.651372 -0.16875 1 1 1
v -0.07114412 3.84479 -0.16875 1 1 1
v 0.109967 3.796261 -0.16875 1 1 1
v -0.1824114 3.719312 -0.09375 1 1 1
v -0.1435886 3.864201 -0.09375 1 1 1
v -0.1824114 3.719312 0.09375 1 1 1
v -0.1435886 3.864201 0.09375 1 1 1

vn -0.9238795 3.863516E-15 -0.3826834
vn -0.9238795 3.863516E-15 0.3826834
vn -0.3826834 1.600321E-15 0.9238795
vn 0.3826834 -1.600321E-15 0.9238795
vn 0.3826834 -1.600321E-15 -0.9238795
vn -0.3826834 1.600321E-15 -0.9238795
vn 0.9238795 -3.863516E-15 -0.3826834
vn 0.9238795 -3.863516E-15 0.3826834
vn -4.18184E-15 -1 0
vn 4.18184E-15 1 0
vn 0.3561203 0.3041444 -0.8835579
vn -0.3561203 0.3041444 -0.8835579
vn 0.3712388 0.3046964 -0.8771214
vn -0.3712388 0.3046964 -0.8771214
vn -0.8771214 0.3046964 -0.3712388
vn -0.8835579 0.3041444 -0.3561203
vn -0.8771214 0.3046964 0.3712388
vn -0.8835579 0.3041444 0.3561203
vn -0.3561203 0.3041444 0.8835579
vn -0.3712388 0.3046964 0.8771214
vn 0.8835579 0.3041444 0.3561203
vn 0.8771214 0.3046964 0.3712388
vn 0.3561203 0.3041444 0.8835579
vn 0.3712388 0.3046964 0.8771214
vn 0.8771214 0.3046964 -0.3712388
vn 0.8835579 0.3041444 -0.3561203
vn 0 -0.9211487 -0.389211
vn -0.4767422 -0.5210611 -0.7079634
vn -0.6454188 -0.7124107 -0.2755098
vn -0.8447843 0.3510607 -0.4038512
vn -0.539597 0.2242363 -0.8115128
vn 0 0.879256 -0.4763495
vn 0.4767422 -0.5210611 -0.7079634
vn 0.6454188 -0.7124107 -0.2755098
vn 0.539597 0.2242363 -0.8115128
vn 0.8447843 0.3510607 -0.4038512
vn -0.539597 0.2242363 0.8115128
vn -0.8447843 0.3510607 0.4038512
vn 0 0.879256 0.4763495
vn -0.4767422 -0.5210611 0.7079634
vn 0 -0.9211487 0.389211
vn -0.6454188 -0.7124107 0.2755098
vn 0.8447843 0.3510607 0.4038512
vn 0.539597 0.2242363 0.8115128
vn 0.4767422 -0.5210611 0.7079634
vn 0.6454188 -0.7124107 0.2755098
vn 0.001598196 -0.0198985 0.9998007
vn 0.00681023 0.04187753 0.9990995
vn 0 -0.016904 0.9998571
vn -0.00681023 -0.04187753 -0.9990995
vn -0.007705406 -0.03876052 -0.9992188
vn -0.001598196 0.0198985 -0.9998007
vn 0 0.016904 -0.9998571
vn 0.007705406 0.03876052 0.9992188
vn -0.9998571 0.016904 0
vn -0.9998129 0.01934299 0
vn -0.9789119 0.2042827 0
vn -0.9752105 0.2212792 0
vn -1 0 0
vn 0.9963735 -0.08508758 0
vn 0.9659258 -0.258819 0
vn 0.9955568 -0.094164 0
vn 0.9986051 0.05280067 0
vn 0.9992911 -0.03764749 0
vn 0.9994339 -0.0336423 0
vn -0.6579755 -0.7530394 0
vn -0.9982014 0.05995033 0
vn 0 0 1
vn 0 -0.0336423 0.9994339
vn 0 -0.03764749 0.9992911
vn 1 0 0
vn 0 0.03764749 -0.9992911
vn 0 0.0336423 -0.9994339
vn 0 -0.05280067 -0.9986051
vn 0 0 -1
vn -0.9992911 0.03764749 0
vn -0.9994339 0.0336423 0
vn 0 0.05280067 0.9986051
vn -0.258819 -0.9659258 0
vn 0 1 0
vn 0.9998109 -0.0194496 0
vn 0.999754 -0.02217985 0
vn -0.9986051 -0.05280067 0
vn 0.8923991 0.2391176 -0.3826834
vn 0.8923991 0.2391176 0.3826834
vn 0.3696438 0.09904576 0.9238795
vn -0.3696438 -0.09904576 0.9238795
vn -0.3696438 -0.09904576 -0.9238795
vn 0.3696438 0.09904576 -0.9238795
vn -0.8923991 -0.2391176 -0.3826834
vn -0.8923991 -0.2391176 0.3826834
vn 0.258819 -0.9659259 0
vn -0.258819 0.9659259 0
vn 0.8923991 -0.2391176 -0.3826834
vn 0.8923991 -0.2391176 0.3826834
vn 0.3696438 -0.09904576 0.9238795
vn -0.3696438 0.09904576 0.9238795
vn -0.3696438 0.09904576 -0.9238795
vn 0.3696438 -0.09904576 -0.9238795
vn -0.8923991 0.2391176 -0.3826834
vn -0.8923991 0.2391176 0.3826834
vn -0.258819 -0.9659259 0
vn 0.258819 0.9659259 0

vt 0.46875 0.225
vt 0.46875 0.125
vt 0.46875 0.025
vt 0.71875 0.04166666
vt 0.71875 0.09120294
vt 0.71875 0.09166666
vt 0.71875 0.225
vt 0.09375 0.06931951
vt 0.09375 0.0429315
vt 0.09375 0.04119704
vt 0.09375 0.1437713
vt 0.09375 0.1065454
vt 0.09375 0.025
vt 0.09375 0.225
vt 0.09375 0.1809973
vt 0.09375 0.02714279
vt 0.09375 0.03256859
vt 0.21875 0.425
vt 0.21875 0.325

usemtl colormap

f 3/1/2 2/2/1 1/1/1
f 2/2/1 3/1/2 4/2/2
f 7/1/3 6/2/4 5/2/3
f 6/2/4 7/1/3 8/1/4
f 11/1/5 10/2/6 9/2/5
f 10/2/6 11/1/5 12/1/6
f 15/2/8 14/1/7 13/2/7
f 14/1/7 15/2/8 16/1/8
f 13/2/7 11/1/5 9/2/5
f 11/1/5 13/2/7 14/1/7
f 7/1/3 4/2/2 3/1/2
f 4/2/2 7/1/3 5/2/3
f 6/2/4 16/1/8 15/2/8
f 16/1/8 6/2/4 8/1/4
f 1/1/1 10/2/6 12/1/6
f 10/2/6 1/1/1 2/2/1
f 12/1/9 3/1/9 1/1/9
f 3/1/9 12/1/9 7/1/9
f 7/1/9 12/1/9 11/1/9
f 7/1/9 11/1/9 8/1/9
f 8/1/9 11/1/9 14/1/9
f 8/1/9 14/1/9 16/1/9
f 19/3/10 18/3/10 17/3/10
f 18/3/10 19/3/10 20/3/10
f 20/3/10 19/3/10 21/3/10
f 20/3/10 21/3/10 22/3/10
f 22/3/10 21/3/10 23/3/10
f 22/3/10 23/3/10 24/3/10
f 9/2/13 20/3/12 22/3/11
f 20/3/12 9/2/13 10/2/14
f 2/2/15 20/3/12 10/2/14
f 20/3/12 2/2/15 18/3/16
f 4/2/17 18/3/16 2/2/15
f 18/3/16 4/2/17 17/3/18
f 4/2/17 19/3/19 17/3/18
f 19/3/19 4/2/17 5/2/20
f 21/3/23 15/2/22 23/3/21
f 15/2/22 21/3/23 6/2/24
f 5/2/20 21/3/23 19/3/19
f 21/3/23 5/2/20 6/2/24
f 22/3/11 13/2/25 9/2/13
f 13/2/25 22/3/11 24/3/26
f 24/3/26 15/2/22 13/2/25
f 15/2/22 24/3/26 23/3/21
f 27/6/29 26/5/28 25/4/27
f 28/7/32 26/5/31 27/6/30
f 29/6/34 25/4/27 26/5/33
f 28/7/32 29/6/36 26/5/35
f 32/7/39 31/6/38 30/5/37
f 31/6/42 33/4/41 30/5/40
f 32/7/39 30/5/44 34/6/43
f 34/6/46 30/5/45 33/4/41
f 31/6/42 25/4/27 33/4/41
f 25/4/27 31/6/42 27/6/29
f 33/4/41 29/6/34 34/6/46
f 29/6/34 33/4/41 25/4/27
f 32/7/39 29/6/36 28/7/32
f 29/6/36 32/7/39 34/6/43
f 27/6/30 32/7/39 28/7/32
f 32/7/39 27/6/30 31/6/38
f 37/8/49 36/9/48 35/8/47
f 40/8/52 39/10/51 38/9/50
f 40/8/52 38/9/50 41/8/53
f 35/8/47 36/9/48 42/10/54
f 38/9/57 37/8/56 41/8/55
f 37/8/56 38/9/57 36/9/58
f 45/12/59 44/11/59 43/11/59
f 44/11/59 45/12/59 46/12/59
f 42/10/62 47/13/61 39/10/60
f 47/13/61 42/10/62 48/13/61
f 51/14/63 50/15/64 49/14/63
f 50/15/64 51/14/63 52/15/65
f 37/8/56 45/12/59 41/8/55
f 45/12/59 37/8/56 46/12/59
f 55/16/66 54/17/67 53/16/66
f 54/17/67 55/16/66 56/17/67
f 52/15/69 44/11/68 57/11/68
f 44/11/68 52/15/69 58/15/70
f 56/17/67 38/9/57 54/17/67
f 38/9/57 56/17/67 36/9/58
f 57/11/71 60/12/71 59/11/71
f 60/12/71 57/11/71 61/12/71
f 63/14/74 50/15/73 62/15/72
f 50/15/73 63/14/74 49/14/74
f 45/12/75 40/8/52 41/8/53
f 40/8/52 45/12/75 60/12/75
f 44/11/59 62/15/76 43/11/59
f 62/15/76 44/11/59 58/15/77
f 51/14/78 58/15/70 52/15/69
f 58/15/70 51/14/78 64/14/78
f 53/16/75 39/10/51 47/13/75
f 39/10/51 53/16/75 54/17/75
f 39/10/51 54/17/75 38/9/50
f 61/12/68 37/8/49 35/8/47
f 37/8/49 61/12/68 46/12/68
f 55/16/66 47/13/79 48/13/79
f 47/13/79 55/16/66 53/16/66
f 63/14/80 51/14/80 49/14/80
f 51/14/80 63/14/80 64/14/80
f 35/8/82 39/10/60 40/8/81
f 39/10/60 35/8/82 42/10/62
f 62/15/72 59/11/75 43/11/75
f 59/11/75 62/15/72 50/15/73
f 43/11/75 60/12/75 45/12/75
f 60/12/75 43/11/75 59/11/75
f 57/11/68 46/12/68 61/12/68
f 46/12/68 57/11/68 44/11/68
f 50/15/64 57/11/71 59/11/71
f 57/11/71 50/15/64 52/15/65
f 62/15/76 64/14/83 63/14/83
f 64/14/83 62/15/76 58/15/77
f 60/12/71 35/8/82 40/8/81
f 35/8/82 60/12/71 61/12/71
f 42/10/54 55/16/68 48/13/68
f 55/16/68 42/10/54 56/17/68
f 56/17/68 42/10/54 36/9/48
f 67/18/85 66/19/84 65/18/84
f 66/19/84 67/18/85 68/19/85
f 71/18/86 70/19/87 69/19/86
f 70/19/87 71/18/86 72/18/87
f 75/18/88 74/19/89 73/19/88
f 74/19/89 75/18/88 76/18/89
f 79/19/91 78/18/90 77/19/90
f 78/18/90 79/19/91 80/18/91
f 77/19/90 75/18/88 73/19/88
f 75/18/88 77/19/90 78/18/90
f 67/18/85 69/19/86 68/19/85
f 69/19/86 67/18/85 71/18/86
f 70/19/87 80/18/91 79/19/91
f 80/18/91 70/19/87 72/18/87
f 65/18/84 74/19/89 76/18/89
f 74/19/89 65/18/84 66/19/84
f 69/19/92 66/19/92 68/19/92
f 66/19/92 69/19/92 74/19/92
f 74/19/92 69/19/92 70/19/92
f 74/19/92 70/19/92 73/19/92
f 73/19/92 70/19/92 79/19/92
f 73/19/92 79/19/92 77/19/92
f 76/18/93 67/18/93 65/18/93
f 67/18/93 76/18/93 71/18/93
f 71/18/93 76/18/93 75/18/93
f 71/18/93 75/18/93 72/18/93
f 72/18/93 75/18/93 78/18/93
f 72/18/93 78/18/93 80/18/93
f 83/18/95 82/19/94 81/18/94
f 82/19/94 83/18/95 84/19/95
f 87/18/96 86/19/97 85/19/96
f 86/19/97 87/18/96 88/18/97
f 91/18/98 90/19/99 89/19/98
f 90/19/99 91/18/98 92/18/99
f 95/19/101 94/18/100 93/19/100
f 94/18/100 95/19/101 96/18/101
f 93/19/100 91/18/98 89/19/98
f 91/18/98 93/19/100 94/18/100
f 83/18/95 85/19/96 84/19/95
f 85/19/96 83/18/95 87/18/96
f 86/19/97 96/18/101 95/19/101
f 96/18/101 86/19/97 88/18/97
f 81/18/94 90/19/99 92/18/99
f 90/19/99 81/18/94 82/19/94
f 85/19/102 82/19/102 84/19/102
f 82/19/102 85/19/102 90/19/102
f 90/19/102 85/19/102 86/19/102
f 90/19/102 86/19/102 89/19/102
f 89/19/102 86/19/102 95/19/102
f 89/19/102 95/19/102 93/19/102
f 92/18/103 83/18/103 81/18/103
f 83/18/103 92/18/103 87/18/103
f 87/18/103 92/18/103 91/18/103
f 87/18/103 91/18/103 88/18/103
f 88/18/103 91/18/103 94/18/103
f 88/18/103 94/18/103 96/18/103

g spear-b




usemtl colormap

f 3/1/2 2/2/1 1/1/1
f 2/2/1 3/1/2 4/2/2
f 7/1/3 6/2/4 5/2/3
f 6/2/4 7/1/3 8/1/4
f 11/1/5 10/2/6 9/2/5
f 10/2/6 11/1/5 12/1/6
f 15/2/8 14/1/7 13/2/7
f 14/1/7 15/2/8 16/1/8
f 13/2/7 11/1/5 9/2/5
f 11/1/5 13/2/7 14/1/7
f 7/1/3 4/2/2 3/1/2
f 4/2/2 7/1/3 5/2/3
f 6/2/4 16/1/8 15/2/8
f 16/1/8 6/2/4 8/1/4
f 1/1/1 10/2/6 12/1/6
f 10/2/6 1/1/1 2/2/1
f 12/1/9 3/1/9 1/1/9
f 3/1/9 12/1/9 7/1/9
f 7/1/9 12/1/9 11/1/9
f 7/1/9 11/1/9 8/1/9
f 8/1/9 11/1/9 14/1/9
f 8/1/9 14/1/9 16/1/9
f 19/3/10 18/3/10 17/3/10
f 18/3/10 19/3/10 20/3/10
f 20/3/10 19/3/10 21/3/10
f 20/3/10 21/3/10 22/3/10
f 22/3/10 21/3/10 23/3/10
f 22/3/10 23/3/10 24/3/10
f 9/2/13 20/3/12 22/3/11
f 20/3/12 9/2/13 10/2/14
f 2/2/15 20/3/12 10/2/14
f 20/3/12 2/2/15 18/3/16
f 4/2/17 18/3/16 2/2/15
f 18/3/16 4/2/17 17/3/18
f 4/2/17 19/3/19 17/3/18
f 19/3/19 4/2/17 5/2/20
f 21/3/23 15/2/22 23/3/21
f 15/2/22 21/3/23 6/2/24
f 5/2/20 21/3/23 19/3/19
f 21/3/23 5/2/20 6/2/24
f 22/3/11 13/2/25 9/2/13
f 13/2/25 22/3/11 24/3/26
f 24/3/26 15/2/22 13/2/25
f 15/2/22 24/3/26 23/3/21
f 27/6/29 26/5/28 25/4/27
f 28/7/32 26/5/31 27/6/30
f 29/6/34 25/4/27 26/5/33
f 28/7/32 29/6/36 26/5/35
f 32/7/39 31/6/38 30/5/37
f 31/6/42 33/4/41 30/5/40
f 32/7/39 30/5/44 34/6/43
f 34/6/46 30/5/45 33/4/41
f 31/6/42 25/4/27 33/4/41
f 25/4/27 31/6/42 27/6/29
f 33/4/41 29/6/34 34/6/46
f 29/6/34 33/4/41 25/4/27
f 32/7/39 29/6/36 28/7/32
f 29/6/36 32/7/39 34/6/43
f 27/6/30 32/7/39 28/7/32
f 32/7/39 27/6/30 31/6/38
f 37/8/49 36/9/48 35/8/47
f 40/8/52 39/10/51 38/9/50
f 40/8/52 38/9/50 41/8/53
f 35/8/47 36/9/48 42/10/54
f 38/9/57 37/8/56 41/8/55
f 37/8/56 38/9/57 36/9/58
f 45/12/59 44/11/59 43/11/59
f 44/11/59 45/12/59 46/12/59
f 42/10/62 47/13/61 39/10/60
f 47/13/61 42/10/62 48/13/61
f 51/14/63 50/15/64 49/14/63
f 50/15/64 51/14/63 52/15/65
f 37/8/56 45/12/59 41/8/55
f 45/12/59 37/8/56 46/12/59
f 55/16/66 54/17/67 53/16/66
f 54/17/67 55/16/66 56/17/67
f 52/15/69 44/11/68 57/11/68
f 44/11/68 52/15/69 58/15/70
f 56/17/67 38/9/57 54/17/67
f 38/9/57 56/17/67 36/9/58
f 57/11/71 60/12/71 59/11/71
f 60/12/71 57/11/71 61/12/71
f 63/14/74 50/15/73 62/15/72
f 50/15/73 63/14/74 49/14/74
f 45/12/75 40/8/52 41/8/53
f 40/8/52 45/12/75 60/12/75
f 44/11/59 62/15/76 43/11/59
f 62/15/76 44/11/59 58/15/77
f 51/14/78 58/15/70 52/15/69
f 58/15/70 51/14/78 64/14/78
f 53/16/75 39/10/51 47/13/75
f 39/10/51 53/16/75 54/17/75
f 39/10/51 54/17/75 38/9/50
f 61/12/68 37/8/49 35/8/47
f 37/8/49 61/12/68 46/12/68
f 55/16/66 47/13/79 48/13/79
f 47/13/79 55/16/66 53/16/66
f 63/14/80 51/14/80 49/14/80
f 51/14/80 63/14/80 64/14/80
f 35/8/82 39/10/60 40/8/81
f 39/10/60 35/8/82 42/10/62
f 62/15/72 59/11/75 43/11/75
f 59/11/75 62/15/72 50/15/73
f 43/11/75 60/12/75 45/12/75
f 60/12/75 43/11/75 59/11/75
f 57/11/68 46/12/68 61/12/68
f 46/12/68 57/11/68 44/11/68
f 50/15/64 57/11/71 59/11/71
f 57/11/71 50/15/64 52/15/65
f 62/15/76 64/14/83 63/14/83
f 64/14/83 62/15/76 58/15/77
f 60/12/71 35/8/82 40/8/81
f 35/8/82 60/12/71 61/12/71
f 42/10/54 55/16/68 48/13/68
f 55/16/68 42/10/54 56/17/68
f 56/17/68 42/10/54 36/9/48
f 67/18/85 66/19/84 65/18/84
f 66/19/84 67/18/85 68/19/85
f 71/18/86 70/19/87 69/19/86
f 70/19/87 71/18/86 72/18/87
f 75/18/88 74/19/89 73/19/88
f 74/19/89 75/18/88 76/18/89
f 79/19/91 78/18/90 77/19/90
f 78/18/90 79/19/91 80/18/91
f 77/19/90 75/18/88 73/19/88
f 75/18/88 77/19/90 78/18/90
f 67/18/85 69/19/86 68/19/85
f 69/19/86 67/18/85 71/18/86
f 70/19/87 80/18/91 79/19/91
f 80/18/91 70/19/87 72/18/87
f 65/18/84 74/19/89 76/18/89
f 74/19/89 65/18/84 66/19/84
f 69/19/92 66/19/92 68/19/92
f 66/19/92 69/19/92 74/19/92
f 74/19/92 69/19/92 70/19/92
f 74/19/92 70/19/92 73/19/92
f 73/19/92 70/19/92 79/19/92
f 73/19/92 79/19/92 77/19/92
f 76/18/93 67/18/93 65/18/93
f 67/18/93 76/18/93 71/18/93
f 71/18/93 76/18/93 75/18/93
f 71/18/93 75/18/93 72/18/93
f 72/18/93 75/18/93 78/18/93
f 72/18/93 78/18/93 80/18/93
f 83/18/95 82/19/94 81/18/94
f 82/19/94 83/18/95 84/19/95
f 87/18/96 86/19/97 85/19/96
f 86/19/97 87/18/96 88/18/97
f 91/18/98 90/19/99 89/19/98
f 90/19/99 91/18/98 92/18/99
f 95/19/101 94/18/100 93/19/100
f 94/18/100 95/19/101 96/18/101
f 93/19/100 91/18/98 89/19/98
f 91/18/98 93/19/100 94/18/100
f 83/18/95 85/19/96 84/19/95
f 85/19/96 83/18/95 87/18/96
f 86/19/97 96/18/101 95/19/101
f 96/18/101 86/19/97 88/18/97
f 81/18/94 90/19/99 92/18/99
f 90/19/99 81/18/94 82/19/94
f 85/19/102 82/19/102 84/19/102
f 82/19/102 85/19/102 90/19/102
f 90/19/102 85/19/102 86/19/102
f 90/19/102 86/19/102 89/19/102
f 89/19/102 86/19/102 95/19/102
f 89/19/102 95/19/102 93/19/102
f 92/18/103 83/18/103 81/18/103
f 83/18/103 92/18/103 87/18/103
f 87/18/103 92/18/103 91/18/103
f 87/18/103 91/18/103 88/18/103
f 88/18/103 91/18/103 94/18/103
f 88/18/103 94/18/103 96/18/103

