# Created by Kenney (www.kenney.nl)

mtllib spear-e.mtl

g spear-e

v 0.09375 4.298081 -0.09375 1 1 1
v 0.09375 0.348081 -0.09375 1 1 1
v 0.09375 4.298081 0.09375 1 1 1
v 0.09375 0.348081 0.09375 1 1 1
v 0.0004819689 0 0.09375 1 1 1
v -0.1713768 0.04604942 0.09375 1 1 1
v -0.2201736 0.1626521 0.09375 1 1 1
v -0.09375 0.3853551 0.09375 1 1 1
v -0.09375 4.298081 0.09375 1 1 1
v -0.09375 0.3853551 -0.09375 1 1 1
v -0.09375 4.298081 -0.09375 1 1 1
v 0.0004819689 0 -0.09375 1 1 1
v -0.1713768 0.04604942 -0.09375 1 1 1
v -0.2201736 0.1626521 -0.09375 1 1 1
v -1.732587E-15 4.52746 -0.04769266 1 1 1
v -1.732587E-15 4.789834 -0.2408 1 1 1
v -0.2934761 4.79229 -0.04498106 1 1 1
v -1.732587E-15 5.498504 -0.04498106 1 1 1
v 0.2934761 4.79229 -0.04498106 1 1 1
v -5.775292E-15 4.789834 0.2408 1 1 1
v -0.2934761 4.79229 0.04498106 1 1 1
v 1.155058E-15 5.498504 0.04498106 1 1 1
v 1.155058E-15 4.52746 0.04769266 1 1 1
v 0.2934761 4.79229 0.04498106 1 1 1
v -0.2109375 4.279331 -0.1171875 1 1 1
v -0.2109375 4.466831 -0.1171875 1 1 1
v -0.2109375 4.279331 0.1171875 1 1 1
v -0.2109375 4.466831 0.1171875 1 1 1
v 0.1171875 4.466831 0.2109375 1 1 1
v 0.1171875 4.279331 0.2109375 1 1 1
v -0.1171875 4.466831 0.2109375 1 1 1
v -0.1171875 4.279331 0.2109375 1 1 1
v 0.1171875 4.466831 -0.2109375 1 1 1
v -0.1171875 4.466831 -0.2109375 1 1 1
v 0.1171875 4.279331 -0.2109375 1 1 1
v -0.1171875 4.279331 -0.2109375 1 1 1
v 0.2109375 4.466831 -0.1171875 1 1 1
v 0.2109375 4.279331 -0.1171875 1 1 1
v 0.2109375 4.466831 0.1171875 1 1 1
v 0.2109375 4.279331 0.1171875 1 1 1
v -0.1265625 4.698081 0.0703125 1 1 1
v -0.1265625 4.698081 -0.0703125 1 1 1
v -0.0703125 4.698081 0.1265625 1 1 1
v -0.0703125 4.698081 -0.1265625 1 1 1
v 0.0703125 4.698081 0.1265625 1 1 1
v 0.0703125 4.698081 -0.1265625 1 1 1
v 0.1265625 4.698081 0.0703125 1 1 1
v 0.1265625 4.698081 -0.0703125 1 1 1
v -0.0703125 1.298081 -0.1265625 1 1 1
v 0.0703125 1.298081 -0.1265625 1 1 1
v -0.0703125 2.648081 -0.1265625 1 1 1
v 0.0703125 2.648081 -0.1265625 1 1 1
v -0.1265625 1.298081 0.0703125 1 1 1
v -0.1265625 2.648081 0.0703125 1 1 1
v -0.0703125 1.298081 0.1265625 1 1 1
v -0.0703125 2.648081 0.1265625 1 1 1
v 0.1265625 2.648081 -0.0703125 1 1 1
v 0.1265625 1.298081 -0.0703125 1 1 1
v 0.1265625 1.298081 0.0703125 1 1 1
v 0.0703125 1.298081 0.1265625 1 1 1
v -0.1265625 1.298081 -0.0703125 1 1 1
v 0.1265625 2.648081 0.0703125 1 1 1
v 0.0703125 2.648081 0.1265625 1 1 1
v -0.1265625 2.648081 -0.0703125 1 1 1
v 0.16875 1.298081 -0.09375 1 1 1
v 0.16875 1.148081 -0.09375 1 1 1
v 0.16875 1.298081 0.09375 1 1 1
v 0.16875 1.148081 0.09375 1 1 1
v 0.09375 1.148081 0.16875 1 1 1
v -0.09375 1.148081 0.16875 1 1 1
v 0.09375 1.298081 0.16875 1 1 1
v -0.09375 1.298081 0.16875 1 1 1
v -0.09375 1.148081 -0.16875 1 1 1
v 0.09375 1.148081 -0.16875 1 1 1
v -0.09375 1.298081 -0.16875 1 1 1
v 0.09375 1.298081 -0.16875 1 1 1
v -0.16875 1.148081 -0.09375 1 1 1
v -0.16875 1.298081 -0.09375 1 1 1
v -0.16875 1.148081 0.09375 1 1 1
v -0.16875 1.298081 0.09375 1 1 1
v 0.16875 2.798081 -0.09375 1 1 1
v 0.16875 2.648081 -0.09375 1 1 1
v 0.16875 2.798081 0.09375 1 1 1
v 0.16875 2.648081 0.09375 1 1 1
v 0.09375 2.648081 0.16875 1 1 1
v -0.09375 2.648081 0.16875 1 1 1
v 0.09375 2.798081 0.16875 1 1 1
v -0.09375 2.798081 0.16875 1 1 1
v -0.09375 2.648081 -0.16875 1 1 1
v 0.09375 2.648081 -0.16875 1 1 1
v -0.09375 2.798081 -0.16875 1 1 1
v 0.09375 2.798081 -0.16875 1 1 1
v -0.16875 2.648081 -0.09375 1 1 1
v -0.16875 2.798081 -0.09375 1 1 1
v -0.16875 2.648081 0.09375 1 1 1
v -0.16875 2.798081 0.09375 1 1 1

vn 1 0 0
vn 0.9914449 -0.1305262 0
vn 0 0 1
vn -0.9668621 0.2552991 0
vn -1 0 0
vn 0 1 0
vn 0 0 -1
vn -0.9982014 0.05995033 0
vn -0.6579755 -0.7530394 0
vn 0.9659258 -0.258819 0
vn -0.258819 -0.9659258 0
vn 0 -0.9211487 -0.389211
vn -0.4767422 -0.5210611 -0.7079634
vn -0.6454188 -0.7124107 -0.2755098
vn -0.8447843 0.3510607 -0.4038512
vn -0.539597 0.2242363 -0.8115128
vn 0 0.879256 -0.4763495
vn 0.4767422 -0.5210611 -0.7079634
vn 0.6454188 -0.7124107 -0.2755098
vn 0.539597 0.2242363 -0.8115128
vn 0.8447843 0.3510607 -0.4038512
vn -0.539597 0.2242363 0.8115128
vn -0.8447843 0.3510607 0.4038512
vn 0 0.879256 0.4763495
vn -0.4767422 -0.5210611 0.7079634
vn 0 -0.9211487 0.389211
vn -0.6454188 -0.7124107 0.2755098
vn 0.8447843 0.3510607 0.4038512
vn 0.539597 0.2242363 0.8115128
vn 0.4767422 -0.5210611 0.7079634
vn 0.6454188 -0.7124107 0.2755098
vn -0.9238795 3.863516E-15 -0.3826834
vn -0.9238795 3.863516E-15 0.3826834
vn 0.3826834 -1.600321E-15 0.9238795
vn -0.3826834 1.600321E-15 0.9238795
vn 0.3826834 -1.600321E-15 -0.9238795
vn -0.3826834 1.600321E-15 -0.9238795
vn 0.9238795 -3.863516E-15 -0.3826834
vn 0.9238795 -3.863516E-15 0.3826834
vn -4.18184E-15 -1 0
vn 4.18184E-15 1 0
vn 0.3429429 0.3825452 -0.8579333
vn -0.3429429 0.3825452 -0.8579333
vn 0.3614741 0.3833766 -0.8499171
vn -0.3614741 0.3833766 -0.8499171
vn 0.8499171 0.3833766 -0.3614741
vn 0.8579333 0.3825452 -0.3429429
vn 0.8499171 0.3833766 0.3614741
vn 0.8579333 0.3825452 0.3429429
vn 0.3429429 0.3825452 0.8579333
vn 0.3614741 0.3833766 0.8499171
vn -0.3429429 0.3825452 0.8579333
vn -0.3614741 0.3833766 0.8499171
vn -0.8499171 0.3833766 -0.3614741
vn -0.8579333 0.3825452 -0.3429429
vn -0.8579333 0.3825452 0.3429429
vn -0.8499171 0.3833766 0.3614741
vn -0.3826834 0 -0.9238795
vn 0.3826834 0 -0.9238795
vn -0.9238795 0 0.3826834
vn -0.3826834 0 0.9238795
vn 0.9238795 0 -0.3826834
vn 0 -1 0
vn 0.9238795 0 0.3826834
vn -0.9238795 0 -0.3826834
vn 0.3826834 0 0.9238795

vt 0.09375 0.225
vt 0.09375 0.025
vt 0.09375 0.0268873
vt 0.46875 0.04166666
vt 0.46875 0.09120294
vt 0.46875 0.09166666
vt 0.46875 0.225
vt 0.46875 0.1354478
vt 0.46875 0.025
vt 0.21875 0.475
vt 0.21875 0.275
vt 0.21875 0.425
vt 0.21875 0.325

usemtl colormap

f 3/1/1 2/2/2 1/1/1
f 2/2/2 3/1/1 4/2/2
f 4/2/3 6/2/3 5/2/3
f 6/2/3 4/2/3 7/2/3
f 7/2/3 4/2/3 8/3/3
f 8/3/3 4/2/3 3/1/3
f 8/3/3 3/1/3 9/1/3
f 8/3/4 11/1/5 10/3/4
f 11/1/5 8/3/4 9/1/5
f 11/1/6 3/1/6 1/1/6
f 3/1/6 11/1/6 9/1/6
f 13/2/7 2/2/7 12/2/7
f 2/2/7 13/2/7 14/2/7
f 2/2/7 14/2/7 10/3/7
f 2/2/7 10/3/7 1/1/7
f 1/1/7 10/3/7 11/1/7
f 7/2/8 10/3/4 14/2/8
f 10/3/4 7/2/8 8/3/4
f 6/2/9 14/2/8 13/2/9
f 14/2/8 6/2/9 7/2/8
f 4/2/2 12/2/10 2/2/2
f 12/2/10 4/2/2 5/2/10
f 6/2/9 12/2/11 5/2/11
f 12/2/11 6/2/9 13/2/9
f 17/6/14 16/5/13 15/4/12
f 18/7/17 16/5/16 17/6/15
f 19/6/19 15/4/12 16/5/18
f 18/7/17 19/6/21 16/5/20
f 22/7/24 21/6/23 20/5/22
f 21/6/27 23/4/26 20/5/25
f 22/7/24 20/5/29 24/6/28
f 24/6/31 20/5/30 23/4/26
f 21/6/27 15/4/12 23/4/26
f 15/4/12 21/6/27 17/6/14
f 23/4/26 19/6/19 24/6/31
f 19/6/19 23/4/26 15/4/12
f 22/7/24 19/6/21 18/7/17
f 19/6/21 22/7/24 24/6/28
f 17/6/15 22/7/24 18/7/17
f 22/7/24 17/6/15 21/6/23
f 27/7/33 26/8/32 25/7/32
f 26/8/32 27/7/33 28/8/33
f 31/8/35 30/7/34 29/8/34
f 30/7/34 31/8/35 32/7/35
f 35/7/36 34/8/37 33/8/36
f 34/8/37 35/7/36 36/7/37
f 39/8/39 38/7/38 37/8/38
f 38/7/38 39/8/39 40/7/39
f 37/8/38 35/7/36 33/8/36
f 35/7/36 37/8/38 38/7/38
f 32/7/35 28/8/33 27/7/33
f 28/8/33 32/7/35 31/8/35
f 29/8/34 40/7/39 39/8/39
f 40/7/39 29/8/34 30/7/34
f 25/7/32 34/8/37 36/7/37
f 34/8/37 25/7/32 26/8/32
f 36/7/40 27/7/40 25/7/40
f 27/7/40 36/7/40 32/7/40
f 32/7/40 36/7/40 35/7/40
f 32/7/40 35/7/40 30/7/40
f 30/7/40 35/7/40 38/7/40
f 30/7/40 38/7/40 40/7/40
f 43/9/41 42/9/41 41/9/41
f 42/9/41 43/9/41 44/9/41
f 44/9/41 43/9/41 45/9/41
f 44/9/41 45/9/41 46/9/41
f 46/9/41 45/9/41 47/9/41
f 46/9/41 47/9/41 48/9/41
f 33/8/44 44/9/43 46/9/42
f 44/9/43 33/8/44 34/8/45
f 46/9/42 37/8/46 33/8/44
f 37/8/46 46/9/42 48/9/47
f 48/9/47 39/8/48 37/8/46
f 39/8/48 48/9/47 47/9/49
f 43/9/52 29/8/51 45/9/50
f 29/8/51 43/9/52 31/8/53
f 26/8/54 44/9/43 34/8/45
f 44/9/43 26/8/54 42/9/55
f 45/9/50 39/8/48 47/9/49
f 39/8/48 45/9/50 29/8/51
f 28/8/57 43/9/52 41/9/56
f 43/9/52 28/8/57 31/8/53
f 28/8/57 42/9/55 26/8/54
f 42/9/55 28/8/57 41/9/56
f 51/11/58 50/10/59 49/10/58
f 50/10/59 51/11/58 52/11/59
f 55/10/61 54/11/60 53/10/60
f 54/11/60 55/10/61 56/11/61
f 57/11/62 50/10/59 52/11/59
f 50/10/59 57/11/62 58/10/62
f 60/10/63 58/10/63 59/10/63
f 58/10/63 60/10/63 50/10/63
f 50/10/63 60/10/63 55/10/63
f 50/10/63 55/10/63 49/10/63
f 49/10/63 55/10/63 53/10/63
f 49/10/63 53/10/63 61/10/63
f 62/11/64 58/10/62 57/11/62
f 58/10/62 62/11/64 59/10/64
f 52/11/6 62/11/6 57/11/6
f 62/11/6 52/11/6 63/11/6
f 63/11/6 52/11/6 51/11/6
f 63/11/6 51/11/6 56/11/6
f 56/11/6 51/11/6 64/11/6
f 56/11/6 64/11/6 54/11/6
f 53/10/60 64/11/65 61/10/65
f 64/11/65 53/10/60 54/11/60
f 63/11/66 55/10/61 60/10/66
f 55/10/61 63/11/66 56/11/61
f 63/11/66 59/10/64 62/11/64
f 59/10/64 63/11/66 60/10/66
f 61/10/65 51/11/58 49/10/58
f 51/11/58 61/10/65 64/11/65
f 67/12/64 66/13/62 65/12/62
f 66/13/62 67/12/64 68/13/64
f 71/12/66 70/13/61 69/13/66
f 70/13/61 71/12/66 72/12/61
f 75/12/58 74/13/59 73/13/58
f 74/13/59 75/12/58 76/12/59
f 79/13/60 78/12/65 77/13/65
f 78/12/65 79/13/60 80/12/60
f 77/13/65 75/12/58 73/13/58
f 75/12/58 77/13/65 78/12/65
f 67/12/64 69/13/66 68/13/64
f 69/13/66 67/12/64 71/12/66
f 70/13/61 80/12/60 79/13/60
f 80/12/60 70/13/61 72/12/61
f 65/12/62 74/13/59 76/12/59
f 74/13/59 65/12/62 66/13/62
f 69/13/63 66/13/63 68/13/63
f 66/13/63 69/13/63 74/13/63
f 74/13/63 69/13/63 70/13/63
f 74/13/63 70/13/63 73/13/63
f 73/13/63 70/13/63 79/13/63
f 73/13/63 79/13/63 77/13/63
f 76/12/6 67/12/6 65/12/6
f 67/12/6 76/12/6 71/12/6
f 71/12/6 76/12/6 75/12/6
f 71/12/6 75/12/6 72/12/6
f 72/12/6 75/12/6 78/12/6
f 72/12/6 78/12/6 80/12/6
f 83/12/64 82/13/62 81/12/62
f 82/13/62 83/12/64 84/13/64
f 87/12/66 86/13/61 85/13/66
f 86/13/61 87/12/66 88/12/61
f 91/12/58 90/13/59 89/13/58
f 90/13/59 91/12/58 92/12/59
f 95/13/60 94/12/65 93/13/65
f 94/12/65 95/13/60 96/12/60
f 93/13/65 91/12/58 89/13/58
f 91/12/58 93/13/65 94/12/65
f 83/12/64 85/13/66 84/13/64
f 85/13/66 83/12/64 87/12/66
f 86/13/61 96/12/60 95/13/60
f 96/12/60 86/13/61 88/12/61
f 81/12/62 90/13/59 92/12/59
f 90/13/59 81/12/62 82/13/62
f 85/13/63 82/13/63 84/13/63
f 82/13/63 85/13/63 90/13/63
f 90/13/63 85/13/63 86/13/63
f 90/13/63 86/13/63 89/13/63
f 89/13/63 86/13/63 95/13/63
f 89/13/63 95/13/63 93/13/63
f 92/12/6 83/12/6 81/12/6
f 83/12/6 92/12/6 87/12/6
f 87/12/6 92/12/6 91/12/6
f 87/12/6 91/12/6 88/12/6
f 88/12/6 91/12/6 94/12/6
f 88/12/6 94/12/6 96/12/6

g spear-e




usemtl colormap

f 3/1/1 2/2/2 1/1/1
f 2/2/2 3/1/1 4/2/2
f 4/2/3 6/2/3 5/2/3
f 6/2/3 4/2/3 7/2/3
f 7/2/3 4/2/3 8/3/3
f 8/3/3 4/2/3 3/1/3
f 8/3/3 3/1/3 9/1/3
f 8/3/4 11/1/5 10/3/4
f 11/1/5 8/3/4 9/1/5
f 11/1/6 3/1/6 1/1/6
f 3/1/6 11/1/6 9/1/6
f 13/2/7 2/2/7 12/2/7
f 2/2/7 13/2/7 14/2/7
f 2/2/7 14/2/7 10/3/7
f 2/2/7 10/3/7 1/1/7
f 1/1/7 10/3/7 11/1/7
f 7/2/8 10/3/4 14/2/8
f 10/3/4 7/2/8 8/3/4
f 6/2/9 14/2/8 13/2/9
f 14/2/8 6/2/9 7/2/8
f 4/2/2 12/2/10 2/2/2
f 12/2/10 4/2/2 5/2/10
f 6/2/9 12/2/11 5/2/11
f 12/2/11 6/2/9 13/2/9
f 17/6/14 16/5/13 15/4/12
f 18/7/17 16/5/16 17/6/15
f 19/6/19 15/4/12 16/5/18
f 18/7/17 19/6/21 16/5/20
f 22/7/24 21/6/23 20/5/22
f 21/6/27 23/4/26 20/5/25
f 22/7/24 20/5/29 24/6/28
f 24/6/31 20/5/30 23/4/26
f 21/6/27 15/4/12 23/4/26
f 15/4/12 21/6/27 17/6/14
f 23/4/26 19/6/19 24/6/31
f 19/6/19 23/4/26 15/4/12
f 22/7/24 19/6/21 18/7/17
f 19/6/21 22/7/24 24/6/28
f 17/6/15 22/7/24 18/7/17
f 22/7/24 17/6/15 21/6/23
f 27/7/33 26/8/32 25/7/32
f 26/8/32 27/7/33 28/8/33
f 31/8/35 30/7/34 29/8/34
f 30/7/34 31/8/35 32/7/35
f 35/7/36 34/8/37 33/8/36
f 34/8/37 35/7/36 36/7/37
f 39/8/39 38/7/38 37/8/38
f 38/7/38 39/8/39 40/7/39
f 37/8/38 35/7/36 33/8/36
f 35/7/36 37/8/38 38/7/38
f 32/7/35 28/8/33 27/7/33
f 28/8/33 32/7/35 31/8/35
f 29/8/34 40/7/39 39/8/39
f 40/7/39 29/8/34 30/7/34
f 25/7/32 34/8/37 36/7/37
f 34/8/37 25/7/32 26/8/32
f 36/7/40 27/7/40 25/7/40
f 27/7/40 36/7/40 32/7/40
f 32/7/40 36/7/40 35/7/40
f 32/7/40 35/7/40 30/7/40
f 30/7/40 35/7/40 38/7/40
f 30/7/40 38/7/40 40/7/40
f 43/9/41 42/9/41 41/9/41
f 42/9/41 43/9/41 44/9/41
f 44/9/41 43/9/41 45/9/41
f 44/9/41 45/9/41 46/9/41
f 46/9/41 45/9/41 47/9/41
f 46/9/41 47/9/41 48/9/41
f 33/8/44 44/9/43 46/9/42
f 44/9/43 33/8/44 34/8/45
f 46/9/42 37/8/46 33/8/44
f 37/8/46 46/9/42 48/9/47
f 48/9/47 39/8/48 37/8/46
f 39/8/48 48/9/47 47/9/49
f 43/9/52 29/8/51 45/9/50
f 29/8/51 43/9/52 31/8/53
f 26/8/54 44/9/43 34/8/45
f 44/9/43 26/8/54 42/9/55
f 45/9/50 39/8/48 47/9/49
f 39/8/48 45/9/50 29/8/51
f 28/8/57 43/9/52 41/9/56
f 43/9/52 28/8/57 31/8/53
f 28/8/57 42/9/55 26/8/54
f 42/9/55 28/8/57 41/9/56
f 51/11/58 50/10/59 49/10/58
f 50/10/59 51/11/58 52/11/59
f 55/10/61 54/11/60 53/10/60
f 54/11/60 55/10/61 56/11/61
f 57/11/62 50/10/59 52/11/59
f 50/10/59 57/11/62 58/10/62
f 60/10/63 58/10/63 59/10/63
f 58/10/63 60/10/63 50/10/63
f 50/10/63 60/10/63 55/10/63
f 50/10/63 55/10/63 49/10/63
f 49/10/63 55/10/63 53/10/63
f 49/10/63 53/10/63 61/10/63
f 62/11/64 58/10/62 57/11/62
f 58/10/62 62/11/64 59/10/64
f 52/11/6 62/11/6 57/11/6
f 62/11/6 52/11/6 63/11/6
f 63/11/6 52/11/6 51/11/6
f 63/11/6 51/11/6 56/11/6
f 56/11/6 51/11/6 64/11/6
f 56/11/6 64/11/6 54/11/6
f 53/10/60 64/11/65 61/10/65
f 64/11/65 53/10/60 54/11/60
f 63/11/66 55/10/61 60/10/66
f 55/10/61 63/11/66 56/11/61
f 63/11/66 59/10/64 62/11/64
f 59/10/64 63/11/66 60/10/66
f 61/10/65 51/11/58 49/10/58
f 51/11/58 61/10/65 64/11/65
f 67/12/64 66/13/62 65/12/62
f 66/13/62 67/12/64 68/13/64
f 71/12/66 70/13/61 69/13/66
f 70/13/61 71/12/66 72/12/61
f 75/12/58 74/13/59 73/13/58
f 74/13/59 75/12/58 76/12/59
f 79/13/60 78/12/65 77/13/65
f 78/12/65 79/13/60 80/12/60
f 77/13/65 75/12/58 73/13/58
f 75/12/58 77/13/65 78/12/65
f 67/12/64 69/13/66 68/13/64
f 69/13/66 67/12/64 71/12/66
f 70/13/61 80/12/60 79/13/60
f 80/12/60 70/13/61 72/12/61
f 65/12/62 74/13/59 76/12/59
f 74/13/59 65/12/62 66/13/62
f 69/13/63 66/13/63 68/13/63
f 66/13/63 69/13/63 74/13/63
f 74/13/63 69/13/63 70/13/63
f 74/13/63 70/13/63 73/13/63
f 73/13/63 70/13/63 79/13/63
f 73/13/63 79/13/63 77/13/63
f 76/12/6 67/12/6 65/12/6
f 67/12/6 76/12/6 71/12/6
f 71/12/6 76/12/6 75/12/6
f 71/12/6 75/12/6 72/12/6
f 72/12/6 75/12/6 78/12/6
f 72/12/6 78/12/6 80/12/6
f 83/12/64 82/13/62 81/12/62
f 82/13/62 83/12/64 84/13/64
f 87/12/66 86/13/61 85/13/66
f 86/13/61 87/12/66 88/12/61
f 91/12/58 90/13/59 89/13/58
f 90/13/59 91/12/58 92/12/59
f 95/13/60 94/12/65 93/13/65
f 94/12/65 95/13/60 96/12/60
f 93/13/65 91/12/58 89/13/58
f 91/12/58 93/13/65 94/12/65
f 83/12/64 85/13/66 84/13/64
f 85/13/66 83/12/64 87/12/66
f 86/13/61 96/12/60 95/13/60
f 96/12/60 86/13/61 88/12/61
f 81/12/62 90/13/59 92/12/59
f 90/13/59 81/12/62 82/13/62
f 85/13/63 82/13/63 84/13/63
f 82/13/63 85/13/63 90/13/63
f 90/13/63 85/13/63 86/13/63
f 90/13/63 86/13/63 89/13/63
f 89/13/63 86/13/63 95/13/63
f 89/13/63 95/13/63 93/13/63
f 92/12/6 83/12/6 81/12/6
f 83/12/6 92/12/6 87/12/6
f 87/12/6 92/12/6 91/12/6
f 87/12/6 91/12/6 88/12/6
f 88/12/6 91/12/6 94/12/6
f 88/12/6 94/12/6 96/12/6

