# Created by Kenney (www.kenney.nl)

mtllib spear-d.mtl

g spear-d

v 0.09375 4.298081 -0.09375 1 1 1
v 0.09375 0.348081 -0.09375 1 1 1
v 0.09375 4.298081 0.09375 1 1 1
v 0.09375 0.348081 0.09375 1 1 1
v 0.00048197 0 0.09375 1 1 1
v -0.1713768 0.04604942 0.09375 1 1 1
v -0.2201736 0.1626521 0.09375 1 1 1
v -0.09375 0.3853551 0.09375 1 1 1
v -0.09375 4.298081 0.09375 1 1 1
v -0.09375 0.3853551 -0.09375 1 1 1
v -0.09375 4.298081 -0.09375 1 1 1
v 0.00048197 0 -0.09375 1 1 1
v -0.1713768 0.04604942 -0.09375 1 1 1
v -0.2201736 0.1626521 -0.09375 1 1 1
v -0.2320313 4.269956 -0.1289063 1 1 1
v -0.2320313 4.476206 -0.1289063 1 1 1
v -0.2320313 4.269956 0.1289063 1 1 1
v -0.2320313 4.476206 0.1289063 1 1 1
v -0.1289063 4.476206 0.2320313 1 1 1
v 0.1289063 4.476206 0.2320313 1 1 1
v -0.1289063 4.269956 0.2320313 1 1 1
v 0.1289063 4.269956 0.2320313 1 1 1
v -0.1289063 4.476206 -0.2320313 1 1 1
v -0.1289063 4.269956 -0.2320313 1 1 1
v 0.1289063 4.476206 -0.2320313 1 1 1
v 0.1289063 4.269956 -0.2320313 1 1 1
v 0.2320313 4.476206 -0.1289063 1 1 1
v 0.2320313 4.269956 -0.1289063 1 1 1
v 0.2320313 4.476206 0.1289063 1 1 1
v 0.2320313 4.269956 0.1289063 1 1 1
v -0.1392187 4.698081 0.07734375 1 1 1
v -0.1392187 4.698081 -0.07734375 1 1 1
v -0.07734375 4.698081 0.1392187 1 1 1
v -0.07734375 4.698081 -0.1392187 1 1 1
v 0.07734375 4.698081 0.1392187 1 1 1
v 0.07734375 4.698081 -0.1392187 1 1 1
v 0.1392187 4.698081 0.07734375 1 1 1
v 0.1392187 4.698081 -0.07734375 1 1 1
v 1.117551E-09 4.52746 -0.04769266 1 1 1
v 1.117551E-09 4.789834 -0.2408 1 1 1
v -0.2934761 4.79229 -0.04498106 1 1 1
v 1.117551E-09 5.498504 -0.04498106 1 1 1
v 0.2934761 4.79229 -0.04498106 1 1 1
v 1.117547E-09 4.789834 0.2408 1 1 1
v -0.2934761 4.79229 0.04498106 1 1 1
v 1.117553E-09 5.498504 0.04498106 1 1 1
v 1.117553E-09 4.52746 0.04769266 1 1 1
v 0.2934761 4.79229 0.04498106 1 1 1
v 0.2320313 4.476206 -0.1 1 1 1
v 0.2320313 4.476206 0.1 1 1 1
v 0.4618389 4.678167 -0.04 1 1 1
v 0.4618389 4.678167 0.04 1 1 1
v 0.1320312 4.649411 -0.1 1 1 1
v 0.4218389 4.747449 -0.04 1 1 1
v 0.1320312 4.649411 0.1 1 1 1
v 0.4218389 4.747449 0.04 1 1 1
v -0.1320312 4.649411 -0.1 1 1 1
v -0.1320312 4.649411 0.1 1 1 1
v -0.4218389 4.747449 -0.04 1 1 1
v -0.4218389 4.747449 0.04 1 1 1
v -0.2320313 4.476206 -0.1 1 1 1
v -0.4618389 4.678167 -0.04 1 1 1
v -0.2320313 4.476206 0.1 1 1 1
v -0.4618389 4.678167 0.04 1 1 1
v 0.16875 4.098081 -0.09375 1 1 1
v 0.16875 3.798081 -0.09375 1 1 1
v 0.16875 4.098081 0.09375 1 1 1
v 0.16875 3.798081 0.09375 1 1 1
v 0.09375 3.798081 0.16875 1 1 1
v -0.09375 3.798081 0.16875 1 1 1
v 0.09375 4.098081 0.16875 1 1 1
v -0.09375 4.098081 0.16875 1 1 1
v -0.09375 3.798081 -0.16875 1 1 1
v 0.09375 3.798081 -0.16875 1 1 1
v -0.09375 4.098081 -0.16875 1 1 1
v 0.09375 4.098081 -0.16875 1 1 1
v -0.16875 3.798081 -0.09375 1 1 1
v -0.16875 4.098081 -0.09375 1 1 1
v -0.16875 3.798081 0.09375 1 1 1
v -0.16875 4.098081 0.09375 1 1 1
v -0.0703125 1.298081 -0.1265625 1 1 1
v 0.0703125 1.298081 -0.1265625 1 1 1
v -0.0703125 2.648081 -0.1265625 1 1 1
v 0.0703125 2.648081 -0.1265625 1 1 1
v -0.1265625 1.298081 0.0703125 1 1 1
v -0.1265625 2.648081 0.0703125 1 1 1
v -0.0703125 1.298081 0.1265625 1 1 1
v -0.0703125 2.648081 0.1265625 1 1 1
v 0.1265625 2.648081 -0.0703125 1 1 1
v 0.1265625 1.298081 -0.0703125 1 1 1
v 0.1265625 1.298081 0.0703125 1 1 1
v 0.0703125 1.298081 0.1265625 1 1 1
v -0.1265625 1.298081 -0.0703125 1 1 1
v 0.1265625 2.648081 0.0703125 1 1 1
v 0.0703125 2.648081 0.1265625 1 1 1
v -0.1265625 2.648081 -0.0703125 1 1 1
v 0.16875 1.298081 -0.09375 1 1 1
v 0.16875 1.148081 -0.09375 1 1 1
v 0.16875 1.298081 0.09375 1 1 1
v 0.16875 1.148081 0.09375 1 1 1
v 0.09375 1.148081 0.16875 1 1 1
v -0.09375 1.148081 0.16875 1 1 1
v 0.09375 1.298081 0.16875 1 1 1
v -0.09375 1.298081 0.16875 1 1 1
v -0.09375 1.148081 -0.16875 1 1 1
v 0.09375 1.148081 -0.16875 1 1 1
v -0.09375 1.298081 -0.16875 1 1 1
v 0.09375 1.298081 -0.16875 1 1 1
v -0.16875 1.148081 -0.09375 1 1 1
v -0.16875 1.298081 -0.09375 1 1 1
v -0.16875 1.148081 0.09375 1 1 1
v -0.16875 1.298081 0.09375 1 1 1
v 0.16875 2.798081 -0.09375 1 1 1
v 0.16875 2.648081 -0.09375 1 1 1
v 0.16875 2.798081 0.09375 1 1 1
v 0.16875 2.648081 0.09375 1 1 1
v 0.09375 2.648081 0.16875 1 1 1
v -0.09375 2.648081 0.16875 1 1 1
v 0.09375 2.798081 0.16875 1 1 1
v -0.09375 2.798081 0.16875 1 1 1
v -0.09375 2.648081 -0.16875 1 1 1
v 0.09375 2.648081 -0.16875 1 1 1
v -0.09375 2.798081 -0.16875 1 1 1
v 0.09375 2.798081 -0.16875 1 1 1
v -0.16875 2.648081 -0.09375 1 1 1
v -0.16875 2.798081 -0.09375 1 1 1
v -0.16875 2.648081 0.09375 1 1 1
v -0.16875 2.798081 0.09375 1 1 1
v 0.1897114 2.420499 -0.09375 1 1 1
v 0.1438157 2.12403 -0.09375 1 1 1
v 0.1897114 2.420499 0.09375 1 1 1
v 0.1438157 2.12403 0.09375 1 1 1
v 0.06969854 2.135504 0.16875 1 1 1
v -0.1155943 2.164189 0.16875 1 1 1
v 0.1155943 2.431973 0.16875 1 1 1
v -0.06969853 2.460658 0.16875 1 1 1
v -0.1155943 2.164189 -0.16875 1 1 1
v 0.06969854 2.135504 -0.16875 1 1 1
v -0.06969853 2.460658 -0.16875 1 1 1
v 0.1155943 2.431973 -0.16875 1 1 1
v -0.1897114 2.175663 -0.09375 1 1 1
v -0.1438157 2.472131 -0.09375 1 1 1
v -0.1897114 2.175663 0.09375 1 1 1
v -0.1438157 2.472131 0.09375 1 1 1
v 0.1867581 2.24113 -0.1175156 1 1 1
v 0.2307148 1.829818 -0.1175156 1 1 1
v 0.1867581 2.24113 0.1175156 1 1 1
v 0.2307148 1.829818 0.1175156 1 1 1
v 0.1372346 1.819827 0.2115281 1 1 1
v -0.09646587 1.794852 0.2115281 1 1 1
v 0.09327795 2.23114 0.2115281 1 1 1
v -0.1404225 2.206165 0.2115281 1 1 1
v -0.09646587 1.794852 -0.2115281 1 1 1
v 0.1372346 1.819827 -0.2115281 1 1 1
v -0.1404225 2.206165 -0.2115281 1 1 1
v 0.09327795 2.23114 -0.2115281 1 1 1
v -0.1899461 1.784862 -0.1175156 1 1 1
v -0.2339027 2.196175 -0.1175156 1 1 1
v -0.1899461 1.784862 0.1175156 1 1 1
v -0.2339027 2.196175 0.1175156 1 1 1
v 0.1897114 1.820499 -0.09375 1 1 1
v 0.1438157 1.52403 -0.09375 1 1 1
v 0.1897114 1.820499 0.09375 1 1 1
v 0.1438157 1.52403 0.09375 1 1 1
v 0.06969854 1.535504 0.16875 1 1 1
v -0.1155943 1.564189 0.16875 1 1 1
v 0.1155943 1.831973 0.16875 1 1 1
v -0.06969853 1.860658 0.16875 1 1 1
v -0.1155943 1.564189 -0.16875 1 1 1
v 0.06969854 1.535504 -0.16875 1 1 1
v -0.06969853 1.860658 -0.16875 1 1 1
v 0.1155943 1.831973 -0.16875 1 1 1
v -0.1897114 1.575663 -0.09375 1 1 1
v -0.1438157 1.872132 -0.09375 1 1 1
v -0.1897114 1.575663 0.09375 1 1 1
v -0.1438157 1.872132 0.09375 1 1 1

vn 1 0 0
vn 0.9914449 -0.1305262 0
vn 0 0 1
vn -0.9668621 0.2552991 0
vn -1 0 0
vn 0 1 0
vn 0 0 -1
vn -0.9982014 0.05995033 0
vn -0.6579755 -0.7530394 0
vn 0.9659258 -0.258819 0
vn -0.258819 -0.9659258 0
vn -0.9238795 3.863516E-15 -0.3826834
vn -0.9238795 3.863516E-15 0.3826834
vn -0.3826834 1.600321E-15 0.9238795
vn 0.3826834 -1.600321E-15 0.9238795
vn -0.3826834 1.600321E-15 -0.9238795
vn 0.3826834 -1.600321E-15 -0.9238795
vn 0.9238795 -3.863516E-15 -0.3826834
vn 0.9238795 -3.863516E-15 0.3826834
vn 4.18184E-15 1 0
vn -4.18184E-15 -1 0
vn -0.8305688 0.4297526 -0.3542148
vn -0.8394809 0.4287456 -0.3338397
vn -0.8305688 0.4297526 0.3542148
vn -0.8394809 0.4287456 0.3338397
vn -0.3542148 0.4297526 -0.8305688
vn -0.3338397 0.4287456 -0.8394809
vn 0.8305688 0.4297526 -0.3542148
vn 0.8305688 0.4297526 0.3542148
vn 0.8394809 0.4287456 -0.3338397
vn 0.8394809 0.4287456 0.3338397
vn 0.3338397 0.4287456 0.8394809
vn 0.3542148 0.4297526 0.8305688
vn -0.3338397 0.4287456 0.8394809
vn -0.3542148 0.4297526 0.8305688
vn 0.3338397 0.4287456 -0.8394809
vn 0.3542148 0.4297526 -0.8305688
vn 0 -0.9211487 -0.389211
vn -0.4767422 -0.5210611 -0.7079634
vn -0.6454188 -0.7124107 -0.2755098
vn -0.8447843 0.3510607 -0.4038512
vn -0.539597 0.2242363 -0.8115128
vn 0 0.879256 -0.4763495
vn 0.4767422 -0.5210611 -0.7079634
vn 0.6454188 -0.7124107 -0.2755098
vn 0.539597 0.2242363 -0.8115128
vn 0.8447843 0.3510607 -0.4038512
vn -0.539597 0.2242363 0.8115128
vn -0.8447843 0.3510607 0.4038512
vn 0 0.879256 0.4763495
vn -0.4767422 -0.5210611 0.7079634
vn 0 -0.9211487 0.389211
vn -0.6454188 -0.7124107 0.2755098
vn 0.8447843 0.3510607 0.4038512
vn 0.539597 0.2242363 0.8115128
vn 0.4767422 -0.5210611 0.7079634
vn 0.6454188 -0.7124107 0.2755098
vn 0.5759092 -0.4531729 -0.6804138
vn 0.5759092 -0.4531729 0.6804138
vn 0.8475698 -0.1101024 -0.5191365
vn 0.8475698 -0.1101024 0.5191365
vn -0.1045047 0.7253384 -0.6804138
vn 0.3284333 0.7890682 -0.5191365
vn -0.1045047 0.7253384 0.6804138
vn 0.3284333 0.7890682 0.5191365
vn 0.1045047 0.7253384 -0.6804138
vn 0.1045047 0.7253384 0.6804138
vn -0.3284333 0.7890682 -0.5191365
vn -0.3284333 0.7890682 0.5191365
vn -0.5759092 -0.4531729 -0.6804138
vn -0.8475698 -0.1101024 -0.5191365
vn -0.5759092 -0.4531729 0.6804138
vn -0.8475698 -0.1101024 0.5191365
vn 0.9238795 0 -0.3826834
vn 0.9238795 0 0.3826834
vn 0.3826834 0 0.9238795
vn -0.3826834 0 0.9238795
vn -0.3826834 0 -0.9238795
vn 0.3826834 0 -0.9238795
vn -0.9238795 0 -0.3826834
vn -0.9238795 0 0.3826834
vn 0 -1 0
vn 0.913004 -0.1413405 -0.3826835
vn 0.913004 -0.1413405 0.3826835
vn 0.3781786 -0.05854515 0.9238796
vn -0.3781786 0.05854515 0.9238796
vn -0.3781786 0.05854515 -0.9238796
vn 0.3781786 -0.05854515 -0.9238796
vn -0.913004 0.1413405 -0.3826835
vn -0.913004 0.1413405 0.3826835
vn -0.1529859 -0.9882284 0
vn 0.1529859 0.9882284 0
vn 0.9186484 0.09817519 -0.3826834
vn 0.9186484 0.09817519 0.3826834
vn 0.3805166 0.0406655 0.9238795
vn -0.3805166 -0.0406655 0.9238795
vn -0.3805166 -0.0406655 -0.9238795
vn 0.3805166 0.0406655 -0.9238795
vn -0.9186484 -0.09817519 -0.3826834
vn -0.9186484 -0.09817519 0.3826834
vn 0.1062641 -0.9943379 0
vn -0.1062641 0.9943379 0

vt 0.09375 0.225
vt 0.09375 0.025
vt 0.09375 0.0268873
vt 0.46875 0.225
vt 0.46875 0.1286496
vt 0.46875 0.025
vt 0.46875 0.04166666
vt 0.46875 0.09120294
vt 0.46875 0.09166666
vt 0.46875 0.175
vt 0.46875 0.075
vt 0.21875 0.475
vt 0.21875 0.275
vt 0.21875 0.425
vt 0.21875 0.325

usemtl colormap

f 3/1/1 2/2/2 1/1/1
f 2/2/2 3/1/1 4/2/2
f 4/2/3 6/2/3 5/2/3
f 6/2/3 4/2/3 7/2/3
f 7/2/3 4/2/3 8/3/3
f 8/3/3 4/2/3 3/1/3
f 8/3/3 3/1/3 9/1/3
f 8/3/4 11/1/5 10/3/4
f 11/1/5 8/3/4 9/1/5
f 11/1/6 3/1/6 1/1/6
f 3/1/6 11/1/6 9/1/6
f 13/2/7 2/2/7 12/2/7
f 2/2/7 13/2/7 14/2/7
f 2/2/7 14/2/7 10/3/7
f 2/2/7 10/3/7 1/1/7
f 1/1/7 10/3/7 11/1/7
f 7/2/8 10/3/4 14/2/8
f 10/3/4 7/2/8 8/3/4
f 6/2/9 14/2/8 13/2/9
f 14/2/8 6/2/9 7/2/8
f 4/2/2 12/2/10 2/2/2
f 12/2/10 4/2/2 5/2/10
f 6/2/9 12/2/11 5/2/11
f 12/2/11 6/2/9 13/2/9
f 17/4/13 16/5/12 15/4/12
f 16/5/12 17/4/13 18/5/13
f 21/4/14 20/5/15 19/5/14
f 20/5/15 21/4/14 22/4/15
f 25/5/17 24/4/16 23/5/16
f 24/4/16 25/5/17 26/4/17
f 29/5/19 28/4/18 27/5/18
f 28/4/18 29/5/19 30/4/19
f 27/5/18 26/4/17 25/5/17
f 26/4/17 27/5/18 28/4/18
f 21/4/14 18/5/13 17/4/13
f 18/5/13 21/4/14 19/5/14
f 20/5/15 30/4/19 29/5/19
f 30/4/19 20/5/15 22/4/15
f 15/4/12 23/5/16 24/4/16
f 23/5/16 15/4/12 16/5/12
f 33/6/20 32/6/20 31/6/20
f 32/6/20 33/6/20 34/6/20
f 34/6/20 33/6/20 35/6/20
f 34/6/20 35/6/20 36/6/20
f 36/6/20 35/6/20 37/6/20
f 36/6/20 37/6/20 38/6/20
f 24/4/21 17/4/21 15/4/21
f 17/4/21 24/4/21 21/4/21
f 21/4/21 24/4/21 26/4/21
f 21/4/21 26/4/21 22/4/21
f 22/4/21 26/4/21 28/4/21
f 22/4/21 28/4/21 30/4/21
f 18/5/24 32/6/23 16/5/22
f 32/6/23 18/5/24 31/6/25
f 16/5/22 34/6/27 23/5/26
f 34/6/27 16/5/22 32/6/23
f 38/6/30 29/5/29 27/5/28
f 29/5/29 38/6/30 37/6/31
f 33/6/34 20/5/33 35/6/32
f 20/5/33 33/6/34 19/5/35
f 35/6/32 29/5/29 37/6/31
f 29/5/29 35/6/32 20/5/33
f 25/5/37 34/6/27 36/6/36
f 34/6/27 25/5/37 23/5/26
f 18/5/24 33/6/34 31/6/25
f 33/6/34 18/5/24 19/5/35
f 36/6/36 27/5/28 25/5/37
f 27/5/28 36/6/36 38/6/30
f 41/9/40 40/8/39 39/7/38
f 42/4/43 40/8/42 41/9/41
f 43/9/45 39/7/38 40/8/44
f 42/4/43 43/9/47 40/8/46
f 46/4/50 45/9/49 44/8/48
f 45/9/53 47/7/52 44/8/51
f 46/4/50 44/8/55 48/9/54
f 48/9/57 44/8/56 47/7/52
f 45/9/53 39/7/38 47/7/52
f 39/7/38 45/9/53 41/9/40
f 47/7/52 43/9/45 48/9/57
f 43/9/45 47/7/52 39/7/38
f 46/4/50 43/9/47 42/4/43
f 43/9/47 46/4/50 48/9/54
f 41/9/41 46/4/50 42/4/43
f 46/4/50 41/9/41 45/9/49
f 51/4/60 50/6/59 49/6/58
f 50/6/59 51/4/60 52/4/61
f 55/6/64 54/4/63 53/6/62
f 54/4/63 55/6/64 56/4/65
f 54/4/63 49/6/58 53/6/62
f 49/6/58 54/4/63 51/4/60
f 54/4/63 52/4/61 51/4/60
f 52/4/61 54/4/63 56/4/65
f 52/4/61 55/6/64 50/6/59
f 55/6/64 52/4/61 56/4/65
f 59/4/68 58/6/67 57/6/66
f 58/6/67 59/4/68 60/4/69
f 63/6/72 62/4/71 61/6/70
f 62/4/71 63/6/72 64/4/73
f 62/4/71 57/6/66 61/6/70
f 57/6/66 62/4/71 59/4/68
f 62/4/71 60/4/69 59/4/68
f 60/4/69 62/4/71 64/4/73
f 60/4/69 63/6/72 58/6/67
f 63/6/72 60/4/69 64/4/73
f 67/10/75 66/11/74 65/10/74
f 66/11/74 67/10/75 68/11/75
f 71/10/76 70/11/77 69/11/76
f 70/11/77 71/10/76 72/10/77
f 75/10/78 74/11/79 73/11/78
f 74/11/79 75/10/78 76/10/79
f 79/11/81 78/10/80 77/11/80
f 78/10/80 79/11/81 80/10/81
f 77/11/80 75/10/78 73/11/78
f 75/10/78 77/11/80 78/10/80
f 71/10/76 68/11/75 67/10/75
f 68/11/75 71/10/76 69/11/76
f 70/11/77 80/10/81 79/11/81
f 80/10/81 70/11/77 72/10/77
f 65/10/74 74/11/79 76/10/79
f 74/11/79 65/10/74 66/11/74
f 69/11/82 66/11/82 68/11/82
f 66/11/82 69/11/82 74/11/82
f 74/11/82 69/11/82 70/11/82
f 74/11/82 70/11/82 73/11/82
f 73/11/82 70/11/82 79/11/82
f 73/11/82 79/11/82 77/11/82
f 76/10/6 67/10/6 65/10/6
f 67/10/6 76/10/6 71/10/6
f 71/10/6 76/10/6 75/10/6
f 71/10/6 75/10/6 72/10/6
f 72/10/6 75/10/6 78/10/6
f 72/10/6 78/10/6 80/10/6
f 83/13/78 82/12/79 81/12/78
f 82/12/79 83/13/78 84/13/79
f 87/12/77 86/13/81 85/12/81
f 86/13/81 87/12/77 88/13/77
f 89/13/74 82/12/79 84/13/79
f 82/12/79 89/13/74 90/12/74
f 92/12/82 90/12/82 91/12/82
f 90/12/82 92/12/82 82/12/82
f 82/12/82 92/12/82 87/12/82
f 82/12/82 87/12/82 81/12/82
f 81/12/82 87/12/82 85/12/82
f 81/12/82 85/12/82 93/12/82
f 94/13/75 90/12/74 89/13/74
f 90/12/74 94/13/75 91/12/75
f 84/13/6 94/13/6 89/13/6
f 94/13/6 84/13/6 95/13/6
f 95/13/6 84/13/6 83/13/6
f 95/13/6 83/13/6 88/13/6
f 88/13/6 83/13/6 96/13/6
f 88/13/6 96/13/6 86/13/6
f 85/12/81 96/13/80 93/12/80
f 96/13/80 85/12/81 86/13/81
f 95/13/76 87/12/77 92/12/76
f 87/12/77 95/13/76 88/13/77
f 95/13/76 91/12/75 94/13/75
f 91/12/75 95/13/76 92/12/76
f 93/12/80 83/13/78 81/12/78
f 83/13/78 93/12/80 96/13/80
f 99/14/75 98/15/74 97/14/74
f 98/15/74 99/14/75 100/15/75
f 103/14/76 102/15/77 101/15/76
f 102/15/77 103/14/76 104/14/77
f 107/14/78 106/15/79 105/15/78
f 106/15/79 107/14/78 108/14/79
f 111/15/81 110/14/80 109/15/80
f 110/14/80 111/15/81 112/14/81
f 109/15/80 107/14/78 105/15/78
f 107/14/78 109/15/80 110/14/80
f 99/14/75 101/15/76 100/15/75
f 101/15/76 99/14/75 103/14/76
f 102/15/77 112/14/81 111/15/81
f 112/14/81 102/15/77 104/14/77
f 97/14/74 106/15/79 108/14/79
f 106/15/79 97/14/74 98/15/74
f 101/15/82 98/15/82 100/15/82
f 98/15/82 101/15/82 106/15/82
f 106/15/82 101/15/82 102/15/82
f 106/15/82 102/15/82 105/15/82
f 105/15/82 102/15/82 111/15/82
f 105/15/82 111/15/82 109/15/82
f 108/14/6 99/14/6 97/14/6
f 99/14/6 108/14/6 103/14/6
f 103/14/6 108/14/6 107/14/6
f 103/14/6 107/14/6 104/14/6
f 104/14/6 107/14/6 110/14/6
f 104/14/6 110/14/6 112/14/6
f 115/14/75 114/15/74 113/14/74
f 114/15/74 115/14/75 116/15/75
f 119/14/76 118/15/77 117/15/76
f 118/15/77 119/14/76 120/14/77
f 123/14/78 122/15/79 121/15/78
f 122/15/79 123/14/78 124/14/79
f 127/15/81 126/14/80 125/15/80
f 126/14/80 127/15/81 128/14/81
f 125/15/80 123/14/78 121/15/78
f 123/14/78 125/15/80 126/14/80
f 115/14/75 117/15/76 116/15/75
f 117/15/76 115/14/75 119/14/76
f 118/15/77 128/14/81 127/15/81
f 128/14/81 118/15/77 120/14/77
f 113/14/74 122/15/79 124/14/79
f 122/15/79 113/14/74 114/15/74
f 117/15/82 114/15/82 116/15/82
f 114/15/82 117/15/82 122/15/82
f 122/15/82 117/15/82 118/15/82
f 122/15/82 118/15/82 121/15/82
f 121/15/82 118/15/82 127/15/82
f 121/15/82 127/15/82 125/15/82
f 124/14/6 115/14/6 113/14/6
f 115/14/6 124/14/6 119/14/6
f 119/14/6 124/14/6 123/14/6
f 119/14/6 123/14/6 120/14/6
f 120/14/6 123/14/6 126/14/6
f 120/14/6 126/14/6 128/14/6
f 131/14/84 130/15/83 129/14/83
f 130/15/83 131/14/84 132/15/84
f 135/14/85 134/15/86 133/15/85
f 134/15/86 135/14/85 136/14/86
f 139/14/87 138/15/88 137/15/87
f 138/15/88 139/14/87 140/14/88
f 143/15/90 142/14/89 141/15/89
f 142/14/89 143/15/90 144/14/90
f 141/15/89 139/14/87 137/15/87
f 139/14/87 141/15/89 142/14/89
f 131/14/84 133/15/85 132/15/84
f 133/15/85 131/14/84 135/14/85
f 134/15/86 144/14/90 143/15/90
f 144/14/90 134/15/86 136/14/86
f 129/14/83 138/15/88 140/14/88
f 138/15/88 129/14/83 130/15/83
f 133/15/91 130/15/91 132/15/91
f 130/15/91 133/15/91 138/15/91
f 138/15/91 133/15/91 134/15/91
f 138/15/91 134/15/91 137/15/91
f 137/15/91 134/15/91 143/15/91
f 137/15/91 143/15/91 141/15/91
f 140/14/92 131/14/92 129/14/92
f 131/14/92 140/14/92 135/14/92
f 135/14/92 140/14/92 139/14/92
f 135/14/92 139/14/92 136/14/92
f 136/14/92 139/14/92 142/14/92
f 136/14/92 142/14/92 144/14/92
f 147/14/94 146/15/93 145/14/93
f 146/15/93 147/14/94 148/15/94
f 151/14/95 150/15/96 149/15/95
f 150/15/96 151/14/95 152/14/96
f 155/14/97 154/15/98 153/15/97
f 154/15/98 155/14/97 156/14/98
f 159/15/100 158/14/99 157/15/99
f 158/14/99 159/15/100 160/14/100
f 157/15/99 155/14/97 153/15/97
f 155/14/97 157/15/99 158/14/99
f 147/14/94 149/15/95 148/15/94
f 149/15/95 147/14/94 151/14/95
f 150/15/96 160/14/100 159/15/100
f 160/14/100 150/15/96 152/14/96
f 145/14/93 154/15/98 156/14/98
f 154/15/98 145/14/93 146/15/93
f 149/15/101 146/15/101 148/15/101
f 146/15/101 149/15/101 154/15/101
f 154/15/101 149/15/101 150/15/101
f 154/15/101 150/15/101 153/15/101
f 153/15/101 150/15/101 159/15/101
f 153/15/101 159/15/101 157/15/101
f 156/14/102 147/14/102 145/14/102
f 147/14/102 156/14/102 151/14/102
f 151/14/102 156/14/102 155/14/102
f 151/14/102 155/14/102 152/14/102
f 152/14/102 155/14/102 158/14/102
f 152/14/102 158/14/102 160/14/102
f 163/14/84 162/15/83 161/14/83
f 162/15/83 163/14/84 164/15/84
f 167/14/85 166/15/86 165/15/85
f 166/15/86 167/14/85 168/14/86
f 171/14/87 170/15/88 169/15/87
f 170/15/88 171/14/87 172/14/88
f 175/15/90 174/14/89 173/15/89
f 174/14/89 175/15/90 176/14/90
f 173/15/89 171/14/87 169/15/87
f 171/14/87 173/15/89 174/14/89
f 163/14/84 165/15/85 164/15/84
f 165/15/85 163/14/84 167/14/85
f 166/15/86 176/14/90 175/15/90
f 176/14/90 166/15/86 168/14/86
f 161/14/83 170/15/88 172/14/88
f 170/15/88 161/14/83 162/15/83
f 165/15/91 162/15/91 164/15/91
f 162/15/91 165/15/91 170/15/91
f 170/15/91 165/15/91 166/15/91
f 170/15/91 166/15/91 169/15/91
f 169/15/91 166/15/91 175/15/91
f 169/15/91 175/15/91 173/15/91
f 172/14/92 163/14/92 161/14/92
f 163/14/92 172/14/92 167/14/92
f 167/14/92 172/14/92 171/14/92
f 167/14/92 171/14/92 168/14/92
f 168/14/92 171/14/92 174/14/92
f 168/14/92 174/14/92 176/14/92

g spear-d




usemtl colormap

f 3/1/1 2/2/2 1/1/1
f 2/2/2 3/1/1 4/2/2
f 4/2/3 6/2/3 5/2/3
f 6/2/3 4/2/3 7/2/3
f 7/2/3 4/2/3 8/3/3
f 8/3/3 4/2/3 3/1/3
f 8/3/3 3/1/3 9/1/3
f 8/3/4 11/1/5 10/3/4
f 11/1/5 8/3/4 9/1/5
f 11/1/6 3/1/6 1/1/6
f 3/1/6 11/1/6 9/1/6
f 13/2/7 2/2/7 12/2/7
f 2/2/7 13/2/7 14/2/7
f 2/2/7 14/2/7 10/3/7
f 2/2/7 10/3/7 1/1/7
f 1/1/7 10/3/7 11/1/7
f 7/2/8 10/3/4 14/2/8
f 10/3/4 7/2/8 8/3/4
f 6/2/9 14/2/8 13/2/9
f 14/2/8 6/2/9 7/2/8
f 4/2/2 12/2/10 2/2/2
f 12/2/10 4/2/2 5/2/10
f 6/2/9 12/2/11 5/2/11
f 12/2/11 6/2/9 13/2/9
f 17/4/13 16/5/12 15/4/12
f 16/5/12 17/4/13 18/5/13
f 21/4/14 20/5/15 19/5/14
f 20/5/15 21/4/14 22/4/15
f 25/5/17 24/4/16 23/5/16
f 24/4/16 25/5/17 26/4/17
f 29/5/19 28/4/18 27/5/18
f 28/4/18 29/5/19 30/4/19
f 27/5/18 26/4/17 25/5/17
f 26/4/17 27/5/18 28/4/18
f 21/4/14 18/5/13 17/4/13
f 18/5/13 21/4/14 19/5/14
f 20/5/15 30/4/19 29/5/19
f 30/4/19 20/5/15 22/4/15
f 15/4/12 23/5/16 24/4/16
f 23/5/16 15/4/12 16/5/12
f 33/6/20 32/6/20 31/6/20
f 32/6/20 33/6/20 34/6/20
f 34/6/20 33/6/20 35/6/20
f 34/6/20 35/6/20 36/6/20
f 36/6/20 35/6/20 37/6/20
f 36/6/20 37/6/20 38/6/20
f 24/4/21 17/4/21 15/4/21
f 17/4/21 24/4/21 21/4/21
f 21/4/21 24/4/21 26/4/21
f 21/4/21 26/4/21 22/4/21
f 22/4/21 26/4/21 28/4/21
f 22/4/21 28/4/21 30/4/21
f 18/5/24 32/6/23 16/5/22
f 32/6/23 18/5/24 31/6/25
f 16/5/22 34/6/27 23/5/26
f 34/6/27 16/5/22 32/6/23
f 38/6/30 29/5/29 27/5/28
f 29/5/29 38/6/30 37/6/31
f 33/6/34 20/5/33 35/6/32
f 20/5/33 33/6/34 19/5/35
f 35/6/32 29/5/29 37/6/31
f 29/5/29 35/6/32 20/5/33
f 25/5/37 34/6/27 36/6/36
f 34/6/27 25/5/37 23/5/26
f 18/5/24 33/6/34 31/6/25
f 33/6/34 18/5/24 19/5/35
f 36/6/36 27/5/28 25/5/37
f 27/5/28 36/6/36 38/6/30
f 41/9/40 40/8/39 39/7/38
f 42/4/43 40/8/42 41/9/41
f 43/9/45 39/7/38 40/8/44
f 42/4/43 43/9/47 40/8/46
f 46/4/50 45/9/49 44/8/48
f 45/9/53 47/7/52 44/8/51
f 46/4/50 44/8/55 48/9/54
f 48/9/57 44/8/56 47/7/52
f 45/9/53 39/7/38 47/7/52
f 39/7/38 45/9/53 41/9/40
f 47/7/52 43/9/45 48/9/57
f 43/9/45 47/7/52 39/7/38
f 46/4/50 43/9/47 42/4/43
f 43/9/47 46/4/50 48/9/54
f 41/9/41 46/4/50 42/4/43
f 46/4/50 41/9/41 45/9/49
f 51/4/60 50/6/59 49/6/58
f 50/6/59 51/4/60 52/4/61
f 55/6/64 54/4/63 53/6/62
f 54/4/63 55/6/64 56/4/65
f 54/4/63 49/6/58 53/6/62
f 49/6/58 54/4/63 51/4/60
f 54/4/63 52/4/61 51/4/60
f 52/4/61 54/4/63 56/4/65
f 52/4/61 55/6/64 50/6/59
f 55/6/64 52/4/61 56/4/65
f 59/4/68 58/6/67 57/6/66
f 58/6/67 59/4/68 60/4/69
f 63/6/72 62/4/71 61/6/70
f 62/4/71 63/6/72 64/4/73
f 62/4/71 57/6/66 61/6/70
f 57/6/66 62/4/71 59/4/68
f 62/4/71 60/4/69 59/4/68
f 60/4/69 62/4/71 64/4/73
f 60/4/69 63/6/72 58/6/67
f 63/6/72 60/4/69 64/4/73
f 67/10/75 66/11/74 65/10/74
f 66/11/74 67/10/75 68/11/75
f 71/10/76 70/11/77 69/11/76
f 70/11/77 71/10/76 72/10/77
f 75/10/78 74/11/79 73/11/78
f 74/11/79 75/10/78 76/10/79
f 79/11/81 78/10/80 77/11/80
f 78/10/80 79/11/81 80/10/81
f 77/11/80 75/10/78 73/11/78
f 75/10/78 77/11/80 78/10/80
f 71/10/76 68/11/75 67/10/75
f 68/11/75 71/10/76 69/11/76
f 70/11/77 80/10/81 79/11/81
f 80/10/81 70/11/77 72/10/77
f 65/10/74 74/11/79 76/10/79
f 74/11/79 65/10/74 66/11/74
f 69/11/82 66/11/82 68/11/82
f 66/11/82 69/11/82 74/11/82
f 74/11/82 69/11/82 70/11/82
f 74/11/82 70/11/82 73/11/82
f 73/11/82 70/11/82 79/11/82
f 73/11/82 79/11/82 77/11/82
f 76/10/6 67/10/6 65/10/6
f 67/10/6 76/10/6 71/10/6
f 71/10/6 76/10/6 75/10/6
f 71/10/6 75/10/6 72/10/6
f 72/10/6 75/10/6 78/10/6
f 72/10/6 78/10/6 80/10/6
f 83/13/78 82/12/79 81/12/78
f 82/12/79 83/13/78 84/13/79
f 87/12/77 86/13/81 85/12/81
f 86/13/81 87/12/77 88/13/77
f 89/13/74 82/12/79 84/13/79
f 82/12/79 89/13/74 90/12/74
f 92/12/82 90/12/82 91/12/82
f 90/12/82 92/12/82 82/12/82
f 82/12/82 92/12/82 87/12/82
f 82/12/82 87/12/82 81/12/82
f 81/12/82 87/12/82 85/12/82
f 81/12/82 85/12/82 93/12/82
f 94/13/75 90/12/74 89/13/74
f 90/12/74 94/13/75 91/12/75
f 84/13/6 94/13/6 89/13/6
f 94/13/6 84/13/6 95/13/6
f 95/13/6 84/13/6 83/13/6
f 95/13/6 83/13/6 88/13/6
f 88/13/6 83/13/6 96/13/6
f 88/13/6 96/13/6 86/13/6
f 85/12/81 96/13/80 93/12/80
f 96/13/80 85/12/81 86/13/81
f 95/13/76 87/12/77 92/12/76
f 87/12/77 95/13/76 88/13/77
f 95/13/76 91/12/75 94/13/75
f 91/12/75 95/13/76 92/12/76
f 93/12/80 83/13/78 81/12/78
f 83/13/78 93/12/80 96/13/80
f 99/14/75 98/15/74 97/14/74
f 98/15/74 99/14/75 100/15/75
f 103/14/76 102/15/77 101/15/76
f 102/15/77 103/14/76 104/14/77
f 107/14/78 106/15/79 105/15/78
f 106/15/79 107/14/78 108/14/79
f 111/15/81 110/14/80 109/15/80
f 110/14/80 111/15/81 112/14/81
f 109/15/80 107/14/78 105/15/78
f 107/14/78 109/15/80 110/14/80
f 99/14/75 101/15/76 100/15/75
f 101/15/76 99/14/75 103/14/76
f 102/15/77 112/14/81 111/15/81
f 112/14/81 102/15/77 104/14/77
f 97/14/74 106/15/79 108/14/79
f 106/15/79 97/14/74 98/15/74
f 101/15/82 98/15/82 100/15/82
f 98/15/82 101/15/82 106/15/82
f 106/15/82 101/15/82 102/15/82
f 106/15/82 102/15/82 105/15/82
f 105/15/82 102/15/82 111/15/82
f 105/15/82 111/15/82 109/15/82
f 108/14/6 99/14/6 97/14/6
f 99/14/6 108/14/6 103/14/6
f 103/14/6 108/14/6 107/14/6
f 103/14/6 107/14/6 104/14/6
f 104/14/6 107/14/6 110/14/6
f 104/14/6 110/14/6 112/14/6
f 115/14/75 114/15/74 113/14/74
f 114/15/74 115/14/75 116/15/75
f 119/14/76 118/15/77 117/15/76
f 118/15/77 119/14/76 120/14/77
f 123/14/78 122/15/79 121/15/78
f 122/15/79 123/14/78 124/14/79
f 127/15/81 126/14/80 125/15/80
f 126/14/80 127/15/81 128/14/81
f 125/15/80 123/14/78 121/15/78
f 123/14/78 125/15/80 126/14/80
f 115/14/75 117/15/76 116/15/75
f 117/15/76 115/14/75 119/14/76
f 118/15/77 128/14/81 127/15/81
f 128/14/81 118/15/77 120/14/77
f 113/14/74 122/15/79 124/14/79
f 122/15/79 113/14/74 114/15/74
f 117/15/82 114/15/82 116/15/82
f 114/15/82 117/15/82 122/15/82
f 122/15/82 117/15/82 118/15/82
f 122/15/82 118/15/82 121/15/82
f 121/15/82 118/15/82 127/15/82
f 121/15/82 127/15/82 125/15/82
f 124/14/6 115/14/6 113/14/6
f 115/14/6 124/14/6 119/14/6
f 119/14/6 124/14/6 123/14/6
f 119/14/6 123/14/6 120/14/6
f 120/14/6 123/14/6 126/14/6
f 120/14/6 126/14/6 128/14/6
f 131/14/84 130/15/83 129/14/83
f 130/15/83 131/14/84 132/15/84
f 135/14/85 134/15/86 133/15/85
f 134/15/86 135/14/85 136/14/86
f 139/14/87 138/15/88 137/15/87
f 138/15/88 139/14/87 140/14/88
f 143/15/90 142/14/89 141/15/89
f 142/14/89 143/15/90 144/14/90
f 141/15/89 139/14/87 137/15/87
f 139/14/87 141/15/89 142/14/89
f 131/14/84 133/15/85 132/15/84
f 133/15/85 131/14/84 135/14/85
f 134/15/86 144/14/90 143/15/90
f 144/14/90 134/15/86 136/14/86
f 129/14/83 138/15/88 140/14/88
f 138/15/88 129/14/83 130/15/83
f 133/15/91 130/15/91 132/15/91
f 130/15/91 133/15/91 138/15/91
f 138/15/91 133/15/91 134/15/91
f 138/15/91 134/15/91 137/15/91
f 137/15/91 134/15/91 143/15/91
f 137/15/91 143/15/91 141/15/91
f 140/14/92 131/14/92 129/14/92
f 131/14/92 140/14/92 135/14/92
f 135/14/92 140/14/92 139/14/92
f 135/14/92 139/14/92 136/14/92
f 136/14/92 139/14/92 142/14/92
f 136/14/92 142/14/92 144/14/92
f 147/14/94 146/15/93 145/14/93
f 146/15/93 147/14/94 148/15/94
f 151/14/95 150/15/96 149/15/95
f 150/15/96 151/14/95 152/14/96
f 155/14/97 154/15/98 153/15/97
f 154/15/98 155/14/97 156/14/98
f 159/15/100 158/14/99 157/15/99
f 158/14/99 159/15/100 160/14/100
f 157/15/99 155/14/97 153/15/97
f 155/14/97 157/15/99 158/14/99
f 147/14/94 149/15/95 148/15/94
f 149/15/95 147/14/94 151/14/95
f 150/15/96 160/14/100 159/15/100
f 160/14/100 150/15/96 152/14/96
f 145/14/93 154/15/98 156/14/98
f 154/15/98 145/14/93 146/15/93
f 149/15/101 146/15/101 148/15/101
f 146/15/101 149/15/101 154/15/101
f 154/15/101 149/15/101 150/15/101
f 154/15/101 150/15/101 153/15/101
f 153/15/101 150/15/101 159/15/101
f 153/15/101 159/15/101 157/15/101
f 156/14/102 147/14/102 145/14/102
f 147/14/102 156/14/102 151/14/102
f 151/14/102 156/14/102 155/14/102
f 151/14/102 155/14/102 152/14/102
f 152/14/102 155/14/102 158/14/102
f 152/14/102 158/14/102 160/14/102
f 163/14/84 162/15/83 161/14/83
f 162/15/83 163/14/84 164/15/84
f 167/14/85 166/15/86 165/15/85
f 166/15/86 167/14/85 168/14/86
f 171/14/87 170/15/88 169/15/87
f 170/15/88 171/14/87 172/14/88
f 175/15/90 174/14/89 173/15/89
f 174/14/89 175/15/90 176/14/90
f 173/15/89 171/14/87 169/15/87
f 171/14/87 173/15/89 174/14/89
f 163/14/84 165/15/85 164/15/84
f 165/15/85 163/14/84 167/14/85
f 166/15/86 176/14/90 175/15/90
f 176/14/90 166/15/86 168/14/86
f 161/14/83 170/15/88 172/14/88
f 170/15/88 161/14/83 162/15/83
f 165/15/91 162/15/91 164/15/91
f 162/15/91 165/15/91 170/15/91
f 170/15/91 165/15/91 166/15/91
f 170/15/91 166/15/91 169/15/91
f 169/15/91 166/15/91 175/15/91
f 169/15/91 175/15/91 173/15/91
f 172/14/92 163/14/92 161/14/92
f 163/14/92 172/14/92 167/14/92
f 167/14/92 172/14/92 171/14/92
f 167/14/92 171/14/92 168/14/92
f 168/14/92 171/14/92 174/14/92
f 168/14/92 174/14/92 176/14/92

