# Created by Kenney (www.kenney.nl)

mtllib spear-c.mtl

g spear-c

v 0.09375 4.298081 -0.09375 1 1 1
v 0.09375 0.348081 -0.09375 1 1 1
v 0.09375 4.298081 0.09375 1 1 1
v 0.09375 0.348081 0.09375 1 1 1
v 0.0004819689 0 0.09375 1 1 1
v -0.1713768 0.04604942 0.09375 1 1 1
v -0.2201736 0.1626521 0.09375 1 1 1
v -0.09375 0.3853551 0.09375 1 1 1
v -0.09375 4.298081 0.09375 1 1 1
v -0.09375 0.3853551 -0.09375 1 1 1
v -0.09375 4.298081 -0.09375 1 1 1
v 0.0004819689 0 -0.09375 1 1 1
v -0.1713768 0.04604942 -0.09375 1 1 1
v -0.2201736 0.1626521 -0.09375 1 1 1
v -0.2109375 4.279331 -0.1171875 1 1 1
v -0.2109375 4.466831 -0.1171875 1 1 1
v -0.2109375 4.279331 0.1171875 1 1 1
v -0.2109375 4.466831 0.1171875 1 1 1
v 0.1171875 4.466831 0.2109375 1 1 1
v 0.1171875 4.279331 0.2109375 1 1 1
v -0.1171875 4.466831 0.2109375 1 1 1
v -0.1171875 4.279331 0.2109375 1 1 1
v 0.1171875 4.466831 -0.2109375 1 1 1
v -0.1171875 4.466831 -0.2109375 1 1 1
v 0.1171875 4.279331 -0.2109375 1 1 1
v -0.1171875 4.279331 -0.2109375 1 1 1
v 0.2109375 4.466831 -0.1171875 1 1 1
v 0.2109375 4.279331 -0.1171875 1 1 1
v 0.2109375 4.466831 0.1171875 1 1 1
v 0.2109375 4.279331 0.1171875 1 1 1
v -0.1265625 4.698081 0.0703125 1 1 1
v -0.1265625 4.698081 -0.0703125 1 1 1
v -0.0703125 4.698081 0.1265625 1 1 1
v -0.0703125 4.698081 -0.1265625 1 1 1
v 0.0703125 4.698081 0.1265625 1 1 1
v 0.0703125 4.698081 -0.1265625 1 1 1
v 0.1265625 4.698081 0.0703125 1 1 1
v 0.1265625 4.698081 -0.0703125 1 1 1
v -1.732587E-15 4.52746 -0.04769266 1 1 1
v -1.732587E-15 4.789834 -0.2408 1 1 1
v -0.2934761 4.79229 -0.04498106 1 1 1
v -1.732587E-15 5.498504 -0.04498106 1 1 1
v 0.2934761 4.79229 -0.04498106 1 1 1
v -5.775292E-15 4.789834 0.2408 1 1 1
v -0.2934761 4.79229 0.04498106 1 1 1
v 1.155058E-15 5.498504 0.04498106 1 1 1
v 1.155058E-15 4.52746 0.04769266 1 1 1
v 0.2934761 4.79229 0.04498106 1 1 1
v -0.0703125 1.298081 -0.1265625 1 1 1
v 0.0703125 1.298081 -0.1265625 1 1 1
v -0.0703125 2.648081 -0.1265625 1 1 1
v 0.0703125 2.648081 -0.1265625 1 1 1
v -0.1265625 1.298081 0.0703125 1 1 1
v -0.1265625 2.648081 0.0703125 1 1 1
v -0.0703125 1.298081 0.1265625 1 1 1
v -0.0703125 2.648081 0.1265625 1 1 1
v 0.1265625 2.648081 -0.0703125 1 1 1
v 0.1265625 1.298081 -0.0703125 1 1 1
v 0.1265625 1.298081 0.0703125 1 1 1
v 0.0703125 1.298081 0.1265625 1 1 1
v -0.1265625 1.298081 -0.0703125 1 1 1
v 0.1265625 2.648081 0.0703125 1 1 1
v 0.0703125 2.648081 0.1265625 1 1 1
v -0.1265625 2.648081 -0.0703125 1 1 1
v 0.16875 1.298081 -0.09375 1 1 1
v 0.16875 1.148081 -0.09375 1 1 1
v 0.16875 1.298081 0.09375 1 1 1
v 0.16875 1.148081 0.09375 1 1 1
v 0.09375 1.148081 0.16875 1 1 1
v -0.09375 1.148081 0.16875 1 1 1
v 0.09375 1.298081 0.16875 1 1 1
v -0.09375 1.298081 0.16875 1 1 1
v -0.09375 1.148081 -0.16875 1 1 1
v 0.09375 1.148081 -0.16875 1 1 1
v -0.09375 1.298081 -0.16875 1 1 1
v 0.09375 1.298081 -0.16875 1 1 1
v -0.16875 1.148081 -0.09375 1 1 1
v -0.16875 1.298081 -0.09375 1 1 1
v -0.16875 1.148081 0.09375 1 1 1
v -0.16875 1.298081 0.09375 1 1 1
v 0.16875 2.798081 -0.09375 1 1 1
v 0.16875 2.648081 -0.09375 1 1 1
v 0.16875 2.798081 0.09375 1 1 1
v 0.16875 2.648081 0.09375 1 1 1
v 0.09375 2.648081 0.16875 1 1 1
v -0.09375 2.648081 0.16875 1 1 1
v 0.09375 2.798081 0.16875 1 1 1
v -0.09375 2.798081 0.16875 1 1 1
v -0.09375 2.648081 -0.16875 1 1 1
v 0.09375 2.648081 -0.16875 1 1 1
v -0.09375 2.798081 -0.16875 1 1 1
v 0.09375 2.798081 -0.16875 1 1 1
v -0.16875 2.648081 -0.09375 1 1 1
v -0.16875 2.798081 -0.09375 1 1 1
v -0.16875 2.648081 0.09375 1 1 1
v -0.16875 2.798081 0.09375 1 1 1

vn 1 0 0
vn 0.9914449 -0.1305262 0
vn 0 0 1
vn -0.9668621 0.2552991 0
vn -1 0 0
vn 0 1 0
vn 0 0 -1
vn -0.9982014 0.05995033 0
vn -0.6579755 -0.7530394 0
vn 0.9659258 -0.258819 0
vn -0.258819 -0.9659258 0
vn -0.9238795 3.863516E-15 -0.3826834
vn -0.9238795 3.863516E-15 0.3826834
vn 0.3826834 -1.600321E-15 0.9238795
vn -0.3826834 1.600321E-15 0.9238795
vn 0.3826834 -1.600321E-15 -0.9238795
vn -0.3826834 1.600321E-15 -0.9238795
vn 0.9238795 -3.863516E-15 -0.3826834
vn 0.9238795 -3.863516E-15 0.3826834
vn -4.18184E-15 -1 0
vn 4.18184E-15 1 0
vn 0.3429429 0.3825452 -0.8579333
vn -0.3429429 0.3825452 -0.8579333
vn 0.3614741 0.3833766 -0.8499171
vn -0.3614741 0.3833766 -0.8499171
vn 0.8499171 0.3833766 -0.3614741
vn 0.8579333 0.3825452 -0.3429429
vn 0.8499171 0.3833766 0.3614741
vn 0.8579333 0.3825452 0.3429429
vn 0.3429429 0.3825452 0.8579333
vn 0.3614741 0.3833766 0.8499171
vn -0.3429429 0.3825452 0.8579333
vn -0.3614741 0.3833766 0.8499171
vn -0.8499171 0.3833766 -0.3614741
vn -0.8579333 0.3825452 -0.3429429
vn -0.8579333 0.3825452 0.3429429
vn -0.8499171 0.3833766 0.3614741
vn 0 -0.9211487 -0.389211
vn -0.4767422 -0.5210611 -0.7079634
vn -0.6454188 -0.7124107 -0.2755098
vn -0.8447843 0.3510607 -0.4038512
vn -0.539597 0.2242363 -0.8115128
vn 0 0.879256 -0.4763495
vn 0.4767422 -0.5210611 -0.7079634
vn 0.6454188 -0.7124107 -0.2755098
vn 0.539597 0.2242363 -0.8115128
vn 0.8447843 0.3510607 -0.4038512
vn -0.539597 0.2242363 0.8115128
vn -0.8447843 0.3510607 0.4038512
vn 0 0.879256 0.4763495
vn -0.4767422 -0.5210611 0.7079634
vn 0 -0.9211487 0.389211
vn -0.6454188 -0.7124107 0.2755098
vn 0.8447843 0.3510607 0.4038512
vn 0.539597 0.2242363 0.8115128
vn 0.4767422 -0.5210611 0.7079634
vn 0.6454188 -0.7124107 0.2755098
vn -0.3826834 0 -0.9238795
vn 0.3826834 0 -0.9238795
vn -0.9238795 0 0.3826834
vn -0.3826834 0 0.9238795
vn 0.9238795 0 -0.3826834
vn 0 -1 0
vn 0.9238795 0 0.3826834
vn -0.9238795 0 -0.3826834
vn 0.3826834 0 0.9238795

vt 0.09375 0.225
vt 0.09375 0.025
vt 0.09375 0.0268873
vt 0.46875 0.225
vt 0.46875 0.1354478
vt 0.46875 0.025
vt 0.46875 0.04166666
vt 0.46875 0.09120294
vt 0.46875 0.09166666
vt 0.21875 0.475
vt 0.21875 0.275
vt 0.21875 0.425
vt 0.21875 0.325

usemtl colormap

f 3/1/1 2/2/2 1/1/1
f 2/2/2 3/1/1 4/2/2
f 4/2/3 6/2/3 5/2/3
f 6/2/3 4/2/3 7/2/3
f 7/2/3 4/2/3 8/3/3
f 8/3/3 4/2/3 3/1/3
f 8/3/3 3/1/3 9/1/3
f 8/3/4 11/1/5 10/3/4
f 11/1/5 8/3/4 9/1/5
f 11/1/6 3/1/6 1/1/6
f 3/1/6 11/1/6 9/1/6
f 13/2/7 2/2/7 12/2/7
f 2/2/7 13/2/7 14/2/7
f 2/2/7 14/2/7 10/3/7
f 2/2/7 10/3/7 1/1/7
f 1/1/7 10/3/7 11/1/7
f 7/2/8 10/3/4 14/2/8
f 10/3/4 7/2/8 8/3/4
f 6/2/9 14/2/8 13/2/9
f 14/2/8 6/2/9 7/2/8
f 4/2/2 12/2/10 2/2/2
f 12/2/10 4/2/2 5/2/10
f 6/2/9 12/2/11 5/2/11
f 12/2/11 6/2/9 13/2/9
f 17/4/13 16/5/12 15/4/12
f 16/5/12 17/4/13 18/5/13
f 21/5/15 20/4/14 19/5/14
f 20/4/14 21/5/15 22/4/15
f 25/4/16 24/5/17 23/5/16
f 24/5/17 25/4/16 26/4/17
f 29/5/19 28/4/18 27/5/18
f 28/4/18 29/5/19 30/4/19
f 27/5/18 25/4/16 23/5/16
f 25/4/16 27/5/18 28/4/18
f 22/4/15 18/5/13 17/4/13
f 18/5/13 22/4/15 21/5/15
f 19/5/14 30/4/19 29/5/19
f 30/4/19 19/5/14 20/4/14
f 15/4/12 24/5/17 26/4/17
f 24/5/17 15/4/12 16/5/12
f 26/4/20 17/4/20 15/4/20
f 17/4/20 26/4/20 22/4/20
f 22/4/20 26/4/20 25/4/20
f 22/4/20 25/4/20 20/4/20
f 20/4/20 25/4/20 28/4/20
f 20/4/20 28/4/20 30/4/20
f 33/6/21 32/6/21 31/6/21
f 32/6/21 33/6/21 34/6/21
f 34/6/21 33/6/21 35/6/21
f 34/6/21 35/6/21 36/6/21
f 36/6/21 35/6/21 37/6/21
f 36/6/21 37/6/21 38/6/21
f 23/5/24 34/6/23 36/6/22
f 34/6/23 23/5/24 24/5/25
f 36/6/22 27/5/26 23/5/24
f 27/5/26 36/6/22 38/6/27
f 38/6/27 29/5/28 27/5/26
f 29/5/28 38/6/27 37/6/29
f 33/6/32 19/5/31 35/6/30
f 19/5/31 33/6/32 21/5/33
f 16/5/34 34/6/23 24/5/25
f 34/6/23 16/5/34 32/6/35
f 35/6/30 29/5/28 37/6/29
f 29/5/28 35/6/30 19/5/31
f 18/5/37 33/6/32 31/6/36
f 33/6/32 18/5/37 21/5/33
f 18/5/37 32/6/35 16/5/34
f 32/6/35 18/5/37 31/6/36
f 41/9/40 40/8/39 39/7/38
f 42/4/43 40/8/42 41/9/41
f 43/9/45 39/7/38 40/8/44
f 42/4/43 43/9/47 40/8/46
f 46/4/50 45/9/49 44/8/48
f 45/9/53 47/7/52 44/8/51
f 46/4/50 44/8/55 48/9/54
f 48/9/57 44/8/56 47/7/52
f 45/9/53 39/7/38 47/7/52
f 39/7/38 45/9/53 41/9/40
f 47/7/52 43/9/45 48/9/57
f 43/9/45 47/7/52 39/7/38
f 46/4/50 43/9/47 42/4/43
f 43/9/47 46/4/50 48/9/54
f 41/9/41 46/4/50 42/4/43
f 46/4/50 41/9/41 45/9/49
f 51/11/58 50/10/59 49/10/58
f 50/10/59 51/11/58 52/11/59
f 55/10/61 54/11/60 53/10/60
f 54/11/60 55/10/61 56/11/61
f 57/11/62 50/10/59 52/11/59
f 50/10/59 57/11/62 58/10/62
f 60/10/63 58/10/63 59/10/63
f 58/10/63 60/10/63 50/10/63
f 50/10/63 60/10/63 55/10/63
f 50/10/63 55/10/63 49/10/63
f 49/10/63 55/10/63 53/10/63
f 49/10/63 53/10/63 61/10/63
f 62/11/64 58/10/62 57/11/62
f 58/10/62 62/11/64 59/10/64
f 52/11/6 62/11/6 57/11/6
f 62/11/6 52/11/6 63/11/6
f 63/11/6 52/11/6 51/11/6
f 63/11/6 51/11/6 56/11/6
f 56/11/6 51/11/6 64/11/6
f 56/11/6 64/11/6 54/11/6
f 53/10/60 64/11/65 61/10/65
f 64/11/65 53/10/60 54/11/60
f 63/11/66 55/10/61 60/10/66
f 55/10/61 63/11/66 56/11/61
f 63/11/66 59/10/64 62/11/64
f 59/10/64 63/11/66 60/10/66
f 61/10/65 51/11/58 49/10/58
f 51/11/58 61/10/65 64/11/65
f 67/12/64 66/13/62 65/12/62
f 66/13/62 67/12/64 68/13/64
f 71/12/66 70/13/61 69/13/66
f 70/13/61 71/12/66 72/12/61
f 75/12/58 74/13/59 73/13/58
f 74/13/59 75/12/58 76/12/59
f 79/13/60 78/12/65 77/13/65
f 78/12/65 79/13/60 80/12/60
f 77/13/65 75/12/58 73/13/58
f 75/12/58 77/13/65 78/12/65
f 67/12/64 69/13/66 68/13/64
f 69/13/66 67/12/64 71/12/66
f 70/13/61 80/12/60 79/13/60
f 80/12/60 70/13/61 72/12/61
f 65/12/62 74/13/59 76/12/59
f 74/13/59 65/12/62 66/13/62
f 69/13/63 66/13/63 68/13/63
f 66/13/63 69/13/63 74/13/63
f 74/13/63 69/13/63 70/13/63
f 74/13/63 70/13/63 73/13/63
f 73/13/63 70/13/63 79/13/63
f 73/13/63 79/13/63 77/13/63
f 76/12/6 67/12/6 65/12/6
f 67/12/6 76/12/6 71/12/6
f 71/12/6 76/12/6 75/12/6
f 71/12/6 75/12/6 72/12/6
f 72/12/6 75/12/6 78/12/6
f 72/12/6 78/12/6 80/12/6
f 83/12/64 82/13/62 81/12/62
f 82/13/62 83/12/64 84/13/64
f 87/12/66 86/13/61 85/13/66
f 86/13/61 87/12/66 88/12/61
f 91/12/58 90/13/59 89/13/58
f 90/13/59 91/12/58 92/12/59
f 95/13/60 94/12/65 93/13/65
f 94/12/65 95/13/60 96/12/60
f 93/13/65 91/12/58 89/13/58
f 91/12/58 93/13/65 94/12/65
f 83/12/64 85/13/66 84/13/64
f 85/13/66 83/12/64 87/12/66
f 86/13/61 96/12/60 95/13/60
f 96/12/60 86/13/61 88/12/61
f 81/12/62 90/13/59 92/12/59
f 90/13/59 81/12/62 82/13/62
f 85/13/63 82/13/63 84/13/63
f 82/13/63 85/13/63 90/13/63
f 90/13/63 85/13/63 86/13/63
f 90/13/63 86/13/63 89/13/63
f 89/13/63 86/13/63 95/13/63
f 89/13/63 95/13/63 93/13/63
f 92/12/6 83/12/6 81/12/6
f 83/12/6 92/12/6 87/12/6
f 87/12/6 92/12/6 91/12/6
f 87/12/6 91/12/6 88/12/6
f 88/12/6 91/12/6 94/12/6
f 88/12/6 94/12/6 96/12/6

g spear-c




usemtl colormap

f 3/1/1 2/2/2 1/1/1
f 2/2/2 3/1/1 4/2/2
f 4/2/3 6/2/3 5/2/3
f 6/2/3 4/2/3 7/2/3
f 7/2/3 4/2/3 8/3/3
f 8/3/3 4/2/3 3/1/3
f 8/3/3 3/1/3 9/1/3
f 8/3/4 11/1/5 10/3/4
f 11/1/5 8/3/4 9/1/5
f 11/1/6 3/1/6 1/1/6
f 3/1/6 11/1/6 9/1/6
f 13/2/7 2/2/7 12/2/7
f 2/2/7 13/2/7 14/2/7
f 2/2/7 14/2/7 10/3/7
f 2/2/7 10/3/7 1/1/7
f 1/1/7 10/3/7 11/1/7
f 7/2/8 10/3/4 14/2/8
f 10/3/4 7/2/8 8/3/4
f 6/2/9 14/2/8 13/2/9
f 14/2/8 6/2/9 7/2/8
f 4/2/2 12/2/10 2/2/2
f 12/2/10 4/2/2 5/2/10
f 6/2/9 12/2/11 5/2/11
f 12/2/11 6/2/9 13/2/9
f 17/4/13 16/5/12 15/4/12
f 16/5/12 17/4/13 18/5/13
f 21/5/15 20/4/14 19/5/14
f 20/4/14 21/5/15 22/4/15
f 25/4/16 24/5/17 23/5/16
f 24/5/17 25/4/16 26/4/17
f 29/5/19 28/4/18 27/5/18
f 28/4/18 29/5/19 30/4/19
f 27/5/18 25/4/16 23/5/16
f 25/4/16 27/5/18 28/4/18
f 22/4/15 18/5/13 17/4/13
f 18/5/13 22/4/15 21/5/15
f 19/5/14 30/4/19 29/5/19
f 30/4/19 19/5/14 20/4/14
f 15/4/12 24/5/17 26/4/17
f 24/5/17 15/4/12 16/5/12
f 26/4/20 17/4/20 15/4/20
f 17/4/20 26/4/20 22/4/20
f 22/4/20 26/4/20 25/4/20
f 22/4/20 25/4/20 20/4/20
f 20/4/20 25/4/20 28/4/20
f 20/4/20 28/4/20 30/4/20
f 33/6/21 32/6/21 31/6/21
f 32/6/21 33/6/21 34/6/21
f 34/6/21 33/6/21 35/6/21
f 34/6/21 35/6/21 36/6/21
f 36/6/21 35/6/21 37/6/21
f 36/6/21 37/6/21 38/6/21
f 23/5/24 34/6/23 36/6/22
f 34/6/23 23/5/24 24/5/25
f 36/6/22 27/5/26 23/5/24
f 27/5/26 36/6/22 38/6/27
f 38/6/27 29/5/28 27/5/26
f 29/5/28 38/6/27 37/6/29
f 33/6/32 19/5/31 35/6/30
f 19/5/31 33/6/32 21/5/33
f 16/5/34 34/6/23 24/5/25
f 34/6/23 16/5/34 32/6/35
f 35/6/30 29/5/28 37/6/29
f 29/5/28 35/6/30 19/5/31
f 18/5/37 33/6/32 31/6/36
f 33/6/32 18/5/37 21/5/33
f 18/5/37 32/6/35 16/5/34
f 32/6/35 18/5/37 31/6/36
f 41/9/40 40/8/39 39/7/38
f 42/4/43 40/8/42 41/9/41
f 43/9/45 39/7/38 40/8/44
f 42/4/43 43/9/47 40/8/46
f 46/4/50 45/9/49 44/8/48
f 45/9/53 47/7/52 44/8/51
f 46/4/50 44/8/55 48/9/54
f 48/9/57 44/8/56 47/7/52
f 45/9/53 39/7/38 47/7/52
f 39/7/38 45/9/53 41/9/40
f 47/7/52 43/9/45 48/9/57
f 43/9/45 47/7/52 39/7/38
f 46/4/50 43/9/47 42/4/43
f 43/9/47 46/4/50 48/9/54
f 41/9/41 46/4/50 42/4/43
f 46/4/50 41/9/41 45/9/49
f 51/11/58 50/10/59 49/10/58
f 50/10/59 51/11/58 52/11/59
f 55/10/61 54/11/60 53/10/60
f 54/11/60 55/10/61 56/11/61
f 57/11/62 50/10/59 52/11/59
f 50/10/59 57/11/62 58/10/62
f 60/10/63 58/10/63 59/10/63
f 58/10/63 60/10/63 50/10/63
f 50/10/63 60/10/63 55/10/63
f 50/10/63 55/10/63 49/10/63
f 49/10/63 55/10/63 53/10/63
f 49/10/63 53/10/63 61/10/63
f 62/11/64 58/10/62 57/11/62
f 58/10/62 62/11/64 59/10/64
f 52/11/6 62/11/6 57/11/6
f 62/11/6 52/11/6 63/11/6
f 63/11/6 52/11/6 51/11/6
f 63/11/6 51/11/6 56/11/6
f 56/11/6 51/11/6 64/11/6
f 56/11/6 64/11/6 54/11/6
f 53/10/60 64/11/65 61/10/65
f 64/11/65 53/10/60 54/11/60
f 63/11/66 55/10/61 60/10/66
f 55/10/61 63/11/66 56/11/61
f 63/11/66 59/10/64 62/11/64
f 59/10/64 63/11/66 60/10/66
f 61/10/65 51/11/58 49/10/58
f 51/11/58 61/10/65 64/11/65
f 67/12/64 66/13/62 65/12/62
f 66/13/62 67/12/64 68/13/64
f 71/12/66 70/13/61 69/13/66
f 70/13/61 71/12/66 72/12/61
f 75/12/58 74/13/59 73/13/58
f 74/13/59 75/12/58 76/12/59
f 79/13/60 78/12/65 77/13/65
f 78/12/65 79/13/60 80/12/60
f 77/13/65 75/12/58 73/13/58
f 75/12/58 77/13/65 78/12/65
f 67/12/64 69/13/66 68/13/64
f 69/13/66 67/12/64 71/12/66
f 70/13/61 80/12/60 79/13/60
f 80/12/60 70/13/61 72/12/61
f 65/12/62 74/13/59 76/12/59
f 74/13/59 65/12/62 66/13/62
f 69/13/63 66/13/63 68/13/63
f 66/13/63 69/13/63 74/13/63
f 74/13/63 69/13/63 70/13/63
f 74/13/63 70/13/63 73/13/63
f 73/13/63 70/13/63 79/13/63
f 73/13/63 79/13/63 77/13/63
f 76/12/6 67/12/6 65/12/6
f 67/12/6 76/12/6 71/12/6
f 71/12/6 76/12/6 75/12/6
f 71/12/6 75/12/6 72/12/6
f 72/12/6 75/12/6 78/12/6
f 72/12/6 78/12/6 80/12/6
f 83/12/64 82/13/62 81/12/62
f 82/13/62 83/12/64 84/13/64
f 87/12/66 86/13/61 85/13/66
f 86/13/61 87/12/66 88/12/61
f 91/12/58 90/13/59 89/13/58
f 90/13/59 91/12/58 92/12/59
f 95/13/60 94/12/65 93/13/65
f 94/12/65 95/13/60 96/12/60
f 93/13/65 91/12/58 89/13/58
f 91/12/58 93/13/65 94/12/65
f 83/12/64 85/13/66 84/13/64
f 85/13/66 83/12/64 87/12/66
f 86/13/61 96/12/60 95/13/60
f 96/12/60 86/13/61 88/12/61
f 81/12/62 90/13/59 92/12/59
f 90/13/59 81/12/62 82/13/62
f 85/13/63 82/13/63 84/13/63
f 82/13/63 85/13/63 90/13/63
f 90/13/63 85/13/63 86/13/63
f 90/13/63 86/13/63 89/13/63
f 89/13/63 86/13/63 95/13/63
f 89/13/63 95/13/63 93/13/63
f 92/12/6 83/12/6 81/12/6
f 83/12/6 92/12/6 87/12/6
f 87/12/6 92/12/6 91/12/6
f 87/12/6 91/12/6 88/12/6
f 88/12/6 91/12/6 94/12/6
f 88/12/6 94/12/6 96/12/6

