# Created by Kenney (www.kenney.nl)

mtllib sword-a.mtl

g sword-a

v 0.1875 0.2 0.1875 1 1 1
v -0.1875 0.2 0.1875 1 1 1
v 0.125 0.3 0.125 1 1 1
v -0.125 0.3 0.125 1 1 1
v -0.1875 0.2 -0.1875 1 1 1
v -0.125 0.3 -0.125 1 1 1
v 0.1875 0.2 -0.1875 1 1 1
v 0.125 0.3 -0.125 1 1 1
v 0.1875 0.1 -0.1875 1 1 1
v 0.1875 0.1 0.1875 1 1 1
v -0.1875 0.1 0.1875 1 1 1
v -0.1875 0.1 -0.1875 1 1 1
v 0.125 0 0.125 1 1 1
v 0.125 0 -0.125 1 1 1
v -0.125 0 0.125 1 1 1
v -0.125 0 -0.125 1 1 1
v 0.525 1.0375 -0.1875 1 1 1
v 0.425 1.0375 -0.1875 1 1 1
v 0.525 1.0375 0.1875 1 1 1
v 0.425 1.0375 0.1875 1 1 1
v 0.425 1.4125 -0.1875 1 1 1
v 0.525 1.4125 -0.1875 1 1 1
v 0.525 1.4125 0.1875 1 1 1
v 0.625 1.1 0.125 1 1 1
v 0.625 1.35 0.125 1 1 1
v 0.325 1.1 -0.125 1 1 1
v 0.325 1.35 -0.125 1 1 1
v 0.625 1.35 -0.125 1 1 1
v 0.625 1.1 -0.125 1 1 1
v 0.325 1.1 0.125 1 1 1
v 0.425 1.4125 0.1875 1 1 1
v 0.325 1.35 0.125 1 1 1
v -0.325 1.1 -0.125 1 1 1
v 0.325 1.1 -0.125 1 1 1
v -0.325 1.35 -0.125 1 1 1
v 0.325 1.35 -0.125 1 1 1
v 0.325 1.35 0.125 1 1 1
v -0.325 1.35 0.125 1 1 1
v 0.325 1.1 0.125 1 1 1
v -0.325 1.1 0.125 1 1 1
v -0.425 1.0375 0.1875 1 1 1
v -0.425 1.0375 -0.1875 1 1 1
v -0.525 1.0375 0.1875 1 1 1
v -0.525 1.0375 -0.1875 1 1 1
v -0.525 1.4125 0.1875 1 1 1
v -0.425 1.4125 0.1875 1 1 1
v -0.625 1.1 0.125 1 1 1
v -0.625 1.35 0.125 1 1 1
v -0.525 1.4125 -0.1875 1 1 1
v -0.425 1.4125 -0.1875 1 1 1
v -0.325 1.1 0.125 1 1 1
v -0.325 1.35 0.125 1 1 1
v -0.325 1.35 -0.125 1 1 1
v -0.325 1.1 -0.125 1 1 1
v -0.625 1.35 -0.125 1 1 1
v -0.625 1.1 -0.125 1 1 1
v -0.2805 1.35 -0.03125 1 1 1
v -0.2805 3.225 -0.03125 1 1 1
v -0.2805 1.35 0.03125 1 1 1
v -0.2805 3.225 0.03125 1 1 1
v 0.2805 1.35 -0.03125 1 1 1
v 0.2805 1.35 0.03125 1 1 1
v 0.2805 3.225 -0.03125 1 1 1
v 0.2805 3.225 0.03125 1 1 1
v -1.536318E-15 1.35 0.125 1 1 1
v -1.536318E-15 3.225 0.125 1 1 1
v -1.536318E-15 1.35 -0.125 1 1 1
v -1.536318E-15 3.225 -0.125 1 1 1
v 0.05259375 3.786 -0.005859375 1 1 1
v 0.05259375 3.786 1.624301E-15 1 1 1
v -1.536318E-15 3.786 -0.0234375 1 1 1
v 0.05259375 3.786 0.005859375 1 1 1
v -1.536318E-15 3.786 0.0234375 1 1 1
v -0.05259375 3.786 -0.005859375 1 1 1
v -0.05259375 3.786 0.005859375 1 1 1
v -0.09375 0.5 -0.16875 1 1 1
v 0.09375 0.5 -0.16875 1 1 1
v -0.09375 0.9 -0.16875 1 1 1
v 0.09375 0.9 -0.16875 1 1 1
v -0.16875 0.5 0.09375 1 1 1
v -0.16875 0.9 0.09375 1 1 1
v -0.09375 0.5 0.16875 1 1 1
v -0.09375 0.9 0.16875 1 1 1
v 0.16875 0.9 -0.09375 1 1 1
v 0.16875 0.5 -0.09375 1 1 1
v 0.16875 0.5 0.09375 1 1 1
v 0.09375 0.5 0.16875 1 1 1
v -0.16875 0.5 -0.09375 1 1 1
v 0.16875 0.9 0.09375 1 1 1
v 0.09375 0.9 0.16875 1 1 1
v -0.16875 0.9 -0.09375 1 1 1
v -0.225 0.4 -0.125 1 1 1
v -0.225 0.4 0.125 1 1 1
v -0.225 0.3 -0.125 1 1 1
v -0.225 0.3 0.125 1 1 1
v -0.125 0.4 0.225 1 1 1
v -0.125 0.3 0.225 1 1 1
v -0.125 0.4 -0.225 1 1 1
v -0.125 0.3 -0.225 1 1 1
v 0.225 0.3 0.125 1 1 1
v 0.225 0.3 -0.125 1 1 1
v 0.125 0.3 0.225 1 1 1
v 0.125 0.3 -0.225 1 1 1
v 0.225 0.4 -0.125 1 1 1
v 0.225 0.4 0.125 1 1 1
v 0.125 0.4 0.225 1 1 1
v 0.125 0.4 -0.225 1 1 1
v -0.125 1 -0.225 1 1 1
v 0.125 1 -0.225 1 1 1
v -0.125 1.1 -0.225 1 1 1
v 0.125 1.1 -0.225 1 1 1
v 0.225 1.1 -0.125 1 1 1
v 0.225 1 -0.125 1 1 1
v 0.225 1.1 0.125 1 1 1
v 0.225 1 0.125 1 1 1
v 0.125 1 0.225 1 1 1
v -0.125 1 0.225 1 1 1
v 0.125 1.1 0.225 1 1 1
v -0.125 1.1 0.225 1 1 1
v -0.225 1 -0.125 1 1 1
v -0.225 1.1 -0.125 1 1 1
v -0.225 1 0.125 1 1 1
v -0.225 1.1 0.125 1 1 1

vn 0 0.2247516 0.9744161
vn 0 0.529999 0.8479983
vn -0.9744161 0.2247516 0
vn -0.8479983 0.529999 0
vn 0.9744161 0.2247516 0
vn 0.8479983 0.529999 0
vn 0 0.2247516 -0.9744161
vn 0 0.529999 -0.8479983
vn 0.9744161 -0.2247516 0
vn 0 -0.2247516 0.9744161
vn -0.9744161 -0.2247516 0
vn 0 -0.2247516 -0.9744161
vn 0 -1 0
vn 0.8479983 -0.529999 0
vn 0 -0.529999 0.8479983
vn 0 -0.529999 -0.8479983
vn -0.8479983 -0.529999 0
vn 0.2247516 -0.9744161 0
vn -0.2247516 -0.9744161 0
vn -0.2247516 0 -0.9744161
vn 0.2247516 0 -0.9744161
vn 0.2247516 0 0.9744161
vn 0.529999 0 0.8479983
vn -0.529999 0 -0.8479983
vn 1 0 0
vn -0.2247516 0 0.9744161
vn -0.529999 0 0.8479983
vn 0.2247516 0.9744161 0
vn -0.2247516 0.9744161 0
vn 0.529999 0 -0.8479983
vn -0.529999 0.8479983 0
vn -0.529999 -0.8479983 0
vn 0.529999 0.8479983 0
vn 0.529999 -0.8479983 0
vn 0 0 -1
vn 0 1 0
vn 0 0 1
vn -1 0 0
vn -0.7337543 0 -0.6794149
vn -0.7352923 0.1561754 -0.6595107
vn -0.7337543 0 0.6794149
vn -0.7352923 0.1561754 0.6595107
vn 0.7337543 0 -0.6794149
vn 0.7337543 0 0.6794149
vn 0.7352923 0.1561754 -0.6595107
vn 0.7352923 0.1561754 0.6595107
vn 0.3169885 0 0.9484294
vn 0.3159007 0.08277052 0.9451751
vn 0.3169885 0 -0.9484294
vn 0.3159007 0.08277052 -0.9451751
vn -0.3169885 0 0.9484294
vn -0.3159007 0.08277052 0.9451751
vn -0.3169885 0 -0.9484294
vn -0.3159007 0.08277052 -0.9451751
vn 0.6714883 0.3033904 0.6760605
vn 0.9264666 0.376377 0
vn 0.6714883 0.3033904 -0.6760605
vn 0.3124166 0.1692257 -0.9347504
vn -0.6714883 0.3033904 -0.6760605
vn -0.3124166 0.1692257 -0.9347504
vn -0.3124166 0.1692257 0.9347504
vn -0.6714883 0.3033904 0.6760605
vn 0.3124166 0.1692257 0.9347504
vn -0.3826834 0 -0.9238795
vn 0.3826834 0 -0.9238795
vn -0.9238795 0 0.3826834
vn -0.3826834 0 0.9238795
vn 0.9238795 0 -0.3826834
vn 0.9238795 0 0.3826834
vn -0.9238795 0 -0.3826834
vn 0.3826834 0 0.9238795
vn -0.7739689 0.5391423 -0.332111
vn -0.784829 0.5377297 -0.3080428
vn -0.7739689 0.5391423 0.332111
vn -0.784829 0.5377297 0.3080428
vn 0.7739689 0.5391423 -0.332111
vn 0.7739689 0.5391423 0.332111
vn 0.784829 0.5377297 -0.3080428
vn 0.784829 0.5377297 0.3080428
vn 0.3080428 0.5377297 0.784829
vn 0.332111 0.5391423 0.7739689
vn -0.332111 0.5391423 0.7739689
vn -0.3080428 0.5377297 0.784829
vn -0.332111 0.5391423 -0.7739689
vn 0.332111 0.5391423 -0.7739689
vn -0.3080428 0.5377297 -0.784829
vn 0.3080428 0.5377297 -0.784829
vn 0.7739689 -0.5391423 -0.332111
vn 0.784829 -0.5377297 -0.3080428
vn 0.7739689 -0.5391423 0.332111
vn 0.784829 -0.5377297 0.3080428
vn 0.3080428 -0.5377297 -0.784829
vn 0.332111 -0.5391423 -0.7739689
vn -0.332111 -0.5391423 -0.7739689
vn -0.7739689 -0.5391423 -0.332111
vn -0.3080428 -0.5377297 -0.784829
vn -0.784829 -0.5377297 -0.3080428
vn -0.7739689 -0.5391423 0.332111
vn -0.784829 -0.5377297 0.3080428
vn 0.3080428 -0.5377297 0.784829
vn 0.332111 -0.5391423 0.7739689
vn -0.3080428 -0.5377297 0.784829
vn -0.332111 -0.5391423 0.7739689

vt 0.46875 0.1583333
vt 0.46875 0.225
vt 0.46875 0.09166666
vt 0.46875 0.025
vt 0.46875 0.145
vt 0.46875 0.1583333
vt 0.46875 0.2116667
vt 0.71875 0.145
vt 0.71875 0.2065763
vt 0.71875 0.225
vt 0.21875 0.475
vt 0.21875 0.275
vt 0.21875 0.375
vt 0.21875 0.425
vt 0.21875 0.325

usemtl colormap

f 3/2/2 2/1/1 1/1/1
f 2/1/1 3/2/2 4/2/2
f 2/1/3 6/2/4 5/1/3
f 6/2/4 2/1/3 4/2/4
f 8/2/6 1/1/5 7/1/5
f 1/1/5 8/2/6 3/2/6
f 6/2/8 7/1/7 5/1/7
f 7/1/7 6/2/8 8/2/8
f 1/1/5 9/3/9 7/1/5
f 9/3/9 1/1/5 10/3/9
f 1/1/1 11/3/10 10/3/10
f 11/3/10 1/1/1 2/1/1
f 11/3/11 5/1/3 12/3/11
f 5/1/3 11/3/11 2/1/3
f 5/1/7 9/3/12 12/3/12
f 9/3/12 5/1/7 7/1/7
f 15/4/13 14/4/13 13/4/13
f 14/4/13 15/4/13 16/4/13
f 10/3/9 14/4/14 9/3/9
f 14/4/14 10/3/9 13/4/14
f 10/3/10 15/4/15 13/4/15
f 15/4/15 10/3/10 11/3/10
f 12/3/12 14/4/16 16/4/16
f 14/4/16 12/3/12 9/3/12
f 16/4/17 11/3/11 12/3/11
f 11/3/11 16/4/17 15/4/17
f 19/5/18 18/5/19 17/5/18
f 18/5/19 19/5/18 20/5/19
f 21/2/20 17/5/21 18/5/20
f 17/5/21 21/2/20 22/2/21
f 24/6/23 23/2/22 19/5/22
f 23/2/22 24/6/23 25/7/23
f 26/6/24 21/2/20 18/5/20
f 21/2/20 26/6/24 27/7/24
f 25/7/25 29/6/25 28/7/25
f 29/6/25 25/7/25 24/6/25
f 31/2/26 30/6/27 20/5/26
f 30/6/27 31/2/26 32/7/27
f 21/2/29 23/2/28 22/2/28
f 23/2/28 21/2/29 31/2/29
f 22/2/21 29/6/30 17/5/21
f 29/6/30 22/2/21 28/7/30
f 27/7/31 31/2/29 21/2/29
f 31/2/29 27/7/31 32/7/31
f 20/5/19 26/6/32 18/5/19
f 26/6/32 20/5/19 30/6/32
f 22/2/28 25/7/33 28/7/33
f 25/7/33 22/2/28 23/2/28
f 24/6/34 17/5/18 29/6/34
f 17/5/18 24/6/34 19/5/18
f 19/5/22 31/2/26 20/5/26
f 31/2/26 19/5/22 23/2/22
f 35/2/35 34/5/35 33/5/35
f 34/5/35 35/2/35 36/2/35
f 35/2/36 37/2/36 36/2/36
f 37/2/36 35/2/36 38/2/36
f 40/5/13 34/5/13 39/5/13
f 34/5/13 40/5/13 33/5/13
f 37/2/37 40/5/37 39/5/37
f 40/5/37 37/2/37 38/2/37
f 43/5/19 42/5/18 41/5/18
f 42/5/18 43/5/19 44/5/19
f 41/5/22 45/2/26 43/5/26
f 45/2/26 41/5/22 46/2/22
f 45/2/26 47/6/27 43/5/26
f 47/6/27 45/2/26 48/7/27
f 49/2/20 42/5/21 44/5/20
f 42/5/21 49/2/20 50/2/21
f 51/6/23 46/2/22 41/5/22
f 46/2/22 51/6/23 52/7/23
f 50/2/28 52/7/33 53/7/33
f 52/7/33 50/2/28 46/2/28
f 50/2/21 54/6/30 42/5/21
f 54/6/30 50/2/21 53/7/30
f 49/2/29 46/2/28 50/2/28
f 46/2/28 49/2/29 45/2/29
f 55/7/31 45/2/29 49/2/29
f 45/2/29 55/7/31 48/7/31
f 41/5/18 54/6/34 51/6/34
f 54/6/34 41/5/18 42/5/18
f 47/6/38 55/7/38 56/6/38
f 55/7/38 47/6/38 48/7/38
f 56/6/24 49/2/20 44/5/20
f 49/2/20 56/6/24 55/7/24
f 47/6/32 44/5/19 43/5/19
f 44/5/19 47/6/32 56/6/32
f 59/8/41 58/9/40 57/8/39
f 58/9/40 59/8/41 60/9/42
f 63/9/45 62/8/44 61/8/43
f 62/8/44 63/9/45 64/9/46
f 64/9/46 65/8/47 62/8/44
f 65/8/47 64/9/46 66/9/48
f 68/9/50 61/8/43 67/8/49
f 61/8/43 68/9/50 63/9/45
f 66/9/52 59/8/41 65/8/51
f 59/8/41 66/9/52 60/9/42
f 58/9/40 67/8/53 57/8/39
f 67/8/53 58/9/40 68/9/54
f 71/10/36 70/10/36 69/10/36
f 70/10/36 71/10/36 72/10/36
f 72/10/36 71/10/36 73/10/36
f 73/10/36 71/10/36 74/10/36
f 73/10/36 74/10/36 75/10/36
f 64/9/46 70/10/56 72/10/55
f 64/9/46 63/9/45 70/10/56
f 70/10/56 63/9/45 69/10/57
f 71/10/58 63/9/45 68/9/50
f 63/9/45 71/10/58 69/10/57
f 74/10/59 68/9/54 58/9/40
f 68/9/54 74/10/59 71/10/60
f 73/10/61 60/9/42 66/9/52
f 60/9/42 73/10/61 75/10/62
f 60/9/42 74/10/59 58/9/40
f 74/10/59 60/9/42 75/10/62
f 72/10/55 66/9/48 64/9/46
f 66/9/48 72/10/55 73/10/63
f 78/12/64 77/11/65 76/11/64
f 77/11/65 78/12/64 79/12/65
f 82/11/67 81/12/66 80/11/66
f 81/12/66 82/11/67 83/12/67
f 84/12/68 77/11/65 79/12/65
f 77/11/65 84/12/68 85/11/68
f 87/11/13 85/11/13 86/11/13
f 85/11/13 87/11/13 77/11/13
f 77/11/13 87/11/13 82/11/13
f 77/11/13 82/11/13 76/11/13
f 76/11/13 82/11/13 80/11/13
f 76/11/13 80/11/13 88/11/13
f 89/12/69 85/11/68 84/12/68
f 85/11/68 89/12/69 86/11/69
f 79/12/36 89/12/36 84/12/36
f 89/12/36 79/12/36 90/12/36
f 90/12/36 79/12/36 78/12/36
f 90/12/36 78/12/36 83/12/36
f 83/12/36 78/12/36 91/12/36
f 83/12/36 91/12/36 81/12/36
f 80/11/66 91/12/70 88/11/70
f 91/12/70 80/11/66 81/12/66
f 90/12/71 82/11/67 87/11/71
f 82/11/67 90/12/71 83/12/67
f 90/12/71 86/11/69 89/12/69
f 86/11/69 90/12/71 87/11/71
f 88/11/70 78/12/64 76/11/64
f 78/12/64 88/11/70 91/12/70
f 93/13/74 88/14/73 92/13/72
f 88/14/73 93/13/74 80/14/75
f 94/15/70 93/13/66 92/13/70
f 93/13/66 94/15/70 95/15/66
f 95/15/66 96/13/67 93/13/66
f 96/13/67 95/15/66 97/15/67
f 99/15/64 92/13/70 98/13/64
f 92/13/70 99/15/64 94/15/70
f 102/15/13 101/15/13 100/15/13
f 101/15/13 102/15/13 103/15/13
f 103/15/13 102/15/13 97/15/13
f 103/15/13 97/15/13 99/15/13
f 99/15/13 97/15/13 95/15/13
f 99/15/13 95/15/13 94/15/13
f 105/13/69 101/15/68 104/13/68
f 101/15/68 105/13/69 100/15/69
f 106/13/71 100/15/69 105/13/69
f 100/15/69 106/13/71 102/15/71
f 98/13/64 103/15/65 99/15/64
f 103/15/65 98/13/64 107/13/65
f 106/13/71 97/15/67 102/15/71
f 97/15/67 106/13/71 96/13/67
f 107/13/65 101/15/68 103/15/65
f 101/15/68 107/13/65 104/13/68
f 77/14/36 86/14/36 85/14/36
f 86/14/36 77/14/36 87/14/36
f 87/14/36 77/14/36 76/14/36
f 87/14/36 76/14/36 82/14/36
f 82/14/36 76/14/36 88/14/36
f 82/14/36 88/14/36 80/14/36
f 85/14/78 105/13/77 104/13/76
f 105/13/77 85/14/78 86/14/79
f 87/14/80 105/13/77 86/14/79
f 105/13/77 87/14/80 106/13/81
f 87/14/80 96/13/82 106/13/81
f 96/13/82 87/14/80 82/14/83
f 76/14/86 107/13/85 98/13/84
f 107/13/85 76/14/86 77/14/87
f 77/14/87 104/13/76 107/13/85
f 104/13/76 77/14/87 85/14/78
f 92/13/72 76/14/86 98/13/84
f 76/14/86 92/13/72 88/14/73
f 93/13/74 82/14/83 80/14/75
f 82/14/83 93/13/74 96/13/82
f 110/14/64 109/13/65 108/13/64
f 109/13/65 110/14/64 111/14/65
f 114/14/69 113/13/68 112/14/68
f 113/13/68 114/14/69 115/13/69
f 118/14/71 117/13/67 116/13/71
f 117/13/67 118/14/71 119/14/67
f 120/13/70 110/14/64 108/13/64
f 110/14/64 120/13/70 121/14/70
f 114/14/69 116/13/71 115/13/69
f 116/13/71 114/14/69 118/14/71
f 117/13/67 123/14/66 122/13/66
f 123/14/66 117/13/67 119/14/67
f 112/14/68 109/13/65 111/14/65
f 109/13/65 112/14/68 113/13/68
f 122/13/66 121/14/70 120/13/70
f 121/14/70 122/13/66 123/14/66
f 90/15/13 84/15/13 89/15/13
f 84/15/13 90/15/13 79/15/13
f 79/15/13 90/15/13 83/15/13
f 79/15/13 83/15/13 78/15/13
f 78/15/13 83/15/13 81/15/13
f 78/15/13 81/15/13 91/15/13
f 115/13/90 84/15/89 113/13/88
f 84/15/89 115/13/90 89/15/91
f 109/13/93 84/15/89 79/15/92
f 84/15/89 109/13/93 113/13/88
f 111/14/36 114/14/36 112/14/36
f 114/14/36 111/14/36 118/14/36
f 118/14/36 111/14/36 110/14/36
f 118/14/36 110/14/36 119/14/36
f 119/14/36 110/14/36 121/14/36
f 119/14/36 121/14/36 123/14/36
f 78/15/96 120/13/95 108/13/94
f 120/13/95 78/15/96 91/15/97
f 108/13/94 79/15/92 78/15/96
f 79/15/92 108/13/94 109/13/93
f 91/15/97 122/13/98 120/13/95
f 122/13/98 91/15/97 81/15/99
f 115/13/90 90/15/100 89/15/91
f 90/15/100 115/13/90 116/13/101
f 83/15/102 122/13/98 81/15/99
f 122/13/98 83/15/102 117/13/103
f 116/13/101 83/15/102 90/15/100
f 83/15/102 116/13/101 117/13/103

g sword-a




usemtl colormap

f 3/2/2 2/1/1 1/1/1
f 2/1/1 3/2/2 4/2/2
f 2/1/3 6/2/4 5/1/3
f 6/2/4 2/1/3 4/2/4
f 8/2/6 1/1/5 7/1/5
f 1/1/5 8/2/6 3/2/6
f 6/2/8 7/1/7 5/1/7
f 7/1/7 6/2/8 8/2/8
f 1/1/5 9/3/9 7/1/5
f 9/3/9 1/1/5 10/3/9
f 1/1/1 11/3/10 10/3/10
f 11/3/10 1/1/1 2/1/1
f 11/3/11 5/1/3 12/3/11
f 5/1/3 11/3/11 2/1/3
f 5/1/7 9/3/12 12/3/12
f 9/3/12 5/1/7 7/1/7
f 15/4/13 14/4/13 13/4/13
f 14/4/13 15/4/13 16/4/13
f 10/3/9 14/4/14 9/3/9
f 14/4/14 10/3/9 13/4/14
f 10/3/10 15/4/15 13/4/15
f 15/4/15 10/3/10 11/3/10
f 12/3/12 14/4/16 16/4/16
f 14/4/16 12/3/12 9/3/12
f 16/4/17 11/3/11 12/3/11
f 11/3/11 16/4/17 15/4/17
f 19/5/18 18/5/19 17/5/18
f 18/5/19 19/5/18 20/5/19
f 21/2/20 17/5/21 18/5/20
f 17/5/21 21/2/20 22/2/21
f 24/6/23 23/2/22 19/5/22
f 23/2/22 24/6/23 25/7/23
f 26/6/24 21/2/20 18/5/20
f 21/2/20 26/6/24 27/7/24
f 25/7/25 29/6/25 28/7/25
f 29/6/25 25/7/25 24/6/25
f 31/2/26 30/6/27 20/5/26
f 30/6/27 31/2/26 32/7/27
f 21/2/29 23/2/28 22/2/28
f 23/2/28 21/2/29 31/2/29
f 22/2/21 29/6/30 17/5/21
f 29/6/30 22/2/21 28/7/30
f 27/7/31 31/2/29 21/2/29
f 31/2/29 27/7/31 32/7/31
f 20/5/19 26/6/32 18/5/19
f 26/6/32 20/5/19 30/6/32
f 22/2/28 25/7/33 28/7/33
f 25/7/33 22/2/28 23/2/28
f 24/6/34 17/5/18 29/6/34
f 17/5/18 24/6/34 19/5/18
f 19/5/22 31/2/26 20/5/26
f 31/2/26 19/5/22 23/2/22
f 35/2/35 34/5/35 33/5/35
f 34/5/35 35/2/35 36/2/35
f 35/2/36 37/2/36 36/2/36
f 37/2/36 35/2/36 38/2/36
f 40/5/13 34/5/13 39/5/13
f 34/5/13 40/5/13 33/5/13
f 37/2/37 40/5/37 39/5/37
f 40/5/37 37/2/37 38/2/37
f 43/5/19 42/5/18 41/5/18
f 42/5/18 43/5/19 44/5/19
f 41/5/22 45/2/26 43/5/26
f 45/2/26 41/5/22 46/2/22
f 45/2/26 47/6/27 43/5/26
f 47/6/27 45/2/26 48/7/27
f 49/2/20 42/5/21 44/5/20
f 42/5/21 49/2/20 50/2/21
f 51/6/23 46/2/22 41/5/22
f 46/2/22 51/6/23 52/7/23
f 50/2/28 52/7/33 53/7/33
f 52/7/33 50/2/28 46/2/28
f 50/2/21 54/6/30 42/5/21
f 54/6/30 50/2/21 53/7/30
f 49/2/29 46/2/28 50/2/28
f 46/2/28 49/2/29 45/2/29
f 55/7/31 45/2/29 49/2/29
f 45/2/29 55/7/31 48/7/31
f 41/5/18 54/6/34 51/6/34
f 54/6/34 41/5/18 42/5/18
f 47/6/38 55/7/38 56/6/38
f 55/7/38 47/6/38 48/7/38
f 56/6/24 49/2/20 44/5/20
f 49/2/20 56/6/24 55/7/24
f 47/6/32 44/5/19 43/5/19
f 44/5/19 47/6/32 56/6/32
f 59/8/41 58/9/40 57/8/39
f 58/9/40 59/8/41 60/9/42
f 63/9/45 62/8/44 61/8/43
f 62/8/44 63/9/45 64/9/46
f 64/9/46 65/8/47 62/8/44
f 65/8/47 64/9/46 66/9/48
f 68/9/50 61/8/43 67/8/49
f 61/8/43 68/9/50 63/9/45
f 66/9/52 59/8/41 65/8/51
f 59/8/41 66/9/52 60/9/42
f 58/9/40 67/8/53 57/8/39
f 67/8/53 58/9/40 68/9/54
f 71/10/36 70/10/36 69/10/36
f 70/10/36 71/10/36 72/10/36
f 72/10/36 71/10/36 73/10/36
f 73/10/36 71/10/36 74/10/36
f 73/10/36 74/10/36 75/10/36
f 64/9/46 70/10/56 72/10/55
f 64/9/46 63/9/45 70/10/56
f 70/10/56 63/9/45 69/10/57
f 71/10/58 63/9/45 68/9/50
f 63/9/45 71/10/58 69/10/57
f 74/10/59 68/9/54 58/9/40
f 68/9/54 74/10/59 71/10/60
f 73/10/61 60/9/42 66/9/52
f 60/9/42 73/10/61 75/10/62
f 60/9/42 74/10/59 58/9/40
f 74/10/59 60/9/42 75/10/62
f 72/10/55 66/9/48 64/9/46
f 66/9/48 72/10/55 73/10/63
f 78/12/64 77/11/65 76/11/64
f 77/11/65 78/12/64 79/12/65
f 82/11/67 81/12/66 80/11/66
f 81/12/66 82/11/67 83/12/67
f 84/12/68 77/11/65 79/12/65
f 77/11/65 84/12/68 85/11/68
f 87/11/13 85/11/13 86/11/13
f 85/11/13 87/11/13 77/11/13
f 77/11/13 87/11/13 82/11/13
f 77/11/13 82/11/13 76/11/13
f 76/11/13 82/11/13 80/11/13
f 76/11/13 80/11/13 88/11/13
f 89/12/69 85/11/68 84/12/68
f 85/11/68 89/12/69 86/11/69
f 79/12/36 89/12/36 84/12/36
f 89/12/36 79/12/36 90/12/36
f 90/12/36 79/12/36 78/12/36
f 90/12/36 78/12/36 83/12/36
f 83/12/36 78/12/36 91/12/36
f 83/12/36 91/12/36 81/12/36
f 80/11/66 91/12/70 88/11/70
f 91/12/70 80/11/66 81/12/66
f 90/12/71 82/11/67 87/11/71
f 82/11/67 90/12/71 83/12/67
f 90/12/71 86/11/69 89/12/69
f 86/11/69 90/12/71 87/11/71
f 88/11/70 78/12/64 76/11/64
f 78/12/64 88/11/70 91/12/70
f 93/13/74 88/14/73 92/13/72
f 88/14/73 93/13/74 80/14/75
f 94/15/70 93/13/66 92/13/70
f 93/13/66 94/15/70 95/15/66
f 95/15/66 96/13/67 93/13/66
f 96/13/67 95/15/66 97/15/67
f 99/15/64 92/13/70 98/13/64
f 92/13/70 99/15/64 94/15/70
f 102/15/13 101/15/13 100/15/13
f 101/15/13 102/15/13 103/15/13
f 103/15/13 102/15/13 97/15/13
f 103/15/13 97/15/13 99/15/13
f 99/15/13 97/15/13 95/15/13
f 99/15/13 95/15/13 94/15/13
f 105/13/69 101/15/68 104/13/68
f 101/15/68 105/13/69 100/15/69
f 106/13/71 100/15/69 105/13/69
f 100/15/69 106/13/71 102/15/71
f 98/13/64 103/15/65 99/15/64
f 103/15/65 98/13/64 107/13/65
f 106/13/71 97/15/67 102/15/71
f 97/15/67 106/13/71 96/13/67
f 107/13/65 101/15/68 103/15/65
f 101/15/68 107/13/65 104/13/68
f 77/14/36 86/14/36 85/14/36
f 86/14/36 77/14/36 87/14/36
f 87/14/36 77/14/36 76/14/36
f 87/14/36 76/14/36 82/14/36
f 82/14/36 76/14/36 88/14/36
f 82/14/36 88/14/36 80/14/36
f 85/14/78 105/13/77 104/13/76
f 105/13/77 85/14/78 86/14/79
f 87/14/80 105/13/77 86/14/79
f 105/13/77 87/14/80 106/13/81
f 87/14/80 96/13/82 106/13/81
f 96/13/82 87/14/80 82/14/83
f 76/14/86 107/13/85 98/13/84
f 107/13/85 76/14/86 77/14/87
f 77/14/87 104/13/76 107/13/85
f 104/13/76 77/14/87 85/14/78
f 92/13/72 76/14/86 98/13/84
f 76/14/86 92/13/72 88/14/73
f 93/13/74 82/14/83 80/14/75
f 82/14/83 93/13/74 96/13/82
f 110/14/64 109/13/65 108/13/64
f 109/13/65 110/14/64 111/14/65
f 114/14/69 113/13/68 112/14/68
f 113/13/68 114/14/69 115/13/69
f 118/14/71 117/13/67 116/13/71
f 117/13/67 118/14/71 119/14/67
f 120/13/70 110/14/64 108/13/64
f 110/14/64 120/13/70 121/14/70
f 114/14/69 116/13/71 115/13/69
f 116/13/71 114/14/69 118/14/71
f 117/13/67 123/14/66 122/13/66
f 123/14/66 117/13/67 119/14/67
f 112/14/68 109/13/65 111/14/65
f 109/13/65 112/14/68 113/13/68
f 122/13/66 121/14/70 120/13/70
f 121/14/70 122/13/66 123/14/66
f 90/15/13 84/15/13 89/15/13
f 84/15/13 90/15/13 79/15/13
f 79/15/13 90/15/13 83/15/13
f 79/15/13 83/15/13 78/15/13
f 78/15/13 83/15/13 81/15/13
f 78/15/13 81/15/13 91/15/13
f 115/13/90 84/15/89 113/13/88
f 84/15/89 115/13/90 89/15/91
f 109/13/93 84/15/89 79/15/92
f 84/15/89 109/13/93 113/13/88
f 111/14/36 114/14/36 112/14/36
f 114/14/36 111/14/36 118/14/36
f 118/14/36 111/14/36 110/14/36
f 118/14/36 110/14/36 119/14/36
f 119/14/36 110/14/36 121/14/36
f 119/14/36 121/14/36 123/14/36
f 78/15/96 120/13/95 108/13/94
f 120/13/95 78/15/96 91/15/97
f 108/13/94 79/15/92 78/15/96
f 79/15/92 108/13/94 109/13/93
f 91/15/97 122/13/98 120/13/95
f 122/13/98 91/15/97 81/15/99
f 115/13/90 90/15/100 89/15/91
f 90/15/100 115/13/90 116/13/101
f 83/15/102 122/13/98 81/15/99
f 122/13/98 83/15/102 117/13/103
f 116/13/101 83/15/102 90/15/100
f 83/15/102 116/13/101 117/13/103

