# Created by Kenney (www.kenney.nl)

mtllib sword-c.mtl

g sword-c

v 0.1875 0.2 0.1875 1 1 1
v -0.1875 0.2 0.1875 1 1 1
v 0.125 0.3 0.125 1 1 1
v -0.125 0.3 0.125 1 1 1
v -0.1875 0.2 -0.1875 1 1 1
v -0.125 0.3 -0.125 1 1 1
v 0.1875 0.2 -0.1875 1 1 1
v 0.125 0.3 -0.125 1 1 1
v 0.1875 0.1 -0.1875 1 1 1
v 0.1875 0.1 0.1875 1 1 1
v -0.1875 0.1 0.1875 1 1 1
v -0.1875 0.1 -0.1875 1 1 1
v 0.125 0 0.125 1 1 1
v 0.125 0 -0.125 1 1 1
v -0.125 0 0.125 1 1 1
v -0.125 0 -0.125 1 1 1
v 0.525 1.0375 -0.1875 1 1 1
v 0.425 1.0375 -0.1875 1 1 1
v 0.525 1.0375 0.1875 1 1 1
v 0.425 1.0375 0.1875 1 1 1
v 0.425 1.4125 -0.1875 1 1 1
v 0.525 1.4125 -0.1875 1 1 1
v 0.525 1.4125 0.1875 1 1 1
v 0.625 1.1 0.125 1 1 1
v 0.625 1.35 0.125 1 1 1
v 0.325 1.1 -0.125 1 1 1
v 0.325 1.35 -0.125 1 1 1
v 0.625 1.35 -0.125 1 1 1
v 0.625 1.1 -0.125 1 1 1
v 0.325 1.1 0.125 1 1 1
v 0.425 1.4125 0.1875 1 1 1
v 0.325 1.35 0.125 1 1 1
v -0.325 1.1 -0.125 1 1 1
v 0.325 1.1 -0.125 1 1 1
v -0.325 1.35 -0.125 1 1 1
v 0.325 1.35 -0.125 1 1 1
v 0.325 1.35 0.125 1 1 1
v -0.325 1.35 0.125 1 1 1
v 0.325 1.1 0.125 1 1 1
v -0.325 1.1 0.125 1 1 1
v -0.425 1.0375 0.1875 1 1 1
v -0.425 1.0375 -0.1875 1 1 1
v -0.525 1.0375 0.1875 1 1 1
v -0.525 1.0375 -0.1875 1 1 1
v -0.525 1.4125 0.1875 1 1 1
v -0.425 1.4125 0.1875 1 1 1
v -0.625 1.1 0.125 1 1 1
v -0.625 1.35 0.125 1 1 1
v -0.525 1.4125 -0.1875 1 1 1
v -0.425 1.4125 -0.1875 1 1 1
v -0.325 1.1 0.125 1 1 1
v -0.325 1.35 0.125 1 1 1
v -0.325 1.35 -0.125 1 1 1
v -0.325 1.1 -0.125 1 1 1
v -0.625 1.35 -0.125 1 1 1
v -0.625 1.1 -0.125 1 1 1
v -0.225 0.4 -0.125 1 1 1
v -0.16875 0.5 -0.09375 1 1 1
v -0.225 0.4 0.125 1 1 1
v -0.16875 0.5 0.09375 1 1 1
v -0.225 0.3 -0.125 1 1 1
v -0.225 0.3 0.125 1 1 1
v -0.125 0.4 0.225 1 1 1
v -0.125 0.3 0.225 1 1 1
v -0.125 0.4 -0.225 1 1 1
v -0.125 0.3 -0.225 1 1 1
v 0.225 0.3 0.125 1 1 1
v 0.225 0.3 -0.125 1 1 1
v 0.125 0.3 0.225 1 1 1
v 0.125 0.3 -0.225 1 1 1
v 0.225 0.4 -0.125 1 1 1
v 0.225 0.4 0.125 1 1 1
v 0.125 0.4 0.225 1 1 1
v 0.125 0.4 -0.225 1 1 1
v 0.16875 0.5 -0.09375 1 1 1
v 0.16875 0.5 0.09375 1 1 1
v 0.09375 0.5 -0.16875 1 1 1
v 0.09375 0.5 0.16875 1 1 1
v -0.09375 0.5 -0.16875 1 1 1
v -0.09375 0.5 0.16875 1 1 1
v -0.125 1 -0.225 1 1 1
v 0.125 1 -0.225 1 1 1
v -0.125 1.1 -0.225 1 1 1
v 0.125 1.1 -0.225 1 1 1
v 0.225 1.1 -0.125 1 1 1
v 0.225 1 -0.125 1 1 1
v 0.225 1.1 0.125 1 1 1
v 0.225 1 0.125 1 1 1
v 0.125 1 0.225 1 1 1
v -0.125 1 0.225 1 1 1
v 0.125 1.1 0.225 1 1 1
v -0.125 1.1 0.225 1 1 1
v -0.225 1 -0.125 1 1 1
v -0.225 1.1 -0.125 1 1 1
v -0.225 1 0.125 1 1 1
v -0.225 1.1 0.125 1 1 1
v 0.16875 0.9 0.09375 1 1 1
v 0.16875 0.9 -0.09375 1 1 1
v 0.09375 0.9 0.16875 1 1 1
v 0.09375 0.9 -0.16875 1 1 1
v -0.09375 0.9 0.16875 1 1 1
v -0.09375 0.9 -0.16875 1 1 1
v -0.16875 0.9 0.09375 1 1 1
v -0.16875 0.9 -0.09375 1 1 1
v -0.1805 3.25 -0.06467246 1 1 1
v -0.2805 3.375 -0.03125 1 1 1
v -0.1805 3.25 0.06467246 1 1 1
v -0.2805 3.375 0.03125 1 1 1
v 0 1.35 0.125 1 1 1
v -0.2805 1.35 0.03125 1 1 1
v 0 3.825 0.125 1 1 1
v -0.1805 3.169961 0.06467246 1 1 1
v -0.2805 3.044961 0.03125 1 1 1
v -0.2805 3.825 0.03125 1 1 1
v 0.2805 2.275 -0.03125 1 1 1
v 0.2805 2.275 0.03125 1 1 1
v 0.2805 3.825 -0.03125 1 1 1
v 0.2805 3.825 0.03125 1 1 1
v -0.1805 3.169961 -0.06467246 1 1 1
v -0.2805 3.044961 -0.03125 1 1 1
v -0.2805 3.825 -0.03125 1 1 1
v 0 3.825 -0.125 1 1 1
v -0.05259374 4.24575 -0.005859382 1 1 1
v 0 4.24575 -0.0234375 1 1 1
v -0.05259374 4.24575 0.005859375 1 1 1
v 0.05259375 4.24575 -0.005859382 1 1 1
v 0.05259375 4.24575 0 1 1 1
v 0.05259375 4.24575 0.005859375 1 1 1
v 0.2805 1.35 0.03125 1 1 1
v 0.2805 1.944961 0.03125 1 1 1
v 0.1805 2.069961 0.06467246 1 1 1
v 0.1805 2.15 0.06467246 1 1 1
v 0 4.24575 0.0234375 1 1 1
v -0.2805 1.35 -0.03125 1 1 1
v 0.1805 2.069961 -0.06467246 1 1 1
v 0.2805 1.944961 -0.03125 1 1 1
v 0.2805 1.35 -0.03125 1 1 1
v 0 1.35 -0.125 1 1 1
v 0.1805 2.15 -0.06467246 1 1 1
v 0.1914514 0.8548268 -0.125 1 1 1
v 0.2432152 0.6616417 -0.125 1 1 1
v 0.1914514 0.8548268 0.125 1 1 1
v 0.2432152 0.6616417 0.125 1 1 1
v 0.1466226 0.6357598 0.225 1 1 1
v -0.09485881 0.571055 0.225 1 1 1
v 0.09485881 0.8289449 0.225 1 1 1
v -0.1466226 0.7642401 0.225 1 1 1
v -0.09485881 0.571055 -0.225 1 1 1
v 0.1466226 0.6357598 -0.225 1 1 1
v -0.1466226 0.7642401 -0.225 1 1 1
v 0.09485881 0.8289449 -0.225 1 1 1
v -0.1914514 0.5451731 -0.125 1 1 1
v -0.2432152 0.7383583 -0.125 1 1 1
v -0.1914514 0.5451731 0.125 1 1 1
v -0.2432152 0.7383583 0.125 1 1 1
v -0.105316 1.479445 0.225 1 1 1
v -0.3021551 1.444028 0.125 1 1 1
v -0.337572 1.640867 0.125 1 1 1
v -0.2391525 1.658576 0.225 1 1 1
v 0.3021551 1.755972 -0.125 1 1 1
v 0.337572 1.559133 -0.125 1 1 1
v 0.3021551 1.755972 0.125 1 1 1
v 0.337572 1.559133 0.125 1 1 1
v -0.3021551 1.444028 -0.125 1 1 1
v -0.337572 1.640867 -0.125 1 1 1
v -0.2037355 1.461736 -0.225 1 1 1
v -0.2391525 1.658576 -0.225 1 1 1
v 0.2037355 1.738264 0.225 1 1 1
v 0.2391525 1.541425 0.225 1 1 1
v 0.2037355 1.738264 -0.225 1 1 1
v 0.2391525 1.541425 -0.225 1 1 1

vn 0 0.2247516 0.9744161
vn 0 0.529999 0.8479983
vn -0.9744161 0.2247516 0
vn -0.8479983 0.529999 0
vn 0.9744161 0.2247516 0
vn 0.8479983 0.529999 0
vn 0 0.2247516 -0.9744161
vn 0 0.529999 -0.8479983
vn 0.9744161 -0.2247516 0
vn 0 -0.2247516 0.9744161
vn -0.9744161 -0.2247516 0
vn 0 -0.2247516 -0.9744161
vn 0 -1 0
vn 0.8479983 -0.529999 0
vn 0 -0.529999 0.8479983
vn 0 -0.529999 -0.8479983
vn -0.8479983 -0.529999 0
vn 0.2247516 -0.9744161 0
vn -0.2247516 -0.9744161 0
vn -0.2247516 0 -0.9744161
vn 0.2247516 0 -0.9744161
vn 0.2247516 0 0.9744161
vn 0.529999 0 0.8479983
vn -0.529999 0 -0.8479983
vn 1 0 0
vn -0.2247516 0 0.9744161
vn -0.529999 0 0.8479983
vn 0.2247516 0.9744161 0
vn -0.2247516 0.9744161 0
vn 0.529999 0 -0.8479983
vn -0.529999 0.8479983 0
vn -0.529999 -0.8479983 0
vn 0.529999 0.8479983 0
vn 0.529999 -0.8479983 0
vn 0 0 -1
vn 0 1 0
vn 0 0 1
vn -1 0 0
vn -0.7739689 0.5391423 -0.332111
vn -0.784829 0.5377297 -0.3080428
vn -0.7739689 0.5391423 0.332111
vn -0.784829 0.5377297 0.3080428
vn -0.9238795 0 -0.3826834
vn -0.9238795 0 0.3826834
vn -0.3826834 0 0.9238795
vn -0.3826834 0 -0.9238795
vn 0.9238795 0 -0.3826834
vn 0.9238795 0 0.3826834
vn 0.3826834 0 0.9238795
vn 0.3826834 0 -0.9238795
vn 0.7739689 0.5391423 -0.332111
vn 0.7739689 0.5391423 0.332111
vn 0.784829 0.5377297 -0.3080428
vn 0.784829 0.5377297 0.3080428
vn 0.3080428 0.5377297 0.784829
vn 0.332111 0.5391423 0.7739689
vn -0.332111 0.5391423 0.7739689
vn -0.3080428 0.5377297 0.784829
vn -0.332111 0.5391423 -0.7739689
vn 0.332111 0.5391423 -0.7739689
vn -0.3080428 0.5377297 -0.784829
vn 0.3080428 0.5377297 -0.784829
vn 0.7739689 -0.5391423 -0.332111
vn 0.784829 -0.5377297 -0.3080428
vn 0.7739689 -0.5391423 0.332111
vn 0.784829 -0.5377297 0.3080428
vn 0.3080428 -0.5377297 -0.784829
vn 0.332111 -0.5391423 -0.7739689
vn -0.332111 -0.5391423 -0.7739689
vn -0.7739689 -0.5391423 -0.332111
vn -0.3080428 -0.5377297 -0.784829
vn -0.784829 -0.5377297 -0.3080428
vn -0.7739689 -0.5391423 0.332111
vn -0.784829 -0.5377297 0.3080428
vn 0.3080428 -0.5377297 0.784829
vn 0.332111 -0.5391423 0.7739689
vn -0.3080428 -0.5377297 0.784829
vn -0.332111 -0.5391423 0.7739689
vn -0.9514813 -0.3077064 0
vn -0.7808689 -0.6246951 0
vn -0.3169884 0 0.9484293
vn -0.8114765 0 0.5843849
vn -0.31508 0.1095655 0.9427195
vn -0.7115726 0 0.7026126
vn -0.8107421 0.2104085 0.5462833
vn 0.7115726 0 -0.7026126
vn 0.7115726 0 0.7026126
vn 0.8107421 0.2104085 -0.5462833
vn 0.8107421 0.2104085 0.5462833
vn -0.9514813 0.3077064 0
vn -0.7808689 0.6246951 0
vn -0.7115726 0 -0.7026126
vn -0.8107421 0.2104085 -0.5462833
vn -0.31508 0.1095655 -0.9427195
vn -0.6766279 0.4036687 -0.6158136
vn -0.3089944 0.2231626 -0.9245112
vn -0.6766279 0.4036687 0.6158136
vn 0.6766279 0.4036687 -0.6158136
vn 0.879292 0.4762832 0
vn 0.6766279 0.4036687 0.6158136
vn 0.8114765 0 0.5843849
vn 0.3169884 0 0.9484293
vn 0.31508 0.1095655 0.9427195
vn 0.3089944 0.2231626 0.9245112
vn -0.8114765 0 -0.5843849
vn 0.9514813 0.3077064 0
vn 0.7808689 0.6246951 0
vn 0.3169884 0 -0.9484293
vn 0.8114765 0 -0.5843849
vn 0.31508 0.1095655 -0.9427195
vn -0.3089944 0.2231626 0.9245112
vn 0.3089944 0.2231626 -0.9245112
vn 0.9514813 -0.3077064 0
vn -0.3169884 0 -0.9484293
vn 0.7808689 -0.6246951 0
vn 0.892399 0.2391176 -0.3826834
vn 0.892399 0.2391176 0.3826834
vn 0.3696438 0.09904576 0.9238795
vn -0.3696438 -0.09904576 0.9238795
vn -0.3696438 -0.09904576 -0.9238795
vn 0.3696438 0.09904576 -0.9238795
vn -0.892399 -0.2391176 -0.3826834
vn -0.892399 -0.2391176 0.3826834
vn 0.258819 -0.9659258 0
vn -0.258819 0.9659258 0
vn -0.1950038 -0.08629078 0.9769992
vn -0.8372068 -0.1506373 0.5257311
vn -0.8540165 -0.2489068 0.4568383
vn -0.4098753 -0.3062361 0.8591983
vn 0.9092782 0.163605 -0.3826834
vn 0.9092782 0.163605 0.3826834
vn -0.9092782 -0.163605 -0.3826834
vn -0.3766353 -0.0677674 -0.9238795
vn 0.3766353 0.0677674 0.9238795
vn 0.3766353 0.0677674 -0.9238795
vn 0.1770847 -0.9841956 0
vn -0.1770847 0.9841956 0

vt 0.46875 0.1583333
vt 0.46875 0.225
vt 0.46875 0.09166666
vt 0.46875 0.025
vt 0.46875 0.145
vt 0.46875 0.1583333
vt 0.46875 0.2116667
vt 0.46875 0.125
vt 0.46875 0.175
vt 0.46875 0.075
vt 0.21875 0.4474907
vt 0.21875 0.4509441
vt 0.21875 0.395
vt 0.21875 0.463376
vt 0.21875 0.4452795
vt 0.21875 0.4418262
vt 0.21875 0.4205547
vt 0.21875 0.475
vt 0.21875 0.4114368
vt 0.21875 0.4148901
vt 0.21875 0.4171014
vt 0.21875 0.225
vt 0.21875 0.025
vt 0.21875 0.175
vt 0.21875 0.075
vt 0.96875 0.075
vt 0.96875 0.175

usemtl colormap

f 3/2/2 2/1/1 1/1/1
f 2/1/1 3/2/2 4/2/2
f 2/1/3 6/2/4 5/1/3
f 6/2/4 2/1/3 4/2/4
f 8/2/6 1/1/5 7/1/5
f 1/1/5 8/2/6 3/2/6
f 6/2/8 7/1/7 5/1/7
f 7/1/7 6/2/8 8/2/8
f 1/1/5 9/3/9 7/1/5
f 9/3/9 1/1/5 10/3/9
f 1/1/1 11/3/10 10/3/10
f 11/3/10 1/1/1 2/1/1
f 11/3/11 5/1/3 12/3/11
f 5/1/3 11/3/11 2/1/3
f 5/1/7 9/3/12 12/3/12
f 9/3/12 5/1/7 7/1/7
f 15/4/13 14/4/13 13/4/13
f 14/4/13 15/4/13 16/4/13
f 10/3/9 14/4/14 9/3/9
f 14/4/14 10/3/9 13/4/14
f 10/3/10 15/4/15 13/4/15
f 15/4/15 10/3/10 11/3/10
f 12/3/12 14/4/16 16/4/16
f 14/4/16 12/3/12 9/3/12
f 16/4/17 11/3/11 12/3/11
f 11/3/11 16/4/17 15/4/17
f 19/5/18 18/5/19 17/5/18
f 18/5/19 19/5/18 20/5/19
f 21/2/20 17/5/21 18/5/20
f 17/5/21 21/2/20 22/2/21
f 24/6/23 23/2/22 19/5/22
f 23/2/22 24/6/23 25/7/23
f 26/6/24 21/2/20 18/5/20
f 21/2/20 26/6/24 27/7/24
f 25/7/25 29/6/25 28/7/25
f 29/6/25 25/7/25 24/6/25
f 31/2/26 30/6/27 20/5/26
f 30/6/27 31/2/26 32/7/27
f 21/2/29 23/2/28 22/2/28
f 23/2/28 21/2/29 31/2/29
f 22/2/21 29/6/30 17/5/21
f 29/6/30 22/2/21 28/7/30
f 27/7/31 31/2/29 21/2/29
f 31/2/29 27/7/31 32/7/31
f 20/5/19 26/6/32 18/5/19
f 26/6/32 20/5/19 30/6/32
f 22/2/28 25/7/33 28/7/33
f 25/7/33 22/2/28 23/2/28
f 24/6/34 17/5/18 29/6/34
f 17/5/18 24/6/34 19/5/18
f 19/5/22 31/2/26 20/5/26
f 31/2/26 19/5/22 23/2/22
f 35/2/35 34/5/35 33/5/35
f 34/5/35 35/2/35 36/2/35
f 35/2/36 37/2/36 36/2/36
f 37/2/36 35/2/36 38/2/36
f 40/5/13 34/5/13 39/5/13
f 34/5/13 40/5/13 33/5/13
f 37/2/37 40/5/37 39/5/37
f 40/5/37 37/2/37 38/2/37
f 43/5/19 42/5/18 41/5/18
f 42/5/18 43/5/19 44/5/19
f 41/5/22 45/2/26 43/5/26
f 45/2/26 41/5/22 46/2/22
f 45/2/26 47/6/27 43/5/26
f 47/6/27 45/2/26 48/7/27
f 49/2/20 42/5/21 44/5/20
f 42/5/21 49/2/20 50/2/21
f 51/6/23 46/2/22 41/5/22
f 46/2/22 51/6/23 52/7/23
f 50/2/28 52/7/33 53/7/33
f 52/7/33 50/2/28 46/2/28
f 50/2/21 54/6/30 42/5/21
f 54/6/30 50/2/21 53/7/30
f 49/2/29 46/2/28 50/2/28
f 46/2/28 49/2/29 45/2/29
f 55/7/31 45/2/29 49/2/29
f 45/2/29 55/7/31 48/7/31
f 41/5/18 54/6/34 51/6/34
f 54/6/34 41/5/18 42/5/18
f 47/6/38 55/7/38 56/6/38
f 55/7/38 47/6/38 48/7/38
f 56/6/24 49/2/20 44/5/20
f 49/2/20 56/6/24 55/7/24
f 47/6/32 44/5/19 43/5/19
f 44/5/19 47/6/32 56/6/32
f 59/8/41 58/9/40 57/8/39
f 58/9/40 59/8/41 60/9/42
f 61/10/43 59/8/44 57/8/43
f 59/8/44 61/10/43 62/10/44
f 62/10/44 63/8/45 59/8/44
f 63/8/45 62/10/44 64/10/45
f 66/10/46 57/8/43 65/8/46
f 57/8/43 66/10/46 61/10/43
f 69/10/13 68/10/13 67/10/13
f 68/10/13 69/10/13 70/10/13
f 70/10/13 69/10/13 64/10/13
f 70/10/13 64/10/13 66/10/13
f 66/10/13 64/10/13 62/10/13
f 66/10/13 62/10/13 61/10/13
f 72/8/48 68/10/47 71/8/47
f 68/10/47 72/8/48 67/10/48
f 73/8/49 67/10/48 72/8/48
f 67/10/48 73/8/49 69/10/49
f 65/8/46 70/10/50 66/10/46
f 70/10/50 65/8/46 74/8/50
f 73/8/49 64/10/45 69/10/49
f 64/10/45 73/8/49 63/8/45
f 74/8/50 68/10/47 70/10/50
f 68/10/47 74/8/50 71/8/47
f 77/9/36 76/9/36 75/9/36
f 76/9/36 77/9/36 78/9/36
f 78/9/36 77/9/36 79/9/36
f 78/9/36 79/9/36 80/9/36
f 80/9/36 79/9/36 58/9/36
f 80/9/36 58/9/36 60/9/36
f 75/9/53 72/8/52 71/8/51
f 72/8/52 75/9/53 76/9/54
f 78/9/55 72/8/52 76/9/54
f 72/8/52 78/9/55 73/8/56
f 78/9/55 63/8/57 73/8/56
f 63/8/57 78/9/55 80/9/58
f 79/9/61 74/8/60 65/8/59
f 74/8/60 79/9/61 77/9/62
f 77/9/62 71/8/51 74/8/60
f 71/8/51 77/9/62 75/9/53
f 57/8/39 79/9/61 65/8/59
f 79/9/61 57/8/39 58/9/40
f 59/8/41 80/9/58 60/9/42
f 80/9/58 59/8/41 63/8/57
f 83/9/46 82/8/50 81/8/46
f 82/8/50 83/9/46 84/9/50
f 87/9/48 86/8/47 85/9/47
f 86/8/47 87/9/48 88/8/48
f 91/9/49 90/8/45 89/8/49
f 90/8/45 91/9/49 92/9/45
f 93/8/43 83/9/46 81/8/46
f 83/9/46 93/8/43 94/9/43
f 87/9/48 89/8/49 88/8/48
f 89/8/49 87/9/48 91/9/49
f 90/8/45 96/9/44 95/8/44
f 96/9/44 90/8/45 92/9/45
f 85/9/47 82/8/50 84/9/50
f 82/8/50 85/9/47 86/8/47
f 95/8/44 94/9/43 93/8/43
f 94/9/43 95/8/44 96/9/44
f 99/10/13 98/10/13 97/10/13
f 98/10/13 99/10/13 100/10/13
f 100/10/13 99/10/13 101/10/13
f 100/10/13 101/10/13 102/10/13
f 102/10/13 101/10/13 103/10/13
f 102/10/13 103/10/13 104/10/13
f 88/8/65 98/10/64 86/8/63
f 98/10/64 88/8/65 97/10/66
f 82/8/68 98/10/64 100/10/67
f 98/10/64 82/8/68 86/8/63
f 84/9/36 87/9/36 85/9/36
f 87/9/36 84/9/36 91/9/36
f 91/9/36 84/9/36 83/9/36
f 91/9/36 83/9/36 92/9/36
f 92/9/36 83/9/36 94/9/36
f 92/9/36 94/9/36 96/9/36
f 102/10/71 93/8/70 81/8/69
f 93/8/70 102/10/71 104/10/72
f 81/8/69 100/10/67 102/10/71
f 100/10/67 81/8/69 82/8/68
f 104/10/72 95/8/73 93/8/70
f 95/8/73 104/10/72 103/10/74
f 88/8/65 99/10/75 97/10/66
f 99/10/75 88/8/65 89/8/76
f 101/10/77 95/8/73 103/10/74
f 95/8/73 101/10/77 90/8/78
f 89/8/76 101/10/77 99/10/75
f 101/10/77 89/8/76 90/8/78
f 107/11/79 106/12/80 105/11/79
f 106/12/80 107/11/79 108/12/80
f 111/14/83 110/13/82 109/13/81
f 110/13/82 111/14/83 112/15/81
f 110/13/82 112/15/81 113/16/84
f 112/15/81 111/14/83 107/11/81
f 107/11/81 111/14/83 108/12/84
f 108/12/84 111/14/83 114/14/85
f 117/14/88 116/17/87 115/17/86
f 116/17/87 117/14/88 118/14/89
f 120/16/91 112/15/90 119/15/90
f 112/15/90 120/16/91 113/16/91
f 108/12/84 121/14/93 106/12/92
f 121/14/93 108/12/84 114/14/85
f 112/15/90 105/11/79 119/15/90
f 105/11/79 112/15/90 107/11/79
f 123/18/95 122/14/94 121/14/93
f 122/14/94 123/18/95 124/18/96
f 114/14/85 123/18/95 121/14/93
f 123/18/95 114/14/85 125/18/97
f 127/18/99 117/14/88 126/18/98
f 118/14/89 117/14/88 127/18/99
f 118/14/89 127/18/99 128/18/100
f 130/19/87 109/13/102 129/13/101
f 109/13/102 130/19/87 131/20/102
f 109/13/102 131/20/102 111/14/103
f 111/14/103 131/20/102 132/21/102
f 111/14/103 132/21/102 116/17/87
f 111/14/103 116/17/87 118/14/89
f 128/18/100 111/14/103 118/14/89
f 111/14/103 128/18/100 133/18/104
f 110/13/82 120/16/92 134/13/105
f 120/16/92 110/13/82 113/16/84
f 131/20/106 136/19/107 135/20/106
f 136/19/107 131/20/106 130/19/107
f 137/13/109 135/20/108 136/19/86
f 138/13/108 135/20/108 137/13/109
f 135/20/108 138/13/108 122/14/110
f 135/20/108 122/14/110 139/21/108
f 139/21/108 122/14/110 115/17/86
f 115/17/86 122/14/110 117/14/88
f 133/18/111 114/14/85 111/14/83
f 114/14/85 133/18/111 125/18/97
f 124/18/112 117/14/88 122/14/110
f 117/14/88 124/18/112 126/18/98
f 130/19/87 137/13/109 136/19/86
f 137/13/109 130/19/87 129/13/101
f 124/18/36 127/18/36 126/18/36
f 127/18/36 124/18/36 128/18/36
f 128/18/36 124/18/36 133/18/36
f 133/18/36 124/18/36 123/18/36
f 133/18/36 123/18/36 125/18/36
f 139/21/113 131/20/106 135/20/106
f 131/20/106 139/21/113 132/21/113
f 120/16/92 138/13/114 134/13/105
f 138/13/114 120/16/92 119/15/114
f 138/13/114 119/15/114 122/14/94
f 122/14/94 119/15/114 105/11/114
f 122/14/94 105/11/114 106/12/92
f 122/14/94 106/12/92 121/14/93
f 115/17/115 132/21/113 139/21/113
f 132/21/113 115/17/115 116/17/115
f 102/23/46 77/22/50 79/22/46
f 77/22/50 102/23/46 100/23/50
f 80/22/45 103/23/44 60/22/44
f 103/23/44 80/22/45 101/23/45
f 98/23/47 77/22/50 100/23/50
f 77/22/50 98/23/47 75/22/47
f 78/22/13 75/22/13 76/22/13
f 75/22/13 78/22/13 77/22/13
f 77/22/13 78/22/13 80/22/13
f 77/22/13 80/22/13 79/22/13
f 79/22/13 80/22/13 60/22/13
f 79/22/13 60/22/13 58/22/13
f 97/23/48 75/22/47 98/23/47
f 75/22/47 97/23/48 76/22/48
f 100/23/36 97/23/36 98/23/36
f 97/23/36 100/23/36 99/23/36
f 99/23/36 100/23/36 102/23/36
f 99/23/36 102/23/36 101/23/36
f 101/23/36 102/23/36 104/23/36
f 101/23/36 104/23/36 103/23/36
f 60/22/44 104/23/43 58/22/43
f 104/23/43 60/22/44 103/23/44
f 99/23/49 80/22/45 78/22/49
f 80/22/45 99/23/49 101/23/45
f 99/23/49 76/22/48 97/23/48
f 76/22/48 99/23/49 78/22/49
f 58/22/43 102/23/46 79/22/46
f 102/23/46 58/22/43 104/23/43
f 142/24/117 141/25/116 140/24/116
f 141/25/116 142/24/117 143/25/117
f 146/24/118 145/25/119 144/25/118
f 145/25/119 146/24/118 147/24/119
f 150/24/120 149/25/121 148/25/120
f 149/25/121 150/24/120 151/24/121
f 154/25/123 153/24/122 152/25/122
f 153/24/122 154/25/123 155/24/123
f 152/25/122 150/24/120 148/25/120
f 150/24/120 152/25/122 153/24/122
f 142/24/117 144/25/118 143/25/117
f 144/25/118 142/24/117 146/24/118
f 145/25/119 155/24/123 154/25/123
f 155/24/123 145/25/119 147/24/119
f 140/24/116 149/25/121 151/24/121
f 149/25/121 140/24/116 141/25/116
f 144/25/124 141/25/124 143/25/124
f 141/25/124 144/25/124 149/25/124
f 149/25/124 144/25/124 145/25/124
f 149/25/124 145/25/124 148/25/124
f 148/25/124 145/25/124 154/25/124
f 148/25/124 154/25/124 152/25/124
f 151/24/125 142/24/125 140/24/125
f 142/24/125 151/24/125 146/24/125
f 146/24/125 151/24/125 150/24/125
f 146/24/125 150/24/125 147/24/125
f 147/24/125 150/24/125 153/24/125
f 147/24/125 153/24/125 155/24/125
f 158/27/128 157/26/127 156/26/126
f 159/27/129 158/27/128 156/26/126
f 162/27/131 161/26/130 160/27/130
f 161/26/130 162/27/131 163/26/131
f 157/26/127 165/27/132 164/26/132
f 165/27/132 157/26/127 158/27/128
f 164/26/132 167/27/133 166/26/133
f 167/27/133 164/26/132 165/27/132
f 168/27/134 163/26/131 162/27/131
f 163/26/131 168/27/134 169/26/134
f 160/27/130 171/26/135 170/27/135
f 171/26/135 160/27/130 161/26/130
f 166/26/133 170/27/135 171/26/135
f 170/27/135 166/26/133 167/27/133
f 168/27/134 156/26/126 169/26/134
f 156/26/126 168/27/134 159/27/129
f 169/26/136 161/26/136 163/26/136
f 161/26/136 169/26/136 171/26/136
f 171/26/136 169/26/136 156/26/136
f 171/26/136 156/26/136 166/26/136
f 166/26/136 156/26/136 157/26/136
f 166/26/136 157/26/136 164/26/136
f 170/27/137 162/27/137 160/27/137
f 162/27/137 170/27/137 168/27/137
f 168/27/137 170/27/137 167/27/137
f 168/27/137 167/27/137 159/27/137
f 159/27/137 167/27/137 165/27/137
f 159/27/137 165/27/137 158/27/137

g sword-c




usemtl colormap

f 3/2/2 2/1/1 1/1/1
f 2/1/1 3/2/2 4/2/2
f 2/1/3 6/2/4 5/1/3
f 6/2/4 2/1/3 4/2/4
f 8/2/6 1/1/5 7/1/5
f 1/1/5 8/2/6 3/2/6
f 6/2/8 7/1/7 5/1/7
f 7/1/7 6/2/8 8/2/8
f 1/1/5 9/3/9 7/1/5
f 9/3/9 1/1/5 10/3/9
f 1/1/1 11/3/10 10/3/10
f 11/3/10 1/1/1 2/1/1
f 11/3/11 5/1/3 12/3/11
f 5/1/3 11/3/11 2/1/3
f 5/1/7 9/3/12 12/3/12
f 9/3/12 5/1/7 7/1/7
f 15/4/13 14/4/13 13/4/13
f 14/4/13 15/4/13 16/4/13
f 10/3/9 14/4/14 9/3/9
f 14/4/14 10/3/9 13/4/14
f 10/3/10 15/4/15 13/4/15
f 15/4/15 10/3/10 11/3/10
f 12/3/12 14/4/16 16/4/16
f 14/4/16 12/3/12 9/3/12
f 16/4/17 11/3/11 12/3/11
f 11/3/11 16/4/17 15/4/17
f 19/5/18 18/5/19 17/5/18
f 18/5/19 19/5/18 20/5/19
f 21/2/20 17/5/21 18/5/20
f 17/5/21 21/2/20 22/2/21
f 24/6/23 23/2/22 19/5/22
f 23/2/22 24/6/23 25/7/23
f 26/6/24 21/2/20 18/5/20
f 21/2/20 26/6/24 27/7/24
f 25/7/25 29/6/25 28/7/25
f 29/6/25 25/7/25 24/6/25
f 31/2/26 30/6/27 20/5/26
f 30/6/27 31/2/26 32/7/27
f 21/2/29 23/2/28 22/2/28
f 23/2/28 21/2/29 31/2/29
f 22/2/21 29/6/30 17/5/21
f 29/6/30 22/2/21 28/7/30
f 27/7/31 31/2/29 21/2/29
f 31/2/29 27/7/31 32/7/31
f 20/5/19 26/6/32 18/5/19
f 26/6/32 20/5/19 30/6/32
f 22/2/28 25/7/33 28/7/33
f 25/7/33 22/2/28 23/2/28
f 24/6/34 17/5/18 29/6/34
f 17/5/18 24/6/34 19/5/18
f 19/5/22 31/2/26 20/5/26
f 31/2/26 19/5/22 23/2/22
f 35/2/35 34/5/35 33/5/35
f 34/5/35 35/2/35 36/2/35
f 35/2/36 37/2/36 36/2/36
f 37/2/36 35/2/36 38/2/36
f 40/5/13 34/5/13 39/5/13
f 34/5/13 40/5/13 33/5/13
f 37/2/37 40/5/37 39/5/37
f 40/5/37 37/2/37 38/2/37
f 43/5/19 42/5/18 41/5/18
f 42/5/18 43/5/19 44/5/19
f 41/5/22 45/2/26 43/5/26
f 45/2/26 41/5/22 46/2/22
f 45/2/26 47/6/27 43/5/26
f 47/6/27 45/2/26 48/7/27
f 49/2/20 42/5/21 44/5/20
f 42/5/21 49/2/20 50/2/21
f 51/6/23 46/2/22 41/5/22
f 46/2/22 51/6/23 52/7/23
f 50/2/28 52/7/33 53/7/33
f 52/7/33 50/2/28 46/2/28
f 50/2/21 54/6/30 42/5/21
f 54/6/30 50/2/21 53/7/30
f 49/2/29 46/2/28 50/2/28
f 46/2/28 49/2/29 45/2/29
f 55/7/31 45/2/29 49/2/29
f 45/2/29 55/7/31 48/7/31
f 41/5/18 54/6/34 51/6/34
f 54/6/34 41/5/18 42/5/18
f 47/6/38 55/7/38 56/6/38
f 55/7/38 47/6/38 48/7/38
f 56/6/24 49/2/20 44/5/20
f 49/2/20 56/6/24 55/7/24
f 47/6/32 44/5/19 43/5/19
f 44/5/19 47/6/32 56/6/32
f 59/8/41 58/9/40 57/8/39
f 58/9/40 59/8/41 60/9/42
f 61/10/43 59/8/44 57/8/43
f 59/8/44 61/10/43 62/10/44
f 62/10/44 63/8/45 59/8/44
f 63/8/45 62/10/44 64/10/45
f 66/10/46 57/8/43 65/8/46
f 57/8/43 66/10/46 61/10/43
f 69/10/13 68/10/13 67/10/13
f 68/10/13 69/10/13 70/10/13
f 70/10/13 69/10/13 64/10/13
f 70/10/13 64/10/13 66/10/13
f 66/10/13 64/10/13 62/10/13
f 66/10/13 62/10/13 61/10/13
f 72/8/48 68/10/47 71/8/47
f 68/10/47 72/8/48 67/10/48
f 73/8/49 67/10/48 72/8/48
f 67/10/48 73/8/49 69/10/49
f 65/8/46 70/10/50 66/10/46
f 70/10/50 65/8/46 74/8/50
f 73/8/49 64/10/45 69/10/49
f 64/10/45 73/8/49 63/8/45
f 74/8/50 68/10/47 70/10/50
f 68/10/47 74/8/50 71/8/47
f 77/9/36 76/9/36 75/9/36
f 76/9/36 77/9/36 78/9/36
f 78/9/36 77/9/36 79/9/36
f 78/9/36 79/9/36 80/9/36
f 80/9/36 79/9/36 58/9/36
f 80/9/36 58/9/36 60/9/36
f 75/9/53 72/8/52 71/8/51
f 72/8/52 75/9/53 76/9/54
f 78/9/55 72/8/52 76/9/54
f 72/8/52 78/9/55 73/8/56
f 78/9/55 63/8/57 73/8/56
f 63/8/57 78/9/55 80/9/58
f 79/9/61 74/8/60 65/8/59
f 74/8/60 79/9/61 77/9/62
f 77/9/62 71/8/51 74/8/60
f 71/8/51 77/9/62 75/9/53
f 57/8/39 79/9/61 65/8/59
f 79/9/61 57/8/39 58/9/40
f 59/8/41 80/9/58 60/9/42
f 80/9/58 59/8/41 63/8/57
f 83/9/46 82/8/50 81/8/46
f 82/8/50 83/9/46 84/9/50
f 87/9/48 86/8/47 85/9/47
f 86/8/47 87/9/48 88/8/48
f 91/9/49 90/8/45 89/8/49
f 90/8/45 91/9/49 92/9/45
f 93/8/43 83/9/46 81/8/46
f 83/9/46 93/8/43 94/9/43
f 87/9/48 89/8/49 88/8/48
f 89/8/49 87/9/48 91/9/49
f 90/8/45 96/9/44 95/8/44
f 96/9/44 90/8/45 92/9/45
f 85/9/47 82/8/50 84/9/50
f 82/8/50 85/9/47 86/8/47
f 95/8/44 94/9/43 93/8/43
f 94/9/43 95/8/44 96/9/44
f 99/10/13 98/10/13 97/10/13
f 98/10/13 99/10/13 100/10/13
f 100/10/13 99/10/13 101/10/13
f 100/10/13 101/10/13 102/10/13
f 102/10/13 101/10/13 103/10/13
f 102/10/13 103/10/13 104/10/13
f 88/8/65 98/10/64 86/8/63
f 98/10/64 88/8/65 97/10/66
f 82/8/68 98/10/64 100/10/67
f 98/10/64 82/8/68 86/8/63
f 84/9/36 87/9/36 85/9/36
f 87/9/36 84/9/36 91/9/36
f 91/9/36 84/9/36 83/9/36
f 91/9/36 83/9/36 92/9/36
f 92/9/36 83/9/36 94/9/36
f 92/9/36 94/9/36 96/9/36
f 102/10/71 93/8/70 81/8/69
f 93/8/70 102/10/71 104/10/72
f 81/8/69 100/10/67 102/10/71
f 100/10/67 81/8/69 82/8/68
f 104/10/72 95/8/73 93/8/70
f 95/8/73 104/10/72 103/10/74
f 88/8/65 99/10/75 97/10/66
f 99/10/75 88/8/65 89/8/76
f 101/10/77 95/8/73 103/10/74
f 95/8/73 101/10/77 90/8/78
f 89/8/76 101/10/77 99/10/75
f 101/10/77 89/8/76 90/8/78
f 107/11/79 106/12/80 105/11/79
f 106/12/80 107/11/79 108/12/80
f 111/14/83 110/13/82 109/13/81
f 110/13/82 111/14/83 112/15/81
f 110/13/82 112/15/81 113/16/84
f 112/15/81 111/14/83 107/11/81
f 107/11/81 111/14/83 108/12/84
f 108/12/84 111/14/83 114/14/85
f 117/14/88 116/17/87 115/17/86
f 116/17/87 117/14/88 118/14/89
f 120/16/91 112/15/90 119/15/90
f 112/15/90 120/16/91 113/16/91
f 108/12/84 121/14/93 106/12/92
f 121/14/93 108/12/84 114/14/85
f 112/15/90 105/11/79 119/15/90
f 105/11/79 112/15/90 107/11/79
f 123/18/95 122/14/94 121/14/93
f 122/14/94 123/18/95 124/18/96
f 114/14/85 123/18/95 121/14/93
f 123/18/95 114/14/85 125/18/97
f 127/18/99 117/14/88 126/18/98
f 118/14/89 117/14/88 127/18/99
f 118/14/89 127/18/99 128/18/100
f 130/19/87 109/13/102 129/13/101
f 109/13/102 130/19/87 131/20/102
f 109/13/102 131/20/102 111/14/103
f 111/14/103 131/20/102 132/21/102
f 111/14/103 132/21/102 116/17/87
f 111/14/103 116/17/87 118/14/89
f 128/18/100 111/14/103 118/14/89
f 111/14/103 128/18/100 133/18/104
f 110/13/82 120/16/92 134/13/105
f 120/16/92 110/13/82 113/16/84
f 131/20/106 136/19/107 135/20/106
f 136/19/107 131/20/106 130/19/107
f 137/13/109 135/20/108 136/19/86
f 138/13/108 135/20/108 137/13/109
f 135/20/108 138/13/108 122/14/110
f 135/20/108 122/14/110 139/21/108
f 139/21/108 122/14/110 115/17/86
f 115/17/86 122/14/110 117/14/88
f 133/18/111 114/14/85 111/14/83
f 114/14/85 133/18/111 125/18/97
f 124/18/112 117/14/88 122/14/110
f 117/14/88 124/18/112 126/18/98
f 130/19/87 137/13/109 136/19/86
f 137/13/109 130/19/87 129/13/101
f 124/18/36 127/18/36 126/18/36
f 127/18/36 124/18/36 128/18/36
f 128/18/36 124/18/36 133/18/36
f 133/18/36 124/18/36 123/18/36
f 133/18/36 123/18/36 125/18/36
f 139/21/113 131/20/106 135/20/106
f 131/20/106 139/21/113 132/21/113
f 120/16/92 138/13/114 134/13/105
f 138/13/114 120/16/92 119/15/114
f 138/13/114 119/15/114 122/14/94
f 122/14/94 119/15/114 105/11/114
f 122/14/94 105/11/114 106/12/92
f 122/14/94 106/12/92 121/14/93
f 115/17/115 132/21/113 139/21/113
f 132/21/113 115/17/115 116/17/115
f 102/23/46 77/22/50 79/22/46
f 77/22/50 102/23/46 100/23/50
f 80/22/45 103/23/44 60/22/44
f 103/23/44 80/22/45 101/23/45
f 98/23/47 77/22/50 100/23/50
f 77/22/50 98/23/47 75/22/47
f 78/22/13 75/22/13 76/22/13
f 75/22/13 78/22/13 77/22/13
f 77/22/13 78/22/13 80/22/13
f 77/22/13 80/22/13 79/22/13
f 79/22/13 80/22/13 60/22/13
f 79/22/13 60/22/13 58/22/13
f 97/23/48 75/22/47 98/23/47
f 75/22/47 97/23/48 76/22/48
f 100/23/36 97/23/36 98/23/36
f 97/23/36 100/23/36 99/23/36
f 99/23/36 100/23/36 102/23/36
f 99/23/36 102/23/36 101/23/36
f 101/23/36 102/23/36 104/23/36
f 101/23/36 104/23/36 103/23/36
f 60/22/44 104/23/43 58/22/43
f 104/23/43 60/22/44 103/23/44
f 99/23/49 80/22/45 78/22/49
f 80/22/45 99/23/49 101/23/45
f 99/23/49 76/22/48 97/23/48
f 76/22/48 99/23/49 78/22/49
f 58/22/43 102/23/46 79/22/46
f 102/23/46 58/22/43 104/23/43
f 142/24/117 141/25/116 140/24/116
f 141/25/116 142/24/117 143/25/117
f 146/24/118 145/25/119 144/25/118
f 145/25/119 146/24/118 147/24/119
f 150/24/120 149/25/121 148/25/120
f 149/25/121 150/24/120 151/24/121
f 154/25/123 153/24/122 152/25/122
f 153/24/122 154/25/123 155/24/123
f 152/25/122 150/24/120 148/25/120
f 150/24/120 152/25/122 153/24/122
f 142/24/117 144/25/118 143/25/117
f 144/25/118 142/24/117 146/24/118
f 145/25/119 155/24/123 154/25/123
f 155/24/123 145/25/119 147/24/119
f 140/24/116 149/25/121 151/24/121
f 149/25/121 140/24/116 141/25/116
f 144/25/124 141/25/124 143/25/124
f 141/25/124 144/25/124 149/25/124
f 149/25/124 144/25/124 145/25/124
f 149/25/124 145/25/124 148/25/124
f 148/25/124 145/25/124 154/25/124
f 148/25/124 154/25/124 152/25/124
f 151/24/125 142/24/125 140/24/125
f 142/24/125 151/24/125 146/24/125
f 146/24/125 151/24/125 150/24/125
f 146/24/125 150/24/125 147/24/125
f 147/24/125 150/24/125 153/24/125
f 147/24/125 153/24/125 155/24/125
f 158/27/128 157/26/127 156/26/126
f 159/27/129 158/27/128 156/26/126
f 162/27/131 161/26/130 160/27/130
f 161/26/130 162/27/131 163/26/131
f 157/26/127 165/27/132 164/26/132
f 165/27/132 157/26/127 158/27/128
f 164/26/132 167/27/133 166/26/133
f 167/27/133 164/26/132 165/27/132
f 168/27/134 163/26/131 162/27/131
f 163/26/131 168/27/134 169/26/134
f 160/27/130 171/26/135 170/27/135
f 171/26/135 160/27/130 161/26/130
f 166/26/133 170/27/135 171/26/135
f 170/27/135 166/26/133 167/27/133
f 168/27/134 156/26/126 169/26/134
f 156/26/126 168/27/134 159/27/129
f 169/26/136 161/26/136 163/26/136
f 161/26/136 169/26/136 171/26/136
f 171/26/136 169/26/136 156/26/136
f 171/26/136 156/26/136 166/26/136
f 166/26/136 156/26/136 157/26/136
f 166/26/136 157/26/136 164/26/136
f 170/27/137 162/27/137 160/27/137
f 162/27/137 170/27/137 168/27/137
f 168/27/137 170/27/137 167/27/137
f 168/27/137 167/27/137 159/27/137
f 159/27/137 167/27/137 165/27/137
f 159/27/137 165/27/137 158/27/137

