# Created by Kenney (www.kenney.nl)

mtllib sword-b.mtl

g sword-b

v 0.1875 0.2 0.1875 1 1 1
v -0.1875 0.2 0.1875 1 1 1
v 0.125 0.3 0.125 1 1 1
v -0.125 0.3 0.125 1 1 1
v -0.1875 0.2 -0.1875 1 1 1
v -0.125 0.3 -0.125 1 1 1
v 0.1875 0.2 -0.1875 1 1 1
v 0.125 0.3 -0.125 1 1 1
v 0.1875 0.1 -0.1875 1 1 1
v 0.1875 0.1 0.1875 1 1 1
v -0.1875 0.1 0.1875 1 1 1
v -0.1875 0.1 -0.1875 1 1 1
v 0.125 0 0.125 1 1 1
v 0.125 0 -0.125 1 1 1
v -0.125 0 0.125 1 1 1
v -0.125 0 -0.125 1 1 1
v 0.525 1.0375 -0.1875 1 1 1
v 0.425 1.0375 -0.1875 1 1 1
v 0.525 1.0375 0.1875 1 1 1
v 0.425 1.0375 0.1875 1 1 1
v 0.425 1.4125 -0.1875 1 1 1
v 0.525 1.4125 -0.1875 1 1 1
v 0.525 1.4125 0.1875 1 1 1
v 0.625 1.1 0.125 1 1 1
v 0.625 1.35 0.125 1 1 1
v 0.325 1.1 -0.125 1 1 1
v 0.325 1.35 -0.125 1 1 1
v 0.625 1.35 -0.125 1 1 1
v 0.625 1.1 -0.125 1 1 1
v 0.325 1.1 0.125 1 1 1
v 0.425 1.4125 0.1875 1 1 1
v 0.325 1.35 0.125 1 1 1
v -0.325 1.1 -0.125 1 1 1
v 0.325 1.1 -0.125 1 1 1
v -0.325 1.35 -0.125 1 1 1
v 0.325 1.35 -0.125 1 1 1
v 0.325 1.35 0.125 1 1 1
v -0.325 1.35 0.125 1 1 1
v 0.325 1.1 0.125 1 1 1
v -0.325 1.1 0.125 1 1 1
v -0.425 1.0375 0.1875 1 1 1
v -0.425 1.0375 -0.1875 1 1 1
v -0.525 1.0375 0.1875 1 1 1
v -0.525 1.0375 -0.1875 1 1 1
v -0.525 1.4125 0.1875 1 1 1
v -0.425 1.4125 0.1875 1 1 1
v -0.625 1.1 0.125 1 1 1
v -0.625 1.35 0.125 1 1 1
v -0.525 1.4125 -0.1875 1 1 1
v -0.425 1.4125 -0.1875 1 1 1
v -0.325 1.1 0.125 1 1 1
v -0.325 1.35 0.125 1 1 1
v -0.325 1.35 -0.125 1 1 1
v -0.325 1.1 -0.125 1 1 1
v -0.625 1.35 -0.125 1 1 1
v -0.625 1.1 -0.125 1 1 1
v -0.225 0.4 -0.125 1 1 1
v -0.16875 0.5 -0.09375 1 1 1
v -0.225 0.4 0.125 1 1 1
v -0.16875 0.5 0.09375 1 1 1
v -0.225 0.3 -0.125 1 1 1
v -0.225 0.3 0.125 1 1 1
v -0.125 0.4 0.225 1 1 1
v -0.125 0.3 0.225 1 1 1
v -0.125 0.4 -0.225 1 1 1
v -0.125 0.3 -0.225 1 1 1
v 0.225 0.3 0.125 1 1 1
v 0.225 0.3 -0.125 1 1 1
v 0.125 0.3 0.225 1 1 1
v 0.125 0.3 -0.225 1 1 1
v 0.225 0.4 -0.125 1 1 1
v 0.225 0.4 0.125 1 1 1
v 0.125 0.4 0.225 1 1 1
v 0.125 0.4 -0.225 1 1 1
v 0.16875 0.5 -0.09375 1 1 1
v 0.16875 0.5 0.09375 1 1 1
v 0.09375 0.5 -0.16875 1 1 1
v 0.09375 0.5 0.16875 1 1 1
v -0.09375 0.5 -0.16875 1 1 1
v -0.09375 0.5 0.16875 1 1 1
v -0.125 1 -0.225 1 1 1
v 0.125 1 -0.225 1 1 1
v -0.125 1.1 -0.225 1 1 1
v 0.125 1.1 -0.225 1 1 1
v 0.225 1.1 -0.125 1 1 1
v 0.225 1 -0.125 1 1 1
v 0.225 1.1 0.125 1 1 1
v 0.225 1 0.125 1 1 1
v 0.125 1 0.225 1 1 1
v -0.125 1 0.225 1 1 1
v 0.125 1.1 0.225 1 1 1
v -0.125 1.1 0.225 1 1 1
v -0.225 1 -0.125 1 1 1
v -0.225 1.1 -0.125 1 1 1
v -0.225 1 0.125 1 1 1
v -0.225 1.1 0.125 1 1 1
v 0.16875 0.9 0.09375 1 1 1
v 0.16875 0.9 -0.09375 1 1 1
v 0.09375 0.9 0.16875 1 1 1
v 0.09375 0.9 -0.16875 1 1 1
v -0.09375 0.9 0.16875 1 1 1
v -0.09375 0.9 -0.16875 1 1 1
v -0.16875 0.9 0.09375 1 1 1
v -0.16875 0.9 -0.09375 1 1 1
v 0.05259375 4.24575 -0.005859375 1 1 1
v 0.05259375 4.24575 1.624301E-15 1 1 1
v -1.283198E-15 4.24575 -0.0234375 1 1 1
v 0.05259375 4.24575 0.005859375 1 1 1
v -1.283198E-15 4.24575 0.0234375 1 1 1
v -0.05259375 4.24575 -0.005859375 1 1 1
v -0.05259375 4.24575 0.005859375 1 1 1
v 0.2805 3.825 0.03125 1 1 1
v 0.2805 3.825 -0.03125 1 1 1
v -1.283198E-15 3.825 -0.125 1 1 1
v -0.2805 3.825 -0.03125 1 1 1
v -1.283198E-15 3.825 0.125 1 1 1
v -0.2805 3.825 0.03125 1 1 1
v -0.2805 1.35 -0.03125 1 1 1
v -1.283198E-15 1.35 -0.125 1 1 1
v -0.2805 1.35 0.03125 1 1 1
v 0.2805 1.35 -0.03125 1 1 1
v 0.2805 1.35 0.03125 1 1 1
v -1.283198E-15 1.35 0.125 1 1 1

vn 0 0.2247516 0.9744161
vn 0 0.529999 0.8479983
vn -0.9744161 0.2247516 0
vn -0.8479983 0.529999 0
vn 0.9744161 0.2247516 0
vn 0.8479983 0.529999 0
vn 0 0.2247516 -0.9744161
vn 0 0.529999 -0.8479983
vn 0.9744161 -0.2247516 0
vn 0 -0.2247516 0.9744161
vn -0.9744161 -0.2247516 0
vn 0 -0.2247516 -0.9744161
vn 0 -1 0
vn 0.8479983 -0.529999 0
vn 0 -0.529999 0.8479983
vn 0 -0.529999 -0.8479983
vn -0.8479983 -0.529999 0
vn 0.2247516 -0.9744161 0
vn -0.2247516 -0.9744161 0
vn -0.2247516 0 -0.9744161
vn 0.2247516 0 -0.9744161
vn 0.2247516 0 0.9744161
vn 0.529999 0 0.8479983
vn -0.529999 0 -0.8479983
vn 1 0 0
vn -0.2247516 0 0.9744161
vn -0.529999 0 0.8479983
vn 0.2247516 0.9744161 0
vn -0.2247516 0.9744161 0
vn 0.529999 0 -0.8479983
vn -0.529999 0.8479983 0
vn -0.529999 -0.8479983 0
vn 0.529999 0.8479983 0
vn 0.529999 -0.8479983 0
vn 0 0 -1
vn 0 1 0
vn 0 0 1
vn -1 0 0
vn -0.7739689 0.5391423 -0.332111
vn -0.784829 0.5377297 -0.3080428
vn -0.7739689 0.5391423 0.332111
vn -0.784829 0.5377297 0.3080428
vn -0.9238795 0 -0.3826834
vn -0.9238795 0 0.3826834
vn -0.3826834 0 0.9238795
vn -0.3826834 0 -0.9238795
vn 0.9238795 0 -0.3826834
vn 0.9238795 0 0.3826834
vn 0.3826834 0 0.9238795
vn 0.3826834 0 -0.9238795
vn 0.7739689 0.5391423 -0.332111
vn 0.7739689 0.5391423 0.332111
vn 0.784829 0.5377297 -0.3080428
vn 0.784829 0.5377297 0.3080428
vn 0.3080428 0.5377297 0.784829
vn 0.332111 0.5391423 0.7739689
vn -0.332111 0.5391423 0.7739689
vn -0.3080428 0.5377297 0.784829
vn -0.332111 0.5391423 -0.7739689
vn 0.332111 0.5391423 -0.7739689
vn -0.3080428 0.5377297 -0.784829
vn 0.3080428 0.5377297 -0.784829
vn 0.7739689 -0.5391423 -0.332111
vn 0.784829 -0.5377297 -0.3080428
vn 0.7739689 -0.5391423 0.332111
vn 0.784829 -0.5377297 0.3080428
vn 0.3080428 -0.5377297 -0.784829
vn 0.332111 -0.5391423 -0.7739689
vn -0.332111 -0.5391423 -0.7739689
vn -0.7739689 -0.5391423 -0.332111
vn -0.3080428 -0.5377297 -0.784829
vn -0.784829 -0.5377297 -0.3080428
vn -0.7739689 -0.5391423 0.332111
vn -0.784829 -0.5377297 0.3080428
vn 0.3080428 -0.5377297 0.784829
vn 0.332111 -0.5391423 0.7739689
vn -0.3080428 -0.5377297 0.784829
vn -0.332111 -0.5391423 0.7739689
vn 0.6402438 0.3868477 0.6636541
vn 0.879292 0.4762832 0
vn 0.7314116 0.2023058 0.6512368
vn 0.7314116 0.2023058 -0.6512368
vn 0.6402438 0.3868477 -0.6636541
vn 0.3151153 0.1085505 -0.942825
vn 0.3089944 0.2231626 -0.9245111
vn -0.7314116 0.2023058 -0.6512368
vn -0.3151153 0.1085505 -0.942825
vn -0.6402438 0.3868477 -0.6636541
vn -0.3089944 0.2231626 -0.9245111
vn -0.3151153 0.1085505 0.942825
vn -0.7314116 0.2023058 0.6512368
vn -0.3089944 0.2231626 0.9245111
vn -0.6402438 0.3868477 0.6636541
vn 0.3151153 0.1085505 0.942825
vn 0.3089944 0.2231626 0.9245111
vn -0.7337543 0 -0.6794149
vn -0.3169885 0 -0.9484294
vn -0.7337543 0 0.6794149
vn 0.7337543 0 -0.6794149
vn 0.7337543 0 0.6794149
vn 0.3169885 0 0.9484294
vn 0.3169885 0 -0.9484294
vn -0.3169885 0 0.9484294

vt 0.46875 0.1583333
vt 0.46875 0.225
vt 0.46875 0.09166666
vt 0.46875 0.025
vt 0.46875 0.145
vt 0.46875 0.1583333
vt 0.46875 0.2116667
vt 0.46875 0.125
vt 0.46875 0.175
vt 0.46875 0.075
vt 0.21875 0.475
vt 0.21875 0.463376
vt 0.21875 0.395
vt 0.21875 0.225
vt 0.21875 0.025

usemtl colormap

f 3/2/2 2/1/1 1/1/1
f 2/1/1 3/2/2 4/2/2
f 2/1/3 6/2/4 5/1/3
f 6/2/4 2/1/3 4/2/4
f 8/2/6 1/1/5 7/1/5
f 1/1/5 8/2/6 3/2/6
f 6/2/8 7/1/7 5/1/7
f 7/1/7 6/2/8 8/2/8
f 1/1/5 9/3/9 7/1/5
f 9/3/9 1/1/5 10/3/9
f 1/1/1 11/3/10 10/3/10
f 11/3/10 1/1/1 2/1/1
f 11/3/11 5/1/3 12/3/11
f 5/1/3 11/3/11 2/1/3
f 5/1/7 9/3/12 12/3/12
f 9/3/12 5/1/7 7/1/7
f 15/4/13 14/4/13 13/4/13
f 14/4/13 15/4/13 16/4/13
f 10/3/9 14/4/14 9/3/9
f 14/4/14 10/3/9 13/4/14
f 10/3/10 15/4/15 13/4/15
f 15/4/15 10/3/10 11/3/10
f 12/3/12 14/4/16 16/4/16
f 14/4/16 12/3/12 9/3/12
f 16/4/17 11/3/11 12/3/11
f 11/3/11 16/4/17 15/4/17
f 19/5/18 18/5/19 17/5/18
f 18/5/19 19/5/18 20/5/19
f 21/2/20 17/5/21 18/5/20
f 17/5/21 21/2/20 22/2/21
f 24/6/23 23/2/22 19/5/22
f 23/2/22 24/6/23 25/7/23
f 26/6/24 21/2/20 18/5/20
f 21/2/20 26/6/24 27/7/24
f 25/7/25 29/6/25 28/7/25
f 29/6/25 25/7/25 24/6/25
f 31/2/26 30/6/27 20/5/26
f 30/6/27 31/2/26 32/7/27
f 21/2/29 23/2/28 22/2/28
f 23/2/28 21/2/29 31/2/29
f 22/2/21 29/6/30 17/5/21
f 29/6/30 22/2/21 28/7/30
f 27/7/31 31/2/29 21/2/29
f 31/2/29 27/7/31 32/7/31
f 20/5/19 26/6/32 18/5/19
f 26/6/32 20/5/19 30/6/32
f 22/2/28 25/7/33 28/7/33
f 25/7/33 22/2/28 23/2/28
f 24/6/34 17/5/18 29/6/34
f 17/5/18 24/6/34 19/5/18
f 19/5/22 31/2/26 20/5/26
f 31/2/26 19/5/22 23/2/22
f 35/2/35 34/5/35 33/5/35
f 34/5/35 35/2/35 36/2/35
f 35/2/36 37/2/36 36/2/36
f 37/2/36 35/2/36 38/2/36
f 40/5/13 34/5/13 39/5/13
f 34/5/13 40/5/13 33/5/13
f 37/2/37 40/5/37 39/5/37
f 40/5/37 37/2/37 38/2/37
f 43/5/19 42/5/18 41/5/18
f 42/5/18 43/5/19 44/5/19
f 41/5/22 45/2/26 43/5/26
f 45/2/26 41/5/22 46/2/22
f 45/2/26 47/6/27 43/5/26
f 47/6/27 45/2/26 48/7/27
f 49/2/20 42/5/21 44/5/20
f 42/5/21 49/2/20 50/2/21
f 51/6/23 46/2/22 41/5/22
f 46/2/22 51/6/23 52/7/23
f 50/2/28 52/7/33 53/7/33
f 52/7/33 50/2/28 46/2/28
f 50/2/21 54/6/30 42/5/21
f 54/6/30 50/2/21 53/7/30
f 49/2/29 46/2/28 50/2/28
f 46/2/28 49/2/29 45/2/29
f 55/7/31 45/2/29 49/2/29
f 45/2/29 55/7/31 48/7/31
f 41/5/18 54/6/34 51/6/34
f 54/6/34 41/5/18 42/5/18
f 47/6/38 55/7/38 56/6/38
f 55/7/38 47/6/38 48/7/38
f 56/6/24 49/2/20 44/5/20
f 49/2/20 56/6/24 55/7/24
f 47/6/32 44/5/19 43/5/19
f 44/5/19 47/6/32 56/6/32
f 59/8/41 58/9/40 57/8/39
f 58/9/40 59/8/41 60/9/42
f 61/10/43 59/8/44 57/8/43
f 59/8/44 61/10/43 62/10/44
f 62/10/44 63/8/45 59/8/44
f 63/8/45 62/10/44 64/10/45
f 66/10/46 57/8/43 65/8/46
f 57/8/43 66/10/46 61/10/43
f 69/10/13 68/10/13 67/10/13
f 68/10/13 69/10/13 70/10/13
f 70/10/13 69/10/13 64/10/13
f 70/10/13 64/10/13 66/10/13
f 66/10/13 64/10/13 62/10/13
f 66/10/13 62/10/13 61/10/13
f 72/8/48 68/10/47 71/8/47
f 68/10/47 72/8/48 67/10/48
f 73/8/49 67/10/48 72/8/48
f 67/10/48 73/8/49 69/10/49
f 65/8/46 70/10/50 66/10/46
f 70/10/50 65/8/46 74/8/50
f 73/8/49 64/10/45 69/10/49
f 64/10/45 73/8/49 63/8/45
f 74/8/50 68/10/47 70/10/50
f 68/10/47 74/8/50 71/8/47
f 77/9/36 76/9/36 75/9/36
f 76/9/36 77/9/36 78/9/36
f 78/9/36 77/9/36 79/9/36
f 78/9/36 79/9/36 80/9/36
f 80/9/36 79/9/36 58/9/36
f 80/9/36 58/9/36 60/9/36
f 75/9/53 72/8/52 71/8/51
f 72/8/52 75/9/53 76/9/54
f 78/9/55 72/8/52 76/9/54
f 72/8/52 78/9/55 73/8/56
f 78/9/55 63/8/57 73/8/56
f 63/8/57 78/9/55 80/9/58
f 79/9/61 74/8/60 65/8/59
f 74/8/60 79/9/61 77/9/62
f 77/9/62 71/8/51 74/8/60
f 71/8/51 77/9/62 75/9/53
f 57/8/39 79/9/61 65/8/59
f 79/9/61 57/8/39 58/9/40
f 59/8/41 80/9/58 60/9/42
f 80/9/58 59/8/41 63/8/57
f 83/9/46 82/8/50 81/8/46
f 82/8/50 83/9/46 84/9/50
f 87/9/48 86/8/47 85/9/47
f 86/8/47 87/9/48 88/8/48
f 91/9/49 90/8/45 89/8/49
f 90/8/45 91/9/49 92/9/45
f 93/8/43 83/9/46 81/8/46
f 83/9/46 93/8/43 94/9/43
f 87/9/48 89/8/49 88/8/48
f 89/8/49 87/9/48 91/9/49
f 90/8/45 96/9/44 95/8/44
f 96/9/44 90/8/45 92/9/45
f 85/9/47 82/8/50 84/9/50
f 82/8/50 85/9/47 86/8/47
f 95/8/44 94/9/43 93/8/43
f 94/9/43 95/8/44 96/9/44
f 99/10/13 98/10/13 97/10/13
f 98/10/13 99/10/13 100/10/13
f 100/10/13 99/10/13 101/10/13
f 100/10/13 101/10/13 102/10/13
f 102/10/13 101/10/13 103/10/13
f 102/10/13 103/10/13 104/10/13
f 88/8/65 98/10/64 86/8/63
f 98/10/64 88/8/65 97/10/66
f 82/8/68 98/10/64 100/10/67
f 98/10/64 82/8/68 86/8/63
f 84/9/36 87/9/36 85/9/36
f 87/9/36 84/9/36 91/9/36
f 91/9/36 84/9/36 83/9/36
f 91/9/36 83/9/36 92/9/36
f 92/9/36 83/9/36 94/9/36
f 92/9/36 94/9/36 96/9/36
f 102/10/71 93/8/70 81/8/69
f 93/8/70 102/10/71 104/10/72
f 81/8/69 100/10/67 102/10/71
f 100/10/67 81/8/69 82/8/68
f 104/10/72 95/8/73 93/8/70
f 95/8/73 104/10/72 103/10/74
f 88/8/65 99/10/75 97/10/66
f 99/10/75 88/8/65 89/8/76
f 101/10/77 95/8/73 103/10/74
f 95/8/73 101/10/77 90/8/78
f 89/8/76 101/10/77 99/10/75
f 101/10/77 89/8/76 90/8/78
f 107/11/36 106/11/36 105/11/36
f 106/11/36 107/11/36 108/11/36
f 108/11/36 107/11/36 109/11/36
f 109/11/36 107/11/36 110/11/36
f 109/11/36 110/11/36 111/11/36
f 112/12/81 106/11/80 108/11/79
f 112/12/81 113/12/82 106/11/80
f 106/11/80 113/12/82 105/11/83
f 107/11/85 113/12/82 114/12/84
f 113/12/82 107/11/85 105/11/83
f 110/11/88 114/12/87 115/12/86
f 114/12/87 110/11/88 107/11/89
f 109/11/92 117/12/91 116/12/90
f 117/12/91 109/11/92 111/11/93
f 117/12/91 110/11/88 115/12/86
f 110/11/88 117/12/91 111/11/93
f 108/11/79 116/12/94 112/12/81
f 116/12/94 108/11/79 109/11/95
f 115/12/86 119/13/97 118/13/96
f 119/13/97 115/12/86 114/12/87
f 120/13/98 115/12/86 118/13/96
f 115/12/86 120/13/98 117/12/91
f 113/12/82 122/13/100 121/13/99
f 122/13/100 113/12/82 112/12/81
f 112/12/81 123/13/101 122/13/100
f 123/13/101 112/12/81 116/12/94
f 114/12/84 121/13/99 119/13/102
f 121/13/99 114/12/84 113/12/82
f 116/12/90 120/13/98 123/13/103
f 120/13/98 116/12/90 117/12/91
f 102/15/46 77/14/50 79/14/46
f 77/14/50 102/15/46 100/15/50
f 80/14/45 103/15/44 60/14/44
f 103/15/44 80/14/45 101/15/45
f 98/15/47 77/14/50 100/15/50
f 77/14/50 98/15/47 75/14/47
f 78/14/13 75/14/13 76/14/13
f 75/14/13 78/14/13 77/14/13
f 77/14/13 78/14/13 80/14/13
f 77/14/13 80/14/13 79/14/13
f 79/14/13 80/14/13 60/14/13
f 79/14/13 60/14/13 58/14/13
f 97/15/48 75/14/47 98/15/47
f 75/14/47 97/15/48 76/14/48
f 100/15/36 97/15/36 98/15/36
f 97/15/36 100/15/36 99/15/36
f 99/15/36 100/15/36 102/15/36
f 99/15/36 102/15/36 101/15/36
f 101/15/36 102/15/36 104/15/36
f 101/15/36 104/15/36 103/15/36
f 60/14/44 104/15/43 58/14/43
f 104/15/43 60/14/44 103/15/44
f 99/15/49 80/14/45 78/14/49
f 80/14/45 99/15/49 101/15/45
f 99/15/49 76/14/48 97/15/48
f 76/14/48 99/15/49 78/14/49
f 58/14/43 102/15/46 79/14/46
f 102/15/46 58/14/43 104/15/43

g sword-b




usemtl colormap

f 3/2/2 2/1/1 1/1/1
f 2/1/1 3/2/2 4/2/2
f 2/1/3 6/2/4 5/1/3
f 6/2/4 2/1/3 4/2/4
f 8/2/6 1/1/5 7/1/5
f 1/1/5 8/2/6 3/2/6
f 6/2/8 7/1/7 5/1/7
f 7/1/7 6/2/8 8/2/8
f 1/1/5 9/3/9 7/1/5
f 9/3/9 1/1/5 10/3/9
f 1/1/1 11/3/10 10/3/10
f 11/3/10 1/1/1 2/1/1
f 11/3/11 5/1/3 12/3/11
f 5/1/3 11/3/11 2/1/3
f 5/1/7 9/3/12 12/3/12
f 9/3/12 5/1/7 7/1/7
f 15/4/13 14/4/13 13/4/13
f 14/4/13 15/4/13 16/4/13
f 10/3/9 14/4/14 9/3/9
f 14/4/14 10/3/9 13/4/14
f 10/3/10 15/4/15 13/4/15
f 15/4/15 10/3/10 11/3/10
f 12/3/12 14/4/16 16/4/16
f 14/4/16 12/3/12 9/3/12
f 16/4/17 11/3/11 12/3/11
f 11/3/11 16/4/17 15/4/17
f 19/5/18 18/5/19 17/5/18
f 18/5/19 19/5/18 20/5/19
f 21/2/20 17/5/21 18/5/20
f 17/5/21 21/2/20 22/2/21
f 24/6/23 23/2/22 19/5/22
f 23/2/22 24/6/23 25/7/23
f 26/6/24 21/2/20 18/5/20
f 21/2/20 26/6/24 27/7/24
f 25/7/25 29/6/25 28/7/25
f 29/6/25 25/7/25 24/6/25
f 31/2/26 30/6/27 20/5/26
f 30/6/27 31/2/26 32/7/27
f 21/2/29 23/2/28 22/2/28
f 23/2/28 21/2/29 31/2/29
f 22/2/21 29/6/30 17/5/21
f 29/6/30 22/2/21 28/7/30
f 27/7/31 31/2/29 21/2/29
f 31/2/29 27/7/31 32/7/31
f 20/5/19 26/6/32 18/5/19
f 26/6/32 20/5/19 30/6/32
f 22/2/28 25/7/33 28/7/33
f 25/7/33 22/2/28 23/2/28
f 24/6/34 17/5/18 29/6/34
f 17/5/18 24/6/34 19/5/18
f 19/5/22 31/2/26 20/5/26
f 31/2/26 19/5/22 23/2/22
f 35/2/35 34/5/35 33/5/35
f 34/5/35 35/2/35 36/2/35
f 35/2/36 37/2/36 36/2/36
f 37/2/36 35/2/36 38/2/36
f 40/5/13 34/5/13 39/5/13
f 34/5/13 40/5/13 33/5/13
f 37/2/37 40/5/37 39/5/37
f 40/5/37 37/2/37 38/2/37
f 43/5/19 42/5/18 41/5/18
f 42/5/18 43/5/19 44/5/19
f 41/5/22 45/2/26 43/5/26
f 45/2/26 41/5/22 46/2/22
f 45/2/26 47/6/27 43/5/26
f 47/6/27 45/2/26 48/7/27
f 49/2/20 42/5/21 44/5/20
f 42/5/21 49/2/20 50/2/21
f 51/6/23 46/2/22 41/5/22
f 46/2/22 51/6/23 52/7/23
f 50/2/28 52/7/33 53/7/33
f 52/7/33 50/2/28 46/2/28
f 50/2/21 54/6/30 42/5/21
f 54/6/30 50/2/21 53/7/30
f 49/2/29 46/2/28 50/2/28
f 46/2/28 49/2/29 45/2/29
f 55/7/31 45/2/29 49/2/29
f 45/2/29 55/7/31 48/7/31
f 41/5/18 54/6/34 51/6/34
f 54/6/34 41/5/18 42/5/18
f 47/6/38 55/7/38 56/6/38
f 55/7/38 47/6/38 48/7/38
f 56/6/24 49/2/20 44/5/20
f 49/2/20 56/6/24 55/7/24
f 47/6/32 44/5/19 43/5/19
f 44/5/19 47/6/32 56/6/32
f 59/8/41 58/9/40 57/8/39
f 58/9/40 59/8/41 60/9/42
f 61/10/43 59/8/44 57/8/43
f 59/8/44 61/10/43 62/10/44
f 62/10/44 63/8/45 59/8/44
f 63/8/45 62/10/44 64/10/45
f 66/10/46 57/8/43 65/8/46
f 57/8/43 66/10/46 61/10/43
f 69/10/13 68/10/13 67/10/13
f 68/10/13 69/10/13 70/10/13
f 70/10/13 69/10/13 64/10/13
f 70/10/13 64/10/13 66/10/13
f 66/10/13 64/10/13 62/10/13
f 66/10/13 62/10/13 61/10/13
f 72/8/48 68/10/47 71/8/47
f 68/10/47 72/8/48 67/10/48
f 73/8/49 67/10/48 72/8/48
f 67/10/48 73/8/49 69/10/49
f 65/8/46 70/10/50 66/10/46
f 70/10/50 65/8/46 74/8/50
f 73/8/49 64/10/45 69/10/49
f 64/10/45 73/8/49 63/8/45
f 74/8/50 68/10/47 70/10/50
f 68/10/47 74/8/50 71/8/47
f 77/9/36 76/9/36 75/9/36
f 76/9/36 77/9/36 78/9/36
f 78/9/36 77/9/36 79/9/36
f 78/9/36 79/9/36 80/9/36
f 80/9/36 79/9/36 58/9/36
f 80/9/36 58/9/36 60/9/36
f 75/9/53 72/8/52 71/8/51
f 72/8/52 75/9/53 76/9/54
f 78/9/55 72/8/52 76/9/54
f 72/8/52 78/9/55 73/8/56
f 78/9/55 63/8/57 73/8/56
f 63/8/57 78/9/55 80/9/58
f 79/9/61 74/8/60 65/8/59
f 74/8/60 79/9/61 77/9/62
f 77/9/62 71/8/51 74/8/60
f 71/8/51 77/9/62 75/9/53
f 57/8/39 79/9/61 65/8/59
f 79/9/61 57/8/39 58/9/40
f 59/8/41 80/9/58 60/9/42
f 80/9/58 59/8/41 63/8/57
f 83/9/46 82/8/50 81/8/46
f 82/8/50 83/9/46 84/9/50
f 87/9/48 86/8/47 85/9/47
f 86/8/47 87/9/48 88/8/48
f 91/9/49 90/8/45 89/8/49
f 90/8/45 91/9/49 92/9/45
f 93/8/43 83/9/46 81/8/46
f 83/9/46 93/8/43 94/9/43
f 87/9/48 89/8/49 88/8/48
f 89/8/49 87/9/48 91/9/49
f 90/8/45 96/9/44 95/8/44
f 96/9/44 90/8/45 92/9/45
f 85/9/47 82/8/50 84/9/50
f 82/8/50 85/9/47 86/8/47
f 95/8/44 94/9/43 93/8/43
f 94/9/43 95/8/44 96/9/44
f 99/10/13 98/10/13 97/10/13
f 98/10/13 99/10/13 100/10/13
f 100/10/13 99/10/13 101/10/13
f 100/10/13 101/10/13 102/10/13
f 102/10/13 101/10/13 103/10/13
f 102/10/13 103/10/13 104/10/13
f 88/8/65 98/10/64 86/8/63
f 98/10/64 88/8/65 97/10/66
f 82/8/68 98/10/64 100/10/67
f 98/10/64 82/8/68 86/8/63
f 84/9/36 87/9/36 85/9/36
f 87/9/36 84/9/36 91/9/36
f 91/9/36 84/9/36 83/9/36
f 91/9/36 83/9/36 92/9/36
f 92/9/36 83/9/36 94/9/36
f 92/9/36 94/9/36 96/9/36
f 102/10/71 93/8/70 81/8/69
f 93/8/70 102/10/71 104/10/72
f 81/8/69 100/10/67 102/10/71
f 100/10/67 81/8/69 82/8/68
f 104/10/72 95/8/73 93/8/70
f 95/8/73 104/10/72 103/10/74
f 88/8/65 99/10/75 97/10/66
f 99/10/75 88/8/65 89/8/76
f 101/10/77 95/8/73 103/10/74
f 95/8/73 101/10/77 90/8/78
f 89/8/76 101/10/77 99/10/75
f 101/10/77 89/8/76 90/8/78
f 107/11/36 106/11/36 105/11/36
f 106/11/36 107/11/36 108/11/36
f 108/11/36 107/11/36 109/11/36
f 109/11/36 107/11/36 110/11/36
f 109/11/36 110/11/36 111/11/36
f 112/12/81 106/11/80 108/11/79
f 112/12/81 113/12/82 106/11/80
f 106/11/80 113/12/82 105/11/83
f 107/11/85 113/12/82 114/12/84
f 113/12/82 107/11/85 105/11/83
f 110/11/88 114/12/87 115/12/86
f 114/12/87 110/11/88 107/11/89
f 109/11/92 117/12/91 116/12/90
f 117/12/91 109/11/92 111/11/93
f 117/12/91 110/11/88 115/12/86
f 110/11/88 117/12/91 111/11/93
f 108/11/79 116/12/94 112/12/81
f 116/12/94 108/11/79 109/11/95
f 115/12/86 119/13/97 118/13/96
f 119/13/97 115/12/86 114/12/87
f 120/13/98 115/12/86 118/13/96
f 115/12/86 120/13/98 117/12/91
f 113/12/82 122/13/100 121/13/99
f 122/13/100 113/12/82 112/12/81
f 112/12/81 123/13/101 122/13/100
f 123/13/101 112/12/81 116/12/94
f 114/12/84 121/13/99 119/13/102
f 121/13/99 114/12/84 113/12/82
f 116/12/90 120/13/98 123/13/103
f 120/13/98 116/12/90 117/12/91
f 102/15/46 77/14/50 79/14/46
f 77/14/50 102/15/46 100/15/50
f 80/14/45 103/15/44 60/14/44
f 103/15/44 80/14/45 101/15/45
f 98/15/47 77/14/50 100/15/50
f 77/14/50 98/15/47 75/14/47
f 78/14/13 75/14/13 76/14/13
f 75/14/13 78/14/13 77/14/13
f 77/14/13 78/14/13 80/14/13
f 77/14/13 80/14/13 79/14/13
f 79/14/13 80/14/13 60/14/13
f 79/14/13 60/14/13 58/14/13
f 97/15/48 75/14/47 98/15/47
f 75/14/47 97/15/48 76/14/48
f 100/15/36 97/15/36 98/15/36
f 97/15/36 100/15/36 99/15/36
f 99/15/36 100/15/36 102/15/36
f 99/15/36 102/15/36 101/15/36
f 101/15/36 102/15/36 104/15/36
f 101/15/36 104/15/36 103/15/36
f 60/14/44 104/15/43 58/14/43
f 104/15/43 60/14/44 103/15/44
f 99/15/49 80/14/45 78/14/49
f 80/14/45 99/15/49 101/15/45
f 99/15/49 76/14/48 97/15/48
f 76/14/48 99/15/49 78/14/49
f 58/14/43 102/15/46 79/14/46
f 102/15/46 58/14/43 104/15/43

