<svg xmlns="http://www.w3.org/2000/svg" viewBox="0 0 134.62 109.24">
  <!-- Planète de Radio Dangereuse (assets/images/common/logo_radio_dangereuse_anim.svg du site, sans l'animation du cratère) -->
  <path id="planet" fill="#ffbd14" d="m110.4 54.996c-1.4174 1.2757-2.9766 2.5513-4.394 3.827-8.221 6.8036-17.718 13.749-28.207 20.552-7.9375 5.1027-15.733 9.7801-23.246 13.607-1.8426 0.99219-3.5435 1.8426-5.2444 2.6931-10.631 5.3862-20.269 9.2132-28.207 11.481-10.489 2.9766-17.859 2.8348-20.269-0.85045-4.1105-6.2366 7.3705-21.403 27.356-38.128 0.14174 0.99219 0.42522 1.9844 0.70871 2.9766 0.42522 1.4174 0.85045 2.9766 1.4174 4.2522-2.6931 4.1105-3.5435 7.5123-2.1261 9.7801 1.4174 2.1261 4.8192 2.6931 9.6384 1.9844 1.7009-0.28348 3.4018-0.56696 5.3862-1.1339h0.14174c9.2132-2.5513 21.403-8.221 33.876-16.3 11.198-7.2288 20.552-15.025 26.647-21.828 1.2757-1.4174 2.4096-2.8348 3.4018-4.1105 4.1105-5.3862 5.8114-9.9219 4.1105-12.473-1.7009-2.6931-6.8036-2.9766-13.891-1.1339-1.2757-1.1339-2.6931-2.2679-4.1105-3.26 7.5123-3.4018 14.316-5.9531 20.127-7.654 10.489-2.9766 17.859-2.8348 20.269 0.85045 3.827 6.0949-5.8114 19.56-23.387 34.868zm22.679 46.633c0-3.6853-2.9766-6.6618-6.6618-6.6618-3.6853 0-6.6618 2.9766-6.6618 6.6618s2.9766 6.6618 6.6618 6.6618c3.6853 0.14174 6.6618-2.9766 6.6618-6.6618zm-34.018-87.738c0-2.8348-2.1261-5.2444-4.8192-5.2444s-4.8192 2.2679-4.8192 5.2444c0 2.8348 2.1261 5.2444 4.8192 5.2444s4.8192-2.2679 4.8192-5.2444zm-76.399-5.1027c0-4.8192-3.9688-8.788-8.788-8.788-4.8192 0-8.788 3.9688-8.788 8.788 0 4.8192 3.9688 8.6462 8.788 8.6462 4.8192 0 8.788-3.827 8.788-8.6462zm79.659 35.294c-0.42523 0.42522-0.70871 0.85045-1.1339 1.2757-6.2366 6.8036-15.45 14.316-26.08 21.119-11.623 7.5123-23.671 13.324-32.742 15.875h-0.14174c-0.70871 0.14174-1.4174 0.42522-1.9844 0.56696-3.1183-3.6853-5.5279-8.0792-6.8036-12.898-5.2444-18.993 6.3784-38.695 26.08-44.223 4.5357-1.2757 9.0714-1.7009 13.324-1.2757 4.0191 0.37938 5.7456 0.6832 9.2132 1.8426 8.788 3.1183 16.158 9.3549 20.269 17.718zm3.26 19.986c-1.8426 13.891-12.19 26.08-26.931 30.191-6.3784 1.8426-12.898 1.8426-18.993 0.42522 6.6618-3.6853 13.465-7.654 20.127-12.048 9.3549-5.9531 18.001-12.19 25.797-18.568z"/>
  <circle id="crater" cx="63" cy="66" r="5.1608" fill="#1b1b1b"/>
</svg>
